<?xml version="1.0" encoding="UTF-8" standalone="no"?>
<!-- Created with Inkscape (http://www.inkscape.org/) -->

<svg
   width="50.799999mm"
   height="128.5mm"
   viewBox="0 0 50.799999 128.5"
   version="1.1"
   id="svg1"
   inkscape:version="1.3 (0e150ed, 2023-07-21)"
   sodipodi:docname="EFunction12.svg"
   xmlns:inkscape="http://www.inkscape.org/namespaces/inkscape"
   xmlns:sodipodi="http://sodipodi.sourceforge.net/DTD/sodipodi-0.dtd"
   xmlns="http://www.w3.org/2000/svg"
   xmlns:svg="http://www.w3.org/2000/svg">
  <sodipodi:namedview
     id="namedview1"
     pagecolor="#ffffff"
     bordercolor="#000000"
     borderopacity="0.25"
     inkscape:showpageshadow="2"
     inkscape:pageopacity="0.0"
     inkscape:pagecheckerboard="0"
     inkscape:deskcolor="#d1d1d1"
     inkscape:document-units="mm"
     inkscape:zoom="0.92737795"
     inkscape:cx="121.84892"
     inkscape:cy="302.46568"
     inkscape:window-width="2320"
     inkscape:window-height="1248"
     inkscape:window-x="764"
     inkscape:window-y="25"
     inkscape:window-maximized="0"
     inkscape:current-layer="layer1"
     showgrid="false"
     showguides="true"
     showborder="false">
    <inkscape:grid
       id="grid1"
       units="mm"
       originx="0"
       originy="0"
       spacingx="0.99999998"
       spacingy="1"
       empcolor="#0099e5"
       empopacity="0.30196078"
       color="#0099e5"
       opacity="0.14901961"
       empspacing="5"
       dotted="false"
       gridanglex="30"
       gridanglez="30"
       visible="false" />
  </sodipodi:namedview>
  <defs
     id="defs1">
    <rect
       x="262.02909"
       y="166.05959"
       width="334.27579"
       height="11.861399"
       id="rect15" />
  </defs>
  <g
     inkscape:label="background"
     inkscape:groupmode="layer"
     id="layer1"
     style="display:inline;fill:#ffffff">
    <rect
       style="display:inline;fill:#ffffff;fill-opacity:1;stroke-width:4.08699"
       id="background"
       width="50.799999"
       height="128.5"
       x="2.0636746e-06"
       y="-5.5511151e-17"
       inkscape:label="background"
       sodipodi:insensitive="true" />
    <rect
       style="fill:#000000;fill-opacity:0.72;stroke-width:4.08699"
       id="rect23"
       width="48.786743"
       height="13.123919"
       x="0.8559078"
       y="49.07019"
       rx="2"
       ry="2" />
    <path
       style="font-weight:bold;font-size:4.23333px;-inkscape-font-specification:'sans-serif Bold';display:inline;fill:#ff0000;stroke-width:4.087"
       d="M 14.460913,7.1325645 H 13.671297 V 5.0717102 L 13.10079,6.4090951 H 12.55302 L 11.982513,5.0717102 V 7.1325645 H 11.234239 V 4.0547188 h 0.921907 l 0.692463,1.5440905 0.690397,-1.5440905 h 0.921907 z M 17.491216,6.109372 h -1.703253 q 0.01654,0.2728514 0.206705,0.4175453 0.192236,0.1446939 0.564306,0.1446939 0.235645,0 0.45682,-0.084749 0.221174,-0.084749 0.349332,-0.1819009 h 0.08268 V 7.00234 q -0.252181,0.1012858 -0.475423,0.146761 -0.223242,0.045475 -0.494026,0.045475 -0.698665,0 -1.070735,-0.3141924 -0.37207,-0.3141925 -0.37207,-0.8950351 0,-0.5746414 0.3514,-0.9095044 0.353466,-0.3369301 0.967382,-0.3369301 0.566373,0 0.851627,0.2873207 0.285253,0.2852537 0.285253,0.8226881 z M 16.75121,5.6732233 Q 16.745009,5.439646 16.635455,5.3218239 16.525901,5.2040017 16.294391,5.2040017 q -0.214974,0 -0.353466,0.111621 -0.138493,0.111621 -0.15503,0.3576006 z m 2.749185,1.4386707 q -0.11989,0.031006 -0.254248,0.047542 -0.134359,0.018603 -0.328662,0.018603 -0.434082,0 -0.646988,-0.1756998 -0.21084,-0.1756997 -0.21084,-0.6015131 V 5.3156227 H 17.753733 V 4.8112612 h 0.305924 V 4.1477363 h 0.74414 v 0.6635249 h 0.696598 v 0.5043615 h -0.696598 v 0.8226881 q 0,0.1219563 0.0021,0.2129067 0.0021,0.09095 0.03307,0.1632974 0.02894,0.072347 0.101286,0.1157551 0.07441,0.041341 0.214973,0.041341 0.05788,0 0.150895,-0.024805 0.09509,-0.024805 0.132292,-0.045475 h 0.06201 z m 1.850014,-0.5849767 v -0.483691 q -0.150895,0.012402 -0.326595,0.03514 -0.1757,0.020671 -0.26665,0.049609 -0.111621,0.03514 -0.171566,0.1033528 -0.05788,0.066146 -0.05788,0.1756997 0,0.072347 0.0124,0.1178222 0.0124,0.045475 0.06201,0.086816 0.04754,0.041341 0.113688,0.062012 0.06614,0.018603 0.206705,0.018603 0.111621,0 0.225309,-0.045475 0.115755,-0.045475 0.202572,-0.1198892 z m 0,0.3596676 q -0.05994,0.045475 -0.148828,0.109554 -0.08888,0.064079 -0.167432,0.1012857 -0.109554,0.049609 -0.227376,0.072347 -0.117822,0.024805 -0.258382,0.024805 -0.330729,0 -0.553971,-0.2046385 -0.223242,-0.2046385 -0.223242,-0.522965 0,-0.2542479 0.113688,-0.4154782 0.113688,-0.1612303 0.322461,-0.2542478 0.206706,-0.093017 0.51263,-0.1322916 0.305924,-0.039274 0.634586,-0.057878 v -0.012402 q 0,-0.1922362 -0.157096,-0.2645831 -0.157097,-0.074414 -0.463021,-0.074414 -0.183968,0 -0.39274,0.066146 -0.208773,0.064079 -0.299723,0.099219 h -0.06821 v -0.560172 q 0.117822,-0.031006 0.382405,-0.072347 0.26665,-0.043408 0.5333,-0.043408 0.634586,0 0.915706,0.1963703 0.283186,0.1943032 0.283186,0.6118484 v 1.5792304 h -0.737938 z m 6.137088,0.2459796 H 26.697882 V 5.0717102 l -0.570507,1.3373849 h -0.54777 L 25.009098,5.0717102 V 7.1325645 H 24.260824 V 4.0547188 h 0.921906 l 0.692464,1.5440905 0.690396,-1.5440905 h 0.921907 z m 3.117121,-1.1596181 q 0,0.5725744 -0.334863,0.9033033 -0.332796,0.3286618 -0.936376,0.3286618 -0.603581,0 -0.938444,-0.3286618 -0.332796,-0.3307289 -0.332796,-0.9033033 0,-0.5767085 0.334863,-0.9053704 0.33693,-0.3286618 0.936377,-0.3286618 0.607714,0 0.938443,0.3307289 0.332796,0.3307289 0.332796,0.9033033 z m -0.915706,0.5643061 q 0.07235,-0.088883 0.107487,-0.2129067 0.03721,-0.1260904 0.03721,-0.3472653 0,-0.2046385 -0.03721,-0.3431312 -0.03721,-0.1384928 -0.103353,-0.221175 -0.06615,-0.084749 -0.159163,-0.1198892 -0.09302,-0.03514 -0.200504,-0.03514 -0.107487,0 -0.192237,0.028939 -0.08268,0.028939 -0.159163,0.1157551 -0.06821,0.080615 -0.109554,0.221175 -0.03927,0.1405598 -0.03927,0.3534665 0,0.1901691 0.03514,0.3307289 0.03514,0.1384927 0.103353,0.223242 0.06615,0.080615 0.157096,0.1178221 0.09302,0.037207 0.21084,0.037207 0.101285,0 0.192236,-0.033073 0.09302,-0.03514 0.157096,-0.1157552 z M 32.8205,5.5202612 h -0.06615 q -0.04754,-0.016536 -0.152962,-0.024805 -0.10542,-0.00827 -0.1757,-0.00827 -0.159163,0 -0.281119,0.020671 -0.121957,0.020671 -0.262516,0.07028 v 1.5544257 h -0.74414 V 4.8112612 h 0.74414 v 0.3410641 q 0.245979,-0.2108396 0.42788,-0.2790525 0.181901,-0.07028 0.334863,-0.07028 0.03927,0 0.08888,0.00207 0.04961,0.00207 0.08682,0.0062 z m 2.844269,0.4196123 q 0,0.2873207 -0.08888,0.522965 -0.08682,0.2356444 -0.229444,0.3886065 -0.148828,0.1612303 -0.33693,0.2439125 -0.188102,0.082682 -0.403075,0.082682 -0.198438,0 -0.33693,-0.043408 -0.138493,-0.041341 -0.283187,-0.1178222 v 0.967382 H 33.24218 V 4.8112612 h 0.74414 v 0.2418455 q 0.171566,-0.1364257 0.349332,-0.221175 0.179834,-0.084749 0.413411,-0.084749 0.434082,0 0.673861,0.3183266 0.241845,0.3183265 0.241845,0.8743642 z m -0.766878,0.014469 q 0,-0.3389971 -0.115755,-0.4919592 -0.115755,-0.1529622 -0.365869,-0.1529622 -0.105419,0 -0.21704,0.033073 -0.111621,0.031006 -0.212907,0.09095 v 1.1678864 q 0.07441,0.028939 0.159163,0.037207 0.08475,0.00827 0.167432,0.00827 0.295589,0 0.440283,-0.1715656 0.144693,-0.1736327 0.144693,-0.520898 z m 3.635951,1.1782216 H 37.785568 V 5.9812146 q 0,-0.1405598 -0.01447,-0.2790525 -0.01447,-0.1405598 -0.04961,-0.2067056 -0.04134,-0.076481 -0.121957,-0.111621 -0.07855,-0.03514 -0.221175,-0.03514 -0.101285,0 -0.206705,0.033073 -0.103353,0.033073 -0.225309,0.1054198 v 1.6453762 h -0.74414 V 3.9162261 h 0.74414 V 5.067576 q 0.198437,-0.1550291 0.380338,-0.2377113 0.183968,-0.082682 0.40721,-0.082682 0.376204,0 0.587044,0.2191079 0.212906,0.2191079 0.212906,0.6552566 z"
       id="text4"
       inkscape:label="text4"
       aria-label="Meta Morph" />
    <path
       style="font-weight:bold;font-size:2.82223px;-inkscape-font-specification:'sans-serif Bold';display:inline;fill:#ff0000;stroke-width:4.087"
       d="m 5.8842266,30.36229 h -0.649058 l -0.613229,-0.82132 -0.124023,0.15021 v 0.67111 h -0.529168 v -2.05191 h 0.529168 v 0.9288 l 0.733118,-0.9288 h 0.613229 l -0.802021,0.94947 z m 1.757004,-0.68213 h -1.135507 q 0.01102,0.1819 0.137804,0.27836 0.128158,0.0965 0.376206,0.0965 0.157096,0 0.304547,-0.0565 0.14745,-0.0565 0.232889,-0.12126 h 0.05512 v 0.39825 q -0.168121,0.0675 -0.31695,0.0978 -0.148828,0.0303 -0.329352,0.0303 -0.465778,0 -0.713826,-0.20946 -0.248047,-0.20947 -0.248047,-0.5967 0,-0.38309 0.234267,-0.60634 0.235645,-0.22462 0.644924,-0.22462 0.377583,0 0.567753,0.19155 0.19017,0.19017 0.19017,0.54846 z m -0.49334,-0.29077 q -0.0041,-0.15572 -0.07717,-0.23427 -0.07304,-0.0786 -0.227377,-0.0786 -0.143316,0 -0.235645,0.0744 -0.09233,0.0744 -0.103353,0.2384 z m 1.542029,0.42581 0.352779,-1.00045 h 0.5098757 l -0.8598977,2.11529 h -0.537437 l 0.245292,-0.57878 -0.602205,-1.53651 h 0.5209 z"
       id="text2"
       aria-label="Key" />
    <path
       style="font-weight:bold;font-size:2.82223px;-inkscape-font-specification:'sans-serif Bold';fill:#ff0000;fill-opacity:0.765203;stroke-width:4.087"
       d="m 39.972394,110.4121 h -1.480017 v -2.0519 h 0.529168 v 1.65503 h 0.950849 z m 0.786862,0 h -0.496095 v -1.54754 h 0.496095 z m 0.01378,-1.76803 H 40.24938 v -0.3762 h 0.523656 z m 1.959576,1.59026 q 0,0.21773 -0.06201,0.36656 -0.06201,0.14883 -0.173633,0.23289 -0.111621,0.0854 -0.270096,0.12265 -0.157097,0.0386 -0.355535,0.0386 -0.161231,0 -0.318328,-0.0193 -0.155719,-0.0193 -0.270096,-0.0468 v -0.38723 h 0.06063 q 0.09095,0.0358 0.221865,0.0648 0.130914,0.0303 0.234267,0.0303 0.137804,0 0.223243,-0.0262 0.08682,-0.0248 0.132292,-0.0717 0.04272,-0.0441 0.06201,-0.113 0.01929,-0.0689 0.01929,-0.16536 v -0.0289 q -0.08957,0.073 -0.198438,0.11575 -0.108865,0.0427 -0.242535,0.0427 -0.325218,0 -0.501608,-0.19568 -0.176389,-0.19568 -0.176389,-0.59531 0,-0.19155 0.05374,-0.33073 0.05374,-0.13919 0.151584,-0.24254 0.09095,-0.0965 0.223243,-0.15021 0.13367,-0.0537 0.272852,-0.0537 0.125402,0 0.227377,0.0303 0.103353,0.0289 0.187414,0.0813 l 0.01792,-0.0689 h 0.480936 z m -0.496095,-0.31006 v -0.70142 q -0.04272,-0.0179 -0.104731,-0.0276 -0.06201,-0.011 -0.111622,-0.011 -0.195682,0 -0.293523,0.113 -0.09784,0.11162 -0.09784,0.31281 0,0.22324 0.08268,0.31144 0.08406,0.0882 0.248048,0.0882 0.07441,0 0.146072,-0.0234 0.07166,-0.0234 0.130914,-0.062 z m 2.519061,0.48783 h -0.498851 v -0.76757 q 0,-0.0937 -0.0096,-0.18603 -0.0096,-0.0937 -0.03307,-0.13781 -0.02756,-0.051 -0.0813,-0.0744 -0.05237,-0.0234 -0.147451,-0.0234 -0.06752,0 -0.137804,0.0221 -0.0689,0.022 -0.150206,0.0703 v 1.09692 h -0.496095 v -2.14423 h 0.496095 v 0.76757 q 0.132292,-0.10336 0.253559,-0.15848 0.122646,-0.0551 0.271475,-0.0551 0.250803,0 0.391364,0.14607 0.141938,0.14608 0.141938,0.43684 z m 1.445566,-0.0138 q -0.07993,0.0207 -0.169499,0.0317 -0.08957,0.0124 -0.219109,0.0124 -0.289389,0 -0.431327,-0.11713 -0.14056,-0.11714 -0.14056,-0.40102 v -0.72347 h -0.20395 v -0.33624 h 0.20395 v -0.44235 h 0.496095 v 0.44235 h 0.4644 v 0.33624 h -0.4644 v 0.54846 q 0,0.0813 0.0014,0.14194 0.0014,0.0606 0.02205,0.10887 0.01929,0.0482 0.06752,0.0772 0.04961,0.0276 0.143316,0.0276 0.03859,0 0.100597,-0.0165 0.06339,-0.0165 0.08819,-0.0303 h 0.04134 z m 1.641248,-0.4768 q 0,0.23978 -0.214974,0.38723 -0.214975,0.14607 -0.588424,0.14607 -0.206707,0 -0.374828,-0.0386 -0.168121,-0.0386 -0.270096,-0.0854 v -0.4079 h 0.04548 q 0.03721,0.0262 0.08544,0.0579 0.04961,0.0303 0.139182,0.0661 0.07717,0.0317 0.175012,0.0551 0.09784,0.022 0.209462,0.022 0.146072,0 0.216353,-0.0317 0.07028,-0.0331 0.07028,-0.0965 0,-0.0565 -0.04134,-0.0813 -0.04134,-0.0262 -0.157096,-0.0496 -0.05512,-0.0124 -0.150207,-0.0262 -0.09371,-0.0152 -0.170877,-0.0358 -0.210841,-0.0551 -0.312816,-0.17088 -0.101975,-0.11713 -0.101975,-0.29077 0,-0.22324 0.210841,-0.37069 0.212218,-0.14883 0.578777,-0.14883 0.173634,0 0.332108,0.0358 0.159853,0.0345 0.249426,0.0744 v 0.39137 H 47.7294 q -0.110244,-0.0758 -0.252182,-0.12265 -0.14056,-0.0482 -0.285255,-0.0482 -0.119889,0 -0.202572,0.0331 -0.0813,0.0331 -0.0813,0.0937 0,0.0551 0.03721,0.0841 0.03721,0.0289 0.175011,0.0579 0.07579,0.0152 0.162609,0.0303 0.08819,0.0138 0.176389,0.0358 0.195682,0.051 0.289389,0.16123 0.09371,0.10886 0.09371,0.27285 z"
       id="text39"
       aria-label="Lights" />
    <path
       style="font-weight:bold;font-size:2.82223px;-inkscape-font-specification:'sans-serif Bold';fill:#000000;stroke-width:4.087"
       d="m 17.197746,30.306436 q -0.137804,0.05374 -0.365181,0.107487 -0.227377,0.05237 -0.453376,0.05237 -0.523656,0 -0.819935,-0.283877 -0.296279,-0.285255 -0.296279,-0.786862 0,-0.478181 0.299035,-0.770326 0.299035,-0.293523 0.833715,-0.293523 0.202573,0 0.385852,0.03721 0.18328,0.03583 0.407901,0.144694 v 0.480937 h -0.05926 q -0.03859,-0.02894 -0.113,-0.08131 -0.07441,-0.05374 -0.143316,-0.09095 -0.07993,-0.0441 -0.187414,-0.07579 -0.106109,-0.03169 -0.225999,-0.03169 -0.14056,0 -0.254937,0.04134 -0.114378,0.04134 -0.205329,0.12678 -0.08682,0.08268 -0.137804,0.210841 -0.04961,0.12678 -0.04961,0.293523 0,0.340376 0.180523,0.5209 0.180524,0.180523 0.533302,0.180523 0.03032,0 0.06615,-0.0014 0.03721,-0.0014 0.06752,-0.0041 v -0.402388 h -0.409278 v -0.38723 h 0.946715 z M 18.5813,30.019803 v -0.322462 q -0.100597,0.0083 -0.217731,0.02343 -0.117133,0.01378 -0.177767,0.03307 -0.07441,0.02343 -0.114377,0.0689 -0.03859,0.0441 -0.03859,0.117133 0,0.04823 0.0083,0.07855 0.0083,0.03032 0.04134,0.05788 0.03169,0.02756 0.07579,0.04134 0.0441,0.0124 0.137804,0.0124 0.07442,0 0.150207,-0.03032 0.07717,-0.03032 0.135048,-0.07993 z m 0,0.239779 q -0.03996,0.03032 -0.09922,0.07304 -0.05926,0.04272 -0.111621,0.06752 -0.07304,0.03307 -0.151585,0.04823 -0.07855,0.01654 -0.172255,0.01654 -0.220487,0 -0.369316,-0.136427 -0.148828,-0.136426 -0.148828,-0.348644 0,-0.169499 0.07579,-0.276987 0.07579,-0.107487 0.214975,-0.169499 0.137804,-0.06201 0.341754,-0.08819 0.20395,-0.02618 0.423059,-0.03858 v -0.0083 q 0,-0.128158 -0.104731,-0.176389 -0.104731,-0.04961 -0.308681,-0.04961 -0.122646,0 -0.261828,0.0441 -0.139183,0.04272 -0.199817,0.06615 h -0.04547 v -0.373449 q 0.07855,-0.02067 0.254938,-0.04823 0.177767,-0.02894 0.355535,-0.02894 0.423059,0 0.610472,0.130914 0.188792,0.129536 0.188792,0.4079 v 1.052824 H 18.5813 Z m 1.937527,0.150207 q -0.07993,0.02067 -0.169499,0.03169 -0.08957,0.0124 -0.219109,0.0124 -0.289388,0 -0.431327,-0.117133 -0.14056,-0.117134 -0.14056,-0.401011 V 29.21227 h -0.20395 v -0.336242 h 0.20395 v -0.442351 h 0.496095 v 0.442351 h 0.4644 v 0.336242 h -0.4644 v 0.548461 q 0,0.08131 0.0014,0.141938 0.0014,0.06063 0.02205,0.108866 0.01929,0.04823 0.06752,0.07717 0.04961,0.02756 0.143316,0.02756 0.03859,0 0.100597,-0.01654 0.06339,-0.01654 0.08819,-0.03032 h 0.04134 z m 1.820394,-0.668351 h -1.135507 q 0.01102,0.181902 0.137804,0.278365 0.128158,0.09646 0.376206,0.09646 0.157097,0 0.304547,-0.0565 0.147451,-0.0565 0.232889,-0.121268 h 0.05512 v 0.398255 q -0.168121,0.06752 -0.31695,0.09784 -0.148828,0.03032 -0.329352,0.03032 -0.465778,0 -0.713826,-0.209463 -0.248047,-0.209462 -0.248047,-0.596692 0,-0.383096 0.234267,-0.606339 0.235645,-0.22462 0.644924,-0.22462 0.377583,0 0.567753,0.191547 0.19017,0.19017 0.19017,0.548461 z m -0.493339,-0.290766 q -0.0041,-0.155719 -0.07717,-0.234268 -0.07304,-0.07855 -0.227377,-0.07855 -0.143316,0 -0.235645,0.07441 -0.09233,0.07442 -0.103353,0.238402 z"
       id="text1"
       aria-label="Gate" />
    <path
       style="font-weight:bold;font-size:2.82223px;-inkscape-font-specification:'sans-serif Bold';display:inline;fill:#ff0000;stroke-width:4.087"
       d="m 43.096415,30.609454 h -0.649058 l -0.613228,-0.821313 -0.124024,0.150206 v 0.671107 h -0.529168 v -2.051905 h 0.529168 v 0.928801 l 0.733118,-0.928801 h 0.613229 l -0.802021,0.949471 z m 2.075331,-0.117134 q -0.137804,0.05374 -0.365181,0.107488 -0.227377,0.05236 -0.453376,0.05236 -0.523656,0 -0.819935,-0.283877 -0.296279,-0.285254 -0.296279,-0.786862 0,-0.47818 0.299035,-0.770325 0.299036,-0.293523 0.833716,-0.293523 0.202572,0 0.385852,0.03721 0.183279,0.03583 0.4079,0.144695 v 0.480936 h -0.05926 q -0.03859,-0.02894 -0.112999,-0.0813 -0.07441,-0.05374 -0.143317,-0.09095 -0.07993,-0.0441 -0.187413,-0.07579 -0.106109,-0.0317 -0.225999,-0.0317 -0.14056,0 -0.254938,0.04134 -0.114377,0.04134 -0.205328,0.12678 -0.08682,0.08268 -0.137804,0.21084 -0.04961,0.12678 -0.04961,0.293523 0,0.340377 0.180524,0.5209 0.180523,0.180524 0.533302,0.180524 0.03032,0 0.06615,-0.0014 0.03721,-0.0014 0.06752,-0.0041 v -0.402388 h -0.409279 v -0.38723 h 0.946715 z"
       id="text6-7"
       aria-label="KG" />
    <rect
       style="display:inline;fill:#000000;fill-opacity:0.72;stroke-width:1.90557"
       id="rect4"
       width="11"
       height="11"
       x="37.975685"
       y="113.00899"
       rx="2"
       ry="2" />
    <path
       style="font-weight:bold;font-size:2.82223px;-inkscape-font-specification:'sans-serif Bold';fill:#000000;stroke-width:4.087"
       d="m 23.264941,16.033732 h -0.64079 v 1.655029 h -0.529168 v -1.655029 h -0.64079 v -0.396876 h 1.810748 z m 0.989434,1.107946 0.352779,-1.000458 h 0.509875 l -0.859898,2.115294 h -0.537437 l 0.245292,-0.578778 -0.602204,-1.536516 h 0.520899 z m 2.753328,-0.248048 q 0,0.191548 -0.05926,0.348645 -0.05788,0.157097 -0.152963,0.259072 -0.09922,0.107487 -0.22462,0.162609 -0.125402,0.05512 -0.268719,0.05512 -0.132292,0 -0.22462,-0.02894 -0.09233,-0.02756 -0.188792,-0.07855 v 0.644924 h -0.496091 v -2.11529 h 0.496095 v 0.16123 q 0.114377,-0.09095 0.232889,-0.14745 0.11989,-0.0565 0.275608,-0.0565 0.289389,0 0.449242,0.212219 0.161231,0.212218 0.161231,0.582911 z m -0.511254,0.0096 q 0,-0.225999 -0.07717,-0.327974 -0.07717,-0.101975 -0.243913,-0.101975 -0.07028,0 -0.144695,0.02205 -0.07441,0.02067 -0.141938,0.06063 v 0.778594 q 0.04961,0.01929 0.106109,0.02481 0.0565,0.0055 0.111621,0.0055 0.19706,0 0.293523,-0.114378 0.09646,-0.115755 0.09646,-0.347266 z m 2.393659,0.103353 h -1.135506 q 0.01102,0.181901 0.137804,0.278364 0.128158,0.09646 0.376205,0.09646 0.157097,0 0.304548,-0.0565 0.14745,-0.0565 0.232889,-0.121268 h 0.05512 v 0.398254 q -0.168122,0.06752 -0.31695,0.09784 -0.148829,0.03032 -0.329352,0.03032 -0.465778,0 -0.713826,-0.209462 -0.248048,-0.209463 -0.248048,-0.596693 0,-0.383095 0.234268,-0.606338 0.235645,-0.224621 0.644923,-0.224621 0.377584,0 0.567754,0.191548 0.190169,0.19017 0.190169,0.548461 z m -0.493339,-0.290767 q -0.0041,-0.155719 -0.07717,-0.234267 -0.07304,-0.07855 -0.227377,-0.07855 -0.143316,0 -0.235645,0.07441 -0.09233,0.07441 -0.103353,0.238401 z"
       id="text21"
       aria-label="Type" />
    <path
       style="font-weight:bold;font-size:4.23333px;-inkscape-font-specification:'sans-serif Bold';fill:#000000;stroke-width:4.087"
       d="m 13.439787,9.5001743 h -1.415933 v 0.5725747 h 1.31258 v 0.595312 h -1.31258 v 1.314647 H 11.234239 V 8.9048623 h 2.205548 z m 2.819464,2.4825337 h -0.74414 v -0.256315 q -0.206706,0.157096 -0.378271,0.239779 -0.171566,0.08061 -0.409277,0.08061 -0.384472,0 -0.593245,-0.221175 -0.206706,-0.221175 -0.206706,-0.65319 V 9.6614046 h 0.748275 v 1.1513504 q 0,0.175699 0.01034,0.293521 0.0124,0.115756 0.05374,0.192237 0.03927,0.07648 0.117822,0.111621 0.08062,0.03514 0.223242,0.03514 0.09509,0 0.21084,-0.03514 0.115755,-0.03514 0.223242,-0.103353 V 9.6614046 h 0.74414 z m 3.034438,0 h -0.748274 v -1.15135 q 0,-0.14056 -0.01447,-0.279052 -0.01447,-0.14056 -0.04961,-0.206706 -0.04134,-0.07648 -0.121956,-0.111621 -0.07855,-0.03514 -0.221175,-0.03514 -0.101286,0 -0.206706,0.03307 -0.103353,0.03307 -0.225309,0.10542 v 1.645376 H 16.96205 V 9.6614046 h 0.74414 v 0.2563149 q 0.198437,-0.1550292 0.380338,-0.2377114 0.183968,-0.082682 0.40721,-0.082682 0.376204,0 0.587044,0.2191079 0.212907,0.219108 0.212907,0.655256 z m 1.893423,0.06201 q -0.303857,0 -0.556038,-0.07235 -0.250114,-0.07235 -0.436149,-0.223242 -0.183968,-0.150895 -0.285254,-0.380339 -0.101285,-0.229443 -0.101285,-0.537434 0,-0.324528 0.107487,-0.560172 0.109554,-0.235644 0.303857,-0.3906735 0.188102,-0.146761 0.434081,-0.2149738 0.24598,-0.068213 0.510563,-0.068213 0.237712,0 0.438216,0.051676 0.200504,0.051676 0.374137,0.1343586 v 0.6345857 h -0.10542 q -0.04341,-0.03721 -0.10542,-0.08682 -0.05994,-0.04961 -0.148828,-0.09715 -0.08475,-0.04547 -0.186035,-0.07441 -0.101285,-0.03101 -0.235644,-0.03101 -0.297656,0 -0.458886,0.190169 -0.159164,0.188102 -0.159164,0.51263 0,0.334863 0.163298,0.508496 0.165364,0.173632 0.467154,0.173632 0.14056,0 0.252181,-0.03101 0.113688,-0.03307 0.188102,-0.07648 0.07028,-0.04134 0.124024,-0.08682 0.05374,-0.04548 0.09922,-0.08888 h 0.10542 v 0.634586 q -0.1757,0.08268 -0.367936,0.130224 -0.190169,0.04961 -0.421679,0.04961 z m 2.76572,-0.08268 q -0.119889,0.03101 -0.254248,0.04754 -0.134358,0.0186 -0.328662,0.0186 -0.434081,0 -0.646988,-0.1757 -0.21084,-0.175699 -0.21084,-0.601513 V 10.165766 H 22.20617 V 9.6614046 h 0.305924 V 8.9978798 h 0.74414 v 0.6635248 h 0.696598 v 0.5043614 h -0.696598 v 0.822688 q 0,0.121957 0.0021,0.212907 0.0021,0.09095 0.03307,0.163297 0.02894,0.07235 0.101286,0.115755 0.07441,0.04134 0.214974,0.04134 0.05788,0 0.150895,-0.02481 0.09508,-0.02481 0.132291,-0.04547 h 0.06201 z m 1.188557,0.02067 h -0.74414 V 9.6614046 h 0.74414 z M 25.16206,9.3306757 H 24.376579 V 8.7663695 h 0.785481 z m 3.055108,1.4924143 q 0,0.572574 -0.334863,0.903303 -0.332796,0.328662 -0.936377,0.328662 -0.60358,0 -0.938443,-0.328662 -0.332796,-0.330729 -0.332796,-0.903303 0,-0.576709 0.334863,-0.9053705 0.33693,-0.3286619 0.936376,-0.3286619 0.607715,0 0.938444,0.3307289 0.332796,0.3307285 0.332796,0.9033035 z m -0.915706,0.564306 q 0.07235,-0.08888 0.107487,-0.212907 0.03721,-0.12609 0.03721,-0.347265 0,-0.204639 -0.03721,-0.343131 -0.03721,-0.138493 -0.103353,-0.221175 -0.06615,-0.08475 -0.159163,-0.119889 -0.09302,-0.03514 -0.200505,-0.03514 -0.107487,0 -0.192236,0.02894 -0.08268,0.02894 -0.159163,0.115755 -0.06821,0.08062 -0.109554,0.221175 -0.03927,0.14056 -0.03927,0.353467 0,0.190169 0.03514,0.330729 0.03514,0.138493 0.103353,0.223242 0.06614,0.08061 0.157096,0.117822 0.09302,0.03721 0.21084,0.03721 0.101285,0 0.192236,-0.03307 0.09302,-0.03514 0.157096,-0.115755 z m 3.780644,0.595312 h -0.748274 v -1.15135 q 0,-0.14056 -0.01447,-0.279052 -0.01447,-0.14056 -0.04961,-0.206706 -0.04134,-0.07648 -0.121956,-0.111621 -0.07855,-0.03514 -0.221175,-0.03514 -0.101286,0 -0.206706,0.03307 -0.103352,0.03307 -0.225309,0.10542 v 1.645376 h -0.74414 V 9.6614046 h 0.74414 v 0.2563149 q 0.198438,-0.1550292 0.380339,-0.2377114 0.183967,-0.082682 0.407209,-0.082682 0.376205,0 0.587044,0.2191079 0.212907,0.219108 0.212907,0.655256 z m 4.384226,0 h -2.054653 v -0.537434 h 0.649055 V 9.8185008 H 33.411679 V 9.3162063 q 0.148828,0 0.285254,-0.016536 0.136425,-0.018603 0.227376,-0.062012 0.107487,-0.051676 0.16123,-0.1343586 0.05374,-0.082682 0.06201,-0.2067056 h 0.684195 v 2.5486799 h 0.634586 z m 3.203935,0 H 36.25388 v -0.508496 q 0.276985,-0.200504 0.55397,-0.425813 0.279053,-0.225309 0.446484,-0.388607 0.250114,-0.241845 0.355534,-0.421679 0.10542,-0.179834 0.10542,-0.3555335 0,-0.2108396 -0.136426,-0.3245277 -0.134358,-0.1157551 -0.388606,-0.1157551 -0.190169,0 -0.401009,0.078548 -0.208773,0.078548 -0.388607,0.2005044 H 36.33449 V 9.0371538 q 0.146761,-0.064079 0.432014,-0.1281574 0.287321,-0.064079 0.574642,-0.064079 0.578775,0 0.882632,0.2439126 0.303858,0.2418455 0.303858,0.6862624 0,0.2914546 -0.146761,0.5539716 -0.144694,0.262516 -0.444417,0.541568 -0.188102,0.173633 -0.378271,0.320394 -0.19017,0.144694 -0.270785,0.202571 h 1.38286 z"
       id="text20"
       aria-label="Function 12" />
    <rect
       style="fill:#000000;fill-opacity:0.72;stroke-width:4.08699"
       id="rect1"
       width="48.786743"
       height="13.123919"
       x="0.8559078"
       y="90.874397"
       rx="2"
       ry="2" />
    <rect
       style="fill:#000000;fill-opacity:0.72;stroke-width:4.08699"
       id="rect8"
       width="48.786743"
       height="13.123919"
       x="0.8559078"
       y="68.649376"
       rx="2"
       ry="2" />
    <path
       style="font-weight:bold;font-size:2.82223px;-inkscape-font-specification:'sans-serif Bold';fill:#000000;stroke-width:4.087"
       d="M 6.9457551,46.172253 H 6.0017963 v 0.381718 H 6.876853 v 0.396876 H 6.0017963 v 0.876435 h -0.526412 v -2.051905 h 1.4703708 z m 1.8396861,1.655029 H 7.4156674 V 47.468991 H 7.8483727 V 46.384472 H 7.4156674 v -0.334864 q 0.099219,0 0.1901699,-0.01102 0.090951,-0.0124 0.1515846,-0.04134 0.071658,-0.03445 0.1074873,-0.08957 0.035829,-0.05512 0.041341,-0.137804 H 8.3623821 V 47.469 H 8.785441 Z"
       id="text14"
       aria-label="F1" />
    <path
       style="font-weight:bold;font-size:2.82223px;-inkscape-font-specification:'sans-serif Bold';fill:#000000;stroke-width:4.087"
       d="m 43.464487,46.172253 h -0.943959 v 0.381718 h 0.875057 v 0.396876 h -0.875057 v 0.876435 h -0.526412 v -2.051905 h 1.470371 z m 1.998161,1.182361 h -0.279742 v 0.47818 h -0.505742 v -0.47818 h -0.993568 v -0.388608 l 0.960495,-1.190629 h 0.538815 v 1.204409 h 0.279742 z m -0.785484,-0.374828 v -0.741387 l -0.596692,0.741387 z"
       id="text18"
       aria-label="F4" />
    <path
       style="font-weight:bold;font-size:2.82223px;-inkscape-font-specification:'sans-serif Bold';fill:#000000;stroke-width:4.087"
       d="m 18.969902,46.172253 h -0.943959 v 0.381718 H 18.901 v 0.396876 h -0.875057 v 0.876435 h -0.526412 v -2.051905 h 1.470371 z m 1.969222,1.655029 h -1.610931 v -0.338998 q 0.184658,-0.13367 0.369315,-0.283877 0.186036,-0.150207 0.297657,-0.259072 0.166744,-0.161231 0.237024,-0.281121 0.07028,-0.119889 0.07028,-0.237023 0,-0.14056 -0.09095,-0.216352 -0.08957,-0.07717 -0.259072,-0.07717 -0.12678,0 -0.26734,0.05237 -0.139182,0.05237 -0.259072,0.13367 h -0.0441 v -0.456132 q 0.09784,-0.04272 0.288011,-0.08544 0.191547,-0.04272 0.383095,-0.04272 0.385852,0 0.588424,0.162609 0.202572,0.161231 0.202572,0.45751 0,0.194304 -0.09784,0.369315 -0.09646,0.175012 -0.296279,0.361047 -0.125402,0.115756 -0.252181,0.213597 -0.12678,0.09646 -0.180524,0.135048 h 0.92191 z"
       id="text16"
       aria-label="F2" />
    <path
       style="font-weight:bold;font-size:2.82223px;-inkscape-font-specification:'sans-serif Bold';fill:#000000;stroke-width:4.087"
       d="m 31.237915,46.172253 h -0.943959 v 0.381718 h 0.875057 v 0.396876 h -0.875057 v 0.876435 h -0.526412 v -2.051905 h 1.470371 z m 1.768028,0.693156 q 0.06752,0.05788 0.107487,0.135048 0.03996,0.07717 0.03996,0.205328 0,0.144694 -0.05788,0.270096 -0.0565,0.125402 -0.175012,0.214975 -0.115755,0.08682 -0.272852,0.13367 -0.155719,0.04548 -0.378961,0.04548 -0.254938,0 -0.438218,-0.03996 -0.181901,-0.03996 -0.296279,-0.08957 v -0.450619 h 0.05374 q 0.118511,0.07166 0.282498,0.124023 0.165365,0.05237 0.301792,0.05237 0.07993,0 0.173633,-0.0124 0.09371,-0.01378 0.158475,-0.05788 0.05099,-0.03445 0.0813,-0.08268 0.03032,-0.04961 0.03032,-0.141938 0,-0.08957 -0.04134,-0.137804 -0.04134,-0.04961 -0.108865,-0.07028 -0.06752,-0.02205 -0.162609,-0.02343 -0.09509,-0.0028 -0.17639,-0.0028 h -0.112999 v -0.366559 h 0.117133 q 0.107488,0 0.19017,-0.0069 0.08268,-0.0069 0.14056,-0.03169 0.06063,-0.02618 0.09095,-0.0689 0.03032,-0.0441 0.03032,-0.128158 0,-0.06201 -0.03169,-0.09922 -0.03169,-0.03859 -0.07993,-0.06063 -0.05374,-0.02481 -0.12678,-0.03307 -0.07304,-0.0083 -0.125402,-0.0083 -0.129536,0 -0.28112,0.04548 -0.151585,0.0441 -0.293523,0.128158 h -0.05099 v -0.445108 q 0.112999,-0.04548 0.307303,-0.08682 0.194304,-0.04272 0.39412,-0.04272 0.194304,0 0.340377,0.03445 0.146072,0.03307 0.241157,0.08957 0.113,0.06752 0.168121,0.163987 0.05512,0.09646 0.05512,0.225999 0,0.170877 -0.106109,0.305925 -0.10611,0.13367 -0.279743,0.170877 v 0.01929 q 0.07028,0.0096 0.148829,0.03859 0.07855,0.02894 0.143316,0.08406 z"
       id="text17"
       aria-label="F3" />
    <path
       style="font-weight:bold;font-size:2.82223px;-inkscape-font-specification:'sans-serif Bold';fill:#000000;stroke-width:4.087"
       d="M 6.9457551,65.751435 H 6.0017963 v 0.381718 H 6.876853 v 0.396876 H 6.0017963 v 0.876435 h -0.526412 v -2.051905 h 1.4703708 z m 1.9251247,0.960495 q 0,0.159853 -0.060634,0.297658 -0.059256,0.136426 -0.1736333,0.234267 -0.1267799,0.104731 -0.2921449,0.155718 -0.163987,0.04961 -0.3748274,0.04961 -0.2466696,-0.0014 -0.4175468,-0.03996 -0.1694992,-0.03721 -0.2769864,-0.08406 v -0.453376 h 0.057878 q 0.1254019,0.07442 0.2700963,0.124024 0.1446944,0.04961 0.2880108,0.04961 0.086817,0 0.1874137,-0.01929 0.1019751,-0.02067 0.1612309,-0.07304 0.046853,-0.04272 0.07028,-0.08682 0.024805,-0.0441 0.024805,-0.136426 0,-0.07166 -0.033073,-0.122646 -0.031695,-0.05236 -0.082683,-0.08406 -0.074414,-0.04548 -0.1791455,-0.05926 -0.1047312,-0.01516 -0.1901698,-0.01516 -0.1240238,0 -0.2384013,0.02205 -0.1129994,0.02067 -0.198438,0.04134 h -0.060634 v -1.15755 H 8.811624 v 0.392742 H 7.8497507 v 0.334864 q 0.042719,-0.0028 0.1074873,-0.0041 0.066146,-0.0028 0.1157555,-0.0028 0.1694992,0 0.3017912,0.03307 0.1336701,0.03169 0.230133,0.08957 0.1254019,0.07579 0.195682,0.201194 0.07028,0.124024 0.07028,0.312815 z"
       id="text31"
       aria-label="F5" />
    <path
       style="font-weight:bold;font-size:2.82223px;-inkscape-font-specification:'sans-serif Bold';fill:#000000;stroke-width:4.087"
       d="m 43.464487,65.751435 h -0.943959 v 0.381718 h 0.875057 v 0.396876 h -0.875057 v 0.876435 h -0.526412 v -2.051905 h 1.470371 z m 1.973356,1.081763 q 0,0.272852 -0.232889,0.446486 -0.231511,0.173633 -0.636655,0.173633 -0.227377,0 -0.389986,-0.04685 -0.162609,-0.04685 -0.268718,-0.129536 -0.104731,-0.08131 -0.155719,-0.19017 -0.04961,-0.108865 -0.04961,-0.234267 0,-0.154341 0.08957,-0.272853 0.09095,-0.119889 0.312816,-0.209462 v -0.0083 q -0.179146,-0.08268 -0.263206,-0.208085 -0.08406,-0.125401 -0.08406,-0.290766 0,-0.243914 0.225999,-0.399633 0.225999,-0.155718 0.588424,-0.155718 0.38034,0 0.595314,0.141938 0.216353,0.14056 0.216353,0.376205 0,0.146073 -0.09095,0.26045 -0.09095,0.114378 -0.278364,0.194304 v 0.0083 q 0.214974,0.0813 0.318327,0.219108 0.103353,0.137804 0.103353,0.325218 z m -0.569131,-0.948093 q 0,-0.104731 -0.0813,-0.166743 -0.07993,-0.06201 -0.213597,-0.06201 -0.04961,0 -0.101975,0.0124 -0.05099,0.0124 -0.09371,0.03583 -0.03996,0.02343 -0.06615,0.06201 -0.02618,0.03721 -0.02618,0.08544 0,0.08131 0.04548,0.12678 0.04685,0.04547 0.151584,0.09095 0.03858,0.01654 0.104731,0.04134 0.06752,0.02343 0.162609,0.05374 0.06339,-0.07442 0.09095,-0.13367 0.02756,-0.05926 0.02756,-0.146073 z m 0.04272,0.97152 q 0,-0.09922 -0.04961,-0.150207 -0.04961,-0.05099 -0.20395,-0.117133 -0.04548,-0.02067 -0.132292,-0.05099 -0.08682,-0.03032 -0.146073,-0.05236 -0.05926,0.05374 -0.107487,0.130914 -0.04685,0.07579 -0.04685,0.170877 0,0.143316 0.101976,0.228755 0.103353,0.08406 0.268718,0.08406 0.0441,0 0.103353,-0.0124 0.05926,-0.01378 0.101975,-0.04134 0.04961,-0.03169 0.07993,-0.07442 0.03032,-0.04272 0.03032,-0.115755 z"
       id="text32"
       aria-label="F8" />
    <path
       style="font-weight:bold;font-size:2.82223px;-inkscape-font-specification:'sans-serif Bold';fill:#000000;stroke-width:4.087"
       d="m 18.969902,65.751435 h -0.943959 v 0.381718 H 18.901 v 0.396876 h -0.875057 v 0.876435 h -0.526412 v -2.051905 h 1.470371 z m 1.966466,0.956361 q 0,0.158475 -0.05788,0.297657 -0.05788,0.139183 -0.162609,0.234268 -0.111621,0.101975 -0.259071,0.155718 -0.146073,0.05374 -0.343133,0.05374 -0.184658,0 -0.33762,-0.04961 -0.151585,-0.05099 -0.26045,-0.15434 -0.125402,-0.118512 -0.191548,-0.305926 -0.06615,-0.187413 -0.06615,-0.447863 0,-0.270097 0.06201,-0.479559 0.06201,-0.209462 0.202572,-0.370693 0.135048,-0.154341 0.350023,-0.23978 0.216352,-0.08544 0.514009,-0.08544 0.100597,0 0.220487,0.01378 0.11989,0.01378 0.155719,0.02067 v 0.403766 h -0.05237 q -0.03721,-0.01791 -0.12678,-0.03996 -0.08819,-0.02343 -0.201194,-0.02343 -0.264584,0 -0.412034,0.129536 -0.147451,0.129536 -0.177768,0.361047 0.106109,-0.06339 0.223243,-0.101975 0.118512,-0.03996 0.254938,-0.03996 0.119889,0 0.221865,0.02756 0.103353,0.02756 0.191547,0.08819 0.114378,0.07993 0.18328,0.214975 0.0689,0.135048 0.0689,0.33762 z m -0.627009,0.31006 q 0.04272,-0.04685 0.06752,-0.110244 0.02618,-0.06477 0.02618,-0.175011 0,-0.100597 -0.02894,-0.163987 -0.02894,-0.06477 -0.07993,-0.103353 -0.04961,-0.03858 -0.117134,-0.05237 -0.06752,-0.01516 -0.139182,-0.01516 -0.06063,0 -0.12678,0.01378 -0.06615,0.01378 -0.121268,0.03445 0,0.01378 -0.0014,0.04548 -0.0014,0.03169 -0.0014,0.07993 0,0.169499 0.03307,0.279743 0.03445,0.108865 0.09095,0.166743 0.03859,0.04272 0.09095,0.06339 0.05237,0.01929 0.112999,0.01929 0.04547,0 0.100597,-0.02067 0.05512,-0.02067 0.09371,-0.06201 z"
       id="text33"
       aria-label="F6" />
    <path
       style="font-weight:bold;font-size:2.82223px;-inkscape-font-specification:'sans-serif Bold';fill:#000000;stroke-width:4.087"
       d="m 31.237915,65.751435 h -0.943959 v 0.381718 h 0.875057 v 0.396876 h -0.875057 v 0.876435 h -0.526412 v -2.051905 h 1.470371 z m 1.926503,0.01102 -0.9288,1.644005 h -0.589802 l 0.964629,-1.659163 h -1.054202 v -0.392742 h 1.608175 z"
       id="text34"
       aria-label="F7" />
    <path
       style="font-weight:bold;font-size:2.82223px;-inkscape-font-specification:'sans-serif Bold';fill:#000000;stroke-width:4.087"
       d="M 6.9457551,87.447289 H 6.0017963 v 0.381718 H 6.876853 v 0.396876 H 6.0017963 v 0.876435 h -0.526412 v -2.051905 h 1.4703708 z m 1.9251247,0.51401 q 0,0.257694 -0.066146,0.479559 -0.066146,0.221864 -0.2011941,0.373449 -0.1460725,0.163987 -0.3624251,0.24667 -0.2163526,0.0813 -0.5043634,0.0813 -0.1019751,0 -0.2204867,-0.0124 -0.1185116,-0.0124 -0.1557187,-0.02205 v -0.403766 h 0.055122 q 0.041341,0.01929 0.1171336,0.04134 0.07717,0.02205 0.2094624,0.02205 0.1074873,0 0.2108404,-0.02618 0.1033532,-0.02756 0.1777675,-0.08544 0.081304,-0.06201 0.13367,-0.154341 0.052366,-0.09371 0.07028,-0.22462 -0.1198897,0.0689 -0.2232428,0.106109 -0.1019751,0.03583 -0.2549378,0.03583 -0.1157555,0 -0.2218648,-0.02756 -0.1047312,-0.02894 -0.1915478,-0.08819 -0.1143775,-0.0813 -0.1832796,-0.213596 -0.067524,-0.13367 -0.067524,-0.336242 0,-0.329352 0.228755,-0.536059 0.230133,-0.208084 0.6022044,-0.208084 0.1915478,0 0.3389983,0.05099 0.1488286,0.04961 0.2563159,0.152962 0.1254018,0.118512 0.1887917,0.301791 0.06339,0.18328 0.06339,0.446486 z m -0.5277901,-0.07717 q 0,-0.168121 -0.033073,-0.275609 -0.031695,-0.108865 -0.088195,-0.168121 -0.039963,-0.0441 -0.092329,-0.06339 -0.052366,-0.01929 -0.1102433,-0.01929 -0.053744,0 -0.1033532,0.01929 -0.048231,0.01792 -0.093707,0.06339 -0.042719,0.0441 -0.07028,0.115756 -0.026183,0.07166 -0.026183,0.170877 0,0.09646 0.028939,0.162609 0.028939,0.06477 0.079926,0.103353 0.048231,0.03721 0.1129995,0.05237 0.066146,0.01516 0.1433164,0.01516 0.062012,0 0.1350481,-0.01516 0.073036,-0.01654 0.1129994,-0.03307 0,-0.01516 0.00138,-0.04272 0.00276,-0.02894 0.00276,-0.08544 z"
       id="text35"
       aria-label="F9" />
    <path
       style="font-weight:bold;font-size:2.82223px;-inkscape-font-specification:'sans-serif Bold';fill:#000000;stroke-width:4.087"
       d="m 42.406153,87.447289 h -0.943959 v 0.381718 h 0.875057 v 0.396876 h -0.875057 v 0.876435 h -0.526412 v -2.051905 h 1.470371 z m 1.839686,1.655029 h -1.369774 v -0.358291 h 0.432705 v -1.084519 h -0.432705 v -0.334864 q 0.09922,0 0.19017,-0.01103 0.09095,-0.0124 0.151585,-0.04134 0.07166,-0.03445 0.107487,-0.08957 0.03583,-0.05512 0.04134,-0.137804 h 0.456132 v 1.699126 h 0.423059 z m 2.135965,0 h -1.610931 v -0.338999 q 0.184658,-0.13367 0.369315,-0.283876 0.186036,-0.150207 0.297657,-0.259072 0.166743,-0.161231 0.237024,-0.281121 0.07028,-0.119889 0.07028,-0.237023 0,-0.14056 -0.09095,-0.216353 -0.08957,-0.07717 -0.259072,-0.07717 -0.12678,0 -0.26734,0.05237 -0.139182,0.05236 -0.259072,0.13367 h -0.0441 v -0.456132 q 0.09784,-0.04272 0.28801,-0.08544 0.191548,-0.04272 0.383096,-0.04272 0.385852,0 0.588424,0.162609 0.202572,0.161231 0.202572,0.45751 0,0.194304 -0.09784,0.369315 -0.09646,0.175012 -0.296279,0.361047 -0.125402,0.115756 -0.252182,0.213597 -0.126779,0.09646 -0.180523,0.135048 h 0.92191 z"
       id="text36"
       aria-label="F12" />
    <path
       style="font-weight:bold;font-size:2.82223px;-inkscape-font-specification:'sans-serif Bold';fill:#000000;stroke-width:4.087"
       d="m 17.911568,87.447289 h -0.943959 v 0.381718 h 0.875057 v 0.396876 h -0.875057 v 0.876435 h -0.526412 v -2.051905 h 1.470371 z m 1.839686,1.655029 H 18.38148 v -0.358291 h 0.432705 V 87.659508 H 18.38148 v -0.334864 q 0.09922,0 0.19017,-0.01103 0.09095,-0.0124 0.151585,-0.04134 0.07166,-0.03445 0.107487,-0.08957 0.03583,-0.05512 0.04134,-0.137804 h 0.456132 v 1.699126 h 0.423059 z m 2.122185,-1.026642 q 0,0.259072 -0.04685,0.464401 -0.04685,0.20395 -0.146072,0.334864 -0.101975,0.13367 -0.261828,0.202572 -0.159853,0.06752 -0.39412,0.06752 -0.230133,0 -0.392742,-0.0689 -0.162609,-0.0689 -0.263206,-0.20395 -0.101975,-0.135048 -0.147451,-0.334864 -0.04547,-0.201195 -0.04547,-0.460266 0,-0.267341 0.04685,-0.464401 0.04685,-0.19706 0.148829,-0.333486 0.101975,-0.135048 0.264584,-0.202572 0.162609,-0.06752 0.388608,-0.06752 0.235645,0 0.395498,0.07028 0.159853,0.0689 0.261828,0.206706 0.100597,0.135049 0.146072,0.333487 0.04548,0.19706 0.04548,0.456131 z m -0.533303,0 q 0,-0.372071 -0.07304,-0.529168 -0.07304,-0.158474 -0.242535,-0.158474 -0.169499,0 -0.242536,0.158474 -0.07304,0.157097 -0.07304,0.531925 0,0.365181 0.07441,0.526412 0.07441,0.161231 0.241158,0.161231 0.166743,0 0.241157,-0.161231 0.07441,-0.161231 0.07441,-0.529169 z"
       id="text37"
       aria-label="F10" />
    <path
       style="font-weight:bold;font-size:2.82223px;-inkscape-font-specification:'sans-serif Bold';fill:#000000;stroke-width:4.087"
       d="m 30.179581,87.447289 h -0.943959 v 0.381718 h 0.875057 v 0.396876 h -0.875057 v 0.876435 H 28.70921 v -2.051905 h 1.470371 z m 1.839686,1.655029 h -1.369774 v -0.358291 h 0.432705 v -1.084519 h -0.432705 v -0.334864 q 0.09922,0 0.19017,-0.01103 0.09095,-0.0124 0.151585,-0.04134 0.07166,-0.03445 0.107487,-0.08957 0.03583,-0.05512 0.04134,-0.137804 h 0.456132 v 1.699126 h 0.423059 z m 2.006429,0 h -1.369774 v -0.358291 h 0.432706 v -1.084519 h -0.432706 v -0.334864 q 0.09922,0 0.19017,-0.01103 0.09095,-0.0124 0.151585,-0.04134 0.07166,-0.03445 0.107487,-0.08957 0.03583,-0.05512 0.04134,-0.137804 h 0.456132 v 1.699126 h 0.423059 z"
       id="text38"
       aria-label="F11" />
    <path
       style="font-weight:bold;font-size:2.82223px;-inkscape-font-specification:'sans-serif Bold';fill:#000000;stroke-width:4.087"
       d="m 3.5076973,109.79306 q 0,0.28664 -0.130914,0.51401 -0.130914,0.226 -0.3307301,0.34727 -0.1502066,0.0909 -0.329352,0.12678 -0.1791455,0.0358 -0.424437,0.0358 H 1.5687921 v -2.05191 h 0.7441427 q 0.2508037,0 0.4327053,0.0427 0.1819015,0.0413 0.3059253,0.11851 0.2122185,0.12954 0.3334862,0.35003 0.1226457,0.21911 0.1226457,0.51676 z m -0.5470827,-0.004 q 0,-0.20257 -0.074414,-0.34589 -0.073036,-0.14469 -0.2328891,-0.226 -0.081304,-0.04 -0.1667431,-0.0537 -0.084061,-0.0152 -0.2549377,-0.0152 H 2.0979603 v 1.28433 h 0.1336701 q 0.1887917,0 0.2769864,-0.0165 0.088195,-0.0179 0.1722553,-0.0634 0.1446944,-0.0827 0.2122184,-0.22049 0.067524,-0.13918 0.067524,-0.34313 z m 1.4193832,1.02802 H 3.8839027 v -1.54754 h 0.4960951 z m 0.013781,-1.76803 h -0.523656 v -0.37621 h 0.523656 z m 1.7997228,1.27744 q 0,0.23978 -0.2149745,0.38723 -0.2149746,0.14608 -0.588424,0.14608 -0.2067063,0 -0.3748274,-0.0386 -0.1681211,-0.0386 -0.2700962,-0.0854 v -0.4079 h 0.045475 q 0.037207,0.0262 0.085439,0.0579 0.049609,0.0303 0.1391822,0.0661 0.07717,0.0317 0.1750113,0.0551 0.097841,0.0221 0.2094624,0.0221 0.1460725,0 0.2163526,-0.0317 0.07028,-0.0331 0.07028,-0.0965 0,-0.0565 -0.041341,-0.0813 -0.041341,-0.0262 -0.1570968,-0.0496 -0.055122,-0.0124 -0.1502066,-0.0262 -0.093707,-0.0152 -0.1708772,-0.0358 -0.2108404,-0.0551 -0.3128155,-0.17087 -0.1019751,-0.11714 -0.1019751,-0.29077 0,-0.22324 0.2108404,-0.37069 0.2122185,-0.14883 0.5787777,-0.14883 0.1736333,0 0.3321081,0.0358 0.1598529,0.0345 0.2494256,0.0744 v 0.39136 h -0.042719 q -0.1102434,-0.0758 -0.2521817,-0.12264 -0.1405603,-0.0482 -0.2852547,-0.0482 -0.1198897,0 -0.2025722,0.0331 -0.081304,0.0331 -0.081304,0.0937 0,0.0551 0.037207,0.0841 0.037207,0.0289 0.1750113,0.0579 0.075792,0.0152 0.162609,0.0303 0.088195,0.0138 0.1763894,0.0358 0.1956819,0.051 0.2893888,0.16123 0.093707,0.10887 0.093707,0.27285 z m 1.2664205,0.0868 v -0.32246 q -0.100597,0.008 -0.2177306,0.0234 -0.1171336,0.0138 -0.1777674,0.0331 -0.074414,0.0234 -0.1143775,0.0689 -0.038585,0.0441 -0.038585,0.11714 0,0.0482 0.00827,0.0785 0.00827,0.0303 0.041341,0.0579 0.031695,0.0276 0.075792,0.0413 0.044097,0.0124 0.1378042,0.0124 0.074414,0 0.1502066,-0.0303 0.07717,-0.0303 0.1350481,-0.0799 z m 0,0.23978 q -0.039963,0.0303 -0.099219,0.073 -0.059256,0.0427 -0.1116214,0.0675 -0.073036,0.0331 -0.1515846,0.0482 -0.078548,0.0165 -0.1722553,0.0165 -0.2204867,0 -0.3693152,-0.13643 -0.1488286,-0.13642 -0.1488286,-0.34864 0,-0.1695 0.075792,-0.27699 0.075792,-0.10749 0.2149746,-0.1695 0.1378042,-0.062 0.3417544,-0.0882 0.2039502,-0.0262 0.4230589,-0.0386 v -0.008 q 0,-0.12815 -0.1047312,-0.17638 -0.1047312,-0.0496 -0.3086814,-0.0496 -0.1226457,0 -0.261828,0.0441 -0.1391822,0.0427 -0.1998161,0.0661 h -0.045475 v -0.37345 q 0.078548,-0.0207 0.2549378,-0.0482 0.1777674,-0.0289 0.3555349,-0.0289 0.4230589,0 0.6104726,0.13091 0.1887917,0.12954 0.1887917,0.4079 v 1.05283 h -0.491961 z m 2.5631584,-0.63114 q 0,0.36518 -0.2025725,0.59531 -0.2011941,0.23013 -0.5029853,0.23013 -0.129536,0 -0.2273769,-0.0276 -0.097841,-0.0276 -0.1860357,-0.0799 l -0.020671,0.0772 H 8.4080144 v -2.14424 h 0.4960952 v 0.75793 q 0.1143775,-0.0909 0.2328891,-0.14745 0.1198896,-0.0565 0.2756084,-0.0565 0.293523,0 0.4519978,0.21222 0.1584751,0.21084 0.1584751,0.58291 z m -0.5112539,0.01 q 0,-0.2067 -0.07028,-0.31832 -0.07028,-0.11163 -0.2508037,-0.11163 -0.07028,0 -0.1446944,0.022 -0.074414,0.0207 -0.1419383,0.0606 v 0.77721 q 0.053744,0.0193 0.1019751,0.0262 0.048231,0.007 0.1157555,0.007 0.19706,0 0.293523,-0.11576 0.096463,-0.11575 0.096463,-0.34727 z m 1.3656399,0.78549 h -0.496095 v -2.14424 h 0.496095 z m 1.992649,-0.68213 h -1.135506 q 0.01102,0.1819 0.137804,0.27836 0.128158,0.0965 0.376205,0.0965 0.157097,0 0.304548,-0.0565 0.14745,-0.0565 0.232889,-0.12126 h 0.05512 v 0.39825 q -0.168121,0.0675 -0.316949,0.0978 -0.148829,0.0303 -0.329352,0.0303 -0.465778,0 -0.713826,-0.20946 -0.248048,-0.20947 -0.248048,-0.5967 0,-0.38309 0.234268,-0.60633 0.235645,-0.22462 0.644923,-0.22462 0.377584,0 0.567754,0.19154 0.190169,0.19017 0.190169,0.54846 z m -0.493339,-0.29077 q -0.0041,-0.15572 -0.07717,-0.23427 -0.07304,-0.0786 -0.227377,-0.0786 -0.143316,0 -0.235645,0.0744 -0.09233,0.0744 -0.103353,0.2384 z"
       id="text3"
       aria-label="Disable" />
  </g>
  <g
     inkscape:groupmode="layer"
     id="layer2"
     inkscape:label="components"
     style="display:none"
     sodipodi:insensitive="true">
    <circle
       style="fill:#0000ff;fill-opacity:1;stroke-width:0.313059"
       id="out1"
       cx="7.2752151"
       cy="55.917419"
       inkscape:label="out_f1"
       r="4" />
    <circle
       style="fill:#0000ff;fill-opacity:1;stroke-width:0.313;stroke-dasharray:none"
       id="ellipse5"
       cx="19.353027"
       cy="55.917419"
       inkscape:label="out_f2"
       r="4" />
    <circle
       style="fill:#0000ff;fill-opacity:1;stroke-width:0.313059"
       id="ellipse6"
       cx="31.430838"
       cy="55.917419"
       inkscape:label="out_f3"
       r="4" />
    <circle
       style="fill:#0000ff;fill-opacity:1;stroke-width:0.313059"
       id="ellipse7"
       cx="43.508644"
       cy="55.917419"
       inkscape:label="out_f4"
       r="4" />
    <circle
       style="display:inline;fill:#0000ff;fill-opacity:1;stroke-width:0.313059"
       id="circle5"
       cx="7.2752151"
       cy="97.721626"
       inkscape:label="out_f9"
       r="4" />
    <circle
       style="display:inline;fill:#0000ff;fill-opacity:1;stroke-width:0.313;stroke-dasharray:none"
       id="circle6"
       cx="19.353027"
       cy="97.721626"
       inkscape:label="out_f10"
       r="4" />
    <circle
       style="display:inline;fill:#0000ff;fill-opacity:1;stroke-width:0.313059"
       id="circle7"
       cx="31.430838"
       cy="97.721626"
       inkscape:label="out_f11"
       r="4" />
    <circle
       style="display:inline;fill:#0000ff;fill-opacity:1;stroke-width:0.313059"
       id="circle8"
       cx="43.508644"
       cy="97.721626"
       inkscape:label="out_f12"
       r="4" />
    <circle
       style="display:inline;fill:#0000ff;fill-opacity:1;stroke-width:0.313059"
       id="circle11"
       cx="7.2752151"
       cy="75.496605"
       inkscape:label="out_f5"
       r="4" />
    <circle
       style="display:inline;fill:#0000ff;fill-opacity:1;stroke-width:0.313;stroke-dasharray:none"
       id="circle12"
       cx="19.353027"
       cy="75.496605"
       inkscape:label="out_f6"
       r="4" />
    <circle
       style="display:inline;fill:#0000ff;fill-opacity:1;stroke-width:0.313059"
       id="circle13"
       cx="31.430838"
       cy="75.496605"
       inkscape:label="out_f7"
       r="4" />
    <circle
       style="display:inline;fill:#0000ff;fill-opacity:1;stroke-width:0.313059"
       id="circle14"
       cx="43.508644"
       cy="75.496605"
       inkscape:label="out_f8"
       r="4" />
    <circle
       style="fill:#00ff00;fill-opacity:1;stroke-width:0.313059"
       id="circle1"
       cx="6.7046099"
       cy="36.194855"
       inkscape:label="in_k"
       r="4" />
    <circle
       style="fill:#00ff00;fill-opacity:1;stroke-width:0.313;stroke-dasharray:none"
       id="circle2"
       cx="18.782423"
       cy="36.194855"
       inkscape:label="in_gate"
       r="4" />
    <circle
       style="fill:#0000ff;fill-opacity:1;stroke-width:0.313059"
       id="circle39"
       cx="43.508644"
       cy="118.3591"
       inkscape:label="out_lights"
       r="4" />
    <circle
       style="fill:#00ff00;fill-opacity:1;stroke-width:0.313059"
       id="circle52"
       cx="7.2752151"
       cy="118.3591"
       inkscape:label="in_enable"
       r="4" />
    <circle
       style="fill:#00ff00;fill-opacity:1;stroke-width:0.313059"
       id="circle3"
       cx="43.217129"
       cy="36.194855"
       inkscape:label="in_kg"
       r="4" />
    <circle
       style="fill:#ff0000;fill-opacity:1;stroke-width:0.313;stroke-dasharray:none"
       id="circle4"
       cx="25.268967"
       cy="23.280014"
       inkscape:label="p_type"
       r="4" />
  </g>
</svg>
