<?xml version="1.0" encoding="UTF-8" standalone="no"?>
<!-- Created with Inkscape (http://www.inkscape.org/) -->

<svg
   width="30.48mm"
   height="128.5mm"
   viewBox="0 0 30.479999 128.5"
   version="1.1"
   id="svg1"
   inkscape:version="1.3 (0e150ed, 2023-07-21)"
   sodipodi:docname="EIlluminator.svg"
   xmlns:inkscape="http://www.inkscape.org/namespaces/inkscape"
   xmlns:sodipodi="http://sodipodi.sourceforge.net/DTD/sodipodi-0.dtd"
   xmlns="http://www.w3.org/2000/svg"
   xmlns:svg="http://www.w3.org/2000/svg">
  <sodipodi:namedview
     id="namedview1"
     pagecolor="#ffffff"
     bordercolor="#000000"
     borderopacity="0.25"
     inkscape:showpageshadow="2"
     inkscape:pageopacity="0.0"
     inkscape:pagecheckerboard="0"
     inkscape:deskcolor="#d1d1d1"
     inkscape:document-units="mm"
     inkscape:zoom="0.92737795"
     inkscape:cx="98.12612"
     inkscape:cy="330.50171"
     inkscape:window-width="1552"
     inkscape:window-height="1146"
     inkscape:window-x="266"
     inkscape:window-y="152"
     inkscape:window-maximized="0"
     inkscape:current-layer="layer2"
     showgrid="false"
     showguides="true"
     showborder="false">
    <inkscape:grid
       id="grid1"
       units="mm"
       originx="0"
       originy="0"
       spacingx="0.99999998"
       spacingy="1"
       empcolor="#0099e5"
       empopacity="0.30196078"
       color="#0099e5"
       opacity="0.14901961"
       empspacing="5"
       dotted="false"
       gridanglex="30"
       gridanglez="30"
       visible="false" />
  </sodipodi:namedview>
  <defs
     id="defs1">
    <rect
       x="246.93275"
       y="158.51141"
       width="304.08313"
       height="28.036034"
       id="rect7" />
  </defs>
  <g
     inkscape:label="background"
     inkscape:groupmode="layer"
     id="layer1"
     style="display:inline;fill:#ffffff">
    <rect
       style="display:inline;fill:#ffffff;fill-opacity:1;stroke-width:3.16577"
       id="background"
       width="30.48"
       height="128.5"
       x="2.0636746e-06"
       y="-5.5511151e-17"
       inkscape:label="background"
       sodipodi:insensitive="true" />
    <path
       style="font-weight:bold;font-size:4.23333px;-inkscape-font-specification:'sans-serif Bold';fill:#ff0000;stroke-width:4.087"
       d="M 5.0459274,7.7031697 H 4.2563114 V 5.6423154 l -0.570507,1.3373849 h -0.54777 L 2.5675274,5.6423154 V 7.7031697 H 1.8192534 V 4.625324 h 0.921907 l 0.692463,1.5440905 0.690397,-1.5440905 h 0.921907 z M 8.0762307,6.6799772 h -1.703253 q 0.01654,0.2728514 0.206705,0.4175453 0.192236,0.1446939 0.564306,0.1446939 0.235645,0 0.45682,-0.084749 0.221174,-0.084749 0.349332,-0.1819009 h 0.08268 v 0.5973787 q -0.252181,0.1012858 -0.475423,0.146761 -0.223242,0.045475 -0.494026,0.045475 -0.698665,0 -1.0707353,-0.3141924 -0.37207,-0.3141925 -0.37207,-0.8950351 0,-0.5746414 0.3514,-0.9095044 0.3534663,-0.3369301 0.9673823,-0.3369301 0.566373,0 0.851627,0.2873207 0.285253,0.2852537 0.285253,0.8226881 z M 7.3362247,6.2438285 q -0.0062,-0.2335773 -0.115755,-0.3513994 -0.109554,-0.1178222 -0.341064,-0.1178222 -0.214974,0 -0.353466,0.111621 -0.138493,0.111621 -0.15503,0.3576006 z M 10.08541,7.6824992 q -0.1198903,0.031006 -0.2542483,0.047542 -0.134359,0.018603 -0.328662,0.018603 -0.434082,0 -0.646988,-0.1756998 -0.21084,-0.1756997 -0.21084,-0.6015131 V 5.8862279 H 8.3387477 V 5.3818664 h 0.305924 V 4.7183415 h 0.74414 V 5.3818664 H 10.08541 V 5.8862279 H 9.3888117 V 6.708916 q 0,0.1219563 0.0021,0.2129067 0.0021,0.09095 0.03307,0.1632974 0.02894,0.072347 0.101286,0.1157551 0.07441,0.041341 0.214973,0.041341 0.05788,0 0.150895,-0.024805 0.09509,-0.024805 0.1322923,-0.045475 h 0.06201 z m 1.850013,-0.5849767 v -0.483691 q -0.150895,0.012402 -0.326595,0.03514 -0.1757,0.020671 -0.26665,0.049609 -0.111621,0.03514 -0.171566,0.1033528 -0.05788,0.066146 -0.05788,0.1756997 0,0.072347 0.0124,0.1178222 0.0124,0.045475 0.06201,0.086816 0.04754,0.041341 0.113688,0.062012 0.06614,0.018603 0.206705,0.018603 0.111621,0 0.225309,-0.045475 0.115755,-0.045475 0.202572,-0.1198892 z m 0,0.3596676 q -0.05994,0.045475 -0.148828,0.109554 -0.08888,0.064079 -0.167432,0.1012857 -0.109554,0.049609 -0.227376,0.072347 -0.117822,0.024805 -0.258381,0.024805 -0.330729,0 -0.553971,-0.2046385 -0.223242,-0.2046385 -0.223242,-0.522965 0,-0.2542479 0.113688,-0.4154782 0.113688,-0.1612303 0.322461,-0.2542478 0.206706,-0.093017 0.512629,-0.1322916 0.305924,-0.039274 0.634586,-0.057878 v -0.012402 q 0,-0.1922362 -0.157096,-0.2645831 -0.157097,-0.074414 -0.463021,-0.074414 -0.183967,0 -0.392739,0.066146 -0.208773,0.064079 -0.299723,0.099219 h -0.06821 v -0.560172 q 0.117822,-0.031006 0.382405,-0.072347 0.266649,-0.043408 0.533299,-0.043408 0.634586,0 0.915706,0.1963703 0.283186,0.1943032 0.283186,0.6118484 v 1.5792304 h -0.737938 z m 6.137088,0.2459796 H 17.282896 V 5.6423154 l -0.570507,1.3373849 h -0.54777 L 15.594112,5.6423154 V 7.7031697 H 14.845838 V 4.625324 h 0.921906 l 0.692464,1.5440905 0.690396,-1.5440905 h 0.921907 z m 3.117121,-1.1596181 q 0,0.5725744 -0.334863,0.9033033 -0.332796,0.3286618 -0.936376,0.3286618 -0.603581,0 -0.938444,-0.3286618 -0.332796,-0.3307289 -0.332796,-0.9033033 0,-0.5767085 0.334863,-0.9053704 0.33693,-0.3286618 0.936377,-0.3286618 0.607714,0 0.938443,0.3307289 0.332796,0.3307289 0.332796,0.9033033 z m -0.915706,0.5643061 q 0.07235,-0.088883 0.107487,-0.2129067 0.03721,-0.1260904 0.03721,-0.3472653 0,-0.2046385 -0.03721,-0.3431312 -0.03721,-0.1384928 -0.103353,-0.221175 -0.06615,-0.084749 -0.159163,-0.1198892 -0.09302,-0.03514 -0.200504,-0.03514 -0.107487,0 -0.192237,0.028939 -0.08268,0.028939 -0.159163,0.1157551 -0.06821,0.080615 -0.109554,0.221175 -0.03927,0.1405598 -0.03927,0.3534665 0,0.1901691 0.03514,0.3307289 0.03514,0.1384927 0.103353,0.223242 0.06615,0.080615 0.157096,0.1178221 0.09302,0.037207 0.21084,0.037207 0.101285,0 0.192236,-0.033073 0.09302,-0.03514 0.157096,-0.1157552 z m 3.131588,-1.0169913 h -0.06615 q -0.04754,-0.016536 -0.152962,-0.024805 -0.10542,-0.00827 -0.1757,-0.00827 -0.159163,0 -0.281119,0.020671 -0.121957,0.020671 -0.262516,0.07028 v 1.5544257 h -0.74414 V 5.3818664 h 0.74414 v 0.3410641 q 0.245979,-0.2108396 0.42788,-0.2790525 0.181901,-0.07028 0.334863,-0.07028 0.03927,0 0.08888,0.00207 0.04961,0.00207 0.08682,0.0062 z m 2.844269,0.4196123 q 0,0.2873207 -0.08888,0.522965 -0.08682,0.2356444 -0.229444,0.3886065 -0.148828,0.1612303 -0.33693,0.2439125 -0.188102,0.082682 -0.403075,0.082682 -0.198438,0 -0.33693,-0.043408 -0.138493,-0.041341 -0.283187,-0.1178222 v 0.967382 H 23.827194 V 5.3818664 h 0.74414 v 0.2418455 q 0.171566,-0.1364257 0.349332,-0.221175 0.179834,-0.084749 0.413411,-0.084749 0.434082,0 0.673861,0.3183266 0.241845,0.3183265 0.241845,0.8743642 z m -0.766878,0.014469 q 0,-0.3389971 -0.115755,-0.4919592 -0.115755,-0.1529622 -0.365869,-0.1529622 -0.105419,0 -0.21704,0.033073 -0.111621,0.031006 -0.212907,0.09095 v 1.1678864 q 0.07441,0.028939 0.159163,0.037207 0.08475,0.00827 0.167432,0.00827 0.295589,0 0.440283,-0.1715656 0.144693,-0.1736327 0.144693,-0.520898 z m 3.635951,1.1782216 H 28.370582 V 6.5518198 q 0,-0.1405598 -0.01447,-0.2790525 -0.01447,-0.1405598 -0.04961,-0.2067056 -0.04134,-0.076481 -0.121957,-0.111621 -0.07855,-0.03514 -0.221175,-0.03514 -0.101285,0 -0.206705,0.033073 -0.103353,0.033073 -0.225309,0.1054198 v 1.6453762 h -0.74414 V 4.4868313 h 0.74414 v 1.1513499 q 0.198437,-0.1550291 0.380338,-0.2377113 0.183968,-0.082682 0.40721,-0.082682 0.376204,0 0.587044,0.2191079 0.212906,0.2191079 0.212906,0.6552566 z"
       id="text4"
       inkscape:label="text4"
       aria-label="Meta Morph" />
    <path
       style="font-weight:bold;font-size:2.82223px;-inkscape-font-specification:'sans-serif Bold';display:inline;fill:#ff0000;stroke-width:4.087"
       d="m 7.3776645,86.697858 h -0.649058 l -0.613229,-0.82132 -0.124023,0.15021 v 0.67111 h -0.529168 v -2.05191 h 0.529168 v 0.9288 l 0.733118,-0.9288 h 0.613229 l -0.802021,0.94947 z m 1.757004,-0.68213 h -1.135507 q 0.01102,0.1819 0.137804,0.27836 0.128158,0.0965 0.376206,0.0965 0.157096,0 0.304547,-0.0565 0.14745,-0.0565 0.232889,-0.12126 h 0.05512 v 0.39825 q -0.168121,0.0675 -0.31695,0.0978 -0.148828,0.0303 -0.329352,0.0303 -0.465778,0 -0.713826,-0.20946 -0.248047,-0.20947 -0.248047,-0.5967 0,-0.38309 0.234267,-0.60634 0.235645,-0.22462 0.644924,-0.22462 0.377583,0 0.567753,0.19155 0.19017,0.19017 0.19017,0.54846 z m -0.49334,-0.29077 q -0.0041,-0.15572 -0.07717,-0.23427 -0.07304,-0.0786 -0.227377,-0.0786 -0.143316,0 -0.235645,0.0744 -0.09233,0.0744 -0.103353,0.2384 z m 1.5420285,0.42581 0.352779,-1.00045 h 0.509876 l -0.859898,2.11529 H 9.6486775 l 0.245292,-0.57878 -0.602205,-1.53651 h 0.5209 z"
       id="path32"
       aria-label="Key" />
    <path
       style="font-weight:bold;font-size:2.82223px;-inkscape-font-specification:'sans-serif Bold';fill:#ff0000;stroke-width:4.087"
       d="m 12.624782,110.69266 h -1.480018 v -2.05191 h 0.529169 v 1.65503 h 0.950849 z m 0.786862,0 h -0.496095 v -1.54754 h 0.496095 z m 0.01378,-1.76803 h -0.523656 v -0.37621 h 0.523656 z m 1.959576,1.59026 q 0,0.21773 -0.06201,0.36656 -0.06201,0.14883 -0.173633,0.23289 -0.111622,0.0854 -0.270097,0.12264 -0.157096,0.0386 -0.355534,0.0386 -0.161231,0 -0.318328,-0.0193 -0.155719,-0.0193 -0.270096,-0.0469 v -0.38723 h 0.06063 q 0.09095,0.0358 0.221865,0.0648 0.130914,0.0303 0.234267,0.0303 0.137805,0 0.223243,-0.0262 0.08682,-0.0248 0.132292,-0.0717 0.04272,-0.0441 0.06201,-0.113 0.01929,-0.0689 0.01929,-0.16537 v -0.0289 q -0.08957,0.073 -0.198438,0.11576 -0.108866,0.0427 -0.242536,0.0427 -0.325218,0 -0.501607,-0.19568 -0.176389,-0.19569 -0.176389,-0.59532 0,-0.19155 0.05374,-0.33073 0.05374,-0.13918 0.151585,-0.24253 0.09095,-0.0965 0.223243,-0.15021 0.13367,-0.0537 0.272852,-0.0537 0.125402,0 0.227377,0.0303 0.103353,0.0289 0.187414,0.0813 l 0.01791,-0.0689 h 0.480937 z m -0.496095,-0.31006 v -0.70142 q -0.04272,-0.0179 -0.104732,-0.0276 -0.06201,-0.011 -0.111621,-0.011 -0.195682,0 -0.293523,0.113 -0.09784,0.11162 -0.09784,0.31282 0,0.22324 0.08268,0.31143 0.08406,0.0882 0.248047,0.0882 0.07442,0 0.146073,-0.0234 0.07166,-0.0234 0.130914,-0.062 z m 2.519061,0.48783 h -0.498852 v -0.76757 q 0,-0.0937 -0.0096,-0.18604 -0.0096,-0.0937 -0.03307,-0.1378 -0.02756,-0.051 -0.0813,-0.0744 -0.05237,-0.0234 -0.147451,-0.0234 -0.06752,0 -0.137804,0.022 -0.0689,0.022 -0.150207,0.0703 v 1.09692 h -0.496095 v -2.14424 h 0.496095 v 0.76757 q 0.132292,-0.10335 0.25356,-0.15847 0.122646,-0.0551 0.271474,-0.0551 0.250804,0 0.391364,0.14607 0.141939,0.14607 0.141939,0.43684 z m 1.445566,-0.0138 q -0.07993,0.0207 -0.169499,0.0317 -0.08957,0.0124 -0.219109,0.0124 -0.289389,0 -0.431327,-0.11713 -0.140561,-0.11713 -0.140561,-0.40101 v -0.72347 h -0.20395 v -0.33624 h 0.20395 v -0.44236 h 0.496096 v 0.44236 h 0.4644 v 0.33624 h -0.4644 v 0.54846 q 0,0.0813 0.0014,0.14194 0.0014,0.0606 0.02205,0.10886 0.01929,0.0482 0.06752,0.0772 0.04961,0.0276 0.143317,0.0276 0.03858,0 0.100597,-0.0165 0.06339,-0.0165 0.08819,-0.0303 h 0.04134 z m 1.641248,-0.47681 q 0,0.23978 -0.214975,0.38723 -0.214974,0.14608 -0.588424,0.14608 -0.206706,0 -0.374827,-0.0386 -0.168121,-0.0386 -0.270096,-0.0854 v -0.4079 h 0.04547 q 0.03721,0.0262 0.08544,0.0579 0.04961,0.0303 0.139182,0.0661 0.07717,0.0317 0.175011,0.0551 0.09784,0.0221 0.209463,0.0221 0.146072,0 0.216352,-0.0317 0.07028,-0.0331 0.07028,-0.0965 0,-0.0565 -0.04134,-0.0813 -0.04134,-0.0262 -0.157097,-0.0496 -0.05512,-0.0124 -0.150206,-0.0262 -0.09371,-0.0152 -0.170878,-0.0358 -0.21084,-0.0551 -0.312815,-0.17087 -0.101975,-0.11714 -0.101975,-0.29077 0,-0.22324 0.21084,-0.37069 0.212219,-0.14883 0.578778,-0.14883 0.173633,0 0.332108,0.0358 0.159853,0.0344 0.249426,0.0744 v 0.39136 h -0.04272 q -0.110243,-0.0758 -0.252181,-0.12264 -0.140561,-0.0482 -0.285255,-0.0482 -0.11989,0 -0.202572,0.0331 -0.08131,0.0331 -0.08131,0.0937 0,0.0551 0.03721,0.0841 0.03721,0.0289 0.175012,0.0579 0.07579,0.0152 0.162609,0.0303 0.08819,0.0138 0.176389,0.0358 0.195682,0.051 0.289389,0.16123 0.09371,0.10887 0.09371,0.27285 z"
       id="text5"
       aria-label="Lights" />
    <rect
       style="display:inline;fill:#000000;fill-opacity:0.72;stroke-width:1.90557"
       id="rect4"
       width="11"
       height="11"
       x="10.073237"
       y="112.9568"
       rx="2"
       ry="2" />
    <path
       style="font-weight:bold;font-size:2.82223px;-inkscape-font-specification:'sans-serif Bold';fill:#ff0000;stroke-width:4.087"
       d="M 21.863188,86.980356 H 21.21413 l -0.613228,-0.821313 -0.124024,0.150206 v 0.671107 H 19.94771 v -2.051905 h 0.529168 v 0.928802 l 0.733118,-0.928801 h 0.613229 l -0.802021,0.949471 z m 2.075331,-0.117133 q -0.137804,0.05374 -0.365181,0.107488 -0.227377,0.05236 -0.453376,0.05236 -0.523656,0 -0.819935,-0.283878 -0.296279,-0.285253 -0.296279,-0.786862 0,-0.478179 0.299035,-0.770325 0.299036,-0.293522 0.833716,-0.293522 0.202572,0 0.385852,0.03721 0.183279,0.03583 0.4079,0.144695 v 0.480936 h -0.05926 q -0.03859,-0.02894 -0.112999,-0.0813 -0.07441,-0.05374 -0.143317,-0.09095 -0.07993,-0.0441 -0.187413,-0.07579 -0.106109,-0.0317 -0.225999,-0.0317 -0.14056,0 -0.254938,0.04134 -0.114377,0.04134 -0.205328,0.12678 -0.08682,0.08268 -0.137804,0.21084 -0.04961,0.12678 -0.04961,0.293523 0,0.340377 0.180524,0.520899 0.180523,0.180525 0.533302,0.180525 0.03032,0 0.06615,-0.0014 0.03721,-0.0014 0.06752,-0.0041 V 86.237604 H 22.9918 v -0.38723 h 0.946715 z"
       id="text6"
       aria-label="KG" />
    <path
       style="font-weight:bold;font-size:4.23333px;-inkscape-font-specification:'sans-serif Bold';fill:#000000;stroke-width:4.087"
       d="M 4.0538383,14.550431 H 2.2513658 V 14.004729 H 2.7557274 V 12.018288 H 2.2513658 v -0.545702 h 1.8024725 v 0.545702 H 3.5494767 v 1.986441 h 0.5043616 z m 1.3497873,0 h -0.74414 v -3.216338 h 0.74414 z m 1.4469388,0 h -0.74414 v -3.216338 h 0.74414 z m 3.0158341,0 h -0.74414 v -0.256315 q -0.2067055,0.157097 -0.3782712,0.239779 -0.1715656,0.08061 -0.409277,0.08061 -0.3844723,0 -0.5932449,-0.221175 Q 7.5347598,14.17216 7.5347598,13.740145 V 12.229128 H 8.283034 v 1.15135 q 0,0.1757 0.010335,0.293522 0.012402,0.115755 0.053743,0.192236 0.039274,0.07648 0.1178221,0.111621 0.080615,0.03514 0.223242,0.03514 0.095085,0 0.2108397,-0.03514 0.1157551,-0.03514 0.223242,-0.103353 v -1.645376 h 0.74414 z m 2.9724265,-1.645376 v 1.645376 h -0.748274 v -1.159618 q 0,-0.169498 -0.0083,-0.287321 -0.0083,-0.119889 -0.04547,-0.194303 -0.03721,-0.07441 -0.113688,-0.107487 -0.07441,-0.03514 -0.21084,-0.03514 -0.109554,0 -0.212906,0.04548 -0.103353,0.04341 -0.186035,0.09302 v 1.645376 h -0.74414 v -2.321303 h 0.74414 v 0.256315 q 0.192236,-0.150895 0.367936,-0.235645 0.175699,-0.08475 0.388606,-0.08475 0.229443,0 0.405143,0.103353 0.1757,0.101286 0.274918,0.299723 0.223242,-0.188102 0.434082,-0.295589 0.21084,-0.107487 0.413411,-0.107487 0.376204,0 0.570507,0.225309 0.196371,0.225309 0.196371,0.649056 v 1.511017 h -0.748274 v -1.159618 q 0,-0.171566 -0.0083,-0.289388 -0.0062,-0.117822 -0.04341,-0.192236 -0.03514,-0.07441 -0.111621,-0.107487 -0.07648,-0.03514 -0.214974,-0.03514 -0.09302,0 -0.1819,0.03307 -0.08888,0.03101 -0.217041,0.10542 z m 2.953822,1.645376 h -0.74414 v -2.321303 h 0.74414 z m 0.02067,-2.652032 h -0.785481 v -0.564306 h 0.785481 z m 3.013768,2.652032 h -0.748274 v -1.15135 q 0,-0.140559 -0.01447,-0.279052 -0.01447,-0.14056 -0.04961,-0.206706 -0.04134,-0.07648 -0.121956,-0.111621 -0.07855,-0.03514 -0.221175,-0.03514 -0.101286,0 -0.206706,0.03307 -0.103352,0.03307 -0.225309,0.10542 v 1.645376 h -0.74414 v -2.321303 h 0.74414 v 0.256315 q 0.198438,-0.155029 0.380338,-0.237712 0.183968,-0.08268 0.40721,-0.08268 0.376205,0 0.587044,0.219108 0.212907,0.219108 0.212907,0.655257 z m 2.089792,-0.605647 v -0.483691 q -0.150895,0.0124 -0.326595,0.03514 -0.1757,0.02067 -0.26665,0.04961 -0.111621,0.03514 -0.171566,0.103353 -0.05788,0.06615 -0.05788,0.1757 0,0.07235 0.0124,0.117822 0.0124,0.04547 0.06201,0.08682 0.04754,0.04134 0.113688,0.06201 0.06615,0.0186 0.206705,0.0186 0.111621,0 0.225309,-0.04547 0.115756,-0.04548 0.202572,-0.119889 z m 0,0.359668 q -0.05994,0.04547 -0.148828,0.109554 -0.08888,0.06408 -0.167432,0.101285 -0.109554,0.04961 -0.227376,0.07235 -0.117822,0.02481 -0.258382,0.02481 -0.330729,0 -0.553971,-0.204639 -0.223242,-0.204638 -0.223242,-0.522965 0,-0.254247 0.113689,-0.415478 0.113688,-0.16123 0.32246,-0.254248 0.206706,-0.09302 0.51263,-0.132291 0.305924,-0.03927 0.634586,-0.05788 v -0.0124 q 0,-0.192236 -0.157096,-0.264583 -0.157096,-0.07441 -0.463021,-0.07441 -0.183968,0 -0.39274,0.06615 -0.208773,0.06408 -0.299723,0.09922 h -0.06821 v -0.560172 q 0.117822,-0.03101 0.382405,-0.07235 0.26665,-0.04341 0.533301,-0.04341 0.634586,0 0.915705,0.19637 0.283187,0.194304 0.283187,0.611849 v 1.57923 h -0.737939 z m 2.90628,0.225309 q -0.119889,0.03101 -0.254248,0.04754 -0.134358,0.0186 -0.328662,0.0186 -0.434081,0 -0.646988,-0.175699 -0.21084,-0.1757 -0.21084,-0.601513 v -1.085205 h -0.305924 v -0.504361 h 0.305924 v -0.663525 h 0.74414 v 0.663525 h 0.696598 v 0.504361 h -0.696598 v 0.822689 q 0,0.121956 0.0021,0.212906 0.0021,0.09095 0.03307,0.163298 0.02894,0.07235 0.101286,0.115755 0.07441,0.04134 0.214974,0.04134 0.05788,0 0.150895,-0.0248 0.09508,-0.0248 0.132291,-0.04548 h 0.06201 z m 2.817398,-1.138948 q 0,0.572574 -0.334863,0.903303 -0.332796,0.328662 -0.936376,0.328662 -0.60358,0 -0.938443,-0.328662 -0.332796,-0.330729 -0.332796,-0.903303 0,-0.576708 0.334863,-0.90537 0.33693,-0.328662 0.936376,-0.328662 0.607714,0 0.938443,0.330729 0.332796,0.330729 0.332796,0.903303 z m -0.915706,0.564306 q 0.07235,-0.08888 0.107487,-0.212906 0.03721,-0.126091 0.03721,-0.347266 0,-0.204638 -0.03721,-0.343131 -0.03721,-0.138493 -0.103352,-0.221175 -0.06615,-0.08475 -0.159164,-0.119889 -0.09302,-0.03514 -0.200504,-0.03514 -0.107487,0 -0.192236,0.02894 -0.08268,0.02894 -0.159164,0.115755 -0.06821,0.08061 -0.109553,0.221175 -0.03927,0.140559 -0.03927,0.353466 0,0.190169 0.03514,0.330729 0.03514,0.138493 0.103353,0.223242 0.06615,0.08061 0.157096,0.117822 0.09302,0.03721 0.21084,0.03721 0.101286,0 0.192236,-0.03307 0.09302,-0.03514 0.157096,-0.115755 z m 3.13159,-1.016991 h -0.06615 q -0.04754,-0.01654 -0.152962,-0.02481 -0.10542,-0.0083 -0.1757,-0.0083 -0.159163,0 -0.281119,0.02067 -0.121956,0.02067 -0.262516,0.07028 v 1.554426 h -0.74414 v -2.321303 h 0.74414 v 0.341064 q 0.245979,-0.21084 0.42788,-0.279052 0.181901,-0.07028 0.334863,-0.07028 0.03927,0 0.08888,0.0021 0.04961,0.0021 0.08682,0.0062 z"
       id="text1"
       aria-label="Illuminator" />
    <path
       style="font-weight:bold;font-size:2.82223px;-inkscape-font-specification:'sans-serif Bold';fill:#000000;stroke-width:4.087"
       d="m 11.330417,68.019343 q 0,0.286633 -0.130914,0.51401 -0.130914,0.225998 -0.33073,0.347266 -0.150207,0.09095 -0.329352,0.12678 -0.179146,0.03583 -0.424437,0.03583 H 9.3915115 v -2.051904 h 0.7441425 q 0.250804,0 0.432705,0.04272 0.181902,0.04134 0.305926,0.118511 0.212218,0.129536 0.333486,0.350023 0.122646,0.219109 0.122646,0.516766 z m -0.547083,-0.0041 q 0,-0.202572 -0.07441,-0.345889 -0.07304,-0.144694 -0.232889,-0.225999 -0.08131,-0.03996 -0.166744,-0.05374 -0.08406,-0.01516 -0.254937,-0.01516 H 9.9206796 v 1.284335 H 10.05435 q 0.188791,0 0.276986,-0.01654 0.08819,-0.01792 0.172255,-0.06339 0.144695,-0.08268 0.212219,-0.220487 0.06752,-0.139182 0.06752,-0.343132 z m 1.419383,1.028019 h -0.496095 v -1.547541 h 0.496095 z m 0.01378,-1.768028 h -0.523656 v -0.376205 h 0.523656 z m 1.799722,1.277445 q 0,0.239779 -0.214974,0.38723 -0.214975,0.146072 -0.588424,0.146072 -0.206706,0 -0.374827,-0.03858 -0.168122,-0.03859 -0.270097,-0.08544 v -0.407901 h 0.04548 q 0.03721,0.02618 0.08544,0.05788 0.04961,0.03032 0.139183,0.06615 0.07717,0.03169 0.175011,0.05512 0.09784,0.02205 0.209462,0.02205 0.146073,0 0.216353,-0.03169 0.07028,-0.03307 0.07028,-0.09646 0,-0.0565 -0.04134,-0.0813 -0.04134,-0.02618 -0.157097,-0.04961 -0.05512,-0.0124 -0.150207,-0.02618 -0.09371,-0.01516 -0.170877,-0.03583 -0.21084,-0.05512 -0.312815,-0.170878 -0.101975,-0.117133 -0.101975,-0.290767 0,-0.223242 0.21084,-0.370693 0.212218,-0.148828 0.578778,-0.148828 0.173633,0 0.332108,0.03583 0.159853,0.03445 0.249425,0.07441 v 0.391364 h -0.04272 q -0.110243,-0.07579 -0.252182,-0.122646 -0.14056,-0.04823 -0.285254,-0.04823 -0.11989,0 -0.202573,0.03307 -0.0813,0.03307 -0.0813,0.09371 0,0.05512 0.03721,0.08406 0.03721,0.02894 0.175011,0.05788 0.07579,0.01516 0.162609,0.03032 0.0882,0.01378 0.17639,0.03583 0.195682,0.05099 0.289389,0.161231 0.09371,0.108865 0.09371,0.272852 z m 1.266421,0.08682 V 68.317 q -0.100597,0.0083 -0.217731,0.02343 -0.117133,0.01378 -0.177767,0.03307 -0.07441,0.02343 -0.114378,0.0689 -0.03858,0.0441 -0.03858,0.117133 0,0.04823 0.0083,0.07855 0.0083,0.03032 0.04134,0.05788 0.0317,0.02756 0.07579,0.04134 0.0441,0.0124 0.137804,0.0124 0.07442,0 0.150207,-0.03032 0.07717,-0.03032 0.135048,-0.07993 z m 0,0.239779 q -0.03996,0.03032 -0.09922,0.07304 -0.05926,0.04272 -0.111621,0.06752 -0.07304,0.03307 -0.151585,0.04823 -0.07855,0.01654 -0.172255,0.01654 -0.220487,0 -0.369316,-0.136426 -0.148828,-0.136426 -0.148828,-0.348644 0,-0.1695 0.07579,-0.276987 0.07579,-0.107487 0.214975,-0.169499 0.137804,-0.06201 0.341754,-0.08819 0.20395,-0.02618 0.423059,-0.03858 v -0.0083 q 0,-0.128158 -0.104731,-0.17639 -0.104731,-0.04961 -0.308682,-0.04961 -0.122645,0 -0.261828,0.0441 -0.139182,0.04272 -0.199816,0.06615 h -0.04547 V 67.52876 q 0.07855,-0.02067 0.254938,-0.04823 0.177767,-0.02894 0.355535,-0.02894 0.423059,0 0.610472,0.130914 0.188792,0.129536 0.188792,0.4079 v 1.052824 h -0.491961 z m 2.563158,-0.631143 q 0,0.365181 -0.202572,0.595314 -0.201194,0.230133 -0.502985,0.230133 -0.129536,0 -0.227377,-0.02756 -0.09784,-0.02756 -0.186036,-0.07993 l -0.02067,0.07717 h -0.475424 v -2.144233 h 0.496095 v 0.757923 q 0.114377,-0.09095 0.232889,-0.147451 0.11989,-0.0565 0.275608,-0.0565 0.293523,0 0.451998,0.212218 0.158475,0.210841 0.158475,0.582912 z m -0.511254,0.0096 q 0,-0.206706 -0.07028,-0.318328 -0.07028,-0.111621 -0.250803,-0.111621 -0.07028,0 -0.144695,0.02205 -0.07441,0.02067 -0.141938,0.06063 v 0.777215 q 0.05374,0.01929 0.101975,0.02618 0.04823,0.0069 0.115756,0.0069 0.19706,0 0.293523,-0.115755 0.09646,-0.115756 0.09646,-0.347267 z m 1.36564,0.785484 H 18.20409 v -2.144233 h 0.496095 z m 1.99265,-0.682131 h -1.135507 q 0.01102,0.181902 0.137804,0.278365 0.128158,0.09646 0.376206,0.09646 0.157096,0 0.304547,-0.0565 0.14745,-0.0565 0.232889,-0.121268 h 0.05512 v 0.398255 q -0.168121,0.06752 -0.31695,0.09784 -0.148828,0.03032 -0.329352,0.03032 -0.465778,0 -0.713826,-0.209462 -0.248047,-0.209462 -0.248047,-0.596692 0,-0.383096 0.234267,-0.606339 0.235645,-0.224621 0.644924,-0.224621 0.377583,0 0.567753,0.191548 0.19017,0.19017 0.19017,0.548461 z M 20.199496,68.07033 q -0.0041,-0.155718 -0.07717,-0.234267 -0.07304,-0.07855 -0.227377,-0.07855 -0.143316,0 -0.235645,0.07441 -0.09233,0.07441 -0.103353,0.238401 z"
       id="text2"
       aria-label="Disable" />
  </g>
  <g
     inkscape:groupmode="layer"
     id="layer2"
     inkscape:label="components"
     style="display:none"
     sodipodi:insensitive="true">
    <circle
       style="fill:#0000ff;fill-opacity:1;stroke-width:0.313059"
       id="ellipse7"
       cx="15.548989"
       cy="118.11526"
       inkscape:label="out_lights"
       r="4" />
    <circle
       style="fill:#00ff00;fill-opacity:1;stroke-width:0.313059"
       id="circle1"
       cx="8.4164257"
       cy="93.86454"
       inkscape:label="in_k"
       r="4" />
    <circle
       style="fill:#00ff00;fill-opacity:1;stroke-width:0.313059"
       id="circle4"
       cx="21.825647"
       cy="93.86454"
       inkscape:label="in_kg"
       r="4" />
    <circle
       style="display:inline;fill:#00ff00;fill-opacity:1;stroke-width:0.313059"
       id="circle2"
       cx="14.978385"
       cy="74.749268"
       inkscape:label="in_disable"
       r="4" />
  </g>
</svg>
