<?xml version="1.0" encoding="UTF-8" standalone="no"?>
<!-- Created with Inkscape (http://www.inkscape.org/) -->

<svg
   width="35.560001mm"
   height="128.5mm"
   viewBox="0 0 35.56 128.5"
   version="1.1"
   id="svg1"
   inkscape:version="1.3 (0e150ed, 2023-07-21)"
   sodipodi:docname="EKeyMap.svg"
   xml:space="preserve"
   xmlns:inkscape="http://www.inkscape.org/namespaces/inkscape"
   xmlns:sodipodi="http://sodipodi.sourceforge.net/DTD/sodipodi-0.dtd"
   xmlns="http://www.w3.org/2000/svg"
   xmlns:svg="http://www.w3.org/2000/svg"><sodipodi:namedview
   id="namedview1"
   pagecolor="#ffffff"
   bordercolor="#000000"
   borderopacity="0.25"
   inkscape:showpageshadow="2"
   inkscape:pageopacity="0.0"
   inkscape:pagecheckerboard="0"
   inkscape:deskcolor="#d1d1d1"
   inkscape:document-units="mm"
   showgrid="true"
   inkscape:zoom="1.4142136"
   inkscape:cx="155.20993"
   inkscape:cy="288.14601"
   inkscape:window-width="1840"
   inkscape:window-height="1320"
   inkscape:window-x="1299"
   inkscape:window-y="25"
   inkscape:window-maximized="0"
   inkscape:current-layer="g42"
   showguides="true"><inkscape:grid
     id="grid120"
     units="mm"
     originx="0"
     originy="0"
     spacingx="1.016"
     spacingy="1.5"
     empcolor="#0099e5"
     empopacity="0.30196078"
     color="#0099e5"
     opacity="0.14901961"
     empspacing="5"
     dotted="false"
     gridanglex="30"
     gridanglez="30"
     visible="true" /><sodipodi:guide
     position="84.092136,116.50001"
     orientation="0,-1"
     id="guide258"
     inkscape:locked="false" /><sodipodi:guide
     position="9.1439993,-7.9999969"
     orientation="1,0"
     id="guide1"
     inkscape:locked="false" /><sodipodi:guide
     position="-4.1010424,93.442697"
     orientation="1,0"
     id="guide2"
     inkscape:locked="false" /></sodipodi:namedview>&#10;  <defs
   id="defs1"><rect
   x="104"
   y="365"
   width="70.5"
   height="76.5"
   id="rect5" />&#10;    <linearGradient
   id="Gradient_61"
   gradientUnits="userSpaceOnUse"
   x1="-424.043"
   y1="-4741.6309"
   x2="-405.228"
   y2="-4741.6309"
   gradientTransform="matrix(0.025,1,-1,0.025,-4534.645,592.311)">&#10;      <stop
   offset="0"
   stop-color="#777676"
   id="stop121" />&#10;      <stop
   offset="1"
   stop-color="#575757"
   id="stop122" />&#10;    </linearGradient>&#10;    <linearGradient
   id="Gradient_62"
   gradientUnits="userSpaceOnUse"
   x1="-423.578"
   y1="-4741.6309"
   x2="-405.69299"
   y2="-4741.6309"
   gradientTransform="matrix(0.025,1,-1,0.025,-4534.645,592.311)">&#10;      <stop
   offset="0.006"
   stop-color="#FFFFFF"
   id="stop123" />&#10;      <stop
   offset="1"
   stop-color="#454545"
   id="stop124" />&#10;    </linearGradient>&#10;    <linearGradient
   id="Gradient_63"
   gradientUnits="userSpaceOnUse"
   x1="-7828.9722"
   y1="4203.397"
   x2="-7814.8091"
   y2="4203.397"
   gradientTransform="matrix(-0.025,-1,1,-0.025,-4202.945,-7655.114)">&#10;      <stop
   offset="0.006"
   stop-color="#FFFFFF"
   id="stop125" />&#10;      <stop
   offset="1"
   stop-color="#454545"
   id="stop126" />&#10;    </linearGradient>&#10;    <linearGradient
   id="Gradient_64"
   gradientUnits="userSpaceOnUse"
   x1="-8480.584"
   y1="3795.7019"
   x2="-8480.584"
   y2="3807.8259"
   gradientTransform="matrix(-1,0.025,0.025,1,-8378.065,-3529.085)">&#10;      <stop
   offset="0"
   stop-color="#FFFEFE"
   id="stop127" />&#10;      <stop
   offset="1"
   stop-color="#5E5E5E"
   id="stop128" />&#10;    </linearGradient>&#10;    <linearGradient
   id="Gradient_65"
   gradientUnits="userSpaceOnUse"
   x1="-8480.584"
   y1="3806.3679"
   x2="-8480.584"
   y2="3797.1599"
   gradientTransform="matrix(-1,0.025,0.025,1,-8378.065,-3529.085)">&#10;      <stop
   offset="0"
   stop-color="#FFFEFE"
   id="stop129" />&#10;      <stop
   offset="1"
   stop-color="#383636"
   id="stop130" />&#10;    </linearGradient>&#10;  &#10;        &#10;        &#10;      </defs>&#10;  <g
   inkscape:groupmode="layer"
   id="layer5"
   inkscape:label="WHITE PANEL "
   style="display:inline"
   sodipodi:insensitive="true">&#10;    <path
   id="rect1"
   style="fill:#ffffff;stroke-width:0.163378"
   d="M 0,0.52497211 C 0,43.183314 0,85.841656 0,128.5 c 11.853333,0 23.706667,0 35.56,0 0,-42.833336 0,-85.666667 0,-128.5 C 23.706667,0 11.853333,0 0,0 0,0.17499071 0,0.3499814 0,0.52497211 Z"
   inkscape:label="rect1" />&#10;  </g>&#10;  <g
   inkscape:groupmode="layer"
   id="layer2"
   inkscape:label="LOGO"
   style="display:inline"
   sodipodi:insensitive="true">&#10;    &#10;  <g
   id="g3"
   transform="translate(13.271562,0.49462991)"
   style="display:inline"
   inkscape:label="SMALL LOGO"><path
     d="m 7.1818831,120.39429 -3.1132681,-0.005 H 2.0435844 v 5.13355 H 3.071234 v -1.02291 l 1.0342085,0.005 -0.00653,1.0229 H 5.126562 l 0.00656,-1.0229 1.0276495,3.5e-4 -0.00653,1.02255 H 7.181891 Z"
     fill="#cf0000"
     id="path1-6"
     style="stroke-width:0.0255215" /><path
     d="m 6.1542336,119.36664 -3.1132682,-0.005 h -2.025056 v 5.13355 h 1.027675 v -4.1059 l 1.0276496,0.005 v 4.10587 h 1.027675 v -4.10587 l 1.0327028,-0.005 -0.00505,4.11064 h 1.0276751 z"
     fill="#4c4c4c"
     id="path2-5"
     style="stroke-width:0.0255215" /></g></g>&#10;  <g
   inkscape:label="BLOCKS"
   inkscape:groupmode="layer"
   id="layer1"
   style="display:inline">&#10;    &#10;    <path
   d="m 18.74833,13.53209 12.250292,-0.0038 c 0.04968,-1.8e-5 0.08992,1.017318 0.08992,2.273328 v 72.78704 c 0,1.256008 -0.04024,2.273324 -0.08992,2.273324 H 18.74833 c -0.04964,0 -0.08992,-1.017316 -0.08992,-2.273324 V 15.80542 c 0,-1.256012 0.04028,-2.273315 0.08992,-2.27333 z"
   fill="#000000"
   fill-opacity="0.7"
   id="path13"
   style="stroke-width:0.226061"
   sodipodi:nodetypes="sssssssss" />&#10;    &#10;    &#10;    &#10;    &#10;    &#10;    <circle
   style="display:inline;fill:#ff0000;stroke-width:0.704961"
   id="circle108"
   cx="25.259674"
   cy="80.802094"
   r="4.695075" />&#10;    &#10;    <circle
   style="display:inline;fill:#ff0000;stroke-width:0.704961"
   id="circle29"
   cx="25.259672"
   cy="19.153984"
   r="4.695075" />&#10;    &#10;    &#10;    <circle
   style="display:inline;fill:#ff0000;stroke-width:0.704961"
   id="circle236"
   cx="9.4029493"
   cy="19.173325"
   r="4.695075" />&#10;  <g
   id="g161"
   inkscape:label="BOX"
   transform="matrix(0.97376671,0,0,0.77583702,-70.952097,-61.567103)"
   style="display:inline">&#10;        <path
   d="m 78.346323,111.11212 h 8.346969 v 3.8508 h -8.346969 z"
   fill="#ff0000"
   id="path161"
   style="display:inline;stroke-width:0.351895"
   inkscape:label="RED BOX" />&#10;      </g><g
   id="g162"
   inkscape:label="BOX"
   transform="matrix(0.97376671,0,0,0.77583702,-55.007209,0.49085913)"
   style="display:inline">&#10;        <path
   d="m 78.346323,111.11212 h 8.346969 v 3.8508 h -8.346969 z"
   fill="#ff0000"
   id="path162"
   style="display:inline;stroke-width:0.351895"
   inkscape:label="RED BOX" />&#10;      </g><g
   id="g164"
   inkscape:label="BOX"
   transform="matrix(0.97376671,0,0,0.77583702,-55.091682,-61.686228)"
   style="display:inline">&#10;        <path
   d="m 78.346323,111.11212 h 8.346969 v 3.8508 h -8.346969 z"
   fill="#ff0000"
   id="path164"
   style="display:inline;stroke-width:0.351895"
   inkscape:label="RED BOX" />&#10;      </g><circle
   style="display:inline;fill:#ff0000;stroke-width:0.704961"
   id="circle3"
   cx="9.4029493"
   cy="81.085884"
   r="4.695075" /><g
   id="g4"
   inkscape:label="BOX"
   transform="matrix(0.97376671,0,0,0.77583702,-70.952097,0.87459653)"
   style="display:inline">&#10;        <path
   d="m 78.346323,111.11212 h 8.346969 v 3.8508 h -8.346969 z"
   fill="#ff0000"
   id="path3"
   style="display:inline;stroke-width:0.351895"
   inkscape:label="RED BOX" />&#10;      </g></g><g
   inkscape:groupmode="layer"
   id="layer3"
   inkscape:label="LEDS - hidden"
   style="display:none"><path
     d="m 3.9687543,100.93406 11.1336647,-8.8e-4 c 0.292365,-3e-5 0.529167,0.2368 0.529167,0.52916 v 13.92933 c 0,0.29236 -0.236802,0.52916 -0.529167,0.52916 H 3.9687543 c -0.2921,0 -0.529167,-0.2368 -0.529167,-0.52916 v -13.92845 c 0,-0.29236 0.237067,-0.52914 0.529167,-0.52916 z"
     fill="#000000"
     fill-opacity="0.7"
     id="path14"
     style="display:inline;stroke-width:0.264583"
     sodipodi:nodetypes="sssssssss" /><circle
     style="display:inline;fill:#ff0000;stroke-width:0.704961"
     id="circle128"
     cx="25.545614"
     cy="106.2021"
     r="4.695075" /><circle
     style="display:inline;fill:#ff0000;stroke-width:0.704961"
     id="circle286"
     cx="9.7733631"
     cy="106.48602"
     r="4.695075" /><g
     id="g158"
     inkscape:label="BOX"
     transform="matrix(0.97376671,0,0,0.77583702,-70.595117,25.745399)"
     style="display:inline">&#10;        <path
   d="m 78.346323,111.11212 h 8.346969 v 3.8508 h -8.346969 z"
   fill="#ff0000"
   id="path158"
   style="display:inline;stroke-width:0.351895"
   inkscape:label="RED BOX" />&#10;      </g><g
     id="g29"
     inkscape:label="BOX"
     transform="matrix(0.97376671,0,0,0.77583702,-54.819177,25.361693)"
     style="display:inline">&#10;        <path
   d="m 78.346323,111.11212 h 8.346969 v 3.8508 h -8.346969 z"
   fill="#ff0000"
   id="path12"
   style="display:inline;stroke-width:0.351895"
   inkscape:label="RED BOX" />&#10;      </g><text
     xml:space="preserve"
     style="font-size:2.91042px;line-height:1.8;font-family:'Autogate Sans';-inkscape-font-specification:'Autogate Sans';letter-spacing:0.264583px;display:inline;fill:#f9f9f9;stroke-width:0.264583"
     x="9.9612751"
     y="114.49531"
     id="text25"><tspan
       sodipodi:role="line"
       id="tspan25"
       style="font-size:2.91042px;text-align:center;text-anchor:middle;stroke-width:0.264583"
       x="10.093567"
       y="114.49531">LED</tspan></text><text
     xml:space="preserve"
     style="font-size:2.91042px;line-height:1.8;font-family:'Autogate Sans';-inkscape-font-specification:'Autogate Sans';letter-spacing:0.264583px;display:inline;fill:#f9f9f9;stroke-width:0.264583"
     x="25.67948"
     y="114.1116"
     id="text28"><tspan
       sodipodi:role="line"
       id="tspan28"
       style="font-size:2.91042px;text-align:center;text-anchor:middle;stroke-width:0.264583"
       x="25.811771"
       y="114.1116">LED</tspan></text><circle
     style="display:inline;fill:#00ff00;fill-opacity:1;stroke-width:0.313059"
     id="circle36"
     cx="25.545614"
     cy="106.2019"
     inkscape:label="in_lights"
     r="4" /><circle
     style="display:inline;fill:#0000ff;fill-opacity:1;stroke-width:0.313059"
     id="circle39"
     cx="9.7740736"
     cy="106.47561"
     inkscape:label="out_lights"
     r="4" /></g>&#10;  <g
   inkscape:groupmode="layer"
   id="layer6"
   inkscape:label="Brackets"
   style="display:inline" /><g
   inkscape:groupmode="layer"
   id="g42"
   inkscape:label="TEXT - convert"
   style="display:inline"><path
     style="font-size:2.91042px;line-height:1.8;font-family:'Autogate Sans';-inkscape-font-specification:'Autogate Sans';text-align:center;letter-spacing:0.264583px;text-anchor:middle;fill:#f9f9f9;stroke-width:0.264583"
     d="m 7.3238913,27.144972 c 0,0.02328 0.014552,0.03784 0.037835,0.03784 h 0.2706691 c 0.023283,0 0.037835,-0.01455 0.037835,-0.03784 l 0.00291,-0.389996 c 0,-0.04075 -0.00291,-0.07276 -0.00582,-0.101865 0,-0.0291 0.00291,-0.05821 0.00873,-0.09313 l 0.014552,-0.0291 0.052388,-0.09313 c 0.014552,-0.02619 0.029104,-0.05239 0.037835,-0.07567 l 0.3114149,0.797456 c 0.00582,0.01455 0.020373,0.02328 0.034925,0.02328 h 0.3055941 c 0.017463,0 0.023283,-0.0087 0.017463,-0.02328 l -0.011642,-0.02328 C 8.2843299,26.752066 8.1388089,26.362069 7.9816462,25.977894 l 0.4685776,-0.876036 c 0.017463,-0.03202 0.00291,-0.0553 -0.034925,-0.0553 H 8.1388089 c -0.014552,0 -0.026194,0.0087 -0.034925,0.02037 l -0.4307421,0.806186 -0.00291,-0.788724 c 0,-0.02328 -0.014552,-0.03784 -0.037835,-0.03784 H 7.3617267 c -0.023283,0 -0.037835,0.01455 -0.037835,0.03784 z m 2.5812714,-2.060577 c 0,-0.02328 -0.014552,-0.03784 -0.037835,-0.03784 H 8.9592762 c -0.023283,0 -0.037835,0.01455 -0.037835,0.03784 l 0.00291,2.060577 c 0,0.02328 0.014552,0.03784 0.037835,0.03784 h 0.9051406 c 0.023283,0 0.037835,-0.01455 0.037835,-0.03784 v -0.256116 c 0,-0.02328 -0.014552,-0.03784 -0.037835,-0.03784 l -0.5995465,-0.0029 v -0.567532 h 0.4307421 c 0.023283,0 0.037835,-0.01455 0.037835,-0.03784 v -0.256117 c 0,-0.02328 -0.014552,-0.03784 -0.037835,-0.03784 H 9.2677808 v -0.570442 h 0.5995465 c 0.023283,0 0.037835,-0.01455 0.037835,-0.03784 z m 0.9106923,2.060577 c 0,0.02328 0.01455,0.03784 0.03784,0.03784 h 0.270669 c 0.02328,0 0.03784,-0.01455 0.03784,-0.03784 v -0.55589 c 0,-0.0553 -0.0058,-0.09604 -0.0087,-0.1397 -0.0029,-0.04366 -0.0029,-0.08149 0.0087,-0.133879 0.01746,-0.07858 0.03492,-0.1397 0.05821,-0.197909 0.02619,-0.06403 0.0553,-0.125148 0.08149,-0.20664 l 0.285221,-0.814917 c 0.01164,-0.0291 -0.0029,-0.04948 -0.03492,-0.04948 h -0.27649 c -0.01455,0 -0.0291,0.01164 -0.03493,0.02619 l -0.250296,0.747978 -0.250297,-0.747978 c -0.0058,-0.01455 -0.02037,-0.02619 -0.03492,-0.02619 h -0.28231 c -0.03201,0 -0.04657,0.02037 -0.03492,0.04948 l 0.285221,0.814917 c 0.02619,0.08149 0.0553,0.142611 0.08149,0.20664 0.02328,0.05821 0.04366,0.119327 0.06112,0.197909 0.01164,0.05239 0.01164,0.09022 0.0087,0.133879 -0.0029,0.04366 -0.0087,0.0844 -0.0087,0.1397 z"
     id="text26"
     aria-label="KEY" /><path
     style="font-size:2.91042px;line-height:1.8;font-family:'Autogate Sans';-inkscape-font-specification:'Autogate Sans';text-align:center;letter-spacing:0.264583px;text-anchor:middle;fill:#f9f9f9;stroke-width:0.264583"
     d="m 23.126569,27.025847 c 0,0.02328 0.01455,0.03784 0.03784,0.03784 h 0.270669 c 0.02328,0 0.03784,-0.01455 0.03784,-0.03784 l 0.0029,-0.389996 c 0,-0.04075 -0.0029,-0.07276 -0.0058,-0.101865 0,-0.0291 0.0029,-0.05821 0.0087,-0.09313 l 0.01455,-0.02911 0.05239,-0.09313 c 0.01455,-0.02619 0.0291,-0.05239 0.03783,-0.07567 l 0.311415,0.797455 c 0.0058,0.01455 0.02037,0.02328 0.03493,0.02328 h 0.305594 c 0.01746,0 0.02328,-0.0087 0.01746,-0.02328 l -0.01164,-0.02328 C 24.087008,26.63294 23.941487,26.242944 23.784324,25.858769 l 0.468578,-0.876037 c 0.01746,-0.03201 0.0029,-0.0553 -0.03492,-0.0553 h -0.27649 c -0.01455,0 -0.02619,0.0087 -0.03492,0.02037 l -0.430742,0.806187 -0.0029,-0.788724 c 0,-0.02328 -0.01455,-0.03784 -0.03784,-0.03784 h -0.270669 c -0.02328,0 -0.03784,0.01455 -0.03784,0.03784 z m 2.581272,-2.060577 c 0,-0.02328 -0.01455,-0.03784 -0.03784,-0.03784 h -0.908051 c -0.02328,0 -0.03783,0.01455 -0.03783,0.03784 l 0.0029,2.060577 c 0,0.02328 0.01455,0.03784 0.03784,0.03784 h 0.90514 c 0.02328,0 0.03784,-0.01455 0.03784,-0.03784 V 26.76973 c 0,-0.02328 -0.01455,-0.03783 -0.03784,-0.03783 l -0.599546,-0.0029 v -0.567532 h 0.430742 c 0.02328,0 0.03784,-0.01455 0.03784,-0.03784 V 25.8675 c 0,-0.02328 -0.01455,-0.03784 -0.03784,-0.03784 h -0.430742 v -0.570443 h 0.599546 c 0.02328,0 0.03784,-0.01455 0.03784,-0.03784 z m 0.910693,2.060577 c 0,0.02328 0.01455,0.03784 0.03784,0.03784 h 0.270669 c 0.02328,0 0.03784,-0.01455 0.03784,-0.03784 v -0.55589 c 0,-0.0553 -0.0058,-0.09604 -0.0087,-0.1397 -0.0029,-0.04366 -0.0029,-0.08149 0.0087,-0.13388 0.01746,-0.07858 0.03493,-0.1397 0.05821,-0.197908 0.02619,-0.06403 0.0553,-0.125148 0.08149,-0.20664 l 0.285221,-0.814918 c 0.01164,-0.0291 -0.0029,-0.04948 -0.03493,-0.04948 h -0.27649 c -0.01455,0 -0.0291,0.01164 -0.03492,0.02619 l -0.250296,0.747978 -0.250296,-0.747978 c -0.0058,-0.01455 -0.02037,-0.02619 -0.03493,-0.02619 h -0.282311 c -0.03201,0 -0.04657,0.02037 -0.03492,0.04948 l 0.285221,0.814918 c 0.02619,0.08149 0.0553,0.142611 0.08149,0.20664 0.02328,0.05821 0.04366,0.119327 0.06112,0.197908 0.01164,0.05239 0.01164,0.09022 0.0087,0.13388 -0.0029,0.04366 -0.0087,0.0844 -0.0087,0.1397 z"
     id="text29"
     aria-label="KEY" /><path
     style="font-size:2.91042px;line-height:1.8;font-family:'Autogate Sans';-inkscape-font-specification:'Autogate Sans';text-align:center;letter-spacing:0.264583px;text-anchor:middle;fill:#f9f9f9;stroke-width:0.264583"
     d="m 23.958397,89.202933 c 0,0.02328 0.01455,0.03784 0.03784,0.03784 h 0.270669 c 0.02328,0 0.03783,-0.01455 0.03783,-0.03784 l 0.0029,-0.389996 c 0,-0.04075 -0.0029,-0.07276 -0.0058,-0.101865 0,-0.0291 0.0029,-0.05821 0.0087,-0.09313 l 0.01455,-0.02911 0.05239,-0.09313 c 0.01455,-0.02619 0.0291,-0.05239 0.03784,-0.07567 l 0.311415,0.797455 c 0.0058,0.01455 0.02037,0.02328 0.03492,0.02328 h 0.305594 c 0.01746,0 0.02328,-0.0087 0.01746,-0.02328 l -0.01164,-0.02328 C 24.918836,88.810026 24.773315,88.42003 24.616152,88.035855 l 0.468578,-0.876037 c 0.01746,-0.03201 0.0029,-0.0553 -0.03493,-0.0553 h -0.27649 c -0.01455,0 -0.02619,0.0087 -0.03493,0.02037 l -0.430743,0.806186 -0.0029,-0.788723 c 0,-0.02328 -0.01455,-0.03784 -0.03783,-0.03784 h -0.270669 c -0.02328,0 -0.03784,0.01455 -0.03784,0.03784 z m 2.665675,-1.11178 c 0,-0.02328 -0.01455,-0.03784 -0.03784,-0.03784 h -0.541338 c -0.02328,0 -0.03784,0.01455 -0.03784,0.03784 v 0.261937 c 0,0.02328 0.01455,0.03784 0.03784,0.03784 l 0.235744,-0.0029 v 0.308505 c 0,0.174625 -0.02619,0.20955 -0.20955,0.20955 -0.154253,0 -0.20664,-0.06694 -0.20664,-0.20955 v -1.047751 c 0,-0.145521 0.05239,-0.209551 0.20664,-0.209551 0.05239,0 0.09313,0.0029 0.122237,0.02328 0.03784,0.02328 0.06112,0.08731 0.07276,0.171715 0.01455,0.07858 0.01455,0.162983 0.01455,0.20955 v 0.01746 c 0,0.01164 0.0058,0.01746 0.01746,0.01746 h 0.288132 c 0.02328,0 0.03784,-0.01455 0.03784,-0.03784 v -0.270669 c 0,-0.229923 -0.1397,-0.465667 -0.436563,-0.465667 h -0.229923 c -0.293952,0 -0.439473,0.235744 -0.439473,0.465667 v 1.190362 c 0,0.227013 0.145521,0.480219 0.439473,0.480219 h 0.229923 c 0.296863,0 0.436563,-0.235744 0.436563,-0.468577 z"
     id="text27"
     aria-label="KG" /><path
     style="font-size:6.12552px;line-height:1.8;font-family:'Autogate Sans';-inkscape-font-specification:'Autogate Sans';text-align:center;letter-spacing:0.556864px;text-anchor:middle;fill:#d40000;stroke-width:0.556864"
     d="m 6.503218,8.9203682 c 0,0.049004 0.030628,0.079632 0.079632,0.079632 h 0.5696734 c 0.049004,0 0.079632,-0.030628 0.079632,-0.079632 l 0.00613,-0.8208197 c 0,-0.085757 -0.00613,-0.153138 -0.012251,-0.2143932 0,-0.061255 0.00613,-0.1225104 0.018377,-0.1960166 L 7.2750334,7.6278837 7.3852928,7.431867 c 0.030628,-0.05513 0.061255,-0.1102593 0.079632,-0.1592635 L 8.1203554,8.950996 C 8.1326064,8.981624 8.1632344,9 8.1938614,9 H 8.837041 C 8.873794,9 8.886045,8.981623 8.873794,8.950996 L 8.8492922,8.9019917 C 8.5246397,8.093423 8.2183636,7.2726033 7.8875856,6.4640346 L 8.8737943,4.620253 C 8.9105473,4.552872 8.8799243,4.5038682 8.8002883,4.5038682 H 8.2183636 c -0.030628,0 -0.05513,0.018377 -0.073506,0.042879 l -0.906577,1.6967691 -0.00613,-1.660016 c 0,-0.049004 -0.030628,-0.079632 -0.079632,-0.079632 H 6.5828497 c -0.049004,0 -0.079632,0.030628 -0.079632,0.079632 z m 5.432766,-4.3368683 c 0,-0.049004 -0.03063,-0.079632 -0.07963,-0.079632 H 9.9451897 c -0.049004,0 -0.079632,0.030628 -0.079632,0.079632 l 0.00613,4.3368683 c 0,0.049004 0.030628,0.079632 0.079632,0.079632 h 1.9050373 c 0.049,0 0.07963,-0.030628 0.07963,-0.079632 V 8.3813225 c 0,-0.049004 -0.03063,-0.079632 -0.07963,-0.079632 L 10.5945,8.2955605 V 7.1010887 h 0.906577 c 0.049,0 0.07963,-0.030628 0.07963,-0.079632 V 6.4824112 c 0,-0.049004 -0.03063,-0.079632 -0.07963,-0.079632 H 10.594495 V 5.2021775 h 1.261857 c 0.049,0 0.07963,-0.030628 0.07963,-0.079632 z m 1.916722,4.3368683 c 0,0.049004 0.03063,0.079632 0.07963,0.079632 h 0.569673 c 0.049,0 0.07963,-0.030628 0.07963,-0.079632 V 7.7503939 c 0,-0.1163849 -0.01225,-0.2021422 -0.01838,-0.294025 -0.0061,-0.091883 -0.0061,-0.1715146 0.01838,-0.2817739 0.03675,-0.1653891 0.07351,-0.294025 0.12251,-0.4165354 0.05513,-0.1347614 0.116385,-0.2633974 0.171515,-0.4349119 L 15.475965,4.608002 c 0.0245,-0.061255 -0.0061,-0.1041338 -0.07351,-0.1041338 h -0.581924 c -0.03063,0 -0.06126,0.024502 -0.07351,0.05513 L 14.220237,6.1332565 13.693442,4.5589978 c -0.01225,-0.030628 -0.04288,-0.05513 -0.07351,-0.05513 h -0.594175 c -0.06738,0 -0.09801,0.042879 -0.07351,0.1041338 l 0.600301,1.7151457 c 0.05513,0.1715145 0.116385,0.3001505 0.171515,0.4349119 0.049,0.1225104 0.09188,0.2511463 0.128636,0.4165354 0.0245,0.1102593 0.0245,0.1898911 0.01838,0.2817739 -0.0061,0.091883 -0.01838,0.1776401 -0.01838,0.294025 z m 4.525622,-4.4165 c -0.049,0 -0.07963,0.030628 -0.07963,0.079632 v 4.3368683 c 0,0.049004 0.03063,0.079632 0.07963,0.079632 h 0.581925 c 0.049,0 0.07963,-0.030628 0.07963,-0.079632 V 6.6171726 l 0.416535,1.1148447 c 0.01225,0.030628 0.04288,0.049004 0.07351,0.049004 h 0.520669 c 0.03063,0 0.06126,-0.018377 0.07351,-0.049004 l 0.416535,-1.1148447 0.0061,2.3031956 c 0,0.049004 0.03063,0.079632 0.07963,0.079632 h 0.569674 c 0.049,0 0.07963,-0.030628 0.07963,-0.079632 V 4.5834999 c 0,-0.049004 -0.03063,-0.079632 -0.07963,-0.079632 h -0.551297 c -0.03063,0 -0.06125,0.018377 -0.07351,0.049004 L 19.787198,6.6539258 19.009257,4.5528723 c -0.01225,-0.030628 -0.04288,-0.049004 -0.07351,-0.049004 z m 5.273508,1.8070284 0.208268,1.0045853 h -0.428786 z m 1.225104,2.6829779 c 0.06126,0 0.09188,-0.036753 0.07963,-0.098008 L 24.007117,4.5589978 c -0.0061,-0.036753 -0.03675,-0.061255 -0.07351,-0.061255 h -0.557422 c -0.03675,0 -0.06738,0.024502 -0.07351,0.061255 l -0.955581,4.3368684 c -0.01225,0.061255 0.01838,0.098008 0.07963,0.098008 h 0.58805 c 0.04288,0 0.07351,-0.024502 0.07963,-0.061255 L 23.27818,8.0199168 h 0.747313 l 0.183766,0.9127025 c 0.0061,0.036753 0.03675,0.061255 0.07963,0.061255 z m 1.071404,-4.4900063 c -0.049,0 -0.07963,0.030628 -0.07963,0.079632 l -0.0061,4.3368683 c 0,0.049004 0.03063,0.079632 0.07963,0.079632 h 0.575799 c 0.049,0 0.07963,-0.030628 0.07963,-0.079632 V 7.4441179 h 0.637054 c 0.563548,0 0.839196,-0.3614057 0.839196,-0.8330708 v -1.365991 c 0,-0.3859078 -0.306276,-0.7411879 -0.759564,-0.7411879 z m 1.225104,0.7044348 c 0.09188,0 0.17764,0.085757 0.17764,0.1837656 v 1.1577233 c 0,0.1041339 -0.08576,0.1898911 -0.17764,0.1898911 h -0.575799 v -1.53138 z"
     id="text32"
     inkscape:label="title"
     aria-label="KEY MAP" /><path
     style="font-size:2.91042px;line-height:1.8;font-family:'Autogate Sans';-inkscape-font-specification:'Autogate Sans';text-align:center;letter-spacing:0.264583px;text-anchor:middle;fill:#f9f9f9;stroke-width:0.264583"
     d="m 24.998008,43.844352 -0.27649,-0.637382 c -0.0058,-0.01455 -0.01746,-0.02328 -0.03493,-0.02328 h -0.305594 c -0.01455,0 -0.02037,0.0087 -0.01164,0.02037 l 0.0087,0.02328 c 0.145521,0.343429 0.296862,0.683949 0.442383,1.024468 l -0.439473,1.015736 c -0.01455,0.03202 0,0.05239 0.03493,0.05239 h 0.267759 c 0.01455,0 0.02619,-0.0087 0.03201,-0.02328 l 0.282311,-0.640292 0.2794,0.640292 c 0.0058,0.01455 0.01746,0.02328 0.03492,0.02328 h 0.27358 c 0.03492,0 0.04948,-0.02037 0.03492,-0.05239 l -0.439474,-1.015736 0.439474,-1.015737 c 0.01455,-0.03201 0,-0.05239 -0.03492,-0.05239 h -0.270669 c -0.01455,0 -0.02619,0.0087 -0.03202,0.02328 z"
     id="text33"
     aria-label="X" /><path
     style="font-size:2.91042px;line-height:1.8;font-family:'Autogate Sans';-inkscape-font-specification:'Autogate Sans';text-align:center;letter-spacing:0.264583px;text-anchor:middle;fill:#f9f9f9;stroke-width:0.264583"
     d="m 25.122249,59.040434 c 0,0.02328 0.01455,0.03784 0.03784,0.03784 h 0.270669 c 0.02328,0 0.03784,-0.01455 0.03784,-0.03784 v -0.55589 c 0,-0.0553 -0.0058,-0.09604 -0.0087,-0.1397 -0.0029,-0.04366 -0.0029,-0.08149 0.0087,-0.133879 0.01746,-0.07858 0.03492,-0.1397 0.05821,-0.197909 0.02619,-0.06403 0.0553,-0.125148 0.08149,-0.20664 l 0.285221,-0.814917 c 0.01164,-0.0291 -0.0029,-0.04948 -0.03492,-0.04948 h -0.27649 c -0.01455,0 -0.0291,0.01164 -0.03492,0.02619 l -0.250296,0.747977 -0.250296,-0.747977 c -0.0058,-0.01455 -0.02037,-0.02619 -0.03493,-0.02619 h -0.282311 c -0.03201,0 -0.04657,0.02037 -0.03492,0.04948 l 0.285221,0.814917 c 0.02619,0.08149 0.0553,0.142611 0.08149,0.20664 0.02328,0.05821 0.04366,0.119327 0.06112,0.197909 0.01164,0.05239 0.01164,0.09022 0.0087,0.133879 -0.0029,0.04366 -0.0087,0.0844 -0.0087,0.1397 z"
     id="text34"
     aria-label="Y" /><path
     style="font-size:2.91042px;line-height:1.8;font-family:'Autogate Sans';-inkscape-font-specification:'Autogate Sans';text-align:center;letter-spacing:0.264583px;text-anchor:middle;fill:#f9f9f9;stroke-width:0.264583"
     d="m 25.063009,70.171193 c -0.02328,0 -0.03784,0.01455 -0.03784,0.03784 v 0.256117 c 0,0.02328 0.01455,0.03784 0.03784,0.03784 h 0.617009 l -0.657755,1.752073 c -0.01164,0.03202 0.0029,0.05239 0.03493,0.05239 h 1.033199 c 0.02328,0 0.03784,-0.01455 0.03784,-0.03784 v -0.259027 c 0,-0.02328 -0.01455,-0.03784 -0.03784,-0.03784 l -0.617009,0.0029 0.663576,-1.752073 c 0.01164,-0.03202 -0.0029,-0.05239 -0.03492,-0.05239 z"
     id="text35"
     aria-label="z" /><path
     style="font-size:2.91042px;line-height:1.8;font-family:'Autogate Sans';-inkscape-font-specification:'Autogate Sans';text-align:center;letter-spacing:0.264583px;text-anchor:middle;fill:#4c4c4c;stroke-width:0.264583"
     d="M 9.4099438,43.934615 9.1334539,43.297233 c -0.00582,-0.01455 -0.017462,-0.02328 -0.034925,-0.02328 H 8.7929347 c -0.014552,0 -0.020373,0.0087 -0.011642,0.02037 l 0.00873,0.02328 c 0.145521,0.34343 0.2968629,0.683949 0.4423839,1.024468 l -0.4394735,1.015737 c -0.014552,0.03201 0,0.05239 0.034925,0.05239 h 0.2677586 c 0.014552,0 0.026194,-0.0087 0.032015,-0.02328 l 0.2823108,-0.640293 0.2794003,0.640293 c 0.00582,0.01455 0.017463,0.02328 0.034925,0.02328 h 0.2735795 c 0.034925,0 0.049477,-0.02037 0.034925,-0.05239 L 9.5933002,44.342074 10.032774,43.326338 c 0.01455,-0.03202 0,-0.05239 -0.034925,-0.05239 H 9.7271795 c -0.014552,0 -0.026194,0.0087 -0.032015,0.02328 z"
     id="text41"
     aria-label="X"
     inkscape:label="text41" /><path
     style="font-size:2.91042px;line-height:1.8;font-family:'Autogate Sans';-inkscape-font-specification:'Autogate Sans';text-align:center;letter-spacing:0.264583px;text-anchor:middle;fill:#4c4c4c;stroke-width:0.264583"
     d="m 9.2382289,59.395278 c 0,0.02328 0.014552,0.03784 0.037835,0.03784 h 0.270669 c 0.023283,0 0.037835,-0.01455 0.037835,-0.03784 v -0.555891 c 0,-0.0553 -0.00582,-0.09604 -0.00873,-0.1397 -0.00291,-0.04366 -0.00291,-0.08149 0.00873,-0.133879 0.017462,-0.07858 0.034925,-0.1397 0.058208,-0.197909 0.026194,-0.06403 0.055298,-0.125148 0.081492,-0.206639 l 0.285221,-0.814918 c 0.01164,-0.0291 -0.0029,-0.04948 -0.034925,-0.04948 H 9.6980753 c -0.014552,0 -0.029104,0.01164 -0.034925,0.02619 L 9.4128541,58.071037 9.162558,57.323059 c -0.00582,-0.01455 -0.020373,-0.02619 -0.034925,-0.02619 H 8.8453222 c -0.032015,0 -0.046567,0.02037 -0.034925,0.04948 l 0.2852211,0.814918 c 0.026194,0.08149 0.055298,0.14261 0.081492,0.206639 0.023283,0.05821 0.043656,0.119328 0.061119,0.197909 0.011642,0.05239 0.011642,0.09022 0.00873,0.133879 -0.00291,0.04366 -0.00873,0.0844 -0.00873,0.1397 z"
     id="text1"
     aria-label="Y" /><path
     style="font-size:2.91042px;line-height:1.8;font-family:'Autogate Sans';-inkscape-font-specification:'Autogate Sans';text-align:center;letter-spacing:0.264583px;text-anchor:middle;fill:#f9f9f9;stroke-width:0.264583"
     d="m 8.1255753,89.586699 c 0,0.02328 0.014552,0.03784 0.037835,0.03784 h 0.2706691 c 0.023283,0 0.037835,-0.01455 0.037835,-0.03784 l 0.00291,-0.389996 c 0,-0.04075 -0.00291,-0.07276 -0.00582,-0.101865 0,-0.0291 0.00291,-0.05821 0.00873,-0.09313 l 0.014552,-0.0291 0.052388,-0.09313 c 0.014552,-0.02619 0.029104,-0.05239 0.037835,-0.07567 l 0.3114149,0.797455 c 0.00582,0.01455 0.020373,0.02328 0.034925,0.02328 h 0.3055941 c 0.017462,0 0.023283,-0.0087 0.017462,-0.02328 l -0.011642,-0.02328 C 9.0860138,89.193792 8.9404928,88.803796 8.7833302,88.419621 l 0.4685776,-0.876037 c 0.017463,-0.03201 0.00291,-0.0553 -0.034925,-0.0553 H 8.9404928 c -0.014552,0 -0.026194,0.0087 -0.034925,0.02037 l -0.4307422,0.806187 -0.00291,-0.788724 c 0,-0.02328 -0.014552,-0.03784 -0.037835,-0.03784 H 8.1634107 c -0.023283,0 -0.037835,0.01455 -0.037835,0.03784 z m 2.6656757,-1.11178 c 0,-0.02328 -0.01455,-0.03784 -0.03784,-0.03784 h -0.541338 c -0.02328,0 -0.03784,0.01455 -0.03784,0.03784 v 0.261938 c 0,0.02328 0.01455,0.03784 0.03784,0.03784 l 0.235744,-0.0029 v 0.308504 c 0,0.174625 -0.02619,0.20955 -0.20955,0.20955 -0.154252,0 -0.20664,-0.06694 -0.20664,-0.20955 v -1.047751 c 0,-0.145521 0.05239,-0.20955 0.20664,-0.20955 0.05239,0 0.09313,0.0029 0.122237,0.02328 0.03784,0.02328 0.06112,0.08731 0.07276,0.171715 0.01455,0.07858 0.01455,0.162983 0.01455,0.20955 v 0.01746 c 0,0.01164 0.0058,0.01746 0.01746,0.01746 h 0.288131 c 0.02328,0 0.03784,-0.01455 0.03784,-0.03784 v -0.270669 c 0,-0.229924 -0.139701,-0.465668 -0.436563,-0.465668 h -0.229924 c -0.293952,0 -0.439473,0.235744 -0.439473,0.465668 v 1.190361 c 0,0.227013 0.145521,0.48022 0.439473,0.48022 h 0.229924 c 0.296862,0 0.436563,-0.235744 0.436563,-0.468578 z"
     id="text4"
     aria-label="KG" /><path
     style="font-size:2.91042px;line-height:1.8;font-family:'Autogate Sans';-inkscape-font-specification:'Autogate Sans';text-align:center;letter-spacing:0.264583px;text-anchor:middle;fill:#4c4c4c;stroke-width:0.264583"
     d="m 8.8875235,70.526044 c -0.023283,0 -0.037835,0.01455 -0.037835,0.03784 v 0.256117 c 0,0.02328 0.014552,0.03784 0.037835,0.03784 h 0.617009 l -0.6577549,1.752073 c -0.011642,0.03202 0.00291,0.05239 0.034925,0.05239 h 1.033199 c 0.023283,0 0.037835,-0.01455 0.037835,-0.03783 V 72.36543 c 0,-0.02328 -0.014552,-0.03784 -0.037835,-0.03784 l -0.617009,0.0029 0.6635758,-1.752073 c 0.011642,-0.03202 -0.00291,-0.05239 -0.034925,-0.05239 z"
     id="text5"
     inkscape:label="text5"
     aria-label="Z" /></g>&#10;  <g
   inkscape:groupmode="layer"
   id="layer2-0"
   inkscape:label="components"
   style="display:none">&#10;    &#10;    &#10;    &#10;    &#10;    &#10;    &#10;    &#10;    &#10;    &#10;    &#10;    &#10;    &#10;    &#10;    &#10;    &#10;    &#10;    &#10;    &#10;    &#10;    &#10;    &#10;    &#10;    &#10;    &#10;    &#10;    &#10;    &#10;    <circle
   style="display:inline;fill:#0000ff;fill-opacity:1;stroke-width:0.313059"
   id="circle9"
   cx="25.34873"
   cy="80.801903"
   inkscape:label="out_kg"
   r="4" /><circle
   style="display:inline;fill:#0000ff;fill-opacity:1;stroke-width:0.313059"
   id="circle13"
   cx="25.05044"
   cy="65.456078"
   inkscape:label="out_z"
   r="4" /><circle
   style="display:inline;fill:#0000ff;fill-opacity:1;stroke-width:0.313059"
   id="circle12"
   cx="25.029379"
   cy="51.697739"
   inkscape:label="out_y"
   r="4" /><circle
   style="display:inline;fill:#0000ff;fill-opacity:1;stroke-width:0.313;stroke-dasharray:none"
   id="circle11"
   cx="24.995844"
   cy="37.939404"
   inkscape:label="out_x"
   r="4" /><circle
   style="display:inline;fill:#0000ff;fill-opacity:1;stroke-width:0.313059"
   id="circle10-9"
   cx="25.264067"
   cy="19.153984"
   inkscape:label="out_k"
   r="4" />&#10;  <circle
   style="display:inline;fill:#00ff00;fill-opacity:1;stroke-width:0.313059"
   id="circle4"
   cx="9.4036608"
   cy="81.075661"
   inkscape:label="in_kg"
   r="4" /><circle
   style="display:inline;fill:#00ff00;fill-opacity:1;stroke-width:0.313059"
   id="circle5"
   cx="9.3822918"
   cy="65.200615"
   inkscape:label="in_z"
   r="4" /><circle
   style="display:inline;fill:#00ff00;fill-opacity:1;stroke-width:0.313059"
   id="circle2"
   cx="9.3822918"
   cy="51.971439"
   inkscape:label="in_y"
   r="4" /><circle
   style="display:inline;fill:#00ff00;fill-opacity:1;stroke-width:0.313059"
   id="circle52"
   cx="9.3822918"
   cy="37.948524"
   inkscape:label="in_x"
   r="4" /><circle
   style="display:inline;fill:#00ff00;fill-opacity:1;stroke-width:0.313059"
   id="circle1"
   cx="9.4036608"
   cy="19.163105"
   inkscape:label="in_k"
   r="4" /></g>&#10;</svg>
