<?xml version="1.0" encoding="UTF-8" standalone="no"?>
<!-- Created with Inkscape (http://www.inkscape.org/) -->

<svg
   width="35.560001mm"
   height="128.5mm"
   viewBox="0 0 35.56 128.5"
   version="1.1"
   id="svg1"
   inkscape:version="1.3 (0e150ed, 2023-07-21)"
   sodipodi:docname="ELedMerge.svg"
   xml:space="preserve"
   xmlns:inkscape="http://www.inkscape.org/namespaces/inkscape"
   xmlns:sodipodi="http://sodipodi.sourceforge.net/DTD/sodipodi-0.dtd"
   xmlns="http://www.w3.org/2000/svg"
   xmlns:svg="http://www.w3.org/2000/svg"><sodipodi:namedview
   id="namedview1"
   pagecolor="#ffffff"
   bordercolor="#000000"
   borderopacity="0.25"
   inkscape:showpageshadow="2"
   inkscape:pageopacity="0.0"
   inkscape:pagecheckerboard="0"
   inkscape:deskcolor="#d1d1d1"
   inkscape:document-units="mm"
   showgrid="true"
   inkscape:zoom="1.4142136"
   inkscape:cx="78.135299"
   inkscape:cy="166.8772"
   inkscape:window-width="1664"
   inkscape:window-height="1127"
   inkscape:window-x="1231"
   inkscape:window-y="89"
   inkscape:window-maximized="0"
   inkscape:current-layer="g42"
   showguides="true"><inkscape:grid
     id="grid120"
     units="mm"
     originx="0"
     originy="0"
     spacingx="1.016"
     spacingy="1.5"
     empcolor="#0099e5"
     empopacity="0.30196078"
     color="#0099e5"
     opacity="0.14901961"
     empspacing="5"
     dotted="false"
     gridanglex="30"
     gridanglez="30"
     visible="true" /><sodipodi:guide
     position="84.092136,116.50001"
     orientation="0,-1"
     id="guide258"
     inkscape:locked="false" /><sodipodi:guide
     position="9.1439993,-7.9999969"
     orientation="1,0"
     id="guide1"
     inkscape:locked="false" /><sodipodi:guide
     position="21.335998,5.5000018"
     orientation="1,0"
     id="guide2"
     inkscape:locked="false" /></sodipodi:namedview>&#10;  <defs
   id="defs1"><rect
   x="228"
   y="260"
   width="114"
   height="149"
   id="rect3" /><rect
   x="261"
   y="287"
   width="74"
   height="79"
   id="rect2" />&#10;    <linearGradient
   id="Gradient_61"
   gradientUnits="userSpaceOnUse"
   x1="-424.043"
   y1="-4741.6309"
   x2="-405.228"
   y2="-4741.6309"
   gradientTransform="matrix(0.025,1,-1,0.025,-4534.645,592.311)">&#10;      <stop
   offset="0"
   stop-color="#777676"
   id="stop121" />&#10;      <stop
   offset="1"
   stop-color="#575757"
   id="stop122" />&#10;    </linearGradient>&#10;    <linearGradient
   id="Gradient_62"
   gradientUnits="userSpaceOnUse"
   x1="-423.578"
   y1="-4741.6309"
   x2="-405.69299"
   y2="-4741.6309"
   gradientTransform="matrix(0.025,1,-1,0.025,-4534.645,592.311)">&#10;      <stop
   offset="0.006"
   stop-color="#FFFFFF"
   id="stop123" />&#10;      <stop
   offset="1"
   stop-color="#454545"
   id="stop124" />&#10;    </linearGradient>&#10;    <linearGradient
   id="Gradient_63"
   gradientUnits="userSpaceOnUse"
   x1="-7828.9722"
   y1="4203.397"
   x2="-7814.8091"
   y2="4203.397"
   gradientTransform="matrix(-0.025,-1,1,-0.025,-4202.945,-7655.114)">&#10;      <stop
   offset="0.006"
   stop-color="#FFFFFF"
   id="stop125" />&#10;      <stop
   offset="1"
   stop-color="#454545"
   id="stop126" />&#10;    </linearGradient>&#10;    <linearGradient
   id="Gradient_64"
   gradientUnits="userSpaceOnUse"
   x1="-8480.584"
   y1="3795.7019"
   x2="-8480.584"
   y2="3807.8259"
   gradientTransform="matrix(-1,0.025,0.025,1,-8378.065,-3529.085)">&#10;      <stop
   offset="0"
   stop-color="#FFFEFE"
   id="stop127" />&#10;      <stop
   offset="1"
   stop-color="#5E5E5E"
   id="stop128" />&#10;    </linearGradient>&#10;    <linearGradient
   id="Gradient_65"
   gradientUnits="userSpaceOnUse"
   x1="-8480.584"
   y1="3806.3679"
   x2="-8480.584"
   y2="3797.1599"
   gradientTransform="matrix(-1,0.025,0.025,1,-8378.065,-3529.085)">&#10;      <stop
   offset="0"
   stop-color="#FFFEFE"
   id="stop129" />&#10;      <stop
   offset="1"
   stop-color="#383636"
   id="stop130" />&#10;    </linearGradient>&#10;  &#10;        &#10;        &#10;      </defs>&#10;  <g
   inkscape:groupmode="layer"
   id="layer5"
   inkscape:label="WHITE PANEL "
   style="display:inline"
   sodipodi:insensitive="true">&#10;    <path
   id="rect1"
   style="fill:#ffffff;stroke-width:0.163378"
   d="M 0,0.52497211 C 0,43.183314 0,85.841656 0,128.5 c 11.853333,0 23.706667,0 35.56,0 0,-42.833336 0,-85.666667 0,-128.5 C 23.706667,0 11.853333,0 0,0 0,0.17499071 0,0.3499814 0,0.52497211 Z" />&#10;  </g>&#10;  <g
   inkscape:groupmode="layer"
   id="layer2"
   inkscape:label="LOGO"
   style="display:inline">&#10;    &#10;  <g
   id="g3"
   transform="translate(13.800729,-0.03453676)"
   style="display:inline"
   inkscape:label="SMALL LOGO"><path
     d="m 7.1818831,120.39429 -3.1132681,-0.005 H 2.0435844 v 5.13355 H 3.071234 v -1.02291 l 1.0342085,0.005 -0.00653,1.0229 H 5.126562 l 0.00656,-1.0229 1.0276495,3.5e-4 -0.00653,1.02255 H 7.181891 Z"
     fill="#cf0000"
     id="path1-6"
     style="stroke-width:0.0255215" /><path
     d="m 6.1542336,119.36664 -3.1132682,-0.005 h -2.025056 v 5.13355 h 1.027675 v -4.1059 l 1.0276496,0.005 v 4.10587 h 1.027675 v -4.10587 l 1.0327028,-0.005 -0.00505,4.11064 h 1.0276751 z"
     fill="#4c4c4c"
     id="path2-5"
     style="stroke-width:0.0255215" /></g></g>&#10;  <g
   inkscape:label="BLOCKS"
   inkscape:groupmode="layer"
   id="layer1"
   style="display:inline">&#10;    &#10;    &#10;    <path
   d="m 19.843755,98.817369 11.133665,-8.8e-4 c 0.292365,-2e-5 0.529167,0.236797 0.529167,0.529157 v 13.929324 c 0,0.29236 -0.236802,0.52916 -0.529167,0.52916 H 19.843755 c -0.2921,0 -0.529167,-0.2368 -0.529167,-0.52916 V 99.346526 c 0,-0.29236 0.237067,-0.529137 0.529167,-0.529157 z"
   fill="#000000"
   fill-opacity="0.7"
   id="path14"
   style="stroke-width:0.264583"
   sodipodi:nodetypes="sssssssss" />&#10;    &#10;    &#10;    &#10;    &#10;    &#10;    <circle
   style="display:inline;fill:#ff0000;stroke-width:0.704961"
   id="circle128"
   cx="16.67465"
   cy="28.943766"
   r="4.695075" />&#10;    &#10;    &#10;    <circle
   style="display:inline;fill:#ff0000;stroke-width:0.704961"
   id="circle286"
   cx="25.409588"
   cy="104.36935"
   r="4.695075" />&#10;    <circle
   style="display:inline;fill:#ff0000;stroke-width:0.704961"
   id="circle236"
   cx="8.6350069"
   cy="104.36919"
   r="4.695075" />&#10;  <g
   id="g158"
   inkscape:label="BOX"
   transform="matrix(0.97376671,0,0,0.77583702,-54.958888,23.62873)"
   style="display:inline">&#10;        <path
   d="m 78.346323,111.11212 h 8.346969 v 3.8508 h -8.346969 z"
   fill="#ff0000"
   id="path158"
   style="display:inline;stroke-width:0.351895"
   inkscape:label="RED BOX" />&#10;      </g><g
   id="g161"
   inkscape:label="BOX"
   transform="matrix(0.97376671,0,0,0.77583702,-71.720035,23.62873)"
   style="display:inline">&#10;        <path
   d="m 78.346323,111.11212 h 8.346969 v 3.8508 h -8.346969 z"
   fill="#ff0000"
   id="path161"
   style="display:inline;stroke-width:0.351895"
   inkscape:label="RED BOX" />&#10;      </g><g
   id="g29"
   inkscape:label="BOX"
   transform="matrix(0.97376671,0,0,0.77583702,-63.690134,-51.89664)"
   style="display:inline">&#10;        <path
   d="m 78.346323,111.11212 h 8.346969 v 3.8508 h -8.346969 z"
   fill="#ff0000"
   id="path12"
   style="display:inline;stroke-width:0.351895"
   inkscape:label="RED BOX" />&#10;      </g><circle
   style="display:inline;fill:#ff0000;stroke-width:0.704961"
   id="circle6"
   cx="16.67465"
   cy="44.289612"
   r="4.695075" /><g
   id="g6"
   inkscape:label="BOX"
   transform="matrix(0.97376671,0,0,0.77583702,-63.690134,-36.550797)"
   style="display:inline">&#10;        <path
   d="m 78.346323,111.11212 h 8.346969 v 3.8508 h -8.346969 z"
   fill="#ff0000"
   id="path6"
   style="display:inline;stroke-width:0.351895"
   inkscape:label="RED BOX" />&#10;      </g><circle
   style="display:inline;fill:#ff0000;stroke-width:0.704961"
   id="circle8"
   cx="16.67465"
   cy="59.63546"
   r="4.695075" /><g
   id="g8"
   inkscape:label="BOX"
   transform="matrix(0.97376671,0,0,0.77583702,-63.690134,-21.204954)"
   style="display:inline">&#10;        <path
   d="m 78.346323,111.11212 h 8.346969 v 3.8508 h -8.346969 z"
   fill="#ff0000"
   id="path8"
   style="display:inline;stroke-width:0.351895"
   inkscape:label="RED BOX" />&#10;      </g><circle
   style="display:inline;fill:#ff0000;stroke-width:0.704961"
   id="circle10"
   cx="16.67465"
   cy="74.452141"
   r="4.695075" /><g
   id="g10"
   inkscape:label="BOX"
   transform="matrix(0.97376671,0,0,0.77583702,-63.690134,-6.3882801)"
   style="display:inline">&#10;        <path
   d="m 78.346323,111.11212 h 8.346969 v 3.8508 h -8.346969 z"
   fill="#ff0000"
   id="path10"
   style="display:inline;stroke-width:0.351895"
   inkscape:label="RED BOX" />&#10;      </g></g>&#10;  <g
   inkscape:groupmode="layer"
   id="layer6"
   inkscape:label="Brackets"
   style="display:inline" /><g
   inkscape:groupmode="layer"
   id="g42"
   inkscape:label="TEXT - convert"
   style="display:inline"><path
     style="font-size:2.91042px;line-height:1.8;font-family:'Autogate Sans';-inkscape-font-specification:'Autogate Sans';text-align:center;letter-spacing:0.264583px;text-anchor:middle;fill:#f9f9f9;stroke-width:0.264583"
     d="m 23.884988,112.04395 -0.0029,-1.76372 c 0,-0.0233 -0.01455,-0.0378 -0.03784,-0.0378 h -0.264849 c -0.02328,0 -0.03784,0.0145 -0.03784,0.0378 l -0.0058,2.06058 c 0,0.0233 0.01455,0.0378 0.03784,0.0378 h 0.910961 c 0.02328,0 0.03783,-0.0146 0.03783,-0.0378 v -0.25903 c 0,-0.0233 -0.01455,-0.0378 -0.03783,-0.0378 z m 2.080679,-1.76372 c 0,-0.0233 -0.01455,-0.0378 -0.03784,-0.0378 h -0.908051 c -0.02328,0 -0.03783,0.0145 -0.03783,0.0378 l 0.0029,2.06058 c 0,0.0233 0.01455,0.0378 0.03783,0.0378 h 0.905141 c 0.02328,0 0.03784,-0.0146 0.03784,-0.0378 v -0.25612 c 0,-0.0233 -0.01455,-0.0378 -0.03784,-0.0378 l -0.599547,-0.003 v -0.56753 h 0.430743 c 0.02328,0 0.03783,-0.0146 0.03783,-0.0378 v -0.25612 c 0,-0.0233 -0.01455,-0.0378 -0.03783,-0.0378 h -0.430743 v -0.57044 h 0.599547 c 0.02328,0 0.03784,-0.0146 0.03784,-0.0378 z m 1.1639,1.6735 c 0,0.0466 -0.04075,0.0902 -0.08731,0.0902 h -0.270669 v -1.46685 h 0.270669 c 0.04657,0 0.08731,0.0407 0.08731,0.0902 z m -0.681038,-1.70842 c -0.01164,0 -0.02037,0.009 -0.02037,0.0175 v 2.08968 c 0,0.0116 0.0087,0.0204 0.02037,0.0204 h 0.01746 c 0.215371,0.003 0.427832,0.006 0.643203,0.006 0.215371,0 0.363802,-0.17172 0.363802,-0.35507 v -1.42611 c 0,-0.18336 -0.148431,-0.35507 -0.363802,-0.35507 -0.215371,0 -0.427832,0.003 -0.643203,0.003 z"
     id="text25"
     aria-label="LED" /><path
     style="font-size:2.91042px;line-height:1.8;font-family:'Autogate Sans';-inkscape-font-specification:'Autogate Sans';text-align:center;letter-spacing:0.264583px;text-anchor:middle;fill:#f9f9f9;stroke-width:0.264583"
     d="m 7.3576328,112.34083 c 0,0.0233 0.014552,0.0378 0.037835,0.0378 h 0.270669 c 0.023283,0 0.037835,-0.0145 0.037835,-0.0378 l 0.00291,-0.39 c 0,-0.0408 -0.00291,-0.0728 -0.00582,-0.10186 0,-0.0291 0.00291,-0.0582 0.00873,-0.0931 l 0.014552,-0.0291 0.052388,-0.0931 c 0.014552,-0.0262 0.029104,-0.0524 0.037835,-0.0757 l 0.3114149,0.79746 c 0.00582,0.0145 0.020373,0.0233 0.034925,0.0233 h 0.3055941 c 0.017462,0 0.023283,-0.009 0.017462,-0.0233 l -0.011642,-0.0233 c -0.1542523,-0.38418 -0.2997733,-0.77418 -0.456936,-1.15835 l 0.4685776,-0.87604 c 0.017463,-0.032 0.00291,-0.0553 -0.034925,-0.0553 H 8.1725504 c -0.014552,0 -0.026194,0.009 -0.034925,0.0204 l -0.4307422,0.80618 -0.00291,-0.78872 c 0,-0.0233 -0.014552,-0.0378 -0.037835,-0.0378 h -0.270669 c -0.023283,0 -0.037835,0.0146 -0.037835,0.0378 z m 2.6656752,-1.11178 c 0,-0.0233 -0.01455,-0.0378 -0.037835,-0.0378 H 9.4441346 c -0.023283,0 -0.037835,0.0145 -0.037835,0.0378 v 0.26193 c 0,0.0233 0.014552,0.0378 0.037835,0.0378 l 0.235744,-0.003 v 0.3085 c 0,0.17463 -0.026194,0.20955 -0.2095502,0.20955 -0.1542523,0 -0.2066398,-0.0669 -0.2066398,-0.20955 v -1.04775 c 0,-0.14552 0.052388,-0.20955 0.2066398,-0.20955 0.052388,0 0.093133,0.003 0.1222376,0.0233 0.037835,0.0233 0.061119,0.0873 0.072761,0.17171 0.014552,0.0786 0.014552,0.16298 0.014552,0.20955 v 0.0175 c 0,0.0116 0.00582,0.0175 0.017462,0.0175 h 0.2881316 c 0.023283,0 0.037835,-0.0146 0.037835,-0.0378 v -0.27067 c 0,-0.22992 -0.1397,-0.46567 -0.4365628,-0.46567 H 9.356822 c -0.2939524,0 -0.4394734,0.23575 -0.4394734,0.46567 v 1.19036 c 0,0.22702 0.145521,0.48022 0.4394734,0.48022 h 0.2299232 c 0.2968628,0 0.4365628,-0.23574 0.4365628,-0.46858 z"
     id="text26"
     aria-label="KG" /><path
     style="font-size:2.91042px;line-height:1.8;font-family:'Autogate Sans';-inkscape-font-specification:'Autogate Sans';text-align:center;letter-spacing:0.264583px;text-anchor:middle;fill:#f9f9f9;stroke-width:0.264583"
     d="m 14.169304,36.518573 -0.0029,-1.763714 c 0,-0.02328 -0.01455,-0.03784 -0.03783,-0.03784 h -0.264849 c -0.02328,0 -0.03783,0.01455 -0.03783,0.03784 l -0.0058,2.060577 c 0,0.02328 0.01455,0.03784 0.03784,0.03784 h 0.910961 c 0.02328,0 0.03783,-0.01455 0.03783,-0.03784 v -0.259027 c 0,-0.02328 -0.01455,-0.03784 -0.03783,-0.03784 z m 2.080679,-1.763714 c 0,-0.02328 -0.01455,-0.03784 -0.03784,-0.03784 h -0.908051 c -0.02328,0 -0.03783,0.01455 -0.03783,0.03784 l 0.0029,2.060577 c 0,0.02328 0.01455,0.03784 0.03783,0.03784 h 0.905141 c 0.02328,0 0.03784,-0.01455 0.03784,-0.03784 v -0.256117 c 0,-0.02328 -0.01455,-0.03784 -0.03784,-0.03784 l -0.599546,-0.0029 v -0.567532 h 0.430742 c 0.02328,0 0.03784,-0.01455 0.03784,-0.03783 v -0.256117 c 0,-0.02328 -0.01455,-0.03784 -0.03784,-0.03784 h -0.430742 v -0.570442 h 0.599546 c 0.02328,0 0.03784,-0.01455 0.03784,-0.03784 z m 1.163899,1.673491 c 0,0.04657 -0.04075,0.09022 -0.08731,0.09022 H 17.0559 v -1.466851 h 0.270669 c 0.04657,0 0.08731,0.04075 0.08731,0.09022 z m -0.681038,-1.708416 c -0.01164,0 -0.02037,0.0087 -0.02037,0.01746 v 2.089682 c 0,0.01164 0.0087,0.02037 0.02037,0.02037 h 0.01746 c 0.215371,0.0029 0.427832,0.0058 0.643203,0.0058 0.215371,0 0.363802,-0.171714 0.363802,-0.355071 v -1.426106 c 0,-0.183356 -0.148431,-0.355071 -0.363802,-0.355071 -0.215371,0 -0.427832,0.0029 -0.643203,0.0029 z m 2.837122,2.133337 c 0.02328,0 0.03783,-0.01455 0.03783,-0.03784 v -2.060577 c 0,-0.02328 -0.01455,-0.03784 -0.03783,-0.03784 h -0.256117 c -0.0087,0 -0.02037,0.0029 -0.02619,0.01164 l -0.148431,0.142611 c -0.0058,0.0058 -0.01164,0.01746 -0.01164,0.0291 v 0.128058 c 0,0.02328 0.01455,0.03784 0.03784,0.03784 h 0.09895 v 1.749162 c 0,0.02328 0.01455,0.03784 0.03783,0.03784 z"
     id="text28"
     aria-label="LED 1" /><path
     style="font-size:6.12552px;line-height:1.8;font-family:'Autogate Sans';-inkscape-font-specification:'Autogate Sans';text-align:center;letter-spacing:0.556864px;text-anchor:middle;fill:#d40000;stroke-width:0.556864"
     d="m 13.73573,7.766399 -0.0061,-3.7120653 c 0,-0.049004 -0.03063,-0.079632 -0.07963,-0.079632 H 13.09255 c -0.049,0 -0.07963,0.030628 -0.07963,0.079632 l -0.01225,4.3368683 c 0,0.049004 0.03063,0.079632 0.07963,0.079632 h 1.917288 c 0.049,0 0.07963,-0.030628 0.07963,-0.079632 V 7.8460307 c 0,-0.049004 -0.03063,-0.079632 -0.07963,-0.079632 z m 4.379176,-3.7120653 c 0,-0.049004 -0.03063,-0.079632 -0.07963,-0.079632 h -1.911162 c -0.049,0 -0.07963,0.030628 -0.07963,0.079632 l 0.0061,4.3368683 c 0,0.049004 0.03063,0.079632 0.07963,0.079632 h 1.905036 c 0.049,0 0.07963,-0.030628 0.07963,-0.079632 V 7.8521562 c 0,-0.049004 -0.03063,-0.079632 -0.07963,-0.079632 L 16.773417,7.766399 V 6.5719225 h 0.906577 c 0.049,0 0.07963,-0.030628 0.07963,-0.079632 V 5.953245 c 0,-0.049004 -0.03063,-0.079632 -0.07963,-0.079632 h -0.906577 v -1.200602 h 1.261857 c 0.049,0 0.07963,-0.030628 0.07963,-0.079632 z m 2.449643,3.5221741 c 0,0.098008 -0.08576,0.1898912 -0.183766,0.1898912 H 19.81111 V 4.6791368 h 0.569673 c 0.09801,0 0.183766,0.085757 0.183766,0.1898911 z M 19.131177,3.9808275 c -0.0245,0 -0.04288,0.018377 -0.04288,0.036753 v 4.3981235 c 0,0.024502 0.01838,0.042879 0.04288,0.042879 h 0.03675 c 0.453288,0.00613 0.900451,0.012251 1.35374,0.012251 0.453288,0 0.76569,-0.3614057 0.76569,-0.7473135 V 4.7220154 c 0,-0.3859078 -0.312402,-0.7473135 -0.76569,-0.7473135 -0.453289,0 -0.900452,0.00613 -1.35374,0.00613 z"
     id="text32"
     inkscape:label="title"
     aria-label="LED" /><path
     style="font-size:6.12552px;line-height:1.8;font-family:'Autogate Sans';-inkscape-font-specification:'Autogate Sans';text-align:center;letter-spacing:0.556864px;text-anchor:middle;fill:#d40000;stroke-width:0.556864"
     d="m 9.0980992,10.853869 c -0.049004,0 -0.079632,0.03063 -0.079632,0.07963 v 4.336869 c 0,0.049 0.030628,0.07963 0.079632,0.07963 h 0.5819244 c 0.049004,0 0.079632,-0.03063 0.079632,-0.07963 v -2.303196 l 0.4165356,1.114845 c 0.01225,0.03063 0.04288,0.049 0.07351,0.049 h 0.520669 c 0.03063,0 0.06126,-0.01838 0.07351,-0.049 l 0.416536,-1.114845 0.0061,2.303196 c 0,0.049 0.03063,0.07963 0.07963,0.07963 h 0.569673 c 0.049,0 0.07963,-0.03063 0.07963,-0.07963 V 10.9335 c 0,-0.049 -0.03063,-0.07963 -0.07963,-0.07963 h -0.551296 c -0.03063,0 -0.06126,0.01838 -0.07351,0.049 l -0.784066,2.101053 -0.7779412,-2.101053 c -0.012251,-0.03063 -0.042879,-0.049 -0.073506,-0.049 z m 6.0453188,0.07963 c 0,-0.049 -0.03063,-0.07963 -0.07963,-0.07963 h -1.911163 c -0.049,0 -0.07963,0.03063 -0.07963,0.07963 l 0.0061,4.336869 c 0,0.049 0.03063,0.07963 0.07963,0.07963 h 1.905037 c 0.049,0 0.07963,-0.03063 0.07963,-0.07963 v -0.539046 c 0,-0.049 -0.03063,-0.07963 -0.07963,-0.07963 l -1.261857,-0.0061 v -1.194477 h 0.906577 c 0.049,0 0.07963,-0.03063 0.07963,-0.07963 v -0.539045 c 0,-0.049 -0.03063,-0.07963 -0.07963,-0.07963 h -0.906577 v -1.200602 h 1.261857 c 0.049,0 0.07963,-0.03063 0.07963,-0.07963 z m 2.419014,-0.07963 h -1.365991 c -0.049,0 -0.07963,0.03063 -0.07963,0.07963 l 0.0061,4.336869 c 0,0.049 0.03063,0.07963 0.07963,0.07963 h 0.563547 c 0.049,0 0.07963,-0.03063 0.07963,-0.07963 v -1.482376 h 0.257272 l 0.545171,1.506878 c 0.01225,0.03675 0.04288,0.05513 0.07351,0.05513 h 0.539045 c 0.06738,0 0.09801,-0.04288 0.07351,-0.104133 l -0.508419,-1.506878 c 0.367532,-0.122511 0.496168,-0.459414 0.496168,-0.777942 v -1.365991 c 0,-0.385907 -0.306276,-0.741187 -0.759565,-0.741187 z m -0.140887,0.704434 c 0.09188,0 0.17764,0.07963 0.17764,0.183766 v 1.151598 c 0,0.104134 -0.07963,0.189891 -0.17764,0.189891 h -0.575799 v -1.525255 z m 4.360794,1.372117 c 0,-0.049 -0.03063,-0.07963 -0.07963,-0.07963 h -1.139347 c -0.049,0 -0.07963,0.03063 -0.07963,0.07963 v 0.551297 c 0,0.049 0.03063,0.07963 0.07963,0.07963 l 0.496167,-0.0061 v 0.649305 c 0,0.367531 -0.05513,0.441038 -0.441037,0.441038 -0.324653,0 -0.434912,-0.140887 -0.434912,-0.441038 v -2.205187 c 0,-0.306276 0.110259,-0.441038 0.434912,-0.441038 0.110259,0 0.196016,0.0061 0.257271,0.049 0.07963,0.049 0.128636,0.183765 0.153139,0.361405 0.03063,0.165389 0.03063,0.343029 0.03063,0.441038 v 0.03675 c 0,0.0245 0.01225,0.03675 0.03675,0.03675 h 0.606427 c 0.049,0 0.07963,-0.03063 0.07963,-0.07963 v -0.569673 c 0,-0.483916 -0.294024,-0.980083 -0.918828,-0.980083 h -0.483916 c -0.618677,0 -0.924953,0.496167 -0.924953,0.980083 v 2.505338 c 0,0.47779 0.306276,1.01071 0.924953,1.01071 h 0.483916 c 0.624804,0 0.918828,-0.496167 0.918828,-0.986208 z m 2.95194,-1.99692 c 0,-0.049 -0.03063,-0.07963 -0.07963,-0.07963 h -1.911162 c -0.049,0 -0.07963,0.03063 -0.07963,0.07963 l 0.0061,4.336869 c 0,0.049 0.03063,0.07963 0.07963,0.07963 h 1.905037 c 0.049,0 0.07963,-0.03063 0.07963,-0.07963 v -0.539046 c 0,-0.049 -0.03063,-0.07963 -0.07963,-0.07963 l -1.261857,-0.0061 v -1.194477 h 0.906577 c 0.049,0 0.07963,-0.03063 0.07963,-0.07963 v -0.539045 c 0,-0.049 -0.03063,-0.07963 -0.07963,-0.07963 H 23.39279 v -1.200602 h 1.261857 c 0.049,0 0.07963,-0.03063 0.07963,-0.07963 z"
     id="text5"
     inkscape:label="title"
     aria-label="MERGE" /><path
     style="font-size:2.91042px;line-height:1.8;font-family:'Autogate Sans';-inkscape-font-specification:'Autogate Sans';text-align:center;letter-spacing:0.264583px;text-anchor:middle;fill:#f9f9f9;stroke-width:0.264583"
     d="m 13.875352,51.864421 -0.0029,-1.763714 c 0,-0.02328 -0.01455,-0.03784 -0.03783,-0.03784 h -0.264849 c -0.02328,0 -0.03783,0.01455 -0.03783,0.03784 l -0.0058,2.060577 c 0,0.02328 0.01455,0.03784 0.03784,0.03784 h 0.910961 c 0.02328,0 0.03784,-0.01455 0.03784,-0.03784 v -0.259027 c 0,-0.02328 -0.01455,-0.03784 -0.03784,-0.03784 z m 2.080679,-1.763714 c 0,-0.02328 -0.01455,-0.03784 -0.03784,-0.03784 h -0.908051 c -0.02328,0 -0.03784,0.01455 -0.03784,0.03784 l 0.0029,2.060577 c 0,0.02328 0.01455,0.03784 0.03784,0.03784 h 0.90514 c 0.02328,0 0.03784,-0.01455 0.03784,-0.03784 v -0.256117 c 0,-0.02328 -0.01455,-0.03784 -0.03784,-0.03784 l -0.599546,-0.0029 v -0.567532 h 0.430742 c 0.02328,0 0.03784,-0.01455 0.03784,-0.03784 v -0.256117 c 0,-0.02328 -0.01455,-0.03784 -0.03784,-0.03784 h -0.430742 v -0.570443 h 0.599546 c 0.02328,0 0.03784,-0.01455 0.03784,-0.03783 z m 1.163899,1.673491 c 0,0.04657 -0.04075,0.09022 -0.08731,0.09022 H 16.761948 V 50.39757 h 0.270669 c 0.04657,0 0.08731,0.04075 0.08731,0.09022 z m -0.681038,-1.708416 c -0.01164,0 -0.02037,0.0087 -0.02037,0.01746 v 2.089682 c 0,0.01164 0.0087,0.02037 0.02037,0.02037 h 0.01746 c 0.215371,0.0029 0.427832,0.0058 0.643203,0.0058 0.215371,0 0.363802,-0.171715 0.363802,-0.355072 v -1.426105 c 0,-0.183357 -0.148431,-0.355072 -0.363802,-0.355072 -0.215371,0 -0.427832,0.0029 -0.643203,0.0029 z m 3.116522,0.34634 c 0.02911,0.01164 0.04948,0.02619 0.04948,0.07567 0,0.06112 0.0029,0.125148 0,0.192087 0,0.02037 -0.02037,0.05821 -0.03783,0.07858 -0.194998,0.215371 -0.401638,0.422011 -0.599547,0.634471 -0.05821,0.06403 -0.125148,0.180446 -0.125148,0.27358 v 0.494771 c 0,0.02328 0.01455,0.03784 0.03784,0.03784 h 1.030289 c 0.02328,0 0.03784,-0.01455 0.03784,-0.03784 v -0.259027 c 0,-0.02328 -0.01455,-0.03784 -0.03784,-0.03784 h -0.724695 c 0,-0.05821 -0.0029,-0.113506 0.0058,-0.168804 0.0058,-0.03784 0.01164,-0.06985 0.03201,-0.09022 l 0.602457,-0.631561 c 0.06112,-0.06985 0.122238,-0.180446 0.122238,-0.27358 v -0.21246 c 0,-0.221192 -0.177536,-0.427832 -0.436563,-0.427832 H 19.31967 c -0.28231,0 -0.477309,0.227013 -0.477309,0.468578 v 0.189177 c 0,0.02328 0.01455,0.03783 0.03784,0.03783 h 0.291042 c 0.01164,0 0.01746,-0.0058 0.02037,-0.01746 v -0.01455 c 0.0029,-0.04366 0.0029,-0.113507 0.01746,-0.180446 0.01455,-0.06985 0.04075,-0.113507 0.07567,-0.130969 l 0.04657,-0.01164 0.06403,-0.0029 h 0.02328 c 0.05239,0 0.09895,0 0.136789,0.01455 z"
     id="text6"
     aria-label="LED 2" /><path
     style="font-size:2.91042px;line-height:1.8;font-family:'Autogate Sans';-inkscape-font-specification:'Autogate Sans';text-align:center;letter-spacing:0.264583px;text-anchor:middle;fill:#f9f9f9;stroke-width:0.264583"
     d="m 13.875352,67.210269 -0.0029,-1.763714 c 0,-0.02328 -0.01455,-0.03784 -0.03783,-0.03784 h -0.264849 c -0.02328,0 -0.03783,0.01455 -0.03783,0.03784 l -0.0058,2.060577 c 0,0.02328 0.01455,0.03784 0.03784,0.03784 h 0.910961 c 0.02328,0 0.03784,-0.01455 0.03784,-0.03784 v -0.259027 c 0,-0.02328 -0.01455,-0.03784 -0.03784,-0.03784 z m 2.080679,-1.763714 c 0,-0.02328 -0.01455,-0.03784 -0.03784,-0.03784 h -0.908051 c -0.02328,0 -0.03784,0.01455 -0.03784,0.03784 l 0.0029,2.060577 c 0,0.02328 0.01455,0.03784 0.03784,0.03784 h 0.90514 c 0.02328,0 0.03784,-0.01455 0.03784,-0.03784 v -0.256117 c 0,-0.02328 -0.01455,-0.03784 -0.03784,-0.03784 l -0.599546,-0.0029 v -0.567532 h 0.430742 c 0.02328,0 0.03784,-0.01455 0.03784,-0.03784 v -0.256117 c 0,-0.02328 -0.01455,-0.03784 -0.03784,-0.03784 h -0.430742 v -0.570443 h 0.599546 c 0.02328,0 0.03784,-0.01455 0.03784,-0.03783 z m 1.163899,1.673491 c 0,0.04657 -0.04075,0.09022 -0.08731,0.09022 h -0.270669 v -1.466851 h 0.270669 c 0.04657,0 0.08731,0.04075 0.08731,0.09022 z M 16.438892,65.41163 c -0.01164,0 -0.02037,0.0087 -0.02037,0.01746 v 2.089682 c 0,0.01164 0.0087,0.02037 0.02037,0.02037 h 0.01746 c 0.215371,0.0029 0.427832,0.0058 0.643203,0.0058 0.215371,0 0.363802,-0.171715 0.363802,-0.355072 v -1.426105 c 0,-0.183357 -0.148431,-0.355072 -0.363802,-0.355072 -0.215371,0 -0.427832,0.0029 -0.643203,0.0029 z m 3.128164,1.775356 c -0.01455,0.0087 -0.04075,0.01455 -0.07567,0.01746 -0.03493,0.0029 -0.07567,0.0029 -0.101865,0.0029 -0.04948,0 -0.09022,-0.0029 -0.116416,-0.02037 -0.03784,-0.02328 -0.06112,-0.0844 -0.07567,-0.168804 -0.01164,-0.08149 -0.01164,-0.168805 -0.01164,-0.218282 v -0.01746 c 0,-0.0087 -0.0058,-0.01455 -0.01455,-0.01455 h -0.296863 c -0.02328,0 -0.03784,0.01455 -0.03784,0.03784 v 0.267759 c 0,0.244475 0.194998,0.468577 0.477308,0.468577 h 0.192088 c 0.253207,0 0.436563,-0.20955 0.436563,-0.424921 v -0.506413 c 0,-0.06112 -0.01455,-0.125148 -0.05239,-0.183357 0.03493,-0.0553 0.05239,-0.116416 0.05239,-0.180446 v -0.41619 c 0,-0.218281 -0.183356,-0.424921 -0.436563,-0.424921 h -0.192088 c -0.28231,0 -0.477308,0.221192 -0.477308,0.465667 v 0.186267 c 0,0.02328 0.01455,0.03784 0.03784,0.03784 h 0.291042 c 0.01164,0 0.01746,-0.0058 0.01746,-0.01746 v -0.01746 c 0,-0.04075 0,-0.113506 0.01164,-0.180446 0.01455,-0.06694 0.03784,-0.110596 0.07276,-0.125148 0.0029,0 0.0029,0 0.0058,0 0.0291,-0.01455 0.06985,-0.01455 0.116416,-0.01455 0.02619,0 0.05239,0 0.07858,0.0029 0.0029,0 0.0029,0 0.0058,0 0.02328,0 0.04657,0.0029 0.06694,0.01164 0.03492,0.01164 0.05821,0.02911 0.05821,0.07858 v 0.340519 c 0,0.03493 -0.03784,0.06112 -0.122238,0.07567 -0.04075,0.0058 -0.08149,0.0087 -0.119327,0.01164 h -0.09313 -0.01746 c -0.01164,0 -0.02037,0.0087 -0.02037,0.01746 v 0.296863 c 0,0.01164 0.0087,0.02037 0.02037,0.02037 h 0.01746 0.09313 c 0.03783,0.0029 0.07858,0.0058 0.119327,0.01164 0.0844,0.01455 0.122238,0.04366 0.122238,0.07567 l -0.0029,0.439474 c 0,0.02037 -0.01164,0.04657 -0.0291,0.06403 z"
     id="text8"
     aria-label="LED 3" /><path
     style="font-size:2.91042px;line-height:1.8;font-family:'Autogate Sans';-inkscape-font-specification:'Autogate Sans';text-align:center;letter-spacing:0.264583px;text-anchor:middle;fill:#f9f9f9;stroke-width:0.264583"
     d="m 13.856433,82.02695 -0.0029,-1.763714 c 0,-0.02328 -0.01455,-0.03784 -0.03784,-0.03784 h -0.264848 c -0.02328,0 -0.03783,0.01455 -0.03783,0.03784 l -0.0058,2.060577 c 0,0.02328 0.01455,0.03784 0.03784,0.03784 h 0.910962 c 0.02328,0 0.03783,-0.01455 0.03783,-0.03784 v -0.259027 c 0,-0.02328 -0.01455,-0.03784 -0.03783,-0.03784 z m 2.080679,-1.763714 c 0,-0.02328 -0.01455,-0.03784 -0.03784,-0.03784 h -0.908051 c -0.02328,0 -0.03784,0.01455 -0.03784,0.03784 l 0.0029,2.060577 c 0,0.02328 0.01455,0.03784 0.03783,0.03784 h 0.905141 c 0.02328,0 0.03784,-0.01455 0.03784,-0.03784 v -0.256117 c 0,-0.02328 -0.01455,-0.03784 -0.03784,-0.03784 l -0.599547,-0.0029 v -0.567532 h 0.430742 c 0.02328,0 0.03784,-0.01455 0.03784,-0.03784 v -0.256117 c 0,-0.02328 -0.01455,-0.03784 -0.03784,-0.03784 H 15.29973 v -0.570443 h 0.599547 c 0.02328,0 0.03784,-0.01455 0.03784,-0.03784 z m 1.163899,1.673491 c 0,0.04657 -0.04075,0.09022 -0.08731,0.09022 H 16.74303 v -1.466851 h 0.270669 c 0.04657,0 0.08731,0.04075 0.08731,0.09022 z m -0.681038,-1.708416 c -0.01164,0 -0.02037,0.0087 -0.02037,0.01746 v 2.089682 c 0,0.01164 0.0087,0.02037 0.02037,0.02037 h 0.01746 c 0.215371,0.0029 0.427831,0.0058 0.643203,0.0058 0.215371,0 0.363802,-0.171715 0.363802,-0.355072 v -1.426105 c 0,-0.183357 -0.148431,-0.355072 -0.363802,-0.355072 -0.215372,0 -0.427832,0.0029 -0.643203,0.0029 z m 3.483236,0.03493 c 0,-0.02328 -0.01455,-0.03784 -0.03784,-0.03784 h -0.267758 c -0.02328,0 -0.03784,0.01455 -0.03784,0.03784 v 1.184541 H 19.21926 l 0.168804,-1.17872 c 0.0029,-0.02619 -0.01164,-0.04366 -0.03784,-0.04366 H 19.07956 c -0.01746,0 -0.03493,0.01164 -0.03784,0.03202 l -0.206639,1.478493 c -0.0029,0.02619 0.01164,0.04366 0.03784,0.04366 h 0.686859 l -0.0029,0.544248 c 0,0.02328 0.01455,0.03784 0.03784,0.03784 h 0.270669 c 0.02328,0 0.03784,-0.01455 0.03784,-0.03784 l 0.0029,-0.544248 h 0.03493 c 0.02037,0 0.03492,-0.01455 0.03492,-0.03493 v -0.261938 c 0,-0.02037 -0.01455,-0.03493 -0.03492,-0.03493 h -0.03493 z"
     id="text10"
     aria-label="LED 4" /><path
     style="font-size:2.82222px;line-height:1.8;font-family:'Autogate Sans';-inkscape-font-specification:'Autogate Sans';fill:#4d4d4d;stroke-width:0.265"
     d="m 26.117338,16.299869 c 0,-0.02258 -0.01411,-0.03669 -0.03669,-0.03669 h -0.880533 c -0.02258,0 -0.03669,0.01411 -0.03669,0.03669 l 0.0028,1.998132 c 0,0.02258 0.01411,0.03669 0.03669,0.03669 h 0.877711 c 0.02258,0 0.03669,-0.01411 0.03669,-0.03669 v -0.248355 c 0,-0.02258 -0.01411,-0.03669 -0.03669,-0.03669 l -0.581377,-0.0028 v -0.550333 h 0.417688 c 0.02258,0 0.03669,-0.01411 0.03669,-0.03669 v -0.248355 c 0,-0.02258 -0.01411,-0.03669 -0.03669,-0.03669 h -0.417688 v -0.553155 h 0.581377 c 0.02258,0 0.03669,-0.01411 0.03669,-0.03669 z m 0.812796,0.603956 -0.268111,-0.618067 c -0.0056,-0.01411 -0.01693,-0.02258 -0.03387,-0.02258 h -0.296333 c -0.01411,0 -0.01975,0.0085 -0.01129,0.01975 l 0.0085,0.02258 c 0.141111,0.333022 0.287866,0.663222 0.428977,0.993421 l -0.426155,0.984955 c -0.01411,0.03104 0,0.0508 0.03387,0.0508 h 0.259644 c 0.01411,0 0.0254,-0.0085 0.03104,-0.02258 l 0.273756,-0.620888 0.270933,0.620888 c 0.0056,0.01411 0.01693,0.02258 0.03387,0.02258 h 0.265289 c 0.03387,0 0.04798,-0.01975 0.03387,-0.0508 l -0.426155,-0.984955 0.426155,-0.984954 c 0.01411,-0.03104 0,-0.0508 -0.03387,-0.0508 h -0.262466 c -0.01411,0 -0.0254,0.0085 -0.03105,0.02258 z m 0.804328,-0.640644 c -0.02258,0 -0.03669,0.01411 -0.03669,0.03669 l -0.0028,1.998132 c 0,0.02258 0.01411,0.03669 0.03669,0.03669 h 0.265289 c 0.02258,0 0.03669,-0.01411 0.03669,-0.03669 v -0.680155 h 0.293511 c 0.259645,0 0.386644,-0.166511 0.386644,-0.383822 v -0.629355 c 0,-0.1778 -0.141111,-0.341488 -0.349955,-0.341488 z m 0.564444,0.324555 c 0.04233,0 0.08184,0.03951 0.08184,0.08467 v 0.5334 c 0,0.04798 -0.03951,0.08749 -0.08184,0.08749 h -0.265289 v -0.705555 z m 1.264353,-0.324555 h -0.629355 c -0.02258,0 -0.03669,0.01411 -0.03669,0.03669 l 0.0028,1.998132 c 0,0.02258 0.01411,0.03669 0.03669,0.03669 h 0.259645 c 0.02258,0 0.03669,-0.01411 0.03669,-0.03669 v -0.682977 h 0.118534 l 0.251177,0.694266 c 0.0056,0.01693 0.01976,0.0254 0.03387,0.0254 h 0.248355 c 0.03104,0 0.04516,-0.01975 0.03387,-0.04798 l -0.234244,-0.694266 c 0.169333,-0.05644 0.228599,-0.211666 0.228599,-0.358422 v -0.629355 c 0,-0.1778 -0.141111,-0.341488 -0.349955,-0.341488 z m -0.06491,0.324555 c 0.04233,0 0.08184,0.03669 0.08184,0.08467 v 0.530578 c 0,0.04798 -0.03669,0.08749 -0.08184,0.08749 h -0.265289 v -0.702733 z"
     id="text12"
     aria-label="expr" /></g>&#10;  <g
   inkscape:groupmode="layer"
   id="layer2-0"
   inkscape:label="components"
   style="display:inline">&#10;    &#10;    &#10;    &#10;    &#10;    &#10;    &#10;    &#10;    &#10;    &#10;    &#10;    &#10;    &#10;    &#10;    &#10;    &#10;    &#10;    &#10;    &#10;    &#10;    &#10;    &#10;    &#10;    &#10;    &#10;    &#10;    &#10;    &#10;    &#10;  <circle
   style="display:inline;fill:#00ff00;fill-opacity:1;stroke-width:0.313059"
   id="circle1"
   cx="8.6357183"
   cy="104.35894"
   inkscape:label="in_kg"
   r="4" /><circle
   style="display:inline;fill:#0000ff;fill-opacity:1;stroke-width:0.313059"
   id="circle39"
   cx="25.410297"
   cy="104.35895"
   inkscape:label="out_lights"
   r="4" /><circle
   style="display:inline;fill:#00ff00;fill-opacity:1;stroke-width:0.313059"
   id="circle11"
   cx="16.67465"
   cy="74.45195"
   inkscape:label="in4_lights"
   r="4" /><circle
   style="display:inline;fill:#00ff00;fill-opacity:1;stroke-width:0.313059"
   id="circle9"
   cx="16.67465"
   cy="59.635269"
   inkscape:label="in3_lights"
   r="4" /><circle
   style="display:inline;fill:#00ff00;fill-opacity:1;stroke-width:0.313059"
   id="circle7"
   cx="16.67465"
   cy="44.289421"
   inkscape:label="in2_lights"
   r="4" /><circle
   style="display:inline;fill:#00ff00;fill-opacity:1;stroke-width:0.313059"
   id="circle36"
   cx="16.67465"
   cy="28.943575"
   inkscape:label="in1_lights"
   r="4" /></g>&#10;</svg>
