<?xml version="1.0" encoding="UTF-8" standalone="no"?>
<!-- Created with Inkscape (http://www.inkscape.org/) -->

<svg
   width="40.639999mm"
   height="128.5mm"
   viewBox="0 0 40.639998 128.5"
   version="1.1"
   id="svg1"
   inkscape:version="1.3 (0e150ed, 2023-07-21)"
   sodipodi:docname="EOctave.svg"
   xml:space="preserve"
   xmlns:inkscape="http://www.inkscape.org/namespaces/inkscape"
   xmlns:sodipodi="http://sodipodi.sourceforge.net/DTD/sodipodi-0.dtd"
   xmlns="http://www.w3.org/2000/svg"
   xmlns:svg="http://www.w3.org/2000/svg"><sodipodi:namedview
   id="namedview1"
   pagecolor="#ffffff"
   bordercolor="#000000"
   borderopacity="0.25"
   inkscape:showpageshadow="2"
   inkscape:pageopacity="0.0"
   inkscape:pagecheckerboard="0"
   inkscape:deskcolor="#d1d1d1"
   inkscape:document-units="mm"
   showgrid="true"
   inkscape:zoom="1"
   inkscape:cx="110.5"
   inkscape:cy="286"
   inkscape:window-width="1664"
   inkscape:window-height="1127"
   inkscape:window-x="1040"
   inkscape:window-y="171"
   inkscape:window-maximized="0"
   inkscape:current-layer="g42"
   showguides="true"><inkscape:grid
     id="grid120"
     units="mm"
     originx="0"
     originy="0"
     spacingx="1.016"
     spacingy="1.5"
     empcolor="#0099e5"
     empopacity="0.30196078"
     color="#0099e5"
     opacity="0.14901961"
     empspacing="5"
     dotted="false"
     gridanglex="30"
     gridanglez="30"
     visible="true" /><sodipodi:guide
     position="84.092136,116.5"
     orientation="0,-1"
     id="guide258"
     inkscape:locked="false" /><sodipodi:guide
     position="9.789583,-8.0249997"
     orientation="1,0"
     id="guide1"
     inkscape:locked="false" /><sodipodi:guide
     position="20.372916,106.80416"
     orientation="1,0"
     id="guide2"
     inkscape:locked="false" /></sodipodi:namedview>&#10;  <defs
   id="defs1">&#10;    <linearGradient
   id="Gradient_61"
   gradientUnits="userSpaceOnUse"
   x1="-424.043"
   y1="-4741.6309"
   x2="-405.228"
   y2="-4741.6309"
   gradientTransform="matrix(0.025,1,-1,0.025,-4534.645,592.311)">&#10;      <stop
   offset="0"
   stop-color="#777676"
   id="stop121" />&#10;      <stop
   offset="1"
   stop-color="#575757"
   id="stop122" />&#10;    </linearGradient>&#10;    <linearGradient
   id="Gradient_62"
   gradientUnits="userSpaceOnUse"
   x1="-423.578"
   y1="-4741.6309"
   x2="-405.69299"
   y2="-4741.6309"
   gradientTransform="matrix(0.025,1,-1,0.025,-4534.645,592.311)">&#10;      <stop
   offset="0.006"
   stop-color="#FFFFFF"
   id="stop123" />&#10;      <stop
   offset="1"
   stop-color="#454545"
   id="stop124" />&#10;    </linearGradient>&#10;    <linearGradient
   id="Gradient_63"
   gradientUnits="userSpaceOnUse"
   x1="-7828.9722"
   y1="4203.397"
   x2="-7814.8091"
   y2="4203.397"
   gradientTransform="matrix(-0.025,-1,1,-0.025,-4202.945,-7655.114)">&#10;      <stop
   offset="0.006"
   stop-color="#FFFFFF"
   id="stop125" />&#10;      <stop
   offset="1"
   stop-color="#454545"
   id="stop126" />&#10;    </linearGradient>&#10;    <linearGradient
   id="Gradient_64"
   gradientUnits="userSpaceOnUse"
   x1="-8480.584"
   y1="3795.7019"
   x2="-8480.584"
   y2="3807.8259"
   gradientTransform="matrix(-1,0.025,0.025,1,-8378.065,-3529.085)">&#10;      <stop
   offset="0"
   stop-color="#FFFEFE"
   id="stop127" />&#10;      <stop
   offset="1"
   stop-color="#5E5E5E"
   id="stop128" />&#10;    </linearGradient>&#10;    <linearGradient
   id="Gradient_65"
   gradientUnits="userSpaceOnUse"
   x1="-8480.584"
   y1="3806.3679"
   x2="-8480.584"
   y2="3797.1599"
   gradientTransform="matrix(-1,0.025,0.025,1,-8378.065,-3529.085)">&#10;      <stop
   offset="0"
   stop-color="#FFFEFE"
   id="stop129" />&#10;      <stop
   offset="1"
   stop-color="#383636"
   id="stop130" />&#10;    </linearGradient>&#10;  &#10;        &#10;        &#10;      </defs>&#10;  <g
   inkscape:groupmode="layer"
   id="layer5"
   inkscape:label="WHITE PANEL "
   style="display:inline"
   sodipodi:insensitive="true">&#10;    <path
   id="rect1"
   style="fill:#ffffff;stroke-width:0.174659"
   d="m 1e-6,0.52497211 c 0,42.65834189 0,85.31668389 0,127.97502789 13.546667,0 27.093334,0 40.64,0 0,-42.833336 0,-85.666667 0,-128.5 -13.546666,0 -27.093333,0 -40.64,0 0,0.17499071 0,0.3499814 0,0.52497211 z" />&#10;  </g>&#10;  <g
   inkscape:groupmode="layer"
   id="layer2"
   inkscape:label="LOGO"
   style="display:inline">&#10;    &#10;  <g
   id="g3"
   transform="translate(15.917397,-0.03453676)"
   style="display:inline"
   inkscape:label="SMALL LOGO"
   sodipodi:insensitive="true"><path
     d="m 7.1818831,120.39429 -3.1132681,-0.005 H 2.0435844 v 5.13355 H 3.071234 v -1.02291 l 1.0342085,0.005 -0.00653,1.0229 H 5.126562 l 0.00656,-1.0229 1.0276495,3.5e-4 -0.00653,1.02255 H 7.181891 Z"
     fill="#cf0000"
     id="path1-6"
     style="stroke-width:0.0255215" /><path
     d="m 6.1542336,119.36664 -3.1132682,-0.005 h -2.025056 v 5.13355 h 1.027675 v -4.1059 l 1.0276496,0.005 v 4.10587 h 1.027675 v -4.10587 l 1.0327028,-0.005 -0.00505,4.11064 h 1.0276751 z"
     fill="#4c4c4c"
     id="path2-5"
     style="stroke-width:0.0255215" /></g></g>&#10;  <g
   inkscape:label="BLOCKS"
   inkscape:groupmode="layer"
   id="layer1"
   style="display:inline">&#10;    &#10;    &#10;    <path
   d="m 23.547922,99.875722 11.133665,-8.8e-4 c 0.292365,-2.3e-5 0.529167,0.236798 0.529167,0.529158 v 13.92934 c 0,0.29236 -0.236802,0.52916 -0.529167,0.52916 H 23.547922 c -0.2921,0 -0.529167,-0.2368 -0.529167,-0.52916 v -13.92846 c 0,-0.29236 0.237067,-0.529135 0.529167,-0.529158 z"
   fill="#000000"
   fill-opacity="0.7"
   id="path14"
   style="stroke-width:0.264583"
   sodipodi:nodetypes="sssssssss" />&#10;    &#10;    &#10;    &#10;    &#10;    &#10;    &#10;    &#10;    &#10;    &#10;    &#10;  </g>&#10;  <g
   inkscape:groupmode="layer"
   id="layer6"
   inkscape:label="Brackets"
   style="display:inline" /><g
   inkscape:groupmode="layer"
   id="g42"
   inkscape:label="TEXT - convert"
   style="display:inline"><path
     style="font-size:6.12552px;line-height:1.8;font-family:'Autogate Sans';-inkscape-font-specification:'Autogate Sans';text-align:center;letter-spacing:0.556864px;text-anchor:middle;fill:#d40000;stroke-width:0.556864"
     d="m 12.197979,9 h 0.483916 c 0.624803,0 0.918828,-0.4961671 0.918828,-0.9862088 V 5.4839514 c 0,-0.4839161 -0.294025,-0.9800832 -0.918828,-0.9800832 h -0.483916 c -0.618677,0 -0.924953,0.4961671 -0.924953,0.9800832 V 8.0137912 C 11.273026,8.5038329 11.579302,9 12.197979,9 Z M 12.001963,5.6493404 c 0,-0.306276 0.110259,-0.4410374 0.434911,-0.4410374 0.385908,0 0.441038,0.073506 0.441038,0.4410374 v 2.2051873 c 0,0.3675312 -0.05513,0.4410375 -0.441038,0.4410375 -0.324652,0 -0.434911,-0.140887 -0.434911,-0.4410375 z m 4.942724,2.3644508 V 7.4502434 c 0,-0.049004 -0.03063,-0.079632 -0.07963,-0.079632 H 16.27088 c -0.0245,0 -0.03675,0.012251 -0.03675,0.036753 v 0.036753 c -0.0061,0.1041338 -0.0061,0.2878994 -0.03675,0.4655395 -0.03063,0.1837656 -0.09188,0.306276 -0.171514,0.3491547 -0.0061,0 -0.0061,0 -0.01225,0 -0.05513,0.030628 -0.134762,0.036753 -0.23277,0.036753 -0.324652,0 -0.434912,-0.140887 -0.434912,-0.4410375 V 5.6493404 c 0,-0.306276 0.11026,-0.4410374 0.434912,-0.4410374 0.09801,0 0.17764,0.00613 0.23277,0.036753 0.0061,0 0.0061,0 0.01225,0 0.07963,0.042879 0.134761,0.1776401 0.165389,0.3614057 0.03063,0.1776401 0.03063,0.3675312 0.03063,0.4655395 v 0.036753 c 0,0.024502 0.01225,0.036753 0.03675,0.036753 l 0.606426,-0.012251 c 0.049,0 0.07963,-0.030628 0.07963,-0.079632 V 5.4839514 c 0,-0.4839161 -0.294025,-0.9800832 -0.918828,-0.9800832 h -0.483916 c -0.618678,0 -0.924954,0.4961671 -0.924954,0.9800832 V 8.0137912 C 14.616989,8.5038329 14.923265,9 15.541943,9 h 0.483916 c 0.624803,0 0.918828,-0.4961671 0.918828,-0.9862088 z m 3.392977,-3.4302913 c 0,-0.049004 -0.03063,-0.079632 -0.07963,-0.079632 h -2.339949 c -0.049,0 -0.07963,0.030628 -0.07963,0.079632 v 0.5512968 c 0,0.049004 0.03063,0.079632 0.07963,0.079632 l 0.808569,-0.012251 V 8.9203682 C 18.726652,8.9693724 18.75728,9 18.806284,9 h 0.569673 c 0.049,0 0.07963,-0.030628 0.07963,-0.079632 V 5.2021775 h 0.802443 c 0.049,0 0.07963,-0.030628 0.07963,-0.079632 z m 1.732941,1.7273967 0.208268,1.0045853 h -0.428787 z m 1.225104,2.6829779 c 0.06126,0 0.09188,-0.036753 0.07963,-0.098008 L 22.425885,4.5589978 c -0.0061,-0.036753 -0.03675,-0.061255 -0.07351,-0.061255 h -0.557422 c -0.03675,0 -0.06738,0.024502 -0.07351,0.061255 l -0.955582,4.3368684 c -0.01225,0.061255 0.01838,0.098008 0.07963,0.098008 h 0.58805 c 0.04288,0 0.07351,-0.024502 0.07963,-0.061255 l 0.183765,-0.9127025 h 0.747314 l 0.183766,0.9127025 c 0.0061,0.036753 0.03675,0.061255 0.07963,0.061255 z m 0.562975,-4.4900063 c -0.06126,0 -0.09188,0.036753 -0.07963,0.098008 l 0.949455,4.3368683 C 24.734633,8.9754979 24.765261,9 24.802014,9 h 0.557422 c 0.03675,0 0.06738,-0.024502 0.07351,-0.061255 l 0.955581,-4.3368683 c 0.01225,-0.061255 -0.01838,-0.098008 -0.07963,-0.098008 h -0.630929 c -0.01838,0 -0.03063,0.012251 -0.03675,0.024502 l -0.0061,0.030628 C 25.46357,5.4349472 25.273679,6.3108966 25.083788,7.1807205 24.893897,6.3108966 24.704005,5.4349472 24.52024,4.5589978 l -0.0061,-0.030628 c -0.0061,-0.012251 -0.01838,-0.024502 -0.03675,-0.024502 z m 5.500158,0.079632 c 0,-0.049004 -0.03063,-0.079632 -0.07963,-0.079632 h -1.911162 c -0.04901,0 -0.07963,0.030628 -0.07963,0.079632 l 0.0061,4.3368683 C 27.294541,8.9693724 27.325169,9 27.374173,9 h 1.905037 c 0.049,0 0.07963,-0.030628 0.07963,-0.079632 V 8.3813225 c 0,-0.049004 -0.03063,-0.079632 -0.07963,-0.079632 l -1.261857,-0.00613 V 7.1010887 h 0.906577 c 0.049,0 0.07963,-0.030628 0.07963,-0.079632 V 6.4824112 c 0,-0.049004 -0.03063,-0.079632 -0.07963,-0.079632 H 28.017353 V 5.2021775 h 1.261857 c 0.049,0 0.07963,-0.030628 0.07963,-0.079632 z"
     id="text32"
     inkscape:label="title"
     aria-label="Octave" /><path
     style="font-size:2.91042px;line-height:1.8;font-family:'Autogate Sans';-inkscape-font-specification:'Autogate Sans';text-align:center;letter-spacing:0.264583px;text-anchor:middle;fill:#f9f9f9;stroke-width:0.264583"
     d="m 27.326732,113.58242 h 0.229923 c 0.296863,0 0.436563,-0.23574 0.436563,-0.46858 v -1.202 c 0,-0.22992 -0.1397,-0.46567 -0.436563,-0.46567 h -0.229923 c -0.293952,0 -0.439473,0.23575 -0.439473,0.46567 v 1.202 c 0,0.23284 0.145521,0.46858 0.439473,0.46858 z m -0.09313,-1.592 c 0,-0.14552 0.05239,-0.20955 0.20664,-0.20955 0.183356,0 0.20955,0.0349 0.20955,0.20955 v 1.04775 c 0,0.17463 -0.02619,0.20955 -0.20955,0.20955 -0.154253,0 -0.20664,-0.0669 -0.20664,-0.20955 z m 2.298962,1.12342 0.0029,-1.62983 c 0,-0.0233 -0.01455,-0.0378 -0.03784,-0.0378 h -0.270669 c -0.02328,0 -0.03783,0.0145 -0.03783,0.0378 v 1.55416 c 0,0.17463 -0.02619,0.20955 -0.209551,0.20955 -0.154252,0 -0.206639,-0.0669 -0.206639,-0.20955 l 0.0029,-1.55416 c 0,-0.0233 -0.01455,-0.0378 -0.03784,-0.0378 h -0.270669 c -0.02328,0 -0.03784,0.0145 -0.03784,0.0378 l -0.0029,1.62983 c 0,0.22993 0.14261,0.46858 0.436563,0.46858 h 0.232833 c 0.293953,0 0.436563,-0.23865 0.436563,-0.46858 z m 1.693595,-1.62983 c 0,-0.0233 -0.01455,-0.0378 -0.03784,-0.0378 H 30.07654 c -0.02328,0 -0.03784,0.0145 -0.03784,0.0378 v 0.26194 c 0,0.0233 0.01455,0.0378 0.03784,0.0378 l 0.384176,-0.006 v 1.76662 c 0,0.0233 0.01455,0.0378 0.03783,0.0378 h 0.270669 c 0.02328,0 0.03784,-0.0145 0.03784,-0.0378 v -1.76662 h 0.381265 c 0.02328,0 0.03784,-0.0145 0.03784,-0.0378 z"
     id="text35"
     aria-label="OUT" /><path
     style="font-size:2.91042px;line-height:1.8;font-family:'Autogate Sans';-inkscape-font-specification:'Autogate Sans';text-align:center;letter-spacing:0.264583px;text-anchor:middle;fill:#4c4c4c;stroke-width:0.264583"
     d="m 9.253454,111.57429 c 0,-0.0233 -0.014552,-0.0378 -0.037835,-0.0378 H 8.9391286 c -0.023283,0 -0.037835,0.0145 -0.037835,0.0378 v 2.06057 c 0,0.0233 0.014552,0.0378 0.037835,0.0378 h 0.2764899 c 0.023283,0 0.037835,-0.0145 0.037835,-0.0378 z m 0.829199,-0.0146 c -0.0058,-0.0145 -0.01746,-0.0233 -0.03493,-0.0233 H 9.7828795 c -0.023283,0 -0.037835,0.0145 -0.037835,0.0378 l 0.00291,2.06057 c 0,0.0233 0.014552,0.0378 0.037835,0.0378 H 10.06228 c 0.02328,0 0.03784,-0.0145 0.03784,-0.0378 l -0.0058,-1.202 0.512234,1.21656 c 0.0058,0.0145 0.01746,0.0233 0.03492,0.0233 h 0.259028 c 0.02328,0 0.03784,-0.0145 0.03784,-0.0378 v -2.06057 c 0,-0.0233 -0.01455,-0.0378 -0.03784,-0.0378 h -0.270669 c -0.02328,0 -0.03784,0.0145 -0.03784,0.0378 l 0.0029,1.202 z"
     id="text41"
     aria-label="IN" /><path
     style="font-size:2.91042px;line-height:1.8;font-family:'Autogate Sans';-inkscape-font-specification:'Autogate Sans';text-align:center;letter-spacing:0.264583px;text-anchor:middle;fill:#4c4c4c;stroke-width:0.264583"
     d="m 16.41975,80.445839 h 0.229924 c 0.296862,0 0.436563,-0.235744 0.436563,-0.468578 v -1.202003 c 0,-0.229923 -0.139701,-0.465667 -0.436563,-0.465667 H 16.41975 c -0.293952,0 -0.439473,0.235744 -0.439473,0.465667 v 1.202003 c 0,0.232834 0.145521,0.468578 0.439473,0.468578 z m -0.09313,-1.592 c 0,-0.145521 0.05239,-0.20955 0.20664,-0.20955 0.183356,0 0.20955,0.03493 0.20955,0.20955 v 1.047751 c 0,0.174626 -0.02619,0.209551 -0.20955,0.209551 -0.154252,0 -0.20664,-0.06694 -0.20664,-0.209551 z m 1.524788,1.592 c 0.02328,0 0.03784,-0.01455 0.03784,-0.03784 v -0.864394 h 0.430742 c 0.02328,0 0.03784,-0.01455 0.03784,-0.03784 v -0.256117 c 0,-0.02328 -0.01455,-0.03784 -0.03784,-0.03784 h -0.430742 v -0.570442 l 0.599546,0.0058 c 0.02328,0 0.03784,-0.01455 0.03784,-0.03784 v -0.261938 c 0,-0.02328 -0.01455,-0.03784 -0.03784,-0.03784 h -0.910961 c -0.02328,0 -0.03784,0.01455 -0.03784,0.03784 l 0.0029,2.060577 c 0,0.02328 0.01455,0.03784 0.03784,0.03784 z m 1.472399,0 c 0.02328,0 0.03784,-0.01455 0.03784,-0.03784 v -0.864394 h 0.430742 c 0.02328,0 0.03784,-0.01455 0.03784,-0.03784 v -0.256117 c 0,-0.02328 -0.01455,-0.03784 -0.03784,-0.03784 H 19.36164 v -0.570442 l 0.599546,0.0058 c 0.02328,0 0.03784,-0.01455 0.03784,-0.03784 v -0.261938 c 0,-0.02328 -0.01455,-0.03784 -0.03784,-0.03784 h -0.910961 c -0.02328,0 -0.03784,0.01455 -0.03784,0.03784 l 0.0029,2.060577 c 0,0.02328 0.01455,0.03784 0.03784,0.03784 z m 1.44621,-0.544249 v -0.192087 c 0,-0.02328 -0.01455,-0.03784 -0.03784,-0.03784 H 20.46442 c -0.02328,0 -0.03784,0.01455 -0.03784,0.03784 v 0.267758 c 0,0.244476 0.197909,0.471488 0.48022,0.471488 h 0.189177 c 0.261938,0 0.439473,-0.206639 0.439473,-0.427831 v -0.302684 c 0,-0.09313 -0.05239,-0.180446 -0.101864,-0.244475 l -0.01455,-0.02037 c 0,0 -0.0029,-0.0029 -0.0029,-0.0029 l -0.01164,-0.01164 c -0.0029,-0.0029 -0.0029,-0.0029 -0.0058,-0.0058 l -0.599546,-0.436563 -0.01455,-0.02619 c -0.0058,-0.01746 -0.01164,-0.0291 -0.01164,-0.04075 0,-0.0029 0,-0.0029 0,-0.0058 -0.0058,-0.04075 -0.0029,-0.07858 -0.0029,-0.119327 0,-0.160073 0.02328,-0.171715 0.21246,-0.171715 0.04948,0 0.09022,0.0029 0.119328,0.02037 0.03784,0.02328 0.06403,0.08731 0.07567,0.171715 0.01455,0.08149 0.01455,0.165894 0.01455,0.215371 v 0.01455 c 0,0.01164 0.0058,0.01746 0.01746,0.01746 h 0.288132 c 0.02328,0 0.03784,-0.01455 0.03784,-0.03784 v -0.267758 c 0,-0.247386 -0.197908,-0.468578 -0.480219,-0.468578 h -0.189177 c -0.256117,0 -0.439474,0.200819 -0.439474,0.424921 v 0.227013 c 0,0.09022 0.05239,0.180446 0.101865,0.244475 l 0.01455,0.01746 c 0,0.0029 0.0029,0.0058 0.0058,0.0087 l 0.01164,0.0087 0.605367,0.439474 0.01164,0.02619 c 0.0058,0.01746 0.01164,0.03493 0.01164,0.04657 0,0.0029 0,0.0029 0,0.0058 0.0087,0.05239 0.0029,0.107686 0.0029,0.162984 0,0.04366 0,0.07858 -0.0029,0.110596 -0.0058,0.02619 -0.01164,0.04366 -0.02037,0.0553 -0.01746,0.02037 -0.0553,0.03493 -0.165894,0.03493 h -0.02328 c -0.183356,-0.0029 -0.20955,-0.03202 -0.20955,-0.209551 z m 2.249485,-1.554164 c 0,-0.02328 -0.01455,-0.03784 -0.03784,-0.03784 h -0.908051 c -0.02328,0 -0.03784,0.01455 -0.03784,0.03784 l 0.0029,2.060577 c 0,0.02328 0.01455,0.03784 0.03784,0.03784 h 0.905141 c 0.02328,0 0.03784,-0.01455 0.03784,-0.03784 v -0.256116 c 0,-0.02328 -0.01455,-0.03784 -0.03784,-0.03784 l -0.599547,-0.0029 v -0.567532 h 0.430743 c 0.02328,0 0.03784,-0.01455 0.03784,-0.03784 v -0.256117 c 0,-0.02328 -0.01455,-0.03784 -0.03784,-0.03784 h -0.430743 v -0.570442 h 0.599547 c 0.02328,0 0.03784,-0.01455 0.03784,-0.03784 z m 1.65285,0 c 0,-0.02328 -0.01455,-0.03784 -0.03784,-0.03784 h -1.11178 c -0.02328,0 -0.03784,0.01455 -0.03784,0.03784 v 0.261938 c 0,0.02328 0.01455,0.03784 0.03784,0.03784 l 0.384175,-0.0058 v 1.766624 c 0,0.02328 0.01455,0.03784 0.03784,0.03784 h 0.270669 c 0.02328,0 0.03784,-0.01455 0.03784,-0.03784 v -1.766624 h 0.381265 c 0.02328,0 0.03784,-0.01455 0.03784,-0.03784 z"
     id="text42"
     aria-label="OFFSET" /><path
     style="font-size:2.91042px;line-height:1.8;font-family:'Autogate Sans';-inkscape-font-specification:'Autogate Sans';text-align:center;letter-spacing:0.264583px;text-anchor:middle;fill:#4c4c4c;stroke-width:0.264583"
     d="m 8.4881469,93.582633 c 0,-0.02328 -0.014552,-0.03784 -0.037835,-0.03784 H 8.1738216 c -0.023283,0 -0.037835,0.01455 -0.037835,0.03784 v 2.060577 c 0,0.02328 0.014552,0.03784 0.037835,0.03784 h 0.2764899 c 0.023283,0 0.037835,-0.01455 0.037835,-0.03784 z m 0.8291988,-0.01455 c -0.00582,-0.01455 -0.017463,-0.02328 -0.034925,-0.02328 H 9.0175724 c -0.023283,0 -0.037835,0.01455 -0.037835,0.03784 l 0.00291,2.060577 c 0,0.02328 0.014552,0.03784 0.037835,0.03784 h 0.2764899 c 0.023283,0 0.037835,-0.01455 0.037835,-0.03784 l -0.00582,-1.202003 0.5122339,1.216555 c 0.00582,0.01455 0.017462,0.02328 0.034925,0.02328 h 0.2590277 c 0.02328,0 0.03784,-0.01455 0.03784,-0.03784 v -2.060577 c 0,-0.02328 -0.01455,-0.03784 -0.03784,-0.03784 H 9.8645047 c -0.023283,0 -0.037835,0.01455 -0.037835,0.03784 l 0.00291,1.202003 z m 2.4619483,1.644387 v -0.267759 c 0,-0.02328 -0.01455,-0.03784 -0.03784,-0.03784 h -0.282311 c -0.01164,0 -0.01746,0.0058 -0.01746,0.01746 v 0.01746 c -0.0029,0.04948 -0.0029,0.13679 -0.01746,0.221192 -0.01455,0.08731 -0.04366,0.145521 -0.08149,0.165894 -0.0029,0 -0.0029,0 -0.0058,0 -0.02619,0.01455 -0.06403,0.01746 -0.110596,0.01746 -0.154253,0 -0.20664,-0.06694 -0.20664,-0.20955 v -1.047751 c 0,-0.145521 0.05239,-0.20955 0.20664,-0.20955 0.04657,0 0.0844,0.0029 0.110596,0.01746 0.0029,0 0.0029,0 0.0058,0 0.03783,0.02037 0.06403,0.0844 0.07858,0.171715 0.01455,0.0844 0.01455,0.174625 0.01455,0.221192 v 0.01746 c 0,0.01164 0.0058,0.01746 0.01746,0.01746 l 0.288132,-0.0058 c 0.02328,0 0.03784,-0.01455 0.03784,-0.03784 v -0.27067 c 0,-0.229923 -0.139701,-0.465667 -0.436563,-0.465667 h -0.229924 c -0.293952,0 -0.439473,0.235744 -0.439473,0.465667 v 1.202004 c 0,0.232834 0.145521,0.468578 0.439473,0.468578 h 0.229924 c 0.296862,0 0.436563,-0.235744 0.436563,-0.468578 z"
     id="text10"
     aria-label="Inc" /><path
     style="font-size:2.91042px;line-height:1.8;font-family:'Autogate Sans';-inkscape-font-specification:'Autogate Sans';text-align:center;letter-spacing:0.264583px;text-anchor:middle;fill:#4c4c4c;stroke-width:0.264583"
     d="m 27.648753,95.256124 c 0,0.04657 -0.04075,0.09022 -0.08731,0.09022 h -0.270669 v -1.466851 h 0.270669 c 0.04657,0 0.08731,0.04075 0.08731,0.09022 z m -0.681038,-1.708416 c -0.01164,0 -0.02037,0.0087 -0.02037,0.01746 v 2.089682 c 0,0.01164 0.0087,0.02037 0.02037,0.02037 h 0.01746 c 0.215371,0.0029 0.427832,0.0058 0.643203,0.0058 0.215371,0 0.363803,-0.171715 0.363803,-0.355072 v -1.426105 c 0,-0.183357 -0.148432,-0.355072 -0.363803,-0.355072 -0.215371,0 -0.427832,0.0029 -0.643203,0.0029 z m 2.499779,0.03493 c 0,-0.02328 -0.01455,-0.03784 -0.03783,-0.03784 h -0.908051 c -0.02328,0 -0.03784,0.01455 -0.03784,0.03784 l 0.0029,2.060577 c 0,0.02328 0.01455,0.03784 0.03784,0.03784 h 0.905141 c 0.02328,0 0.03783,-0.01455 0.03783,-0.03784 v -0.256117 c 0,-0.02328 -0.01455,-0.03783 -0.03783,-0.03783 l -0.599547,-0.0029 v -0.567532 h 0.430742 c 0.02328,0 0.03784,-0.01455 0.03784,-0.03784 v -0.256117 c 0,-0.02328 -0.01455,-0.03784 -0.03784,-0.03784 h -0.430742 v -0.570442 h 0.599547 c 0.02328,0 0.03783,-0.01455 0.03783,-0.03784 z m 1.600457,1.629835 v -0.267759 c 0,-0.02328 -0.01455,-0.03784 -0.03784,-0.03784 h -0.282311 c -0.01164,0 -0.01746,0.0058 -0.01746,0.01746 v 0.01746 c -0.0029,0.04948 -0.0029,0.13679 -0.01746,0.221192 -0.01455,0.08731 -0.04366,0.145521 -0.08149,0.165894 -0.0029,0 -0.0029,0 -0.0058,0 -0.02619,0.01455 -0.06403,0.01746 -0.110596,0.01746 -0.154253,0 -0.20664,-0.06694 -0.20664,-0.20955 v -1.047751 c 0,-0.145521 0.05239,-0.20955 0.20664,-0.20955 0.04657,0 0.0844,0.0029 0.110596,0.01746 0.0029,0 0.0029,0 0.0058,0 0.03784,0.02037 0.06403,0.0844 0.07858,0.171715 0.01455,0.0844 0.01455,0.174625 0.01455,0.221192 v 0.01746 c 0,0.01164 0.0058,0.01746 0.01746,0.01746 l 0.288132,-0.0058 c 0.02328,0 0.03784,-0.01455 0.03784,-0.03784 v -0.27067 c 0,-0.229923 -0.1397,-0.465667 -0.436563,-0.465667 h -0.229923 c -0.293952,0 -0.439473,0.235744 -0.439473,0.465667 v 1.202004 c 0,0.232834 0.145521,0.468578 0.439473,0.468578 h 0.229923 c 0.296863,0 0.436563,-0.235744 0.436563,-0.468578 z"
     id="text11"
     aria-label="Dec" /></g>&#10;  <g
   inkscape:groupmode="layer"
   id="layer2-0"
   inkscape:label="components"
   style="display:none">&#10;    &#10;    &#10;    &#10;    &#10;    &#10;    &#10;    &#10;    &#10;    &#10;    &#10;    &#10;    &#10;    &#10;    &#10;    &#10;    &#10;    &#10;    &#10;    &#10;    &#10;    &#10;    &#10;    &#10;    &#10;    &#10;    &#10;    &#10;    &#10;  <circle
   style="display:inline;fill:#ff0000;fill-opacity:1;stroke-width:0.313059"
   id="circle5"
   cx="20.268616"
   cy="72.175385"
   inkscape:label="p_offset"
   r="4" /><circle
   style="display:inline;fill:#0000ff;fill-opacity:1;stroke-width:0.313059"
   id="circle39"
   cx="29.114468"
   cy="105.41727"
   inkscape:label="out_out"
   r="4" /><circle
   style="display:inline;fill:#00ff00;fill-opacity:1;stroke-width:0.313059"
   id="circle12"
   cx="28.987274"
   cy="87.690178"
   inkscape:label="in_dec"
   r="4" /><circle
   style="display:inline;fill:#00ff00;fill-opacity:1;stroke-width:0.313059"
   id="circle11"
   cx="9.9372654"
   cy="87.690178"
   inkscape:label="in_inc"
   r="4" /><circle
   style="display:inline;fill:#00ff00;fill-opacity:1;stroke-width:0.313059"
   id="circle52"
   cx="9.9372654"
   cy="105.68185"
   inkscape:label="in_in"
   r="4" /><circle
   style="display:inline;fill:#ff00ff;fill-opacity:1;stroke-width:4.08699"
   id="circle1"
   cx="20.217585"
   cy="62.167141"
   inkscape:label="led_9"
   r="2" /><circle
   style="display:inline;fill:#ff00ff;fill-opacity:1;stroke-width:4.08699"
   id="circle2"
   cx="20.217585"
   cy="56.493294"
   inkscape:label="led_8"
   r="2" /><circle
   style="display:inline;fill:#ff00ff;fill-opacity:1;stroke-width:4.08699"
   id="circle3"
   cx="20.217585"
   cy="50.81945"
   inkscape:label="led_7"
   r="2" /><circle
   style="display:inline;fill:#ff00ff;fill-opacity:1;stroke-width:4.08699"
   id="circle4"
   cx="20.217585"
   cy="45.145603"
   inkscape:label="led_6"
   r="2" /><circle
   style="display:inline;fill:#ff00ff;fill-opacity:1;stroke-width:4.08699"
   id="circle6"
   cx="20.217585"
   cy="39.471756"
   inkscape:label="led_5"
   r="2" /><circle
   style="display:inline;fill:#ff00ff;fill-opacity:1;stroke-width:4.08699"
   id="circle7"
   cx="20.217585"
   cy="33.797909"
   inkscape:label="led_4"
   r="2" /><circle
   style="display:inline;fill:#ff00ff;fill-opacity:1;stroke-width:4.08699"
   id="circle8"
   cx="20.217585"
   cy="28.124063"
   inkscape:label="led_3"
   r="2" /><circle
   style="display:inline;fill:#ff00ff;fill-opacity:1;stroke-width:4.08699"
   id="circle9"
   cx="20.217585"
   cy="22.450218"
   inkscape:label="led_2"
   r="2" /><circle
   style="display:inline;fill:#ff00ff;fill-opacity:1;stroke-width:4.08699"
   id="circle10"
   cx="20.217585"
   cy="16.776371"
   inkscape:label="led_1"
   r="2" /></g>&#10;</svg>
