<?xml version="1.0" encoding="UTF-8" standalone="no"?>
<!-- Created with Inkscape (http://www.inkscape.org/) -->

<svg
   width="55.799999mm"
   height="128.5mm"
   viewBox="0 0 55.799998 128.5"
   version="1.1"
   id="svg1"
   inkscape:version="1.3 (0e150ed, 2023-07-21)"
   sodipodi:docname="EScaler.svg"
   xml:space="preserve"
   xmlns:inkscape="http://www.inkscape.org/namespaces/inkscape"
   xmlns:sodipodi="http://sodipodi.sourceforge.net/DTD/sodipodi-0.dtd"
   xmlns="http://www.w3.org/2000/svg"
   xmlns:svg="http://www.w3.org/2000/svg"><sodipodi:namedview
   id="namedview1"
   pagecolor="#ffffff"
   bordercolor="#000000"
   borderopacity="0.25"
   inkscape:showpageshadow="2"
   inkscape:pageopacity="0.0"
   inkscape:pagecheckerboard="0"
   inkscape:deskcolor="#d1d1d1"
   inkscape:document-units="mm"
   showgrid="true"
   inkscape:zoom="1.7659506"
   inkscape:cx="107.59078"
   inkscape:cy="270.39261"
   inkscape:window-width="2352"
   inkscape:window-height="1384"
   inkscape:window-x="0"
   inkscape:window-y="25"
   inkscape:window-maximized="0"
   inkscape:current-layer="layer2-0"
   showguides="false"><inkscape:grid
     id="grid120"
     units="mm"
     originx="0"
     originy="0"
     spacingx="1.016"
     spacingy="1.5"
     empcolor="#0099e5"
     empopacity="0.30196078"
     color="#0099e5"
     opacity="0.14901961"
     empspacing="5"
     dotted="false"
     gridanglex="30"
     gridanglez="30"
     visible="true" /><sodipodi:guide
     position="84.092142,116.5"
     orientation="0,-1"
     id="guide258"
     inkscape:locked="false" /><sodipodi:guide
     position="52.832001,-3.4999972"
     orientation="1,0"
     id="guide1"
     inkscape:locked="false" /><sodipodi:guide
     position="3.0480003,-3.5"
     orientation="1,0"
     id="guide2"
     inkscape:locked="false" /><sodipodi:guide
     position="64.008002,-10.999997"
     orientation="1,0"
     id="guide68"
     inkscape:locked="false" /><sodipodi:guide
     position="76.200002,-6.4999973"
     orientation="1,0"
     id="guide69"
     inkscape:locked="false" /><sodipodi:guide
     position="86.360002,-13.999997"
     orientation="1,0"
     id="guide70"
     inkscape:locked="false" /><sodipodi:guide
     position="-4.0640001,11.500003"
     orientation="0,-1"
     id="guide77"
     inkscape:locked="false" /><sodipodi:guide
     position="15.239999,-4.3083639"
     orientation="1,0"
     id="guide78"
     inkscape:locked="false" /><sodipodi:guide
     position="27.432001,-4.9999973"
     orientation="1,0"
     id="guide79"
     inkscape:locked="false" /><sodipodi:guide
     position="28.448001,-3.4999973"
     orientation="1,0"
     id="guide80"
     inkscape:locked="false" /><sodipodi:guide
     position="40.640001,-2.3455365"
     orientation="1,0"
     id="guide81"
     inkscape:locked="false" /></sodipodi:namedview>&#10;  <defs
   id="defs1">&#10;    <linearGradient
   id="Gradient_61"
   gradientUnits="userSpaceOnUse"
   x1="-424.043"
   y1="-4741.6309"
   x2="-405.228"
   y2="-4741.6309"
   gradientTransform="matrix(0.025,1,-1,0.025,-4534.645,592.311)">&#10;      <stop
   offset="0"
   stop-color="#777676"
   id="stop121" />&#10;      <stop
   offset="1"
   stop-color="#575757"
   id="stop122" />&#10;    </linearGradient>&#10;    <linearGradient
   id="Gradient_62"
   gradientUnits="userSpaceOnUse"
   x1="-423.578"
   y1="-4741.6309"
   x2="-405.69299"
   y2="-4741.6309"
   gradientTransform="matrix(0.025,1,-1,0.025,-4534.645,592.311)">&#10;      <stop
   offset="0.006"
   stop-color="#FFFFFF"
   id="stop123" />&#10;      <stop
   offset="1"
   stop-color="#454545"
   id="stop124" />&#10;    </linearGradient>&#10;    <linearGradient
   id="Gradient_63"
   gradientUnits="userSpaceOnUse"
   x1="-7828.9722"
   y1="4203.397"
   x2="-7814.8091"
   y2="4203.397"
   gradientTransform="matrix(-0.025,-1,1,-0.025,-4202.945,-7655.114)">&#10;      <stop
   offset="0.006"
   stop-color="#FFFFFF"
   id="stop125" />&#10;      <stop
   offset="1"
   stop-color="#454545"
   id="stop126" />&#10;    </linearGradient>&#10;    <linearGradient
   id="Gradient_64"
   gradientUnits="userSpaceOnUse"
   x1="-8480.584"
   y1="3795.7019"
   x2="-8480.584"
   y2="3807.8259"
   gradientTransform="matrix(-1,0.025,0.025,1,-8378.065,-3529.085)">&#10;      <stop
   offset="0"
   stop-color="#FFFEFE"
   id="stop127" />&#10;      <stop
   offset="1"
   stop-color="#5E5E5E"
   id="stop128" />&#10;    </linearGradient>&#10;    <linearGradient
   id="Gradient_65"
   gradientUnits="userSpaceOnUse"
   x1="-8480.584"
   y1="3806.3679"
   x2="-8480.584"
   y2="3797.1599"
   gradientTransform="matrix(-1,0.025,0.025,1,-8378.065,-3529.085)">&#10;      <stop
   offset="0"
   stop-color="#FFFEFE"
   id="stop129" />&#10;      <stop
   offset="1"
   stop-color="#383636"
   id="stop130" />&#10;    </linearGradient>&#10;  &#10;        &#10;        &#10;      &#10;        &#10;        &#10;      &#10;        &#10;        &#10;      </defs>&#10;  <g
   inkscape:groupmode="layer"
   id="layer5"
   inkscape:label="WHITE PANEL "
   style="display:inline"
   sodipodi:insensitive="true">&#10;    <path
   id="rect1"
   style="fill:#ffffff;stroke-width:0.204805"
   d="M 0,0.52497211 C 0,43.183314 0,85.841656 0,128.5 c 18.626667,0 37.253334,0 55.880001,0 0,-42.833336 0,-85.666667 0,-128.5 C 37.253334,0 18.626667,0 0,0 0,0.17499071 0,0.3499814 0,0.52497211 Z" />&#10;  </g>&#10;  <g
   inkscape:groupmode="layer"
   id="layer2"
   inkscape:label="LOGO"
   style="display:inline"
   sodipodi:insensitive="true">&#10;    <g
   id="g11"
   transform="matrix(0.02552152,0,0,0.02552152,12.756296,111.70541)"
   style="display:inline"
   inkscape:label="LOGO">&#10;      <path
   d="M 279.203,340.453 157.217,340.266 H 77.871 v 201.146 h 40.266 v -40.08 l 40.523,0.187 -0.256,40.08 h 40.266 l 0.257,-40.08 40.266,0.014 -0.256,40.066 h 40.266 z"
   fill="#cf0000"
   id="path1" />&#10;      <path
   d="M 238.937,300.187 116.951,300 H 37.604 v 201.146 h 40.267 v -160.88 l 40.266,0.187 v 160.879 h 40.267 V 340.453 l 40.464,-0.187 -0.198,161.066 h 40.267 z"
   fill="#4c4c4c"
   id="path2" />&#10;      <path
   d="m 330.797,364.426 -0.623,10.103 q 4.181,-6.014 9.962,-9.02 5.781,-3.007 13.163,-3.007 14.408,0 22.679,12.027 4.536,-6.014 10.228,-9.02 5.692,-3.007 12.629,-3.007 9.161,0 15.165,4.009 6.003,4.009 7.693,9.822 1.69,5.812 1.69,18.881 v 81.752 h -34.864 v -75.498 q 0,-13.63 -1.023,-16.877 -1.023,-3.247 -4.759,-3.247 -3.824,0 -4.936,3.207 -1.111,3.207 -1.111,16.917 v 75.498 h -34.864 v -73.734 q 0,-15.635 -0.845,-18.761 -0.845,-3.127 -4.67,-3.127 -2.401,0 -4.091,1.643 -1.69,1.644 -1.868,4.009 -0.178,2.365 -0.178,10.062 v 79.908 H 295.31 v -112.54 z"
   fill="#4c4c4c"
   id="path3" />&#10;      <path
   d="m 517.124,425.653 h -46.515 v 23.011 q 0,7.216 1.157,9.3 1.156,2.085 4.446,2.085 4.092,0 5.47,-2.766 1.379,-2.766 1.379,-10.704 v -14.031 h 34.063 v 7.857 q 0,9.862 -1.378,15.154 -1.379,5.291 -6.448,11.305 -5.07,6.013 -12.852,9.02 -7.782,3.006 -19.522,3.006 -11.384,0 -20.1,-2.966 -8.716,-2.967 -13.564,-8.138 -4.847,-5.172 -6.714,-11.385 -1.868,-6.214 -1.868,-18.08 v -37.174 q 0,-13.951 4.18,-22.008 4.18,-8.058 13.697,-12.347 9.516,-4.29 21.879,-4.29 15.119,0 24.947,5.171 9.828,5.172 13.786,13.711 3.957,8.538 3.957,24.013 z m -36.02,-23.464 v -7.777 q 0,-8.258 -0.978,-10.663 -0.979,-2.405 -4.002,-2.405 -3.736,0 -4.625,2.044 -0.89,2.045 -0.89,11.024 v 7.777 z"
   fill="#4c4c4c"
   id="path4" />&#10;      <path
   d="m 566.753,350.235 v 16.757 h 9.694 v 16.837 h -9.694 V 446.9 q 0,10.503 1.2,11.706 1.201,1.202 10.006,1.202 v 17.158 h -14.497 q -12.274,0 -17.521,-0.922 -5.248,-0.922 -9.25,-4.249 -4.002,-3.328 -4.98,-7.617 -0.979,-4.29 -0.979,-20.165 v -60.184 h -7.738 v -16.837 h 7.738 v -16.757 z"
   fill="#4c4c4c"
   id="path5" />&#10;      <path
   d="m 616.469,405.637 h -33.708 v -7.136 q 0,-12.347 3.158,-19.042 3.157,-6.694 12.673,-11.826 9.517,-5.131 24.726,-5.131 18.232,0 27.482,5.813 9.249,5.813 11.117,14.271 1.868,14.604 1.868,40.982 v 53.398 h -34.953 v -9.461 q -3.291,5.693 -8.494,8.539 -5.203,2.846 -12.407,2.846 -9.427,0 -17.299,-4.77 -7.871,-4.771 -7.871,-20.886 v -8.74 q 0,-14.816 4.18,-19.145 4.181,-5.752 20.723,-11.524 17.699,-5.947 18.944,-8.112 1.245,-4.325 1.245,-10.98 0,-8.338 -1.378,-10.864 -1.379,-2.526 -4.58,-2.526 -3.647,0 -4.536,2.125 -0.89,2.125 -0.89,11.024 z m 11.384,20.737 q -8.627,5.693 -10.005,9.541 -1.379,3.849 -1.379,11.065 0,8.258 1.201,10.663 1.201,2.406 4.758,2.406 3.38,0 4.403,-1.885 1.022,-1.884 1.022,-9.901 z"
   fill="#4c4c4c"
   id="path6" />&#10;      <path
   d="m 710.675,364.426 -0.623,10.103 q 4.187,-6.014 9.977,-9.02 5.791,-3.007 13.185,-3.007 14.432,0 22.717,12.027 4.543,-6.014 10.244,-9.02 5.702,-3.007 12.651,-3.007 9.175,0 15.189,4.009 6.013,4.009 7.705,9.822 1.693,5.812 1.693,18.881 v 81.752 h -34.921 v -75.498 q 0,-13.63 -1.025,-16.877 -1.024,-3.247 -4.766,-3.247 -3.831,0 -4.944,3.207 -1.114,3.207 -1.114,16.917 v 75.498 h -34.921 v -73.734 q 0,-15.635 -0.846,-18.761 -0.847,-3.127 -4.677,-3.127 -2.406,0 -4.098,1.643 -1.693,1.644 -1.871,4.009 -0.178,2.365 -0.178,10.062 v 79.908 H 675.13 v -112.54 z"
   fill="#cf0000"
   id="path7" />&#10;      <path
   d="m 897.22,401.789 v 32.202 q 0,14.352 -1.604,21.047 -1.603,6.694 -6.859,12.507 -5.256,5.813 -13.497,8.579 -8.24,2.766 -18.93,2.766 -11.938,0 -20.223,-2.365 -8.284,-2.365 -12.872,-7.136 -4.588,-4.77 -6.548,-11.545 -1.96,-6.775 -1.96,-20.325 v -33.405 q 0,-14.833 3.563,-23.171 3.564,-8.339 12.829,-13.39 9.265,-5.051 23.696,-5.051 12.116,0 20.802,3.247 8.686,3.247 13.407,8.459 4.722,5.211 6.459,10.744 1.737,5.532 1.737,16.837 z m -35.991,-8.018 q 0,-8.178 -0.979,-10.303 -0.98,-2.124 -4.187,-2.124 -3.207,0 -4.277,2.124 -1.069,2.125 -1.069,10.303 v 54.171 q 0,7.537 1.069,9.822 1.07,2.285 4.187,2.285 3.208,0 4.232,-2.085 1.024,-2.084 1.024,-8.98 z"
   fill="#cf0000"
   id="path8" />&#10;      <path
   d="m 945.059,364.426 -1.426,13.951 q 7.84,-14.993 22.717,-15.875 v 37.443 q -9.888,0 -14.521,2.405 -4.632,2.405 -5.701,6.695 -1.069,10.434 -1.069,25.909 v 42.012 h -35.991 v -112.54 z"
   fill="#cf0000"
   id="path9" />&#10;      <path
   d="m 1010.982,364.427 -0.624,9.38 q 4.811,-5.692 10.601,-8.498 5.791,-2.807 12.65,-2.807 8.374,0 14.477,4.049 6.102,4.049 7.616,9.341 1.515,5.291 1.515,17.959 v 50.964 q 0,14.512 -1.915,20.646 -1.916,6.133 -7.84,9.781 -5.924,3.648 -14.298,3.648 -6.681,0 -12.383,-2.806 -5.701,-2.806 -10.423,-8.338 v 33.586 h -35.99 V 364.427 Z m 10.245,30.948 q 0,-9.862 -0.802,-11.947 -0.802,-2.084 -4.455,-2.084 -3.563,0 -4.587,2.405 -1.025,2.405 -1.025,11.626 v 50.242 q 0,9.621 1.069,12.027 1.069,2.405 4.633,2.405 3.474,0 4.32,-2.205 0.847,-2.205 0.847,-10.703 z"
   fill="#cf0000"
   id="path10" />&#10;      <path
   d="m 1105.056,340.266 v 29.933 q 4.632,-3.849 10.022,-5.773 5.389,-1.924 11.536,-1.924 9.443,0 16.08,4.329 6.637,4.33 8.107,9.982 1.47,5.653 1.47,20.646 v 79.507 h -35.991 v -81.03 q 0,-9.301 -1.024,-11.947 -1.025,-2.646 -4.588,-2.646 -3.296,0 -4.454,2.726 -1.158,2.726 -1.158,10.824 v 82.073 h -35.991 v -136.7 z"
   fill="#cf0000"
   id="path11" />&#10;    </g>&#10;  </g>&#10;  <g
   inkscape:label="BLOCKS"
   inkscape:groupmode="layer"
   id="layer1"
   style="display:inline"
   sodipodi:insensitive="true">&#10;    &#10;    &#10;    <path
   d="m 3.5659979,102.02491 11.1336651,-8.8e-4 c 0.292365,-3e-5 0.529167,0.2368 0.529167,0.52916 v 13.92933 c 0,0.29236 -0.236802,0.52916 -0.529167,0.52916 H 3.5659979 c -0.2921,0 -0.529167,-0.2368 -0.529167,-0.52916 v -13.92845 c 0,-0.29236 0.237067,-0.52914 0.529167,-0.52916 z"
   fill="#000000"
   fill-opacity="0.7"
   id="path14"
   style="stroke-width:0.264583"
   sodipodi:nodetypes="sssssssss" />&#10;    &#10;    &#10;    &#10;    &#10;    &#10;    &#10;    &#10;    <path
   d="m 41.169174,102.01323 11.133664,-8.8e-4 c 0.292365,-3e-5 0.529167,0.2368 0.529167,0.52916 v 13.92933 c 0,0.29236 -0.236802,0.52916 -0.529167,0.52916 H 41.169174 c -0.2921,0 -0.529167,-0.2368 -0.529167,-0.52916 v -13.92845 c 0,-0.29236 0.237067,-0.52914 0.529167,-0.52916 z"
   fill="#000000"
   fill-opacity="0.7"
   id="path77"
   style="stroke-width:0.264583"
   sodipodi:nodetypes="sssssssss" /><circle
   style="display:inline;fill:#ff0000;stroke-width:0.704961"
   id="circle276"
   cx="46.736008"
   cy="87.990715"
   r="4.695075" />&#10;    <circle
   style="display:inline;fill:#ff0000;stroke-width:0.704961"
   id="circle286"
   cx="46.70459"
   cy="107.49072"
   r="4.695075" />&#10;    <circle
   style="display:inline;fill:#ff0000;stroke-width:0.704961"
   id="circle236"
   cx="9.1328306"
   cy="87.990517"
   r="4.695075" />&#10;  <g
   id="g158"
   inkscape:label="BOX"
   transform="matrix(0.97376671,0,0,0.77583702,-33.663888,26.750087)"
   style="display:inline">&#10;        <path
   d="m 78.346323,111.11212 h 8.346969 v 3.8508 h -8.346969 z"
   fill="#ff0000"
   id="path158"
   style="display:inline;stroke-width:0.351895"
   inkscape:label="RED BOX" />&#10;      </g><g
   id="g159"
   inkscape:label="BOX"
   transform="matrix(0.97376671,0,0,0.77583702,-33.619035,7.250086)"
   style="display:inline">&#10;        <path
   d="m 78.346323,111.11212 h 8.346969 v 3.8508 h -8.346969 z"
   fill="#ff0000"
   id="path159"
   style="display:inline;stroke-width:0.351895"
   inkscape:label="RED BOX" />&#10;      </g><g
   id="g161"
   inkscape:label="BOX"
   transform="matrix(0.97376671,0,0,0.77583702,-71.222211,7.250086)"
   style="display:inline">&#10;        <path
   d="m 78.346323,111.11212 h 8.346969 v 3.8508 h -8.346969 z"
   fill="#ff0000"
   id="path161"
   style="display:inline;stroke-width:0.351895"
   inkscape:label="RED BOX" />&#10;      </g></g>&#10;  <g
   inkscape:groupmode="layer"
   id="layer6"
   inkscape:label="TYPE"
   style="display:inline"><path
     style="font-size:2.91042px;line-height:1.8;font-family:'Autogate Sans';-inkscape-font-specification:'Autogate Sans';text-align:center;letter-spacing:0.264583px;text-anchor:middle;fill:#f9f9f9;stroke-width:0.264583"
     d="m 45.403167,95.962165 c 0,0.02328 0.01455,0.03784 0.03784,0.03784 h 0.270669 c 0.02328,0 0.03784,-0.01455 0.03784,-0.03784 l 0.0029,-0.389997 c 0,-0.04075 -0.0029,-0.07276 -0.0058,-0.101864 0,-0.02911 0.0029,-0.05821 0.0087,-0.09313 l 0.01455,-0.0291 0.05239,-0.09313 c 0.01455,-0.02619 0.0291,-0.05239 0.03784,-0.07567 l 0.311415,0.797455 C 46.177339,95.991269 46.191891,96 46.206443,96 h 0.305594 c 0.01746,0 0.02328,-0.0087 0.01746,-0.02328 l -0.01164,-0.02328 C 46.363606,95.569258 46.218085,95.179262 46.060922,94.795086 L 46.5295,93.91905 c 0.01746,-0.03202 0.0029,-0.0553 -0.03493,-0.0553 h -0.27649 c -0.01455,0 -0.02619,0.0087 -0.03493,0.02037 l -0.430743,0.806186 -0.0029,-0.788724 c 0,-0.02328 -0.01455,-0.03784 -0.03784,-0.03784 h -0.270669 c -0.02328,0 -0.03784,0.01455 -0.03784,0.03784 z m 2.665681,-1.111781 c 0,-0.02328 -0.01455,-0.03784 -0.03784,-0.03784 h -0.541339 c -0.02328,0 -0.03784,0.01455 -0.03784,0.03784 v 0.261938 c 0,0.02328 0.01455,0.03783 0.03784,0.03783 l 0.235744,-0.0029 v 0.308504 c 0,0.174626 -0.02619,0.209551 -0.20955,0.209551 -0.154252,0 -0.20664,-0.06694 -0.20664,-0.209551 V 94.408 c 0,-0.145521 0.05239,-0.20955 0.20664,-0.20955 0.05239,0 0.09313,0.0029 0.122238,0.02328 0.03784,0.02328 0.06112,0.08731 0.07276,0.171715 0.01455,0.07858 0.01455,0.162984 0.01455,0.20955 v 0.01746 c 0,0.01164 0.0058,0.01746 0.01746,0.01746 h 0.288132 c 0.02328,0 0.03784,-0.01455 0.03784,-0.03784 v -0.270669 c 0,-0.229923 -0.1397,-0.465667 -0.436563,-0.465667 h -0.229923 c -0.293953,0 -0.439474,0.235744 -0.439474,0.465667 v 1.190362 C 46.962888,95.746793 47.108409,96 47.402362,96 h 0.229923 c 0.296863,0 0.436563,-0.235744 0.436563,-0.468578 z"
     id="text121"
     aria-label="KG" /><path
     style="font-size:2.91042px;line-height:1.8;font-family:'Autogate Sans';-inkscape-font-specification:'Autogate Sans';text-align:center;letter-spacing:0.264583px;text-anchor:middle;fill:#f9f9f9;stroke-width:0.264583"
     d="m 45.179985,115.1653 -0.0029,-1.76371 c 0,-0.0233 -0.01455,-0.0378 -0.03783,-0.0378 h -0.264848 c -0.02328,0 -0.03784,0.0145 -0.03784,0.0378 l -0.0058,2.06057 c 0,0.0233 0.01455,0.0378 0.03784,0.0378 h 0.910961 c 0.02328,0 0.03784,-0.0145 0.03784,-0.0378 v -0.25902 c 0,-0.0233 -0.01455,-0.0378 -0.03784,-0.0378 z m 2.080684,-1.76371 c 0,-0.0233 -0.01455,-0.0378 -0.03784,-0.0378 h -0.908051 c -0.02328,0 -0.03784,0.0145 -0.03784,0.0378 l 0.0029,2.06057 c 0,0.0233 0.01455,0.0378 0.03784,0.0378 h 0.905141 c 0.02328,0 0.03784,-0.0145 0.03784,-0.0378 v -0.25611 c 0,-0.0233 -0.01455,-0.0378 -0.03784,-0.0378 l -0.599546,-0.003 v -0.56753 h 0.430742 c 0.02328,0 0.03784,-0.0145 0.03784,-0.0378 v -0.25611 c 0,-0.0233 -0.01455,-0.0378 -0.03784,-0.0378 h -0.430742 v -0.57044 h 0.599546 c 0.02328,0 0.03784,-0.0145 0.03784,-0.0378 z m 1.163905,1.67349 c 0,0.0466 -0.04075,0.0902 -0.08731,0.0902 h -0.270669 v -1.46685 h 0.270669 c 0.04657,0 0.08731,0.0408 0.08731,0.0902 z m -0.681038,-1.70842 c -0.01164,0 -0.02037,0.009 -0.02037,0.0175 v 2.08969 c 0,0.0116 0.0087,0.0204 0.02037,0.0204 h 0.01746 c 0.215372,0.003 0.427832,0.006 0.643203,0.006 0.215371,0 0.363803,-0.17171 0.363803,-0.35507 v -1.42611 c 0,-0.18335 -0.148432,-0.35507 -0.363803,-0.35507 -0.215371,0 -0.427831,0.003 -0.643203,0.003 z"
     id="text122"
     aria-label="LED" /><path
     style="font-size:2.91042px;line-height:1.8;font-family:'Autogate Sans';-inkscape-font-specification:'Autogate Sans';text-align:center;letter-spacing:0.264583px;text-anchor:middle;fill:#f9f9f9;stroke-width:0.264583"
     d="m 5.5192527,113.44991 c -0.029104,0 -0.043656,0.0175 -0.037835,0.0466 l 0.4511151,2.06057 c 0.00291,0.0175 0.017462,0.0291 0.034925,0.0291 h 0.2648482 c 0.017463,0 0.032015,-0.0116 0.034925,-0.0291 l 0.4540255,-2.06057 c 0.00582,-0.0291 -0.00873,-0.0466 -0.037835,-0.0466 H 6.3836475 c -0.00873,0 -0.014552,0.006 -0.017463,0.0116 l -0.00291,0.0145 c -0.081492,0.41619 -0.1717147,0.83238 -0.2619378,1.24566 -0.090223,-0.41328 -0.180446,-0.82947 -0.2677586,-1.24566 l -0.00291,-0.0145 c -0.00291,-0.006 -0.00873,-0.0116 -0.017463,-0.0116 z m 2.007924,2.2352 c 0.017462,0 0.032015,-0.0116 0.034925,-0.0291 l 0.5588006,-2.25849 c 0.00582,-0.0291 -0.00873,-0.0466 -0.037835,-0.0466 h -0.270669 c -0.017462,0 -0.032015,0.0116 -0.034925,0.0291 l -0.5558902,2.25849 c -0.00582,0.0291 0.00873,0.0466 0.037836,0.0466 z m 1.3909164,-0.0989 h 0.2299232 c 0.2968628,0 0.436563,-0.23575 0.436563,-0.46858 v -1.202 c 0,-0.22993 -0.1397002,-0.46567 -0.436563,-0.46567 H 8.9180931 c -0.2939524,0 -0.4394734,0.23574 -0.4394734,0.46567 v 1.202 c 0,0.23283 0.145521,0.46858 0.4394734,0.46858 z m -0.093133,-1.592 c 0,-0.14552 0.052388,-0.20955 0.2066398,-0.20955 0.1833565,0 0.2095503,0.0349 0.2095503,0.20955 v 1.04775 c 0,0.17463 -0.026194,0.20955 -0.2095503,0.20955 -0.1542522,0 -0.2066398,-0.0669 -0.2066398,-0.20955 z m 2.3484433,1.12342 v -0.26776 c 0,-0.0233 -0.01455,-0.0378 -0.03784,-0.0378 h -0.28231 c -0.01164,0 -0.01746,0.006 -0.01746,0.0175 v 0.0175 c -0.0029,0.0495 -0.0029,0.13679 -0.01746,0.22119 -0.01455,0.0873 -0.04366,0.14552 -0.08149,0.1659 -0.0029,0 -0.0029,0 -0.0058,0 -0.02619,0.0145 -0.06403,0.0175 -0.110596,0.0175 -0.154252,0 -0.20664,-0.0669 -0.20664,-0.20955 v -1.04775 c 0,-0.14552 0.05239,-0.20955 0.20664,-0.20955 0.04657,0 0.0844,0.003 0.110596,0.0175 0.0029,0 0.0029,0 0.0058,0 0.03783,0.0204 0.06403,0.0844 0.07858,0.17172 0.01455,0.0844 0.01455,0.17462 0.01455,0.22119 v 0.0175 c 0,0.0116 0.0058,0.0175 0.01746,0.0175 l 0.288131,-0.006 c 0.02328,0 0.03784,-0.0145 0.03784,-0.0378 v -0.27067 c 0,-0.22993 -0.1397,-0.46567 -0.436563,-0.46567 h -0.229923 c -0.293953,0 -0.439474,0.23574 -0.439474,0.46567 v 1.202 c 0,0.23283 0.145521,0.46858 0.439474,0.46858 h 0.229923 c 0.296863,0 0.436563,-0.23575 0.436563,-0.46858 z m 1.612106,-1.62983 c 0,-0.0233 -0.01455,-0.0378 -0.03783,-0.0378 h -1.111781 c -0.02328,0 -0.03783,0.0145 -0.03783,0.0378 v 0.26193 c 0,0.0233 0.01455,0.0378 0.03783,0.0378 l 0.384176,-0.006 v 1.76662 c 0,0.0233 0.01455,0.0378 0.03784,0.0378 h 0.270669 c 0.02328,0 0.03784,-0.0145 0.03784,-0.0378 v -1.76662 h 0.381265 c 0.02328,0 0.03783,-0.0145 0.03783,-0.0378 z"
     id="text124"
     aria-label="v/oct" /><path
     style="font-size:6.12552px;line-height:1.8;font-family:'Autogate Sans';-inkscape-font-specification:'Autogate Sans';text-align:center;letter-spacing:0.556864px;text-anchor:middle;fill:#d40000;stroke-width:0.556864"
     d="M 19.413551,7.8545277 V 7.4502434 c 0,-0.049004 -0.03063,-0.079632 -0.07963,-0.079632 h -0.563548 c -0.049,0 -0.07963,0.030628 -0.07963,0.079632 v 0.5635478 c 0,0.5145437 0.416536,0.9923343 1.010711,0.9923343 h 0.398159 c 0.551297,0 0.924954,-0.4349119 0.924954,-0.9004515 V 7.4686199 c 0,-0.1960166 -0.11026,-0.3797822 -0.214394,-0.5145437 l -0.03063,-0.042879 c 0,0 -0.0061,-0.00613 -0.0061,-0.00613 l -0.0245,-0.024502 c -0.0061,-0.00613 -0.0061,-0.00613 -0.01225,-0.012251 l -1.261857,-0.9188281 -0.03063,-0.05513 c -0.01225,-0.036753 -0.0245,-0.061255 -0.0245,-0.085757 0,-0.00613 0,-0.00613 0,-0.012251 -0.01225,-0.085757 -0.0061,-0.165389 -0.0061,-0.2511463 0,-0.3369036 0.049,-0.3614057 0.447163,-0.3614057 0.104134,0 0.189891,0.00613 0.251146,0.042879 0.07963,0.049004 0.134761,0.1837656 0.159264,0.3614057 0.03063,0.1715146 0.03063,0.3491547 0.03063,0.4532885 v 0.030628 c 0,0.024502 0.01225,0.036753 0.03675,0.036753 h 0.606427 c 0.049,0 0.07963,-0.030628 0.07963,-0.079632 V 5.4655748 c 0,-0.5206692 -0.416536,-0.9862087 -1.010711,-0.9862087 h -0.398159 c -0.539046,0 -0.924954,0.4226609 -0.924954,0.8943259 v 0.4777906 c 0,0.1898911 0.11026,0.3797823 0.214394,0.5145437 l 0.03063,0.036753 c 0,0.00613 0.0061,0.012251 0.01225,0.018377 l 0.0245,0.018377 1.274108,0.9249536 0.0245,0.05513 c 0.01225,0.036753 0.0245,0.073506 0.0245,0.098008 0,0.00613 0,0.00613 0,0.012251 0.01838,0.1102594 0.0061,0.2266443 0.0061,0.3430292 0,0.091883 0,0.165389 -0.0061,0.2327697 -0.01225,0.05513 -0.0245,0.091883 -0.04288,0.1163849 -0.03675,0.042879 -0.116385,0.073506 -0.349155,0.073506 h -0.049 C 19.46868,8.2894397 19.413551,8.2281845 19.413551,7.8545277 Z m 5.034618,0.1592635 V 7.4502434 c 0,-0.049004 -0.03063,-0.079632 -0.07963,-0.079632 h -0.594175 c -0.0245,0 -0.03675,0.012251 -0.03675,0.036753 v 0.036753 c -0.0061,0.1041338 -0.0061,0.2878994 -0.03675,0.4655395 -0.03063,0.1837656 -0.09188,0.306276 -0.171515,0.3491547 -0.0061,0 -0.0061,0 -0.01225,0 -0.05513,0.030628 -0.134761,0.036753 -0.23277,0.036753 -0.324652,0 -0.434912,-0.140887 -0.434912,-0.4410375 V 5.6493404 c 0,-0.306276 0.11026,-0.4410374 0.434912,-0.4410374 0.09801,0 0.17764,0.00613 0.23277,0.036753 0.0061,0 0.0061,0 0.01225,0 0.07963,0.042879 0.134762,0.1776401 0.165389,0.3614057 0.03063,0.1776401 0.03063,0.3675312 0.03063,0.4655395 v 0.036753 c 0,0.024502 0.01225,0.036753 0.03675,0.036753 l 0.606426,-0.012251 c 0.049,0 0.07963,-0.030628 0.07963,-0.079632 V 5.4839514 c 0,-0.4839161 -0.294025,-0.9800832 -0.918828,-0.9800832 h -0.483916 c -0.618678,0 -0.924954,0.4961671 -0.924954,0.9800832 V 8.0137912 C 22.120471,8.5038329 22.426747,9 23.045425,9 h 0.483916 c 0.624803,0 0.918828,-0.4961671 0.918828,-0.9862088 z m 2.210751,-1.7028946 0.208268,1.0045853 h -0.428786 z m 1.225104,2.6829779 c 0.06126,0 0.09188,-0.036753 0.07963,-0.098008 L 27.0142,4.5589978 c -0.0061,-0.036753 -0.03675,-0.061255 -0.07351,-0.061255 h -0.557422 c -0.03675,0 -0.06738,0.024502 -0.07351,0.061255 l -0.955582,4.3368684 c -0.01225,0.061255 0.01838,0.098008 0.07963,0.098008 h 0.58805 c 0.04288,0 0.07351,-0.024502 0.07963,-0.061255 l 0.183766,-0.9127025 h 0.747313 l 0.183766,0.9127025 c 0.0061,0.036753 0.03675,0.061255 0.07963,0.061255 z m 1.726835,-0.6983093 -0.0061,-3.7120653 c 0,-0.049004 -0.03063,-0.079632 -0.07963,-0.079632 h -0.557422 c -0.049,0 -0.07963,0.030628 -0.07963,0.079632 l -0.01225,4.3368683 C 28.875796,8.9693724 28.906424,9 28.955428,9 h 1.917288 c 0.049,0 0.07963,-0.030628 0.07963,-0.079632 V 8.3751969 c 0,-0.049004 -0.03063,-0.079632 -0.07963,-0.079632 z m 4.379187,-3.7120653 c 0,-0.049004 -0.03063,-0.079632 -0.07963,-0.079632 h -1.911162 c -0.049,0 -0.07963,0.030628 -0.07963,0.079632 l 0.0061,4.3368683 C 31.925746,8.9693724 31.956373,9 32.005377,9 h 1.905037 c 0.049,0 0.07963,-0.030628 0.07963,-0.079632 V 8.3813225 c 0,-0.049004 -0.03063,-0.079632 -0.07963,-0.079632 l -1.261857,-0.00613 V 7.1010887 h 0.906577 c 0.049,0 0.07963,-0.030628 0.07963,-0.079632 V 6.4824112 c 0,-0.049004 -0.03063,-0.079632 -0.07963,-0.079632 H 32.648557 V 5.2021775 h 1.261857 c 0.049,0 0.07963,-0.030628 0.07963,-0.079632 z m 2.419026,-0.079632 h -1.365991 c -0.049,0 -0.07963,0.030628 -0.07963,0.079632 l 0.0061,4.3368683 C 34.969575,8.9693724 35.000202,9 35.049206,9 h 0.563548 c 0.049,0 0.07963,-0.030628 0.07963,-0.079632 V 7.4379923 h 0.257272 l 0.545171,1.506878 C 36.50708,8.9816234 36.537708,9 36.568335,9 h 0.539046 c 0.06738,0 0.09801,-0.042879 0.07351,-0.1041338 L 36.672469,7.3889882 C 37.04,7.2664778 37.168636,6.9295742 37.168636,6.6110471 v -1.365991 c 0,-0.3859078 -0.306276,-0.7411879 -0.759564,-0.7411879 z M 36.268185,5.208303 c 0.09188,0 0.17764,0.079632 0.17764,0.1837656 v 1.1515978 c 0,0.1041338 -0.07963,0.1898911 -0.17764,0.1898911 H 35.692386 V 5.208303 Z"
     id="text193"
     aria-label="SCALER" /><text
     xml:space="preserve"
     style="font-size:2.91042px;line-height:1.8;font-family:'Halogen by Pixel Surplus';-inkscape-font-specification:'Halogen by Pixel Surplus';text-align:center;letter-spacing:0.264583px;text-anchor:middle;fill:#00ff00;stroke-width:0.264583"
     x="66.909317"
     y="46.5"
     id="text13"><tspan
       sodipodi:role="line"
       id="tspan13"
       style="stroke-width:0.264583"
       x="66.909317"
       y="46.5" /></text><text
     xml:space="preserve"
     style="font-size:2.91042px;line-height:1.8;font-family:'Halogen by Pixel Surplus';-inkscape-font-specification:'Halogen by Pixel Surplus';text-align:center;letter-spacing:0.264583px;text-anchor:middle;fill:#00ff00;stroke-width:0.264583"
     x="98.834129"
     y="38.261597"
     id="text15"><tspan
       sodipodi:role="line"
       id="tspan15"
       style="stroke-width:0.264583"
       x="98.834129"
       y="38.261597" /></text><path
     style="font-size:2.91042px;line-height:1.8;font-family:'Autogate Sans';-inkscape-font-specification:'Autogate Sans';text-align:center;letter-spacing:0.264583px;text-anchor:middle;fill:#4c4c4c;stroke-width:0.264583"
     d="m 19.080258,93.887035 c -0.0058,-0.01455 -0.01746,-0.02328 -0.03493,-0.02328 h -0.264848 c -0.02328,0 -0.03783,0.01455 -0.03783,0.03784 l 0.0029,2.060578 c 0,0.02328 0.01455,0.03784 0.03784,0.03784 h 0.276489 c 0.02328,0 0.03784,-0.01455 0.03784,-0.03784 l -0.0058,-1.202004 0.512234,1.216556 C 19.609955,95.991269 19.621597,96 19.639059,96 h 0.259027 c 0.02328,0 0.03784,-0.01455 0.03784,-0.03784 v -2.060578 c 0,-0.02328 -0.01455,-0.03784 -0.03784,-0.03784 h -0.270669 c -0.02328,0 -0.03784,0.01455 -0.03784,0.03784 l 0.0029,1.202004 z M 20.904825,96 h 0.229923 c 0.296863,0 0.436563,-0.235744 0.436563,-0.468578 v -1.202003 c 0,-0.229923 -0.1397,-0.465667 -0.436563,-0.465667 h -0.229923 c -0.293953,0 -0.439474,0.235744 -0.439474,0.465667 v 1.202003 C 20.465351,95.764256 20.610872,96 20.904825,96 Z m -0.09313,-1.592 c 0,-0.145521 0.05239,-0.20955 0.20664,-0.20955 0.183357,0 0.209551,0.03493 0.209551,0.20955 v 1.047751 c 0,0.174626 -0.02619,0.209551 -0.209551,0.209551 -0.154252,0 -0.20664,-0.06694 -0.20664,-0.209551 z m 2.357176,-0.506413 c 0,-0.02328 -0.01455,-0.03784 -0.03783,-0.03784 h -1.111781 c -0.02328,0 -0.03784,0.01455 -0.03784,0.03784 v 0.261938 c 0,0.02328 0.01455,0.03783 0.03784,0.03783 l 0.384176,-0.0058 v 1.766625 c 0,0.02328 0.01455,0.03784 0.03783,0.03784 h 0.270669 c 0.02328,0 0.03784,-0.01455 0.03784,-0.03784 V 94.19554 h 0.381265 c 0.02328,0 0.03783,-0.01455 0.03783,-0.03784 z m 1.422928,0 c 0,-0.02328 -0.01455,-0.03784 -0.03784,-0.03784 h -0.908051 c -0.02328,0 -0.03784,0.01455 -0.03784,0.03784 l 0.0029,2.060578 c 0,0.02328 0.01455,0.03784 0.03784,0.03784 h 0.905141 c 0.02328,0 0.03784,-0.01455 0.03784,-0.03784 v -0.256117 c 0,-0.02328 -0.01455,-0.03784 -0.03784,-0.03784 l -0.599547,-0.0029 V 95.09777 h 0.430742 c 0.02328,0 0.03784,-0.01455 0.03784,-0.03784 v -0.256117 c 0,-0.02328 -0.01455,-0.03784 -0.03784,-0.03784 H 23.954413 V 94.19554 h 0.599547 c 0.02328,0 0.03784,-0.01455 0.03784,-0.03784 z"
     id="text237"
     aria-label="NOTE" /><path
     style="font-size:2.91042px;line-height:1.8;font-family:'Autogate Sans';-inkscape-font-specification:'Autogate Sans';text-align:center;letter-spacing:0.264583px;text-anchor:middle;fill:#4c4c4c;stroke-width:0.264583"
     d="m 30.960071,94.86874 c 0,-0.02328 -0.01455,-0.03784 -0.03783,-0.03784 h -0.541338 c -0.02328,0 -0.03784,0.01455 -0.03784,0.03784 v 0.261938 c 0,0.02328 0.01455,0.03784 0.03784,0.03784 l 0.235744,-0.0029 v 0.308505 c 0,0.174625 -0.02619,0.20955 -0.20955,0.20955 -0.154253,0 -0.20664,-0.06694 -0.20664,-0.20955 v -1.047751 c 0,-0.145521 0.05239,-0.209551 0.20664,-0.209551 0.05239,0 0.09313,0.0029 0.122237,0.02328 0.03784,0.02328 0.06112,0.08731 0.07276,0.171715 0.01455,0.07858 0.01455,0.162983 0.01455,0.20955 v 0.01746 c 0,0.01164 0.0058,0.01746 0.01746,0.01746 h 0.288132 c 0.02328,0 0.03783,-0.01455 0.03783,-0.03784 v -0.270669 c 0,-0.229923 -0.1397,-0.465667 -0.436563,-0.465667 h -0.229923 c -0.293952,0 -0.439473,0.235744 -0.439473,0.465667 v 1.190362 c 0,0.227013 0.145521,0.480219 0.439473,0.480219 h 0.229923 c 0.296863,0 0.436563,-0.235744 0.436563,-0.468577 z m 0.779726,0.814918 -0.0029,-1.763714 c 0,-0.02328 -0.01455,-0.03784 -0.03784,-0.03784 h -0.264848 c -0.02328,0 -0.03784,0.01455 -0.03784,0.03784 l -0.0058,2.060577 c 0,0.02328 0.01455,0.03784 0.03783,0.03784 h 0.910962 c 0.02328,0 0.03784,-0.01455 0.03784,-0.03784 v -0.259028 c 0,-0.02328 -0.01455,-0.03784 -0.03784,-0.03784 z m 1.527707,0.334698 h 0.229924 c 0.296862,0 0.436563,-0.235744 0.436563,-0.468577 v -1.202004 c 0,-0.229923 -0.139701,-0.465667 -0.436563,-0.465667 h -0.229924 c -0.293952,0 -0.439473,0.235744 -0.439473,0.465667 v 1.202004 c 0,0.232833 0.145521,0.468577 0.439473,0.468577 z m -0.09313,-1.591999 c 0,-0.145521 0.05239,-0.209551 0.20664,-0.209551 0.183356,0 0.20955,0.03493 0.20955,0.209551 v 1.047751 c 0,0.174625 -0.02619,0.20955 -0.20955,0.20955 -0.154252,0 -0.20664,-0.06694 -0.20664,-0.20955 z m 1.254125,-0.544249 c -0.02328,0 -0.03784,0.01455 -0.03784,0.03784 v 2.060577 c 0,0.02328 0.01455,0.03784 0.03784,0.03784 h 0.649023 c 0.215371,0 0.360892,-0.168804 0.360892,-0.35216 v -0.532607 c 0,-0.06694 -0.01455,-0.128059 -0.04948,-0.183357 0.03493,-0.05821 0.04948,-0.119327 0.04948,-0.183356 v -0.532607 c 0,-0.183357 -0.145521,-0.352161 -0.360892,-0.352161 z m 0.582084,0.334698 c 0.04366,0 0.0844,0.04075 0.0844,0.08731 v 0.389996 c 0,0.04657 -0.04075,0.09022 -0.0844,0.09022 H 34.737 v -0.567532 z m 0.0844,1.379539 c 0,0.04366 -0.04075,0.08731 -0.0844,0.08731 H 34.737 v -0.567532 h 0.27358 c 0.04366,0 0.0844,0.04075 0.0844,0.09022 z m 1.4142,-0.855663 0.09895,0.477309 h -0.203729 z m 0.582084,1.274764 c 0.0291,0 0.04366,-0.01746 0.03784,-0.04657 l -0.451115,-2.060577 c -0.0029,-0.01746 -0.01746,-0.0291 -0.03492,-0.0291 h -0.264848 c -0.01746,0 -0.03202,0.01164 -0.03493,0.0291 l -0.454026,2.060577 c -0.0058,0.0291 0.0087,0.04657 0.03784,0.04657 h 0.2794 c 0.02037,0 0.03492,-0.01164 0.03784,-0.0291 l 0.08731,-0.433653 h 0.355072 l 0.08731,0.433653 c 0.0029,0.01746 0.01746,0.0291 0.03784,0.0291 z m 0.820471,-0.331788 -0.0029,-1.763714 c 0,-0.02328 -0.01455,-0.03784 -0.03784,-0.03784 h -0.264848 c -0.02328,0 -0.03784,0.01455 -0.03784,0.03784 l -0.0058,2.060577 c 0,0.02328 0.01455,0.03784 0.03784,0.03784 h 0.910961 c 0.02328,0 0.03784,-0.01455 0.03784,-0.03784 v -0.259028 c 0,-0.02328 -0.01455,-0.03784 -0.03784,-0.03784 z"
     id="text239"
     aria-label="global" /><g
     id="g96"
     transform="translate(0,-3.0000001)"><path
       d="M 33.911888,77.824051 H 3.9277398 c -0.194247,0 -0.370195,-0.0785 -0.497581,-0.20585 -0.127387,-0.12739 -0.206211,-0.30334 -0.206211,-0.49794"
       fill-opacity="0"
       stroke="#969f96"
       stroke-width="0.351895"
       id="path260"
       sodipodi:nodetypes="cscc" /><path
       d="m 21.458609,77.824051 h 30.493653 c 0.194246,0 0.370194,-0.0785 0.497581,-0.20585 0.127387,-0.12739 0.206211,-0.30334 0.206211,-0.49794"
       fill-opacity="0"
       stroke="#969f96"
       stroke-width="0.351895"
       id="path261"
       sodipodi:nodetypes="cscc" /></g><path
     style="font-size:2.91042px;line-height:1.8;font-family:'Autogate Sans';-inkscape-font-specification:'Autogate Sans';text-align:center;letter-spacing:0.264583px;text-anchor:middle;fill:#4c4c4c;stroke-width:0.264583"
     d="m 25.501466,58.317138 -0.0029,-1.763714 c 0,-0.02328 -0.01455,-0.03784 -0.03784,-0.03784 h -0.264848 c -0.02328,0 -0.03784,0.01455 -0.03784,0.03784 l -0.0058,2.060577 c 0,0.02328 0.01455,0.03784 0.03784,0.03784 h 0.910962 c 0.02328,0 0.03784,-0.01455 0.03784,-0.03784 v -0.259027 c 0,-0.02328 -0.01455,-0.03784 -0.03784,-0.03784 z m 2.080685,-1.763714 c 0,-0.02328 -0.01455,-0.03784 -0.03784,-0.03784 h -0.908051 c -0.02328,0 -0.03784,0.01455 -0.03784,0.03784 l 0.0029,2.060577 c 0,0.02328 0.01455,0.03784 0.03784,0.03784 h 0.90514 c 0.02328,0 0.03784,-0.01455 0.03784,-0.03784 v -0.256117 c 0,-0.02328 -0.01455,-0.03784 -0.03784,-0.03784 l -0.599546,-0.0029 v -0.567532 h 0.430742 c 0.02328,0 0.03784,-0.01455 0.03784,-0.03784 v -0.256117 c 0,-0.02328 -0.01455,-0.03784 -0.03784,-0.03784 h -0.430742 v -0.570442 h 0.599546 c 0.02328,0 0.03784,-0.01455 0.03784,-0.03783 z m 1.163904,1.673491 c 0,0.04657 -0.04074,0.09022 -0.08731,0.09022 h -0.270669 v -1.466852 h 0.270669 c 0.04657,0 0.08731,0.04075 0.08731,0.09022 z m -0.681038,-1.708416 c -0.01164,0 -0.02037,0.0087 -0.02037,0.01746 v 2.089682 c 0,0.01164 0.0087,0.02037 0.02037,0.02037 h 0.01746 c 0.215371,0.0029 0.427831,0.0058 0.643203,0.0058 0.215371,0 0.363802,-0.171714 0.363802,-0.355071 v -1.426106 c 0,-0.183356 -0.148431,-0.355071 -0.363802,-0.355071 -0.215372,0 -0.427832,0.0029 -0.643203,0.0029 z m 1.865313,1.589089 V 57.9155 c 0,-0.02328 -0.01455,-0.03784 -0.03784,-0.03784 h -0.267759 c -0.02328,0 -0.03783,0.01455 -0.03783,0.03784 v 0.267759 c 0,0.244475 0.197908,0.471488 0.480219,0.471488 h 0.189178 c 0.261937,0 0.439473,-0.20664 0.439473,-0.427832 v -0.302684 c 0,-0.09313 -0.05239,-0.180446 -0.101865,-0.244475 l -0.01455,-0.02037 c 0,0 -0.0029,-0.0029 -0.0029,-0.0029 l -0.01164,-0.01164 c -0.0029,-0.0029 -0.0029,-0.0029 -0.0058,-0.0058 l -0.599546,-0.436563 -0.01455,-0.02619 c -0.0058,-0.01746 -0.01164,-0.0291 -0.01164,-0.04075 0,-0.0029 0,-0.0029 0,-0.0058 -0.0058,-0.04075 -0.0029,-0.07858 -0.0029,-0.119327 0,-0.160074 0.02328,-0.171715 0.212461,-0.171715 0.04948,0 0.09022,0.0029 0.119327,0.02037 0.03784,0.02328 0.06403,0.08731 0.07567,0.171714 0.01455,0.08149 0.01455,0.165894 0.01455,0.215372 v 0.01455 c 0,0.01164 0.0058,0.01746 0.01746,0.01746 h 0.288131 c 0.02328,0 0.03784,-0.01455 0.03784,-0.03784 v -0.267759 c 0,-0.247386 -0.197909,-0.468578 -0.480219,-0.468578 h -0.189178 c -0.256117,0 -0.439473,0.200819 -0.439473,0.424922 v 0.227013 c 0,0.09022 0.05239,0.180446 0.101865,0.244475 l 0.01455,0.01746 c 0,0.0029 0.0029,0.0058 0.0058,0.0087 l 0.01164,0.0087 0.605368,0.439473 0.01164,0.02619 c 0.0058,0.01746 0.01164,0.03493 0.01164,0.04657 0,0.0029 0,0.0029 0,0.0058 0.0087,0.05239 0.0029,0.107685 0.0029,0.162983 0,0.04366 0,0.07858 -0.0029,0.110596 -0.0058,0.02619 -0.01164,0.04366 -0.02037,0.0553 -0.01746,0.02037 -0.0553,0.03493 -0.165894,0.03493 h -0.02328 c -0.183357,-0.0029 -0.209551,-0.03202 -0.209551,-0.20955 z"
     id="text261"
     aria-label="LEDS" /><path
     d="M 23.308893,57.267608 H 3.9277398 c -0.194246,0 -0.370194,0.0785 -0.497581,0.20585 -0.127387,0.12739 -0.206211,0.30334 -0.206211,0.49794"
     fill-opacity="0"
     stroke="#969f96"
     stroke-width="0.351895"
     id="path263"
     sodipodi:nodetypes="cscc" /><path
     style="font-size:2.91042px;line-height:1.8;font-family:'Autogate Sans';-inkscape-font-specification:'Autogate Sans';text-align:center;letter-spacing:0.264583px;text-anchor:middle;fill:#4c4c4c;stroke-width:0.264583"
     d="m 5.825266,71.634717 v -0.267759 c 0,-0.02328 -0.014552,-0.03784 -0.037835,-0.03784 H 5.5051198 c -0.011642,0 -0.017462,0.0058 -0.017462,0.01746 v 0.01746 c -0.00291,0.04948 -0.00291,0.136789 -0.017463,0.221192 -0.014552,0.08731 -0.043656,0.145521 -0.081492,0.165894 -0.00291,0 -0.00291,0 -0.00582,0 -0.026194,0.01455 -0.064029,0.01746 -0.110596,0.01746 -0.1542523,0 -0.2066398,-0.06694 -0.2066398,-0.20955 v -1.047751 c 0,-0.145521 0.052388,-0.209551 0.2066398,-0.209551 0.046567,0 0.084402,0.0029 0.110596,0.01746 0.00291,0 0.00291,0 0.00582,0 0.037836,0.02037 0.064029,0.0844 0.078581,0.171715 0.014552,0.0844 0.014552,0.174625 0.014552,0.221192 v 0.01746 c 0,0.01164 0.00582,0.01746 0.017463,0.01746 l 0.2881315,-0.0058 c 0.023283,0 0.037835,-0.01455 0.037835,-0.03784 v -0.270669 c 0,-0.229923 -0.1397002,-0.465667 -0.436563,-0.465667 H 5.1587798 c -0.2939524,0 -0.4394734,0.235744 -0.4394734,0.465667 v 1.202004 c 0,0.232833 0.145521,0.468577 0.4394734,0.468577 H 5.388703 c 0.2968628,0 0.436563,-0.235744 0.436563,-0.468577 z m 0.9223376,0.468577 h 0.2299232 c 0.2968628,0 0.436563,-0.235744 0.436563,-0.468577 v -1.202004 c 0,-0.229923 -0.1397002,-0.465667 -0.436563,-0.465667 H 6.7476036 c -0.2939524,0 -0.4394734,0.235744 -0.4394734,0.465667 v 1.202004 c 0,0.232833 0.145521,0.468577 0.4394734,0.468577 z m -0.093133,-1.591999 c 0,-0.145521 0.052388,-0.209551 0.2066398,-0.209551 0.1833564,0 0.2095502,0.03493 0.2095502,0.209551 v 1.047751 c 0,0.174625 -0.026194,0.20955 -0.2095502,0.20955 -0.1542523,0 -0.2066398,-0.06694 -0.2066398,-0.20955 z m 1.5684503,1.257301 -0.00291,-1.763714 c 0,-0.02328 -0.014552,-0.03784 -0.037835,-0.03784 H 7.9173264 c -0.023283,0 -0.037835,0.01455 -0.037835,0.03784 l -0.00582,2.060577 c 0,0.02328 0.014552,0.03784 0.037835,0.03784 H 8.822467 c 0.023283,0 0.037835,-0.01455 0.037835,-0.03784 v -0.259027 c 0,-0.02328 -0.014552,-0.03784 -0.037835,-0.03784 z m 1.5277072,0.334698 h 0.2299232 c 0.2968631,0 0.4365631,-0.235744 0.4365631,-0.468577 v -1.202004 c 0,-0.229923 -0.1397,-0.465667 -0.4365631,-0.465667 H 9.7506277 c -0.2939524,0 -0.4394734,0.235744 -0.4394734,0.465667 v 1.202004 c 0,0.232833 0.145521,0.468577 0.4394734,0.468577 z m -0.093133,-1.591999 c 0,-0.145521 0.052388,-0.209551 0.2066398,-0.209551 0.1833569,0 0.2095499,0.03493 0.2095499,0.209551 v 1.047751 c 0,0.174625 -0.02619,0.20955 -0.2095499,0.20955 -0.1542523,0 -0.2066398,-0.06694 -0.2066398,-0.20955 z m 2.2989627,1.123422 0.0029,-1.629835 c 0,-0.02328 -0.01455,-0.03784 -0.03784,-0.03784 h -0.270669 c -0.02328,0 -0.03784,0.01455 -0.03784,0.03784 v 1.554164 c 0,0.174625 -0.02619,0.20955 -0.20955,0.20955 -0.154252,0 -0.20664,-0.06694 -0.20664,-0.20955 l 0.0029,-1.554164 c 0,-0.02328 -0.01455,-0.03784 -0.03784,-0.03784 h -0.270669 c -0.02328,0 -0.03783,0.01455 -0.03783,0.03784 l -0.0029,1.629835 c 0,0.229923 0.142611,0.468577 0.436563,0.468577 h 0.232834 c 0.293952,0 0.436563,-0.238654 0.436563,-0.468577 z m 1.219202,-1.667671 h -0.649023 c -0.02328,0 -0.03784,0.01455 -0.03784,0.03784 l 0.0029,2.060577 c 0,0.02328 0.01455,0.03784 0.03783,0.03784 h 0.267759 c 0.02328,0 0.03784,-0.01455 0.03784,-0.03784 v -0.704322 h 0.122238 l 0.259027,0.715964 c 0.0058,0.01746 0.02037,0.02619 0.03492,0.02619 h 0.256117 c 0.03201,0 0.04657,-0.02037 0.03492,-0.04948 l -0.241565,-0.715963 c 0.174626,-0.05821 0.235744,-0.218282 0.235744,-0.369623 v -0.649024 c 0,-0.183357 -0.145521,-0.352161 -0.360892,-0.352161 z m -0.06694,0.334698 c 0.04366,0 0.0844,0.03784 0.0844,0.08731 v 0.547159 c 0,0.04948 -0.03784,0.09022 -0.0844,0.09022 h -0.27358 v -0.724695 z"
     id="text273"
     aria-label="COLOUR" /><path
     style="font-size:2.91042px;line-height:1.8;font-family:'Autogate Sans';-inkscape-font-specification:'Autogate Sans';text-align:center;letter-spacing:0.264583px;text-anchor:middle;fill:#f9f9f9;stroke-width:0.264583"
     d="m 6.9992207,95.962165 c 0,0.02328 0.014552,0.03784 0.037835,0.03784 h 0.2706691 c 0.023283,0 0.037835,-0.01455 0.037835,-0.03784 l 0.00291,-0.389997 c 0,-0.04075 -0.00291,-0.07276 -0.00582,-0.101864 0,-0.02911 0.00291,-0.05821 0.00873,-0.09313 l 0.014552,-0.0291 0.052388,-0.09313 c 0.014552,-0.02619 0.029104,-0.05239 0.037835,-0.07567 l 0.3114149,0.797455 C 7.7733924,95.991269 7.7879445,96 7.8024966,96 h 0.3055941 c 0.017463,0 0.023283,-0.0087 0.017463,-0.02328 l -0.011642,-0.02328 C 7.9596593,95.569258 7.8141383,95.179262 7.6569757,94.795086 L 8.1255533,93.91905 c 0.017463,-0.03202 0.00291,-0.0553 -0.034925,-0.0553 H 7.8141383 c -0.014552,0 -0.026194,0.0087 -0.034925,0.02037 l -0.4307422,0.806186 -0.00291,-0.788724 c 0,-0.02328 -0.014552,-0.03784 -0.037835,-0.03784 H 7.0370562 c -0.023283,0 -0.037835,0.01455 -0.037835,0.03784 z m 2.581277,-2.060578 c 0,-0.02328 -0.014552,-0.03784 -0.037835,-0.03784 h -0.908051 c -0.023283,0 -0.037835,0.01455 -0.037835,0.03784 l 0.00291,2.060578 c 0,0.02328 0.014552,0.03784 0.037835,0.03784 h 0.9051406 c 0.023283,0 0.037835,-0.01455 0.037835,-0.03784 v -0.256117 c 0,-0.02328 -0.014552,-0.03784 -0.037835,-0.03784 l -0.5995465,-0.0029 V 95.09777 h 0.4307422 c 0.023283,0 0.037835,-0.01455 0.037835,-0.03784 v -0.256117 c 0,-0.02328 -0.014552,-0.03784 -0.037835,-0.03784 H 8.9431157 V 94.19554 h 0.5995465 c 0.023283,0 0.037835,-0.01455 0.037835,-0.03784 z m 0.9106983,2.060578 c 0,0.02328 0.01455,0.03784 0.03783,0.03784 H 10.7997 c 0.02328,0 0.03784,-0.01455 0.03784,-0.03784 v -0.555891 c 0,-0.0553 -0.0058,-0.09604 -0.0087,-0.1397 -0.0029,-0.04366 -0.0029,-0.08149 0.0087,-0.133879 0.01746,-0.07858 0.03492,-0.1397 0.05821,-0.197909 0.02619,-0.06403 0.0553,-0.125148 0.08149,-0.20664 l 0.285221,-0.814917 c 0.01164,-0.0291 -0.0029,-0.04948 -0.03492,-0.04948 h -0.27649 c -0.01455,0 -0.0291,0.01164 -0.03492,0.02619 l -0.250296,0.747977 -0.250296,-0.747977 c -0.0058,-0.01455 -0.02037,-0.02619 -0.03493,-0.02619 h -0.282311 c -0.03201,0 -0.04657,0.02037 -0.03492,0.04948 l 0.285221,0.814917 c 0.02619,0.08149 0.0553,0.142611 0.08149,0.20664 0.02328,0.05821 0.04366,0.119328 0.06112,0.197909 0.01164,0.05239 0.01164,0.09022 0.0087,0.133879 -0.0029,0.04366 -0.0087,0.0844 -0.0087,0.1397 z"
     id="text95"
     aria-label="KEY" /><path
     d="m 32.571109,57.267608 h 19.381153 c 0.194246,0 0.370194,0.0785 0.497581,0.20585 0.127387,0.12739 0.206211,0.30334 0.206211,0.49794"
     fill-opacity="0"
     stroke="#969f96"
     stroke-width="0.351895"
     id="path96"
     sodipodi:nodetypes="cscc" /><g
     id="text101"
     style="font-size:2.91042px;line-height:1;font-family:'Autogate Sans';-inkscape-font-specification:'Autogate Sans';letter-spacing:0.264583px;fill:#4c4c4c;stroke-width:0.264583"
     aria-label="SCALE&#10;DEGREE"><path
       style="text-align:center;text-anchor:middle"
       d="M 5.7108418,62.385798 V 62.19371 c 0,-0.02328 -0.014552,-0.03784 -0.037835,-0.03784 H 5.4052477 c -0.023283,0 -0.037835,0.01455 -0.037835,0.03784 v 0.267758 c 0,0.244476 0.1979086,0.471489 0.4802193,0.471489 h 0.1891773 c 0.2619378,0 0.4394734,-0.20664 0.4394734,-0.427832 v -0.302684 c 0,-0.09313 -0.052388,-0.180446 -0.1018647,-0.244475 l -0.014552,-0.02037 c 0,0 -0.00291,-0.0029 -0.00291,-0.0029 l -0.011642,-0.01164 c -0.00291,-0.0029 -0.00291,-0.0029 -0.00582,-0.0058 L 5.739946,61.480657 5.7253939,61.454463 c -0.00582,-0.01746 -0.011642,-0.0291 -0.011642,-0.04075 0,-0.0029 0,-0.0029 0,-0.0058 -0.00582,-0.04075 -0.00291,-0.07858 -0.00291,-0.119327 0,-0.160073 0.023283,-0.171715 0.2124607,-0.171715 0.049477,0 0.090223,0.0029 0.1193272,0.02037 0.037835,0.02328 0.064029,0.08731 0.075671,0.171715 0.014552,0.08149 0.014552,0.165894 0.014552,0.215371 v 0.01455 c 0,0.01164 0.00582,0.01746 0.017462,0.01746 h 0.2881316 c 0.023283,0 0.037835,-0.01455 0.037835,-0.03784 v -0.267758 c 0,-0.247386 -0.1979085,-0.468578 -0.4802192,-0.468578 H 5.8068857 c -0.256117,0 -0.4394735,0.200819 -0.4394735,0.424921 v 0.227013 c 0,0.09022 0.052388,0.180446 0.1018647,0.244476 l 0.014552,0.01746 c 0,0.0029 0.00291,0.0058 0.00582,0.0087 l 0.011642,0.0087 0.6053673,0.439473 0.011642,0.02619 c 0.00582,0.01746 0.011642,0.03493 0.011642,0.04657 0,0.0029 0,0.0029 0,0.0058 0.00873,0.05239 0.00291,0.107686 0.00291,0.162984 0,0.04366 0,0.07858 -0.00291,0.110596 -0.00582,0.02619 -0.011642,0.04366 -0.020373,0.0553 -0.017463,0.02037 -0.055298,0.03493 -0.1658939,0.03493 H 5.920392 c -0.1833564,-0.0029 -0.2095502,-0.03202 -0.2095502,-0.20955 z m 2.3920996,0.07567 V 62.19371 c 0,-0.02328 -0.014552,-0.03784 -0.037835,-0.03784 H 7.7827952 c -0.011642,0 -0.017463,0.0058 -0.017463,0.01746 v 0.01746 c -0.00291,0.04948 -0.00291,0.13679 -0.017462,0.221192 -0.014552,0.08731 -0.043656,0.145521 -0.081492,0.165894 -0.00291,0 -0.00291,0 -0.00582,0 -0.026194,0.01455 -0.064029,0.01746 -0.1105959,0.01746 -0.1542523,0 -0.2066399,-0.06694 -0.2066399,-0.20955 v -1.047752 c 0,-0.145521 0.052388,-0.20955 0.2066399,-0.20955 0.046567,0 0.084402,0.0029 0.1105959,0.01746 0.00291,0 0.00291,0 0.00582,0 0.037835,0.02037 0.064029,0.0844 0.078581,0.171714 0.014552,0.0844 0.014552,0.174626 0.014552,0.221192 v 0.01746 c 0,0.01164 0.00582,0.01746 0.017462,0.01746 l 0.2881316,-0.0058 c 0.023283,0 0.037835,-0.01455 0.037835,-0.03784 v -0.270669 c 0,-0.229923 -0.1397002,-0.465667 -0.436563,-0.465667 H 7.4364552 c -0.2939524,0 -0.4394734,0.235744 -0.4394734,0.465667 v 1.202003 c 0,0.232834 0.145521,0.468578 0.4394734,0.468578 h 0.2299232 c 0.2968628,0 0.436563,-0.235744 0.436563,-0.468578 z m 1.0503948,-0.809096 0.098954,0.477309 H 9.0485611 Z m 0.582084,1.274764 c 0.029104,0 0.043656,-0.01746 0.037835,-0.04657 l -0.451115,-2.060577 c -0.00291,-0.01746 -0.017463,-0.02911 -0.034925,-0.02911 H 9.0223673 c -0.017463,0 -0.032015,0.01164 -0.034925,0.02911 l -0.4540255,2.060577 c -0.00582,0.0291 0.00873,0.04657 0.037835,0.04657 h 0.2794003 c 0.020373,0 0.034925,-0.01164 0.037835,-0.0291 l 0.087313,-0.433652 h 0.3550712 l 0.087313,0.433652 c 0.00291,0.01746 0.017463,0.0291 0.037835,0.0291 z m 0.8204708,-0.331788 -0.0029,-1.763715 c 0,-0.02328 -0.01455,-0.03783 -0.03784,-0.03783 h -0.264848 c -0.02328,0 -0.03783,0.01455 -0.03783,0.03783 l -0.0058,2.060578 c 0,0.02328 0.01455,0.03783 0.03784,0.03783 h 0.910962 c 0.02328,0 0.03783,-0.01455 0.03783,-0.03783 v -0.259028 c 0,-0.02328 -0.01455,-0.03784 -0.03783,-0.03784 z m 2.080685,-1.763715 c 0,-0.02328 -0.01455,-0.03783 -0.03783,-0.03783 h -0.908052 c -0.02328,0 -0.03784,0.01455 -0.03784,0.03783 l 0.0029,2.060578 c 0,0.02328 0.01455,0.03783 0.03784,0.03783 h 0.905141 c 0.02328,0 0.03783,-0.01455 0.03783,-0.03783 v -0.256117 c 0,-0.02328 -0.01455,-0.03784 -0.03783,-0.03784 l -0.599547,-0.0029 v -0.567532 h 0.430742 c 0.02328,0 0.03784,-0.01455 0.03784,-0.03784 v -0.256117 c 0,-0.02328 -0.01455,-0.03784 -0.03784,-0.03784 h -0.430742 v -0.570442 h 0.599547 c 0.02328,0 0.03783,-0.01455 0.03783,-0.03784 z"
       id="path26" /><path
       style="text-align:center;text-anchor:middle"
       d="m 5.559495,65.415545 c 0,0.04657 -0.040746,0.09022 -0.087313,0.09022 h -0.270669 v -1.466852 h 0.270669 c 0.046567,0 0.087313,0.04075 0.087313,0.09022 z M 4.8784568,63.707128 c -0.011642,0 -0.020373,0.0087 -0.020373,0.01746 v 2.089681 c 0,0.01164 0.00873,0.02037 0.020373,0.02037 h 0.017462 c 0.2153711,0.0029 0.4278317,0.0058 0.6432028,0.0058 0.2153711,0 0.3638025,-0.171715 0.3638025,-0.355071 v -1.426106 c 0,-0.183356 -0.1484314,-0.355071 -0.3638025,-0.355071 -0.2153711,0 -0.4278317,0.0029 -0.6432028,0.0029 z m 2.4997846,0.03493 c 0,-0.02328 -0.014552,-0.03784 -0.037835,-0.03784 H 6.432355 c -0.023283,0 -0.037835,0.01455 -0.037835,0.03784 l 0.00291,2.060578 c 0,0.02328 0.014552,0.03784 0.037835,0.03784 H 7.340406 c 0.023283,0 0.037835,-0.01455 0.037835,-0.03784 v -0.256117 c 0,-0.02328 -0.014552,-0.03784 -0.037835,-0.03784 l -0.5995465,-0.0029 v -0.567532 h 0.4307421 c 0.023283,0 0.037835,-0.01455 0.037835,-0.03784 v -0.256117 c 0,-0.02328 -0.014552,-0.03784 -0.037835,-0.03784 H 6.7408595 V 64.036006 H 7.340406 c 0.023283,0 0.037835,-0.01455 0.037835,-0.03784 z m 1.5713637,0.948797 c 0,-0.02328 -0.014552,-0.03784 -0.037835,-0.03784 H 8.3704315 c -0.023283,0 -0.037835,0.01455 -0.037835,0.03784 v 0.261938 c 0,0.02328 0.014552,0.03784 0.037835,0.03784 l 0.235744,-0.0029 v 0.308504 c 0,0.174626 -0.026194,0.209551 -0.2095502,0.209551 -0.1542523,0 -0.2066398,-0.06694 -0.2066398,-0.209551 v -1.047751 c 0,-0.145521 0.052388,-0.20955 0.2066398,-0.20955 0.052388,0 0.093133,0.0029 0.1222376,0.02328 0.037835,0.02328 0.061119,0.08731 0.07276,0.171715 0.014552,0.07858 0.014552,0.162984 0.014552,0.20955 v 0.01746 c 0,0.01164 0.00582,0.01746 0.017462,0.01746 h 0.2881316 c 0.023283,0 0.037835,-0.01455 0.037835,-0.03784 v -0.270669 c 0,-0.229923 -0.1397002,-0.465667 -0.436563,-0.465667 H 8.2831189 c -0.2939524,0 -0.4394734,0.235744 -0.4394734,0.465667 v 1.190362 c 0,0.227012 0.145521,0.480219 0.4394734,0.480219 h 0.2299232 c 0.2968628,0 0.436563,-0.235744 0.436563,-0.468578 z M 10.087313,63.704218 H 9.4382891 c -0.023283,0 -0.037835,0.01455 -0.037835,0.03784 l 0.00291,2.060578 c 0,0.02328 0.014552,0.03784 0.037835,0.03784 h 0.2677587 c 0.023283,0 0.037835,-0.01455 0.037835,-0.03784 v -0.704322 h 0.1222377 l 0.2590277,0.715963 c 0.0058,0.01746 0.02037,0.02619 0.03492,0.02619 h 0.256117 c 0.03201,0 0.04657,-0.02037 0.03493,-0.04948 l -0.241565,-0.715963 c 0.174625,-0.05821 0.235744,-0.218282 0.235744,-0.369624 v -0.649023 c 0,-0.183357 -0.145521,-0.352161 -0.360892,-0.352161 z m -0.06694,0.334698 c 0.04366,0 0.0844,0.03784 0.0844,0.08731 v 0.547159 c 0,0.04948 -0.03783,0.09022 -0.0844,0.09022 H 9.7467936 v -0.724695 z m 1.914794,-0.296863 c 0,-0.02328 -0.01455,-0.03784 -0.03784,-0.03784 H 10.98928 c -0.02328,0 -0.03784,0.01455 -0.03784,0.03784 l 0.0029,2.060578 c 0,0.02328 0.01455,0.03784 0.03784,0.03784 h 0.90514 c 0.02328,0 0.03784,-0.01455 0.03784,-0.03784 v -0.256117 c 0,-0.02328 -0.01455,-0.03784 -0.03784,-0.03784 l -0.599546,-0.0029 v -0.567532 h 0.430742 c 0.02328,0 0.03784,-0.01455 0.03784,-0.03784 v -0.256117 c 0,-0.02328 -0.01455,-0.03784 -0.03784,-0.03784 h -0.430742 v -0.570442 h 0.599546 c 0.02328,0 0.03784,-0.01455 0.03784,-0.03784 z m 1.47241,0 c 0,-0.02328 -0.01455,-0.03784 -0.03784,-0.03784 H 12.46169 c -0.02328,0 -0.03784,0.01455 -0.03784,0.03784 l 0.0029,2.060578 c 0,0.02328 0.01455,0.03784 0.03784,0.03784 h 0.90514 c 0.02328,0 0.03784,-0.01455 0.03784,-0.03784 v -0.256117 c 0,-0.02328 -0.01455,-0.03784 -0.03784,-0.03784 l -0.599546,-0.0029 v -0.567532 h 0.430742 c 0.02328,0 0.03784,-0.01455 0.03784,-0.03784 v -0.256117 c 0,-0.02328 -0.01455,-0.03784 -0.03784,-0.03784 h -0.430742 v -0.570442 h 0.599546 c 0.02328,0 0.03784,-0.01455 0.03784,-0.03784 z"
       id="path27" /></g><path
     style="font-size:2.91042px;line-height:0;font-family:'Autogate Sans';-inkscape-font-specification:'Autogate Sans';text-align:center;letter-spacing:0.15875px;text-anchor:middle;fill:#4c4c4c;stroke-width:0.264583"
     d="m 7.7427272,33.873201 c -0.023283,0 -0.037835,0.01455 -0.037835,0.03784 l -0.00291,2.060578 c 0,0.02328 0.014552,0.03783 0.037835,0.03783 h 0.2735794 c 0.023283,0 0.037835,-0.01455 0.037835,-0.03783 v -0.701412 h 0.3026837 c 0.2677586,0 0.3987275,-0.171714 0.3987275,-0.395817 v -0.649023 c 0,-0.183357 -0.145521,-0.352161 -0.3608921,-0.352161 z m 0.582084,0.334698 c 0.043656,0 0.084402,0.04075 0.084402,0.08731 v 0.550069 c 0,0.04948 -0.040746,0.09022 -0.084402,0.09022 H 8.0512317 v -0.727605 z m 1.1279183,-0.296863 c 0,-0.02328 -0.014552,-0.03784 -0.037835,-0.03784 H 9.1384041 c -0.023283,0 -0.037835,0.01455 -0.037835,0.03784 v 2.060578 c 0,0.02328 0.014552,0.03783 0.037835,0.03783 H 9.414894 c 0.023283,0 0.037835,-0.01455 0.037835,-0.03783 z m 1.5586645,0 c 0,-0.02328 -0.01455,-0.03784 -0.03784,-0.03784 H 9.8617781 c -0.023283,0 -0.037835,0.01455 -0.037835,0.03784 v 0.261938 c 0,0.02328 0.014552,0.03783 0.037835,0.03783 l 0.3841759,-0.0058 v 1.766625 c 0,0.02328 0.01455,0.03783 0.03784,0.03783 h 0.270669 c 0.02328,0 0.03783,-0.01455 0.03783,-0.03783 v -1.766625 h 0.381265 c 0.02328,0 0.03784,-0.01455 0.03784,-0.03784 z m 1.430604,1.629835 v -0.267758 c 0,-0.02328 -0.01455,-0.03784 -0.03784,-0.03784 h -0.28231 c -0.01164,0 -0.01746,0.0058 -0.01746,0.01746 v 0.01746 c -0.0029,0.04948 -0.0029,0.13679 -0.01746,0.221192 -0.01455,0.08731 -0.04366,0.145521 -0.08149,0.165894 -0.0029,0 -0.0029,0 -0.0058,0 -0.02619,0.01455 -0.06403,0.01746 -0.110596,0.01746 -0.154252,0 -0.20664,-0.06694 -0.20664,-0.209551 v -1.047751 c 0,-0.145521 0.05239,-0.20955 0.20664,-0.20955 0.04657,0 0.0844,0.0029 0.110596,0.01746 0.0029,0 0.0029,0 0.0058,0 0.03783,0.02037 0.06403,0.0844 0.07858,0.171714 0.01455,0.0844 0.01455,0.174626 0.01455,0.221192 v 0.01746 c 0,0.01164 0.0058,0.01746 0.01746,0.01746 l 0.288131,-0.0058 c 0.02328,0 0.03784,-0.01455 0.03784,-0.03783 v -0.270669 c 0,-0.229923 -0.1397,-0.465667 -0.436563,-0.465667 h -0.229923 c -0.293953,0 -0.439474,0.235744 -0.439474,0.465667 v 1.202003 c 0,0.232834 0.145521,0.468578 0.439474,0.468578 h 0.229923 c 0.296863,0 0.436563,-0.235744 0.436563,-0.468578 z m 0.388672,-1.66767 c -0.02328,0 -0.03783,0.01455 -0.03783,0.03784 v 2.060578 c 0,0.02328 0.01455,0.03783 0.03783,0.03783 h 0.27649 c 0.02328,0 0.03783,-0.01455 0.03783,-0.03783 l -0.0058,-0.864395 h 0.497682 v 0.864395 c 0,0.02328 0.01455,0.03783 0.03784,0.03783 h 0.270669 c 0.02328,0 0.03783,-0.01455 0.03783,-0.03783 l -0.0029,-2.060578 c 0,-0.02328 -0.01455,-0.03784 -0.03784,-0.03784 h -0.273579 c -0.02328,0 -0.03784,0.01455 -0.03784,0.03784 l 0.0058,0.864395 h -0.497682 l 0.0029,-0.864395 c 0,-0.02328 -0.01455,-0.03784 -0.03784,-0.03784 z m 2.395542,0 c -0.02328,0 -0.03784,0.01455 -0.03784,0.03784 v 2.060578 c 0,0.02328 0.01455,0.03783 0.03784,0.03783 h 0.649024 c 0.215371,0 0.360892,-0.168804 0.360892,-0.352161 v -0.532607 c 0,-0.06694 -0.01455,-0.128058 -0.04948,-0.183356 0.03492,-0.05821 0.04948,-0.119327 0.04948,-0.183357 v -0.532606 c 0,-0.183357 -0.145521,-0.352161 -0.360892,-0.352161 z m 0.582084,0.334698 c 0.04366,0 0.0844,0.04075 0.0844,0.08731 v 0.389996 c 0,0.04657 -0.04075,0.09022 -0.0844,0.09022 h -0.273579 v -0.567532 z m 0.0844,1.379539 c 0,0.04366 -0.04075,0.08731 -0.0844,0.08731 h -0.273579 v -0.567532 h 0.273579 c 0.04366,0 0.0844,0.04075 0.0844,0.09022 z m 1.704183,-1.676402 c 0,-0.02328 -0.01455,-0.03784 -0.03784,-0.03784 h -0.908051 c -0.02328,0 -0.03784,0.01455 -0.03784,0.03784 l 0.0029,2.060578 c 0,0.02328 0.01455,0.03783 0.03784,0.03783 h 0.905141 c 0.02328,0 0.03784,-0.01455 0.03784,-0.03783 v -0.256117 c 0,-0.02328 -0.01455,-0.03784 -0.03784,-0.03784 l -0.599546,-0.0029 v -0.567532 h 0.430742 c 0.02328,0 0.03784,-0.01455 0.03784,-0.03784 v -0.256117 c 0,-0.02328 -0.01455,-0.03784 -0.03784,-0.03784 h -0.430742 v -0.570442 h 0.599546 c 0.02328,0 0.03784,-0.01455 0.03784,-0.03784 z m 0.726284,-0.01455 c -0.0058,-0.01455 -0.01746,-0.02328 -0.03493,-0.02328 h -0.264848 c -0.02328,0 -0.03784,0.01455 -0.03784,0.03784 l 0.0029,2.060578 c 0,0.02328 0.01455,0.03783 0.03784,0.03783 h 0.27649 c 0.02328,0 0.03784,-0.01455 0.03784,-0.03783 l -0.0058,-1.202004 0.512234,1.216556 c 0.0058,0.01455 0.01746,0.02328 0.03492,0.02328 h 0.259027 c 0.02328,0 0.03784,-0.01455 0.03784,-0.03783 v -2.060578 c 0,-0.02328 -0.01455,-0.03784 -0.03784,-0.03784 h -0.270669 c -0.02328,0 -0.03784,0.01455 -0.03784,0.03784 l 0.0029,1.202004 z m 1.97776,1.688044 c 0,0.04657 -0.04075,0.09022 -0.08731,0.09022 h -0.270669 v -1.466852 h 0.270669 c 0.04657,0 0.08731,0.04075 0.08731,0.09022 z m -0.681038,-1.708417 c -0.01164,0 -0.02037,0.0087 -0.02037,0.01746 v 2.089681 c 0,0.01164 0.0087,0.02037 0.02037,0.02037 h 0.01746 c 0.215371,0.0029 0.427831,0.0058 0.643202,0.0058 0.215371,0 0.363803,-0.171715 0.363803,-0.355071 v -1.426106 c 0,-0.183356 -0.148432,-0.355071 -0.363803,-0.355071 -0.215371,0 -0.427831,0.0029 -0.643202,0.0029 z m 2.875759,-0.0029 h -0.649024 c -0.02328,0 -0.03784,0.01455 -0.03784,0.03784 l 0.0029,2.060578 c 0,0.02328 0.01455,0.03783 0.03784,0.03783 h 0.267759 c 0.02328,0 0.03784,-0.01455 0.03784,-0.03783 v -0.704322 h 0.122237 l 0.259028,0.715963 c 0.0058,0.01746 0.02037,0.02619 0.03493,0.02619 h 0.256117 c 0.03201,0 0.04657,-0.02037 0.03493,-0.04948 l -0.241565,-0.715963 c 0.174625,-0.05821 0.235744,-0.218282 0.235744,-0.369624 v -0.649023 c 0,-0.183357 -0.145521,-0.352161 -0.360892,-0.352161 z m -0.06694,0.334698 c 0.04366,0 0.0844,0.03784 0.0844,0.08731 v 0.547159 c 0,0.04948 -0.03783,0.09022 -0.0844,0.09022 h -0.273579 v -0.724695 z m 1.427695,0.523876 0.09895,0.477309 h -0.203729 z m 0.582084,1.274764 c 0.0291,0 0.04366,-0.01746 0.03784,-0.04657 l -0.451115,-2.060577 c -0.0029,-0.01746 -0.01746,-0.02911 -0.03493,-0.02911 h -0.264848 c -0.01746,0 -0.03202,0.01164 -0.03493,0.02911 l -0.454026,2.060577 c -0.0058,0.0291 0.0087,0.04657 0.03784,0.04657 h 0.2794 c 0.02037,0 0.03493,-0.01164 0.03784,-0.0291 l 0.08731,-0.433652 h 0.355071 l 0.08731,0.433652 c 0.0029,0.01746 0.01746,0.0291 0.03784,0.0291 z m 0.697175,-2.110055 c -0.0058,-0.01455 -0.01746,-0.02328 -0.03493,-0.02328 h -0.264849 c -0.02328,0 -0.03783,0.01455 -0.03783,0.03784 l 0.0029,2.060578 c 0,0.02328 0.01455,0.03783 0.03784,0.03783 h 0.27649 c 0.02328,0 0.03784,-0.01455 0.03784,-0.03783 l -0.0058,-1.202004 0.512234,1.216556 c 0.0058,0.01455 0.01746,0.02328 0.03492,0.02328 h 0.259028 c 0.02328,0 0.03784,-0.01455 0.03784,-0.03783 v -2.060578 c 0,-0.02328 -0.01455,-0.03784 -0.03784,-0.03784 h -0.27067 c -0.02328,0 -0.03784,0.01455 -0.03784,0.03784 l 0.0029,1.202004 z m 2.385219,0.963349 c 0,-0.02328 -0.01455,-0.03784 -0.03784,-0.03784 h -0.541338 c -0.02328,0 -0.03784,0.01455 -0.03784,0.03784 v 0.261938 c 0,0.02328 0.01455,0.03783 0.03784,0.03783 l 0.235744,-0.0029 V 35.4652 c 0,0.174626 -0.02619,0.209551 -0.20955,0.209551 -0.154253,0 -0.20664,-0.06694 -0.20664,-0.209551 v -1.047751 c 0,-0.145521 0.05239,-0.20955 0.20664,-0.20955 0.05239,0 0.09313,0.0029 0.122237,0.02328 0.03784,0.02328 0.06112,0.08731 0.07276,0.171715 0.01455,0.07858 0.01455,0.162984 0.01455,0.20955 v 0.01746 c 0,0.01164 0.0058,0.01746 0.01746,0.01746 h 0.288132 c 0.02328,0 0.03784,-0.01455 0.03784,-0.03783 v -0.270669 c 0,-0.229923 -0.1397,-0.465667 -0.436563,-0.465667 h -0.229923 c -0.293952,0 -0.439473,0.235744 -0.439473,0.465667 v 1.190362 c 0,0.227012 0.145521,0.480219 0.439473,0.480219 h 0.229923 c 0.296863,0 0.436563,-0.235744 0.436563,-0.468578 z m 1.296724,-0.948797 c 0,-0.02328 -0.01455,-0.03784 -0.03784,-0.03784 h -0.908051 c -0.02328,0 -0.03783,0.01455 -0.03783,0.03784 l 0.0029,2.060578 c 0,0.02328 0.01455,0.03783 0.03784,0.03783 h 0.90514 c 0.02328,0 0.03784,-0.01455 0.03784,-0.03783 v -0.256117 c 0,-0.02328 -0.01455,-0.03784 -0.03784,-0.03784 l -0.599546,-0.0029 v -0.567532 h 0.430742 c 0.02328,0 0.03783,-0.01455 0.03783,-0.03784 v -0.256117 c 0,-0.02328 -0.01455,-0.03784 -0.03783,-0.03784 h -0.430742 v -0.570442 h 0.599546 c 0.02328,0 0.03784,-0.01455 0.03784,-0.03784 z"
     id="text106"
     aria-label="PITCH BEND RANGE" /><g
     id="g120"
     transform="translate(0,-47.999999)"><path
       d="M 33.911888,77.824051 H 3.9277398 c -0.194247,0 -0.370195,-0.0785 -0.497581,-0.20585 -0.127387,-0.12739 -0.206211,-0.30334 -0.206211,-0.49794"
       fill-opacity="0"
       stroke="#969f96"
       stroke-width="0.351895"
       id="path119"
       sodipodi:nodetypes="cscc" /><path
       d="m 21.458609,77.824051 h 30.493653 c 0.194246,0 0.370194,-0.0785 0.497581,-0.20585 0.127387,-0.12739 0.206211,-0.30334 0.206211,-0.49794"
       fill-opacity="0"
       stroke="#969f96"
       stroke-width="0.351895"
       id="path120"
       sodipodi:nodetypes="cscc" /></g><path
     style="font-size:2.91042px;line-height:1.8;font-family:'Autogate Sans';-inkscape-font-specification:'Autogate Sans';text-align:center;letter-spacing:0.264583px;text-anchor:middle;fill:#4c4c4c;stroke-width:0.264583"
     d="m 23.864619,13.150444 -0.0029,-1.763714 c 0,-0.02328 -0.01455,-0.03784 -0.03784,-0.03784 h -0.264848 c -0.02328,0 -0.03784,0.01455 -0.03784,0.03784 l -0.0058,2.060577 c 0,0.02328 0.01455,0.03784 0.03784,0.03784 h 0.910962 c 0.02328,0 0.03784,-0.01455 0.03784,-0.03784 V 13.18828 c 0,-0.02328 -0.01455,-0.03784 -0.03784,-0.03784 z m 1.713974,-0.942976 0.09895,0.477309 h -0.203729 z m 0.582084,1.274764 c 0.0291,0 0.04366,-0.01746 0.03784,-0.04657 l -0.451116,-2.060578 c -0.0029,-0.01746 -0.01746,-0.0291 -0.03492,-0.0291 h -0.264848 c -0.01746,0 -0.03201,0.01164 -0.03493,0.0291 l -0.454025,2.060578 c -0.0058,0.0291 0.0087,0.04657 0.03784,0.04657 h 0.2794 c 0.02037,0 0.03493,-0.01164 0.03784,-0.0291 l 0.08731,-0.433652 h 0.355072 l 0.08731,0.433652 c 0.0029,0.01746 0.01746,0.0291 0.03784,0.0291 z m 0.663311,-0.03492 c 0,0.02328 0.01455,0.03784 0.03784,0.03784 h 0.270669 c 0.02328,0 0.03784,-0.01455 0.03784,-0.03784 v -0.55589 c 0,-0.0553 -0.0058,-0.09604 -0.0087,-0.1397 -0.0029,-0.04366 -0.0029,-0.08149 0.0087,-0.133879 0.01746,-0.07858 0.03492,-0.139701 0.05821,-0.197909 0.02619,-0.06403 0.0553,-0.125148 0.08149,-0.20664 l 0.285221,-0.814917 c 0.01164,-0.0291 -0.0029,-0.04948 -0.03492,-0.04948 h -0.276489 c -0.01455,0 -0.02911,0.01164 -0.03493,0.02619 l -0.250296,0.747978 -0.250296,-0.747978 c -0.0058,-0.01455 -0.02037,-0.02619 -0.03493,-0.02619 h -0.282311 c -0.03201,0 -0.04657,0.02037 -0.03492,0.04948 l 0.285222,0.814917 c 0.02619,0.08149 0.0553,0.142611 0.08149,0.20664 0.02328,0.05821 0.04366,0.119327 0.06112,0.197909 0.01164,0.05239 0.01164,0.09022 0.0087,0.133879 -0.0029,0.04366 -0.0087,0.0844 -0.0087,0.1397 z m 1.641213,0.03784 h 0.229923 c 0.296863,0 0.436563,-0.235744 0.436563,-0.468578 v -1.202003 c 0,-0.229924 -0.1397,-0.465668 -0.436563,-0.465668 h -0.229923 c -0.293953,0 -0.439474,0.235744 -0.439474,0.465668 v 1.202003 c 0,0.232834 0.145521,0.468578 0.439474,0.468578 z m -0.09313,-1.592 c 0,-0.145521 0.05239,-0.20955 0.20664,-0.20955 0.183357,0 0.20955,0.03492 0.20955,0.20955 v 1.047751 c 0,0.174625 -0.02619,0.20955 -0.20955,0.20955 -0.154252,0 -0.20664,-0.06694 -0.20664,-0.20955 z m 2.298963,1.123422 0.0029,-1.629835 c 0,-0.02328 -0.01455,-0.03784 -0.03784,-0.03784 h -0.270669 c -0.02328,0 -0.03784,0.01455 -0.03784,0.03784 v 1.554164 c 0,0.174625 -0.02619,0.20955 -0.20955,0.20955 -0.154252,0 -0.20664,-0.06694 -0.20664,-0.20955 l 0.0029,-1.554164 c 0,-0.02328 -0.01455,-0.03784 -0.03784,-0.03784 h -0.270669 c -0.02328,0 -0.03784,0.01455 -0.03784,0.03784 l -0.0029,1.629835 c 0,0.229923 0.142611,0.468578 0.436563,0.468578 h 0.232834 c 0.293952,0 0.436563,-0.238655 0.436563,-0.468578 z m 1.6936,-1.629835 c 0,-0.02328 -0.01455,-0.03784 -0.03784,-0.03784 h -1.111781 c -0.02328,0 -0.03784,0.01455 -0.03784,0.03784 v 0.261938 c 0,0.02328 0.01455,0.03783 0.03784,0.03783 l 0.384176,-0.0058 v 1.766625 c 0,0.02328 0.01455,0.03784 0.03784,0.03784 h 0.270669 c 0.02328,0 0.03784,-0.01455 0.03784,-0.03784 v -1.766625 h 0.381265 c 0.02328,0 0.03784,-0.01455 0.03784,-0.03783 z"
     id="text120"
     aria-label="layout" /><path
     d="M 22.25056,12.100922 H 3.9277398 c -0.194246,0 -0.370194,0.0785 -0.497581,0.20585 -0.127387,0.12739 -0.206211,0.30334 -0.206211,0.49794"
     fill-opacity="0"
     stroke="#969f96"
     stroke-width="0.351895"
     id="path121"
     sodipodi:nodetypes="cscc" /><path
     d="m 33.629442,12.100922 h 18.32282 c 0.194246,0 0.370194,0.0785 0.497581,0.20585 0.127387,0.12739 0.206211,0.30334 0.206211,0.49794"
     fill-opacity="0"
     stroke="#969f96"
     stroke-width="0.351895"
     id="path125"
     sodipodi:nodetypes="cscc" /><g
     id="g163"><path
       d="M 16.449388,52.324051 H 3.9277398 c -0.194247,0 -0.370195,-0.0785 -0.497581,-0.20585 -0.127387,-0.12739 -0.206211,-0.30334 -0.206211,-0.49794"
       fill-opacity="0"
       stroke="#969f96"
       stroke-width="0.351895"
       id="path134"
       sodipodi:nodetypes="cscc" /><path
       d="m 15.307694,52.324051 h 17.284152 c 0.194247,0 0.370195,-0.0785 0.497581,-0.20585 0.127387,-0.12739 0.206211,-0.30334 0.206211,-0.49794"
       fill-opacity="0"
       stroke="#969f96"
       stroke-width="0.351895"
       id="path135"
       sodipodi:nodetypes="cscc" /></g><g
     id="g160"
     transform="translate(2.2129914)"><path
       style="font-size:2.91042px;line-height:1.8;font-family:'Autogate Sans';-inkscape-font-specification:'Autogate Sans';text-align:center;letter-spacing:0.264583px;text-anchor:middle;fill:#4c4c4c;stroke-width:0.264583"
       d="m 6.5415011,47.451763 c -0.00582,-0.01455 -0.017462,-0.02328 -0.034925,-0.02328 H 6.2417278 c -0.023283,0 -0.037835,0.01455 -0.037835,0.03784 l 0.00291,2.060577 c 0,0.02328 0.014552,0.03784 0.037835,0.03784 h 0.2764899 c 0.023283,0 0.037835,-0.01455 0.037835,-0.03784 l -0.00582,-1.202003 0.5122339,1.216555 c 0.00582,0.01455 0.017462,0.02328 0.034925,0.02328 h 0.2590274 c 0.023283,0 0.037835,-0.01455 0.037835,-0.03784 v -2.060577 c 0,-0.02328 -0.014552,-0.03784 -0.037835,-0.03784 H 7.08866 c -0.023283,0 -0.037835,0.01455 -0.037835,0.03784 l 0.00291,1.202003 z m 1.8245665,2.112965 h 0.2299232 c 0.2968628,0 0.436563,-0.235744 0.436563,-0.468578 v -1.202003 c 0,-0.229923 -0.1397002,-0.465667 -0.436563,-0.465667 H 8.3660676 c -0.2939524,0 -0.4394734,0.235744 -0.4394734,0.465667 v 1.202003 c 0,0.232834 0.145521,0.468578 0.4394734,0.468578 z m -0.093133,-1.592 c 0,-0.145521 0.052388,-0.20955 0.2066399,-0.20955 0.1833564,0 0.2095502,0.03492 0.2095502,0.20955 v 1.047751 c 0,0.174625 -0.026194,0.20955 -0.2095502,0.20955 -0.1542523,0 -0.2066399,-0.06694 -0.2066399,-0.20955 z M 10.63011,47.466315 c 0,-0.02328 -0.01455,-0.03784 -0.03784,-0.03784 h -1.11178 c -0.023283,0 -0.037835,0.01455 -0.037835,0.03784 v 0.261938 c 0,0.02328 0.014552,0.03784 0.037835,0.03784 l 0.3841755,-0.0058 v 1.766625 c 0,0.02328 0.014552,0.03784 0.037835,0.03784 h 0.2706691 c 0.02328,0 0.03784,-0.01455 0.03784,-0.03784 v -1.766625 h 0.381265 c 0.02328,0 0.03784,-0.01455 0.03784,-0.03784 z m 1.422928,0 c 0,-0.02328 -0.01455,-0.03784 -0.03784,-0.03784 h -0.908051 c -0.02328,0 -0.03783,0.01455 -0.03783,0.03784 l 0.0029,2.060577 c 0,0.02328 0.01455,0.03784 0.03784,0.03784 h 0.90514 c 0.02328,0 0.03784,-0.01455 0.03784,-0.03784 v -0.256117 c 0,-0.02328 -0.01455,-0.03784 -0.03784,-0.03784 l -0.599546,-0.0029 v -0.567531 h 0.430742 c 0.02328,0 0.03784,-0.01455 0.03784,-0.03784 v -0.256117 c 0,-0.02328 -0.01455,-0.03783 -0.03784,-0.03783 h -0.430742 v -0.570443 h 0.599546 c 0.02328,0 0.03784,-0.01455 0.03784,-0.03784 z"
       id="text108"
       aria-label="NOTE" /><path
       style="font-size:2.91042px;line-height:1.8;font-family:'Autogate Sans';-inkscape-font-specification:'Autogate Sans';text-align:center;letter-spacing:0.264583px;text-anchor:middle;fill:#4c4c4c;stroke-width:0.264583"
       d="m 18.300663,48.415112 c 0,-0.02328 -0.01455,-0.03784 -0.03784,-0.03784 H 17.72149 c -0.02328,0 -0.03784,0.01455 -0.03784,0.03784 v 0.261938 c 0,0.02328 0.01455,0.03784 0.03784,0.03784 l 0.235744,-0.0029 v 0.308504 c 0,0.174625 -0.02619,0.20955 -0.209551,0.20955 -0.154252,0 -0.206639,-0.06694 -0.206639,-0.20955 v -1.047751 c 0,-0.145521 0.05239,-0.20955 0.206639,-0.20955 0.05239,0 0.09313,0.0029 0.122238,0.02328 0.03783,0.02328 0.06112,0.08731 0.07276,0.171715 0.01455,0.07858 0.01455,0.162983 0.01455,0.20955 v 0.01746 c 0,0.01164 0.0058,0.01746 0.01746,0.01746 h 0.288132 c 0.02328,0 0.03784,-0.01455 0.03784,-0.03784 v -0.270669 c 0,-0.229923 -0.1397,-0.465667 -0.436563,-0.465667 h -0.229923 c -0.293952,0 -0.439473,0.235744 -0.439473,0.465667 v 1.190361 c 0,0.227013 0.145521,0.48022 0.439473,0.48022 H 17.8641 c 0.296863,0 0.436563,-0.235744 0.436563,-0.468578 z m 0.779726,0.814917 -0.0029,-1.763714 c 0,-0.02328 -0.01455,-0.03784 -0.03784,-0.03784 h -0.264848 c -0.02328,0 -0.03784,0.01455 -0.03784,0.03784 l -0.0058,2.060577 c 0,0.02328 0.01455,0.03784 0.03784,0.03784 h 0.910961 c 0.02328,0 0.03784,-0.01455 0.03784,-0.03784 v -0.259027 c 0,-0.02328 -0.01455,-0.03784 -0.03784,-0.03784 z m 1.527707,0.334699 h 0.229923 c 0.296863,0 0.436563,-0.235744 0.436563,-0.468578 v -1.202003 c 0,-0.229923 -0.1397,-0.465667 -0.436563,-0.465667 h -0.229923 c -0.293952,0 -0.439473,0.235744 -0.439473,0.465667 v 1.202003 c 0,0.232834 0.145521,0.468578 0.439473,0.468578 z m -0.09313,-1.592 c 0,-0.145521 0.05239,-0.20955 0.20664,-0.20955 0.183356,0 0.20955,0.03492 0.20955,0.20955 v 1.047751 c 0,0.174625 -0.02619,0.20955 -0.20955,0.20955 -0.154253,0 -0.20664,-0.06694 -0.20664,-0.20955 z m 1.254124,-0.544248 c -0.02328,0 -0.03783,0.01455 -0.03783,0.03784 v 2.060577 c 0,0.02328 0.01455,0.03784 0.03783,0.03784 h 0.649024 c 0.215371,0 0.360892,-0.168805 0.360892,-0.352161 V 48.67996 c 0,-0.06694 -0.01455,-0.128058 -0.04948,-0.183356 0.03493,-0.05821 0.04948,-0.119328 0.04948,-0.183357 V 47.78064 c 0,-0.183356 -0.145521,-0.35216 -0.360892,-0.35216 z m 0.582084,0.334698 c 0.04366,0 0.0844,0.04075 0.0844,0.08731 v 0.389997 c 0,0.04657 -0.04075,0.09022 -0.0844,0.09022 h -0.273579 v -0.567532 z m 0.0844,1.379539 c 0,0.04366 -0.04075,0.08731 -0.0844,0.08731 h -0.273579 v -0.567531 h 0.273579 c 0.04366,0 0.0844,0.04075 0.0844,0.09022 z m 1.4142,-0.855664 0.09895,0.477309 h -0.203729 z m 0.582084,1.274764 c 0.0291,0 0.04366,-0.01746 0.03784,-0.04657 l -0.451115,-2.060578 c -0.0029,-0.01746 -0.01746,-0.0291 -0.03493,-0.0291 h -0.264848 c -0.01746,0 -0.03202,0.01164 -0.03493,0.0291 l -0.454026,2.060578 c -0.0058,0.0291 0.0087,0.04657 0.03784,0.04657 h 0.2794 c 0.02037,0 0.03492,-0.01164 0.03783,-0.0291 l 0.08731,-0.433652 h 0.355071 l 0.08731,0.433652 c 0.0029,0.01746 0.01746,0.0291 0.03783,0.0291 z m 0.820471,-0.331788 -0.0029,-1.763714 c 0,-0.02328 -0.01455,-0.03784 -0.03783,-0.03784 h -0.264849 c -0.02328,0 -0.03783,0.01455 -0.03783,0.03784 l -0.0058,2.060577 c 0,0.02328 0.01455,0.03784 0.03784,0.03784 h 0.910961 c 0.02328,0 0.03784,-0.01455 0.03784,-0.03784 v -0.259027 c 0,-0.02328 -0.01455,-0.03784 -0.03784,-0.03784 z"
       id="text137"
       aria-label="GLOBAL&#10;" /></g><path
     style="font-size:2.91042px;line-height:1.8;font-family:'Autogate Sans';-inkscape-font-specification:'Autogate Sans';text-align:center;letter-spacing:0.185208px;text-anchor:middle;fill:#4c4c4c;stroke-width:0.264583"
     d="M 40.637454,47.42848 H 39.98843 c -0.02328,0 -0.03784,0.01455 -0.03784,0.03784 l 0.0029,2.060577 c 0,0.02328 0.01455,0.03784 0.03784,0.03784 h 0.267759 c 0.02328,0 0.03784,-0.01455 0.03784,-0.03784 v -0.704321 h 0.122238 l 0.259027,0.715963 c 0.0058,0.01746 0.02037,0.02619 0.03493,0.02619 h 0.256116 c 0.03202,0 0.04657,-0.02037 0.03493,-0.04948 l -0.241565,-0.715964 c 0.174625,-0.05821 0.235744,-0.218281 0.235744,-0.369623 V 47.78064 c 0,-0.183356 -0.145521,-0.35216 -0.360892,-0.35216 z m -0.06694,0.334698 c 0.04366,0 0.0844,0.03783 0.0844,0.08731 v 0.547159 c 0,0.04948 -0.03784,0.09022 -0.0844,0.09022 h -0.27358 v -0.724694 z m 1.835418,-0.296863 c 0,-0.02328 -0.01455,-0.03784 -0.03784,-0.03784 h -0.908051 c -0.02328,0 -0.03784,0.01455 -0.03784,0.03784 l 0.0029,2.060577 c 0,0.02328 0.01455,0.03784 0.03784,0.03784 h 0.905141 c 0.02328,0 0.03784,-0.01455 0.03784,-0.03784 v -0.256117 c 0,-0.02328 -0.01455,-0.03784 -0.03784,-0.03784 l -0.599547,-0.0029 v -0.567531 h 0.430742 c 0.02328,0 0.03784,-0.01455 0.03784,-0.03784 v -0.256117 c 0,-0.02328 -0.01455,-0.03783 -0.03784,-0.03783 H 41.76855 v -0.570443 h 0.599547 c 0.02328,0 0.03784,-0.01455 0.03784,-0.03784 z m 0.726549,2.098413 c 0.02328,0 0.03784,-0.01455 0.03784,-0.03784 v -0.864394 h 0.430742 c 0.02328,0 0.03784,-0.01455 0.03784,-0.03784 v -0.256117 c 0,-0.02328 -0.01455,-0.03783 -0.03784,-0.03783 h -0.430742 v -0.570443 l 0.599546,0.0058 c 0.02328,0 0.03784,-0.01455 0.03784,-0.03784 v -0.261938 c 0,-0.02328 -0.01455,-0.03784 -0.03784,-0.03784 h -0.910961 c -0.02328,0 -0.03784,0.01455 -0.03784,0.03784 l 0.0029,2.060577 c 0,0.02328 0.01455,0.03784 0.03784,0.03784 z m 2.221445,-2.112965 c -0.0058,-0.01455 -0.01746,-0.02328 -0.03493,-0.02328 h -0.264848 c -0.02328,0 -0.03784,0.01455 -0.03784,0.03784 l 0.0029,2.060577 c 0,0.02328 0.01455,0.03784 0.03784,0.03784 h 0.276489 c 0.02328,0 0.03784,-0.01455 0.03784,-0.03784 l -0.0058,-1.202003 0.512234,1.216555 c 0.0058,0.01455 0.01746,0.02328 0.03492,0.02328 h 0.259027 c 0.02328,0 0.03784,-0.01455 0.03784,-0.03784 v -2.060577 c 0,-0.02328 -0.01455,-0.03784 -0.03784,-0.03784 h -0.270669 c -0.02328,0 -0.03784,0.01455 -0.03784,0.03784 l 0.0029,1.202003 z m 1.745192,2.112965 h 0.229923 c 0.296863,0 0.436563,-0.235744 0.436563,-0.468578 v -1.202003 c 0,-0.229923 -0.1397,-0.465667 -0.436563,-0.465667 h -0.229923 c -0.293953,0 -0.439474,0.235744 -0.439474,0.465667 v 1.202003 c 0,0.232834 0.145521,0.468578 0.439474,0.468578 z m -0.09313,-1.592 c 0,-0.145521 0.05239,-0.20955 0.20664,-0.20955 0.183357,0 0.20955,0.03492 0.20955,0.20955 v 1.047751 c 0,0.174625 -0.02619,0.20955 -0.20955,0.20955 -0.154252,0 -0.20664,-0.06694 -0.20664,-0.20955 z m 2.277801,-0.506413 c 0,-0.02328 -0.01455,-0.03784 -0.03784,-0.03784 h -1.111781 c -0.02328,0 -0.03784,0.01455 -0.03784,0.03784 v 0.261938 c 0,0.02328 0.01455,0.03784 0.03784,0.03784 l 0.384176,-0.0058 v 1.766625 c 0,0.02328 0.01455,0.03784 0.03784,0.03784 h 0.270669 c 0.02328,0 0.03784,-0.01455 0.03784,-0.03784 v -1.766625 h 0.381265 c 0.02328,0 0.03784,-0.01455 0.03784,-0.03784 z m 1.343553,0 c 0,-0.02328 -0.01455,-0.03784 -0.03784,-0.03784 h -0.908051 c -0.02328,0 -0.03784,0.01455 -0.03784,0.03784 l 0.0029,2.060577 c 0,0.02328 0.01455,0.03784 0.03784,0.03784 h 0.905141 c 0.02328,0 0.03784,-0.01455 0.03784,-0.03784 v -0.256117 c 0,-0.02328 -0.01455,-0.03784 -0.03784,-0.03784 l -0.599547,-0.0029 v -0.567531 h 0.430743 c 0.02328,0 0.03784,-0.01455 0.03784,-0.03784 v -0.256117 c 0,-0.02328 -0.01455,-0.03783 -0.03784,-0.03783 h -0.430743 v -0.570443 h 0.599547 c 0.02328,0 0.03784,-0.01455 0.03784,-0.03784 z"
     id="text140"
     aria-label="REF NOTE&#10;" /><g
     id="g162"><path
       d="m 45.271109,52.324051 h 6.681153 c 0.194246,0 0.370194,-0.0785 0.497581,-0.20585 0.127387,-0.12739 0.206211,-0.30334 0.206211,-0.49794"
       fill-opacity="0"
       stroke="#969f96"
       stroke-width="0.351895"
       id="path106"
       sodipodi:nodetypes="cscc" /><path
       d="m 45.306827,52.324051 h -6.681153 c -0.194246,0 -0.370194,-0.0785 -0.497581,-0.20585 -0.127387,-0.12739 -0.206211,-0.30334 -0.206211,-0.49794"
       fill-opacity="0"
       stroke="#969f96"
       stroke-width="0.351895"
       id="path152"
       sodipodi:nodetypes="cscc" /></g><g
     id="g155"
     transform="translate(6.1082774)"><path
       style="font-size:2.91042px;line-height:1.8;font-family:'Autogate Sans';-inkscape-font-specification:'Autogate Sans';text-align:center;letter-spacing:0.264583px;text-anchor:middle;fill:#4c4c4c;stroke-width:0.264583"
       d="m 12.614615,25.951623 -0.27649,-0.637382 c -0.0058,-0.01455 -0.01746,-0.02328 -0.03492,-0.02328 h -0.305599 c -0.01455,0 -0.02037,0.0087 -0.01164,0.02037 l 0.0087,0.02328 c 0.145521,0.343429 0.296863,0.683949 0.442384,1.024468 l -0.439474,1.015736 c -0.01455,0.03202 0,0.05239 0.03493,0.05239 h 0.267759 c 0.01455,0 0.02619,-0.0087 0.03202,-0.02328 l 0.282311,-0.640293 0.2794,0.640293 c 0.0058,0.01455 0.01746,0.02328 0.03492,0.02328 h 0.27358 c 0.03493,0 0.04948,-0.02037 0.03493,-0.05239 l -0.439478,-1.015733 0.439474,-1.015737 c 0.01455,-0.03201 0,-0.05239 -0.03492,-0.05239 h -0.270651 c -0.01455,0 -0.02619,0.0087 -0.03201,0.02328 z m 2.133074,0.288132 c 0,-0.02328 -0.01455,-0.03784 -0.03783,-0.03784 h -0.942981 c -0.02328,0 -0.03783,0.01455 -0.03783,0.03784 v 0.256116 c 0,0.02328 0.01455,0.03784 0.03783,0.03784 h 0.942976 c 0.02328,0 0.03783,-0.01455 0.03783,-0.03784 z m 1.041664,-0.948797 h -0.649024 c -0.02328,0 -0.03784,0.01455 -0.03784,0.03784 l 0.0029,2.060577 c 0,0.02328 0.01455,0.03784 0.03784,0.03784 h 0.267759 c 0.02328,0 0.03784,-0.01455 0.03784,-0.03784 v -0.704321 h 0.122238 l 0.259028,0.715963 c 0.0058,0.01746 0.02037,0.02619 0.03493,0.02619 h 0.256117 c 0.03201,0 0.04657,-0.02037 0.03492,-0.04948 l -0.241564,-0.715962 c 0.174625,-0.05821 0.235744,-0.218281 0.235744,-0.369623 v -0.649024 c 0,-0.183356 -0.145521,-0.35216 -0.360893,-0.35216 z m -0.06694,0.334698 c 0.04366,0 0.0844,0.03784 0.0844,0.08731 v 0.547158 c 0,0.04948 -0.03784,0.09022 -0.0844,0.09022 H 15.448834 V 25.62565 Z m 1.376366,1.80155 h 0.229923 c 0.296863,0 0.436563,-0.235744 0.436563,-0.468578 v -1.202003 c 0,-0.229923 -0.1397,-0.465667 -0.436563,-0.465667 h -0.229923 c -0.293952,0 -0.439473,0.235744 -0.439473,0.465667 v 1.202003 c 0,0.232834 0.145521,0.468578 0.439473,0.468578 z m -0.09313,-1.592 c 0,-0.145521 0.05239,-0.20955 0.20664,-0.20955 0.183356,0 0.20955,0.03493 0.20955,0.20955 v 1.047751 c 0,0.174626 -0.02619,0.209551 -0.20955,0.209551 -0.154253,0 -0.20664,-0.06694 -0.20664,-0.209551 z m 2.569634,1.592 c 0.01746,0 0.03202,-0.01164 0.03493,-0.0291 l 0.454026,-2.063488 c 0.0058,-0.0291 -0.0087,-0.04657 -0.03784,-0.04657 H 19.75573 c -0.01746,0 -0.03202,0.01164 -0.03493,0.0291 L 19.464683,26.478406 19.3017,25.532519 c -0.0029,-0.02037 -0.01746,-0.03201 -0.03784,-0.03201 h -0.261938 c -0.02037,0 -0.03492,0.01164 -0.03783,0.03201 l -0.162984,0.937156 c -0.08731,-0.384176 -0.168804,-0.771262 -0.247385,-1.155437 l -0.0029,-0.01455 c -0.0029,-0.0058 -0.0087,-0.01164 -0.01746,-0.01164 H 18.2365 c -0.0291,0 -0.04366,0.01746 -0.03784,0.04657 l 0.451115,2.063488 c 0.0029,0.01746 0.01746,0.0291 0.03493,0.0291 h 0.267759 c 0.02037,0 0.03492,-0.01164 0.03784,-0.03202 l 0.1397,-0.823649 0.145521,0.823649 c 0.0029,0.02037 0.01746,0.03202 0.03783,0.03202 z"
       id="text125"
       aria-label="x-row" /><path
       style="font-size:2.91042px;line-height:1.8;font-family:'Autogate Sans';-inkscape-font-specification:'Autogate Sans';text-align:center;letter-spacing:0.264583px;text-anchor:middle;fill:#4c4c4c;stroke-width:0.264583"
       d="m 26.08127,25.951623 -0.27649,-0.637382 c -0.0058,-0.01455 -0.01746,-0.02328 -0.03493,-0.02328 h -0.305594 c -0.01455,0 -0.02037,0.0087 -0.01164,0.02037 l 0.0087,0.02328 c 0.145521,0.343429 0.296863,0.683949 0.442384,1.024468 l -0.439473,1.015736 c -0.01455,0.03202 0,0.05239 0.03493,0.05239 h 0.267758 c 0.01455,0 0.02619,-0.0087 0.03201,-0.02328 l 0.282311,-0.640293 0.2794,0.640293 c 0.0058,0.01455 0.01746,0.02328 0.03493,0.02328 h 0.273579 c 0.03493,0 0.04948,-0.02037 0.03493,-0.05239 l -0.439474,-1.015736 0.439474,-1.015737 c 0.01455,-0.03201 0,-0.05239 -0.03493,-0.05239 h -0.270669 c -0.01455,0 -0.02619,0.0087 -0.03201,0.02328 z m 2.133073,0.288132 c 0,-0.02328 -0.01455,-0.03784 -0.03783,-0.03784 h -0.942976 c -0.02328,0 -0.03784,0.01455 -0.03784,0.03784 v 0.256116 c 0,0.02328 0.01455,0.03784 0.03784,0.03784 h 0.942976 c 0.02328,0 0.03783,-0.01455 0.03783,-0.03784 z m 1.463674,0.718873 V 26.69087 c 0,-0.02328 -0.01455,-0.03784 -0.03784,-0.03784 h -0.282311 c -0.01164,0 -0.01746,0.0058 -0.01746,0.01746 v 0.01746 c -0.0029,0.04948 -0.0029,0.13679 -0.01746,0.221192 -0.01455,0.08731 -0.04366,0.145521 -0.08149,0.165894 -0.0029,0 -0.0029,0 -0.0058,0 -0.02619,0.01455 -0.06403,0.01746 -0.110596,0.01746 -0.154252,0 -0.206639,-0.06694 -0.206639,-0.209551 v -1.047751 c 0,-0.145521 0.05239,-0.20955 0.206639,-0.20955 0.04657,0 0.0844,0.0029 0.110596,0.01746 0.0029,0 0.0029,0 0.0058,0 0.03784,0.02037 0.06403,0.0844 0.07858,0.171715 0.01455,0.0844 0.01455,0.174625 0.01455,0.221192 v 0.01746 c 0,0.01164 0.0058,0.01746 0.01746,0.01746 l 0.288132,-0.0058 c 0.02328,0 0.03784,-0.01455 0.03784,-0.03784 v -0.270669 c 0,-0.229923 -0.1397,-0.465667 -0.436563,-0.465667 h -0.229923 c -0.293952,0 -0.439473,0.235744 -0.439473,0.465667 v 1.202003 c 0,0.232834 0.145521,0.468578 0.439473,0.468578 h 0.229923 c 0.296863,0 0.436563,-0.235744 0.436563,-0.468578 z m 0.922338,0.468578 h 0.229923 c 0.296863,0 0.436563,-0.235744 0.436563,-0.468578 v -1.202003 c 0,-0.229923 -0.1397,-0.465667 -0.436563,-0.465667 h -0.229923 c -0.293952,0 -0.439473,0.235744 -0.439473,0.465667 v 1.202003 c 0,0.232834 0.145521,0.468578 0.439473,0.468578 z m -0.09313,-1.592 c 0,-0.145521 0.05239,-0.20955 0.20664,-0.20955 0.183357,0 0.209551,0.03493 0.209551,0.20955 v 1.047751 c 0,0.174626 -0.02619,0.209551 -0.209551,0.209551 -0.154252,0 -0.20664,-0.06694 -0.20664,-0.209551 z m 1.568451,1.257302 -0.0029,-1.763715 c 0,-0.02328 -0.01455,-0.03784 -0.03783,-0.03784 h -0.264868 c -0.02328,0 -0.03784,0.01455 -0.03784,0.03784 l -0.0058,2.060577 c 0,0.02328 0.01455,0.03784 0.03784,0.03784 h 0.910961 c 0.02328,0 0.03784,-0.01455 0.03784,-0.03784 v -0.259027 c 0,-0.02328 -0.01455,-0.03783 -0.03784,-0.03783 z"
       id="text154"
       aria-label="x-col" /></g><g
     id="g164"
     transform="rotate(180,45.288968,43.499999)"><path
       d="m 45.271109,52.324051 h 6.681153 c 0.194246,0 0.370194,-0.0785 0.497581,-0.20585 0.127387,-0.12739 0.206211,-0.30334 0.206211,-0.49794"
       fill-opacity="0"
       stroke="#969f96"
       stroke-width="0.351895"
       id="path163"
       sodipodi:nodetypes="cscc" /><path
       d="m 45.306827,52.324051 h -6.681153 c -0.194246,0 -0.370194,-0.0785 -0.497581,-0.20585 -0.127387,-0.12739 -0.206211,-0.30334 -0.206211,-0.49794"
       fill-opacity="0"
       stroke="#969f96"
       stroke-width="0.351895"
       id="path164"
       sodipodi:nodetypes="cscc" /></g><g
     id="g165"><path
       d="M 6.3755597,34.675947 H 3.9277398 c -0.194246,0 -0.370194,0.0785 -0.497581,0.20585 -0.127387,0.12739 -0.206211,0.30334 -0.206211,0.49794"
       fill-opacity="0"
       stroke="#969f96"
       stroke-width="0.351895"
       id="path107"
       sodipodi:nodetypes="cscc" /><path
       d="m 30.144026,34.675947 h 2.44782 c 0.194246,0 0.370194,0.0785 0.497581,0.20585 0.127387,0.12739 0.206211,0.30334 0.206211,0.49794"
       fill-opacity="0"
       stroke="#969f96"
       stroke-width="0.351895"
       id="path165"
       sodipodi:nodetypes="cscc" /></g></g>&#10;  <g
   inkscape:groupmode="layer"
   id="layer2-0"
   inkscape:label="components"
   style="display:none"
   sodipodi:insensitive="true">&#10;    &#10;    &#10;    &#10;    &#10;    &#10;    &#10;    &#10;    &#10;    &#10;    &#10;    &#10;    &#10;    &#10;    &#10;    &#10;    &#10;    &#10;    &#10;    &#10;    &#10;    &#10;    &#10;    &#10;    &#10;    &#10;    &#10;    &#10;    &#10;  <rect
   style="display:inline;fill:#ff0000;stroke-width:0.34268"
   id="rect24"
   width="8.1280012"
   height="2.987998"
   x="42.672005"
   y="69.539719"
   inkscape:label="p_led3_colour" /><circle
   style="display:inline;fill:#0000ff;fill-opacity:1;stroke-width:0.313059"
   id="out1"
   cx="9.133029"
   cy="107.45371"
   inkscape:label="out_voct"
   r="4" /><circle
   style="display:inline;fill:#0000ff;fill-opacity:1;stroke-width:0.313059"
   id="ellipse7"
   cx="46.70459"
   cy="107.45371"
   inkscape:label="out_lights"
   r="4" /><circle
   style="display:inline;fill:#00ff00;fill-opacity:1;stroke-width:0.313059"
   id="circle1"
   cx="9.133029"
   cy="87.980484"
   inkscape:label="in_k"
   r="4" /><circle
   style="display:inline;fill:#00ff00;fill-opacity:1;stroke-width:0.313;stroke-dasharray:none"
   id="circle2"
   cx="21.667355"
   cy="87.980484"
   inkscape:label="in_note_pb"
   r="4" /><circle
   style="display:inline;fill:#00ff00;fill-opacity:1;stroke-width:0.313059"
   id="circle3"
   cx="34.201683"
   cy="87.980484"
   inkscape:label="in_g_pb"
   r="4" /><circle
   style="display:inline;fill:#ff0000;fill-opacity:1;stroke-width:0.313059"
   id="circle5"
   cx="11.992597"
   cy="41.513813"
   inkscape:label="p_keyPbr"
   r="4" /><circle
   style="display:inline;fill:#ff0000;fill-opacity:1;stroke-width:0.313;stroke-dasharray:none"
   id="circle6"
   cx="24.526989"
   cy="41.513813"
   inkscape:label="p_globalPbr"
   r="4" /><circle
   style="display:inline;fill:#ff0000;fill-opacity:1;stroke-width:0.313059"
   id="circle7"
   cx="22.284786"
   cy="19.164417"
   inkscape:label="p_row_mult"
   r="4" /><circle
   style="display:inline;fill:#ff0000;fill-opacity:1;stroke-width:0.313;stroke-dasharray:none"
   id="circle8"
   cx="34.81918"
   cy="19.164417"
   inkscape:label="p_col_mult"
   r="4" /><circle
   style="display:inline;fill:#00ff00;fill-opacity:1;stroke-width:0.313059"
   id="circle4"
   cx="46.736008"
   cy="87.980484"
   inkscape:label="in_kg"
   r="4" /><circle
   style="display:inline;fill:#ff0000;fill-opacity:1;stroke-width:0.313059"
   id="circle10"
   cx="21.667223"
   cy="63.840481"
   inkscape:label="p_led1_idx"
   r="4" /><circle
   style="display:inline;fill:#ff0000;fill-opacity:1;stroke-width:0.313;stroke-dasharray:none"
   id="circle11"
   cx="34.201683"
   cy="63.840481"
   inkscape:label="p_led2_idx"
   r="4" /><circle
   style="display:inline;fill:#ff0000;fill-opacity:1;stroke-width:0.313;stroke-dasharray:none"
   id="circle12"
   cx="46.736008"
   cy="63.840481"
   inkscape:label="p_led3_idx"
   r="4" /><circle
   style="display:inline;fill:#ff0000;fill-opacity:1;stroke-width:0.313;stroke-dasharray:none"
   id="circle16"
   cx="45.288967"
   cy="41.513813"
   inkscape:label="p_ref_note"
   r="4" /><rect
   style="display:inline;fill:#ff0000;stroke-width:0.34268"
   id="rect25"
   width="8.1280012"
   height="2.987998"
   x="30.137682"
   y="69.502266"
   inkscape:label="p_led2_colour" /><rect
   style="display:inline;fill:#ff0000;stroke-width:0.34268"
   id="rect26"
   width="8.1280012"
   height="2.987998"
   x="17.603354"
   y="69.502266"
   inkscape:label="p_led1_colour" /></g>&#10;</svg>
