<?xml version="1.0" encoding="UTF-8" standalone="no"?>
<!-- Created with Inkscape (http://www.inkscape.org/) -->

<svg
   width="91.440002mm"
   height="128.5mm"
   viewBox="0 0 91.440001 128.5"
   version="1.1"
   id="svg1"
   inkscape:version="1.3 (0e150ed, 2023-07-21)"
   sodipodi:docname="ESwitch.svg"
   xml:space="preserve"
   xmlns:inkscape="http://www.inkscape.org/namespaces/inkscape"
   xmlns:sodipodi="http://sodipodi.sourceforge.net/DTD/sodipodi-0.dtd"
   xmlns="http://www.w3.org/2000/svg"
   xmlns:svg="http://www.w3.org/2000/svg"><sodipodi:namedview
   id="namedview1"
   pagecolor="#ffffff"
   bordercolor="#000000"
   borderopacity="0.25"
   inkscape:showpageshadow="2"
   inkscape:pageopacity="0.0"
   inkscape:pagecheckerboard="0"
   inkscape:deskcolor="#d1d1d1"
   inkscape:document-units="mm"
   showgrid="true"
   inkscape:zoom="1.8947172"
   inkscape:cx="182.613"
   inkscape:cy="210.32162"
   inkscape:window-width="2352"
   inkscape:window-height="1384"
   inkscape:window-x="0"
   inkscape:window-y="25"
   inkscape:window-maximized="0"
   inkscape:current-layer="layer2-0"
   showguides="true"><inkscape:grid
     id="grid120"
     units="mm"
     originx="0"
     originy="0"
     spacingx="1.016"
     spacingy="1.5"
     empcolor="#0099e5"
     empopacity="0.30196078"
     color="#0099e5"
     opacity="0.14901961"
     empspacing="5"
     dotted="false"
     gridanglex="30"
     gridanglez="30"
     visible="true" /><sodipodi:guide
     position="-5.0800032,116.48833"
     orientation="0,-1"
     id="guide1"
     inkscape:locked="false" /></sodipodi:namedview>&#10;  <defs
   id="defs1">&#10;    <linearGradient
   id="Gradient_61"
   gradientUnits="userSpaceOnUse"
   x1="-424.043"
   y1="-4741.6309"
   x2="-405.228"
   y2="-4741.6309"
   gradientTransform="matrix(0.025,1,-1,0.025,-4534.645,592.311)">&#10;      <stop
   offset="0"
   stop-color="#777676"
   id="stop121" />&#10;      <stop
   offset="1"
   stop-color="#575757"
   id="stop122" />&#10;    </linearGradient>&#10;    <linearGradient
   id="Gradient_62"
   gradientUnits="userSpaceOnUse"
   x1="-423.578"
   y1="-4741.6309"
   x2="-405.69299"
   y2="-4741.6309"
   gradientTransform="matrix(0.025,1,-1,0.025,-4534.645,592.311)">&#10;      <stop
   offset="0.006"
   stop-color="#FFFFFF"
   id="stop123" />&#10;      <stop
   offset="1"
   stop-color="#454545"
   id="stop124" />&#10;    </linearGradient>&#10;    <linearGradient
   id="Gradient_63"
   gradientUnits="userSpaceOnUse"
   x1="-7828.9722"
   y1="4203.397"
   x2="-7814.8091"
   y2="4203.397"
   gradientTransform="matrix(-0.025,-1,1,-0.025,-4202.945,-7655.114)">&#10;      <stop
   offset="0.006"
   stop-color="#FFFFFF"
   id="stop125" />&#10;      <stop
   offset="1"
   stop-color="#454545"
   id="stop126" />&#10;    </linearGradient>&#10;    <linearGradient
   id="Gradient_64"
   gradientUnits="userSpaceOnUse"
   x1="-8480.584"
   y1="3795.7019"
   x2="-8480.584"
   y2="3807.8259"
   gradientTransform="matrix(-1,0.025,0.025,1,-8378.065,-3529.085)">&#10;      <stop
   offset="0"
   stop-color="#FFFEFE"
   id="stop127" />&#10;      <stop
   offset="1"
   stop-color="#5E5E5E"
   id="stop128" />&#10;    </linearGradient>&#10;    <linearGradient
   id="Gradient_65"
   gradientUnits="userSpaceOnUse"
   x1="-8480.584"
   y1="3806.3679"
   x2="-8480.584"
   y2="3797.1599"
   gradientTransform="matrix(-1,0.025,0.025,1,-8378.065,-3529.085)">&#10;      <stop
   offset="0"
   stop-color="#FFFEFE"
   id="stop129" />&#10;      <stop
   offset="1"
   stop-color="#383636"
   id="stop130" />&#10;    </linearGradient>&#10;  &#10;        &#10;        &#10;      </defs>&#10;  <g
   inkscape:groupmode="layer"
   id="layer5"
   inkscape:label="WHITE PANEL "
   style="display:inline"
   sodipodi:insensitive="true">&#10;    <path
   id="rect1"
   style="fill:#ffffff;stroke-width:0.261988"
   d="M 0,0.52497211 C 0,43.183314 0,85.841656 0,128.5 c 30.480001,0 60.960002,0 91.440002,0 0,-42.833336 0,-85.666667 0,-128.5 C 60.960002,0 30.480001,0 0,0 0,0.17499071 0,0.3499814 0,0.52497211 Z" />&#10;  </g>&#10;  <g
   inkscape:groupmode="layer"
   id="layer2"
   inkscape:label="LOGO"
   style="display:inline"
   sodipodi:insensitive="true">&#10;    <g
   id="g11"
   transform="matrix(0.02552152,0,0,0.02552152,30.536295,111.70541)"
   style="display:inline"
   inkscape:label="LOGO">&#10;      <path
   d="M 279.203,340.453 157.217,340.266 H 77.871 v 201.146 h 40.266 v -40.08 l 40.523,0.187 -0.256,40.08 h 40.266 l 0.257,-40.08 40.266,0.014 -0.256,40.066 h 40.266 z"
   fill="#cf0000"
   id="path1" />&#10;      <path
   d="M 238.937,300.187 116.951,300 H 37.604 v 201.146 h 40.267 v -160.88 l 40.266,0.187 v 160.879 h 40.267 V 340.453 l 40.464,-0.187 -0.198,161.066 h 40.267 z"
   fill="#4c4c4c"
   id="path2" />&#10;      <path
   d="m 330.797,364.426 -0.623,10.103 q 4.181,-6.014 9.962,-9.02 5.781,-3.007 13.163,-3.007 14.408,0 22.679,12.027 4.536,-6.014 10.228,-9.02 5.692,-3.007 12.629,-3.007 9.161,0 15.165,4.009 6.003,4.009 7.693,9.822 1.69,5.812 1.69,18.881 v 81.752 h -34.864 v -75.498 q 0,-13.63 -1.023,-16.877 -1.023,-3.247 -4.759,-3.247 -3.824,0 -4.936,3.207 -1.111,3.207 -1.111,16.917 v 75.498 h -34.864 v -73.734 q 0,-15.635 -0.845,-18.761 -0.845,-3.127 -4.67,-3.127 -2.401,0 -4.091,1.643 -1.69,1.644 -1.868,4.009 -0.178,2.365 -0.178,10.062 v 79.908 H 295.31 v -112.54 z"
   fill="#4c4c4c"
   id="path3" />&#10;      <path
   d="m 517.124,425.653 h -46.515 v 23.011 q 0,7.216 1.157,9.3 1.156,2.085 4.446,2.085 4.092,0 5.47,-2.766 1.379,-2.766 1.379,-10.704 v -14.031 h 34.063 v 7.857 q 0,9.862 -1.378,15.154 -1.379,5.291 -6.448,11.305 -5.07,6.013 -12.852,9.02 -7.782,3.006 -19.522,3.006 -11.384,0 -20.1,-2.966 -8.716,-2.967 -13.564,-8.138 -4.847,-5.172 -6.714,-11.385 -1.868,-6.214 -1.868,-18.08 v -37.174 q 0,-13.951 4.18,-22.008 4.18,-8.058 13.697,-12.347 9.516,-4.29 21.879,-4.29 15.119,0 24.947,5.171 9.828,5.172 13.786,13.711 3.957,8.538 3.957,24.013 z m -36.02,-23.464 v -7.777 q 0,-8.258 -0.978,-10.663 -0.979,-2.405 -4.002,-2.405 -3.736,0 -4.625,2.044 -0.89,2.045 -0.89,11.024 v 7.777 z"
   fill="#4c4c4c"
   id="path4" />&#10;      <path
   d="m 566.753,350.235 v 16.757 h 9.694 v 16.837 h -9.694 V 446.9 q 0,10.503 1.2,11.706 1.201,1.202 10.006,1.202 v 17.158 h -14.497 q -12.274,0 -17.521,-0.922 -5.248,-0.922 -9.25,-4.249 -4.002,-3.328 -4.98,-7.617 -0.979,-4.29 -0.979,-20.165 v -60.184 h -7.738 v -16.837 h 7.738 v -16.757 z"
   fill="#4c4c4c"
   id="path5" />&#10;      <path
   d="m 616.469,405.637 h -33.708 v -7.136 q 0,-12.347 3.158,-19.042 3.157,-6.694 12.673,-11.826 9.517,-5.131 24.726,-5.131 18.232,0 27.482,5.813 9.249,5.813 11.117,14.271 1.868,14.604 1.868,40.982 v 53.398 h -34.953 v -9.461 q -3.291,5.693 -8.494,8.539 -5.203,2.846 -12.407,2.846 -9.427,0 -17.299,-4.77 -7.871,-4.771 -7.871,-20.886 v -8.74 q 0,-14.816 4.18,-19.145 4.181,-5.752 20.723,-11.524 17.699,-5.947 18.944,-8.112 1.245,-4.325 1.245,-10.98 0,-8.338 -1.378,-10.864 -1.379,-2.526 -4.58,-2.526 -3.647,0 -4.536,2.125 -0.89,2.125 -0.89,11.024 z m 11.384,20.737 q -8.627,5.693 -10.005,9.541 -1.379,3.849 -1.379,11.065 0,8.258 1.201,10.663 1.201,2.406 4.758,2.406 3.38,0 4.403,-1.885 1.022,-1.884 1.022,-9.901 z"
   fill="#4c4c4c"
   id="path6" />&#10;      <path
   d="m 710.675,364.426 -0.623,10.103 q 4.187,-6.014 9.977,-9.02 5.791,-3.007 13.185,-3.007 14.432,0 22.717,12.027 4.543,-6.014 10.244,-9.02 5.702,-3.007 12.651,-3.007 9.175,0 15.189,4.009 6.013,4.009 7.705,9.822 1.693,5.812 1.693,18.881 v 81.752 h -34.921 v -75.498 q 0,-13.63 -1.025,-16.877 -1.024,-3.247 -4.766,-3.247 -3.831,0 -4.944,3.207 -1.114,3.207 -1.114,16.917 v 75.498 h -34.921 v -73.734 q 0,-15.635 -0.846,-18.761 -0.847,-3.127 -4.677,-3.127 -2.406,0 -4.098,1.643 -1.693,1.644 -1.871,4.009 -0.178,2.365 -0.178,10.062 v 79.908 H 675.13 v -112.54 z"
   fill="#cf0000"
   id="path7" />&#10;      <path
   d="m 897.22,401.789 v 32.202 q 0,14.352 -1.604,21.047 -1.603,6.694 -6.859,12.507 -5.256,5.813 -13.497,8.579 -8.24,2.766 -18.93,2.766 -11.938,0 -20.223,-2.365 -8.284,-2.365 -12.872,-7.136 -4.588,-4.77 -6.548,-11.545 -1.96,-6.775 -1.96,-20.325 v -33.405 q 0,-14.833 3.563,-23.171 3.564,-8.339 12.829,-13.39 9.265,-5.051 23.696,-5.051 12.116,0 20.802,3.247 8.686,3.247 13.407,8.459 4.722,5.211 6.459,10.744 1.737,5.532 1.737,16.837 z m -35.991,-8.018 q 0,-8.178 -0.979,-10.303 -0.98,-2.124 -4.187,-2.124 -3.207,0 -4.277,2.124 -1.069,2.125 -1.069,10.303 v 54.171 q 0,7.537 1.069,9.822 1.07,2.285 4.187,2.285 3.208,0 4.232,-2.085 1.024,-2.084 1.024,-8.98 z"
   fill="#cf0000"
   id="path8" />&#10;      <path
   d="m 945.059,364.426 -1.426,13.951 q 7.84,-14.993 22.717,-15.875 v 37.443 q -9.888,0 -14.521,2.405 -4.632,2.405 -5.701,6.695 -1.069,10.434 -1.069,25.909 v 42.012 h -35.991 v -112.54 z"
   fill="#cf0000"
   id="path9" />&#10;      <path
   d="m 1010.982,364.427 -0.624,9.38 q 4.811,-5.692 10.601,-8.498 5.791,-2.807 12.65,-2.807 8.374,0 14.477,4.049 6.102,4.049 7.616,9.341 1.515,5.291 1.515,17.959 v 50.964 q 0,14.512 -1.915,20.646 -1.916,6.133 -7.84,9.781 -5.924,3.648 -14.298,3.648 -6.681,0 -12.383,-2.806 -5.701,-2.806 -10.423,-8.338 v 33.586 h -35.99 V 364.427 Z m 10.245,30.948 q 0,-9.862 -0.802,-11.947 -0.802,-2.084 -4.455,-2.084 -3.563,0 -4.587,2.405 -1.025,2.405 -1.025,11.626 v 50.242 q 0,9.621 1.069,12.027 1.069,2.405 4.633,2.405 3.474,0 4.32,-2.205 0.847,-2.205 0.847,-10.703 z"
   fill="#cf0000"
   id="path10" />&#10;      <path
   d="m 1105.056,340.266 v 29.933 q 4.632,-3.849 10.022,-5.773 5.389,-1.924 11.536,-1.924 9.443,0 16.08,4.329 6.637,4.33 8.107,9.982 1.47,5.653 1.47,20.646 v 79.507 h -35.991 v -81.03 q 0,-9.301 -1.024,-11.947 -1.025,-2.646 -4.588,-2.646 -3.296,0 -4.454,2.726 -1.158,2.726 -1.158,10.824 v 82.073 h -35.991 v -136.7 z"
   fill="#cf0000"
   id="path11" />&#10;    </g>&#10;  </g>&#10;  <g
   inkscape:label="BLOCKS"
   inkscape:groupmode="layer"
   id="layer1"
   style="display:inline"
   sodipodi:insensitive="true">&#10;    <path
   d="m 3.5771671,102.01624 72.0936669,-8.8e-4 c 0.292365,0 0.529167,0.2368 0.529167,0.52916 v 13.92632 c 0,0.29236 -0.236802,0.52916 -0.529167,0.52916 H 3.5771671 c -0.2921,0 -0.529167,-0.2368 -0.529167,-0.52916 V 102.5454 c 0,-0.29236 0.2370671,-0.52916 0.529167,-0.52916 z"
   fill="#000000"
   fill-opacity="0.7"
   id="path996"
   style="stroke-width:0.264583"
   sodipodi:nodetypes="sssssssss" />&#10;    &#10;    &#10;    &#10;    <circle
   style="display:inline;fill:#ff0000;stroke-width:0.704961"
   id="circle270"
   cx="21.335716"
   cy="107.55477"
   r="4.695075" />&#10;    <circle
   style="display:inline;fill:#ff0000;stroke-width:0.704961"
   id="path269"
   cx="70.103523"
   cy="107.55496"
   r="4.695075" />&#10;    <circle
   style="display:inline;fill:#ff0000;stroke-width:0.704961"
   id="circle269"
   cx="82.295715"
   cy="107.55496"
   r="4.695075" />&#10;    &#10;    &#10;    &#10;    &#10;    &#10;    &#10;  <g
   id="g176"
   inkscape:label="BOX"
   transform="matrix(0.97376671,0,0,0.77583702,1.9233418,26.763661)"
   style="display:inline">&#10;        <path
   d="m 78.346323,111.11212 h 8.346969 v 3.8508 h -8.346969 z"
   fill="#ff0000"
   id="path176"
   style="display:inline;stroke-width:0.351895"
   inkscape:label="RED BOX" />&#10;      </g><g
   id="g177"
   inkscape:label="BOX"
   transform="matrix(0.97376671,0,0,0.77583702,-10.255415,26.763661)"
   style="display:inline">&#10;        <path
   d="m 78.346323,111.11212 h 8.346969 v 3.8508 h -8.346969 z"
   fill="#ff0000"
   id="path177"
   style="display:inline;stroke-width:0.351895"
   inkscape:label="RED BOX" />&#10;      </g><g
   id="g178"
   inkscape:label="BOX"
   transform="matrix(0.97376671,0,0,0.77583702,-59.023222,26.763661)"
   style="display:inline">&#10;        <path
   d="m 78.346323,111.11212 h 8.346969 v 3.8508 h -8.346969 z"
   fill="#ff0000"
   id="path178"
   style="display:inline;stroke-width:0.351895"
   inkscape:label="RED BOX" />&#10;      </g><path
   d="m 3.5771671,82.501998 72.0936669,-8.8e-4 c 0.292365,0 0.529167,0.236797 0.529167,0.529157 v 13.926239 c 0,0.29236 -0.236802,0.529157 -0.529167,0.529157 H 3.5771671 c -0.2921,0 -0.529167,-0.236797 -0.529167,-0.529157 V 83.031155 c 0,-0.29236 0.2370671,-0.529157 0.529167,-0.529157 z"
   fill="#000000"
   fill-opacity="0.7"
   id="path12"
   style="stroke-width:0.264583"
   sodipodi:nodetypes="sssssssss" /><circle
   style="display:inline;fill:#ff0000;stroke-width:0.704961"
   id="circle12"
   cx="21.335716"
   cy="88.04055"
   r="4.695075" /><circle
   style="display:inline;fill:#ff0000;stroke-width:0.704961"
   id="circle13"
   cx="70.103523"
   cy="88.040733"
   r="4.695075" /><circle
   style="display:inline;fill:#ff0000;stroke-width:0.704961"
   id="circle14"
   cx="82.295715"
   cy="88.040733"
   r="4.695075" /><g
   id="g14"
   inkscape:label="BOX"
   transform="matrix(0.97376671,0,0,0.77583702,1.9233418,7.2494303)"
   style="display:inline">&#10;        <path
   d="m 78.346323,111.11212 h 8.346969 v 3.8508 h -8.346969 z"
   fill="#ff0000"
   id="path14"
   style="display:inline;stroke-width:0.351895"
   inkscape:label="RED BOX" />&#10;      </g><g
   id="g15"
   inkscape:label="BOX"
   transform="matrix(0.97376671,0,0,0.77583702,-10.255415,7.2494303)"
   style="display:inline">&#10;        <path
   d="m 78.346323,111.11212 h 8.346969 v 3.8508 h -8.346969 z"
   fill="#ff0000"
   id="path15"
   style="display:inline;stroke-width:0.351895"
   inkscape:label="RED BOX" />&#10;      </g><g
   id="g17"
   inkscape:label="BOX"
   transform="matrix(0.97376671,0,0,0.77583702,-59.023222,7.2494303)"
   style="display:inline">&#10;        <path
   d="m 78.346323,111.11212 h 8.346969 v 3.8508 h -8.346969 z"
   fill="#ff0000"
   id="path17"
   style="display:inline;stroke-width:0.351895"
   inkscape:label="RED BOX" />&#10;      </g><path
   d="m 3.5771671,63.000879 72.0936669,-8.8e-4 c 0.292365,0 0.529167,0.236797 0.529167,0.529157 v 13.926239 c 0,0.29236 -0.236802,0.529157 -0.529167,0.529157 H 3.5771671 c -0.2921,0 -0.529167,-0.236797 -0.529167,-0.529157 V 63.530036 c 0,-0.29236 0.2370671,-0.529157 0.529167,-0.529157 z"
   fill="#000000"
   fill-opacity="0.7"
   id="path162"
   style="stroke-width:0.264583"
   sodipodi:nodetypes="sssssssss" /><circle
   style="display:inline;fill:#ff0000;stroke-width:0.704961"
   id="circle162"
   cx="21.335716"
   cy="68.539421"
   r="4.695075" /><circle
   style="display:inline;fill:#ff0000;stroke-width:0.704961"
   id="circle163"
   cx="70.103523"
   cy="68.539604"
   r="4.695075" /><circle
   style="display:inline;fill:#ff0000;stroke-width:0.704961"
   id="circle164"
   cx="82.295715"
   cy="68.539604"
   r="4.695075" /><g
   id="g164"
   inkscape:label="BOX"
   transform="matrix(0.97376671,0,0,0.77583702,1.9233418,-12.251679)"
   style="display:inline">&#10;        <path
   d="m 78.346323,111.11212 h 8.346969 v 3.8508 h -8.346969 z"
   fill="#ff0000"
   id="path164"
   style="display:inline;stroke-width:0.351895"
   inkscape:label="RED BOX" />&#10;      </g><g
   id="g165"
   inkscape:label="BOX"
   transform="matrix(0.97376671,0,0,0.77583702,-10.255415,-12.251679)"
   style="display:inline">&#10;        <path
   d="m 78.346323,111.11212 h 8.346969 v 3.8508 h -8.346969 z"
   fill="#ff0000"
   id="path165"
   style="display:inline;stroke-width:0.351895"
   inkscape:label="RED BOX" />&#10;      </g><g
   id="g166"
   inkscape:label="BOX"
   transform="matrix(0.97376671,0,0,0.77583702,-59.023222,-12.251679)"
   style="display:inline">&#10;        <path
   d="m 78.346323,111.11212 h 8.346969 v 3.8508 h -8.346969 z"
   fill="#ff0000"
   id="path166"
   style="display:inline;stroke-width:0.351895"
   inkscape:label="RED BOX" />&#10;      </g><path
   d="m 3.5771669,43.504587 72.0936671,-8.8e-4 c 0.292365,0 0.529167,0.236797 0.529167,0.529157 v 13.926239 c 0,0.29236 -0.236802,0.529157 -0.529167,0.529157 H 3.5771669 c -0.2921,0 -0.529167,-0.236797 -0.529167,-0.529157 V 44.033744 c 0,-0.29236 0.2370671,-0.529157 0.529167,-0.529157 z"
   fill="#000000"
   fill-opacity="0.7"
   id="path267"
   style="stroke-width:0.264583"
   sodipodi:nodetypes="sssssssss" /><circle
   style="display:inline;fill:#ff0000;stroke-width:0.704961"
   id="circle267"
   cx="21.335716"
   cy="49.043121"
   r="4.695075" /><circle
   style="display:inline;fill:#ff0000;stroke-width:0.704961"
   id="circle268"
   cx="70.103523"
   cy="49.043304"
   r="4.695075" /><circle
   style="display:inline;fill:#ff0000;stroke-width:0.704961"
   id="circle271"
   cx="82.295715"
   cy="49.043304"
   r="4.695075" /><g
   id="g271"
   inkscape:label="BOX"
   transform="matrix(0.97376671,0,0,0.77583702,1.9233416,-31.747971)"
   style="display:inline">&#10;        <path
   d="m 78.346323,111.11212 h 8.346969 v 3.8508 h -8.346969 z"
   fill="#ff0000"
   id="path271"
   style="display:inline;stroke-width:0.351895"
   inkscape:label="RED BOX" />&#10;      </g><g
   id="g272"
   inkscape:label="BOX"
   transform="matrix(0.97376671,0,0,0.77583702,-10.255415,-31.747971)"
   style="display:inline">&#10;        <path
   d="m 78.346323,111.11212 h 8.346969 v 3.8508 h -8.346969 z"
   fill="#ff0000"
   id="path272"
   style="display:inline;stroke-width:0.351895"
   inkscape:label="RED BOX" />&#10;      </g><g
   id="g273"
   inkscape:label="BOX"
   transform="matrix(0.97376671,0,0,0.77583702,-59.023222,-31.747971)"
   style="display:inline">&#10;        <path
   d="m 78.346323,111.11212 h 8.346969 v 3.8508 h -8.346969 z"
   fill="#ff0000"
   id="path273"
   style="display:inline;stroke-width:0.351895"
   inkscape:label="RED BOX" />&#10;      </g><path
   d="m 76.729171,24.000879 11.133665,-8.8e-4 c 0.292365,-2.3e-5 0.529167,0.2368 0.529167,0.52916 v 13.929336 c 0,0.29236 -0.236802,0.52916 -0.529167,0.52916 H 76.729171 c -0.2921,0 -0.529167,-0.2368 -0.529167,-0.52916 V 24.530039 c 0,-0.29236 0.237067,-0.529137 0.529167,-0.52916 z"
   fill="#000000"
   fill-opacity="0.7"
   id="path14-9"
   style="display:inline;stroke-width:0.264583"
   sodipodi:nodetypes="sssssssss" /><circle
   style="display:inline;fill:#ff0000;stroke-width:0.704961"
   id="circle368"
   cx="21.336803"
   cy="29.567305"
   r="4.695075" /><circle
   style="display:inline;fill:#ff0000;stroke-width:0.704961"
   id="circle369"
   cx="70.104607"
   cy="29.567488"
   r="4.695075" /><circle
   style="display:inline;fill:#ff0000;stroke-width:0.704961"
   id="circle370"
   cx="82.296799"
   cy="29.567488"
   r="4.695075" /><g
   id="g370"
   inkscape:label="BOX"
   transform="matrix(0.97376671,0,0,0.77583702,1.9244284,-51.223782)"
   style="display:inline">&#10;        <path
   d="m 78.346323,111.11212 h 8.346969 v 3.8508 h -8.346969 z"
   fill="#ff0000"
   id="path370"
   style="display:inline;stroke-width:0.351895"
   inkscape:label="RED BOX" />&#10;      </g><g
   id="g371"
   inkscape:label="BOX"
   transform="matrix(0.97376671,0,0,0.77583702,-10.254328,-51.223782)"
   style="display:inline">&#10;        <path
   d="m 78.346323,111.11212 h 8.346969 v 3.8508 h -8.346969 z"
   fill="#ff0000"
   id="path371"
   style="display:inline;stroke-width:0.351895"
   inkscape:label="RED BOX" />&#10;      </g><g
   id="g372"
   inkscape:label="BOX"
   transform="matrix(0.97376671,0,0,0.77583702,-59.022135,-51.223782)"
   style="display:inline">&#10;        <path
   d="m 78.346323,111.11212 h 8.346969 v 3.8508 h -8.346969 z"
   fill="#ff0000"
   id="path372"
   style="display:inline;stroke-width:0.351895"
   inkscape:label="RED BOX" />&#10;      </g></g>&#10;  <g
   inkscape:groupmode="layer"
   id="layer6"
   inkscape:label="TYPE"
   style="display:inline"><path
     style="font-size:2.91042px;line-height:1.8;font-family:'Autogate Sans';-inkscape-font-specification:'Autogate Sans';text-align:center;letter-spacing:0.264583px;text-anchor:middle;fill:#4c4c4c;stroke-width:0.264583"
     d="m 40.180991,23.197405 v -0.192088 c 0,-0.02328 -0.01455,-0.03784 -0.03784,-0.03784 h -0.267759 c -0.02328,0 -0.03784,0.01455 -0.03784,0.03784 v 0.267759 c 0,0.244475 0.197908,0.471488 0.480219,0.471488 h 0.189177 c 0.261938,0 0.439474,-0.20664 0.439474,-0.427832 v -0.302684 c 0,-0.09313 -0.05239,-0.180446 -0.101865,-0.244475 l -0.01455,-0.02037 c 0,0 -0.0029,-0.0029 -0.0029,-0.0029 l -0.01164,-0.01164 c -0.0029,-0.0029 -0.0029,-0.0029 -0.0058,-0.0058 l -0.599547,-0.436563 -0.01455,-0.02619 c -0.0058,-0.01746 -0.01164,-0.02911 -0.01164,-0.04075 0,-0.0029 0,-0.0029 0,-0.0058 -0.0058,-0.04075 -0.0029,-0.07858 -0.0029,-0.119327 0,-0.160074 0.02328,-0.171715 0.212461,-0.171715 0.04948,0 0.09022,0.0029 0.119327,0.02037 0.03784,0.02328 0.06403,0.08731 0.07567,0.171715 0.01455,0.08149 0.01455,0.165893 0.01455,0.215371 v 0.01455 c 0,0.01164 0.0058,0.01746 0.01746,0.01746 h 0.288131 c 0.02328,0 0.03784,-0.01455 0.03784,-0.03783 v -0.267759 c 0,-0.247386 -0.197909,-0.468577 -0.48022,-0.468577 h -0.189177 c -0.256117,0 -0.439473,0.200819 -0.439473,0.424921 v 0.227013 c 0,0.09022 0.05239,0.180446 0.101864,0.244475 l 0.01455,0.01746 c 0,0.0029 0.0029,0.0058 0.0058,0.0087 l 0.01164,0.0087 0.605367,0.439473 0.01164,0.02619 c 0.0058,0.01746 0.01164,0.03493 0.01164,0.04657 0,0.0029 0,0.0029 0,0.0058 0.0087,0.05239 0.0029,0.107685 0.0029,0.162983 0,0.04366 0,0.07858 -0.0029,0.110596 -0.0058,0.02619 -0.01164,0.04366 -0.02037,0.0553 -0.01746,0.02037 -0.0553,0.03493 -0.165894,0.03493 h -0.02328 c -0.183357,-0.0029 -0.209551,-0.03201 -0.209551,-0.20955 z m 2.249486,-1.554164 c 0,-0.02328 -0.01455,-0.03784 -0.03784,-0.03784 h -0.908051 c -0.02328,0 -0.03784,0.01455 -0.03784,0.03784 l 0.0029,2.060577 c 0,0.02328 0.01455,0.03784 0.03784,0.03784 h 0.905141 c 0.02328,0 0.03784,-0.01455 0.03784,-0.03784 v -0.256117 c 0,-0.02328 -0.01455,-0.03783 -0.03784,-0.03783 l -0.599547,-0.0029 v -0.567532 h 0.430742 c 0.02328,0 0.03784,-0.01455 0.03784,-0.03784 v -0.256117 c 0,-0.02328 -0.01455,-0.03784 -0.03784,-0.03784 h -0.430742 v -0.570442 h 0.599547 c 0.02328,0 0.03784,-0.01455 0.03784,-0.03784 z m 0.820475,1.763714 -0.0029,-1.763714 c 0,-0.02328 -0.01455,-0.03784 -0.03784,-0.03784 h -0.264848 c -0.02328,0 -0.03784,0.01455 -0.03784,0.03784 l -0.0058,2.060577 c 0,0.02328 0.01455,0.03784 0.03784,0.03784 h 0.910962 c 0.02328,0 0.03784,-0.01455 0.03784,-0.03784 v -0.259027 c 0,-0.02328 -0.01455,-0.03784 -0.03784,-0.03784 z m 2.080685,-1.763714 c 0,-0.02328 -0.01455,-0.03784 -0.03784,-0.03784 h -0.908051 c -0.02328,0 -0.03784,0.01455 -0.03784,0.03784 l 0.0029,2.060577 c 0,0.02328 0.01455,0.03784 0.03784,0.03784 h 0.905141 c 0.02328,0 0.03784,-0.01455 0.03784,-0.03784 v -0.256117 c 0,-0.02328 -0.01455,-0.03783 -0.03784,-0.03783 l -0.599547,-0.0029 v -0.567532 h 0.430742 c 0.02328,0 0.03784,-0.01455 0.03784,-0.03784 v -0.256117 c 0,-0.02328 -0.01455,-0.03784 -0.03784,-0.03784 h -0.430742 v -0.570442 h 0.599547 c 0.02328,0 0.03784,-0.01455 0.03784,-0.03784 z m 1.600468,1.629835 v -0.267759 c 0,-0.02328 -0.01455,-0.03784 -0.03784,-0.03784 h -0.282311 c -0.01164,0 -0.01746,0.0058 -0.01746,0.01746 v 0.01746 c -0.0029,0.04948 -0.0029,0.13679 -0.01746,0.221192 -0.01455,0.08731 -0.04366,0.145521 -0.08149,0.165894 -0.0029,0 -0.0029,0 -0.0058,0 -0.02619,0.01455 -0.06403,0.01746 -0.110596,0.01746 -0.154253,0 -0.20664,-0.06694 -0.20664,-0.20955 v -1.047751 c 0,-0.145521 0.05239,-0.209551 0.20664,-0.209551 0.04657,0 0.0844,0.0029 0.110596,0.01746 0.0029,0 0.0029,0 0.0058,0 0.03784,0.02037 0.06403,0.0844 0.07858,0.171715 0.01455,0.0844 0.01455,0.174625 0.01455,0.221192 v 0.01746 c 0,0.01164 0.0058,0.01746 0.01746,0.01746 l 0.288132,-0.0058 c 0.02328,0 0.03784,-0.01455 0.03784,-0.03784 v -0.270669 c 0,-0.229923 -0.1397,-0.465667 -0.436563,-0.465667 h -0.229923 c -0.293952,0 -0.439473,0.235744 -0.439473,0.465667 v 1.202004 c 0,0.232833 0.145521,0.468577 0.439473,0.468577 h 0.229923 c 0.296863,0 0.436563,-0.235744 0.436563,-0.468577 z m 1.612106,-1.629835 c 0,-0.02328 -0.01455,-0.03784 -0.03783,-0.03784 h -1.11178 c -0.02328,0 -0.03784,0.01455 -0.03784,0.03784 v 0.261937 c 0,0.02328 0.01455,0.03784 0.03784,0.03784 l 0.384175,-0.0058 v 1.766625 c 0,0.02328 0.01455,0.03784 0.03784,0.03784 h 0.270669 c 0.02328,0 0.03783,-0.01455 0.03783,-0.03784 v -1.766625 h 0.381265 c 0.02328,0 0.03783,-0.01455 0.03783,-0.03784 z m 0.869951,2.098412 h 0.229923 c 0.296863,0 0.436563,-0.235744 0.436563,-0.468577 v -1.202004 c 0,-0.229923 -0.1397,-0.465667 -0.436563,-0.465667 h -0.229923 c -0.293952,0 -0.439473,0.235744 -0.439473,0.465667 v 1.202004 c 0,0.232833 0.145521,0.468577 0.439473,0.468577 z m -0.09313,-1.591999 c 0,-0.145521 0.05239,-0.209551 0.206639,-0.209551 0.183357,0 0.209551,0.03493 0.209551,0.209551 v 1.047751 c 0,0.174625 -0.02619,0.20955 -0.209551,0.20955 -0.154252,0 -0.206639,-0.06694 -0.206639,-0.20955 z m 1.871131,-0.544249 h -0.649024 c -0.02328,0 -0.03783,0.01455 -0.03783,0.03784 l 0.0029,2.060577 c 0,0.02328 0.01455,0.03784 0.03784,0.03784 h 0.267758 c 0.02328,0 0.03784,-0.01455 0.03784,-0.03784 v -0.704322 h 0.122237 l 0.259028,0.715964 c 0.0058,0.01746 0.02037,0.02619 0.03493,0.02619 h 0.256117 c 0.03201,0 0.04657,-0.02037 0.03493,-0.04948 l -0.241565,-0.715963 c 0.174625,-0.05821 0.235744,-0.218281 0.235744,-0.369623 v -0.649024 c 0,-0.183356 -0.145521,-0.352161 -0.360892,-0.352161 z m -0.06694,0.334698 c 0.04366,0 0.0844,0.03784 0.0844,0.08731 v 0.547159 c 0,0.04948 -0.03784,0.09022 -0.0844,0.09022 h -0.273579 v -0.724695 z"
     id="text505"
     aria-label="SELECTOR" /><path
     style="font-size:2.91042px;line-height:1.8;font-family:'Autogate Sans';-inkscape-font-specification:'Autogate Sans';text-align:center;letter-spacing:0.264583px;text-anchor:middle;fill:#f9f9f9;stroke-width:0.264583"
     d="m 6.1367463,103.51166 c -0.023283,0 -0.037836,0.0145 -0.037836,0.0378 l -0.00291,2.06058 c 0,0.0233 0.014552,0.0378 0.037835,0.0378 h 0.2735794 c 0.023283,0 0.037835,-0.0146 0.037835,-0.0378 v -0.70141 h 0.3026837 c 0.2677586,0 0.3987275,-0.17172 0.3987275,-0.39582 v -0.64902 c 0,-0.18336 -0.145521,-0.35216 -0.3608921,-0.35216 z m 0.582084,0.33469 c 0.043656,0 0.084402,0.0408 0.084402,0.0873 v 0.55007 c 0,0.0495 -0.040746,0.0902 -0.084402,0.0902 H 6.4452508 v -0.72761 z m 1.3530792,1.80155 h 0.2299232 c 0.2968628,0 0.436563,-0.23574 0.436563,-0.46857 v -1.20201 c 0,-0.22992 -0.1397002,-0.46566 -0.436563,-0.46566 H 8.0719095 c -0.2939524,0 -0.4394734,0.23574 -0.4394734,0.46566 v 1.20201 c 0,0.23283 0.145521,0.46857 0.4394734,0.46857 z m -0.093134,-1.592 c 0,-0.14552 0.052388,-0.20955 0.2066399,-0.20955 0.1833564,0 0.2095502,0.0349 0.2095502,0.20955 v 1.04775 c 0,0.17463 -0.026194,0.20956 -0.2095502,0.20956 -0.1542523,0 -0.2066399,-0.0669 -0.2066399,-0.20956 z m 1.5684503,1.25731 -0.00291,-1.76372 c 0,-0.0233 -0.014552,-0.0378 -0.037836,-0.0378 H 9.2416322 c -0.023283,0 -0.037835,0.0145 -0.037835,0.0378 l -0.00582,2.06058 c 0,0.0233 0.014552,0.0378 0.037835,0.0378 h 0.9109617 c 0.02328,0 0.03784,-0.0146 0.03784,-0.0378 v -0.25903 c 0,-0.0233 -0.01455,-0.0378 -0.03784,-0.0378 z m 1.3006947,0.29686 c 0,0.0233 0.01455,0.0378 0.03784,0.0378 h 0.270669 c 0.02328,0 0.03783,-0.0146 0.03783,-0.0378 v -0.55589 c 0,-0.0553 -0.0058,-0.0961 -0.0087,-0.1397 -0.0029,-0.0437 -0.0029,-0.0815 0.0087,-0.13388 0.01746,-0.0786 0.03493,-0.1397 0.05821,-0.19791 0.02619,-0.064 0.0553,-0.12515 0.08149,-0.20664 l 0.285221,-0.81492 c 0.01164,-0.0291 -0.0029,-0.0495 -0.03493,-0.0495 h -0.276489 c -0.01455,0 -0.0291,0.0116 -0.03493,0.0262 l -0.250296,0.74798 -0.250296,-0.74798 c -0.0058,-0.0145 -0.02037,-0.0262 -0.03492,-0.0262 h -0.282311 c -0.03201,0 -0.04657,0.0204 -0.03492,0.0495 l 0.285222,0.81492 c 0.02619,0.0815 0.0553,0.14261 0.08149,0.20664 0.02328,0.0582 0.04366,0.11933 0.06112,0.19791 0.01164,0.0524 0.01164,0.0902 0.0087,0.13388 -0.0029,0.0436 -0.0087,0.0844 -0.0087,0.1397 z"
     id="text165"
     aria-label="POLY" /><path
     style="font-size:2.91042px;line-height:1.8;font-family:'Autogate Sans';-inkscape-font-specification:'Autogate Sans';text-align:center;letter-spacing:0.264583px;text-anchor:middle;fill:#f9f9f9;stroke-width:0.264583"
     d="m 68.713378,115.44958 c 0,0.0233 0.01455,0.0378 0.03784,0.0378 h 0.270669 c 0.02328,0 0.03784,-0.0145 0.03784,-0.0378 l 0.0029,-0.38999 c 0,-0.0408 -0.0029,-0.0728 -0.0058,-0.10187 0,-0.0291 0.0029,-0.0582 0.0087,-0.0931 l 0.01455,-0.0291 0.05239,-0.0931 c 0.01455,-0.0262 0.0291,-0.0524 0.03784,-0.0757 l 0.311415,0.79746 c 0.0058,0.0145 0.02037,0.0233 0.03493,0.0233 h 0.305594 c 0.01746,0 0.02328,-0.009 0.01746,-0.0233 l -0.01164,-0.0233 c -0.154252,-0.38417 -0.299773,-0.77417 -0.456936,-1.15834 l 0.468578,-0.87604 c 0.01746,-0.032 0.0029,-0.0553 -0.03493,-0.0553 h -0.27649 c -0.01455,0 -0.02619,0.009 -0.03493,0.0204 l -0.430742,0.80619 -0.0029,-0.78872 c 0,-0.0233 -0.01455,-0.0378 -0.03784,-0.0378 h -0.270669 c -0.02328,0 -0.03784,0.0145 -0.03784,0.0378 z m 2.665681,-1.11178 c 0,-0.0233 -0.01455,-0.0378 -0.03784,-0.0378 h -0.541338 c -0.02328,0 -0.03784,0.0145 -0.03784,0.0378 v 0.26194 c 0,0.0233 0.01455,0.0378 0.03784,0.0378 l 0.235744,-0.003 v 0.3085 c 0,0.17463 -0.02619,0.20955 -0.209551,0.20955 -0.154252,0 -0.206639,-0.0669 -0.206639,-0.20955 v -1.04775 c 0,-0.14552 0.05239,-0.20955 0.206639,-0.20955 0.05239,0 0.09313,0.003 0.122238,0.0233 0.03784,0.0233 0.06112,0.0873 0.07276,0.17172 0.01455,0.0786 0.01455,0.16298 0.01455,0.20955 v 0.0175 c 0,0.0116 0.0058,0.0175 0.01746,0.0175 h 0.288132 c 0.02328,0 0.03784,-0.0145 0.03784,-0.0378 v -0.27067 c 0,-0.22993 -0.1397,-0.46567 -0.436563,-0.46567 h -0.229923 c -0.293952,0 -0.439473,0.23574 -0.439473,0.46567 v 1.19036 c 0,0.22701 0.145521,0.48022 0.439473,0.48022 h 0.229923 c 0.296863,0 0.436563,-0.23574 0.436563,-0.46858 z"
     id="text169"
     aria-label="KG" /><path
     style="font-size:2.91042px;line-height:1.8;font-family:'Autogate Sans';-inkscape-font-specification:'Autogate Sans';text-align:center;letter-spacing:0.264583px;text-anchor:middle;fill:#f9f9f9;stroke-width:0.264583"
     d="m 80.712669,115.15272 -0.0029,-1.76371 c 0,-0.0233 -0.01455,-0.0378 -0.03784,-0.0378 h -0.264848 c -0.02328,0 -0.03784,0.0145 -0.03784,0.0378 l -0.0058,2.06057 c 0,0.0233 0.01455,0.0378 0.03784,0.0378 h 0.910962 c 0.02328,0 0.03783,-0.0145 0.03783,-0.0378 v -0.25902 c 0,-0.0233 -0.01455,-0.0378 -0.03783,-0.0378 z m 2.080685,-1.76371 c 0,-0.0233 -0.01455,-0.0378 -0.03784,-0.0378 h -0.908051 c -0.02328,0 -0.03784,0.0145 -0.03784,0.0378 l 0.0029,2.06057 c 0,0.0233 0.01455,0.0378 0.03784,0.0378 h 0.90514 c 0.02328,0 0.03784,-0.0145 0.03784,-0.0378 v -0.25611 c 0,-0.0233 -0.01455,-0.0378 -0.03784,-0.0378 l -0.599546,-0.003 v -0.56753 h 0.430742 c 0.02328,0 0.03784,-0.0145 0.03784,-0.0378 v -0.25611 c 0,-0.0233 -0.01455,-0.0378 -0.03784,-0.0378 h -0.430742 v -0.57044 h 0.599546 c 0.02328,0 0.03784,-0.0145 0.03784,-0.0378 z m 1.163905,1.67349 c 0,0.0466 -0.04075,0.0902 -0.08731,0.0902 h -0.270669 v -1.46685 h 0.270669 c 0.04657,0 0.08731,0.0408 0.08731,0.0902 z m -0.681039,-1.70842 c -0.01164,0 -0.02037,0.009 -0.02037,0.0175 v 2.08969 c 0,0.0116 0.0087,0.0204 0.02037,0.0204 h 0.01746 c 0.215371,0.003 0.427832,0.006 0.643203,0.006 0.215371,0 0.363802,-0.17172 0.363802,-0.35507 v -1.42611 c 0,-0.18335 -0.148431,-0.35507 -0.363802,-0.35507 -0.215371,0 -0.427832,0.003 -0.643203,0.003 z"
     id="text170"
     aria-label="LED" /><path
     style="font-size:2.91042px;line-height:1.8;font-family:'Autogate Sans';-inkscape-font-specification:'Autogate Sans';text-align:center;letter-spacing:0.264583px;text-anchor:middle;fill:#f9f9f9;stroke-width:0.264583"
     d="m 19.198211,115.44958 c 0,0.0233 0.01455,0.0378 0.03784,0.0378 h 0.270669 c 0.02328,0 0.03784,-0.0145 0.03784,-0.0378 l 0.0029,-0.38999 c 0,-0.0408 -0.0029,-0.0728 -0.0058,-0.10187 0,-0.0291 0.0029,-0.0582 0.0087,-0.0931 l 0.01455,-0.0291 0.05239,-0.0931 c 0.01455,-0.0262 0.0291,-0.0524 0.03784,-0.0757 l 0.311414,0.79746 c 0.0058,0.0145 0.02037,0.0233 0.03493,0.0233 h 0.305594 c 0.01746,0 0.02328,-0.009 0.01746,-0.0233 l -0.01164,-0.0233 c -0.154252,-0.38417 -0.299773,-0.77417 -0.456935,-1.15834 l 0.468577,-0.87604 c 0.01746,-0.032 0.0029,-0.0553 -0.03492,-0.0553 h -0.27649 c -0.01455,0 -0.02619,0.009 -0.03492,0.0204 l -0.430742,0.80619 -0.0029,-0.78872 c 0,-0.0233 -0.01455,-0.0378 -0.03784,-0.0378 h -0.270669 c -0.02328,0 -0.03784,0.0145 -0.03784,0.0378 z m 2.581277,-2.06057 c 0,-0.0233 -0.01455,-0.0378 -0.03784,-0.0378 h -0.908051 c -0.02328,0 -0.03784,0.0145 -0.03784,0.0378 l 0.0029,2.06057 c 0,0.0233 0.01455,0.0378 0.03784,0.0378 h 0.905141 c 0.02328,0 0.03784,-0.0145 0.03784,-0.0378 v -0.25611 c 0,-0.0233 -0.01455,-0.0378 -0.03784,-0.0378 l -0.599546,-0.003 v -0.56753 h 0.430742 c 0.02328,0 0.03784,-0.0145 0.03784,-0.0378 v -0.25611 c 0,-0.0233 -0.01455,-0.0378 -0.03784,-0.0378 h -0.430742 v -0.57044 h 0.599546 c 0.02328,0 0.03784,-0.0145 0.03784,-0.0378 z m 0.910698,2.06057 c 0,0.0233 0.01455,0.0378 0.03783,0.0378 h 0.270669 c 0.02328,0 0.03784,-0.0145 0.03784,-0.0378 v -0.55589 c 0,-0.0553 -0.0058,-0.096 -0.0087,-0.1397 -0.0029,-0.0436 -0.0029,-0.0815 0.0087,-0.13388 0.01746,-0.0786 0.03493,-0.1397 0.05821,-0.1979 0.02619,-0.064 0.0553,-0.12515 0.08149,-0.20664 l 0.285221,-0.81492 c 0.01164,-0.0291 -0.0029,-0.0495 -0.03493,-0.0495 h -0.27649 c -0.01455,0 -0.0291,0.0116 -0.03493,0.0262 l -0.250296,0.74798 -0.250296,-0.74798 c -0.0058,-0.0145 -0.02037,-0.0262 -0.03493,-0.0262 h -0.282311 c -0.03202,0 -0.04657,0.0204 -0.03493,0.0495 l 0.285221,0.81492 c 0.02619,0.0815 0.0553,0.14261 0.08149,0.20664 0.02328,0.0582 0.04366,0.11932 0.06112,0.1979 0.01164,0.0524 0.01164,0.0902 0.0087,0.13388 -0.0029,0.0437 -0.0087,0.0844 -0.0087,0.1397 z"
     id="text172"
     aria-label="KEY" /><path
     style="font-size:6.12552px;line-height:1.8;font-family:'Autogate Sans';-inkscape-font-specification:'Autogate Sans';text-align:center;letter-spacing:0.556864px;text-anchor:middle;fill:#d40000;stroke-width:0.556864"
     d="M 36.862546,7.8545277 V 7.4502434 c 0,-0.049004 -0.03063,-0.079632 -0.07963,-0.079632 h -0.563548 c -0.049,0 -0.07963,0.030628 -0.07963,0.079632 v 0.5635478 c 0,0.5145437 0.416536,0.9923343 1.010711,0.9923343 h 0.398159 c 0.551297,0 0.924953,-0.4349119 0.924953,-0.9004515 V 7.4686199 c 0,-0.1960166 -0.110259,-0.3797822 -0.214393,-0.5145437 l -0.03063,-0.042879 c 0,0 -0.0061,-0.00613 -0.0061,-0.00613 l -0.0245,-0.024502 c -0.0061,-0.00613 -0.0061,-0.00613 -0.01225,-0.012251 l -1.261857,-0.9188281 -0.03063,-0.05513 c -0.01225,-0.036753 -0.0245,-0.061255 -0.0245,-0.085757 0,-0.00613 0,-0.00613 0,-0.012251 -0.01225,-0.085757 -0.0061,-0.165389 -0.0061,-0.2511463 0,-0.3369036 0.049,-0.3614057 0.447163,-0.3614057 0.104133,0 0.189891,0.00613 0.251146,0.042879 0.07963,0.049004 0.134761,0.1837656 0.159263,0.3614057 0.03063,0.1715146 0.03063,0.3491547 0.03063,0.4532885 v 0.030628 c 0,0.024502 0.01225,0.036753 0.03675,0.036753 h 0.606427 c 0.049,0 0.07963,-0.030628 0.07963,-0.079632 V 5.4655748 c 0,-0.5206692 -0.416535,-0.9862087 -1.01071,-0.9862087 h -0.398159 c -0.539046,0 -0.924954,0.4226609 -0.924954,0.8943259 v 0.4777906 c 0,0.1898911 0.11026,0.3797823 0.214393,0.5145437 l 0.03063,0.036753 c 0,0.00613 0.0061,0.012251 0.01225,0.018377 l 0.0245,0.018377 1.274108,0.9249536 0.0245,0.05513 c 0.01225,0.036753 0.0245,0.073506 0.0245,0.098008 0,0.00613 0,0.00613 0,0.012251 0.01838,0.1102594 0.0061,0.2266443 0.0061,0.3430292 0,0.091883 0,0.165389 -0.0061,0.2327697 -0.01225,0.05513 -0.0245,0.091883 -0.04288,0.1163849 -0.03675,0.042879 -0.116385,0.073506 -0.349155,0.073506 h -0.049 C 36.917675,8.2894397 36.862546,8.2281845 36.862546,7.8545277 Z M 42.362701,9 c 0.03675,0 0.06738,-0.024502 0.07351,-0.061255 L 43.391788,4.595751 c 0.01225,-0.061255 -0.01838,-0.098008 -0.07963,-0.098008 h -0.569674 c -0.03675,0 -0.06738,0.024502 -0.07351,0.061255 L 42.129931,7.0030804 41.786902,5.0122863 c -0.0061,-0.042879 -0.03675,-0.067381 -0.07963,-0.067381 h -0.551297 c -0.04288,0 -0.07351,0.024502 -0.07963,0.067381 L 40.733313,6.9847038 C 40.549547,6.1761352 40.378032,5.361441 40.212643,4.5528723 l -0.0061,-0.030628 c -0.0061,-0.012251 -0.01838,-0.024502 -0.03675,-0.024502 h -0.624803 c -0.06126,0 -0.09188,0.036753 -0.07963,0.098008 l 0.949455,4.3429938 C 40.420911,8.9754979 40.451539,9 40.488292,9 h 0.563548 c 0.04288,0 0.07351,-0.024502 0.07963,-0.067381 l 0.294025,-1.7335222 0.306276,1.7335222 C 41.737898,8.9754979 41.768525,9 41.811404,9 Z m 2.688548,-4.4165001 c 0,-0.049004 -0.03063,-0.079632 -0.07963,-0.079632 h -0.581925 c -0.049,0 -0.07963,0.030628 -0.07963,0.079632 V 8.9203682 C 44.310061,8.9693724 44.340689,9 44.389693,9 h 0.581925 c 0.049,0 0.07963,-0.030628 0.07963,-0.079632 z m 3.503244,0 c 0,-0.049004 -0.03063,-0.079632 -0.07963,-0.079632 h -2.339949 c -0.049,0 -0.07963,0.030628 -0.07963,0.079632 v 0.5512968 c 0,0.049004 0.03063,0.079632 0.07963,0.079632 l 0.808569,-0.012251 V 8.9203682 C 46.943481,8.9693724 46.974109,9 47.023113,9 h 0.569673 c 0.049,0 0.07963,-0.030628 0.07963,-0.079632 V 5.2021775 h 0.802443 c 0.049,0 0.07963,-0.030628 0.07963,-0.079632 z m 3.233718,3.4302913 V 7.4502434 c 0,-0.049004 -0.03063,-0.079632 -0.07963,-0.079632 h -0.594175 c -0.0245,0 -0.03675,0.012251 -0.03675,0.036753 v 0.036753 c -0.0061,0.1041338 -0.0061,0.2878994 -0.03675,0.4655395 -0.03063,0.1837656 -0.09188,0.306276 -0.171514,0.3491547 -0.0061,0 -0.0061,0 -0.01225,0 -0.05513,0.030628 -0.134762,0.036753 -0.23277,0.036753 -0.324653,0 -0.434912,-0.140887 -0.434912,-0.4410375 V 5.6493404 c 0,-0.306276 0.110259,-0.4410374 0.434912,-0.4410374 0.09801,0 0.17764,0.00613 0.23277,0.036753 0.0061,0 0.0061,0 0.01225,0 0.07963,0.042879 0.134761,0.1776401 0.165389,0.3614057 0.03063,0.1776401 0.03063,0.3675312 0.03063,0.4655395 v 0.036753 c 0,0.024502 0.01225,0.036753 0.03675,0.036753 l 0.606426,-0.012251 c 0.049,0 0.07963,-0.030628 0.07963,-0.079632 V 5.4839514 c 0,-0.4839161 -0.294025,-0.9800832 -0.918828,-0.9800832 h -0.483916 c -0.618678,0 -0.924954,0.4961671 -0.924954,0.9800832 V 8.0137912 C 49.460513,8.5038329 49.766789,9 50.385467,9 h 0.483916 c 0.624803,0 0.918828,-0.4961671 0.918828,-0.9862088 z m 1.040777,-3.509923 c -0.049,0 -0.07963,0.030628 -0.07963,0.079632 V 8.9203682 C 52.749356,8.9693724 52.779984,9 52.828988,9 h 0.581925 c 0.049,0 0.07963,-0.030628 0.07963,-0.079632 l -0.01225,-1.8192795 h 1.047464 V 8.9203682 C 54.525757,8.9693724 54.556385,9 54.605389,9 h 0.569673 c 0.04901,0 0.07963,-0.030628 0.07963,-0.079632 l -0.0061,-4.3368683 c 0,-0.049004 -0.03063,-0.079632 -0.07963,-0.079632 h -0.575799 c -0.049,0 -0.07963,0.030628 -0.07963,0.079632 l 0.01225,1.8192795 h -1.047464 l 0.0061,-1.8192795 c 0,-0.049004 -0.03063,-0.079632 -0.07963,-0.079632 z"
     id="text193"
     aria-label="SWITCH" /><path
     style="font-size:2.91042px;line-height:1.8;font-family:'Autogate Sans';-inkscape-font-specification:'Autogate Sans';text-align:center;letter-spacing:0.264583px;text-anchor:middle;fill:#f9f9f9;stroke-width:0.264583"
     d="m 33.525484,114.01184 -0.27649,-0.63739 c -0.0058,-0.0145 -0.01746,-0.0233 -0.03493,-0.0233 h -0.305594 c -0.01455,0 -0.02037,0.009 -0.01164,0.0204 l 0.0087,0.0233 c 0.145521,0.34343 0.296863,0.68395 0.442384,1.02447 l -0.439474,1.01573 c -0.01455,0.032 0,0.0524 0.03492,0.0524 h 0.267759 c 0.01455,0 0.02619,-0.009 0.03202,-0.0233 l 0.28231,-0.6403 0.279401,0.6403 c 0.0058,0.0145 0.01746,0.0233 0.03493,0.0233 h 0.273579 c 0.03493,0 0.04948,-0.0204 0.03493,-0.0524 l -0.439473,-1.01573 0.439473,-1.01574 c 0.01455,-0.032 0,-0.0524 -0.03493,-0.0524 H 33.84272 c -0.01455,0 -0.02619,0.009 -0.03201,0.0233 z"
     id="text8"
     aria-label="X" /><path
     style="font-size:2.91042px;line-height:1.8;font-family:'Autogate Sans';-inkscape-font-specification:'Autogate Sans';text-align:center;letter-spacing:0.264583px;text-anchor:middle;fill:#f9f9f9;stroke-width:0.264583"
     d="m 45.555975,115.44958 c 0,0.0233 0.01455,0.0378 0.03784,0.0378 h 0.270669 c 0.02328,0 0.03784,-0.0145 0.03784,-0.0378 v -0.55589 c 0,-0.0553 -0.0058,-0.096 -0.0087,-0.1397 -0.0029,-0.0436 -0.0029,-0.0815 0.0087,-0.13388 0.01746,-0.0786 0.03493,-0.1397 0.05821,-0.1979 0.02619,-0.064 0.0553,-0.12515 0.08149,-0.20664 l 0.285221,-0.81492 c 0.01164,-0.0291 -0.0029,-0.0495 -0.03493,-0.0495 h -0.276489 c -0.01455,0 -0.02911,0.0116 -0.03493,0.0262 l -0.250296,0.74798 -0.250296,-0.74798 c -0.0058,-0.0145 -0.02037,-0.0262 -0.03492,-0.0262 h -0.282311 c -0.03201,0 -0.04657,0.0204 -0.03493,0.0495 l 0.285222,0.81492 c 0.02619,0.0815 0.0553,0.14261 0.08149,0.20664 0.02328,0.0582 0.04366,0.11932 0.06112,0.1979 0.01164,0.0524 0.01164,0.0902 0.0087,0.13388 -0.0029,0.0437 -0.0087,0.0844 -0.0087,0.1397 z"
     id="text9"
     aria-label="Y" /><path
     style="font-size:2.91042px;line-height:1.8;font-family:'Autogate Sans';-inkscape-font-specification:'Autogate Sans';text-align:center;letter-spacing:0.264583px;text-anchor:middle;fill:#f9f9f9;stroke-width:0.264583"
     d="m 57.402986,113.35117 c -0.02328,0 -0.03784,0.0145 -0.03784,0.0378 v 0.25611 c 0,0.0233 0.01455,0.0378 0.03784,0.0378 h 0.617009 l -0.657755,1.75207 c -0.01164,0.032 0.0029,0.0524 0.03493,0.0524 h 1.033199 c 0.02328,0 0.03784,-0.0145 0.03784,-0.0378 v -0.25902 c 0,-0.0233 -0.01455,-0.0378 -0.03784,-0.0378 l -0.617009,0.003 0.663575,-1.75207 c 0.01164,-0.032 -0.0029,-0.0524 -0.03493,-0.0524 z"
     id="text10"
     aria-label="z" /><text
     xml:space="preserve"
     style="font-size:2.91042px;line-height:1.8;font-family:'Halogen by Pixel Surplus';-inkscape-font-specification:'Halogen by Pixel Surplus';text-align:center;letter-spacing:0.264583px;text-anchor:middle;fill:#00ff00;stroke-width:0.264583"
     x="66.909317"
     y="46.5"
     id="text13"><tspan
       sodipodi:role="line"
       id="tspan13"
       style="stroke-width:0.264583"
       x="66.909317"
       y="46.5" /></text><path
     style="font-size:2.91042px;line-height:1.8;font-family:'Autogate Sans';-inkscape-font-specification:'Autogate Sans';text-align:center;letter-spacing:0.264583px;text-anchor:middle;fill:#f9f9f9;stroke-width:0.264583"
     d="m 6.1367463,83.997426 c -0.023283,0 -0.037836,0.01455 -0.037836,0.03784 l -0.00291,2.060577 c 0,0.02328 0.014552,0.03784 0.037835,0.03784 h 0.2735794 c 0.023283,0 0.037835,-0.01455 0.037835,-0.03784 v -0.701411 h 0.3026837 c 0.2677586,0 0.3987275,-0.171715 0.3987275,-0.395817 v -0.649024 c 0,-0.183356 -0.145521,-0.352161 -0.3608921,-0.352161 z m 0.582084,0.334699 c 0.043656,0 0.084402,0.04075 0.084402,0.08731 v 0.55007 c 0,0.04948 -0.040746,0.09022 -0.084402,0.09022 H 6.4452508 v -0.727605 z m 1.3530792,1.80155 h 0.2299232 c 0.2968628,0 0.436563,-0.235744 0.436563,-0.468578 v -1.202003 c 0,-0.229924 -0.1397002,-0.465668 -0.436563,-0.465668 H 8.0719095 c -0.2939524,0 -0.4394734,0.235744 -0.4394734,0.465668 v 1.202003 c 0,0.232834 0.145521,0.468578 0.4394734,0.468578 z m -0.093134,-1.592 c 0,-0.145521 0.052388,-0.20955 0.2066399,-0.20955 0.1833564,0 0.2095502,0.03493 0.2095502,0.20955 v 1.047751 c 0,0.174625 -0.026194,0.20955 -0.2095502,0.20955 -0.1542523,0 -0.2066399,-0.06694 -0.2066399,-0.20955 z m 1.5684503,1.257301 -0.00291,-1.763714 c 0,-0.02328 -0.014552,-0.03784 -0.037836,-0.03784 H 9.2416322 c -0.023283,0 -0.037835,0.01455 -0.037835,0.03784 l -0.00582,2.060577 c 0,0.02328 0.014552,0.03784 0.037835,0.03784 h 0.9109617 c 0.02328,0 0.03784,-0.01455 0.03784,-0.03784 v -0.259027 c 0,-0.02328 -0.01455,-0.03784 -0.03784,-0.03784 z m 1.3006947,0.296863 c 0,0.02328 0.01455,0.03784 0.03784,0.03784 h 0.270669 c 0.02328,0 0.03783,-0.01455 0.03783,-0.03784 v -0.55589 c 0,-0.0553 -0.0058,-0.09604 -0.0087,-0.1397 -0.0029,-0.04366 -0.0029,-0.08149 0.0087,-0.13388 0.01746,-0.07858 0.03493,-0.1397 0.05821,-0.197908 0.02619,-0.06403 0.0553,-0.125148 0.08149,-0.20664 l 0.285221,-0.814917 c 0.01164,-0.02911 -0.0029,-0.04948 -0.03493,-0.04948 h -0.276489 c -0.01455,0 -0.0291,0.01164 -0.03493,0.02619 L 11.022546,84.771598 10.77225,84.02362 c -0.0058,-0.01455 -0.02037,-0.02619 -0.03492,-0.02619 h -0.282311 c -0.03201,0 -0.04657,0.02037 -0.03492,0.04948 l 0.285222,0.814917 c 0.02619,0.08149 0.0553,0.142611 0.08149,0.20664 0.02328,0.05821 0.04366,0.119327 0.06112,0.197908 0.01164,0.05239 0.01164,0.09022 0.0087,0.13388 -0.0029,0.04366 -0.0087,0.0844 -0.0087,0.1397 z"
     id="text17"
     aria-label="POLY" /><path
     style="font-size:2.91042px;line-height:1.8;font-family:'Autogate Sans';-inkscape-font-specification:'Autogate Sans';text-align:center;letter-spacing:0.264583px;text-anchor:middle;fill:#f9f9f9;stroke-width:0.264583"
     d="m 68.713378,95.935408 c 0,0.02328 0.01455,0.03784 0.03784,0.03784 h 0.270669 c 0.02328,0 0.03784,-0.01455 0.03784,-0.03784 l 0.0029,-0.389996 c 0,-0.04075 -0.0029,-0.07276 -0.0058,-0.101865 0,-0.0291 0.0029,-0.05821 0.0087,-0.09313 l 0.01455,-0.0291 0.05239,-0.09313 c 0.01455,-0.02619 0.0291,-0.05239 0.03784,-0.07567 l 0.311415,0.797455 c 0.0058,0.01455 0.02037,0.02328 0.03493,0.02328 h 0.305594 c 0.01746,0 0.02328,-0.0087 0.01746,-0.02328 l -0.01164,-0.02328 C 69.673817,95.542502 69.528296,95.152505 69.371133,94.76833 l 0.468578,-0.876037 c 0.01746,-0.03201 0.0029,-0.0553 -0.03493,-0.0553 h -0.27649 c -0.01455,0 -0.02619,0.0087 -0.03493,0.02037 l -0.430742,0.806187 -0.0029,-0.788724 c 0,-0.02328 -0.01455,-0.03784 -0.03784,-0.03784 h -0.270669 c -0.02328,0 -0.03784,0.01455 -0.03784,0.03784 z m 2.665681,-1.11178 c 0,-0.02328 -0.01455,-0.03784 -0.03784,-0.03784 h -0.541338 c -0.02328,0 -0.03784,0.01455 -0.03784,0.03784 v 0.261938 c 0,0.02328 0.01455,0.03784 0.03784,0.03784 l 0.235744,-0.0029 v 0.308504 c 0,0.174625 -0.02619,0.20955 -0.209551,0.20955 -0.154252,0 -0.206639,-0.06694 -0.206639,-0.20955 v -1.047751 c 0,-0.145521 0.05239,-0.20955 0.206639,-0.20955 0.05239,0 0.09313,0.0029 0.122238,0.02328 0.03784,0.02328 0.06112,0.08731 0.07276,0.171715 0.01455,0.07858 0.01455,0.162983 0.01455,0.20955 v 0.01746 c 0,0.01164 0.0058,0.01746 0.01746,0.01746 h 0.288132 c 0.02328,0 0.03784,-0.01455 0.03784,-0.03784 v -0.270669 c 0,-0.229924 -0.1397,-0.465668 -0.436563,-0.465668 h -0.229923 c -0.293952,0 -0.439473,0.235744 -0.439473,0.465668 v 1.190361 c 0,0.227013 0.145521,0.48022 0.439473,0.48022 h 0.229923 c 0.296863,0 0.436563,-0.235744 0.436563,-0.468578 z"
     id="text18"
     aria-label="KG" /><path
     style="font-size:2.91042px;line-height:1.8;font-family:'Autogate Sans';-inkscape-font-specification:'Autogate Sans';text-align:center;letter-spacing:0.264583px;text-anchor:middle;fill:#f9f9f9;stroke-width:0.264583"
     d="m 80.712669,95.638545 -0.0029,-1.763714 c 0,-0.02328 -0.01455,-0.03784 -0.03784,-0.03784 h -0.264848 c -0.02328,0 -0.03784,0.01455 -0.03784,0.03784 l -0.0058,2.060577 c 0,0.02328 0.01455,0.03784 0.03784,0.03784 h 0.910962 c 0.02328,0 0.03783,-0.01455 0.03783,-0.03784 v -0.259027 c 0,-0.02328 -0.01455,-0.03784 -0.03783,-0.03784 z m 2.080685,-1.763714 c 0,-0.02328 -0.01455,-0.03784 -0.03784,-0.03784 h -0.908051 c -0.02328,0 -0.03784,0.01455 -0.03784,0.03784 l 0.0029,2.060577 c 0,0.02328 0.01455,0.03784 0.03784,0.03784 h 0.90514 c 0.02328,0 0.03784,-0.01455 0.03784,-0.03784 v -0.256117 c 0,-0.02328 -0.01455,-0.03784 -0.03784,-0.03784 l -0.599546,-0.0029 v -0.567531 h 0.430742 c 0.02328,0 0.03784,-0.01455 0.03784,-0.03784 v -0.256117 c 0,-0.02328 -0.01455,-0.03784 -0.03784,-0.03784 h -0.430742 v -0.570443 h 0.599546 c 0.02328,0 0.03784,-0.01455 0.03784,-0.03784 z m 1.163905,1.673491 c 0,0.04657 -0.04075,0.09022 -0.08731,0.09022 h -0.270669 v -1.466851 h 0.270669 c 0.04657,0 0.08731,0.04075 0.08731,0.09022 z M 83.27622,93.839906 c -0.01164,0 -0.02037,0.0087 -0.02037,0.01746 v 2.089682 c 0,0.01164 0.0087,0.02037 0.02037,0.02037 h 0.01746 c 0.215371,0.0029 0.427832,0.0058 0.643203,0.0058 0.215371,0 0.363802,-0.171715 0.363802,-0.355072 v -1.426105 c 0,-0.183357 -0.148431,-0.355072 -0.363802,-0.355072 -0.215371,0 -0.427832,0.0029 -0.643203,0.0029 z"
     id="text19"
     aria-label="LED" /><path
     style="font-size:2.91042px;line-height:1.8;font-family:'Autogate Sans';-inkscape-font-specification:'Autogate Sans';text-align:center;letter-spacing:0.264583px;text-anchor:middle;fill:#f9f9f9;stroke-width:0.264583"
     d="m 19.198211,95.935408 c 0,0.02328 0.01455,0.03784 0.03784,0.03784 h 0.270669 c 0.02328,0 0.03784,-0.01455 0.03784,-0.03784 l 0.0029,-0.389996 c 0,-0.04075 -0.0029,-0.07276 -0.0058,-0.101865 0,-0.0291 0.0029,-0.05821 0.0087,-0.09313 l 0.01455,-0.0291 0.05239,-0.09313 c 0.01455,-0.02619 0.0291,-0.05239 0.03784,-0.07567 l 0.311414,0.797455 c 0.0058,0.01455 0.02037,0.02328 0.03493,0.02328 h 0.305594 c 0.01746,0 0.02328,-0.0087 0.01746,-0.02328 l -0.01164,-0.02328 C 20.158649,95.542502 20.013128,95.152505 19.855966,94.76833 l 0.468577,-0.876037 c 0.01746,-0.03201 0.0029,-0.0553 -0.03492,-0.0553 h -0.27649 c -0.01455,0 -0.02619,0.0087 -0.03492,0.02037 l -0.430742,0.806187 -0.0029,-0.788724 c 0,-0.02328 -0.01455,-0.03784 -0.03784,-0.03784 h -0.270669 c -0.02328,0 -0.03784,0.01455 -0.03784,0.03784 z m 2.581277,-2.060577 c 0,-0.02328 -0.01455,-0.03784 -0.03784,-0.03784 h -0.908051 c -0.02328,0 -0.03784,0.01455 -0.03784,0.03784 l 0.0029,2.060577 c 0,0.02328 0.01455,0.03784 0.03784,0.03784 h 0.905141 c 0.02328,0 0.03784,-0.01455 0.03784,-0.03784 v -0.256117 c 0,-0.02328 -0.01455,-0.03784 -0.03784,-0.03784 l -0.599546,-0.0029 v -0.567531 h 0.430742 c 0.02328,0 0.03784,-0.01455 0.03784,-0.03784 v -0.256117 c 0,-0.02328 -0.01455,-0.03784 -0.03784,-0.03784 h -0.430742 v -0.570443 h 0.599546 c 0.02328,0 0.03784,-0.01455 0.03784,-0.03784 z m 0.910698,2.060577 c 0,0.02328 0.01455,0.03784 0.03783,0.03784 h 0.270669 c 0.02328,0 0.03784,-0.01455 0.03784,-0.03784 v -0.55589 c 0,-0.0553 -0.0058,-0.09604 -0.0087,-0.1397 -0.0029,-0.04366 -0.0029,-0.08149 0.0087,-0.133879 0.01746,-0.07858 0.03493,-0.139701 0.05821,-0.197909 0.02619,-0.06403 0.0553,-0.125148 0.08149,-0.20664 l 0.285221,-0.814917 c 0.01164,-0.02911 -0.0029,-0.04948 -0.03493,-0.04948 h -0.27649 c -0.01455,0 -0.0291,0.01164 -0.03493,0.02619 l -0.250296,0.747978 -0.250296,-0.747978 c -0.0058,-0.01455 -0.02037,-0.02619 -0.03493,-0.02619 h -0.282311 c -0.03202,0 -0.04657,0.02037 -0.03493,0.04948 l 0.285221,0.814917 c 0.02619,0.08149 0.0553,0.142611 0.08149,0.20664 0.02328,0.05821 0.04366,0.119327 0.06112,0.197909 0.01164,0.05239 0.01164,0.09022 0.0087,0.133879 -0.0029,0.04366 -0.0087,0.0844 -0.0087,0.1397 z"
     id="text20"
     aria-label="KEY" /><path
     style="font-size:2.91042px;line-height:1.8;font-family:'Autogate Sans';-inkscape-font-specification:'Autogate Sans';text-align:center;letter-spacing:0.264583px;text-anchor:middle;fill:#f9f9f9;stroke-width:0.264583"
     d="m 33.525484,94.497661 -0.27649,-0.637382 c -0.0058,-0.01455 -0.01746,-0.02328 -0.03493,-0.02328 h -0.305594 c -0.01455,0 -0.02037,0.0087 -0.01164,0.02037 l 0.0087,0.02328 c 0.145521,0.343429 0.296863,0.683948 0.442384,1.024468 l -0.439474,1.015736 c -0.01455,0.03202 0,0.05239 0.03492,0.05239 h 0.267759 c 0.01455,0 0.02619,-0.0087 0.03202,-0.02328 l 0.28231,-0.640292 0.279401,0.640292 c 0.0058,0.01455 0.01746,0.02328 0.03493,0.02328 h 0.273579 c 0.03493,0 0.04948,-0.02037 0.03493,-0.05239 l -0.439473,-1.015736 0.439473,-1.015737 c 0.01455,-0.03202 0,-0.05239 -0.03493,-0.05239 H 33.84272 c -0.01455,0 -0.02619,0.0087 -0.03201,0.02328 z"
     id="text21"
     aria-label="X" /><path
     style="font-size:2.91042px;line-height:1.8;font-family:'Autogate Sans';-inkscape-font-specification:'Autogate Sans';text-align:center;letter-spacing:0.264583px;text-anchor:middle;fill:#f9f9f9;stroke-width:0.264583"
     d="m 45.555975,95.935408 c 0,0.02328 0.01455,0.03784 0.03784,0.03784 h 0.270669 c 0.02328,0 0.03784,-0.01455 0.03784,-0.03784 v -0.55589 c 0,-0.0553 -0.0058,-0.09604 -0.0087,-0.1397 -0.0029,-0.04366 -0.0029,-0.08149 0.0087,-0.133879 0.01746,-0.07858 0.03493,-0.139701 0.05821,-0.197909 0.02619,-0.06403 0.0553,-0.125148 0.08149,-0.20664 l 0.285221,-0.814917 c 0.01164,-0.02911 -0.0029,-0.04948 -0.03493,-0.04948 h -0.276489 c -0.01455,0 -0.02911,0.01164 -0.03493,0.02619 L 45.7306,94.611167 45.480304,93.863189 c -0.0058,-0.01455 -0.02037,-0.02619 -0.03492,-0.02619 h -0.282311 c -0.03201,0 -0.04657,0.02037 -0.03493,0.04948 l 0.285222,0.814917 c 0.02619,0.08149 0.0553,0.142611 0.08149,0.20664 0.02328,0.05821 0.04366,0.119327 0.06112,0.197909 0.01164,0.05239 0.01164,0.09022 0.0087,0.133879 -0.0029,0.04366 -0.0087,0.0844 -0.0087,0.1397 z"
     id="text22"
     aria-label="Y" /><path
     style="font-size:2.91042px;line-height:1.8;font-family:'Autogate Sans';-inkscape-font-specification:'Autogate Sans';text-align:center;letter-spacing:0.264583px;text-anchor:middle;fill:#f9f9f9;stroke-width:0.264583"
     d="m 57.402986,93.836995 c -0.02328,0 -0.03784,0.01455 -0.03784,0.03784 v 0.256117 c 0,0.02328 0.01455,0.03784 0.03784,0.03784 h 0.617009 l -0.657755,1.752073 c -0.01164,0.03202 0.0029,0.05239 0.03493,0.05239 h 1.033199 c 0.02328,0 0.03784,-0.01455 0.03784,-0.03784 v -0.259027 c 0,-0.02328 -0.01455,-0.03784 -0.03784,-0.03784 l -0.617009,0.0029 0.663575,-1.752073 c 0.01164,-0.03202 -0.0029,-0.05239 -0.03493,-0.05239 z"
     id="text23"
     aria-label="z" /><path
     style="font-size:2.91042px;line-height:1.8;font-family:'Autogate Sans';-inkscape-font-specification:'Autogate Sans';text-align:center;letter-spacing:0.264583px;text-anchor:middle;fill:#f9f9f9;stroke-width:0.264583"
     d="m 6.1367463,64.496297 c -0.023283,0 -0.037836,0.01455 -0.037836,0.03784 l -0.00291,2.060577 c 0,0.02328 0.014552,0.03783 0.037835,0.03783 h 0.2735794 c 0.023283,0 0.037835,-0.01455 0.037835,-0.03783 v -0.701411 h 0.3026837 c 0.2677586,0 0.3987275,-0.171715 0.3987275,-0.395817 v -0.649024 c 0,-0.183356 -0.145521,-0.352161 -0.3608921,-0.352161 z m 0.582084,0.334699 c 0.043656,0 0.084402,0.04075 0.084402,0.08731 v 0.550069 c 0,0.04948 -0.040746,0.09022 -0.084402,0.09022 H 6.4452508 v -0.727605 z m 1.3530792,1.801549 h 0.2299232 c 0.2968628,0 0.436563,-0.235744 0.436563,-0.468577 v -1.202004 c 0,-0.229923 -0.1397002,-0.465667 -0.436563,-0.465667 H 8.0719095 c -0.2939524,0 -0.4394734,0.235744 -0.4394734,0.465667 v 1.202004 c 0,0.232833 0.145521,0.468577 0.4394734,0.468577 z M 7.978776,65.040546 c 0,-0.145521 0.052388,-0.20955 0.2066399,-0.20955 0.1833564,0 0.2095502,0.03493 0.2095502,0.20955 v 1.047751 c 0,0.174625 -0.026194,0.20955 -0.2095502,0.20955 -0.1542523,0 -0.2066399,-0.06694 -0.2066399,-0.20955 z m 1.5684503,1.257301 -0.00291,-1.763714 c 0,-0.02328 -0.014552,-0.03784 -0.037836,-0.03784 H 9.2416322 c -0.023283,0 -0.037835,0.01455 -0.037835,0.03784 l -0.00582,2.060577 c 0,0.02328 0.014552,0.03783 0.037835,0.03783 h 0.9109617 c 0.02328,0 0.03784,-0.01455 0.03784,-0.03783 v -0.259027 c 0,-0.02328 -0.01455,-0.03784 -0.03784,-0.03784 z m 1.3006947,0.296863 c 0,0.02328 0.01455,0.03783 0.03784,0.03783 h 0.270669 c 0.02328,0 0.03783,-0.01455 0.03783,-0.03783 v -0.55589 c 0,-0.0553 -0.0058,-0.09604 -0.0087,-0.1397 -0.0029,-0.04366 -0.0029,-0.08149 0.0087,-0.13388 0.01746,-0.07858 0.03493,-0.1397 0.05821,-0.197908 0.02619,-0.06403 0.0553,-0.125148 0.08149,-0.20664 l 0.285221,-0.814918 c 0.01164,-0.0291 -0.0029,-0.04948 -0.03493,-0.04948 h -0.276489 c -0.01455,0 -0.0291,0.01164 -0.03493,0.02619 l -0.250296,0.747978 -0.250296,-0.747978 c -0.0058,-0.01455 -0.02037,-0.02619 -0.03492,-0.02619 h -0.282311 c -0.03201,0 -0.04657,0.02037 -0.03492,0.04948 l 0.285222,0.814918 c 0.02619,0.08149 0.0553,0.142611 0.08149,0.20664 0.02328,0.05821 0.04366,0.119327 0.06112,0.197908 0.01164,0.05239 0.01164,0.09022 0.0087,0.13388 -0.0029,0.04366 -0.0087,0.0844 -0.0087,0.1397 z"
     id="text166"
     aria-label="POLY" /><path
     style="font-size:2.91042px;line-height:1.8;font-family:'Autogate Sans';-inkscape-font-specification:'Autogate Sans';text-align:center;letter-spacing:0.264583px;text-anchor:middle;fill:#f9f9f9;stroke-width:0.264583"
     d="m 68.713378,76.434279 c 0,0.02328 0.01455,0.03784 0.03784,0.03784 h 0.270669 c 0.02328,0 0.03784,-0.01455 0.03784,-0.03784 l 0.0029,-0.389996 c 0,-0.04075 -0.0029,-0.07276 -0.0058,-0.101865 0,-0.0291 0.0029,-0.05821 0.0087,-0.09313 l 0.01455,-0.02911 0.05239,-0.09313 c 0.01455,-0.02619 0.0291,-0.05239 0.03784,-0.07567 l 0.311415,0.797455 c 0.0058,0.01455 0.02037,0.02328 0.03493,0.02328 h 0.305594 c 0.01746,0 0.02328,-0.0087 0.01746,-0.02328 l -0.01164,-0.02328 c -0.154252,-0.384176 -0.299773,-0.774172 -0.456936,-1.158347 l 0.468578,-0.876037 c 0.01746,-0.03201 0.0029,-0.0553 -0.03493,-0.0553 h -0.27649 c -0.01455,0 -0.02619,0.0087 -0.03493,0.02037 l -0.430742,0.806187 -0.0029,-0.788724 c 0,-0.02328 -0.01455,-0.03784 -0.03784,-0.03784 h -0.270669 c -0.02328,0 -0.03784,0.01455 -0.03784,0.03784 z m 2.665681,-1.11178 c 0,-0.02328 -0.01455,-0.03784 -0.03784,-0.03784 h -0.541338 c -0.02328,0 -0.03784,0.01455 -0.03784,0.03784 v 0.261937 c 0,0.02328 0.01455,0.03784 0.03784,0.03784 l 0.235744,-0.0029 v 0.308504 c 0,0.174625 -0.02619,0.20955 -0.209551,0.20955 -0.154252,0 -0.206639,-0.06694 -0.206639,-0.20955 v -1.047751 c 0,-0.145521 0.05239,-0.20955 0.206639,-0.20955 0.05239,0 0.09313,0.0029 0.122238,0.02328 0.03784,0.02328 0.06112,0.08731 0.07276,0.171715 0.01455,0.07858 0.01455,0.162983 0.01455,0.20955 v 0.01746 c 0,0.01164 0.0058,0.01746 0.01746,0.01746 h 0.288132 c 0.02328,0 0.03784,-0.01455 0.03784,-0.03784 v -0.270669 c 0,-0.229924 -0.1397,-0.465668 -0.436563,-0.465668 h -0.229923 c -0.293952,0 -0.439473,0.235744 -0.439473,0.465668 v 1.190361 c 0,0.227013 0.145521,0.48022 0.439473,0.48022 h 0.229923 c 0.296863,0 0.436563,-0.235744 0.436563,-0.468578 z"
     id="text167"
     aria-label="KG" /><path
     style="font-size:2.91042px;line-height:1.8;font-family:'Autogate Sans';-inkscape-font-specification:'Autogate Sans';text-align:center;letter-spacing:0.264583px;text-anchor:middle;fill:#f9f9f9;stroke-width:0.264583"
     d="m 80.712669,76.137416 -0.0029,-1.763714 c 0,-0.02328 -0.01455,-0.03784 -0.03784,-0.03784 h -0.264848 c -0.02328,0 -0.03784,0.01455 -0.03784,0.03784 l -0.0058,2.060577 c 0,0.02328 0.01455,0.03784 0.03784,0.03784 h 0.910962 c 0.02328,0 0.03783,-0.01455 0.03783,-0.03784 v -0.259027 c 0,-0.02328 -0.01455,-0.03784 -0.03783,-0.03784 z m 2.080685,-1.763714 c 0,-0.02328 -0.01455,-0.03784 -0.03784,-0.03784 h -0.908051 c -0.02328,0 -0.03784,0.01455 -0.03784,0.03784 l 0.0029,2.060577 c 0,0.02328 0.01455,0.03784 0.03784,0.03784 h 0.90514 c 0.02328,0 0.03784,-0.01455 0.03784,-0.03784 v -0.256117 c 0,-0.02328 -0.01455,-0.03784 -0.03784,-0.03784 l -0.599546,-0.0029 v -0.567532 h 0.430742 c 0.02328,0 0.03784,-0.01455 0.03784,-0.03784 v -0.256117 c 0,-0.02328 -0.01455,-0.03784 -0.03784,-0.03784 h -0.430742 v -0.570443 h 0.599546 c 0.02328,0 0.03784,-0.01455 0.03784,-0.03784 z m 1.163905,1.673491 c 0,0.04657 -0.04075,0.09022 -0.08731,0.09022 h -0.270669 v -1.466851 h 0.270669 c 0.04657,0 0.08731,0.04075 0.08731,0.09022 z M 83.27622,74.338777 c -0.01164,0 -0.02037,0.0087 -0.02037,0.01746 v 2.089682 c 0,0.01164 0.0087,0.02037 0.02037,0.02037 h 0.01746 c 0.215371,0.0029 0.427832,0.0058 0.643203,0.0058 0.215371,0 0.363802,-0.171715 0.363802,-0.355072 v -1.426105 c 0,-0.183357 -0.148431,-0.355072 -0.363802,-0.355072 -0.215371,0 -0.427832,0.0029 -0.643203,0.0029 z"
     id="text168"
     aria-label="LED" /><path
     style="font-size:2.91042px;line-height:1.8;font-family:'Autogate Sans';-inkscape-font-specification:'Autogate Sans';text-align:center;letter-spacing:0.264583px;text-anchor:middle;fill:#f9f9f9;stroke-width:0.264583"
     d="m 19.198211,76.434279 c 0,0.02328 0.01455,0.03784 0.03784,0.03784 h 0.270669 c 0.02328,0 0.03784,-0.01455 0.03784,-0.03784 l 0.0029,-0.389996 c 0,-0.04075 -0.0029,-0.07276 -0.0058,-0.101865 0,-0.0291 0.0029,-0.05821 0.0087,-0.09313 l 0.01455,-0.02911 0.05239,-0.09313 c 0.01455,-0.02619 0.0291,-0.05239 0.03784,-0.07567 l 0.311414,0.797455 c 0.0058,0.01455 0.02037,0.02328 0.03493,0.02328 h 0.305594 c 0.01746,0 0.02328,-0.0087 0.01746,-0.02328 l -0.01164,-0.02328 c -0.154252,-0.384176 -0.299773,-0.774172 -0.456935,-1.158347 l 0.468577,-0.876037 c 0.01746,-0.03201 0.0029,-0.0553 -0.03492,-0.0553 h -0.27649 c -0.01455,0 -0.02619,0.0087 -0.03492,0.02037 l -0.430742,0.806187 -0.0029,-0.788724 c 0,-0.02328 -0.01455,-0.03784 -0.03784,-0.03784 h -0.270669 c -0.02328,0 -0.03784,0.01455 -0.03784,0.03784 z m 2.581277,-2.060577 c 0,-0.02328 -0.01455,-0.03784 -0.03784,-0.03784 h -0.908051 c -0.02328,0 -0.03784,0.01455 -0.03784,0.03784 l 0.0029,2.060577 c 0,0.02328 0.01455,0.03784 0.03784,0.03784 h 0.905141 c 0.02328,0 0.03784,-0.01455 0.03784,-0.03784 v -0.256117 c 0,-0.02328 -0.01455,-0.03784 -0.03784,-0.03784 l -0.599546,-0.0029 v -0.567532 h 0.430742 c 0.02328,0 0.03784,-0.01455 0.03784,-0.03784 v -0.256117 c 0,-0.02328 -0.01455,-0.03784 -0.03784,-0.03784 h -0.430742 v -0.570443 h 0.599546 c 0.02328,0 0.03784,-0.01455 0.03784,-0.03784 z m 0.910698,2.060577 c 0,0.02328 0.01455,0.03784 0.03783,0.03784 h 0.270669 c 0.02328,0 0.03784,-0.01455 0.03784,-0.03784 v -0.55589 c 0,-0.0553 -0.0058,-0.09604 -0.0087,-0.1397 -0.0029,-0.04366 -0.0029,-0.08149 0.0087,-0.13388 0.01746,-0.07858 0.03493,-0.1397 0.05821,-0.197908 0.02619,-0.06403 0.0553,-0.125148 0.08149,-0.20664 l 0.285221,-0.814918 c 0.01164,-0.0291 -0.0029,-0.04948 -0.03493,-0.04948 h -0.27649 c -0.01455,0 -0.0291,0.01164 -0.03493,0.02619 l -0.250296,0.747978 -0.250296,-0.747978 c -0.0058,-0.01455 -0.02037,-0.02619 -0.03493,-0.02619 h -0.282311 c -0.03202,0 -0.04657,0.02037 -0.03493,0.04948 l 0.285221,0.814918 c 0.02619,0.08149 0.0553,0.142611 0.08149,0.20664 0.02328,0.05821 0.04366,0.119327 0.06112,0.197908 0.01164,0.05239 0.01164,0.09022 0.0087,0.13388 -0.0029,0.04366 -0.0087,0.0844 -0.0087,0.1397 z"
     id="text171"
     aria-label="KEY" /><path
     style="font-size:2.91042px;line-height:1.8;font-family:'Autogate Sans';-inkscape-font-specification:'Autogate Sans';text-align:center;letter-spacing:0.264583px;text-anchor:middle;fill:#f9f9f9;stroke-width:0.264583"
     d="m 33.525484,74.996532 -0.27649,-0.637382 c -0.0058,-0.01455 -0.01746,-0.02328 -0.03493,-0.02328 h -0.305594 c -0.01455,0 -0.02037,0.0087 -0.01164,0.02037 l 0.0087,0.02328 c 0.145521,0.343429 0.296863,0.683948 0.442384,1.024467 l -0.439474,1.015737 c -0.01455,0.03202 0,0.05239 0.03492,0.05239 h 0.267759 c 0.01455,0 0.02619,-0.0087 0.03202,-0.02328 l 0.28231,-0.640292 0.279401,0.640292 c 0.0058,0.01455 0.01746,0.02328 0.03493,0.02328 h 0.273579 c 0.03493,0 0.04948,-0.02037 0.03493,-0.05239 l -0.439473,-1.015737 0.439473,-1.015736 c 0.01455,-0.03202 0,-0.05239 -0.03493,-0.05239 H 33.84272 c -0.01455,0 -0.02619,0.0087 -0.03201,0.02328 z"
     id="text173"
     aria-label="X" /><path
     style="font-size:2.91042px;line-height:1.8;font-family:'Autogate Sans';-inkscape-font-specification:'Autogate Sans';text-align:center;letter-spacing:0.264583px;text-anchor:middle;fill:#f9f9f9;stroke-width:0.264583"
     d="m 45.555975,76.434279 c 0,0.02328 0.01455,0.03784 0.03784,0.03784 h 0.270669 c 0.02328,0 0.03784,-0.01455 0.03784,-0.03784 v -0.55589 c 0,-0.0553 -0.0058,-0.09604 -0.0087,-0.1397 -0.0029,-0.04366 -0.0029,-0.08149 0.0087,-0.13388 0.01746,-0.07858 0.03493,-0.1397 0.05821,-0.197908 0.02619,-0.06403 0.0553,-0.125148 0.08149,-0.20664 l 0.285221,-0.814918 c 0.01164,-0.0291 -0.0029,-0.04948 -0.03493,-0.04948 h -0.276489 c -0.01455,0 -0.02911,0.01164 -0.03493,0.02619 L 45.7306,75.110038 45.480304,74.36206 c -0.0058,-0.01455 -0.02037,-0.02619 -0.03492,-0.02619 h -0.282311 c -0.03201,0 -0.04657,0.02037 -0.03493,0.04948 l 0.285222,0.814918 c 0.02619,0.08149 0.0553,0.142611 0.08149,0.20664 0.02328,0.05821 0.04366,0.119327 0.06112,0.197908 0.01164,0.05239 0.01164,0.09022 0.0087,0.13388 -0.0029,0.04366 -0.0087,0.0844 -0.0087,0.1397 z"
     id="text174"
     aria-label="Y" /><path
     style="font-size:2.91042px;line-height:1.8;font-family:'Autogate Sans';-inkscape-font-specification:'Autogate Sans';text-align:center;letter-spacing:0.264583px;text-anchor:middle;fill:#f9f9f9;stroke-width:0.264583"
     d="m 57.402986,74.335866 c -0.02328,0 -0.03784,0.01455 -0.03784,0.03784 v 0.256117 c 0,0.02328 0.01455,0.03784 0.03784,0.03784 h 0.617009 l -0.657755,1.752073 c -0.01164,0.03202 0.0029,0.05239 0.03493,0.05239 h 1.033199 c 0.02328,0 0.03784,-0.01455 0.03784,-0.03784 v -0.259027 c 0,-0.02328 -0.01455,-0.03784 -0.03784,-0.03784 l -0.617009,0.0029 0.663575,-1.752073 c 0.01164,-0.03202 -0.0029,-0.05239 -0.03493,-0.05239 z"
     id="text175"
     aria-label="z" /><path
     style="font-size:2.91042px;line-height:1.8;font-family:'Autogate Sans';-inkscape-font-specification:'Autogate Sans';text-align:center;letter-spacing:0.264583px;text-anchor:middle;fill:#f9f9f9;stroke-width:0.264583"
     d="m 6.1367463,44.999997 c -0.023283,0 -0.037836,0.01455 -0.037836,0.03784 l -0.00291,2.060577 c 0,0.02328 0.014552,0.03784 0.037835,0.03784 h 0.2735794 c 0.023283,0 0.037835,-0.01455 0.037835,-0.03784 v -0.701411 h 0.3026837 c 0.2677586,0 0.3987275,-0.171715 0.3987275,-0.395817 v -0.649024 c 0,-0.183356 -0.145521,-0.352161 -0.3608921,-0.352161 z m 0.582084,0.334699 c 0.043656,0 0.084402,0.04075 0.084402,0.08731 v 0.55007 c 0,0.04948 -0.040746,0.09022 -0.084402,0.09022 H 6.4452508 v -0.727605 z m 1.3530792,1.80155 h 0.2299232 c 0.2968628,0 0.436563,-0.235744 0.436563,-0.468578 v -1.202003 c 0,-0.229923 -0.1397002,-0.465668 -0.436563,-0.465668 H 8.0719095 c -0.2939524,0 -0.4394734,0.235745 -0.4394734,0.465668 v 1.202003 c 0,0.232834 0.145521,0.468578 0.4394734,0.468578 z m -0.093134,-1.592 c 0,-0.145521 0.052388,-0.20955 0.2066399,-0.20955 0.1833564,0 0.2095502,0.03493 0.2095502,0.20955 v 1.047751 c 0,0.174625 -0.026194,0.20955 -0.2095502,0.20955 -0.1542523,0 -0.2066399,-0.06694 -0.2066399,-0.20955 z m 1.5684503,1.257301 -0.00291,-1.763714 c 0,-0.02328 -0.014552,-0.03784 -0.037836,-0.03784 H 9.2416322 c -0.023283,0 -0.037835,0.01455 -0.037835,0.03784 l -0.00582,2.060577 c 0,0.02328 0.014552,0.03784 0.037835,0.03784 h 0.9109617 c 0.02328,0 0.03784,-0.01455 0.03784,-0.03784 v -0.259027 c 0,-0.02328 -0.01455,-0.03784 -0.03784,-0.03784 z m 1.3006947,0.296863 c 0,0.02328 0.01455,0.03784 0.03784,0.03784 h 0.270669 c 0.02328,0 0.03783,-0.01455 0.03783,-0.03784 v -0.55589 c 0,-0.0553 -0.0058,-0.09604 -0.0087,-0.1397 -0.0029,-0.04366 -0.0029,-0.08149 0.0087,-0.133879 0.01746,-0.07858 0.03493,-0.139701 0.05821,-0.197909 0.02619,-0.06403 0.0553,-0.125148 0.08149,-0.20664 l 0.285221,-0.814917 c 0.01164,-0.02911 -0.0029,-0.04948 -0.03493,-0.04948 h -0.276489 c -0.01455,0 -0.0291,0.01164 -0.03493,0.02619 l -0.250296,0.747978 -0.250296,-0.747978 c -0.0058,-0.01455 -0.02037,-0.02619 -0.03492,-0.02619 h -0.282311 c -0.03201,0 -0.04657,0.02037 -0.03492,0.04948 l 0.285222,0.814917 c 0.02619,0.08149 0.0553,0.142611 0.08149,0.20664 0.02328,0.05821 0.04366,0.119327 0.06112,0.197909 0.01164,0.05239 0.01164,0.09022 0.0087,0.133879 -0.0029,0.04366 -0.0087,0.0844 -0.0087,0.1397 z"
     id="text273"
     aria-label="POLY" /><path
     style="font-size:2.91042px;line-height:1.8;font-family:'Autogate Sans';-inkscape-font-specification:'Autogate Sans';text-align:center;letter-spacing:0.264583px;text-anchor:middle;fill:#f9f9f9;stroke-width:0.264583"
     d="m 68.713378,56.937979 c 0,0.02328 0.01455,0.03784 0.03784,0.03784 h 0.270669 c 0.02328,0 0.03784,-0.01455 0.03784,-0.03784 l 0.0029,-0.389996 c 0,-0.04075 -0.0029,-0.07276 -0.0058,-0.101865 0,-0.0291 0.0029,-0.05821 0.0087,-0.09313 l 0.01455,-0.0291 0.05239,-0.09313 c 0.01455,-0.02619 0.0291,-0.05239 0.03784,-0.07567 l 0.311415,0.797455 c 0.0058,0.01455 0.02037,0.02328 0.03493,0.02328 h 0.305594 c 0.01746,0 0.02328,-0.0087 0.01746,-0.02328 l -0.01164,-0.02328 c -0.154252,-0.384175 -0.299773,-0.774172 -0.456936,-1.158347 l 0.468578,-0.876036 c 0.01746,-0.03202 0.0029,-0.0553 -0.03493,-0.0553 h -0.27649 c -0.01455,0 -0.02619,0.0087 -0.03493,0.02037 l -0.430742,0.806186 -0.0029,-0.788724 c 0,-0.02328 -0.01455,-0.03783 -0.03784,-0.03783 h -0.270669 c -0.02328,0 -0.03784,0.01455 -0.03784,0.03783 z m 2.665681,-1.11178 c 0,-0.02328 -0.01455,-0.03784 -0.03784,-0.03784 h -0.541338 c -0.02328,0 -0.03784,0.01455 -0.03784,0.03784 v 0.261938 c 0,0.02328 0.01455,0.03783 0.03784,0.03783 l 0.235744,-0.0029 v 0.308504 c 0,0.174625 -0.02619,0.209551 -0.209551,0.209551 -0.154252,0 -0.206639,-0.06694 -0.206639,-0.209551 v -1.047751 c 0,-0.145521 0.05239,-0.20955 0.206639,-0.20955 0.05239,0 0.09313,0.0029 0.122238,0.02328 0.03784,0.02328 0.06112,0.08731 0.07276,0.171715 0.01455,0.07858 0.01455,0.162984 0.01455,0.20955 v 0.01746 c 0,0.01164 0.0058,0.01746 0.01746,0.01746 h 0.288132 c 0.02328,0 0.03784,-0.01455 0.03784,-0.03784 v -0.270669 c 0,-0.229923 -0.1397,-0.465667 -0.436563,-0.465667 h -0.229923 c -0.293952,0 -0.439473,0.235744 -0.439473,0.465667 v 1.190362 c 0,0.227012 0.145521,0.480219 0.439473,0.480219 h 0.229923 c 0.296863,0 0.436563,-0.235744 0.436563,-0.468578 z"
     id="text274"
     aria-label="KG" /><path
     style="font-size:2.91042px;line-height:1.8;font-family:'Autogate Sans';-inkscape-font-specification:'Autogate Sans';text-align:center;letter-spacing:0.264583px;text-anchor:middle;fill:#f9f9f9;stroke-width:0.264583"
     d="m 80.712669,56.641117 -0.0029,-1.763715 c 0,-0.02328 -0.01455,-0.03783 -0.03784,-0.03783 h -0.264848 c -0.02328,0 -0.03784,0.01455 -0.03784,0.03783 l -0.0058,2.060577 c 0,0.02328 0.01455,0.03784 0.03784,0.03784 h 0.910962 c 0.02328,0 0.03783,-0.01455 0.03783,-0.03784 v -0.259027 c 0,-0.02328 -0.01455,-0.03784 -0.03783,-0.03784 z m 2.080685,-1.763715 c 0,-0.02328 -0.01455,-0.03783 -0.03784,-0.03783 h -0.908051 c -0.02328,0 -0.03784,0.01455 -0.03784,0.03783 l 0.0029,2.060577 c 0,0.02328 0.01455,0.03784 0.03784,0.03784 h 0.90514 c 0.02328,0 0.03784,-0.01455 0.03784,-0.03784 v -0.256117 c 0,-0.02328 -0.01455,-0.03784 -0.03784,-0.03784 l -0.599546,-0.0029 v -0.567532 h 0.430742 c 0.02328,0 0.03784,-0.01455 0.03784,-0.03784 v -0.256117 c 0,-0.02328 -0.01455,-0.03784 -0.03784,-0.03784 h -0.430742 v -0.570443 h 0.599546 c 0.02328,0 0.03784,-0.01455 0.03784,-0.03784 z m 1.163905,1.673492 c 0,0.04657 -0.04075,0.09022 -0.08731,0.09022 h -0.270669 v -1.466852 h 0.270669 c 0.04657,0 0.08731,0.04075 0.08731,0.09022 z M 83.27622,54.842477 c -0.01164,0 -0.02037,0.0087 -0.02037,0.01746 v 2.089681 c 0,0.01164 0.0087,0.02037 0.02037,0.02037 h 0.01746 c 0.215371,0.0029 0.427832,0.0058 0.643203,0.0058 0.215371,0 0.363802,-0.171715 0.363802,-0.355071 v -1.426106 c 0,-0.183357 -0.148431,-0.355071 -0.363802,-0.355071 -0.215371,0 -0.427832,0.0029 -0.643203,0.0029 z"
     id="text275"
     aria-label="LED" /><path
     style="font-size:2.91042px;line-height:1.8;font-family:'Autogate Sans';-inkscape-font-specification:'Autogate Sans';text-align:center;letter-spacing:0.264583px;text-anchor:middle;fill:#f9f9f9;stroke-width:0.264583"
     d="m 19.198211,56.937979 c 0,0.02328 0.01455,0.03784 0.03784,0.03784 h 0.270669 c 0.02328,0 0.03784,-0.01455 0.03784,-0.03784 l 0.0029,-0.389996 c 0,-0.04075 -0.0029,-0.07276 -0.0058,-0.101865 0,-0.0291 0.0029,-0.05821 0.0087,-0.09313 l 0.01455,-0.0291 0.05239,-0.09313 c 0.01455,-0.02619 0.0291,-0.05239 0.03784,-0.07567 l 0.311414,0.797455 c 0.0058,0.01455 0.02037,0.02328 0.03493,0.02328 h 0.305594 c 0.01746,0 0.02328,-0.0087 0.01746,-0.02328 l -0.01164,-0.02328 c -0.154252,-0.384175 -0.299773,-0.774172 -0.456935,-1.158347 l 0.468577,-0.876036 c 0.01746,-0.03202 0.0029,-0.0553 -0.03492,-0.0553 h -0.27649 c -0.01455,0 -0.02619,0.0087 -0.03492,0.02037 l -0.430742,0.806186 -0.0029,-0.788724 c 0,-0.02328 -0.01455,-0.03783 -0.03784,-0.03783 h -0.270669 c -0.02328,0 -0.03784,0.01455 -0.03784,0.03783 z m 2.581277,-2.060577 c 0,-0.02328 -0.01455,-0.03783 -0.03784,-0.03783 h -0.908051 c -0.02328,0 -0.03784,0.01455 -0.03784,0.03783 l 0.0029,2.060577 c 0,0.02328 0.01455,0.03784 0.03784,0.03784 h 0.905141 c 0.02328,0 0.03784,-0.01455 0.03784,-0.03784 v -0.256117 c 0,-0.02328 -0.01455,-0.03784 -0.03784,-0.03784 l -0.599546,-0.0029 v -0.567532 h 0.430742 c 0.02328,0 0.03784,-0.01455 0.03784,-0.03784 v -0.256117 c 0,-0.02328 -0.01455,-0.03784 -0.03784,-0.03784 h -0.430742 v -0.570443 h 0.599546 c 0.02328,0 0.03784,-0.01455 0.03784,-0.03784 z m 0.910698,2.060577 c 0,0.02328 0.01455,0.03784 0.03783,0.03784 h 0.270669 c 0.02328,0 0.03784,-0.01455 0.03784,-0.03784 v -0.55589 c 0,-0.0553 -0.0058,-0.09604 -0.0087,-0.1397 -0.0029,-0.04366 -0.0029,-0.08149 0.0087,-0.133879 0.01746,-0.07858 0.03493,-0.1397 0.05821,-0.197909 0.02619,-0.06403 0.0553,-0.125148 0.08149,-0.20664 l 0.285221,-0.814917 c 0.01164,-0.0291 -0.0029,-0.04948 -0.03493,-0.04948 h -0.27649 c -0.01455,0 -0.0291,0.01164 -0.03493,0.02619 l -0.250296,0.747978 -0.250296,-0.747978 c -0.0058,-0.01455 -0.02037,-0.02619 -0.03493,-0.02619 h -0.282311 c -0.03202,0 -0.04657,0.02037 -0.03493,0.04948 l 0.285221,0.814917 c 0.02619,0.08149 0.0553,0.142611 0.08149,0.20664 0.02328,0.05821 0.04366,0.119327 0.06112,0.197909 0.01164,0.05239 0.01164,0.09022 0.0087,0.133879 -0.0029,0.04366 -0.0087,0.0844 -0.0087,0.1397 z"
     id="text276"
     aria-label="KEY" /><path
     style="font-size:2.91042px;line-height:1.8;font-family:'Autogate Sans';-inkscape-font-specification:'Autogate Sans';text-align:center;letter-spacing:0.264583px;text-anchor:middle;fill:#f9f9f9;stroke-width:0.264583"
     d="m 33.525484,55.500232 -0.27649,-0.637382 c -0.0058,-0.01455 -0.01746,-0.02328 -0.03493,-0.02328 h -0.305594 c -0.01455,0 -0.02037,0.0087 -0.01164,0.02037 l 0.0087,0.02328 c 0.145521,0.343429 0.296863,0.683949 0.442384,1.024468 l -0.439474,1.015736 c -0.01455,0.03202 0,0.05239 0.03492,0.05239 h 0.267759 c 0.01455,0 0.02619,-0.0087 0.03202,-0.02328 l 0.28231,-0.640292 0.279401,0.640292 c 0.0058,0.01455 0.01746,0.02328 0.03493,0.02328 h 0.273579 c 0.03493,0 0.04948,-0.02037 0.03493,-0.05239 l -0.439473,-1.015736 0.439473,-1.015737 c 0.01455,-0.03201 0,-0.05239 -0.03493,-0.05239 H 33.84272 c -0.01455,0 -0.02619,0.0087 -0.03201,0.02328 z"
     id="text277"
     aria-label="X" /><path
     style="font-size:2.91042px;line-height:1.8;font-family:'Autogate Sans';-inkscape-font-specification:'Autogate Sans';text-align:center;letter-spacing:0.264583px;text-anchor:middle;fill:#f9f9f9;stroke-width:0.264583"
     d="m 45.555975,56.937979 c 0,0.02328 0.01455,0.03784 0.03784,0.03784 h 0.270669 c 0.02328,0 0.03784,-0.01455 0.03784,-0.03784 v -0.55589 c 0,-0.0553 -0.0058,-0.09604 -0.0087,-0.1397 -0.0029,-0.04366 -0.0029,-0.08149 0.0087,-0.133879 0.01746,-0.07858 0.03493,-0.1397 0.05821,-0.197909 0.02619,-0.06403 0.0553,-0.125148 0.08149,-0.20664 l 0.285221,-0.814917 c 0.01164,-0.0291 -0.0029,-0.04948 -0.03493,-0.04948 h -0.276489 c -0.01455,0 -0.02911,0.01164 -0.03493,0.02619 L 45.7306,55.613738 45.480304,54.86576 c -0.0058,-0.01455 -0.02037,-0.02619 -0.03492,-0.02619 h -0.282311 c -0.03201,0 -0.04657,0.02037 -0.03493,0.04948 l 0.285222,0.814917 c 0.02619,0.08149 0.0553,0.142611 0.08149,0.20664 0.02328,0.05821 0.04366,0.119327 0.06112,0.197909 0.01164,0.05239 0.01164,0.09022 0.0087,0.133879 -0.0029,0.04366 -0.0087,0.0844 -0.0087,0.1397 z"
     id="text278"
     aria-label="Y" /><path
     style="font-size:2.91042px;line-height:1.8;font-family:'Autogate Sans';-inkscape-font-specification:'Autogate Sans';text-align:center;letter-spacing:0.264583px;text-anchor:middle;fill:#f9f9f9;stroke-width:0.264583"
     d="m 57.402986,54.839567 c -0.02328,0 -0.03784,0.01455 -0.03784,0.03783 v 0.256117 c 0,0.02328 0.01455,0.03784 0.03784,0.03784 h 0.617009 l -0.657755,1.752073 c -0.01164,0.03202 0.0029,0.05239 0.03493,0.05239 h 1.033199 c 0.02328,0 0.03784,-0.01455 0.03784,-0.03784 v -0.259027 c 0,-0.02328 -0.01455,-0.03784 -0.03784,-0.03784 l -0.617009,0.0029 0.663575,-1.752073 c 0.01164,-0.03201 -0.0029,-0.05239 -0.03493,-0.05239 z"
     id="text279"
     aria-label="z" /><path
     style="font-size:2.91042px;line-height:1.8;font-family:'Autogate Sans';-inkscape-font-specification:'Autogate Sans';text-align:center;letter-spacing:0.264583px;text-anchor:middle;fill:#f9f9f9;stroke-width:0.264583"
     d="m 68.714462,37.462165 c 0,0.02328 0.01455,0.03784 0.03784,0.03784 h 0.270669 c 0.02328,0 0.03784,-0.01455 0.03784,-0.03784 l 0.0029,-0.389997 c 0,-0.04075 -0.0029,-0.07276 -0.0058,-0.101864 0,-0.02911 0.0029,-0.05821 0.0087,-0.09313 l 0.01455,-0.0291 0.05239,-0.09313 c 0.01455,-0.02619 0.0291,-0.05239 0.03784,-0.07567 l 0.311414,0.797455 c 0.0058,0.01455 0.02037,0.02328 0.03493,0.02328 h 0.305594 c 0.01746,0 0.02328,-0.0087 0.01746,-0.02328 l -0.01164,-0.02328 C 69.6749,37.069258 69.529379,36.679262 69.372217,36.295086 l 0.468577,-0.876036 c 0.01746,-0.03202 0.0029,-0.0553 -0.03493,-0.0553 h -0.27649 c -0.01455,0 -0.02619,0.0087 -0.03493,0.02037 l -0.430742,0.806186 -0.0029,-0.788724 c 0,-0.02328 -0.01455,-0.03784 -0.03784,-0.03784 h -0.270669 c -0.02328,0 -0.03784,0.01455 -0.03784,0.03784 z m 2.665681,-1.111781 c 0,-0.02328 -0.01455,-0.03784 -0.03784,-0.03784 h -0.541338 c -0.02328,0 -0.03784,0.01455 -0.03784,0.03784 v 0.261938 c 0,0.02328 0.01455,0.03784 0.03784,0.03784 l 0.235744,-0.0029 v 0.308504 c 0,0.174626 -0.02619,0.209551 -0.20955,0.209551 -0.154252,0 -0.20664,-0.06694 -0.20664,-0.209551 V 35.908 c 0,-0.145521 0.05239,-0.20955 0.20664,-0.20955 0.05239,0 0.09313,0.0029 0.122237,0.02328 0.03784,0.02328 0.06112,0.08731 0.07276,0.171715 0.01455,0.07858 0.01455,0.162984 0.01455,0.20955 v 0.01746 c 0,0.01164 0.0058,0.01746 0.01746,0.01746 h 0.288131 c 0.02328,0 0.03784,-0.01455 0.03784,-0.03784 v -0.270669 c 0,-0.229923 -0.139701,-0.465667 -0.436563,-0.465667 h -0.229924 c -0.293952,0 -0.439473,0.235744 -0.439473,0.465667 v 1.190362 c 0,0.227012 0.145521,0.480219 0.439473,0.480219 h 0.229924 c 0.296862,0 0.436563,-0.235744 0.436563,-0.468578 z"
     id="text372"
     aria-label="KG" /><path
     style="font-size:2.91042px;line-height:1.8;font-family:'Autogate Sans';-inkscape-font-specification:'Autogate Sans';text-align:center;letter-spacing:0.264583px;text-anchor:middle;fill:#f9f9f9;stroke-width:0.264583"
     d="m 80.713753,37.165302 -0.0029,-1.763715 c 0,-0.02328 -0.01455,-0.03784 -0.03784,-0.03784 h -0.264849 c -0.02328,0 -0.03784,0.01455 -0.03784,0.03784 l -0.0058,2.060578 c 0,0.02328 0.01455,0.03784 0.03784,0.03784 h 0.910961 c 0.02328,0 0.03784,-0.01455 0.03784,-0.03784 v -0.259028 c 0,-0.02328 -0.01455,-0.03784 -0.03784,-0.03784 z m 2.080684,-1.763715 c 0,-0.02328 -0.01455,-0.03784 -0.03784,-0.03784 h -0.908051 c -0.02328,0 -0.03784,0.01455 -0.03784,0.03784 l 0.0029,2.060578 c 0,0.02328 0.01455,0.03784 0.03784,0.03784 h 0.905141 c 0.02328,0 0.03784,-0.01455 0.03784,-0.03784 v -0.256117 c 0,-0.02328 -0.01455,-0.03784 -0.03784,-0.03784 l -0.599547,-0.0029 V 36.59777 h 0.430742 c 0.02328,0 0.03784,-0.01455 0.03784,-0.03784 v -0.256117 c 0,-0.02328 -0.01455,-0.03784 -0.03784,-0.03784 H 82.157055 V 35.69554 h 0.599547 c 0.02328,0 0.03784,-0.01455 0.03784,-0.03784 z m 1.163905,1.673492 c 0,0.04657 -0.04075,0.09022 -0.08731,0.09022 H 83.60036 V 35.69845 h 0.270669 c 0.04657,0 0.08731,0.04075 0.08731,0.09022 z m -0.681038,-1.708417 c -0.01164,0 -0.02037,0.0087 -0.02037,0.01746 v 2.089681 c 0,0.01164 0.0087,0.02037 0.02037,0.02037 h 0.01746 c 0.215371,0.0029 0.427832,0.0058 0.643203,0.0058 0.215371,0 0.363802,-0.171715 0.363802,-0.355071 v -1.426106 c 0,-0.183356 -0.148431,-0.355071 -0.363802,-0.355071 -0.215371,0 -0.427832,0.0029 -0.643203,0.0029 z"
     id="text373"
     aria-label="LED" /><path
     style="font-size:2.91042px;line-height:1.8;font-family:'Autogate Sans';-inkscape-font-specification:'Autogate Sans';text-align:center;letter-spacing:0.264583px;text-anchor:middle;fill:#f9f9f9;stroke-width:0.264583"
     d="m 19.199298,37.462165 c 0,0.02328 0.01455,0.03784 0.03784,0.03784 h 0.270669 c 0.02328,0 0.03784,-0.01455 0.03784,-0.03784 l 0.0029,-0.389997 c 0,-0.04075 -0.0029,-0.07276 -0.0058,-0.101864 0,-0.02911 0.0029,-0.05821 0.0087,-0.09313 l 0.01455,-0.0291 0.05239,-0.09313 c 0.01455,-0.02619 0.0291,-0.05239 0.03784,-0.07567 l 0.311415,0.797455 c 0.0058,0.01455 0.02037,0.02328 0.03492,0.02328 h 0.305594 c 0.01746,0 0.02328,-0.0087 0.01746,-0.02328 l -0.01164,-0.02328 C 20.159736,37.069258 20.014215,36.679262 19.857053,36.295086 L 20.32563,35.41905 c 0.01746,-0.03202 0.0029,-0.0553 -0.03493,-0.0553 h -0.27649 c -0.01455,0 -0.02619,0.0087 -0.03493,0.02037 l -0.430742,0.806186 -0.0029,-0.788724 c 0,-0.02328 -0.01455,-0.03784 -0.03784,-0.03784 h -0.270669 c -0.02328,0 -0.03784,0.01455 -0.03784,0.03784 z m 2.581277,-2.060578 c 0,-0.02328 -0.01455,-0.03784 -0.03784,-0.03784 h -0.908051 c -0.02328,0 -0.03784,0.01455 -0.03784,0.03784 l 0.0029,2.060578 c 0,0.02328 0.01455,0.03784 0.03784,0.03784 h 0.90514 c 0.02328,0 0.03784,-0.01455 0.03784,-0.03784 v -0.256117 c 0,-0.02328 -0.01455,-0.03784 -0.03784,-0.03784 l -0.599546,-0.0029 V 36.59777 h 0.430742 c 0.02328,0 0.03784,-0.01455 0.03784,-0.03784 v -0.256117 c 0,-0.02328 -0.01455,-0.03784 -0.03784,-0.03784 H 21.143193 V 35.69554 h 0.599546 c 0.02328,0 0.03784,-0.01455 0.03784,-0.03784 z m 0.910698,2.060578 c 0,0.02328 0.01455,0.03784 0.03784,0.03784 h 0.270669 c 0.02328,0 0.03784,-0.01455 0.03784,-0.03784 v -0.555891 c 0,-0.0553 -0.0058,-0.09604 -0.0087,-0.1397 -0.0029,-0.04366 -0.0029,-0.08149 0.0087,-0.133879 0.01746,-0.07858 0.03493,-0.1397 0.05821,-0.197909 0.02619,-0.06403 0.0553,-0.125148 0.08149,-0.20664 l 0.285221,-0.814917 c 0.01164,-0.0291 -0.0029,-0.04948 -0.03493,-0.04948 h -0.27649 c -0.01455,0 -0.0291,0.01164 -0.03493,0.02619 l -0.250296,0.747977 -0.250296,-0.747977 c -0.0058,-0.01455 -0.02037,-0.02619 -0.03492,-0.02619 h -0.282311 c -0.03201,0 -0.04657,0.02037 -0.03493,0.04948 l 0.285221,0.814917 c 0.02619,0.08149 0.0553,0.142611 0.08149,0.20664 0.02328,0.05821 0.04366,0.119328 0.06112,0.197909 0.01164,0.05239 0.01164,0.09022 0.0087,0.133879 -0.0029,0.04366 -0.0087,0.0844 -0.0087,0.1397 z"
     id="text374"
     aria-label="KEY" /><path
     style="font-size:2.91042px;line-height:1.8;font-family:'Autogate Sans';-inkscape-font-specification:'Autogate Sans';text-align:center;letter-spacing:0.264583px;text-anchor:middle;fill:#4c4c4c;stroke-width:0.264583"
     d="m 33.526572,36.024417 -0.27649,-0.637382 c -0.0058,-0.01455 -0.01746,-0.02328 -0.03493,-0.02328 h -0.305594 c -0.01455,0 -0.02037,0.0087 -0.01164,0.02037 l 0.0087,0.02328 c 0.145521,0.34343 0.296863,0.683949 0.442384,1.024468 l -0.439473,1.015736 c -0.01455,0.03202 0,0.05239 0.03493,0.05239 h 0.267758 c 0.01455,0 0.02619,-0.0087 0.03202,-0.02328 l 0.282311,-0.640293 0.2794,0.640293 c 0.0058,0.01455 0.01746,0.02328 0.03493,0.02328 h 0.273579 c 0.03492,0 0.04948,-0.02037 0.03492,-0.05239 l -0.439473,-1.015736 0.439473,-1.015737 c 0.01455,-0.03201 0,-0.05239 -0.03492,-0.05239 h -0.270669 c -0.01455,0 -0.02619,0.0087 -0.03201,0.02328 z"
     id="text375"
     aria-label="X" /><path
     style="font-size:2.91042px;line-height:1.8;font-family:'Autogate Sans';-inkscape-font-specification:'Autogate Sans';text-align:center;letter-spacing:0.264583px;text-anchor:middle;fill:#4c4c4c;stroke-width:0.264583"
     d="m 45.557062,37.462165 c 0,0.02328 0.01455,0.03784 0.03784,0.03784 h 0.270669 c 0.02328,0 0.03784,-0.01455 0.03784,-0.03784 v -0.555891 c 0,-0.0553 -0.0058,-0.09604 -0.0087,-0.1397 -0.0029,-0.04366 -0.0029,-0.08149 0.0087,-0.133879 0.01746,-0.07858 0.03493,-0.1397 0.05821,-0.197909 0.02619,-0.06403 0.0553,-0.125148 0.08149,-0.20664 l 0.285222,-0.814917 c 0.01164,-0.0291 -0.0029,-0.04948 -0.03493,-0.04948 h -0.27649 c -0.01455,0 -0.02911,0.01164 -0.03493,0.02619 l -0.250296,0.747977 -0.250297,-0.747977 c -0.0058,-0.01455 -0.02037,-0.02619 -0.03493,-0.02619 h -0.28231 c -0.03202,0 -0.04657,0.02037 -0.03493,0.04948 l 0.285221,0.814917 c 0.02619,0.08149 0.0553,0.142611 0.08149,0.20664 0.02328,0.05821 0.04366,0.119328 0.06112,0.197909 0.01164,0.05239 0.01164,0.09022 0.0087,0.133879 -0.0029,0.04366 -0.0087,0.0844 -0.0087,0.1397 z"
     id="text376"
     aria-label="Y" /><path
     style="font-size:2.91042px;line-height:1.8;font-family:'Autogate Sans';-inkscape-font-specification:'Autogate Sans';text-align:center;letter-spacing:0.264583px;text-anchor:middle;fill:#4c4c4c;stroke-width:0.264583"
     d="m 57.404073,35.363752 c -0.02328,0 -0.03784,0.01455 -0.03784,0.03784 v 0.256117 c 0,0.02328 0.01455,0.03784 0.03784,0.03784 h 0.617009 l -0.657755,1.752072 c -0.01164,0.03202 0.0029,0.05239 0.03493,0.05239 h 1.033199 c 0.02328,0 0.03783,-0.01455 0.03783,-0.03784 v -0.259028 c 0,-0.02328 -0.01455,-0.03784 -0.03783,-0.03784 l -0.617009,0.0029 0.663576,-1.752073 c 0.01164,-0.03201 -0.0029,-0.05239 -0.03493,-0.05239 z"
     id="text377"
     aria-label="z" /><path
     style="font-size:2.91042px;line-height:1.8;font-family:'Autogate Sans';-inkscape-font-specification:'Autogate Sans';text-align:center;letter-spacing:0.264583px;text-anchor:middle;fill:#4c4c4c;stroke-width:0.264583"
     d="m 6.0412316,37.075079 c 0,0.04657 -0.040746,0.09022 -0.087313,0.09022 H 5.6832499 V 35.69845 H 5.953919 c 0.046567,0 0.087313,0.04075 0.087313,0.09022 z M 5.3601933,35.366662 c -0.011642,0 -0.020373,0.0087 -0.020373,0.01746 v 2.089681 c 0,0.01164 0.00873,0.02037 0.020373,0.02037 h 0.017463 c 0.2153711,0.0029 0.4278318,0.0058 0.6432028,0.0058 0.2153711,0 0.3638025,-0.171715 0.3638025,-0.355071 v -1.426106 c 0,-0.183356 -0.1484314,-0.355071 -0.3638025,-0.355071 -0.215371,0 -0.4278317,0.0029 -0.6432028,0.0029 z m 1.871134,0.03493 c 0,-0.02328 -0.014552,-0.03784 -0.037835,-0.03784 H 6.9170019 c -0.023283,0 -0.037835,0.01455 -0.037835,0.03784 v 2.060578 c 0,0.02328 0.014552,0.03784 0.037835,0.03784 h 0.2764899 c 0.023283,0 0.037835,-0.01455 0.037835,-0.03784 z m 0.8204756,1.554164 v -0.192087 c 0,-0.02328 -0.014552,-0.03784 -0.037835,-0.03784 H 7.7462088 c -0.023283,0 -0.037835,0.01455 -0.037835,0.03784 v 0.267758 c 0,0.244476 0.1979086,0.471488 0.4802193,0.471488 h 0.1891773 c 0.2619378,0 0.4394734,-0.206639 0.4394734,-0.427831 v -0.302684 c 0,-0.09313 -0.052388,-0.180446 -0.1018647,-0.244475 l -0.014552,-0.02037 c 0,0 -0.00291,-0.0029 -0.00291,-0.0029 l -0.011642,-0.01164 c -0.00291,-0.0029 -0.00291,-0.0029 -0.00582,-0.0058 L 8.0809071,36.050611 8.066355,36.024417 c -0.00582,-0.01746 -0.011642,-0.0291 -0.011642,-0.04075 0,-0.0029 0,-0.0029 0,-0.0058 -0.00582,-0.04075 -0.00291,-0.07858 -0.00291,-0.119327 0,-0.160073 0.023283,-0.171715 0.2124607,-0.171715 0.049477,0 0.090223,0.0029 0.1193272,0.02037 0.037835,0.02328 0.064029,0.08731 0.075671,0.171715 0.014552,0.08149 0.014552,0.165894 0.014552,0.215371 v 0.01455 c 0,0.01164 0.00582,0.01746 0.017463,0.01746 h 0.2881316 c 0.023283,0 0.037835,-0.01455 0.037835,-0.03784 v -0.267758 c 0,-0.247386 -0.1979085,-0.468578 -0.4802192,-0.468578 H 8.1478468 c -0.256117,0 -0.4394735,0.200819 -0.4394735,0.424921 v 0.227013 c 0,0.09022 0.052388,0.180446 0.1018647,0.244475 l 0.014552,0.01746 c 0,0.0029 0.00291,0.0058 0.00582,0.0087 l 0.011642,0.0087 0.6053673,0.439474 0.011642,0.02619 c 0.00582,0.01746 0.011642,0.03493 0.011642,0.04657 0,0.0029 0,0.0029 0,0.0058 0.00873,0.05239 0.00291,0.107686 0.00291,0.162984 0,0.04366 0,0.07858 -0.00291,0.110596 -0.00582,0.02619 -0.011642,0.04366 -0.020373,0.0553 -0.017463,0.02037 -0.055298,0.03492 -0.1658939,0.03492 h -0.023283 c -0.1833564,-0.0029 -0.2095502,-0.03201 -0.2095502,-0.209551 z m 1.8536704,-0.733425 0.098955,0.477309 H 9.8006982 Z m 0.5820837,1.274764 c 0.0291,0 0.04366,-0.01746 0.03784,-0.04657 l -0.451115,-2.060577 c -0.0029,-0.01746 -0.01746,-0.02911 -0.03492,-0.02911 H 9.7745044 c -0.017462,0 -0.032015,0.01164 -0.034925,0.02911 l -0.4540255,2.060577 c -0.00582,0.0291 0.00873,0.04657 0.037835,0.04657 h 0.2794003 c 0.020373,0 0.034925,-0.01164 0.037835,-0.02911 l 0.087313,-0.433652 h 0.3550713 l 0.08731,0.433652 c 0.0029,0.01746 0.01746,0.02911 0.03784,0.02911 z m 0.506146,-2.133338 c -0.02328,0 -0.03784,0.01455 -0.03784,0.03784 v 2.060578 c 0,0.02328 0.01455,0.03784 0.03784,0.03784 h 0.649023 c 0.215372,0 0.360893,-0.168804 0.360893,-0.352161 v -0.532607 c 0,-0.06694 -0.01455,-0.128058 -0.04948,-0.183356 0.03492,-0.05821 0.04948,-0.119327 0.04948,-0.183357 v -0.532606 c 0,-0.183357 -0.145521,-0.352161 -0.360893,-0.352161 z m 0.582084,0.334698 c 0.04366,0 0.0844,0.04075 0.0844,0.08731 v 0.389996 c 0,0.04657 -0.04075,0.09022 -0.0844,0.09022 h -0.27358 V 35.69845 Z m 0.0844,1.379539 c 0,0.04366 -0.04075,0.08731 -0.0844,0.08731 h -0.27358 V 36.59777 h 0.27358 c 0.04366,0 0.0844,0.04075 0.0844,0.09022 z m 1.158081,0.08731 -0.0029,-1.763715 c 0,-0.02328 -0.01455,-0.03784 -0.03784,-0.03784 h -0.264848 c -0.02328,0 -0.03784,0.01455 -0.03784,0.03784 l -0.0058,2.060578 c 0,0.02328 0.01455,0.03784 0.03784,0.03784 h 0.910961 c 0.02328,0 0.03784,-0.01455 0.03784,-0.03784 v -0.259028 c 0,-0.02328 -0.01455,-0.03784 -0.03784,-0.03784 z m 2.080684,-1.763715 c 0,-0.02328 -0.01455,-0.03784 -0.03783,-0.03784 h -0.908051 c -0.02328,0 -0.03784,0.01455 -0.03784,0.03784 l 0.0029,2.060578 c 0,0.02328 0.01455,0.03784 0.03783,0.03784 h 0.905141 c 0.02328,0 0.03783,-0.01455 0.03783,-0.03784 v -0.256117 c 0,-0.02328 -0.01455,-0.03784 -0.03783,-0.03784 l -0.599547,-0.0029 V 36.59777 h 0.430742 c 0.02328,0 0.03784,-0.01455 0.03784,-0.03784 v -0.256117 c 0,-0.02328 -0.01455,-0.03784 -0.03784,-0.03784 H 14.261572 V 35.69554 h 0.599547 c 0.02328,0 0.03783,-0.01455 0.03783,-0.03784 z"
     id="text466"
     aria-label="DISABLE" /></g>&#10;  <g
   inkscape:groupmode="layer"
   id="layer2-0"
   inkscape:label="components"
   style="display:none"
   sodipodi:insensitive="true">&#10;    &#10;    &#10;    &#10;    &#10;    &#10;    &#10;    &#10;    &#10;    &#10;    &#10;    &#10;    &#10;    &#10;    &#10;    &#10;    &#10;    &#10;    &#10;    &#10;    &#10;    &#10;    &#10;    &#10;    &#10;    &#10;    <circle
   style="display:inline;fill:#ff00ff;fill-opacity:1;stroke-width:4.08699"
   id="circle10"
   cx="14.388978"
   cy="104.63401"
   inkscape:label="led_s4"
   r="2" />&#10;    &#10;    &#10;  <circle
   style="display:inline;fill:#0000ff;fill-opacity:1;stroke-width:0.313059"
   id="out1"
   cx="21.335716"
   cy="68.539604"
   inkscape:label="out2_k"
   r="4" /><circle
   style="display:inline;fill:#0000ff;fill-opacity:1;stroke-width:0.313;stroke-dasharray:none"
   id="ellipse5"
   cx="33.522633"
   cy="68.539604"
   inkscape:label="out2_x"
   r="4" /><circle
   style="display:inline;fill:#0000ff;fill-opacity:1;stroke-width:0.313059"
   id="ellipse6"
   cx="45.709549"
   cy="68.539604"
   inkscape:label="out2_y"
   r="4" /><circle
   style="display:inline;fill:#0000ff;fill-opacity:1;stroke-width:0.313059"
   id="ellipse7"
   cx="58.156464"
   cy="68.539604"
   inkscape:label="out2_z"
   r="4" /><circle
   style="display:inline;fill:#00ff00;fill-opacity:1;stroke-width:0.313059"
   id="circle1"
   cx="21.335716"
   cy="29.567326"
   inkscape:label="in_k"
   r="4" /><circle
   style="display:inline;fill:#00ff00;fill-opacity:1;stroke-width:0.313;stroke-dasharray:none"
   id="circle2"
   cx="33.522633"
   cy="29.567326"
   inkscape:label="in_x"
   r="4" /><circle
   style="display:inline;fill:#00ff00;fill-opacity:1;stroke-width:0.313059"
   id="circle3"
   cx="45.709549"
   cy="29.567326"
   inkscape:label="in_y"
   r="4" /><circle
   style="display:inline;fill:#00ff00;fill-opacity:1;stroke-width:0.313059"
   id="circle4"
   cx="57.599796"
   cy="29.567326"
   inkscape:label="in_z"
   r="4" /><circle
   style="display:inline;fill:#ff0000;fill-opacity:1;stroke-width:0.313;stroke-dasharray:none"
   id="circle16"
   cx="10.181135"
   cy="52.553547"
   inkscape:label="p_s1_poly"
   r="4" /><circle
   style="display:inline;fill:#0000ff;fill-opacity:1;stroke-width:0.313059"
   id="circle10-5"
   cx="21.335716"
   cy="49.043304"
   inkscape:label="out1_k"
   r="4" /><circle
   style="display:inline;fill:#0000ff;fill-opacity:1;stroke-width:0.313;stroke-dasharray:none"
   id="circle11"
   cx="33.522633"
   cy="49.043304"
   inkscape:label="out1_x"
   r="4" /><circle
   style="display:inline;fill:#0000ff;fill-opacity:1;stroke-width:0.313059"
   id="circle12-6"
   cx="45.709549"
   cy="49.043304"
   inkscape:label="out1_y"
   r="4" /><circle
   style="display:inline;fill:#0000ff;fill-opacity:1;stroke-width:0.313059"
   id="circle13-4"
   cx="58.156464"
   cy="49.043304"
   inkscape:label="out1_z"
   r="4" /><circle
   style="display:inline;fill:#00ff00;fill-opacity:1;stroke-width:0.313059"
   id="circle36"
   cx="82.295715"
   cy="49.043304"
   inkscape:label="in1_lights"
   r="4" /><circle
   style="display:inline;fill:#0000ff;fill-opacity:1;stroke-width:0.313059"
   id="circle39"
   cx="82.296799"
   cy="29.567326"
   inkscape:label="out_lights"
   r="4" /><circle
   style="display:inline;fill:#00ff00;fill-opacity:1;stroke-width:0.313059"
   id="circle15"
   cx="82.295715"
   cy="68.539604"
   inkscape:label="in2_lights"
   r="4" /><circle
   style="display:inline;fill:#ff0000;fill-opacity:1;stroke-width:0.313;stroke-dasharray:none"
   id="circle17"
   cx="10.181135"
   cy="72.132729"
   inkscape:label="p_s2_poly"
   r="4" /><circle
   style="display:inline;fill:#00ff00;fill-opacity:1;stroke-width:0.313059"
   id="circle52"
   cx="10.181135"
   cy="29.567326"
   inkscape:label="in_disable"
   r="4" /><circle
   style="display:inline;fill:#00ff00;fill-opacity:1;stroke-width:0.313059"
   id="circle3-8"
   cx="70.103706"
   cy="29.567326"
   inkscape:label="in_kg"
   r="4" /><circle
   style="display:inline;fill:#0000ff;fill-opacity:1;stroke-width:0.313059"
   id="circle9"
   cx="70.103706"
   cy="49.043304"
   inkscape:label="out1_kg"
   r="4" /><circle
   style="display:inline;fill:#0000ff;fill-opacity:1;stroke-width:0.313059"
   id="circle14-5"
   cx="70.103706"
   cy="68.539604"
   inkscape:label="out2_kg"
   r="4" /><circle
   style="display:inline;fill:#00ff00;fill-opacity:1;stroke-width:0.313059"
   id="circle5"
   cx="45.720604"
   cy="15.809181"
   inkscape:label="in_select"
   r="4" /><circle
   style="display:inline;fill:#0000ff;fill-opacity:1;stroke-width:0.313059"
   id="circle26"
   cx="21.335716"
   cy="107.55496"
   inkscape:label="out4_k"
   r="4" /><circle
   style="display:inline;fill:#0000ff;fill-opacity:1;stroke-width:0.313;stroke-dasharray:none"
   id="circle27"
   cx="33.522633"
   cy="107.55496"
   inkscape:label="out4_x"
   r="4" /><circle
   style="display:inline;fill:#0000ff;fill-opacity:1;stroke-width:0.313059"
   id="circle28"
   cx="45.709549"
   cy="107.55496"
   inkscape:label="out4_y"
   r="4" /><circle
   style="display:inline;fill:#0000ff;fill-opacity:1;stroke-width:0.313059"
   id="circle29"
   cx="57.820457"
   cy="107.55496"
   inkscape:label="out4_z"
   r="4" /><circle
   style="display:inline;fill:#ff0000;fill-opacity:1;stroke-width:0.313;stroke-dasharray:none"
   id="circle30"
   cx="10.181135"
   cy="91.711922"
   inkscape:label="p_s3_poly"
   r="4" /><circle
   style="display:inline;fill:#0000ff;fill-opacity:1;stroke-width:0.313059"
   id="circle31"
   cx="21.335716"
   cy="88.040733"
   inkscape:label="out3_k"
   r="4" /><circle
   style="display:inline;fill:#0000ff;fill-opacity:1;stroke-width:0.313;stroke-dasharray:none"
   id="circle32"
   cx="33.522633"
   cy="88.040733"
   inkscape:label="out3_x"
   r="4" /><circle
   style="display:inline;fill:#0000ff;fill-opacity:1;stroke-width:0.313059"
   id="circle33"
   cx="45.709549"
   cy="88.040733"
   inkscape:label="out3_y"
   r="4" /><circle
   style="display:inline;fill:#0000ff;fill-opacity:1;stroke-width:0.313059"
   id="circle34"
   cx="58.156464"
   cy="88.040733"
   inkscape:label="out3_z"
   r="4" /><circle
   style="display:inline;fill:#00ff00;fill-opacity:1;stroke-width:0.313059"
   id="circle35"
   cx="82.295715"
   cy="88.040733"
   inkscape:label="in3_lights"
   r="4" /><circle
   style="display:inline;fill:#00ff00;fill-opacity:1;stroke-width:0.313059"
   id="circle37"
   cx="82.295715"
   cy="107.55496"
   inkscape:label="in4_lights"
   r="4" /><circle
   style="display:inline;fill:#ff0000;fill-opacity:1;stroke-width:0.313;stroke-dasharray:none"
   id="circle38"
   cx="10.181135"
   cy="111.10636"
   inkscape:label="p_s4_poly"
   r="4" /><circle
   style="display:inline;fill:#0000ff;fill-opacity:1;stroke-width:0.313059"
   id="circle40"
   cx="70.103706"
   cy="88.040733"
   inkscape:label="out3_kg"
   r="4" /><circle
   style="display:inline;fill:#0000ff;fill-opacity:1;stroke-width:0.313059"
   id="circle41"
   cx="70.103706"
   cy="107.55496"
   inkscape:label="out4_kg"
   r="4" /><circle
   style="display:inline;fill:#ff00ff;fill-opacity:1;stroke-width:4.08699"
   id="circle518"
   cx="14.388978"
   cy="85.065552"
   inkscape:label="led_s3"
   r="2" /><circle
   style="display:inline;fill:#ff00ff;fill-opacity:1;stroke-width:4.08699"
   id="circle519"
   cx="14.388978"
   cy="65.564423"
   inkscape:label="led_s2"
   r="2" /><circle
   style="display:inline;fill:#ff00ff;fill-opacity:1;stroke-width:4.08699"
   id="circle520"
   cx="14.388978"
   cy="46.068123"
   inkscape:label="led_s1"
   r="2" /></g>&#10;</svg>
