<?xml version="1.0" encoding="UTF-8" standalone="no"?>
<!-- Created with Inkscape (http://www.inkscape.org/) -->

<svg
   width="8.1280003mm"
   height="2.9879999mm"
   viewBox="0 0 8.1280003 2.9879999"
   version="1.1"
   id="svg1"
   inkscape:version="1.3.2 (091e20e, 2023-11-25)"
   sodipodi:docname="LED_OFF.svg"
   xmlns:inkscape="http://www.inkscape.org/namespaces/inkscape"
   xmlns:sodipodi="http://sodipodi.sourceforge.net/DTD/sodipodi-0.dtd"
   xmlns="http://www.w3.org/2000/svg"
   xmlns:svg="http://www.w3.org/2000/svg">
  <sodipodi:namedview
     id="namedview1"
     pagecolor="#ffffff"
     bordercolor="#000000"
     borderopacity="0.25"
     inkscape:showpageshadow="2"
     inkscape:pageopacity="0.0"
     inkscape:pagecheckerboard="0"
     inkscape:deskcolor="#d1d1d1"
     inkscape:document-units="mm"
     inkscape:zoom="15.9649"
     inkscape:cx="2.129672"
     inkscape:cy="8.9884685"
     inkscape:window-width="2352"
     inkscape:window-height="1356"
     inkscape:window-x="0"
     inkscape:window-y="0"
     inkscape:window-maximized="0"
     inkscape:current-layer="layer1" />
  <defs
     id="defs1" />
  <g
     inkscape:label="Layer 1"
     inkscape:groupmode="layer"
     id="layer1">
    <g
       id="g101"
       inkscape:label="BOX"
       transform="matrix(0.61579275,0,0,0.77583702,-46.751098,-86.204694)"
       style="display:inline;fill:#4c4c4c;fill-opacity:1">
      <path
         id="path101"
         style="display:inline;fill:#4c4c4c;fill-opacity:1;stroke-width:0.351895"
         inkscape:label="RED BOX"
         d="M 78.346268 111.11186 A 2.4261409 1.9256622 0 0 0 75.920183 113.03748 A 2.4261409 1.9256622 0 0 0 78.346268 114.9631 L 86.693646 114.9631 A 2.4261409 1.9256622 0 0 0 89.119731 113.03748 A 2.4261409 1.9256622 0 0 0 86.693646 111.11186 L 78.346268 111.11186 z M 79.970092 111.6627 L 80.343529 111.6627 C 80.825611 111.6627 81.052641 111.96648 81.052641 112.26283 L 81.052641 113.81212 C 81.052641 114.11223 80.825611 114.41625 80.343529 114.41625 L 79.970092 114.41625 C 79.492736 114.41625 79.256784 114.11223 79.256784 113.81212 L 79.256784 112.26283 C 79.256784 111.96648 79.492736 111.6627 79.970092 111.6627 z M 81.850706 111.6627 L 83.33019 111.6627 C 83.368 111.6627 83.391451 111.68131 83.391451 111.71133 L 83.391451 112.04902 C 83.391451 112.07904 83.368 112.09765 83.33019 112.09765 L 82.356735 112.09032 L 82.356735 112.82567 L 83.056616 112.82567 C 83.094425 112.82567 83.117876 112.84428 83.117876 112.87429 L 83.117876 113.20466 C 83.117876 113.23467 83.094425 113.25329 83.056616 113.25329 L 82.356735 113.25329 L 82.356735 114.36763 C 82.356735 114.39764 82.333284 114.41625 82.295475 114.41625 L 81.855741 114.41625 C 81.817932 114.41625 81.794481 114.39764 81.794481 114.36763 L 81.789446 111.71133 C 81.789446 111.68131 81.812896 111.6627 81.850706 111.6627 z M 84.242385 111.6627 L 85.72103 111.6627 C 85.758839 111.6627 85.783129 111.68131 85.783129 111.71133 L 85.783129 112.04902 C 85.783129 112.07904 85.758839 112.09765 85.72103 112.09765 L 84.747574 112.09032 L 84.747574 112.82567 L 85.447455 112.82567 C 85.485265 112.82567 85.508716 112.84428 85.508716 112.87429 L 85.508716 113.20466 C 85.508716 113.23467 85.485265 113.25329 85.447455 113.25329 L 84.747574 113.25329 L 84.747574 114.36763 C 84.747574 114.39764 84.724124 114.41625 84.686314 114.41625 L 84.246581 114.41625 C 84.208771 114.41625 84.18532 114.39764 84.18532 114.36763 L 84.180285 111.71133 C 84.180285 111.68131 84.204575 111.6627 84.242385 111.6627 z M 80.154712 112.09432 C 79.90422 112.09432 79.819038 112.17651 79.819038 112.36408 L 79.819038 113.71487 C 79.819038 113.89869 79.904219 113.98463 80.154712 113.98463 C 80.452468 113.98463 80.495422 113.93995 80.495422 113.71487 L 80.495422 112.36408 C 80.495422 112.139 80.452469 112.09432 80.154712 112.09432 z " />
    </g>
  </g>
</svg>
