<?xml version="1.0" encoding="UTF-8" standalone="no"?>
<!-- Created with Inkscape (http://www.inkscape.org/) -->

<svg
   width="50.799999mm"
   height="128.5mm"
   viewBox="0 0 50.799999 128.5"
   version="1.1"
   id="svg1"
   inkscape:version="1.3 (0e150ed, 2023-07-21)"
   sodipodi:docname="EDevice.svg"
   xmlns:inkscape="http://www.inkscape.org/namespaces/inkscape"
   xmlns:sodipodi="http://sodipodi.sourceforge.net/DTD/sodipodi-0.dtd"
   xmlns="http://www.w3.org/2000/svg"
   xmlns:svg="http://www.w3.org/2000/svg">
  <sodipodi:namedview
     id="namedview1"
     pagecolor="#ffffff"
     bordercolor="#000000"
     borderopacity="0.25"
     inkscape:showpageshadow="2"
     inkscape:pageopacity="0.0"
     inkscape:pagecheckerboard="0"
     inkscape:deskcolor="#d1d1d1"
     inkscape:document-units="mm"
     inkscape:zoom="0.92737795"
     inkscape:cx="242.61953"
     inkscape:cy="343.98057"
     inkscape:window-width="3440"
     inkscape:window-height="1387"
     inkscape:window-x="0"
     inkscape:window-y="25"
     inkscape:window-maximized="0"
     inkscape:current-layer="layer2"
     showgrid="false"
     showguides="true"
     showborder="false">
    <inkscape:grid
       id="grid1"
       units="mm"
       originx="0"
       originy="0"
       spacingx="0.99999998"
       spacingy="1"
       empcolor="#0099e5"
       empopacity="0.30196078"
       color="#0099e5"
       opacity="0.14901961"
       empspacing="5"
       dotted="false"
       gridanglex="30"
       gridanglez="30"
       visible="false" />
  </sodipodi:namedview>
  <defs
     id="defs1" />
  <g
     inkscape:label="background"
     inkscape:groupmode="layer"
     id="layer1"
     style="display:inline;fill:#ffffff"
     sodipodi:insensitive="true">
    <rect
       style="display:inline;fill:#ffffff;fill-opacity:1;stroke-width:4.08699"
       id="background"
       width="50.799999"
       height="128.5"
       x="2.0636746e-06"
       y="-5.5511151e-17"
       inkscape:label="background"
       sodipodi:insensitive="true" />
    <path
       style="font-weight:bold;font-size:4.23333px;-inkscape-font-specification:'sans-serif Bold';fill:#ff0000;stroke-width:4.087"
       d="M 14.460913,7.1325645 H 13.671297 V 5.0717102 L 13.10079,6.4090951 H 12.55302 L 11.982513,5.0717102 V 7.1325645 H 11.234239 V 4.0547188 h 0.921907 l 0.692463,1.5440905 0.690397,-1.5440905 h 0.921907 z M 17.491216,6.109372 h -1.703253 q 0.01654,0.2728514 0.206705,0.4175453 0.192236,0.1446939 0.564306,0.1446939 0.235645,0 0.45682,-0.084749 0.221174,-0.084749 0.349332,-0.1819009 h 0.08268 V 7.00234 q -0.252181,0.1012858 -0.475423,0.146761 -0.223242,0.045475 -0.494026,0.045475 -0.698665,0 -1.070735,-0.3141924 -0.37207,-0.3141925 -0.37207,-0.8950351 0,-0.5746414 0.3514,-0.9095044 0.353466,-0.3369301 0.967382,-0.3369301 0.566373,0 0.851627,0.2873207 0.285253,0.2852537 0.285253,0.8226881 z M 16.75121,5.6732233 Q 16.745009,5.439646 16.635455,5.3218239 16.525901,5.2040017 16.294391,5.2040017 q -0.214974,0 -0.353466,0.111621 -0.138493,0.111621 -0.15503,0.3576006 z m 2.749185,1.4386707 q -0.11989,0.031006 -0.254248,0.047542 -0.134359,0.018603 -0.328662,0.018603 -0.434082,0 -0.646988,-0.1756998 -0.21084,-0.1756997 -0.21084,-0.6015131 V 5.3156227 H 17.753733 V 4.8112612 h 0.305924 V 4.1477363 h 0.74414 v 0.6635249 h 0.696598 v 0.5043615 h -0.696598 v 0.8226881 q 0,0.1219563 0.0021,0.2129067 0.0021,0.09095 0.03307,0.1632974 0.02894,0.072347 0.101286,0.1157551 0.07441,0.041341 0.214973,0.041341 0.05788,0 0.150895,-0.024805 0.09509,-0.024805 0.132292,-0.045475 h 0.06201 z m 1.850014,-0.5849767 v -0.483691 q -0.150895,0.012402 -0.326595,0.03514 -0.1757,0.020671 -0.26665,0.049609 -0.111621,0.03514 -0.171566,0.1033528 -0.05788,0.066146 -0.05788,0.1756997 0,0.072347 0.0124,0.1178222 0.0124,0.045475 0.06201,0.086816 0.04754,0.041341 0.113688,0.062012 0.06614,0.018603 0.206705,0.018603 0.111621,0 0.225309,-0.045475 0.115755,-0.045475 0.202572,-0.1198892 z m 0,0.3596676 q -0.05994,0.045475 -0.148828,0.109554 -0.08888,0.064079 -0.167432,0.1012857 -0.109554,0.049609 -0.227376,0.072347 -0.117822,0.024805 -0.258382,0.024805 -0.330729,0 -0.553971,-0.2046385 -0.223242,-0.2046385 -0.223242,-0.522965 0,-0.2542479 0.113688,-0.4154782 0.113688,-0.1612303 0.322461,-0.2542478 0.206706,-0.093017 0.51263,-0.1322916 0.305924,-0.039274 0.634586,-0.057878 v -0.012402 q 0,-0.1922362 -0.157096,-0.2645831 -0.157097,-0.074414 -0.463021,-0.074414 -0.183968,0 -0.39274,0.066146 -0.208773,0.064079 -0.299723,0.099219 h -0.06821 v -0.560172 q 0.117822,-0.031006 0.382405,-0.072347 0.26665,-0.043408 0.5333,-0.043408 0.634586,0 0.915706,0.1963703 0.283186,0.1943032 0.283186,0.6118484 v 1.5792304 h -0.737938 z m 6.137088,0.2459796 H 26.697882 V 5.0717102 l -0.570507,1.3373849 h -0.54777 L 25.009098,5.0717102 V 7.1325645 H 24.260824 V 4.0547188 h 0.921906 l 0.692464,1.5440905 0.690396,-1.5440905 h 0.921907 z m 3.117121,-1.1596181 q 0,0.5725744 -0.334863,0.9033033 -0.332796,0.3286618 -0.936376,0.3286618 -0.603581,0 -0.938444,-0.3286618 -0.332796,-0.3307289 -0.332796,-0.9033033 0,-0.5767085 0.334863,-0.9053704 0.33693,-0.3286618 0.936377,-0.3286618 0.607714,0 0.938443,0.3307289 0.332796,0.3307289 0.332796,0.9033033 z m -0.915706,0.5643061 q 0.07235,-0.088883 0.107487,-0.2129067 0.03721,-0.1260904 0.03721,-0.3472653 0,-0.2046385 -0.03721,-0.3431312 -0.03721,-0.1384928 -0.103353,-0.221175 -0.06615,-0.084749 -0.159163,-0.1198892 -0.09302,-0.03514 -0.200504,-0.03514 -0.107487,0 -0.192237,0.028939 -0.08268,0.028939 -0.159163,0.1157551 -0.06821,0.080615 -0.109554,0.221175 -0.03927,0.1405598 -0.03927,0.3534665 0,0.1901691 0.03514,0.3307289 0.03514,0.1384927 0.103353,0.223242 0.06615,0.080615 0.157096,0.1178221 0.09302,0.037207 0.21084,0.037207 0.101285,0 0.192236,-0.033073 0.09302,-0.03514 0.157096,-0.1157552 z M 32.8205,5.5202612 h -0.06615 q -0.04754,-0.016536 -0.152962,-0.024805 -0.10542,-0.00827 -0.1757,-0.00827 -0.159163,0 -0.281119,0.020671 -0.121957,0.020671 -0.262516,0.07028 v 1.5544257 h -0.74414 V 4.8112612 h 0.74414 v 0.3410641 q 0.245979,-0.2108396 0.42788,-0.2790525 0.181901,-0.07028 0.334863,-0.07028 0.03927,0 0.08888,0.00207 0.04961,0.00207 0.08682,0.0062 z m 2.844269,0.4196123 q 0,0.2873207 -0.08888,0.522965 -0.08682,0.2356444 -0.229444,0.3886065 -0.148828,0.1612303 -0.33693,0.2439125 -0.188102,0.082682 -0.403075,0.082682 -0.198438,0 -0.33693,-0.043408 -0.138493,-0.041341 -0.283187,-0.1178222 v 0.967382 H 33.24218 V 4.8112612 h 0.74414 v 0.2418455 q 0.171566,-0.1364257 0.349332,-0.221175 0.179834,-0.084749 0.413411,-0.084749 0.434082,0 0.673861,0.3183266 0.241845,0.3183265 0.241845,0.8743642 z m -0.766878,0.014469 q 0,-0.3389971 -0.115755,-0.4919592 -0.115755,-0.1529622 -0.365869,-0.1529622 -0.105419,0 -0.21704,0.033073 -0.111621,0.031006 -0.212907,0.09095 v 1.1678864 q 0.07441,0.028939 0.159163,0.037207 0.08475,0.00827 0.167432,0.00827 0.295589,0 0.440283,-0.1715656 0.144693,-0.1736327 0.144693,-0.520898 z m 3.635951,1.1782216 H 37.785568 V 5.9812146 q 0,-0.1405598 -0.01447,-0.2790525 -0.01447,-0.1405598 -0.04961,-0.2067056 -0.04134,-0.076481 -0.121957,-0.111621 -0.07855,-0.03514 -0.221175,-0.03514 -0.101285,0 -0.206705,0.033073 -0.103353,0.033073 -0.225309,0.1054198 v 1.6453762 h -0.74414 V 3.9162261 h 0.74414 V 5.067576 q 0.198437,-0.1550291 0.380338,-0.2377113 0.183968,-0.082682 0.40721,-0.082682 0.376204,0 0.587044,0.2191079 0.212906,0.2191079 0.212906,0.6552566 z"
       id="text4"
       inkscape:label="text4"
       aria-label="Meta Morph"
       sodipodi:insensitive="true" />
    <path
       style="font-weight:bold;font-size:4.23333px;-inkscape-font-specification:'sans-serif Bold';fill:#000000;stroke-width:4.087"
       d="M 15.172274,12.838616 H 12.946055 V 9.7607707 h 2.226219 V 10.356083 H 13.73567 v 0.531233 h 1.333251 v 0.595312 H 13.73567 v 0.760676 h 1.436604 z m 1.36839,0 h -0.74414 v -2.321303 h 0.74414 z m 0.02067,-2.652032 h -0.78548 V 9.6222779 h 0.785481 z m 2.939353,2.385382 q 0,0.326595 -0.09302,0.549837 -0.09302,0.223242 -0.260449,0.349332 -0.167431,0.128158 -0.405143,0.183968 -0.235644,0.05788 -0.5333,0.05788 -0.241845,0 -0.47749,-0.02894 -0.233577,-0.02894 -0.405143,-0.07028 V 13.03292 h 0.09095 q 0.136425,0.05374 0.332796,0.09715 0.19637,0.04548 0.351399,0.04548 0.206706,0 0.334863,-0.03927 0.130225,-0.03721 0.198437,-0.107487 0.06408,-0.06614 0.09302,-0.169498 0.02894,-0.103353 0.02894,-0.248047 v -0.04341 q -0.134359,0.109554 -0.297656,0.173633 -0.163298,0.06408 -0.363802,0.06408 -0.487825,0 -0.752408,-0.293521 -0.264583,-0.293522 -0.264583,-0.892968 0,-0.287321 0.08061,-0.496094 0.08062,-0.208772 0.227376,-0.363802 0.136426,-0.144693 0.334863,-0.225309 0.200504,-0.08061 0.409277,-0.08061 0.188102,0 0.341064,0.04547 0.155029,0.04341 0.28112,0.121957 l 0.02687,-0.103353 h 0.721403 z m -0.74414,-0.465087 v -1.052132 q -0.06408,-0.02687 -0.157096,-0.04134 -0.09302,-0.01654 -0.167432,-0.01654 -0.293522,0 -0.440283,0.169498 -0.146761,0.167432 -0.146761,0.469222 0,0.334863 0.124024,0.467155 0.12609,0.132291 0.37207,0.132291 0.111621,0 0.219107,-0.03514 0.107487,-0.03514 0.196371,-0.09302 z m 3.733102,-0.291455 h -1.703253 q 0.01654,0.272851 0.206705,0.417545 0.192236,0.144694 0.564306,0.144694 0.235645,0 0.45682,-0.08475 0.221175,-0.08475 0.349332,-0.181901 h 0.08268 v 0.597379 q -0.252181,0.101286 -0.475423,0.146761 -0.223242,0.04547 -0.494026,0.04547 -0.698665,0 -1.070735,-0.314192 -0.37207,-0.314193 -0.37207,-0.895035 0,-0.574642 0.3514,-0.909505 0.353466,-0.33693 0.967382,-0.33693 0.566373,0 0.851627,0.287321 0.285253,0.285253 0.285253,0.822688 z m -0.740006,-0.436149 q -0.0062,-0.233577 -0.115755,-0.351399 -0.109554,-0.117822 -0.341064,-0.117822 -0.214974,0 -0.353466,0.111621 -0.138493,0.111621 -0.155029,0.3576 z m 3.596677,1.459341 h -0.748274 v -1.15135 q 0,-0.140559 -0.01447,-0.279052 -0.01447,-0.14056 -0.04961,-0.206706 -0.04134,-0.07648 -0.121957,-0.111621 -0.07855,-0.03514 -0.221175,-0.03514 -0.101285,0 -0.206705,0.03307 -0.103353,0.03307 -0.225309,0.10542 v 1.645376 H 23.01468 V 10.51731 h 0.74414 v 0.256315 q 0.198437,-0.155029 0.380338,-0.237712 0.183968,-0.08268 0.40721,-0.08268 0.376204,0 0.587044,0.219108 0.212906,0.219108 0.212906,0.655257 z m 3.015834,0 H 27.61388 v -1.15135 q 0,-0.140559 -0.01447,-0.279052 -0.01447,-0.14056 -0.04961,-0.206706 -0.04134,-0.07648 -0.121956,-0.111621 -0.07855,-0.03514 -0.221175,-0.03514 -0.101285,0 -0.206705,0.03307 -0.103353,0.03307 -0.225309,0.10542 v 1.645376 h -0.74414 V 9.6222779 h 0.74414 v 1.1513501 q 0.198437,-0.155029 0.380338,-0.237712 0.183968,-0.08268 0.40721,-0.08268 0.376204,0 0.587044,0.219108 0.212906,0.219108 0.212906,0.655257 z m 2.089794,-0.605647 v -0.483691 q -0.150895,0.0124 -0.326595,0.03514 -0.175699,0.02067 -0.26665,0.04961 -0.111621,0.03514 -0.171565,0.103353 -0.05788,0.06615 -0.05788,0.1757 0,0.07235 0.0124,0.117822 0.0124,0.04547 0.06201,0.08682 0.04754,0.04134 0.113688,0.06201 0.06615,0.0186 0.206706,0.0186 0.111621,0 0.225309,-0.04548 0.115755,-0.04547 0.202571,-0.119889 z m 0,0.359668 q -0.05994,0.04547 -0.148828,0.109554 -0.08888,0.06408 -0.167431,0.101285 -0.109554,0.04961 -0.227376,0.07235 -0.117823,0.0248 -0.258382,0.0248 -0.330729,0 -0.553971,-0.204638 -0.223242,-0.204639 -0.223242,-0.522966 0,-0.254247 0.113688,-0.415478 0.113688,-0.16123 0.322461,-0.254248 0.206705,-0.09302 0.512629,-0.132291 0.305925,-0.03927 0.634586,-0.05788 v -0.0124 q 0,-0.192236 -0.157096,-0.264583 -0.157096,-0.07441 -0.46302,-0.07441 -0.183968,0 -0.392741,0.06615 -0.208772,0.06408 -0.299723,0.09922 h -0.06821 V 10.56693 q 0.117822,-0.03101 0.382406,-0.07235 0.26665,-0.04341 0.5333,-0.04341 0.634586,0 0.915705,0.19637 0.283187,0.194304 0.283187,0.611849 v 1.57923 h -0.737939 z m 3.104718,-1.366324 h -0.06615 q -0.04754,-0.01654 -0.152962,-0.0248 -0.10542,-0.0083 -0.1757,-0.0083 -0.159163,0 -0.281119,0.02067 -0.121957,0.02067 -0.262516,0.07028 v 1.554425 h -0.74414 v -2.321303 h 0.74414 v 0.341064 q 0.245979,-0.21084 0.42788,-0.279052 0.181901,-0.07028 0.334863,-0.07028 0.03927,0 0.08888,0.0021 0.04961,0.0021 0.08682,0.0062 z m 2.844267,0.419612 q 0,0.287321 -0.08888,0.522965 -0.08682,0.235645 -0.229444,0.388607 -0.148828,0.16123 -0.33693,0.243912 -0.188102,0.08268 -0.403075,0.08268 -0.198438,0 -0.33693,-0.04341 -0.138493,-0.04134 -0.283187,-0.117822 v 0.967382 h -0.74414 v -3.17293 h 0.74414 v 0.241845 q 0.171566,-0.136425 0.349332,-0.221174 0.179834,-0.08475 0.413411,-0.08475 0.434082,0 0.673861,0.318327 0.241845,0.318326 0.241845,0.874364 z m -0.766878,0.01447 q 0,-0.338997 -0.115755,-0.49196 -0.115755,-0.152962 -0.365869,-0.152962 -0.105419,0 -0.21704,0.03307 -0.111621,0.03101 -0.212907,0.09095 v 1.167886 q 0.07441,0.02894 0.159163,0.03721 0.08475,0.0083 0.167432,0.0083 0.295589,0 0.440283,-0.171565 0.144693,-0.173633 0.144693,-0.520898 z"
       id="text5"
       inkscape:label="text4"
       inkscape:transform-center-y="-7.9884726"
       aria-label="Eigenharp"
       sodipodi:insensitive="true" />
    <rect
       style="fill:#000000;fill-opacity:0.72;stroke-width:4.08699"
       id="rect23"
       width="48.786743"
       height="13.123919"
       x="0.8559078"
       y="110.98271"
       rx="2"
       ry="2"
       sodipodi:insensitive="true" />
    <rect
       style="display:inline;fill:#000000;fill-opacity:0.0996622;stroke-width:4.08699"
       id="rect24"
       width="48.216137"
       height="49.927952"
       x="0.85590774"
       y="27.38905"
       rx="2"
       ry="2"
       sodipodi:insensitive="true" />
  </g>
  <g
     inkscape:groupmode="layer"
     id="layer2"
     inkscape:label="components"
     style="display:none">
    <circle
       style="fill:#0000ff;fill-opacity:1;stroke-width:0.313059"
       id="out1"
       cx="7.2752151"
       cy="117.82996"
       inkscape:label="out_k"
       r="4" />
    <circle
       style="fill:#0000ff;fill-opacity:1;stroke-width:0.313;stroke-dasharray:none"
       id="ellipse5"
       cx="19.353027"
       cy="117.82996"
       inkscape:label="out_x"
       r="4" />
    <circle
       style="fill:#0000ff;fill-opacity:1;stroke-width:0.313059"
       id="ellipse6"
       cx="31.430838"
       cy="117.82996"
       inkscape:label="out_y"
       r="4" />
    <circle
       style="fill:#0000ff;fill-opacity:1;stroke-width:0.313059"
       id="ellipse7"
       cx="43.508644"
       cy="117.82996"
       inkscape:label="out_z"
       r="4" />
    <circle
       style="fill:#ff00ff;fill-opacity:1;stroke-width:4.08699"
       id="path8"
       cx="7.8458209"
       cy="34.792503"
       inkscape:label="led1"
       r="4" />
    <circle
       style="fill:#ff00ff;fill-opacity:1;stroke-width:4.08699"
       id="circle8"
       cx="19.845821"
       cy="34.792503"
       inkscape:label="led2"
       r="4" />
    <circle
       style="fill:#ff00ff;fill-opacity:1;stroke-width:4.08699"
       id="circle9"
       cx="31.845821"
       cy="34.792503"
       inkscape:label="led3"
       r="4" />
    <circle
       style="fill:#ff00ff;fill-opacity:1;stroke-width:4.08699"
       id="circle10"
       cx="43.845821"
       cy="34.792503"
       inkscape:label="led4"
       r="4" />
    <circle
       style="fill:#ff00ff;fill-opacity:1;stroke-width:4.08699"
       id="circle11"
       cx="7.8458209"
       cy="46.792503"
       inkscape:label="led5"
       r="4" />
    <circle
       style="fill:#ff00ff;fill-opacity:1;stroke-width:4.08699"
       id="circle12"
       cx="19.845821"
       cy="46.792503"
       inkscape:label="led6"
       r="4" />
    <circle
       style="fill:#ff00ff;fill-opacity:1;stroke-width:4.08699"
       id="circle13"
       cx="31.845821"
       cy="46.792503"
       inkscape:label="led7"
       r="4" />
    <circle
       style="fill:#ff00ff;fill-opacity:1;stroke-width:4.08699"
       id="circle14"
       cx="43.845821"
       cy="46.792503"
       inkscape:label="led8"
       r="4" />
    <circle
       style="fill:#ff00ff;fill-opacity:1;stroke-width:4.08699"
       id="circle15"
       cx="7.8458209"
       cy="58.792503"
       inkscape:label="led9"
       r="4" />
    <circle
       style="fill:#ff00ff;fill-opacity:1;stroke-width:4.08699"
       id="circle16"
       cx="19.845821"
       cy="58.792503"
       inkscape:label="led10"
       r="4" />
    <circle
       style="fill:#ff00ff;fill-opacity:1;stroke-width:4.08699"
       id="circle17"
       cx="31.845821"
       cy="58.792503"
       inkscape:label="led11"
       r="4" />
    <circle
       style="fill:#ff00ff;fill-opacity:1;stroke-width:4.08699"
       id="circle18"
       cx="43.845821"
       cy="58.792503"
       inkscape:label="led12"
       r="4" />
    <circle
       style="fill:#ff00ff;fill-opacity:1;stroke-width:4.08699"
       id="circle19"
       cx="7.8458209"
       cy="70.792511"
       inkscape:label="led13"
       r="4" />
    <circle
       style="fill:#ff00ff;fill-opacity:1;stroke-width:4.08699"
       id="circle20"
       cx="19.845821"
       cy="70.792511"
       inkscape:label="led14"
       r="4" />
    <circle
       style="fill:#ff00ff;fill-opacity:1;stroke-width:4.08699"
       id="circle21"
       cx="31.845821"
       cy="70.792511"
       inkscape:label="led15"
       r="4" />
    <circle
       style="fill:#ff00ff;fill-opacity:1;stroke-width:4.08699"
       id="circle22"
       cx="43.845821"
       cy="70.792511"
       inkscape:label="led16"
       r="4" />
  </g>
</svg>
