<?xml version="1.0" encoding="UTF-8" standalone="no"?>
<!-- Created with Inkscape (http://www.inkscape.org/) -->

<svg
   width="121.92mm"
   height="128.5mm"
   viewBox="0 0 121.92 128.5"
   version="1.1"
   id="svg1"
   inkscape:version="1.3 (0e150ed, 2023-07-21)"
   sodipodi:docname="EDevice.svg"
   xmlns:inkscape="http://www.inkscape.org/namespaces/inkscape"
   xmlns:sodipodi="http://sodipodi.sourceforge.net/DTD/sodipodi-0.dtd"
   xmlns="http://www.w3.org/2000/svg"
   xmlns:svg="http://www.w3.org/2000/svg">
  <sodipodi:namedview
     id="namedview1"
     pagecolor="#ffffff"
     bordercolor="#000000"
     borderopacity="0.25"
     inkscape:showpageshadow="2"
     inkscape:pageopacity="0.0"
     inkscape:pagecheckerboard="0"
     inkscape:deskcolor="#d1d1d1"
     inkscape:document-units="mm"
     inkscape:zoom="0.92737795"
     inkscape:cx="171.45113"
     inkscape:cy="207.57448"
     inkscape:window-width="1408"
     inkscape:window-height="1150"
     inkscape:window-x="211"
     inkscape:window-y="25"
     inkscape:window-maximized="0"
     inkscape:current-layer="layer1"
     showgrid="false"
     showguides="true"
     showborder="false">
    <inkscape:grid
       id="grid1"
       units="mm"
       originx="0"
       originy="0"
       spacingx="0.99999998"
       spacingy="1"
       empcolor="#0099e5"
       empopacity="0.30196078"
       color="#0099e5"
       opacity="0.14901961"
       empspacing="5"
       dotted="false"
       gridanglex="30"
       gridanglez="30"
       visible="false" />
  </sodipodi:namedview>
  <defs
     id="defs1" />
  <g
     inkscape:label="background"
     inkscape:groupmode="layer"
     id="layer1"
     style="display:inline;fill:#ffffff">
    <rect
       style="display:inline;fill:#ffffff;fill-opacity:1;stroke-width:4.08699"
       id="background"
       width="121.92"
       height="128.5"
       x="2.0636746e-06"
       y="-5.5511151e-17"
       inkscape:label="background" />
    <path
       style="font-weight:bold;font-size:4.23333px;-inkscape-font-specification:'sans-serif Bold';fill:#ff0000;stroke-width:4.087"
       d="M 40.138146,5.1354464 H 39.34853 V 3.0745921 L 38.778023,4.411977 h -0.54777 L 37.659746,3.0745921 V 5.1354464 H 36.911472 V 2.0576007 h 0.921907 l 0.692463,1.5440905 0.690397,-1.5440905 h 0.921907 z m 3.030303,-1.0231925 h -1.703253 q 0.01654,0.2728514 0.206705,0.4175453 0.192236,0.1446939 0.564306,0.1446939 0.235645,0 0.45682,-0.084749 0.221174,-0.084749 0.349332,-0.1819009 h 0.08268 v 0.5973787 q -0.252181,0.1012858 -0.475423,0.146761 -0.223242,0.045475 -0.494026,0.045475 -0.698665,0 -1.070735,-0.3141924 -0.37207,-0.3141925 -0.37207,-0.8950351 0,-0.5746414 0.3514,-0.9095044 0.353466,-0.3369301 0.967382,-0.3369301 0.566373,0 0.851627,0.2873207 0.285253,0.2852537 0.285253,0.8226881 z M 42.428443,3.6761052 q -0.0062,-0.2335773 -0.115755,-0.3513994 -0.109554,-0.1178222 -0.341064,-0.1178222 -0.214974,0 -0.353466,0.111621 -0.138493,0.111621 -0.15503,0.3576006 z m 2.749185,1.4386707 q -0.11989,0.031006 -0.254248,0.047542 -0.134359,0.018603 -0.328662,0.018603 -0.434082,0 -0.646988,-0.1756998 Q 43.73689,4.8295214 43.73689,4.403708 V 3.3185046 H 43.430966 V 2.8141431 H 43.73689 V 2.1506182 h 0.74414 v 0.6635249 h 0.696598 V 3.3185046 H 44.48103 v 0.8226881 q 0,0.1219563 0.0021,0.2129067 0.0021,0.09095 0.03307,0.1632974 0.02894,0.072347 0.101286,0.1157551 0.07441,0.041341 0.214973,0.041341 0.05788,0 0.150895,-0.024805 0.09509,-0.024805 0.132292,-0.045475 h 0.06201 z m 1.850014,-0.5849767 v -0.483691 q -0.150895,0.012402 -0.326595,0.03514 -0.1757,0.020671 -0.26665,0.049609 -0.111621,0.03514 -0.171566,0.1033528 -0.05788,0.066146 -0.05788,0.1756997 0,0.072347 0.0124,0.1178222 0.0124,0.045475 0.06201,0.086816 0.04754,0.041341 0.113688,0.062012 0.06614,0.018603 0.206705,0.018603 0.111621,0 0.225309,-0.045475 0.115755,-0.045475 0.202572,-0.1198892 z m 0,0.3596676 q -0.05994,0.045475 -0.148828,0.109554 -0.08888,0.064079 -0.167432,0.1012857 -0.109554,0.049609 -0.227376,0.072347 -0.117822,0.024805 -0.258382,0.024805 -0.330729,0 -0.553971,-0.2046385 -0.223242,-0.2046385 -0.223242,-0.522965 0,-0.2542479 0.113688,-0.4154782 0.113688,-0.1612303 0.322461,-0.2542478 0.206706,-0.093017 0.51263,-0.1322916 0.305924,-0.039274 0.634586,-0.057878 v -0.012402 q 0,-0.1922362 -0.157096,-0.2645831 -0.157097,-0.074414 -0.463021,-0.074414 -0.183968,0 -0.39274,0.066146 -0.208773,0.064079 -0.299723,0.099219 h -0.06821 v -0.560172 q 0.117822,-0.031006 0.382405,-0.072347 0.26665,-0.043408 0.5333,-0.043408 0.634586,0 0.915706,0.1963703 0.283186,0.1943032 0.283186,0.6118484 V 5.1354474 H 47.027645 Z M 53.16473,5.1354464 H 52.375115 V 3.0745921 L 51.804608,4.411977 h -0.54777 L 50.686331,3.0745921 V 5.1354464 H 49.938057 V 2.0576007 h 0.921906 l 0.692464,1.5440905 0.690396,-1.5440905 h 0.921907 z m 3.117121,-1.1596181 q 0,0.5725744 -0.334863,0.9033033 -0.332796,0.3286618 -0.936376,0.3286618 -0.603581,0 -0.938444,-0.3286618 -0.332796,-0.3307289 -0.332796,-0.9033033 0,-0.5767085 0.334863,-0.9053704 0.33693,-0.3286618 0.936377,-0.3286618 0.607714,0 0.938443,0.3307289 0.332796,0.3307289 0.332796,0.9033033 z m -0.915706,0.5643061 q 0.07235,-0.088883 0.107487,-0.2129067 0.03721,-0.1260904 0.03721,-0.3472653 0,-0.2046385 -0.03721,-0.3431312 -0.03721,-0.1384928 -0.103353,-0.221175 -0.06615,-0.084749 -0.159163,-0.1198892 -0.09302,-0.03514 -0.200504,-0.03514 -0.107487,0 -0.192237,0.028939 -0.08268,0.028939 -0.159163,0.1157551 -0.06821,0.080615 -0.109554,0.221175 -0.03927,0.1405598 -0.03927,0.3534665 0,0.1901691 0.03514,0.3307289 0.03514,0.1384927 0.103353,0.223242 0.06615,0.080615 0.157096,0.1178221 0.09302,0.037207 0.21084,0.037207 0.101285,0 0.192236,-0.033073 0.09302,-0.03514 0.157096,-0.1157552 z m 3.131588,-1.0169913 h -0.06615 q -0.04754,-0.016536 -0.152962,-0.024805 -0.10542,-0.00827 -0.1757,-0.00827 -0.159163,0 -0.281119,0.020671 -0.121957,0.020671 -0.262516,0.07028 v 1.5544257 h -0.74414 V 2.8141431 h 0.74414 v 0.3410641 q 0.245979,-0.2108396 0.42788,-0.2790525 0.181901,-0.07028 0.334863,-0.07028 0.03927,0 0.08888,0.00207 0.04961,0.00207 0.08682,0.0062 z m 2.844269,0.4196123 q 0,0.2873207 -0.08888,0.522965 -0.08682,0.2356444 -0.229444,0.3886065 -0.148828,0.1612303 -0.33693,0.2439125 -0.188102,0.082682 -0.403075,0.082682 -0.198438,0 -0.33693,-0.043408 -0.138493,-0.041341 -0.283187,-0.1178222 v 0.967382 H 58.919413 V 2.8141431 h 0.74414 v 0.2418455 q 0.171566,-0.1364257 0.349332,-0.221175 0.179834,-0.084749 0.413411,-0.084749 0.434082,0 0.673861,0.3183266 0.241845,0.3183265 0.241845,0.8743642 z m -0.766878,0.014469 q 0,-0.3389971 -0.115755,-0.4919592 Q 60.343614,3.312303 60.0935,3.312303 q -0.105419,0 -0.21704,0.033073 -0.111621,0.031006 -0.212907,0.09095 v 1.1678864 q 0.07441,0.028939 0.159163,0.037207 0.08475,0.00827 0.167432,0.00827 0.295589,0 0.440283,-0.1715656 0.144693,-0.1736327 0.144693,-0.520898 z M 64.211075,5.135446 H 63.462801 V 3.9840965 q 0,-0.1405598 -0.01447,-0.2790525 -0.01447,-0.1405598 -0.04961,-0.2067056 -0.04134,-0.076481 -0.121957,-0.111621 -0.07855,-0.03514 -0.221175,-0.03514 -0.101285,0 -0.206705,0.033073 -0.103353,0.033073 -0.225309,0.1054198 v 1.6453762 h -0.74414 V 1.919108 h 0.74414 v 1.1513499 q 0.198437,-0.1550291 0.380338,-0.2377113 0.183968,-0.082682 0.40721,-0.082682 0.376204,0 0.587044,0.2191079 0.212906,0.2191079 0.212906,0.6552566 z"
       id="text4"
       inkscape:label="text4"
       aria-label="Meta Morph" />
    <path
       style="font-weight:bold;font-size:4.23333px;-inkscape-font-specification:'sans-serif Bold';fill:#000000;stroke-width:4.087"
       d="M 40.564205,9.7831643 H 38.337986 V 6.7053192 h 2.226219 v 0.5953123 h -1.436604 v 0.531233 h 1.333251 v 0.595312 h -1.333251 v 0.7606761 h 1.436604 z m 1.36839,0 h -0.74414 V 7.4618615 h 0.74414 z m 0.02067,-2.6520318 h -0.78548 V 6.5668264 h 0.785481 z m 2.939353,2.3853818 q 0,0.326595 -0.09302,0.5498367 -0.09302,0.223242 -0.260449,0.349332 -0.167431,0.128158 -0.405143,0.183968 -0.235644,0.05788 -0.5333,0.05788 -0.241845,0 -0.47749,-0.02894 -0.233577,-0.02894 -0.405143,-0.07028 V 9.9774683 h 0.09095 q 0.136425,0.05374 0.332796,0.09715 0.19637,0.04548 0.351399,0.04548 0.206706,0 0.334863,-0.03927 0.130225,-0.03721 0.198437,-0.1074846 0.06408,-0.06614 0.09302,-0.169498 0.02894,-0.103353 0.02894,-0.248047 v -0.04341 q -0.134359,0.109554 -0.297656,0.173633 -0.163298,0.06408 -0.363802,0.06408 -0.487825,0 -0.752408,-0.2935207 -0.264583,-0.293522 -0.264583,-0.8929681 0,-0.287321 0.08061,-0.496094 0.08062,-0.208772 0.227376,-0.363802 0.136426,-0.144693 0.334863,-0.225309 0.200504,-0.08061 0.409277,-0.08061 0.188102,0 0.341064,0.04547 0.155029,0.04341 0.28112,0.121957 l 0.02687,-0.103353 h 0.721403 z M 44.148478,9.0514276 V 7.9992955 q -0.06408,-0.02687 -0.157096,-0.04134 -0.09302,-0.01654 -0.167432,-0.01654 -0.293522,0 -0.440283,0.169498 -0.146761,0.167432 -0.146761,0.469222 0,0.334863 0.124024,0.4671551 0.12609,0.132291 0.37207,0.132291 0.111621,0 0.219107,-0.03514 0.107487,-0.03514 0.196371,-0.09302 z M 47.88158,8.7599725 h -1.703253 q 0.01654,0.2728511 0.206705,0.4175451 0.192236,0.144694 0.564306,0.144694 0.235645,0 0.45682,-0.08475 0.221175,-0.08475 0.349332,-0.181901 h 0.08268 v 0.5973787 q -0.252181,0.101286 -0.475423,0.146761 -0.223242,0.04547 -0.494026,0.04547 -0.698665,0 -1.070735,-0.314192 -0.37207,-0.3141927 -0.37207,-0.8950348 0,-0.574642 0.3514,-0.909505 0.353466,-0.33693 0.967382,-0.33693 0.566373,0 0.851627,0.287321 0.285253,0.285253 0.285253,0.822688 z m -0.740006,-0.436149 q -0.0062,-0.233577 -0.115755,-0.351399 -0.109554,-0.117822 -0.341064,-0.117822 -0.214974,0 -0.353466,0.111621 -0.138493,0.111621 -0.155029,0.3576 z m 3.596677,1.4593408 H 49.989977 V 8.6318145 q 0,-0.140559 -0.01447,-0.279052 -0.01447,-0.14056 -0.04961,-0.206706 -0.04134,-0.07648 -0.121957,-0.111621 -0.07855,-0.03514 -0.221175,-0.03514 -0.101285,0 -0.206705,0.03307 -0.103353,0.03307 -0.225309,0.10542 v 1.6453758 h -0.74414 V 7.4618585 h 0.74414 v 0.256315 q 0.198437,-0.155029 0.380338,-0.237712 0.183968,-0.08268 0.40721,-0.08268 0.376204,0 0.587044,0.219108 0.212906,0.219108 0.212906,0.655257 z m 3.015834,0 H 53.005811 V 8.6318145 q 0,-0.140559 -0.01447,-0.279052 -0.01447,-0.14056 -0.04961,-0.206706 -0.04134,-0.07648 -0.121956,-0.111621 -0.07855,-0.03514 -0.221175,-0.03514 -0.101285,0 -0.206705,0.03307 -0.103353,0.03307 -0.225309,0.10542 v 1.6453758 h -0.74414 V 6.5668264 h 0.74414 v 1.1513501 q 0.198437,-0.155029 0.380338,-0.237712 0.183968,-0.08268 0.40721,-0.08268 0.376204,0 0.587044,0.219108 0.212906,0.219108 0.212906,0.655257 z M 55.843879,9.1775176 V 8.6938265 q -0.150895,0.0124 -0.326595,0.03514 -0.175699,0.02067 -0.26665,0.04961 -0.111621,0.03514 -0.171565,0.103353 -0.05788,0.06615 -0.05788,0.1757001 0,0.07235 0.0124,0.117822 0.0124,0.04547 0.06201,0.08682 0.04754,0.04134 0.113688,0.06201 0.06615,0.0186 0.206706,0.0186 0.111621,0 0.225309,-0.04548 0.115755,-0.04547 0.202571,-0.119889 z m 0,0.3596677 q -0.05994,0.04547 -0.148828,0.109554 -0.08888,0.06408 -0.167431,0.101285 -0.109554,0.04961 -0.227376,0.07235 -0.117823,0.0248 -0.258382,0.0248 -0.330729,0 -0.553971,-0.204638 -0.223242,-0.2046387 -0.223242,-0.5229657 0,-0.2542471 0.113688,-0.4154781 0.113688,-0.16123 0.322461,-0.254248 0.206705,-0.09302 0.512629,-0.132291 0.305925,-0.03927 0.634586,-0.05788 v -0.0124 q 0,-0.192236 -0.157096,-0.264583 -0.157096,-0.07441 -0.46302,-0.07441 -0.183968,0 -0.392741,0.06615 -0.208772,0.06408 -0.299723,0.09922 h -0.06821 v -0.560172 q 0.117822,-0.03101 0.382406,-0.07235 0.26665,-0.04341 0.5333,-0.04341 0.634586,0 0.915705,0.19637 0.283187,0.194304 0.283187,0.611849 v 1.5792298 h -0.737939 z m 3.104718,-1.3663238 h -0.06615 q -0.04754,-0.01654 -0.152962,-0.0248 -0.10542,-0.0083 -0.1757,-0.0083 -0.159163,0 -0.281119,0.02067 -0.121957,0.02067 -0.262516,0.07028 V 9.7831363 H 57.26601 V 7.4618335 h 0.74414 v 0.341064 q 0.245979,-0.21084 0.42788,-0.279052 0.181901,-0.07028 0.334863,-0.07028 0.03927,0 0.08888,0.0021 0.04961,0.0021 0.08682,0.0062 z m 2.844267,0.419612 q 0,0.287321 -0.08888,0.5229651 -0.08682,0.235645 -0.229444,0.3886067 -0.148828,0.16123 -0.33693,0.243912 -0.188102,0.08268 -0.403075,0.08268 -0.198438,0 -0.33693,-0.04341 -0.138493,-0.04134 -0.283187,-0.117822 v 0.9673817 h -0.74414 V 7.4618575 h 0.74414 v 0.241845 q 0.171566,-0.136425 0.349332,-0.221174 0.179834,-0.08475 0.413411,-0.08475 0.434082,0 0.673861,0.318327 0.241845,0.318326 0.241845,0.874364 z m -0.766878,0.01447 q 0,-0.338997 -0.115755,-0.49196 -0.115755,-0.152962 -0.365869,-0.152962 -0.105419,0 -0.21704,0.03307 -0.111621,0.03101 -0.212907,0.09095 v 1.1678861 q 0.07441,0.02894 0.159163,0.03721 0.08475,0.0083 0.167432,0.0083 0.295589,0 0.440283,-0.171565 0.144693,-0.173633 0.144693,-0.5208981 z"
       id="text5"
       inkscape:label="text4"
       inkscape:transform-center-y="-7.9884726"
       aria-label="Eigenharp" />
    <rect
       style="fill:#000000;fill-opacity:0.72;stroke-width:4.27988"
       id="rect23"
       width="64.763687"
       height="10.841497"
       x="51.505917"
       y="26.193584"
       rx="2.6549706"
       ry="1.6521739" />
    <rect
       style="display:inline;fill:#000000;fill-opacity:0.0996622;stroke-width:2.23392"
       id="rect24"
       width="26.818443"
       height="26.818441"
       x="1.7118155"
       y="25.189505"
       rx="1.112426"
       ry="1.0742857" />
    <path
       style="font-weight:bold;font-size:2.82223px;-inkscape-font-specification:'sans-serif Bold';fill:#ff0000;stroke-width:4.087"
       d="m 57.240707,24.276908 h -0.649058 l -0.613229,-0.82132 -0.124023,0.15021 v 0.67111 h -0.529168 v -2.05191 h 0.529168 v 0.9288 l 0.733118,-0.9288 h 0.613229 l -0.802021,0.94947 z m 1.757004,-0.68213 h -1.135507 q 0.01102,0.1819 0.137804,0.27836 0.128158,0.0965 0.376206,0.0965 0.157096,0 0.304547,-0.0565 0.14745,-0.0565 0.232889,-0.12126 h 0.05512 v 0.39825 q -0.168121,0.0675 -0.31695,0.0978 -0.148828,0.0303 -0.329352,0.0303 -0.465778,0 -0.713826,-0.20946 -0.248047,-0.20947 -0.248047,-0.5967 0,-0.38309 0.234267,-0.60634 0.235645,-0.22462 0.644924,-0.22462 0.377583,0 0.567753,0.19155 0.19017,0.19017 0.19017,0.54846 z m -0.49334,-0.29077 q -0.0041,-0.15572 -0.07717,-0.23427 -0.07304,-0.0786 -0.227377,-0.0786 -0.143316,0 -0.235645,0.0744 -0.09233,0.0744 -0.103353,0.2384 z m 1.542029,0.42581 0.352779,-1.00045 h 0.509876 l -0.859898,2.11529 H 59.51172 l 0.245292,-0.57878 -0.602205,-1.53651 h 0.5209 z"
       id="text2"
       aria-label="Key" />
    <path
       style="font-weight:bold;font-size:2.82222px;-inkscape-font-specification:'sans-serif Bold';display:inline;fill:#000000;stroke-width:4.087"
       d="M 4.4404267,23.762991 H 3.8933459 L 3.7514081,23.348202 H 2.9907316 L 2.8487937,23.762991 H 2.3154934 L 3.0734138,21.711094 H 3.6825062 Z M 3.6232506,22.971998 3.3710698,22.236126 3.118889,22.971998 Z m 1.8906671,0.832334 q -0.2025715,0 -0.370692,-0.04823 -0.1667425,-0.04823 -0.2907659,-0.148828 -0.1226453,-0.100597 -0.1901691,-0.253559 -0.067524,-0.152962 -0.067524,-0.358289 0,-0.216352 0.071658,-0.373448 0.073036,-0.157097 0.2025715,-0.260449 0.1254014,-0.09784 0.2893878,-0.143316 0.1639864,-0.04548 0.3403752,-0.04548 0.1584742,0 0.2921438,0.03445 0.1336696,0.03445 0.2494248,0.08957 v 0.423057 h -0.07028 q -0.028939,-0.0248 -0.07028,-0.05788 -0.039963,-0.03307 -0.099219,-0.06477 -0.0565,-0.03032 -0.1240233,-0.04961 -0.067524,-0.02067 -0.1570963,-0.02067 -0.1984373,0 -0.3059242,0.126779 -0.1061089,0.125402 -0.1061089,0.341754 0,0.223242 0.1088649,0.338997 0.110243,0.115755 0.3114364,0.115755 0.093707,0 0.1681206,-0.02067 0.075792,-0.02205 0.1254014,-0.05099 0.046853,-0.02756 0.082682,-0.05788 0.035829,-0.03032 0.066146,-0.05926 h 0.07028 v 0.423057 q -0.1171332,0.05512 -0.2452907,0.08682 -0.1267794,0.03307 -0.2811195,0.03307 z m 1.8438138,-0.05512 q -0.079926,0.02067 -0.1694986,0.03169 -0.089572,0.0124 -0.2191079,0.0124 -0.2893878,0 -0.4313256,-0.117133 Q 6.3972396,23.559042 6.3972396,23.275166 V 22.551697 H 6.1932901 v -0.336241 h 0.2039495 v -0.44235 h 0.4960933 v 0.44235 h 0.4643986 v 0.336241 H 6.8933329 v 0.548458 q 0,0.08131 0.00138,0.141938 0.00138,0.06063 0.022049,0.108865 0.019292,0.04823 0.067524,0.07717 0.049609,0.02756 0.1433159,0.02756 0.038585,0 0.1005967,-0.01654 0.06339,-0.01654 0.088194,-0.03032 h 0.041341 z m 0.7923711,0.01378 H 7.6540092 v -1.547536 h 0.4960934 z m 0.01378,-1.768021 H 7.6402288 V 21.618766 H 8.163883 Z m 0.9508459,1.768021 h -0.496093 v -1.547536 h 0.4960934 z m 0.01378,-1.768021 H 8.6048552 v -0.376205 h 0.5236541 z m 2.0133115,0.220486 -0.59669,1.547535 H 9.9828924 L 9.3903362,22.215456 h 0.5250322 l 0.3582896,1.063844 0.354155,-1.063844 z m 1.799716,0.865407 h -1.135503 q 0.01103,0.181901 0.137804,0.278363 0.128157,0.09646 0.376204,0.09646 0.157096,0 0.304546,-0.0565 0.14745,-0.0565 0.232889,-0.121267 h 0.05512 v 0.398253 q -0.16812,0.06752 -0.316948,0.09784 -0.148828,0.03032 -0.329351,0.03032 -0.465777,0 -0.713824,-0.209461 -0.248046,-0.209462 -0.248046,-0.59669 0,-0.383095 0.234266,-0.606337 0.235644,-0.22462 0.644921,-0.22462 0.377583,0 0.567752,0.191547 0.190169,0.19017 0.190169,0.548459 z m -0.493337,-0.290766 q -0.0041,-0.155718 -0.07717,-0.234266 -0.07304,-0.07855 -0.227376,-0.07855 -0.143316,0 -0.235644,0.07441 -0.09233,0.07441 -0.103353,0.2384 z m 3.695895,-1.079003 -0.748274,2.051897 H 14.803264 L 14.05499,21.711095 h 0.555349 l 0.496093,1.441427 0.496094,-1.441427 z m 1.849327,1.278818 q 0,0.381717 -0.223242,0.602203 -0.221864,0.219108 -0.624251,0.219108 -0.402387,0 -0.625629,-0.219108 -0.221864,-0.220486 -0.221864,-0.602203 0,-0.384472 0.223242,-0.60358 0.22462,-0.219108 0.624251,-0.219108 0.405143,0 0.625629,0.220486 0.221864,0.220486 0.221864,0.602202 z m -0.610471,0.376205 q 0.04823,-0.05926 0.07166,-0.141938 0.02481,-0.08406 0.02481,-0.23151 0,-0.136426 -0.02481,-0.228755 -0.02481,-0.09233 -0.0689,-0.14745 -0.0441,-0.0565 -0.106109,-0.07993 -0.06201,-0.02343 -0.133669,-0.02343 -0.07166,0 -0.128158,0.01929 -0.05512,0.01929 -0.106109,0.07717 -0.04547,0.05374 -0.07304,0.14745 -0.02618,0.09371 -0.02618,0.235645 0,0.126779 0.02343,0.220485 0.02343,0.09233 0.0689,0.148828 0.0441,0.05374 0.104731,0.07855 0.06201,0.0248 0.14056,0.0248 0.06752,0 0.128157,-0.02205 0.06201,-0.02343 0.104731,-0.07717 z m 1.462097,0.396874 h -0.496092 v -1.547536 h 0.496093 z m 0.01378,-1.768021 h -0.523654 v -0.376205 h 0.523654 z m 1.260903,1.809362 q -0.202571,0 -0.370692,-0.04823 -0.166742,-0.04823 -0.290766,-0.148828 -0.122645,-0.100597 -0.190169,-0.253559 -0.06752,-0.152962 -0.06752,-0.358289 0,-0.216352 0.07166,-0.373448 0.07304,-0.157097 0.202572,-0.260449 0.125401,-0.09784 0.289387,-0.143316 0.163987,-0.04548 0.340376,-0.04548 0.158474,0 0.292143,0.03445 0.13367,0.03445 0.249425,0.08957 v 0.423057 h -0.07028 q -0.02894,-0.0248 -0.07028,-0.05788 -0.03996,-0.03307 -0.09922,-0.06477 -0.0565,-0.03032 -0.124024,-0.04961 -0.06752,-0.02067 -0.157096,-0.02067 -0.198437,0 -0.305924,0.126779 -0.106109,0.125402 -0.106109,0.341754 0,0.223242 0.108865,0.338997 0.110243,0.115755 0.311436,0.115755 0.09371,0 0.168121,-0.02067 0.07579,-0.02205 0.125401,-0.05099 0.04685,-0.02756 0.08268,-0.05788 0.03583,-0.03032 0.06614,-0.05926 h 0.07028 v 0.423057 q -0.117133,0.05512 -0.24529,0.08682 -0.12678,0.03307 -0.28112,0.03307 z m 2.378493,-0.723469 h -1.135502 q 0.01102,0.181901 0.137803,0.278363 0.128158,0.09646 0.376204,0.09646 0.157097,0 0.304547,-0.0565 0.14745,-0.0565 0.232888,-0.121267 h 0.05512 v 0.398253 q -0.16812,0.06752 -0.316948,0.09784 -0.148828,0.03032 -0.329351,0.03032 -0.465777,0 -0.713823,-0.209461 -0.248047,-0.209462 -0.248047,-0.59669 0,-0.383095 0.234266,-0.606337 0.235645,-0.22462 0.644922,-0.22462 0.377582,0 0.567751,0.191547 0.190169,0.19017 0.190169,0.548459 z m -0.493337,-0.290766 q -0.0041,-0.155718 -0.07717,-0.234266 -0.07304,-0.07855 -0.227376,-0.07855 -0.143316,0 -0.235645,0.07441 -0.09233,0.07441 -0.103352,0.2384 z m 2.188323,0.482313 q 0,0.239779 -0.214974,0.387229 -0.214974,0.146071 -0.588422,0.146071 -0.206706,0 -0.374826,-0.03859 -0.168121,-0.03858 -0.270095,-0.08544 v -0.407899 h 0.04547 q 0.03721,0.02618 0.08544,0.05788 0.04961,0.03032 0.139182,0.06614 0.07717,0.03169 0.175011,0.05512 0.09784,0.02205 0.209461,0.02205 0.146072,0 0.216352,-0.03169 0.07028,-0.03307 0.07028,-0.09646 0,-0.0565 -0.04134,-0.0813 -0.04134,-0.02618 -0.157096,-0.04961 -0.05512,-0.0124 -0.150206,-0.02618 -0.09371,-0.01516 -0.170877,-0.03583 -0.21084,-0.05512 -0.312815,-0.170877 -0.101974,-0.117133 -0.101974,-0.290766 0,-0.223242 0.210839,-0.370692 0.212218,-0.148828 0.578776,-0.148828 0.173633,0 0.332107,0.03583 0.159852,0.03445 0.249425,0.07441 v 0.391363 h -0.04272 q -0.110243,-0.07579 -0.252181,-0.122645 -0.14056,-0.04823 -0.285254,-0.04823 -0.119889,0 -0.202571,0.03307 -0.08131,0.03307 -0.08131,0.09371 0,0.05512 0.03721,0.08406 0.03721,0.02894 0.175011,0.05788 0.07579,0.01516 0.162609,0.03032 0.08819,0.01378 0.176388,0.03583 0.195682,0.05099 0.289388,0.161231 0.09371,0.108865 0.09371,0.272851 z"
       id="text1"
       aria-label="Actiive Voices" />
    <path
       style="font-weight:bold;font-size:2.82223px;-inkscape-font-specification:'sans-serif Bold';fill:#000000;stroke-width:4.087"
       d="m 71.165413,24.315488 h -0.611851 l -0.442352,-0.67524 -0.450619,0.67524 h -0.58429 l 0.727606,-1.03353 -0.712448,-1.01838 h 0.610473 l 0.427193,0.63941 0.439595,-0.63941 h 0.585668 l -0.716582,0.9977 z"
       id="text3"
       aria-label="X" />
    <path
       style="font-weight:bold;font-size:2.82223px;-inkscape-font-specification:'sans-serif Bold';fill:#000000;stroke-width:4.087"
       d="m 83.092999,22.263588 -0.756545,1.25815 v 0.79375 h -0.529168 v -0.76894 l -0.768948,-1.28296 h 0.600827 l 0.443729,0.79375 0.428571,-0.79375 z"
       id="text6"
       aria-label="Y" />
    <path
       style="font-weight:bold;font-size:2.82223px;-inkscape-font-specification:'sans-serif Bold';fill:#000000;stroke-width:4.087"
       d="m 95.712506,24.315488 h -1.723931 v -0.38448 l 1.022507,-1.27055 h -0.972897 v -0.39688 h 1.619199 v 0.39137 l -1.021129,1.26366 h 1.076251 z"
       id="text7"
       aria-label="Z" />
    <path
       style="font-weight:bold;font-size:2.82223px;-inkscape-font-specification:'sans-serif Bold';fill:#000000;stroke-width:4.087"
       d="m 5.0537588,59.174963 q 0,0.286633 -0.130914,0.51401 -0.130914,0.225999 -0.3307301,0.347267 -0.1502066,0.09095 -0.329352,0.126779 -0.1791455,0.03583 -0.424437,0.03583 H 3.1148536 v -2.051905 h 0.7441427 q 0.2508037,0 0.4327052,0.04272 0.1819016,0.04134 0.3059254,0.118512 0.2122184,0.129536 0.3334861,0.350023 0.1226458,0.219108 0.1226458,0.516764 z m -0.5470827,-0.0041 q 0,-0.202572 -0.074414,-0.345888 -0.073036,-0.144695 -0.2328891,-0.225999 -0.081304,-0.03996 -0.1667431,-0.05374 -0.08406,-0.01516 -0.2549377,-0.01516 H 3.6440218 v 1.284335 h 0.1336701 q 0.1887917,0 0.2769864,-0.01654 0.088195,-0.01791 0.1722553,-0.06339 0.1446944,-0.08268 0.2122184,-0.220486 0.067524,-0.139183 0.067524,-0.343133 z m 2.447403,0.345889 h -1.135507 q 0.01102,0.181901 0.137804,0.278364 0.128158,0.09646 0.376206,0.09646 0.157096,0 0.304547,-0.0565 0.14745,-0.0565 0.232889,-0.121267 h 0.05512 v 0.398254 q -0.168121,0.06752 -0.31695,0.09784 -0.148829,0.03032 -0.329352,0.03032 -0.465778,0 -0.7138258,-0.209463 -0.2480476,-0.209462 -0.2480476,-0.596692 0,-0.383095 0.2342672,-0.606338 0.2356452,-0.224621 0.6449232,-0.224621 0.377584,0 0.567754,0.191548 0.19017,0.19017 0.19017,0.54846 z m -0.493339,-0.290767 q -0.0041,-0.155719 -0.07717,-0.234267 -0.07304,-0.07855 -0.227377,-0.07855 -0.143316,0 -0.235645,0.07442 -0.09233,0.07441 -0.103353,0.238401 z m 2.401927,-0.574644 -0.596693,1.547542 h -0.562241 l -0.592558,-1.547542 h 0.525034 l 0.358291,1.063849 0.354157,-1.063849 z m 0.771703,1.547542 h -0.496095 v -1.547542 h 0.496095 z m 0.01378,-1.768028 h -0.523656 v -0.376206 h 0.523656 z m 1.2609079,1.809369 q -0.202572,0 -0.370693,-0.04823 -0.166743,-0.04823 -0.290767,-0.148828 -0.122646,-0.100597 -0.19017,-0.25356 -0.06752,-0.152963 -0.06752,-0.358291 0,-0.216352 0.07166,-0.373449 0.07304,-0.157097 0.202572,-0.26045 0.125402,-0.09784 0.289389,-0.143317 0.163987,-0.04547 0.340376,-0.04547 0.158475,0 0.292145,0.03445 0.13367,0.03445 0.249426,0.08957 v 0.423059 h -0.07028 q -0.02894,-0.02481 -0.07028,-0.05788 -0.03996,-0.03307 -0.09922,-0.06477 -0.0565,-0.03032 -0.124024,-0.04961 -0.06752,-0.02067 -0.157097,-0.02067 -0.198438,0 -0.305925,0.12678 -0.106109,0.125402 -0.106109,0.341754 0,0.223243 0.108865,0.338999 0.110243,0.115755 0.311437,0.115755 0.09371,0 0.168121,-0.02067 0.07579,-0.02205 0.125402,-0.05099 0.04685,-0.02756 0.08268,-0.05788 0.03583,-0.03032 0.06615,-0.05926 h 0.07028 v 0.423059 q -0.117134,0.05512 -0.245291,0.08682 -0.12678,0.03307 -0.281121,0.03307 z m 2.3785,-0.723472 h -1.135506 q 0.01102,0.181901 0.137804,0.278364 0.128158,0.09646 0.376205,0.09646 0.157097,0 0.304548,-0.0565 0.14745,-0.0565 0.232889,-0.121267 h 0.05512 v 0.398254 q -0.168122,0.06752 -0.31695,0.09784 -0.148829,0.03032 -0.329352,0.03032 -0.465778,0 -0.713826,-0.209463 -0.248048,-0.209462 -0.248048,-0.596692 0,-0.383095 0.234268,-0.606338 0.235645,-0.224621 0.644923,-0.224621 0.377584,0 0.567754,0.191548 0.190169,0.19017 0.190169,0.54846 z m -0.493339,-0.290767 q -0.0041,-0.155719 -0.07717,-0.234267 -0.07304,-0.07855 -0.227377,-0.07855 -0.143316,0 -0.235645,0.07442 -0.09233,0.07441 -0.103353,0.238401 z m 3.305924,-0.682131 h -0.943959 v 0.381718 h 0.875057 v 0.396876 h -0.875057 v 0.876435 h -0.526411 v -2.051939 h 1.470371 z m 0.833715,1.655029 h -0.496095 v -1.547542 h 0.496095 z m 0.01378,-1.768028 h -0.523656 v -0.376206 h 0.523656 z m 0.950848,1.768028 h -0.496095 v -2.144234 h 0.496095 z m 1.457969,-0.01378 q -0.07993,0.02067 -0.169499,0.03169 -0.08957,0.0124 -0.219109,0.0124 -0.289389,0 -0.431327,-0.117134 -0.140559,-0.117161 -0.140559,-0.401037 V 58.98755 h -0.20395 v -0.336243 h 0.20395 v -0.442351 h 0.496096 v 0.442351 h 0.4644 v 0.336243 h -0.4644 v 0.54846 q 0,0.08131 0.0014,0.141939 0.0014,0.06063 0.02205,0.108865 0.01929,0.04823 0.06752,0.07717 0.04961,0.02756 0.143317,0.02756 0.03859,0 0.100597,-0.01654 0.06339,-0.01654 0.08819,-0.03032 h 0.04134 z m 1.820393,-0.66835 h -1.135506 q 0.01102,0.181901 0.137804,0.278364 0.128158,0.09646 0.376205,0.09646 0.157097,0 0.304548,-0.0565 0.14745,-0.0565 0.232889,-0.121267 h 0.05512 v 0.398254 q -0.168121,0.06752 -0.316949,0.09784 -0.148829,0.03032 -0.329352,0.03032 -0.465779,0 -0.713826,-0.209463 -0.248048,-0.209462 -0.248048,-0.596692 0,-0.383095 0.234267,-0.606338 0.235646,-0.224621 0.644924,-0.224621 0.377584,0 0.567753,0.191548 0.19017,0.19017 0.19017,0.54846 z m -0.493337,-0.290802 q -0.0041,-0.155719 -0.07717,-0.234267 -0.07304,-0.07855 -0.227377,-0.07855 -0.143316,0 -0.235645,0.07442 -0.09233,0.07441 -0.103353,0.238401 z M 22.6486,59.123976 h -0.0441 q -0.03169,-0.01103 -0.101975,-0.01654 -0.07028,-0.0055 -0.117133,-0.0055 -0.106109,0 -0.187414,0.01378 -0.0813,0.01378 -0.175011,0.04685 v 1.036288 h -0.496095 v -1.547542 h 0.496095 v 0.227377 q 0.163987,-0.14056 0.285254,-0.186035 0.121268,-0.04685 0.223243,-0.04685 0.02618,0 0.05926,0.0014 0.03307,0.0014 0.05788,0.0041 z"
       id="text8"
       aria-label="Device Filter" />
    <path
       style="font-weight:bold;font-size:2.82223px;-inkscape-font-specification:'sans-serif Bold';fill:#000000;stroke-width:4.087"
       d="M 5.0470129,62.470441 H 4.4062233 v 1.655028 H 3.8770552 V 62.470441 H 3.2362656 v -0.396877 h 1.8107473 z m 0.9894342,1.107945 0.352779,-1.000458 h 0.509875 l -0.859898,2.115294 H 5.5017668 L 5.7470581,64.114445 5.1448539,62.577928 h 0.5208999 z m 2.753328,-0.248047 q 0,0.191548 -0.05926,0.348644 -0.05788,0.157097 -0.152962,0.259072 -0.09922,0.107488 -0.224621,0.162609 -0.125402,0.05512 -0.268718,0.05512 -0.132292,0 -0.224621,-0.02894 -0.09233,-0.02756 -0.188792,-0.07855 v 0.644923 h -0.496095 v -2.115294 h 0.496095 v 0.161231 q 0.114377,-0.09095 0.232889,-0.147451 0.11989,-0.0565 0.275608,-0.0565 0.289389,0 0.449242,0.212218 0.161231,0.212218 0.161231,0.582912 z m -0.511254,0.0096 q 0,-0.225999 -0.07717,-0.327974 -0.07717,-0.101975 -0.243913,-0.101975 -0.07028,0 -0.144695,0.02205 -0.07441,0.02067 -0.141938,0.06063 v 0.778593 q 0.04961,0.01929 0.106109,0.02481 0.0565,0.0055 0.111622,0.0055 0.19706,0 0.293523,-0.114377 0.09646,-0.115756 0.09646,-0.347267 z m 2.3936599,0.103353 H 9.5366741 q 0.01102,0.181902 0.137804,0.278365 0.128158,0.09646 0.3762059,0.09646 0.157096,0 0.304547,-0.0565 0.14745,-0.0565 0.232889,-0.121268 h 0.05512 v 0.398254 q -0.168121,0.06752 -0.31695,0.09784 -0.148829,0.03032 -0.3293519,0.03032 -0.465778,0 -0.713826,-0.209462 -0.248047,-0.209462 -0.248047,-0.596692 0,-0.383096 0.234267,-0.606339 0.235645,-0.224621 0.644923,-0.224621 0.3775839,0 0.5677539,0.191548 0.19017,0.19017 0.19017,0.548461 z m -0.493339,-0.290767 q -0.0041,-0.155718 -0.07717,-0.234267 -0.07304,-0.07855 -0.2273769,-0.07855 -0.143316,0 -0.235645,0.07441 -0.09233,0.07441 -0.103353,0.238401 z"
       id="text9"
       aria-label="Type" />
    <path
       style="font-weight:bold;font-size:2.82223px;-inkscape-font-specification:'sans-serif Bold';fill:#000000;stroke-width:4.087"
       d="M 20.645223,64.2178 H 20.135348 L 19.264425,62.809441 V 64.2178 h -0.485071 v -2.051905 h 0.632522 l 0.748276,1.17547 v -1.17547 h 0.485071 z m 2.038124,0 h -0.496095 v -0.170877 q -0.137804,0.104731 -0.252181,0.159853 -0.114378,0.05374 -0.272853,0.05374 -0.256316,0 -0.395498,-0.14745 -0.137804,-0.147451 -0.137804,-0.435461 v -1.007349 h 0.498851 v 0.767569 q 0,0.117134 0.0069,0.195682 0.0083,0.07717 0.03583,0.128158 0.02618,0.05099 0.07855,0.07441 0.05374,0.02343 0.148828,0.02343 0.06339,0 0.140561,-0.02343 0.07717,-0.02343 0.148828,-0.0689 v -1.096921 h 0.496095 z m 1.981625,-1.096921 V 64.2178 h -0.498851 v -0.773082 q 0,-0.112999 -0.0055,-0.191547 -0.0055,-0.07993 -0.03032,-0.129536 -0.02481,-0.04961 -0.07579,-0.07166 -0.04961,-0.02343 -0.14056,-0.02343 -0.07304,0 -0.141938,0.03032 -0.0689,0.02894 -0.124024,0.06201 v 1.096921 h -0.496095 v -1.547541 h 0.496095 v 0.170877 q 0.128158,-0.100597 0.245291,-0.157097 0.117134,-0.0565 0.259072,-0.0565 0.152963,0 0.270096,0.0689 0.117134,0.06752 0.18328,0.199816 0.148829,-0.125402 0.289389,-0.19706 0.14056,-0.07166 0.275608,-0.07166 0.250804,0 0.38034,0.150207 0.130914,0.150207 0.130914,0.432705 v 1.007349 H 25.183128 V 63.44471 q 0,-0.114377 -0.0055,-0.192925 -0.0041,-0.07855 -0.02894,-0.128158 -0.02343,-0.04961 -0.07442,-0.07166 -0.05099,-0.02343 -0.143316,-0.02343 -0.06201,0 -0.121268,0.02205 -0.05926,0.02067 -0.144694,0.07028 z m 3.088192,0.301791 q 0,0.365181 -0.202572,0.595314 -0.201194,0.230133 -0.502986,0.230133 -0.129535,0 -0.227376,-0.02756 -0.09784,-0.02756 -0.186036,-0.07993 l -0.02067,0.07717 H 26.1381 v -2.144233 h 0.496095 v 0.757923 q 0.114377,-0.09095 0.232889,-0.147451 0.11989,-0.0565 0.275608,-0.0565 0.293523,0 0.451998,0.212219 0.158475,0.21084 0.158475,0.582912 z m -0.511254,0.0096 q 0,-0.206706 -0.07028,-0.318328 -0.07028,-0.111621 -0.250803,-0.111621 -0.07028,0 -0.144695,0.02205 -0.07441,0.02067 -0.141938,0.06063 v 0.777216 q 0.05374,0.01929 0.101975,0.02618 0.04823,0.0069 0.115756,0.0069 0.19706,0 0.293522,-0.115755 0.09646,-0.115756 0.09646,-0.347267 z m 2.393659,0.103353 h -1.135507 q 0.01103,0.181902 0.137805,0.278365 0.128157,0.09646 0.376205,0.09646 0.157097,0 0.304547,-0.0565 0.147451,-0.0565 0.232889,-0.121268 h 0.05512 v 0.398254 q -0.168121,0.06752 -0.31695,0.09784 -0.148828,0.03032 -0.329352,0.03032 -0.465778,0 -0.713825,-0.209462 -0.248048,-0.209463 -0.248048,-0.596692 0,-0.383096 0.234267,-0.606339 0.235645,-0.224621 0.644924,-0.224621 0.377583,0 0.567753,0.191548 0.19017,0.19017 0.19017,0.548461 z M 29.14223,63.244856 q -0.0041,-0.155718 -0.07717,-0.234267 -0.07304,-0.07855 -0.227377,-0.07855 -0.143317,0 -0.235646,0.07441 -0.09233,0.07441 -0.103353,0.238401 z m 1.965089,-0.101975 h -0.0441 q -0.03169,-0.01102 -0.101975,-0.01654 -0.07028,-0.0055 -0.117133,-0.0055 -0.10611,0 -0.187414,0.01378 -0.08131,0.01378 -0.175011,0.04685 v 1.036288 h -0.496094 v -1.5475 h 0.496096 v 0.227377 q 0.163987,-0.140561 0.285254,-0.186036 0.121268,-0.04685 0.223243,-0.04685 0.02618,0 0.05926,0.0014 0.03307,0.0014 0.05788,0.0041 z"
       id="text10"
       aria-label="Number" />
    <rect
       style="fill:#000000;fill-opacity:0.72;stroke-width:4.26098"
       id="rect32"
       width="64.193085"
       height="10.841497"
       x="51.505917"
       y="42.0686"
       rx="2.6315789"
       ry="1.6521739" />
    <path
       style="font-weight:bold;font-size:2.82223px;-inkscape-font-specification:'sans-serif Bold';fill:#ff0000;stroke-width:4.087"
       d="m 57.240707,40.151918 h -0.649058 l -0.613229,-0.82132 -0.124023,0.15021 v 0.67111 h -0.529168 v -2.05191 h 0.529168 v 0.9288 l 0.733118,-0.9288 h 0.613229 l -0.802021,0.94947 z m 1.757004,-0.68213 h -1.135507 q 0.01102,0.1819 0.137804,0.27836 0.128158,0.0965 0.376206,0.0965 0.157096,0 0.304547,-0.0565 0.14745,-0.0565 0.232889,-0.12126 h 0.05512 v 0.39825 q -0.168121,0.0675 -0.31695,0.0978 -0.148828,0.0303 -0.329352,0.0303 -0.465778,0 -0.713826,-0.20946 -0.248047,-0.20947 -0.248047,-0.5967 0,-0.38309 0.234267,-0.60634 0.235645,-0.22462 0.644924,-0.22462 0.377583,0 0.567753,0.19155 0.19017,0.19017 0.19017,0.54846 z m -0.49334,-0.29077 q -0.0041,-0.15572 -0.07717,-0.23427 -0.07304,-0.0786 -0.227377,-0.0786 -0.143316,0 -0.235645,0.0744 -0.09233,0.0744 -0.103353,0.2384 z m 1.542029,0.42581 0.352779,-1.00045 h 0.509876 l -0.859898,2.11529 H 59.51172 l 0.245292,-0.57878 -0.602205,-1.53651 h 0.5209 z"
       id="path32"
       aria-label="Key" />
    <path
       style="font-weight:bold;font-size:2.82223px;-inkscape-font-specification:'sans-serif Bold';fill:#000000;stroke-width:4.087"
       d="m 71.165413,40.190498 h -0.611851 l -0.442352,-0.67524 -0.450619,0.67524 h -0.58429 l 0.727606,-1.03353 -0.712448,-1.01838 h 0.610473 l 0.427193,0.63941 0.439595,-0.63941 h 0.585668 l -0.716582,0.9977 z"
       id="path33"
       aria-label="X" />
    <path
       style="font-weight:bold;font-size:2.82223px;-inkscape-font-specification:'sans-serif Bold';fill:#000000;stroke-width:4.087"
       d="m 83.092999,38.138598 -0.756545,1.25815 v 0.79375 h -0.529168 v -0.76894 l -0.768948,-1.28296 h 0.600827 l 0.443729,0.79375 0.428571,-0.79375 z"
       id="path34"
       aria-label="Y" />
    <path
       style="font-weight:bold;font-size:2.82223px;-inkscape-font-specification:'sans-serif Bold';fill:#000000;stroke-width:4.087"
       d="m 95.712506,40.190498 h -1.723931 v -0.38448 l 1.022507,-1.27055 h -0.972897 v -0.39688 h 1.619199 v 0.39137 l -1.021129,1.26366 h 1.076251 z"
       id="path35"
       aria-label="Z" />
    <rect
       style="fill:#000000;fill-opacity:0.72;stroke-width:3.12473"
       id="rect35"
       width="34.521614"
       height="10.841497"
       x="51.505917"
       y="59.001949"
       rx="1.4152046"
       ry="1.6521739" />
    <path
       style="font-weight:bold;font-size:2.82223px;-inkscape-font-specification:'sans-serif Bold';fill:#ff0000;stroke-width:4.087"
       d="m 57.240707,57.085262 h -0.649058 l -0.613229,-0.82132 -0.124023,0.15021 v 0.67111 h -0.529168 v -2.05191 h 0.529168 v 0.9288 l 0.733118,-0.9288 h 0.613229 l -0.802021,0.94947 z m 1.757004,-0.68213 h -1.135507 q 0.01102,0.1819 0.137804,0.27836 0.128158,0.0965 0.376206,0.0965 0.157096,0 0.304547,-0.0565 0.14745,-0.0565 0.232889,-0.12126 h 0.05512 v 0.39825 q -0.168121,0.0675 -0.31695,0.0978 -0.148828,0.0303 -0.329352,0.0303 -0.465778,0 -0.713826,-0.20946 -0.248047,-0.20947 -0.248047,-0.5967 0,-0.38309 0.234267,-0.60634 0.235645,-0.22462 0.644924,-0.22462 0.377583,0 0.567753,0.19155 0.19017,0.19017 0.19017,0.54846 z m -0.49334,-0.29077 q -0.0041,-0.15572 -0.07717,-0.23427 -0.07304,-0.0786 -0.227377,-0.0786 -0.143316,0 -0.235645,0.0744 -0.09233,0.0744 -0.103353,0.2384 z m 1.542029,0.42581 0.352779,-1.00045 h 0.509876 l -0.859898,2.11529 H 59.51172 l 0.245292,-0.57878 -0.602205,-1.53651 h 0.5209 z"
       id="path36"
       aria-label="Key" />
    <rect
       style="fill:#000000;fill-opacity:0.72;stroke-width:3.71464"
       id="rect39"
       width="48.786743"
       height="10.841497"
       x="51.505917"
       y="75.406128"
       rx="2"
       ry="1.6521739" />
    <rect
       style="fill:#000000;fill-opacity:0.72;stroke-width:1.88428"
       id="rect43"
       width="12.553313"
       height="10.841497"
       x="103.17616"
       y="59.001949"
       rx="2"
       ry="2" />
    <path
       style="font-weight:bold;font-size:2.82223px;-inkscape-font-specification:'sans-serif Bold';fill:#000000;stroke-width:4.087"
       d="m 68.552211,57.159684 q -0.137804,0.05374 -0.365181,0.107487 -0.227377,0.05237 -0.453376,0.05237 -0.523656,0 -0.819935,-0.283877 -0.296279,-0.285255 -0.296279,-0.786862 0,-0.478181 0.299035,-0.770326 0.299036,-0.293522 0.833716,-0.293522 0.202572,0 0.385852,0.03721 0.183279,0.03583 0.4079,0.144694 v 0.480937 h -0.05926 q -0.03858,-0.02894 -0.112999,-0.08131 -0.07441,-0.05374 -0.143317,-0.09095 -0.07993,-0.0441 -0.187413,-0.07579 -0.106109,-0.03169 -0.225999,-0.03169 -0.14056,0 -0.254938,0.04134 -0.114377,0.04134 -0.205328,0.12678 -0.08682,0.08268 -0.137804,0.210841 -0.04961,0.12678 -0.04961,0.293523 0,0.340376 0.180524,0.5209 0.180523,0.180523 0.533302,0.180523 0.03032,0 0.06615,-0.0014 0.03721,-0.0014 0.06752,-0.0041 v -0.402388 h -0.409279 v -0.38723 h 0.946715 z m 1.383555,-0.286633 v -0.322462 q -0.100598,0.0083 -0.217731,0.02343 -0.117134,0.01378 -0.177768,0.03307 -0.07441,0.02343 -0.114377,0.0689 -0.03858,0.0441 -0.03858,0.117134 0,0.04823 0.0083,0.07855 0.0083,0.03032 0.04134,0.05788 0.03169,0.02756 0.07579,0.04134 0.0441,0.0124 0.137804,0.0124 0.07441,0 0.150206,-0.03032 0.07717,-0.03032 0.135049,-0.07993 z m 0,0.239779 q -0.03996,0.03032 -0.09922,0.07304 -0.05926,0.04272 -0.111622,0.06752 -0.07304,0.03307 -0.151585,0.04823 -0.07855,0.01654 -0.172255,0.01654 -0.220486,0 -0.369315,-0.136427 -0.148829,-0.136426 -0.148829,-0.348644 0,-0.169499 0.07579,-0.276987 0.07579,-0.107487 0.214974,-0.169499 0.137804,-0.06201 0.341755,-0.0882 0.20395,-0.02618 0.423059,-0.03858 v -0.0083 q 0,-0.128158 -0.104732,-0.176389 -0.104731,-0.04961 -0.308681,-0.04961 -0.122646,0 -0.261828,0.0441 -0.139182,0.04272 -0.199816,0.06615 h -0.04547 v -0.37345 q 0.07855,-0.02067 0.254937,-0.04823 0.177768,-0.02894 0.355535,-0.02894 0.423059,0 0.610473,0.130914 0.188792,0.129536 0.188792,0.4079 v 1.052824 h -0.491961 z m 1.937527,0.150207 q -0.07993,0.02067 -0.169499,0.0317 -0.08957,0.0124 -0.219109,0.0124 -0.289389,0 -0.431327,-0.117133 -0.140561,-0.117134 -0.140561,-0.401011 v -0.723472 h -0.20395 v -0.336242 h 0.20395 v -0.442351 h 0.496096 v 0.442351 h 0.4644 v 0.336242 h -0.4644 v 0.548461 q 0,0.08131 0.0014,0.141938 0.0014,0.06063 0.02205,0.108866 0.01929,0.04823 0.06752,0.07717 0.04961,0.02756 0.143317,0.02756 0.03859,0 0.100597,-0.01654 0.06339,-0.01654 0.08819,-0.03032 h 0.04134 z m 1.820393,-0.66835 H 72.55818 q 0.01102,0.181901 0.137804,0.278364 0.128158,0.09646 0.376205,0.09646 0.157097,0 0.304548,-0.0565 0.14745,-0.0565 0.232889,-0.121267 h 0.05512 v 0.398254 q -0.168121,0.06752 -0.316949,0.09784 -0.148829,0.03032 -0.329352,0.03032 -0.465779,0 -0.713826,-0.209463 -0.248048,-0.209462 -0.248048,-0.596692 0,-0.383096 0.234267,-0.606339 0.235646,-0.22462 0.644924,-0.22462 0.377584,0 0.567753,0.191547 0.19017,0.19017 0.19017,0.548461 z M 73.200347,56.30392 q -0.0041,-0.155719 -0.07717,-0.234268 -0.07304,-0.07855 -0.227377,-0.07855 -0.143316,0 -0.235645,0.07441 -0.09233,0.07442 -0.103353,0.238402 z"
       id="text43"
       aria-label="Gate" />
    <path
       style="font-weight:bold;font-size:2.82223px;-inkscape-font-specification:'sans-serif Bold';fill:#000000;stroke-width:4.087"
       d="m 105.56326,56.64843 q 0,0.148829 -0.0606,0.265962 -0.0593,0.117134 -0.16398,0.194304 -0.12128,0.09095 -0.26735,0.129536 -0.14469,0.03858 -0.36794,0.03858 h -0.89573 v -2.051904 h 0.79651 q 0.24805,0 0.36243,0.01654 0.11576,0.01654 0.22876,0.07304 0.11713,0.05926 0.17363,0.159853 0.0579,0.09922 0.0579,0.227377 0,0.148829 -0.0786,0.263206 -0.0785,0.113 -0.22187,0.17639 v 0.01102 q 0.2012,0.03996 0.31834,0.165365 0.11851,0.125402 0.11851,0.33073 z m -0.678,-0.843362 q 0,-0.05099 -0.0262,-0.101975 -0.0248,-0.05099 -0.0896,-0.07579 -0.0579,-0.02205 -0.14469,-0.02343 -0.0854,-0.0028 -0.24116,-0.0028 h -0.0496 v 0.434083 h 0.0827 q 0.1254,0 0.21359,-0.0041 0.0882,-0.0041 0.13919,-0.02756 0.0717,-0.03169 0.0937,-0.0813 0.022,-0.05099 0.022,-0.117134 z m 0.12954,0.835094 q 0,-0.09784 -0.0386,-0.150207 -0.0372,-0.05374 -0.12816,-0.07993 -0.062,-0.01792 -0.17088,-0.01929 -0.10887,-0.0014 -0.22738,-0.0014 h -0.11575 v 0.511254 h 0.0386 q 0.22324,0 0.3197,-0.0014 0.0965,-0.0014 0.17777,-0.03583 0.0827,-0.03445 0.113,-0.09095 0.0317,-0.05788 0.0317,-0.132292 z m 2.03676,-0.438217 h -0.0441 q -0.0317,-0.01103 -0.10198,-0.01654 -0.0703,-0.0055 -0.11714,-0.0055 -0.1061,0 -0.18741,0.01378 -0.0813,0.01378 -0.17501,0.04685 v 1.036287 h -0.4961 v -1.547541 h 0.4961 v 0.227377 q 0.16399,-0.14056 0.28525,-0.186036 0.12127,-0.04685 0.22325,-0.04685 0.0262,0 0.0592,0.0014 0.0331,0.0014 0.0579,0.0041 z m 1.80524,0.392742 h -1.13551 q 0.011,0.181901 0.1378,0.278364 0.12816,0.09646 0.37621,0.09646 0.1571,0 0.30455,-0.0565 0.14745,-0.0565 0.23289,-0.121267 h 0.0551 v 0.398254 q -0.16812,0.06752 -0.31695,0.09784 -0.14883,0.03032 -0.32935,0.03032 -0.46579,0 -0.71383,-0.209463 -0.24805,-0.209462 -0.24805,-0.596692 0,-0.383096 0.23427,-0.606339 0.23564,-0.22462 0.64492,-0.22462 0.37759,0 0.56776,0.191547 0.19017,0.19017 0.19017,0.548461 z m -0.49334,-0.290767 q -0.004,-0.155719 -0.0772,-0.234268 -0.073,-0.07855 -0.22738,-0.07855 -0.14332,0 -0.23565,0.07441 -0.0923,0.07442 -0.10335,0.238402 z m 1.78044,0.569131 v -0.322462 q -0.1006,0.0083 -0.21773,0.02343 -0.11714,0.01378 -0.17777,0.03307 -0.0744,0.02343 -0.11438,0.0689 -0.0386,0.0441 -0.0386,0.117134 0,0.04823 0.008,0.07855 0.008,0.03032 0.0413,0.05788 0.0317,0.02756 0.0758,0.04134 0.0441,0.0124 0.13781,0.0124 0.0744,0 0.1502,-0.03032 0.0772,-0.03032 0.13505,-0.07993 z m 0,0.239779 q -0.04,0.03032 -0.0992,0.07304 -0.0593,0.04272 -0.11162,0.06752 -0.073,0.03307 -0.15159,0.04823 -0.0786,0.01654 -0.17225,0.01654 -0.22049,0 -0.36932,-0.136427 -0.14883,-0.136426 -0.14883,-0.348644 0,-0.169499 0.0758,-0.276987 0.0758,-0.107487 0.21497,-0.169499 0.13781,-0.06201 0.34176,-0.0882 0.20395,-0.02618 0.42305,-0.03858 v -0.0083 q 0,-0.128158 -0.10472,-0.176389 -0.10473,-0.04961 -0.30868,-0.04961 -0.12265,0 -0.26183,0.0441 -0.13919,0.04272 -0.19982,0.06615 h -0.0455 v -0.37345 q 0.0786,-0.02067 0.25494,-0.04823 0.17777,-0.02894 0.35553,-0.02894 0.42306,0 0.61047,0.130914 0.1888,0.129536 0.1888,0.4079 v 1.052824 h -0.49197 z m 1.93754,0.150207 q -0.0799,0.02067 -0.1695,0.0317 -0.0896,0.0124 -0.21911,0.0124 -0.28939,0 -0.43133,-0.117133 -0.14056,-0.117137 -0.14056,-0.401014 v -0.723472 h -0.20395 v -0.336242 h 0.20395 v -0.442351 h 0.49609 v 0.442351 h 0.46441 v 0.336242 h -0.46441 v 0.548461 q 0,0.08131 0.001,0.141938 10e-4,0.06063 0.0221,0.108866 0.0193,0.04823 0.0675,0.07717 0.0496,0.02756 0.14331,0.02756 0.0386,0 0.1006,-0.01654 0.0634,-0.01654 0.0882,-0.03032 h 0.0413 z m 1.85072,0.01378 h -0.49885 v -0.767569 q 0,-0.09371 -0.01,-0.186036 -0.01,-0.09371 -0.0331,-0.137804 -0.0276,-0.05099 -0.0813,-0.07441 -0.0524,-0.02343 -0.14746,-0.02343 -0.0675,0 -0.1378,0.02205 -0.0689,0.02205 -0.15021,0.07028 v 1.096921 h -0.49568 v -2.144233 h 0.4961 v 0.767569 q 0.13229,-0.103353 0.25356,-0.158475 0.12265,-0.05512 0.27148,-0.05512 0.2508,0 0.39137,0.146072 0.14193,0.146073 0.14193,0.43684 z"
       id="text44"
       aria-label="Breath" />
    <path
       style="font-weight:bold;font-size:2.82223px;-inkscape-font-specification:'sans-serif Bold';fill:#000000;stroke-width:4.087"
       d="m 55.256039,73.464749 q 0,0.303169 -0.257693,0.493339 -0.256316,0.188792 -0.69729,0.188792 -0.254937,0 -0.445107,-0.0441 -0.188792,-0.04548 -0.354157,-0.114377 v -0.491961 h 0.05788 q 0.163987,0.130914 0.366559,0.201194 0.20395,0.07028 0.391364,0.07028 0.04823,0 0.12678,-0.0083 0.07855,-0.0083 0.128158,-0.02756 0.06063,-0.02481 0.09922,-0.06201 0.03996,-0.03721 0.03996,-0.110243 0,-0.06752 -0.05788,-0.115756 -0.0565,-0.04961 -0.166743,-0.07579 -0.115756,-0.02756 -0.245291,-0.05099 -0.128158,-0.0248 -0.241158,-0.06201 -0.259072,-0.08406 -0.373449,-0.227376 -0.113,-0.144695 -0.113,-0.358291 0,-0.286633 0.256316,-0.467157 0.257694,-0.181901 0.66146,-0.181901 0.202573,0 0.399633,0.03996 0.198438,0.03858 0.343132,0.09784 V 72.631 h -0.0565 q -0.124023,-0.09922 -0.304547,-0.165365 -0.179145,-0.06752 -0.366559,-0.06752 -0.06615,0 -0.132292,0.0096 -0.06477,0.0083 -0.125402,0.03307 -0.05374,0.02067 -0.09233,0.06339 -0.03858,0.04134 -0.03858,0.09508 0,0.08131 0.06201,0.125402 0.06201,0.04272 0.234267,0.07855 0.112999,0.02343 0.216353,0.04547 0.104731,0.02205 0.22462,0.06063 0.235646,0.07717 0.347267,0.21084 0.112999,0.132292 0.112999,0.344511 z m 1.324299,0.631143 q -0.07993,0.02067 -0.169499,0.03169 -0.08957,0.0124 -0.219109,0.0124 -0.289389,0 -0.431327,-0.117133 -0.14056,-0.117134 -0.14056,-0.40101 v -0.723472 h -0.203951 v -0.336243 h 0.203951 V 72.11978 h 0.496095 v 0.442351 h 0.4644 v 0.336243 h -0.4644 v 0.54846 q 0,0.08131 0.0014,0.141939 0.0014,0.06063 0.02205,0.108865 0.01929,0.04823 0.06752,0.07717 0.04961,0.02756 0.143317,0.02756 0.03858,0 0.100597,-0.01654 0.06339,-0.01654 0.08819,-0.03032 h 0.04134 z M 57.998343,73.0348 h -0.0441 q -0.03169,-0.01103 -0.101975,-0.01654 -0.07028,-0.0055 -0.117134,-0.0055 -0.106109,0 -0.187414,0.01378 -0.0813,0.01378 -0.175011,0.04685 v 1.036288 h -0.496095 v -1.547542 h 0.496095 v 0.227377 q 0.163987,-0.14056 0.285255,-0.186035 0.121267,-0.04685 0.223243,-0.04685 0.02618,0 0.05926,0.0014 0.03307,0.0014 0.05788,0.0041 z m 0.777216,1.074873 h -0.496095 v -1.547542 h 0.496095 z m 0.01378,-1.768028 h -0.523656 v -0.376206 h 0.523656 z m 2.069819,0.972897 q 0,0.191548 -0.05926,0.348645 -0.05788,0.157097 -0.152962,0.259072 -0.09922,0.107487 -0.224621,0.162609 -0.125402,0.05512 -0.268718,0.05512 -0.132292,0 -0.224621,-0.02894 -0.09233,-0.02756 -0.188792,-0.07855 v 0.644924 h -0.496095 v -2.115295 h 0.496095 v 0.161231 q 0.114377,-0.09095 0.232889,-0.14745 0.11989,-0.0565 0.275609,-0.0565 0.289388,0 0.449241,0.212219 0.161231,0.212218 0.161231,0.582911 z m -0.511253,0.0096 q 0,-0.225999 -0.07717,-0.327974 -0.07717,-0.101976 -0.243913,-0.101976 -0.07028,0 -0.144695,0.02205 -0.07441,0.02067 -0.141938,0.06063 v 0.778594 q 0.04961,0.01929 0.106109,0.0248 0.0565,0.0055 0.111622,0.0055 0.19706,0 0.293523,-0.114378 0.09646,-0.115755 0.09646,-0.347266 z m 3.336239,0.785484 H 62.31437 v -0.358291 h 0.432706 V 72.666863 H 62.31437 v -0.334865 q 0.09922,0 0.19017,-0.01102 0.09095,-0.0124 0.151585,-0.04134 0.07166,-0.03445 0.107487,-0.08957 0.03583,-0.05512 0.04134,-0.137804 h 0.456132 v 1.699126 h 0.423059 z"
       id="text45"
       aria-label="Strip 1" />
    <path
       style="font-weight:bold;font-size:2.82223px;-inkscape-font-specification:'sans-serif Bold';fill:#000000;stroke-width:4.087"
       d="m 67.524045,73.464749 q 0,0.303169 -0.257694,0.493339 -0.256316,0.188792 -0.697289,0.188792 -0.254938,0 -0.445108,-0.0441 -0.188792,-0.04548 -0.354157,-0.114377 v -0.491961 h 0.05788 q 0.163987,0.130914 0.366559,0.201194 0.203951,0.07028 0.391364,0.07028 0.04823,0 0.12678,-0.0083 0.07855,-0.0083 0.128158,-0.02756 0.06063,-0.02481 0.09922,-0.06201 0.03996,-0.03721 0.03996,-0.110243 0,-0.06752 -0.05788,-0.115756 -0.0565,-0.04961 -0.166743,-0.07579 -0.115755,-0.02756 -0.245291,-0.05099 -0.128158,-0.0248 -0.241157,-0.06201 -0.259072,-0.08406 -0.37345,-0.227376 -0.112999,-0.144695 -0.112999,-0.358291 0,-0.286633 0.256316,-0.467157 0.257693,-0.181901 0.66146,-0.181901 0.202572,0 0.399632,0.03996 0.198438,0.03858 0.343132,0.09784 V 72.631 h -0.0565 q -0.124024,-0.09922 -0.304548,-0.165365 -0.179145,-0.06752 -0.366559,-0.06752 -0.06615,0 -0.132292,0.0096 -0.06477,0.0083 -0.125402,0.03307 -0.05374,0.02067 -0.09233,0.06339 -0.03859,0.04134 -0.03859,0.09508 0,0.08131 0.06201,0.125402 0.06201,0.04272 0.234267,0.07855 0.113,0.02343 0.216353,0.04547 0.104731,0.02205 0.224621,0.06063 0.235645,0.07717 0.347266,0.21084 0.113,0.132292 0.113,0.344511 z m 1.324298,0.631143 q -0.07993,0.02067 -0.169499,0.03169 -0.08957,0.0124 -0.219109,0.0124 -0.289388,0 -0.431327,-0.117133 -0.14056,-0.117134 -0.14056,-0.40101 v -0.723472 h -0.20395 v -0.336243 h 0.20395 V 72.11978 h 0.496095 v 0.442351 h 0.4644 v 0.336243 h -0.4644 v 0.54846 q 0,0.08131 0.0014,0.141939 0.0014,0.06063 0.02205,0.108865 0.01929,0.04823 0.06752,0.07717 0.04961,0.02756 0.143316,0.02756 0.03858,0 0.100597,-0.01654 0.06339,-0.01654 0.08819,-0.03032 h 0.04134 z M 70.266348,73.0348 h -0.0441 q -0.03169,-0.01103 -0.101975,-0.01654 -0.07028,-0.0055 -0.117134,-0.0055 -0.106109,0 -0.187413,0.01378 -0.08131,0.01378 -0.175012,0.04685 v 1.036288 h -0.496095 v -1.547542 h 0.496095 v 0.227377 q 0.163987,-0.14056 0.285255,-0.186035 0.121268,-0.04685 0.223243,-0.04685 0.02618,0 0.05926,0.0014 0.03307,0.0014 0.05788,0.0041 z m 0.777216,1.074873 h -0.496095 v -1.547542 h 0.496095 z m 0.01378,-1.768028 h -0.523656 v -0.376206 h 0.523656 z m 2.069818,0.972897 q 0,0.191548 -0.05925,0.348645 -0.05788,0.157097 -0.152963,0.259072 -0.09922,0.107487 -0.224621,0.162609 -0.125402,0.05512 -0.268718,0.05512 -0.132292,0 -0.224621,-0.02894 -0.09233,-0.02756 -0.188792,-0.07855 v 0.644924 h -0.496095 v -2.115295 h 0.496095 v 0.161231 q 0.114378,-0.09095 0.232889,-0.14745 0.11989,-0.0565 0.275609,-0.0565 0.289389,0 0.449242,0.212219 0.16123,0.212218 0.16123,0.582911 z m -0.511253,0.0096 q 0,-0.225999 -0.07717,-0.327974 -0.07717,-0.101976 -0.243914,-0.101976 -0.07028,0 -0.144694,0.02205 -0.07442,0.02067 -0.141939,0.06063 v 0.778594 q 0.04961,0.01929 0.10611,0.0248 0.0565,0.0055 0.111621,0.0055 0.19706,0 0.293523,-0.114378 0.09646,-0.115755 0.09646,-0.347266 z m 3.465775,0.785484 h -1.610931 v -0.338999 q 0.184658,-0.13367 0.369316,-0.283876 0.186035,-0.150207 0.297657,-0.259072 0.166743,-0.161231 0.237023,-0.281121 0.07028,-0.11989 0.07028,-0.237023 0,-0.14056 -0.09095,-0.216353 -0.08957,-0.07717 -0.259072,-0.07717 -0.12678,0 -0.26734,0.05236 -0.139182,0.05237 -0.259072,0.133671 h -0.0441 v -0.456132 q 0.09784,-0.04272 0.288011,-0.08544 0.191548,-0.04272 0.383095,-0.04272 0.385852,0 0.588424,0.162609 0.202573,0.161231 0.202573,0.45751 0,0.194304 -0.09784,0.369315 -0.09646,0.175011 -0.29628,0.361047 -0.125401,0.115755 -0.252181,0.213596 -0.12678,0.09646 -0.180524,0.135049 h 0.92191 z"
       id="text46"
       aria-label="Strip 2" />
    <path
       style="font-weight:bold;font-size:2.82223px;-inkscape-font-specification:'sans-serif Bold';fill:#000000;stroke-width:4.087"
       d="m 79.843045,72.705448 q 0,0.137804 -0.04823,0.270096 -0.04823,0.130914 -0.137804,0.220487 -0.122646,0.121267 -0.274231,0.183279 -0.150206,0.06201 -0.374827,0.06201 H 78.6786 v 0.668351 h -0.529168 v -2.051905 h 0.870922 q 0.195682,0 0.329352,0.03445 0.135048,0.03307 0.238402,0.100597 0.124023,0.08131 0.188791,0.208084 0.06615,0.12678 0.06615,0.304548 z m -0.547082,0.0124 q 0,-0.08682 -0.04685,-0.148828 -0.04685,-0.06339 -0.108865,-0.08819 -0.08268,-0.03307 -0.161231,-0.03583 -0.07855,-0.0041 -0.209462,-0.0041 H 78.6786 v 0.614606 h 0.151585 q 0.135048,0 0.221864,-0.01654 0.08819,-0.01654 0.147451,-0.06615 0.05099,-0.0441 0.07304,-0.104731 0.02343,-0.06201 0.02343,-0.150207 z m 2.418464,0.709692 H 80.57892 q 0.01102,0.181901 0.137804,0.278364 0.128158,0.09646 0.376206,0.09646 0.157096,0 0.304547,-0.0565 0.14745,-0.0565 0.232889,-0.121267 h 0.05512 v 0.398254 q -0.168121,0.06752 -0.31695,0.09784 -0.148829,0.03032 -0.329352,0.03032 -0.465778,0 -0.713826,-0.209463 -0.248047,-0.209462 -0.248047,-0.596692 0,-0.383095 0.234267,-0.606338 0.235645,-0.224621 0.644923,-0.224621 0.377584,0 0.567754,0.191548 0.19017,0.19017 0.19017,0.54846 z m -0.493339,-0.290767 q -0.0041,-0.155719 -0.07717,-0.234267 -0.07304,-0.07855 -0.227377,-0.07855 -0.143316,0 -0.235645,0.07442 -0.09233,0.07441 -0.103353,0.238401 z m 2.348183,0.972898 H 83.073176 V 73.94844 q -0.128158,0.104731 -0.239779,0.15434 -0.111622,0.04961 -0.257694,0.04961 -0.282499,0 -0.451998,-0.217731 -0.169499,-0.21773 -0.169499,-0.587046 0,-0.19706 0.0565,-0.348644 0.05788,-0.152963 0.157096,-0.261828 0.09371,-0.103353 0.227377,-0.159853 0.13367,-0.05788 0.26734,-0.05788 0.139183,0 0.227377,0.03032 0.08957,0.02894 0.18328,0.07441 v -0.658704 h 0.496095 z M 83.073176,73.68248 v -0.759302 q -0.05237,-0.02205 -0.110243,-0.03169 -0.05788,-0.0096 -0.10611,-0.0096 -0.195682,0 -0.293523,0.122646 -0.09784,0.121268 -0.09784,0.33762 0,0.227377 0.07855,0.33073 0.07855,0.101975 0.252182,0.101975 0.06752,0 0.143316,-0.0248 0.07579,-0.02618 0.13367,-0.06752 z m 3.431324,0.427193 h -1.369773 v -0.358291 h 0.432705 v -1.084519 h -0.432705 v -0.334865 q 0.09922,0 0.190169,-0.01102 0.09095,-0.0124 0.151585,-0.04134 0.07166,-0.03445 0.107487,-0.08957 0.03583,-0.05512 0.04134,-0.137804 h 0.456132 v 1.699126 h 0.42306 z"
       id="text47"
       aria-label="Ped 1" />
    <path
       style="font-weight:bold;font-size:2.82223px;-inkscape-font-specification:'sans-serif Bold';fill:#000000;stroke-width:4.087"
       d="m 92.111058,72.705448 q 0,0.137804 -0.04823,0.270096 -0.04823,0.130914 -0.137804,0.220487 -0.122646,0.121267 -0.274231,0.183279 -0.150206,0.06201 -0.374827,0.06201 h -0.329352 v 0.668351 h -0.529168 v -2.051905 h 0.870922 q 0.195682,0 0.329352,0.03445 0.135048,0.03307 0.238402,0.100597 0.124023,0.08131 0.188791,0.208084 0.06615,0.12678 0.06615,0.304548 z m -0.547082,0.0124 q 0,-0.08682 -0.04685,-0.148828 -0.04685,-0.06339 -0.108865,-0.08819 -0.08268,-0.03307 -0.161231,-0.03583 -0.07855,-0.0041 -0.209462,-0.0041 h -0.09095 v 0.614606 h 0.151585 q 0.135048,0 0.221864,-0.01654 0.0882,-0.01654 0.147451,-0.06615 0.05099,-0.0441 0.07304,-0.104731 0.02343,-0.06201 0.02343,-0.150207 z m 2.418464,0.709692 h -1.135507 q 0.01102,0.181901 0.137804,0.278364 0.128158,0.09646 0.376206,0.09646 0.157096,0 0.304547,-0.0565 0.14745,-0.0565 0.232889,-0.121267 h 0.05512 v 0.398254 q -0.168121,0.06752 -0.31695,0.09784 -0.148829,0.03032 -0.329352,0.03032 -0.465778,0 -0.713826,-0.209463 -0.248047,-0.209462 -0.248047,-0.596692 0,-0.383095 0.234267,-0.606338 0.235645,-0.224621 0.644923,-0.224621 0.377584,0 0.567754,0.191548 0.19017,0.19017 0.19017,0.54846 z m -0.493339,-0.290767 q -0.0041,-0.155719 -0.07717,-0.234267 -0.07304,-0.07855 -0.227377,-0.07855 -0.143316,0 -0.235645,0.07442 -0.09233,0.07441 -0.103353,0.238401 z m 2.348183,0.972898 H 95.341189 V 73.94844 q -0.128158,0.104731 -0.239779,0.15434 -0.111622,0.04961 -0.257694,0.04961 -0.282499,0 -0.451998,-0.217731 -0.169499,-0.21773 -0.169499,-0.587046 0,-0.19706 0.0565,-0.348644 0.05788,-0.152963 0.157096,-0.261828 0.09371,-0.103353 0.227377,-0.159853 0.13367,-0.05788 0.26734,-0.05788 0.139183,0 0.227377,0.03032 0.08957,0.02894 0.18328,0.07441 v -0.658704 h 0.496095 z M 95.341189,73.68248 v -0.759302 q -0.05237,-0.02205 -0.110243,-0.03169 -0.05788,-0.0096 -0.10611,-0.0096 -0.195682,0 -0.293523,0.122646 -0.09784,0.121268 -0.09784,0.33762 0,0.227377 0.07855,0.33073 0.07855,0.101975 0.252182,0.101975 0.06752,0 0.143316,-0.0248 0.07579,-0.02618 0.13367,-0.06752 z m 3.56086,0.427193 h -1.610931 v -0.338999 q 0.184658,-0.13367 0.369316,-0.283876 0.186035,-0.150207 0.297657,-0.259072 0.166743,-0.161231 0.237023,-0.281121 0.07028,-0.11989 0.07028,-0.237023 0,-0.14056 -0.09095,-0.216353 -0.08957,-0.07717 -0.259072,-0.07717 -0.12678,0 -0.26734,0.05236 -0.139182,0.05237 -0.259072,0.133671 h -0.0441 v -0.456132 q 0.09784,-0.04272 0.288011,-0.08544 0.191548,-0.04272 0.383095,-0.04272 0.385852,0 0.588424,0.162609 0.202573,0.161231 0.202573,0.45751 0,0.194304 -0.09784,0.369315 -0.09646,0.175011 -0.29628,0.361047 -0.125401,0.115755 -0.252181,0.213596 -0.12678,0.09646 -0.180524,0.135049 h 0.92191 z"
       id="text48"
       aria-label="Ped 2" />
    <path
       style="font-weight:bold;font-size:2.82223px;-inkscape-font-specification:'sans-serif Bold';fill:#ff0000;stroke-width:4.087"
       d="M 107.11903,113.42612 H 105.639 v -2.05191 h 0.52917 v 1.65503 h 0.95086 z m 0.78686,0 h -0.49609 v -1.54754 h 0.49609 z m 0.0138,-1.76803 h -0.52365 v -0.37621 h 0.52365 z m 1.95959,1.59026 q 0,0.21773 -0.062,0.36656 -0.062,0.14883 -0.17363,0.23289 -0.11162,0.0854 -0.2701,0.12264 -0.1571,0.0386 -0.35553,0.0386 -0.16124,0 -0.31834,-0.0193 -0.15571,-0.0193 -0.27009,-0.0469 v -0.38723 h 0.0606 q 0.0909,0.0358 0.22186,0.0648 0.13092,0.0303 0.23427,0.0303 0.13781,0 0.22325,-0.0262 0.0868,-0.0248 0.13229,-0.0717 0.0427,-0.0441 0.062,-0.113 0.0193,-0.0689 0.0193,-0.16537 v -0.0289 q -0.0896,0.073 -0.19844,0.11576 -0.10886,0.0427 -0.24254,0.0427 -0.32522,0 -0.50161,-0.19568 -0.17639,-0.19569 -0.17639,-0.59532 0,-0.19155 0.0537,-0.33073 0.0537,-0.13918 0.15159,-0.24253 0.091,-0.0965 0.22324,-0.15021 0.13367,-0.0537 0.27285,-0.0537 0.12541,0 0.22738,0.0303 0.10336,0.0289 0.18742,0.0813 l 0.0179,-0.0689 h 0.48094 z m -0.4961,-0.31006 v -0.70142 q -0.0427,-0.0179 -0.10473,-0.0276 -0.062,-0.011 -0.11162,-0.011 -0.19568,0 -0.29352,0.113 -0.0978,0.11162 -0.0978,0.31282 0,0.22324 0.0827,0.31143 0.0841,0.0882 0.24805,0.0882 0.0744,0 0.14607,-0.0234 0.0717,-0.0234 0.13091,-0.062 z m 2.51908,0.48783 h -0.49885 v -0.76757 q 0,-0.0937 -0.01,-0.18604 -0.01,-0.0937 -0.0331,-0.1378 -0.0276,-0.051 -0.0813,-0.0744 -0.0524,-0.0234 -0.14745,-0.0234 -0.0675,0 -0.13781,0.0221 -0.0689,0.022 -0.15021,0.0703 v 1.09692 h -0.49615 v -2.14424 h 0.4961 v 0.76757 q 0.13229,-0.10335 0.25356,-0.15847 0.12265,-0.0551 0.27148,-0.0551 0.2508,0 0.39136,0.14607 0.14194,0.14607 0.14194,0.43684 z m 1.44558,-0.0138 q -0.0799,0.0207 -0.16951,0.0317 -0.0896,0.0124 -0.21911,0.0124 -0.28939,0 -0.43133,-0.11713 -0.14056,-0.11713 -0.14056,-0.40101 v -0.72347 h -0.20395 v -0.33624 h 0.20395 v -0.44236 h 0.4961 v 0.44236 h 0.46441 v 0.33624 h -0.46441 v 0.54846 q 0,0.0813 10e-4,0.14194 0.001,0.0606 0.022,0.10886 0.0193,0.0482 0.0675,0.0772 0.0496,0.0276 0.14332,0.0276 0.0386,0 0.1006,-0.0165 0.0634,-0.0165 0.0882,-0.0303 h 0.0413 z m 1.64125,-0.47681 q 0,0.23978 -0.21497,0.38723 -0.21498,0.14608 -0.58843,0.14608 -0.20671,0 -0.37483,-0.0386 -0.16812,-0.0386 -0.2701,-0.0854 v -0.4079 h 0.0455 q 0.0372,0.0262 0.0854,0.0579 0.0496,0.0303 0.13919,0.0662 0.0772,0.0317 0.17501,0.0551 0.0978,0.022 0.20946,0.022 0.14608,0 0.21636,-0.0317 0.0703,-0.0331 0.0703,-0.0965 0,-0.0565 -0.0413,-0.0813 -0.0413,-0.0262 -0.1571,-0.0496 -0.0551,-0.0124 -0.15021,-0.0262 -0.0937,-0.0152 -0.17088,-0.0358 -0.21084,-0.0551 -0.31282,-0.17087 -0.10197,-0.11714 -0.10197,-0.29077 0,-0.22324 0.21084,-0.3707 0.21222,-0.14882 0.57878,-0.14882 0.17364,0 0.33211,0.0358 0.15986,0.0344 0.24943,0.0744 v 0.39136 h -0.0427 q -0.11025,-0.0758 -0.25218,-0.12264 -0.14056,-0.0482 -0.28526,-0.0482 -0.11989,0 -0.20257,0.0331 -0.0813,0.0331 -0.0813,0.0937 0,0.0551 0.0372,0.0841 0.0372,0.0289 0.17501,0.0579 0.0758,0.0152 0.16261,0.0303 0.0882,0.0138 0.17639,0.0358 0.19568,0.051 0.28939,0.16123 0.0937,0.10887 0.0937,0.27285 z"
       id="text49"
       aria-label="Lights" />
    <path
       style="font-weight:bold;font-size:2.82223px;-inkscape-font-specification:'sans-serif Bold';fill:#000000;stroke-width:4.087"
       d="m 35.58447,22.846494 q 0,0.137804 -0.04823,0.270096 -0.04823,0.130914 -0.137805,0.220487 -0.122645,0.121268 -0.27423,0.18328 -0.150207,0.06201 -0.374828,0.06201 h -0.329352 v 0.66835 h -0.529168 v -2.051905 h 0.870923 q 0.195682,0 0.329352,0.03445 0.135048,0.03307 0.238401,0.100597 0.124024,0.0813 0.188792,0.208084 0.06615,0.12678 0.06615,0.304547 z m -0.547083,0.0124 q 0,-0.08682 -0.04685,-0.148829 -0.04685,-0.06339 -0.108865,-0.08819 -0.08268,-0.03307 -0.161231,-0.03583 -0.07855,-0.0041 -0.209463,-0.0041 h -0.09095 v 0.614607 h 0.151585 q 0.135048,0 0.221865,-0.01654 0.08819,-0.01654 0.14745,-0.06615 0.05099,-0.0441 0.07304,-0.104731 0.02343,-0.06201 0.02343,-0.150206 z m 2.476342,0.61874 q 0,0.381718 -0.223243,0.602205 -0.221865,0.219109 -0.624253,0.219109 -0.402388,0 -0.625631,-0.219109 -0.221865,-0.220487 -0.221865,-0.602205 0,-0.384473 0.223243,-0.603582 0.224621,-0.219109 0.624253,-0.219109 0.405144,0 0.625631,0.220487 0.221865,0.220487 0.221865,0.602204 z m -0.610473,0.376206 q 0.04823,-0.05926 0.07166,-0.141938 0.02481,-0.08406 0.02481,-0.231511 0,-0.136427 -0.02481,-0.228755 -0.0248,-0.09233 -0.0689,-0.147451 -0.0441,-0.0565 -0.106109,-0.07993 -0.06201,-0.02343 -0.13367,-0.02343 -0.07166,0 -0.128158,0.01929 -0.05512,0.01929 -0.106109,0.07717 -0.04548,0.05374 -0.07304,0.14745 -0.02618,0.09371 -0.02618,0.235646 0,0.126779 0.02343,0.220486 0.02343,0.09233 0.0689,0.148829 0.0441,0.05374 0.104731,0.07855 0.06201,0.02481 0.14056,0.02481 0.06752,0 0.128158,-0.02205 0.06201,-0.02343 0.104731,-0.07717 z m 1.462103,0.396876 h -0.496095 v -2.144233 h 0.496095 z m 1.167202,-0.547083 0.352778,-1.000458 h 0.509876 l -0.859898,2.115294 H 38.99788 l 0.245292,-0.578777 -0.602205,-1.536517 h 0.5209 z m 2.753327,-0.248047 q 0,0.191548 -0.05926,0.348644 -0.05788,0.157097 -0.152962,0.259072 -0.09922,0.107488 -0.224621,0.162609 -0.125402,0.05512 -0.268718,0.05512 -0.132292,0 -0.224621,-0.02894 -0.09233,-0.02756 -0.188792,-0.07855 v 0.644923 H 40.670819 V 22.70317 h 0.496095 v 0.161231 q 0.114378,-0.09095 0.232889,-0.147451 0.11989,-0.0565 0.275609,-0.0565 0.289388,0 0.449241,0.212218 0.161231,0.212219 0.161231,0.582912 z m -0.511253,0.0096 q 0,-0.225999 -0.07717,-0.327974 -0.07717,-0.101975 -0.243913,-0.101975 -0.07028,0 -0.144695,0.02205 -0.07441,0.02067 -0.141938,0.06063 v 0.778593 q 0.04961,0.01929 0.106109,0.02481 0.0565,0.0055 0.111622,0.0055 0.19706,0 0.293523,-0.114377 0.09646,-0.115756 0.09646,-0.347267 z m 2.423976,0.785484 h -0.498852 v -0.76752 q 0,-0.09371 -0.0096,-0.186036 -0.0096,-0.09371 -0.03307,-0.137804 -0.02756,-0.05099 -0.0813,-0.07441 -0.05237,-0.02343 -0.147451,-0.02343 -0.06752,0 -0.137804,0.02205 -0.0689,0.02205 -0.150207,0.07028 v 1.096921 h -0.496095 v -2.144233 h 0.496095 v 0.767569 q 0.132292,-0.103353 0.25356,-0.158475 0.122646,-0.05512 0.271474,-0.05512 0.250804,0 0.391364,0.146072 0.141939,0.146072 0.141939,0.436839 z m 2.038124,-0.773082 q 0,0.381718 -0.223242,0.602205 -0.221865,0.219109 -0.624253,0.219109 -0.402389,0 -0.625632,-0.219109 -0.221864,-0.220487 -0.221864,-0.602205 0,-0.384473 0.223242,-0.603582 0.224621,-0.219109 0.624254,-0.219109 0.405144,0 0.625631,0.220487 0.221864,0.220487 0.221864,0.602204 z m -0.610472,0.376206 q 0.04823,-0.05926 0.07166,-0.141938 0.02481,-0.08406 0.02481,-0.231511 0,-0.136427 -0.02481,-0.228755 -0.02481,-0.09233 -0.0689,-0.147451 -0.0441,-0.0565 -0.106109,-0.07993 -0.06201,-0.02343 -0.13367,-0.02343 -0.07166,0 -0.128158,0.01929 -0.05512,0.01929 -0.10611,0.07717 -0.04548,0.05374 -0.07304,0.14745 -0.02618,0.09371 -0.02618,0.235646 0,0.126779 0.02343,0.220486 0.02343,0.09233 0.0689,0.148829 0.0441,0.05374 0.104731,0.07855 0.06201,0.02481 0.140561,0.02481 0.06752,0 0.128158,-0.02205 0.06201,-0.02343 0.104731,-0.07717 z m 2.520438,0.396876 H 47.64785 v -0.76752 q 0,-0.09371 -0.0096,-0.186036 -0.0096,-0.09371 -0.03307,-0.137804 -0.02756,-0.05099 -0.08131,-0.07441 -0.05237,-0.02343 -0.14745,-0.02343 -0.06752,0 -0.137804,0.02205 -0.0689,0.02205 -0.150207,0.07028 v 1.096921 H 46.59227 V 22.70318 h 0.496095 v 0.170877 q 0.132292,-0.103353 0.25356,-0.158475 0.122645,-0.05512 0.271474,-0.05512 0.250804,0 0.391364,0.146072 0.141938,0.146072 0.141938,0.436839 z m 1.1548,-0.547083 0.352779,-1.000458 h 0.509875 l -0.859898,2.115294 h -0.537436 l 0.245291,-0.578777 -0.602204,-1.536517 h 0.5209 z"
       id="text50"
       aria-label="Polyphony" />
    <path
       style="font-weight:bold;font-size:2.82223px;-inkscape-font-specification:'sans-serif Bold';fill:#000000;stroke-width:4.087"
       d="m 35.58447,38.721508 q 0,0.137804 -0.04823,0.270096 -0.04823,0.130914 -0.137805,0.220487 -0.122645,0.121267 -0.27423,0.183279 -0.150207,0.06201 -0.374828,0.06201 h -0.329352 v 0.66835 h -0.529168 v -2.051904 h 0.870923 q 0.195682,0 0.329352,0.03445 0.135048,0.03307 0.238401,0.100597 0.124024,0.0813 0.188792,0.208084 0.06615,0.12678 0.06615,0.304548 z m -0.547083,0.0124 q 0,-0.08682 -0.04685,-0.148829 -0.04685,-0.06339 -0.108865,-0.08819 -0.08268,-0.03307 -0.161231,-0.03583 -0.07855,-0.0041 -0.209463,-0.0041 h -0.09095 v 0.614606 h 0.151585 q 0.135048,0 0.221865,-0.01654 0.08819,-0.01654 0.14745,-0.06615 0.05099,-0.0441 0.07304,-0.104731 0.02343,-0.06201 0.02343,-0.150207 z m 2.476342,0.618741 q 0,0.381717 -0.223243,0.602204 -0.221865,0.219109 -0.624253,0.219109 -0.402388,0 -0.625631,-0.219109 -0.221865,-0.220487 -0.221865,-0.602204 0,-0.384474 0.223243,-0.603583 0.224621,-0.219108 0.624253,-0.219108 0.405144,0 0.625631,0.220486 0.221865,0.220487 0.221865,0.602205 z m -0.610473,0.376205 q 0.04823,-0.05926 0.07166,-0.141938 0.02481,-0.08406 0.02481,-0.231511 0,-0.136426 -0.02481,-0.228755 -0.0248,-0.09233 -0.0689,-0.147451 -0.0441,-0.0565 -0.106109,-0.07993 -0.06201,-0.02343 -0.13367,-0.02343 -0.07166,0 -0.128158,0.01929 -0.05512,0.01929 -0.106109,0.07717 -0.04548,0.05374 -0.07304,0.147451 -0.02618,0.09371 -0.02618,0.235645 0,0.12678 0.02343,0.220487 0.02343,0.09233 0.0689,0.148828 0.0441,0.05374 0.104731,0.07855 0.06201,0.0248 0.14056,0.0248 0.06752,0 0.128158,-0.02205 0.06201,-0.02343 0.104731,-0.07717 z m 1.462103,0.396876 h -0.496095 v -2.144233 h 0.496095 z m 1.167202,-0.547082 0.352778,-1.000459 h 0.509876 l -0.859898,2.115295 H 38.99788 l 0.245292,-0.578778 -0.602205,-1.536517 h 0.5209 z M 42.285888,39.3306 q 0,0.191548 -0.05926,0.348645 -0.05788,0.157097 -0.152962,0.259072 -0.09922,0.107487 -0.224621,0.162609 -0.125402,0.05512 -0.268718,0.05512 -0.132292,0 -0.224621,-0.02894 -0.09233,-0.02756 -0.188792,-0.07855 v 0.644924 h -0.496095 v -2.115295 h 0.496095 v 0.161231 q 0.114378,-0.09095 0.232889,-0.14745 0.11989,-0.0565 0.275609,-0.0565 0.289388,0 0.449241,0.212218 0.161231,0.212219 0.161231,0.582912 z m -0.511253,0.0096 q 0,-0.225998 -0.07717,-0.327974 -0.07717,-0.101975 -0.243913,-0.101975 -0.07028,0 -0.144695,0.02205 -0.07441,0.02067 -0.141938,0.06063 v 0.778594 q 0.04961,0.01929 0.106109,0.0248 0.0565,0.0055 0.111622,0.0055 0.19706,0 0.293523,-0.114378 0.09646,-0.115755 0.09646,-0.347267 z m 2.423976,0.785484 h -0.498852 v -0.767569 q 0,-0.09371 -0.0096,-0.186036 -0.0096,-0.09371 -0.03307,-0.137804 -0.02756,-0.05099 -0.0813,-0.07441 -0.05237,-0.02343 -0.147451,-0.02343 -0.06752,0 -0.137804,0.02205 -0.0689,0.02205 -0.150207,0.07028 v 1.096921 h -0.496095 v -2.144233 h 0.496095 v 0.767569 q 0.132292,-0.103353 0.25356,-0.158474 0.122646,-0.05512 0.271474,-0.05512 0.250804,0 0.391364,0.146072 0.141939,0.146073 0.141939,0.43684 z m 2.038124,-0.773081 q 0,0.381717 -0.223242,0.602204 -0.221865,0.219109 -0.624253,0.219109 -0.402389,0 -0.625632,-0.219109 -0.221864,-0.220487 -0.221864,-0.602204 0,-0.384474 0.223242,-0.603583 0.224621,-0.219108 0.624254,-0.219108 0.405144,0 0.625631,0.220486 0.221864,0.220487 0.221864,0.602205 z m -0.610472,0.376205 q 0.04823,-0.05926 0.07166,-0.141938 0.02481,-0.08406 0.02481,-0.231511 0,-0.136426 -0.02481,-0.228755 -0.02481,-0.09233 -0.0689,-0.147451 -0.0441,-0.0565 -0.106109,-0.07993 -0.06201,-0.02343 -0.13367,-0.02343 -0.07166,0 -0.128158,0.01929 -0.05512,0.01929 -0.10611,0.07717 -0.04548,0.05374 -0.07304,0.147451 -0.02618,0.09371 -0.02618,0.235645 0,0.12678 0.02343,0.220487 0.02343,0.09233 0.0689,0.148828 0.0441,0.05374 0.104731,0.07855 0.06201,0.0248 0.140561,0.0248 0.06752,0 0.128158,-0.02205 0.06201,-0.02343 0.104731,-0.07717 z m 2.520438,0.396876 H 47.64785 v -0.767569 q 0,-0.09371 -0.0096,-0.186036 -0.0096,-0.09371 -0.03307,-0.137804 -0.02756,-0.05099 -0.08131,-0.07441 -0.05237,-0.02343 -0.14745,-0.02343 -0.06752,0 -0.137804,0.02205 -0.0689,0.02205 -0.150207,0.07028 v 1.096921 H 46.59227 v -1.547541 h 0.496095 v 0.170877 q 0.132292,-0.103353 0.25356,-0.158474 0.122645,-0.05512 0.271474,-0.05512 0.250804,0 0.391364,0.146072 0.141938,0.146073 0.141938,0.43684 z m 1.1548,-0.547082 0.352779,-1.000459 h 0.509875 l -0.859898,2.115295 h -0.537436 l 0.245291,-0.578778 -0.602204,-1.536517 h 0.5209 z"
       id="text51"
       aria-label="Polyphony" />
    <path
       style="font-weight:bold;font-size:2.82223px;-inkscape-font-specification:'sans-serif Bold';fill:#000000;stroke-width:4.087"
       d="m 35.58447,56.184019 q 0,0.137804 -0.04823,0.270096 -0.04823,0.130914 -0.137805,0.220487 -0.122645,0.121267 -0.27423,0.183279 -0.150207,0.06201 -0.374828,0.06201 h -0.329352 v 0.66835 h -0.529168 v -2.051904 h 0.870923 q 0.195682,0 0.329352,0.03445 0.135048,0.03307 0.238401,0.100597 0.124024,0.0813 0.188792,0.208084 0.06615,0.12678 0.06615,0.304548 z m -0.547083,0.0124 q 0,-0.08682 -0.04685,-0.148829 -0.04685,-0.06339 -0.108865,-0.08819 -0.08268,-0.03307 -0.161231,-0.03583 -0.07855,-0.0041 -0.209463,-0.0041 h -0.09095 v 0.614606 h 0.151585 q 0.135048,0 0.221865,-0.01654 0.08819,-0.01654 0.14745,-0.06615 0.05099,-0.0441 0.07304,-0.104731 0.02343,-0.06201 0.02343,-0.150207 z m 2.476342,0.618741 q 0,0.381717 -0.223243,0.602204 -0.221865,0.219109 -0.624253,0.219109 -0.402388,0 -0.625631,-0.219109 -0.221865,-0.220487 -0.221865,-0.602204 0,-0.384474 0.223243,-0.603583 0.224621,-0.219108 0.624253,-0.219108 0.405144,0 0.625631,0.220486 0.221865,0.220487 0.221865,0.602205 z m -0.610473,0.376205 q 0.04823,-0.05926 0.07166,-0.141938 0.02481,-0.08406 0.02481,-0.231511 0,-0.136426 -0.02481,-0.228755 -0.0248,-0.09233 -0.0689,-0.147451 -0.0441,-0.0565 -0.106109,-0.07993 -0.06201,-0.02343 -0.13367,-0.02343 -0.07166,0 -0.128158,0.01929 -0.05512,0.01929 -0.106109,0.07717 -0.04548,0.05374 -0.07304,0.147451 -0.02618,0.09371 -0.02618,0.235645 0,0.12678 0.02343,0.220487 0.02343,0.09233 0.0689,0.148828 0.0441,0.05374 0.104731,0.07855 0.06201,0.0248 0.14056,0.0248 0.06752,0 0.128158,-0.02205 0.06201,-0.02343 0.104731,-0.07717 z m 1.462103,0.396876 h -0.496095 v -2.144233 h 0.496095 z m 1.167202,-0.547082 0.352778,-1.000459 h 0.509876 l -0.859898,2.115295 H 38.99788 L 39.243172,57.577217 38.640967,56.0407 h 0.5209 z m 2.753327,-0.248048 q 0,0.191548 -0.05926,0.348645 -0.05788,0.157097 -0.152962,0.259072 -0.09922,0.107487 -0.224621,0.162609 -0.125402,0.05512 -0.268718,0.05512 -0.132292,0 -0.224621,-0.02894 -0.09233,-0.02756 -0.188792,-0.07855 v 0.644924 h -0.496095 v -2.115295 h 0.496095 v 0.161231 q 0.114378,-0.09095 0.232889,-0.14745 0.11989,-0.0565 0.275609,-0.0565 0.289388,0 0.449241,0.212218 0.161231,0.212219 0.161231,0.582912 z m -0.511253,0.0096 q 0,-0.225998 -0.07717,-0.327974 -0.07717,-0.101975 -0.243913,-0.101975 -0.07028,0 -0.144695,0.02205 -0.07441,0.02067 -0.141938,0.06063 v 0.778594 q 0.04961,0.01929 0.106109,0.0248 0.0565,0.0055 0.111622,0.0055 0.19706,0 0.293523,-0.114378 0.09646,-0.115755 0.09646,-0.347267 z m 2.423976,0.785484 h -0.498852 v -0.767569 q 0,-0.09371 -0.0096,-0.186036 -0.0096,-0.09371 -0.03307,-0.137804 -0.02756,-0.05099 -0.0813,-0.07441 -0.05237,-0.02343 -0.147451,-0.02343 -0.06752,0 -0.137804,0.02205 -0.0689,0.02205 -0.150207,0.07028 v 1.096921 h -0.496095 v -2.144233 h 0.496095 v 0.767569 q 0.132292,-0.103353 0.25356,-0.158474 0.122646,-0.05512 0.271474,-0.05512 0.250804,0 0.391364,0.146072 0.141939,0.146073 0.141939,0.43684 z m 2.038124,-0.773081 q 0,0.381717 -0.223242,0.602204 -0.221865,0.219109 -0.624253,0.219109 -0.402389,0 -0.625632,-0.219109 -0.221864,-0.220487 -0.221864,-0.602204 0,-0.384474 0.223242,-0.603583 0.224621,-0.219108 0.624254,-0.219108 0.405144,0 0.625631,0.220486 0.221864,0.220487 0.221864,0.602205 z m -0.610472,0.376205 q 0.04823,-0.05926 0.07166,-0.141938 0.02481,-0.08406 0.02481,-0.231511 0,-0.136426 -0.02481,-0.228755 -0.02481,-0.09233 -0.0689,-0.147451 -0.0441,-0.0565 -0.106109,-0.07993 -0.06201,-0.02343 -0.13367,-0.02343 -0.07166,0 -0.128158,0.01929 -0.05512,0.01929 -0.10611,0.07717 -0.04548,0.05374 -0.07304,0.147451 -0.02618,0.09371 -0.02618,0.235645 0,0.12678 0.02343,0.220487 0.02343,0.09233 0.0689,0.148828 0.0441,0.05374 0.104731,0.07855 0.06201,0.0248 0.140561,0.0248 0.06752,0 0.128158,-0.02205 0.06201,-0.02343 0.104731,-0.07717 z m 2.520438,0.396876 H 47.64785 v -0.767569 q 0,-0.09371 -0.0096,-0.186036 -0.0096,-0.09371 -0.03307,-0.137804 -0.02756,-0.05099 -0.08131,-0.07441 -0.05237,-0.02343 -0.14745,-0.02343 -0.06752,0 -0.137804,0.02205 -0.0689,0.02205 -0.150207,0.07028 v 1.096921 H 46.59227 v -1.547541 h 0.496095 v 0.170877 q 0.132292,-0.103353 0.25356,-0.158474 0.122645,-0.05512 0.271474,-0.05512 0.250804,0 0.391364,0.146072 0.141938,0.146073 0.141938,0.43684 z m 1.1548,-0.547082 0.352779,-1.000459 h 0.509875 l -0.859898,2.115295 h -0.537436 l 0.245291,-0.578778 -0.602204,-1.536517 h 0.5209 z"
       id="path1"
       aria-label="Polyphony" />
    <path
       style="font-weight:bold;font-size:2.82223px;-inkscape-font-specification:'sans-serif Bold';fill:#ff0000;stroke-width:4.087"
       d="m 110.30698,24.614136 h -0.64905 l -0.61323,-0.821313 -0.12403,0.150206 v 0.671107 h -0.52917 v -2.051905 h 0.52917 v 0.9288 l 0.73312,-0.9288 h 0.61323 l -0.80202,0.949471 z m 2.07533,-0.117134 q -0.1378,0.05374 -0.36518,0.107487 -0.22737,0.05237 -0.45337,0.05237 -0.52366,0 -0.81994,-0.283877 -0.29628,-0.285254 -0.29628,-0.786862 0,-0.47818 0.29904,-0.770325 0.29903,-0.293523 0.83371,-0.293523 0.20258,0 0.38586,0.03721 0.18328,0.03583 0.4079,0.144694 v 0.480937 h -0.0593 q -0.0386,-0.02894 -0.113,-0.0813 -0.0744,-0.05374 -0.14332,-0.09095 -0.0799,-0.0441 -0.18741,-0.07579 -0.10611,-0.0317 -0.226,-0.0317 -0.14056,0 -0.25494,0.04134 -0.11437,0.04134 -0.20532,0.12678 -0.0868,0.08268 -0.13781,0.21084 -0.0496,0.12678 -0.0496,0.293523 0,0.340377 0.18053,0.5209 0.18052,0.180524 0.5333,0.180524 0.0303,0 0.0661,-0.0014 0.0372,-0.0014 0.0675,-0.0041 v -0.402388 h -0.40928 v -0.38723 h 0.94671 z"
       id="text31"
       aria-label="KG" />
    <path
       style="font-weight:bold;font-size:2.82223px;-inkscape-font-specification:'sans-serif Bold';fill:#ff0000;stroke-width:4.087"
       d="m 110.30698,40.489151 h -0.64905 l -0.61323,-0.821313 -0.12403,0.150207 v 0.671106 h -0.52917 v -2.051905 h 0.52917 v 0.928801 l 0.73312,-0.928801 h 0.61323 l -0.80202,0.949471 z m 2.07533,-0.117134 q -0.1378,0.05374 -0.36518,0.107488 -0.22737,0.05236 -0.45337,0.05236 -0.52366,0 -0.81994,-0.283876 -0.29628,-0.285255 -0.29628,-0.786862 0,-0.478181 0.29904,-0.770326 0.29903,-0.293523 0.83371,-0.293523 0.20258,0 0.38586,0.03721 0.18328,0.03583 0.4079,0.144695 v 0.480936 h -0.0593 q -0.0386,-0.02894 -0.113,-0.0813 -0.0744,-0.05374 -0.14332,-0.09095 -0.0799,-0.0441 -0.18741,-0.07579 -0.10611,-0.03169 -0.226,-0.03169 -0.14056,0 -0.25494,0.04134 -0.11437,0.04134 -0.20532,0.12678 -0.0868,0.08268 -0.13781,0.21084 -0.0496,0.12678 -0.0496,0.293523 0,0.340377 0.18053,0.5209 0.18052,0.180524 0.5333,0.180524 0.0303,0 0.0661,-0.0014 0.0372,-0.0014 0.0675,-0.0041 v -0.402389 h -0.40928 v -0.387229 h 0.94671 z"
       id="text32"
       aria-label="KG" />
    <path
       style="font-weight:bold;font-size:2.82223px;-inkscape-font-specification:'sans-serif Bold';fill:#ff0000;stroke-width:4.087"
       d="m 80.673644,57.422501 h -0.649057 l -0.613229,-0.821313 -0.124024,0.150206 v 0.671107 h -0.529168 v -2.051905 h 0.529168 v 0.9288 l 0.733118,-0.9288 h 0.613229 l -0.80202,0.949471 z m 2.075332,-0.117134 q -0.137805,0.05374 -0.365182,0.107487 -0.227376,0.05237 -0.453375,0.05237 -0.523656,0 -0.819935,-0.283877 -0.296279,-0.285254 -0.296279,-0.786862 0,-0.47818 0.299035,-0.770325 0.299035,-0.293523 0.833715,-0.293523 0.202572,0 0.385852,0.03721 0.183279,0.03583 0.4079,0.144694 v 0.480937 h -0.05926 q -0.03859,-0.02894 -0.113,-0.0813 -0.07441,-0.05374 -0.143316,-0.09095 -0.07993,-0.0441 -0.187414,-0.07579 -0.106109,-0.03169 -0.225999,-0.03169 -0.14056,0 -0.254938,0.04134 -0.114377,0.04134 -0.205328,0.12678 -0.08682,0.08268 -0.137804,0.21084 -0.04961,0.12678 -0.04961,0.293523 0,0.340376 0.180524,0.5209 0.180523,0.180523 0.533302,0.180523 0.03032,0 0.06615,-0.0014 0.03721,-0.0014 0.06752,-0.0041 v -0.402388 h -0.409278 v -0.38723 h 0.946715 z"
       id="text33"
       aria-label="KG" />
  </g>
  <g
     inkscape:groupmode="layer"
     id="layer2"
     inkscape:label="components"
     style="display:none"
     sodipodi:insensitive="true">
    <circle
       style="fill:#0000ff;fill-opacity:1;stroke-width:0.313059"
       id="out1"
       cx="57.898087"
       cy="31.668579"
       inkscape:label="out_k"
       r="4" />
    <circle
       style="fill:#0000ff;fill-opacity:1;stroke-width:0.313;stroke-dasharray:none"
       id="ellipse5"
       cx="69.975899"
       cy="31.668579"
       inkscape:label="out_x"
       r="4" />
    <circle
       style="fill:#0000ff;fill-opacity:1;stroke-width:0.313059"
       id="ellipse6"
       cx="82.053711"
       cy="31.668579"
       inkscape:label="out_y"
       r="4" />
    <circle
       style="fill:#0000ff;fill-opacity:1;stroke-width:0.313059"
       id="ellipse7"
       cx="94.131516"
       cy="31.668579"
       inkscape:label="out_z"
       r="4" />
    <circle
       style="fill:#ff00ff;fill-opacity:1;stroke-width:4.08699"
       id="path8"
       cx="5.2780962"
       cy="29.657055"
       inkscape:label="led1"
       r="2" />
    <circle
       style="fill:#ff00ff;fill-opacity:1;stroke-width:4.08699"
       id="circle8"
       cx="11.457265"
       cy="29.657055"
       inkscape:label="led2"
       r="2" />
    <circle
       style="fill:#ff00ff;fill-opacity:1;stroke-width:4.08699"
       id="circle9"
       cx="17.636419"
       cy="29.657055"
       inkscape:label="led3"
       r="2" />
    <circle
       style="fill:#ff00ff;fill-opacity:1;stroke-width:4.08699"
       id="circle10"
       cx="23.81558"
       cy="29.657055"
       inkscape:label="led4"
       r="2" />
    <circle
       style="fill:#ff00ff;fill-opacity:1;stroke-width:4.08699"
       id="circle11"
       cx="5.2780962"
       cy="35.836216"
       inkscape:label="led5"
       r="2" />
    <circle
       style="fill:#ff00ff;fill-opacity:1;stroke-width:4.08699"
       id="circle12"
       cx="11.457265"
       cy="35.836216"
       inkscape:label="led6"
       r="2" />
    <circle
       style="fill:#ff00ff;fill-opacity:1;stroke-width:4.08699"
       id="circle13"
       cx="17.636419"
       cy="35.836216"
       inkscape:label="led7"
       r="2" />
    <circle
       style="fill:#ff00ff;fill-opacity:1;stroke-width:4.08699"
       id="circle14"
       cx="23.81558"
       cy="35.836216"
       inkscape:label="led8"
       r="2" />
    <circle
       style="fill:#ff00ff;fill-opacity:1;stroke-width:4.08699"
       id="circle15"
       cx="5.2780962"
       cy="42.015377"
       inkscape:label="led9"
       r="2" />
    <circle
       style="fill:#ff00ff;fill-opacity:1;stroke-width:4.08699"
       id="circle16"
       cx="11.457265"
       cy="42.015377"
       inkscape:label="led10"
       r="2" />
    <circle
       style="fill:#ff00ff;fill-opacity:1;stroke-width:4.08699"
       id="circle17"
       cx="17.636419"
       cy="42.015377"
       inkscape:label="led11"
       r="2" />
    <circle
       style="fill:#ff00ff;fill-opacity:1;stroke-width:4.08699"
       id="circle18"
       cx="23.81558"
       cy="42.015377"
       inkscape:label="led12"
       r="2" />
    <circle
       style="fill:#ff00ff;fill-opacity:1;stroke-width:4.08699"
       id="circle19"
       cx="5.2780962"
       cy="48.194546"
       inkscape:label="led13"
       r="2" />
    <circle
       style="fill:#ff00ff;fill-opacity:1;stroke-width:4.08699"
       id="circle20"
       cx="11.457265"
       cy="48.194546"
       inkscape:label="led14"
       r="2" />
    <circle
       style="fill:#ff00ff;fill-opacity:1;stroke-width:4.08699"
       id="circle21"
       cx="17.636419"
       cy="48.194546"
       inkscape:label="led15"
       r="2" />
    <circle
       style="fill:#ff00ff;fill-opacity:1;stroke-width:4.08699"
       id="circle22"
       cx="23.81558"
       cy="48.194546"
       inkscape:label="led16"
       r="2" />
    <circle
       style="display:inline;fill:#ff0000;fill-opacity:1;stroke-width:0.313059"
       id="circle5"
       cx="7.5912213"
       cy="70.25074"
       inkscape:label="p_FilterType"
       r="4" />
    <circle
       style="display:inline;fill:#ff0000;fill-opacity:1;stroke-width:0.313059"
       id="circle1"
       cx="24.926094"
       cy="70.25074"
       inkscape:label="p_FilterNumber"
       r="4" />
    <circle
       style="fill:#0000ff;fill-opacity:1;stroke-width:0.313059"
       id="circle6"
       cx="57.898087"
       cy="47.543594"
       inkscape:label="out_pk"
       r="4" />
    <circle
       style="fill:#0000ff;fill-opacity:1;stroke-width:0.313;stroke-dasharray:none"
       id="circle7"
       cx="69.975899"
       cy="47.543594"
       inkscape:label="out_px"
       r="4" />
    <circle
       style="fill:#0000ff;fill-opacity:1;stroke-width:0.313059"
       id="circle23"
       cx="82.053711"
       cy="47.543594"
       inkscape:label="out_py"
       r="4" />
    <circle
       style="fill:#0000ff;fill-opacity:1;stroke-width:0.313059"
       id="circle24"
       cx="94.131516"
       cy="47.543594"
       inkscape:label="out_pz"
       r="4" />
    <circle
       style="fill:#0000ff;fill-opacity:1;stroke-width:0.313059"
       id="circle25"
       cx="57.612785"
       cy="81.129753"
       inkscape:label="out_s1"
       r="4" />
    <circle
       style="fill:#0000ff;fill-opacity:1;stroke-width:0.313;stroke-dasharray:none"
       id="circle26"
       cx="69.690598"
       cy="81.129753"
       inkscape:label="out_s2"
       r="4" />
    <circle
       style="fill:#0000ff;fill-opacity:1;stroke-width:0.313059"
       id="circle27"
       cx="81.76841"
       cy="81.129753"
       inkscape:label="out_p1"
       r="4" />
    <circle
       style="fill:#0000ff;fill-opacity:1;stroke-width:0.313059"
       id="circle28"
       cx="93.846214"
       cy="81.129753"
       inkscape:label="out_p2"
       r="4" />
    <circle
       style="fill:#0000ff;fill-opacity:1;stroke-width:0.313059"
       id="circle29"
       cx="57.612785"
       cy="64.94136"
       inkscape:label="out_fk"
       r="4" />
    <circle
       style="fill:#0000ff;fill-opacity:1;stroke-width:0.313;stroke-dasharray:none"
       id="circle30"
       cx="69.690598"
       cy="64.94136"
       inkscape:label="out_fg"
       r="4" />
    <circle
       style="fill:#0000ff;fill-opacity:1;stroke-width:0.313059"
       id="circle32"
       cx="109.19202"
       cy="64.725571"
       inkscape:label="out_breath"
       r="4" />
    <circle
       style="fill:#00ff00;fill-opacity:1;stroke-width:0.313059"
       id="circle48"
       cx="110.00033"
       cy="118.7006"
       inkscape:label="in_lights"
       r="4" />
    <circle
       style="display:inline;fill:#ff0000;fill-opacity:1;stroke-width:0.313059"
       id="circle49"
       cx="41.859444"
       cy="31.621536"
       inkscape:label="p_basepoly"
       r="4" />
    <circle
       style="display:inline;fill:#ff0000;fill-opacity:1;stroke-width:0.313059"
       id="circle50"
       cx="41.859444"
       cy="47.496552"
       inkscape:label="p_percpoly"
       r="4" />
    <circle
       style="fill:#0000ff;fill-opacity:1;stroke-width:0.313059"
       id="circle2"
       cx="109.98413"
       cy="32.239189"
       inkscape:label="out_kg_main"
       r="4" />
    <circle
       style="fill:#0000ff;fill-opacity:1;stroke-width:0.313;stroke-dasharray:none"
       id="circle3"
       cx="109.83538"
       cy="47.645527"
       inkscape:label="out_kg_perc"
       r="4" />
    <circle
       style="fill:#0000ff;fill-opacity:1;stroke-width:0.313059"
       id="circle4"
       cx="80.047066"
       cy="64.94136"
       inkscape:label="out_kg_func"
       r="4" />
    <circle
       style="display:inline;fill:#ff0000;fill-opacity:1;stroke-width:0.313059"
       id="circle31"
       cx="41.859444"
       cy="64.429901"
       inkscape:label="p_funcpoly"
       r="4" />
  </g>
</svg>
