<?xml version="1.0" encoding="UTF-8" standalone="no"?>
<!-- Created with Inkscape (http://www.inkscape.org/) -->

<svg
   width="50.799999mm"
   height="128.5mm"
   viewBox="0 0 50.799999 128.5"
   version="1.1"
   id="svg1"
   inkscape:version="1.3 (0e150ed, 2023-07-21)"
   sodipodi:docname="EScaler.svg"
   xmlns:inkscape="http://www.inkscape.org/namespaces/inkscape"
   xmlns:sodipodi="http://sodipodi.sourceforge.net/DTD/sodipodi-0.dtd"
   xmlns="http://www.w3.org/2000/svg"
   xmlns:svg="http://www.w3.org/2000/svg">
  <sodipodi:namedview
     id="namedview1"
     pagecolor="#ffffff"
     bordercolor="#000000"
     borderopacity="0.25"
     inkscape:showpageshadow="2"
     inkscape:pageopacity="0.0"
     inkscape:pagecheckerboard="0"
     inkscape:deskcolor="#d1d1d1"
     inkscape:document-units="mm"
     inkscape:zoom="0.92737795"
     inkscape:cx="98.12612"
     inkscape:cy="330.50171"
     inkscape:window-width="1552"
     inkscape:window-height="1146"
     inkscape:window-x="1583"
     inkscape:window-y="210"
     inkscape:window-maximized="0"
     inkscape:current-layer="layer1"
     showgrid="false"
     showguides="true"
     showborder="false">
    <inkscape:grid
       id="grid1"
       units="mm"
       originx="0"
       originy="0"
       spacingx="0.99999998"
       spacingy="1"
       empcolor="#0099e5"
       empopacity="0.30196078"
       color="#0099e5"
       opacity="0.14901961"
       empspacing="5"
       dotted="false"
       gridanglex="30"
       gridanglez="30"
       visible="false" />
  </sodipodi:namedview>
  <defs
     id="defs1" />
  <g
     inkscape:label="background"
     inkscape:groupmode="layer"
     id="layer1"
     style="display:inline;fill:#ffffff">
    <rect
       style="display:inline;fill:#ffffff;fill-opacity:1;stroke-width:4.08699"
       id="background"
       width="50.799999"
       height="128.5"
       x="2.0636746e-06"
       y="-5.5511151e-17"
       inkscape:label="background"
       sodipodi:insensitive="true" />
    <path
       style="font-weight:bold;font-size:4.23333px;-inkscape-font-specification:'sans-serif Bold';fill:#ff0000;stroke-width:4.087"
       d="M 14.460913,7.1325645 H 13.671297 V 5.0717102 L 13.10079,6.4090951 H 12.55302 L 11.982513,5.0717102 V 7.1325645 H 11.234239 V 4.0547188 h 0.921907 l 0.692463,1.5440905 0.690397,-1.5440905 h 0.921907 z M 17.491216,6.109372 h -1.703253 q 0.01654,0.2728514 0.206705,0.4175453 0.192236,0.1446939 0.564306,0.1446939 0.235645,0 0.45682,-0.084749 0.221174,-0.084749 0.349332,-0.1819009 h 0.08268 V 7.00234 q -0.252181,0.1012858 -0.475423,0.146761 -0.223242,0.045475 -0.494026,0.045475 -0.698665,0 -1.070735,-0.3141924 -0.37207,-0.3141925 -0.37207,-0.8950351 0,-0.5746414 0.3514,-0.9095044 0.353466,-0.3369301 0.967382,-0.3369301 0.566373,0 0.851627,0.2873207 0.285253,0.2852537 0.285253,0.8226881 z M 16.75121,5.6732233 Q 16.745009,5.439646 16.635455,5.3218239 16.525901,5.2040017 16.294391,5.2040017 q -0.214974,0 -0.353466,0.111621 -0.138493,0.111621 -0.15503,0.3576006 z m 2.749185,1.4386707 q -0.11989,0.031006 -0.254248,0.047542 -0.134359,0.018603 -0.328662,0.018603 -0.434082,0 -0.646988,-0.1756998 -0.21084,-0.1756997 -0.21084,-0.6015131 V 5.3156227 H 17.753733 V 4.8112612 h 0.305924 V 4.1477363 h 0.74414 v 0.6635249 h 0.696598 v 0.5043615 h -0.696598 v 0.8226881 q 0,0.1219563 0.0021,0.2129067 0.0021,0.09095 0.03307,0.1632974 0.02894,0.072347 0.101286,0.1157551 0.07441,0.041341 0.214973,0.041341 0.05788,0 0.150895,-0.024805 0.09509,-0.024805 0.132292,-0.045475 h 0.06201 z m 1.850014,-0.5849767 v -0.483691 q -0.150895,0.012402 -0.326595,0.03514 -0.1757,0.020671 -0.26665,0.049609 -0.111621,0.03514 -0.171566,0.1033528 -0.05788,0.066146 -0.05788,0.1756997 0,0.072347 0.0124,0.1178222 0.0124,0.045475 0.06201,0.086816 0.04754,0.041341 0.113688,0.062012 0.06614,0.018603 0.206705,0.018603 0.111621,0 0.225309,-0.045475 0.115755,-0.045475 0.202572,-0.1198892 z m 0,0.3596676 q -0.05994,0.045475 -0.148828,0.109554 -0.08888,0.064079 -0.167432,0.1012857 -0.109554,0.049609 -0.227376,0.072347 -0.117822,0.024805 -0.258382,0.024805 -0.330729,0 -0.553971,-0.2046385 -0.223242,-0.2046385 -0.223242,-0.522965 0,-0.2542479 0.113688,-0.4154782 0.113688,-0.1612303 0.322461,-0.2542478 0.206706,-0.093017 0.51263,-0.1322916 0.305924,-0.039274 0.634586,-0.057878 v -0.012402 q 0,-0.1922362 -0.157096,-0.2645831 -0.157097,-0.074414 -0.463021,-0.074414 -0.183968,0 -0.39274,0.066146 -0.208773,0.064079 -0.299723,0.099219 h -0.06821 v -0.560172 q 0.117822,-0.031006 0.382405,-0.072347 0.26665,-0.043408 0.5333,-0.043408 0.634586,0 0.915706,0.1963703 0.283186,0.1943032 0.283186,0.6118484 v 1.5792304 h -0.737938 z m 6.137088,0.2459796 H 26.697882 V 5.0717102 l -0.570507,1.3373849 h -0.54777 L 25.009098,5.0717102 V 7.1325645 H 24.260824 V 4.0547188 h 0.921906 l 0.692464,1.5440905 0.690396,-1.5440905 h 0.921907 z m 3.117121,-1.1596181 q 0,0.5725744 -0.334863,0.9033033 -0.332796,0.3286618 -0.936376,0.3286618 -0.603581,0 -0.938444,-0.3286618 -0.332796,-0.3307289 -0.332796,-0.9033033 0,-0.5767085 0.334863,-0.9053704 0.33693,-0.3286618 0.936377,-0.3286618 0.607714,0 0.938443,0.3307289 0.332796,0.3307289 0.332796,0.9033033 z m -0.915706,0.5643061 q 0.07235,-0.088883 0.107487,-0.2129067 0.03721,-0.1260904 0.03721,-0.3472653 0,-0.2046385 -0.03721,-0.3431312 -0.03721,-0.1384928 -0.103353,-0.221175 -0.06615,-0.084749 -0.159163,-0.1198892 -0.09302,-0.03514 -0.200504,-0.03514 -0.107487,0 -0.192237,0.028939 -0.08268,0.028939 -0.159163,0.1157551 -0.06821,0.080615 -0.109554,0.221175 -0.03927,0.1405598 -0.03927,0.3534665 0,0.1901691 0.03514,0.3307289 0.03514,0.1384927 0.103353,0.223242 0.06615,0.080615 0.157096,0.1178221 0.09302,0.037207 0.21084,0.037207 0.101285,0 0.192236,-0.033073 0.09302,-0.03514 0.157096,-0.1157552 z M 32.8205,5.5202612 h -0.06615 q -0.04754,-0.016536 -0.152962,-0.024805 -0.10542,-0.00827 -0.1757,-0.00827 -0.159163,0 -0.281119,0.020671 -0.121957,0.020671 -0.262516,0.07028 v 1.5544257 h -0.74414 V 4.8112612 h 0.74414 v 0.3410641 q 0.245979,-0.2108396 0.42788,-0.2790525 0.181901,-0.07028 0.334863,-0.07028 0.03927,0 0.08888,0.00207 0.04961,0.00207 0.08682,0.0062 z m 2.844269,0.4196123 q 0,0.2873207 -0.08888,0.522965 -0.08682,0.2356444 -0.229444,0.3886065 -0.148828,0.1612303 -0.33693,0.2439125 -0.188102,0.082682 -0.403075,0.082682 -0.198438,0 -0.33693,-0.043408 -0.138493,-0.041341 -0.283187,-0.1178222 v 0.967382 H 33.24218 V 4.8112612 h 0.74414 v 0.2418455 q 0.171566,-0.1364257 0.349332,-0.221175 0.179834,-0.084749 0.413411,-0.084749 0.434082,0 0.673861,0.3183266 0.241845,0.3183265 0.241845,0.8743642 z m -0.766878,0.014469 q 0,-0.3389971 -0.115755,-0.4919592 -0.115755,-0.1529622 -0.365869,-0.1529622 -0.105419,0 -0.21704,0.033073 -0.111621,0.031006 -0.212907,0.09095 v 1.1678864 q 0.07441,0.028939 0.159163,0.037207 0.08475,0.00827 0.167432,0.00827 0.295589,0 0.440283,-0.1715656 0.144693,-0.1736327 0.144693,-0.520898 z m 3.635951,1.1782216 H 37.785568 V 5.9812146 q 0,-0.1405598 -0.01447,-0.2790525 -0.01447,-0.1405598 -0.04961,-0.2067056 -0.04134,-0.076481 -0.121957,-0.111621 -0.07855,-0.03514 -0.221175,-0.03514 -0.101285,0 -0.206705,0.033073 -0.103353,0.033073 -0.225309,0.1054198 v 1.6453762 h -0.74414 V 3.9162261 h 0.74414 V 5.067576 q 0.198437,-0.1550291 0.380338,-0.2377113 0.183968,-0.082682 0.40721,-0.082682 0.376204,0 0.587044,0.2191079 0.212906,0.2191079 0.212906,0.6552566 z"
       id="text4"
       inkscape:label="text4"
       aria-label="Meta Morph"
       sodipodi:insensitive="true" />
    <rect
       style="fill:#000000;fill-opacity:0.72;stroke-width:4.08699"
       id="rect23"
       width="48.786743"
       height="13.123919"
       x="0.8559078"
       y="110.98271"
       rx="2"
       ry="2"
       sodipodi:insensitive="true" />
    <path
       style="font-weight:bold;font-size:4.23333px;-inkscape-font-specification:'sans-serif Bold';fill:#000000;stroke-width:4.087"
       d="m 20.260128,11.30063 q 0,0.454752 -0.386539,0.740006 -0.384472,0.283187 -1.04593,0.283187 -0.382405,0 -0.667659,-0.06615 -0.283187,-0.06821 -0.531233,-0.171566 v -0.737939 h 0.08682 q 0.24598,0.196371 0.549837,0.30179 0.305924,0.10542 0.587044,0.10542 0.07235,0 0.190169,-0.0124 0.117822,-0.0124 0.192236,-0.04134 0.09095,-0.03721 0.148828,-0.09302 0.05994,-0.05581 0.05994,-0.165364 0,-0.101286 -0.08682,-0.173633 -0.08475,-0.07441 -0.250114,-0.113688 -0.173632,-0.04134 -0.367935,-0.07648 -0.192237,-0.03721 -0.361735,-0.09302 -0.388607,-0.126091 -0.560172,-0.341065 -0.169499,-0.21704 -0.169499,-0.537434 0,-0.4299476 0.384473,-0.7007318 0.386539,-0.2728514 0.992186,-0.2728514 0.303857,0 0.599446,0.059945 0.297656,0.057878 0.514697,0.146761 v 0.7089992 h -0.08475 Q 19.867388,9.9012334 19.596604,9.8020148 19.327886,9.700729 19.046767,9.700729 q -0.09922,0 -0.198438,0.014469 -0.09715,0.012402 -0.188102,0.049609 -0.08061,0.031006 -0.138492,0.095085 -0.05788,0.062012 -0.05788,0.142627 0,0.121956 0.09302,0.188102 0.09302,0.06408 0.351399,0.117822 0.169499,0.03514 0.324528,0.06821 0.157096,0.03307 0.33693,0.09095 0.353466,0.115755 0.520898,0.316259 0.169498,0.198437 0.169498,0.516764 z m 1.711522,1.029394 q -0.303857,0 -0.556038,-0.07235 -0.250113,-0.07235 -0.436148,-0.223242 -0.183968,-0.150895 -0.285254,-0.380338 -0.101286,-0.229444 -0.101286,-0.537435 0,-0.324528 0.107487,-0.560172 0.109554,-0.235644 0.303857,-0.390673 0.188102,-0.146761 0.434082,-0.2149742 0.24598,-0.068213 0.510563,-0.068213 0.237711,0 0.438215,0.051676 0.200505,0.051676 0.374138,0.1343582 v 0.634587 h -0.10542 q -0.04341,-0.03721 -0.10542,-0.08682 -0.05995,-0.04961 -0.148828,-0.09715 -0.08475,-0.04547 -0.186035,-0.07441 -0.101286,-0.03101 -0.235644,-0.03101 -0.297656,0 -0.458887,0.190169 -0.159163,0.188102 -0.159163,0.51263 0,0.334863 0.163297,0.508495 0.165365,0.173632 0.467155,0.173632 0.14056,0 0.252181,-0.03101 0.113688,-0.03307 0.188102,-0.07648 0.07028,-0.04134 0.124023,-0.08682 0.05374,-0.04548 0.09922,-0.08888 h 0.10542 v 0.634586 q -0.1757,0.08268 -0.367936,0.130225 -0.190169,0.04961 -0.42168,0.04961 z m 2.687173,-0.667659 v -0.483691 q -0.150895,0.0124 -0.326595,0.03514 -0.1757,0.02067 -0.26665,0.04961 -0.111621,0.03514 -0.171566,0.103353 -0.05788,0.06615 -0.05788,0.1757 0,0.07235 0.0124,0.117822 0.0124,0.04548 0.06201,0.08682 0.04754,0.04134 0.113688,0.06201 0.06615,0.0186 0.206705,0.0186 0.111621,0 0.225309,-0.04547 0.115755,-0.04547 0.202572,-0.119889 z m 0,0.359667 q -0.05995,0.04548 -0.148828,0.109554 -0.08888,0.06408 -0.167432,0.101286 -0.109554,0.04961 -0.227376,0.07235 -0.117822,0.02481 -0.258382,0.02481 -0.330729,0 -0.553971,-0.204639 -0.223242,-0.204638 -0.223242,-0.522965 0,-0.254248 0.113688,-0.415478 0.113688,-0.16123 0.322461,-0.254248 0.206705,-0.09302 0.51263,-0.132291 0.305924,-0.03927 0.634586,-0.05788 v -0.0124 q 0,-0.192236 -0.157096,-0.264583 -0.157097,-0.07441 -0.463021,-0.07441 -0.183968,0 -0.39274,0.06615 -0.208773,0.06408 -0.299724,0.09922 h -0.06821 v -0.56019 q 0.117822,-0.031006 0.382405,-0.072347 0.26665,-0.043408 0.5333,-0.043408 0.634586,0 0.915706,0.19637 0.283186,0.194303 0.283186,0.611849 v 1.57923 h -0.737938 z m 2.166273,0.24598 h -0.74414 V 9.0516736 h 0.74414 z m 2.988963,-1.023192 h -1.703253 q 0.01654,0.272851 0.206705,0.417545 0.192236,0.144694 0.564306,0.144694 0.235645,0 0.45682,-0.08475 0.221175,-0.08475 0.349332,-0.181901 h 0.08268 v 0.59738 q -0.252181,0.101285 -0.475423,0.14676 -0.223242,0.04548 -0.494026,0.04548 -0.698665,0 -1.070735,-0.314193 -0.37207,-0.314192 -0.37207,-0.895035 0,-0.574641 0.3514,-0.909504 0.353466,-0.3369303 0.967382,-0.3369303 0.566373,0 0.851627,0.2873203 0.285253,0.285254 0.285253,0.822689 z m -0.740005,-0.436149 q -0.0062,-0.233577 -0.115756,-0.3514 -0.109554,-0.117822 -0.341064,-0.117822 -0.214974,0 -0.353466,0.111621 -0.138493,0.111621 -0.155029,0.357601 z m 2.947621,-0.152962 h -0.06615 q -0.04754,-0.01654 -0.152962,-0.02481 -0.10542,-0.0083 -0.1757,-0.0083 -0.159163,0 -0.28112,0.02067 -0.121956,0.02067 -0.262516,0.07028 v 1.554426 h -0.74414 V 9.9467087 h 0.74414 v 0.3410643 q 0.24598,-0.21084 0.427881,-0.279053 0.181901,-0.07028 0.334863,-0.07028 0.03927,0 0.08888,0.00207 0.04961,0.00207 0.08682,0.0062 z"
       id="text1"
       aria-label="Scaler" />
    <path
       style="font-weight:bold;font-size:3.52778px;-inkscape-font-specification:'sans-serif Bold';fill:#000000;stroke-width:4.087"
       d="M 5.1261496,24.386274 H 4.5025869 v -0.959459 q 0,-0.117134 -0.012058,-0.232544 -0.012058,-0.117134 -0.041341,-0.172255 -0.034451,-0.06374 -0.1016304,-0.09302 -0.065457,-0.02928 -0.1843127,-0.02928 -0.084405,0 -0.1722549,0.02756 -0.086127,0.02756 -0.1877578,0.08785 v 1.371149 H 3.1831145 v -1.934422 h 0.6201176 v 0.213596 q 0.1653647,-0.129191 0.316949,-0.198093 0.1533068,-0.0689 0.3393421,-0.0689 0.3135039,0 0.4892039,0.18259 0.1774225,0.18259 0.1774225,0.546048 z m 2.042943,-1.779393 q 0,-0.09646 -0.039619,-0.165364 -0.039619,-0.0689 -0.1360814,-0.108521 -0.067179,-0.02756 -0.1567519,-0.03273 -0.089573,-0.0069 -0.2084284,-0.0069 H 6.388778 v 0.690743 h 0.2032608 q 0.1584745,0 0.2652725,-0.0155 0.106798,-0.0155 0.1791451,-0.07062 0.068902,-0.0534 0.099908,-0.117133 0.032728,-0.06546 0.032728,-0.173978 z m 1.0318068,1.779393 H 7.393024 L 6.6936691,23.445763 H 6.388778 v 0.940511 H 5.7307643 v -2.564875 h 1.1093215 q 0.2273764,0 0.3910186,0.02584 0.1636421,0.02584 0.3066137,0.111966 0.1446941,0.08613 0.229099,0.223931 0.086127,0.136082 0.086127,0.342788 0,0.28422 -0.1326362,0.463365 -0.1309137,0.179145 -0.3755157,0.298001 z m 2.2324236,-0.96635 q 0,0.477146 -0.279053,0.752754 -0.2773304,0.273886 -0.7803147,0.273886 -0.5029843,0 -0.7820372,-0.273886 -0.2773304,-0.275608 -0.2773304,-0.752754 0,-0.480591 0.279053,-0.754476 0.2807754,-0.273885 0.7803146,-0.273885 0.5064294,0 0.7820367,0.275608 0.277331,0.275607 0.277331,0.752753 z M 9.6702337,23.89018 q 0.060289,-0.07407 0.089572,-0.177422 0.031006,-0.105076 0.031006,-0.289388 0,-0.170533 -0.031006,-0.285944 -0.031006,-0.11541 -0.086127,-0.184312 -0.055122,-0.07062 -0.1326363,-0.09991 -0.077515,-0.02928 -0.1670872,-0.02928 -0.089573,0 -0.1601971,0.02411 -0.068902,0.02412 -0.1326362,0.09646 -0.056844,0.06718 -0.091295,0.184313 -0.032728,0.117133 -0.032728,0.294556 0,0.158474 0.029283,0.275607 0.029283,0.115411 0.086127,0.186036 0.055122,0.06718 0.1309138,0.09819 0.077515,0.03101 0.1756999,0.03101 0.084405,0 0.1601971,-0.02756 0.077515,-0.02928 0.1309137,-0.09646 z m 4.2925913,-1.438328 -0.599447,1.934422 h -0.658013 l -0.394464,-1.303969 -0.387573,1.303969 h -0.666627 l -0.594279,-1.934422 h 0.651123 l 0.33073,1.333253 0.413411,-1.333253 h 0.549493 l 0.392742,1.333253 0.325561,-1.333253 z m 2.051556,1.321195 q 0,0.299723 -0.268718,0.484036 -0.268717,0.18259 -0.735528,0.18259 -0.258382,0 -0.468533,-0.04823 -0.210151,-0.04823 -0.33762,-0.106798 v -0.509875 h 0.05684 q 0.04651,0.03273 0.106798,0.07235 0.06201,0.0379 0.173978,0.08268 0.09646,0.03962 0.218763,0.0689 0.122301,0.02756 0.261828,0.02756 0.18259,0 0.27044,-0.03962 0.08785,-0.04134 0.08785,-0.120578 0,-0.07062 -0.05168,-0.101631 -0.05168,-0.03273 -0.19637,-0.06201 -0.0689,-0.0155 -0.187758,-0.03273 -0.117133,-0.01895 -0.213596,-0.04479 -0.26355,-0.0689 -0.391019,-0.213596 -0.127468,-0.146417 -0.127468,-0.363458 0,-0.279053 0.26355,-0.463366 0.265272,-0.186035 0.72347,-0.186035 0.217041,0 0.415135,0.04479 0.199815,0.04306 0.311781,0.09302 v 0.489204 h -0.0534 q -0.137804,-0.09474 -0.315227,-0.153307 -0.175699,-0.06029 -0.356567,-0.06029 -0.149862,0 -0.253215,0.04134 -0.10163,0.04134 -0.10163,0.117133 0,0.0689 0.04651,0.105076 0.04651,0.03617 0.218763,0.07235 0.09474,0.01895 0.203261,0.0379 0.110243,0.01722 0.220486,0.04479 0.244602,0.06373 0.361736,0.201538 0.117133,0.136082 0.117133,0.341065 z"
       id="text9"
       aria-label="nRows" />
    <path
       style="font-weight:bold;font-size:3.52777px;-inkscape-font-specification:'sans-serif Bold';fill:#000000;stroke-width:4.087"
       d="m 20.607185,24.386274 h -0.623561 v -0.959457 q 0,-0.117133 -0.01206,-0.232543 -0.01206,-0.117133 -0.04134,-0.172254 -0.03445,-0.06374 -0.10163,-0.09302 -0.06546,-0.02928 -0.184312,-0.02928 -0.08441,0 -0.172255,0.02756 -0.08613,0.02756 -0.187757,0.08785 v 1.371145 h -0.620116 v -1.934417 h 0.620116 v 0.213596 q 0.165364,-0.129191 0.316948,-0.198093 0.153306,-0.0689 0.339341,-0.0689 0.313503,0 0.489203,0.182589 0.177422,0.18259 0.177422,0.546047 z m 1.763885,0.04995 q -0.285943,0 -0.528821,-0.08441 -0.241156,-0.0844 -0.415133,-0.251491 -0.173977,-0.167087 -0.27044,-0.416856 -0.09474,-0.249768 -0.09474,-0.577052 0,-0.30489 0.0913,-0.552936 0.09129,-0.248047 0.265272,-0.425469 0.167087,-0.170532 0.413411,-0.263549 0.248046,-0.09302 0.540878,-0.09302 0.161919,0 0.29111,0.01895 0.130914,0.01722 0.241156,0.04651 0.115411,0.03273 0.208428,0.07407 0.09474,0.03962 0.165364,0.07407 v 0.621838 h -0.07579 q -0.04823,-0.04134 -0.122301,-0.09819 -0.07235,-0.05684 -0.165364,-0.111965 -0.09474,-0.05512 -0.204983,-0.09302 -0.110243,-0.0379 -0.235989,-0.0379 -0.139526,0 -0.265271,0.04479 -0.125746,0.04306 -0.232544,0.144694 -0.10163,0.09819 -0.165364,0.260104 -0.06201,0.161919 -0.06201,0.39274 0,0.241156 0.06718,0.403075 0.0689,0.161919 0.172254,0.254937 0.105075,0.09474 0.234266,0.13608 0.129191,0.03962 0.254937,0.03962 0.120578,0 0.237711,-0.03617 0.118855,-0.03617 0.218763,-0.09818 0.0844,-0.04995 0.156751,-0.106798 0.07235,-0.05684 0.118856,-0.09819 h 0.0689 v 0.613225 q -0.09646,0.04306 -0.184312,0.08096 -0.08785,0.0379 -0.184312,0.06546 -0.125746,0.03617 -0.235988,0.05512 -0.110243,0.01895 -0.303168,0.01895 z m 3.336567,-1.016301 q 0,0.477145 -0.279052,0.752752 -0.277329,0.273884 -0.780312,0.273884 -0.502983,0 -0.782035,-0.273884 -0.27733,-0.275607 -0.27733,-0.752752 0,-0.48059 0.279053,-0.754474 0.280774,-0.273885 0.780312,-0.273885 0.506428,0 0.782035,0.275607 0.277329,0.275607 0.277329,0.752752 z m -0.763087,0.470255 q 0.06029,-0.07407 0.08957,-0.177422 0.03101,-0.105076 0.03101,-0.289388 0,-0.170532 -0.03101,-0.285942 -0.03101,-0.11541 -0.08613,-0.184312 -0.05512,-0.07062 -0.132636,-0.09991 -0.07751,-0.02928 -0.167087,-0.02928 -0.08957,0 -0.160197,0.02412 -0.0689,0.02411 -0.132636,0.09646 -0.05684,0.06718 -0.09129,0.184312 -0.03273,0.117133 -0.03273,0.294555 0,0.158474 0.02928,0.275607 0.02928,0.115411 0.08613,0.186035 0.05512,0.06718 0.130913,0.09818 0.07751,0.03101 0.1757,0.03101 0.0844,0 0.160196,-0.02756 0.07752,-0.02928 0.130913,-0.09646 z m 1.82762,0.496092 h -0.620116 v -2.680278 h 0.620116 z m 2.266868,-0.613225 q 0,0.299722 -0.268717,0.484035 -0.268717,0.182589 -0.735526,0.182589 -0.258382,0 -0.468532,-0.04823 -0.210151,-0.04823 -0.337619,-0.106798 v -0.509873 h 0.05684 q 0.04651,0.03273 0.106798,0.07235 0.06201,0.0379 0.173977,0.08268 0.09646,0.03962 0.218763,0.0689 0.1223,0.02756 0.261827,0.02756 0.182589,0 0.270439,-0.03962 0.08785,-0.04134 0.08785,-0.120578 0,-0.07062 -0.05168,-0.10163 -0.05168,-0.03273 -0.19637,-0.06201 -0.0689,-0.0155 -0.187757,-0.03273 -0.117133,-0.01895 -0.213595,-0.04479 -0.26355,-0.0689 -0.391018,-0.213596 -0.127468,-0.146416 -0.127468,-0.363456 0,-0.279052 0.263549,-0.463365 0.265272,-0.186034 0.723469,-0.186034 0.21704,0 0.415133,0.04479 0.199815,0.04306 0.31178,0.09302 v 0.489203 h -0.0534 q -0.137803,-0.09474 -0.315225,-0.153307 -0.1757,-0.06029 -0.356567,-0.06029 -0.149861,0 -0.253214,0.04134 -0.10163,0.04134 -0.10163,0.117133 0,0.0689 0.04651,0.105075 0.04651,0.03617 0.218763,0.07235 0.09474,0.01895 0.20326,0.0379 0.110243,0.01723 0.220486,0.04479 0.244601,0.06373 0.361734,0.201538 0.117133,0.136081 0.117133,0.341064 z"
       id="text10"
       aria-label="nCols" />
    <path
       style="font-weight:bold;font-size:3.52778px;-inkscape-font-specification:'sans-serif Bold';fill:#000000;stroke-width:4.087"
       d="M 5.453434,51.697208 H 4.7299635 L 4.3165517,51.118432 3.8928047,51.697208 H 3.1831146 l 0.7630891,-0.96635 -0.7510313,-0.968072 h 0.7234705 l 0.4065216,0.568441 0.4082441,-0.568441 h 0.7114126 l -0.7527538,0.95257 z m 3.0161831,-1.779393 q 0,-0.09646 -0.039619,-0.165364 -0.039619,-0.0689 -0.1360814,-0.108521 -0.067179,-0.02756 -0.1567519,-0.03273 -0.089573,-0.0069 -0.2084284,-0.0069 H 7.6893025 v 0.690742 h 0.2032607 q 0.1584745,0 0.2652726,-0.0155 0.106798,-0.0155 0.179145,-0.07062 0.068902,-0.0534 0.099908,-0.117133 0.032728,-0.06546 0.032728,-0.173978 z m 1.0318068,1.779393 H 8.6935485 L 7.9941936,50.756697 H 7.6893025 v 0.940511 H 7.0312888 v -2.564875 h 1.1093215 q 0.2273764,0 0.3910186,0.02584 0.1636421,0.02584 0.3066137,0.111966 0.1446941,0.08613 0.229099,0.223931 0.086127,0.136082 0.086127,0.342788 0,0.28422 -0.1326363,0.463365 -0.1309137,0.179145 -0.3755156,0.298001 z m 2.2324231,-0.96635 q 0,0.477147 -0.279053,0.752754 -0.27733,0.273886 -0.780315,0.273886 -0.502984,0 -0.7820369,-0.273886 -0.2773304,-0.275607 -0.2773304,-0.752754 0,-0.480591 0.279053,-0.754476 0.2807753,-0.273885 0.7803143,-0.273885 0.50643,0 0.782037,0.275608 0.277331,0.275607 0.277331,0.752753 z m -0.763089,0.470256 q 0.06029,-0.07407 0.08957,-0.177422 0.03101,-0.105076 0.03101,-0.289388 0,-0.170533 -0.03101,-0.285944 -0.03101,-0.11541 -0.08613,-0.184312 -0.05512,-0.07062 -0.132636,-0.09991 -0.07752,-0.02928 -0.167088,-0.02928 -0.08957,0 -0.160197,0.02412 -0.0689,0.02412 -0.132636,0.09646 -0.05684,0.06718 -0.0913,0.184313 -0.03273,0.117133 -0.03273,0.294556 0,0.158474 0.02928,0.275607 0.02928,0.115411 0.08613,0.186036 0.05512,0.06718 0.130914,0.09819 0.07752,0.03101 0.1757,0.03101 0.08441,0 0.160197,-0.02756 0.07752,-0.02928 0.130914,-0.09646 z m 4.292591,-1.438328 -0.599447,1.934422 h -0.658013 l -0.394464,-1.303969 -0.387573,1.303969 h -0.666627 l -0.594279,-1.934422 h 0.651123 l 0.33073,1.333253 0.413411,-1.333253 h 0.549493 l 0.392742,1.333253 0.325561,-1.333253 z"
       id="text11"
       aria-label="x Row" />
    <path
       style="font-weight:bold;font-size:3.52777px;-inkscape-font-specification:'sans-serif Bold';fill:#000000;stroke-width:4.087"
       d="M 20.934469,51.812614 H 20.211 l -0.41341,-0.578774 -0.423746,0.578774 h -0.709688 l 0.763087,-0.966347 -0.75103,-0.968069 h 0.723469 l 0.40652,0.568439 0.408243,-0.568439 h 0.711411 l -0.752752,0.952566 z m 2.737122,0.04995 q -0.285942,0 -0.528821,-0.0844 -0.241156,-0.0844 -0.415133,-0.251492 -0.173977,-0.167087 -0.27044,-0.416855 -0.09474,-0.249769 -0.09474,-0.577053 0,-0.30489 0.0913,-0.552936 0.09129,-0.248047 0.265272,-0.425469 0.167087,-0.170532 0.413411,-0.263549 0.248046,-0.09302 0.540878,-0.09302 0.16192,0 0.29111,0.01895 0.130914,0.01723 0.241157,0.04651 0.11541,0.03273 0.208427,0.07407 0.09474,0.03962 0.165365,0.07407 v 0.621839 h -0.07579 q -0.04823,-0.04134 -0.122301,-0.09818 -0.07235,-0.05684 -0.165364,-0.111966 -0.09474,-0.05512 -0.204983,-0.09302 -0.110243,-0.0379 -0.235988,-0.0379 -0.139527,0 -0.265272,0.04479 -0.125746,0.04306 -0.232544,0.144694 -0.10163,0.09819 -0.165364,0.260104 -0.06201,0.161919 -0.06201,0.39274 0,0.241156 0.06718,0.403075 0.0689,0.161919 0.172254,0.254937 0.105075,0.09474 0.234266,0.136081 0.129191,0.03962 0.254937,0.03962 0.120578,0 0.237711,-0.03617 0.118855,-0.03617 0.218763,-0.09819 0.0844,-0.04995 0.156751,-0.106798 0.07235,-0.05684 0.118856,-0.09819 h 0.0689 v 0.613226 q -0.09646,0.04306 -0.184313,0.08096 -0.08785,0.0379 -0.184312,0.06546 -0.125746,0.03617 -0.235988,0.05512 -0.110243,0.01895 -0.303168,0.01895 z m 3.336567,-1.016301 q 0,0.477145 -0.279052,0.752752 -0.277329,0.273884 -0.780312,0.273884 -0.502983,0 -0.782035,-0.273884 -0.27733,-0.275607 -0.27733,-0.752752 0,-0.480589 0.279052,-0.754474 0.280775,-0.273884 0.780313,-0.273884 0.506428,0 0.782035,0.275607 0.277329,0.275607 0.277329,0.752751 z m -0.763087,0.470255 q 0.06029,-0.07407 0.08957,-0.177422 0.03101,-0.105075 0.03101,-0.289388 0,-0.170531 -0.03101,-0.285942 -0.03101,-0.11541 -0.08613,-0.184312 -0.05512,-0.07062 -0.132635,-0.09991 -0.07752,-0.02928 -0.167087,-0.02928 -0.08957,0 -0.160197,0.02412 -0.0689,0.02412 -0.132636,0.09646 -0.05684,0.06718 -0.09129,0.184312 -0.03273,0.117133 -0.03273,0.294555 0,0.158474 0.02928,0.275607 0.02928,0.115411 0.08613,0.186035 0.05512,0.06718 0.130913,0.09819 0.07751,0.03101 0.175699,0.03101 0.08441,0 0.160197,-0.02756 0.07752,-0.02928 0.130913,-0.09646 z m 1.82762,0.496092 h -0.620116 v -2.680278 h 0.620116 z"
       id="text12"
       aria-label="x Col" />
    <path
       style="font-weight:bold;font-size:3.52777px;-inkscape-font-specification:'sans-serif Bold';fill:#000000;stroke-width:4.087"
       d="m 33.781704,50.73026 h -0.918116 v 0.909503 H 32.391611 V 50.73026 h -0.918116 v -0.461642 h 0.918116 v -0.909503 h 0.471977 v 0.909503 h 0.918116 z m 4.402822,-0.37207 q 0,0.613226 -0.351399,0.97496 -0.351398,0.360012 -0.971514,0.360012 -0.618394,0 -0.969793,-0.360012 -0.351399,-0.361734 -0.351399,-0.97496 0,-0.618393 0.351399,-0.976682 0.351399,-0.360012 0.969793,-0.360012 0.61667,0 0.969792,0.360012 0.353121,0.358289 0.353121,0.976682 z m -0.876774,0.649399 q 0.09646,-0.117133 0.142971,-0.275607 0.04651,-0.160196 0.04651,-0.375514 0,-0.230821 -0.0534,-0.39274 -0.0534,-0.16192 -0.139527,-0.261827 -0.08785,-0.103353 -0.20326,-0.149861 -0.113688,-0.04651 -0.237711,-0.04651 -0.125745,0 -0.237711,0.04479 -0.110243,0.04479 -0.20326,0.148139 -0.08613,0.09646 -0.141249,0.266994 -0.0534,0.168809 -0.0534,0.39274 0,0.229099 0.05168,0.391018 0.0534,0.160196 0.139526,0.261826 0.08613,0.10163 0.201538,0.149862 0.11541,0.04823 0.242878,0.04823 0.127468,0 0.242879,-0.04823 0.11541,-0.04995 0.201538,-0.153307 z m 2.601041,-1.593353 h -0.04651 q -0.04134,-0.01206 -0.10852,-0.02756 -0.06546,-0.0155 -0.141249,-0.0155 -0.182589,0 -0.248046,0.06546 -0.06373,0.06546 -0.06373,0.253214 v 0.0155 h 0.478867 v 0.420301 h -0.458197 v 1.514116 H 38.70129 v -1.514116 h -0.265272 v -0.420301 h 0.265272 v -0.0534 q 0,-0.354844 0.187757,-0.532266 0.18948,-0.177422 0.571885,-0.177422 0.137803,0 0.249768,0.01033 0.111966,0.0086 0.198093,0.02412 z m 1.49,0 h -0.04651 q -0.04134,-0.01206 -0.108521,-0.02756 -0.06546,-0.0155 -0.141248,-0.0155 -0.18259,0 -0.248047,0.06546 -0.06373,0.06546 -0.06373,0.253214 v 0.0155 h 0.478867 v 0.420301 h -0.458196 v 1.514116 H 40.19129 v -1.514116 h -0.265272 v -0.420301 h 0.265272 v -0.0534 q 0,-0.354844 0.187757,-0.532266 0.18948,-0.177422 0.571885,-0.177422 0.137803,0 0.249769,0.01033 0.111965,0.0086 0.198092,0.02412 z m 1.917192,1.612301 q 0,0.299723 -0.268717,0.484035 -0.268717,0.18259 -0.735526,0.18259 -0.258382,0 -0.468532,-0.04823 -0.210151,-0.04823 -0.337619,-0.106798 V 51.02826 h 0.05684 q 0.04651,0.03273 0.106798,0.07235 0.06201,0.0379 0.173977,0.08268 0.09646,0.03962 0.218763,0.0689 0.1223,0.02756 0.261827,0.02756 0.182589,0 0.270439,-0.03962 0.08785,-0.04134 0.08785,-0.120578 0,-0.07062 -0.05168,-0.10163 -0.05168,-0.03273 -0.19637,-0.06201 -0.0689,-0.0155 -0.187757,-0.03273 -0.117133,-0.01895 -0.213595,-0.04479 -0.26355,-0.0689 -0.391018,-0.213595 -0.127468,-0.146416 -0.127468,-0.363457 0,-0.279052 0.263549,-0.463364 0.265272,-0.186035 0.723469,-0.186035 0.21704,0 0.415133,0.04479 0.199815,0.04306 0.31178,0.09302 v 0.489202 h -0.0534 q -0.137803,-0.09474 -0.315225,-0.153306 -0.1757,-0.06029 -0.356567,-0.06029 -0.149861,0 -0.253214,0.04134 -0.10163,0.04134 -0.10163,0.117133 0,0.0689 0.04651,0.105075 0.04651,0.03617 0.218763,0.07235 0.09474,0.01895 0.20326,0.0379 0.110243,0.01723 0.220486,0.04479 0.244601,0.06373 0.361734,0.201538 0.117133,0.13608 0.117133,0.341063 z m 2.316821,-0.239433 H 44.21343 q 0.01378,0.227375 0.172254,0.347953 0.160197,0.120579 0.470255,0.120579 0.19637,0 0.380682,-0.07062 0.184312,-0.07062 0.29111,-0.151584 h 0.0689 v 0.497816 q -0.21015,0.0844 -0.396185,0.1223 -0.186035,0.0379 -0.411688,0.0379 -0.58222,0 -0.892278,-0.261826 -0.310058,-0.261827 -0.310058,-0.745862 0,-0.478867 0.292833,-0.757919 0.294555,-0.280775 0.80615,-0.280775 0.471977,0 0.709688,0.239434 0.237711,0.237711 0.237711,0.685572 z m -0.61667,-0.363457 q -0.0052,-0.194648 -0.09646,-0.292833 -0.0913,-0.09819 -0.28422,-0.09819 -0.179144,0 -0.294555,0.09302 -0.11541,0.09302 -0.12919,0.298 z m 2.290983,1.19889 q -0.09991,0.02584 -0.211873,0.03962 -0.111965,0.0155 -0.273884,0.0155 -0.361734,0 -0.539156,-0.146416 -0.1757,-0.146417 -0.1757,-0.501261 V 50.125647 H 45.85157 v -0.420301 h 0.254936 v -0.552937 h 0.620116 v 0.552937 h 0.580497 v 0.420301 h -0.580497 v 0.685572 q 0,0.10163 0.0017,0.177422 0.0017,0.07579 0.02756,0.136081 0.02412,0.06029 0.08441,0.09646 0.06201,0.03445 0.179144,0.03445 0.04823,0 0.125746,-0.02067 0.07924,-0.02067 0.110243,-0.0379 h 0.05168 z"
       id="text13"
       aria-label="+ Offset" />
    <path
       style="font-weight:bold;font-size:3.52777px;-inkscape-font-specification:'sans-serif Bold';fill:#000000;stroke-width:4.087"
       d="M 5.2893427,93.823112 H 4.4780245 l -0.766532,-1.026636 -0.155029,0.187757 v 0.838879 H 2.8950066 v -2.564868 h 0.6614569 v 1.160995 L 4.4728569,91.258244 H 5.239389 L 4.2368684,92.445077 Z M 7.4855864,92.970453 H 6.0662102 q 0.01378,0.227376 0.1722544,0.347954 0.1601966,0.120578 0.4702545,0.120578 0.19637,0 0.3806822,-0.07062 0.1843122,-0.07063 0.2911099,-0.151584 h 0.068902 v 0.497815 q -0.2101504,0.08441 -0.3961851,0.122301 -0.1860348,0.0379 -0.411688,0.0379 -0.5822199,0 -0.8922778,-0.261827 -0.3100579,-0.261827 -0.3100579,-0.745862 0,-0.478867 0.2928324,-0.757919 0.2945551,-0.280775 0.8061506,-0.280775 0.4719771,0 0.7096881,0.239434 0.2377111,0.237711 0.2377111,0.685573 z M 6.8689157,92.606996 q -0.00517,-0.194647 -0.096462,-0.292832 -0.091295,-0.09819 -0.2842197,-0.09819 -0.1791446,0 -0.2945551,0.09302 -0.1154104,0.09302 -0.1291908,0.298 z m 1.9275266,0.532266 0.4409712,-1.250567 H 9.8747548 L 8.7998874,94.5328 H 8.1280952 L 8.434708,93.809332 7.6819563,91.888695 H 8.333078 Z"
       id="text14"
       aria-label="Key" />
    <path
       style="font-weight:bold;font-size:3.52777px;-inkscape-font-specification:'sans-serif Bold';fill:#000000;stroke-width:4.087"
       d="m 19.729435,94.003632 h -0.764809 l -0.552937,-0.844047 -0.563272,0.844047 h -0.730359 l 0.909504,-1.291908 -0.890556,-1.27296 h 0.763087 l 0.533989,0.79926 0.549492,-0.79926 h 0.732081 l -0.895723,1.247121 z"
       id="text15"
       aria-label="X" />
    <path
       style="font-weight:bold;font-size:3.52777px;-inkscape-font-specification:'sans-serif Bold';fill:#000000;stroke-width:4.087"
       d="m 31.68468,91.438764 -0.945676,1.572682 v 0.992186 h -0.661457 v -0.96118 l -0.96118,-1.603688 h 0.751029 l 0.55466,0.992185 0.535711,-0.992185 z"
       id="text16"
       aria-label="Y" />
    <path
       style="font-weight:bold;font-size:3.52777px;-inkscape-font-specification:'sans-serif Bold';fill:#000000;stroke-width:4.087"
       d="m 43.678809,94.003632 h -2.154903 v -0.48059 l 1.278128,-1.588186 h -1.216116 v -0.496092 h 2.023989 v 0.489202 l -1.276405,1.579573 h 1.345307 z"
       id="text17"
       aria-label="Z" />
  </g>
  <g
     inkscape:groupmode="layer"
     id="layer2"
     inkscape:label="components"
     style="display:inline">
    <circle
       style="fill:#0000ff;fill-opacity:1;stroke-width:0.313059"
       id="out1"
       cx="7.2752151"
       cy="117.82996"
       inkscape:label="out_k"
       r="4"
       sodipodi:insensitive="true" />
    <circle
       style="fill:#0000ff;fill-opacity:1;stroke-width:0.313;stroke-dasharray:none"
       id="ellipse5"
       cx="19.353027"
       cy="117.82996"
       inkscape:label="out_x"
       r="4"
       sodipodi:insensitive="true" />
    <circle
       style="fill:#0000ff;fill-opacity:1;stroke-width:0.313059"
       id="ellipse6"
       cx="31.430838"
       cy="117.82996"
       inkscape:label="out_y"
       r="4"
       sodipodi:insensitive="true" />
    <circle
       style="fill:#0000ff;fill-opacity:1;stroke-width:0.313059"
       id="ellipse7"
       cx="43.508644"
       cy="117.82996"
       inkscape:label="out_z"
       r="4"
       sodipodi:insensitive="true" />
    <circle
       style="fill:#00ff00;fill-opacity:1;stroke-width:0.313059"
       id="circle1"
       cx="6.7046099"
       cy="101.28241"
       inkscape:label="in_k"
       r="4"
       sodipodi:insensitive="true" />
    <circle
       style="fill:#00ff00;fill-opacity:1;stroke-width:0.313;stroke-dasharray:none"
       id="circle2"
       cx="18.782423"
       cy="101.28241"
       inkscape:label="in_x"
       r="4"
       sodipodi:insensitive="true" />
    <circle
       style="fill:#00ff00;fill-opacity:1;stroke-width:0.313059"
       id="circle3"
       cx="30.860233"
       cy="101.28241"
       inkscape:label="in_y"
       r="4"
       sodipodi:insensitive="true" />
    <circle
       style="fill:#00ff00;fill-opacity:1;stroke-width:0.313059"
       id="circle4"
       cx="42.938038"
       cy="101.28241"
       inkscape:label="in_z"
       r="4"
       sodipodi:insensitive="true" />
    <circle
       style="fill:#ff0000;fill-opacity:1;stroke-width:0.313059"
       id="circle5"
       cx="10.128242"
       cy="30.81267"
       inkscape:label="p_nRow"
       r="4"
       sodipodi:insensitive="true" />
    <circle
       style="fill:#ff0000;fill-opacity:1;stroke-width:0.313;stroke-dasharray:none"
       id="circle6"
       cx="25.724785"
       cy="30.81267"
       inkscape:label="p_nCols"
       r="4"
       sodipodi:insensitive="true" />
    <circle
       style="fill:#ff0000;fill-opacity:1;stroke-width:0.313059"
       id="circle7"
       cx="10.128242"
       cy="58.201721"
       inkscape:label="p_row_mult"
       r="4"
       sodipodi:insensitive="true" />
    <circle
       style="fill:#ff0000;fill-opacity:1;stroke-width:0.313;stroke-dasharray:none"
       id="circle8"
       cx="25.724785"
       cy="58.201721"
       inkscape:label="p_col_mult"
       r="4"
       sodipodi:insensitive="true" />
    <circle
       style="fill:#ff0000;fill-opacity:1;stroke-width:0.313;stroke-dasharray:none"
       id="circle9"
       cx="41.321327"
       cy="58.201721"
       inkscape:label="p_offset"
       r="4"
       sodipodi:insensitive="true" />
  </g>
</svg>
