<?xml version="1.0" encoding="UTF-8" standalone="no"?>
<!-- Created with Inkscape (http://www.inkscape.org/) -->

<svg
   width="50.799999mm"
   height="128.5mm"
   viewBox="0 0 50.799999 128.5"
   version="1.1"
   id="svg1"
   inkscape:version="1.3 (0e150ed, 2023-07-21)"
   sodipodi:docname="EScaler.svg"
   xmlns:inkscape="http://www.inkscape.org/namespaces/inkscape"
   xmlns:sodipodi="http://sodipodi.sourceforge.net/DTD/sodipodi-0.dtd"
   xmlns="http://www.w3.org/2000/svg"
   xmlns:svg="http://www.w3.org/2000/svg">
  <sodipodi:namedview
     id="namedview1"
     pagecolor="#ffffff"
     bordercolor="#000000"
     borderopacity="0.25"
     inkscape:showpageshadow="2"
     inkscape:pageopacity="0.0"
     inkscape:pagecheckerboard="0"
     inkscape:deskcolor="#d1d1d1"
     inkscape:document-units="mm"
     inkscape:zoom="0.92737795"
     inkscape:cx="98.665274"
     inkscape:cy="330.50171"
     inkscape:window-width="1552"
     inkscape:window-height="1146"
     inkscape:window-x="700"
     inkscape:window-y="166"
     inkscape:window-maximized="0"
     inkscape:current-layer="layer1"
     showgrid="false"
     showguides="true"
     showborder="false">
    <inkscape:grid
       id="grid1"
       units="mm"
       originx="0"
       originy="0"
       spacingx="0.99999998"
       spacingy="1"
       empcolor="#0099e5"
       empopacity="0.30196078"
       color="#0099e5"
       opacity="0.14901961"
       empspacing="5"
       dotted="false"
       gridanglex="30"
       gridanglez="30"
       visible="false" />
  </sodipodi:namedview>
  <defs
     id="defs1">
    <rect
       x="246.93276"
       y="158.51142"
       width="304.08314"
       height="28.036034"
       id="rect7" />
  </defs>
  <g
     inkscape:label="background"
     inkscape:groupmode="layer"
     id="layer1"
     style="display:inline;fill:#ffffff">
    <rect
       style="display:inline;fill:#ffffff;fill-opacity:1;stroke-width:4.08699"
       id="background"
       width="50.799999"
       height="128.5"
       x="2.0636746e-06"
       y="-5.5511151e-17"
       inkscape:label="background"
       sodipodi:insensitive="true" />
    <path
       style="font-weight:bold;font-size:4.23333px;-inkscape-font-specification:'sans-serif Bold';fill:#ff0000;stroke-width:4.087"
       d="M 14.460913,7.1325645 H 13.671297 V 5.0717102 L 13.10079,6.4090951 H 12.55302 L 11.982513,5.0717102 V 7.1325645 H 11.234239 V 4.0547188 h 0.921907 l 0.692463,1.5440905 0.690397,-1.5440905 h 0.921907 z M 17.491216,6.109372 h -1.703253 q 0.01654,0.2728514 0.206705,0.4175453 0.192236,0.1446939 0.564306,0.1446939 0.235645,0 0.45682,-0.084749 0.221174,-0.084749 0.349332,-0.1819009 h 0.08268 V 7.00234 q -0.252181,0.1012858 -0.475423,0.146761 -0.223242,0.045475 -0.494026,0.045475 -0.698665,0 -1.070735,-0.3141924 -0.37207,-0.3141925 -0.37207,-0.8950351 0,-0.5746414 0.3514,-0.9095044 0.353466,-0.3369301 0.967382,-0.3369301 0.566373,0 0.851627,0.2873207 0.285253,0.2852537 0.285253,0.8226881 z M 16.75121,5.6732233 Q 16.745009,5.439646 16.635455,5.3218239 16.525901,5.2040017 16.294391,5.2040017 q -0.214974,0 -0.353466,0.111621 -0.138493,0.111621 -0.15503,0.3576006 z m 2.749185,1.4386707 q -0.11989,0.031006 -0.254248,0.047542 -0.134359,0.018603 -0.328662,0.018603 -0.434082,0 -0.646988,-0.1756998 -0.21084,-0.1756997 -0.21084,-0.6015131 V 5.3156227 H 17.753733 V 4.8112612 h 0.305924 V 4.1477363 h 0.74414 v 0.6635249 h 0.696598 v 0.5043615 h -0.696598 v 0.8226881 q 0,0.1219563 0.0021,0.2129067 0.0021,0.09095 0.03307,0.1632974 0.02894,0.072347 0.101286,0.1157551 0.07441,0.041341 0.214973,0.041341 0.05788,0 0.150895,-0.024805 0.09509,-0.024805 0.132292,-0.045475 h 0.06201 z m 1.850014,-0.5849767 v -0.483691 q -0.150895,0.012402 -0.326595,0.03514 -0.1757,0.020671 -0.26665,0.049609 -0.111621,0.03514 -0.171566,0.1033528 -0.05788,0.066146 -0.05788,0.1756997 0,0.072347 0.0124,0.1178222 0.0124,0.045475 0.06201,0.086816 0.04754,0.041341 0.113688,0.062012 0.06614,0.018603 0.206705,0.018603 0.111621,0 0.225309,-0.045475 0.115755,-0.045475 0.202572,-0.1198892 z m 0,0.3596676 q -0.05994,0.045475 -0.148828,0.109554 -0.08888,0.064079 -0.167432,0.1012857 -0.109554,0.049609 -0.227376,0.072347 -0.117822,0.024805 -0.258382,0.024805 -0.330729,0 -0.553971,-0.2046385 -0.223242,-0.2046385 -0.223242,-0.522965 0,-0.2542479 0.113688,-0.4154782 0.113688,-0.1612303 0.322461,-0.2542478 0.206706,-0.093017 0.51263,-0.1322916 0.305924,-0.039274 0.634586,-0.057878 v -0.012402 q 0,-0.1922362 -0.157096,-0.2645831 -0.157097,-0.074414 -0.463021,-0.074414 -0.183968,0 -0.39274,0.066146 -0.208773,0.064079 -0.299723,0.099219 h -0.06821 v -0.560172 q 0.117822,-0.031006 0.382405,-0.072347 0.26665,-0.043408 0.5333,-0.043408 0.634586,0 0.915706,0.1963703 0.283186,0.1943032 0.283186,0.6118484 v 1.5792304 h -0.737938 z m 6.137088,0.2459796 H 26.697882 V 5.0717102 l -0.570507,1.3373849 h -0.54777 L 25.009098,5.0717102 V 7.1325645 H 24.260824 V 4.0547188 h 0.921906 l 0.692464,1.5440905 0.690396,-1.5440905 h 0.921907 z m 3.117121,-1.1596181 q 0,0.5725744 -0.334863,0.9033033 -0.332796,0.3286618 -0.936376,0.3286618 -0.603581,0 -0.938444,-0.3286618 -0.332796,-0.3307289 -0.332796,-0.9033033 0,-0.5767085 0.334863,-0.9053704 0.33693,-0.3286618 0.936377,-0.3286618 0.607714,0 0.938443,0.3307289 0.332796,0.3307289 0.332796,0.9033033 z m -0.915706,0.5643061 q 0.07235,-0.088883 0.107487,-0.2129067 0.03721,-0.1260904 0.03721,-0.3472653 0,-0.2046385 -0.03721,-0.3431312 -0.03721,-0.1384928 -0.103353,-0.221175 -0.06615,-0.084749 -0.159163,-0.1198892 -0.09302,-0.03514 -0.200504,-0.03514 -0.107487,0 -0.192237,0.028939 -0.08268,0.028939 -0.159163,0.1157551 -0.06821,0.080615 -0.109554,0.221175 -0.03927,0.1405598 -0.03927,0.3534665 0,0.1901691 0.03514,0.3307289 0.03514,0.1384927 0.103353,0.223242 0.06615,0.080615 0.157096,0.1178221 0.09302,0.037207 0.21084,0.037207 0.101285,0 0.192236,-0.033073 0.09302,-0.03514 0.157096,-0.1157552 z M 32.8205,5.5202612 h -0.06615 q -0.04754,-0.016536 -0.152962,-0.024805 -0.10542,-0.00827 -0.1757,-0.00827 -0.159163,0 -0.281119,0.020671 -0.121957,0.020671 -0.262516,0.07028 v 1.5544257 h -0.74414 V 4.8112612 h 0.74414 v 0.3410641 q 0.245979,-0.2108396 0.42788,-0.2790525 0.181901,-0.07028 0.334863,-0.07028 0.03927,0 0.08888,0.00207 0.04961,0.00207 0.08682,0.0062 z m 2.844269,0.4196123 q 0,0.2873207 -0.08888,0.522965 -0.08682,0.2356444 -0.229444,0.3886065 -0.148828,0.1612303 -0.33693,0.2439125 -0.188102,0.082682 -0.403075,0.082682 -0.198438,0 -0.33693,-0.043408 -0.138493,-0.041341 -0.283187,-0.1178222 v 0.967382 H 33.24218 V 4.8112612 h 0.74414 v 0.2418455 q 0.171566,-0.1364257 0.349332,-0.221175 0.179834,-0.084749 0.413411,-0.084749 0.434082,0 0.673861,0.3183266 0.241845,0.3183265 0.241845,0.8743642 z m -0.766878,0.014469 q 0,-0.3389971 -0.115755,-0.4919592 -0.115755,-0.1529622 -0.365869,-0.1529622 -0.105419,0 -0.21704,0.033073 -0.111621,0.031006 -0.212907,0.09095 v 1.1678864 q 0.07441,0.028939 0.159163,0.037207 0.08475,0.00827 0.167432,0.00827 0.295589,0 0.440283,-0.1715656 0.144693,-0.1736327 0.144693,-0.520898 z m 3.635951,1.1782216 H 37.785568 V 5.9812146 q 0,-0.1405598 -0.01447,-0.2790525 -0.01447,-0.1405598 -0.04961,-0.2067056 -0.04134,-0.076481 -0.121957,-0.111621 -0.07855,-0.03514 -0.221175,-0.03514 -0.101285,0 -0.206705,0.033073 -0.103353,0.033073 -0.225309,0.1054198 v 1.6453762 h -0.74414 V 3.9162261 h 0.74414 V 5.067576 q 0.198437,-0.1550291 0.380338,-0.2377113 0.183968,-0.082682 0.40721,-0.082682 0.376204,0 0.587044,0.2191079 0.212906,0.2191079 0.212906,0.6552566 z"
       id="text4"
       inkscape:label="text4"
       aria-label="Meta Morph" />
    <path
       style="font-weight:bold;font-size:4.23333px;-inkscape-font-specification:'sans-serif Bold';fill:#000000;stroke-width:4.087"
       d="m 20.260128,11.30063 q 0,0.454752 -0.386539,0.740006 -0.384472,0.283187 -1.04593,0.283187 -0.382405,0 -0.667659,-0.06615 -0.283187,-0.06821 -0.531233,-0.171566 v -0.737939 h 0.08682 q 0.24598,0.196371 0.549837,0.30179 0.305924,0.10542 0.587044,0.10542 0.07235,0 0.190169,-0.0124 0.117822,-0.0124 0.192236,-0.04134 0.09095,-0.03721 0.148828,-0.09302 0.05994,-0.05581 0.05994,-0.165364 0,-0.101286 -0.08682,-0.173633 -0.08475,-0.07441 -0.250114,-0.113688 -0.173632,-0.04134 -0.367935,-0.07648 -0.192237,-0.03721 -0.361735,-0.09302 -0.388607,-0.126091 -0.560172,-0.341065 -0.169499,-0.21704 -0.169499,-0.537434 0,-0.4299476 0.384473,-0.7007318 0.386539,-0.2728514 0.992186,-0.2728514 0.303857,0 0.599446,0.059945 0.297656,0.057878 0.514697,0.146761 v 0.7089992 h -0.08475 Q 19.867388,9.9012334 19.596604,9.8020148 19.327886,9.700729 19.046767,9.700729 q -0.09922,0 -0.198438,0.014469 -0.09715,0.012402 -0.188102,0.049609 -0.08061,0.031006 -0.138492,0.095085 -0.05788,0.062012 -0.05788,0.142627 0,0.121956 0.09302,0.188102 0.09302,0.06408 0.351399,0.117822 0.169499,0.03514 0.324528,0.06821 0.157096,0.03307 0.33693,0.09095 0.353466,0.115755 0.520898,0.316259 0.169498,0.198437 0.169498,0.516764 z m 1.711522,1.029394 q -0.303857,0 -0.556038,-0.07235 -0.250113,-0.07235 -0.436148,-0.223242 -0.183968,-0.150895 -0.285254,-0.380338 -0.101286,-0.229444 -0.101286,-0.537435 0,-0.324528 0.107487,-0.560172 0.109554,-0.235644 0.303857,-0.390673 0.188102,-0.146761 0.434082,-0.2149742 0.24598,-0.068213 0.510563,-0.068213 0.237711,0 0.438215,0.051676 0.200505,0.051676 0.374138,0.1343582 v 0.634587 h -0.10542 q -0.04341,-0.03721 -0.10542,-0.08682 -0.05995,-0.04961 -0.148828,-0.09715 -0.08475,-0.04547 -0.186035,-0.07441 -0.101286,-0.03101 -0.235644,-0.03101 -0.297656,0 -0.458887,0.190169 -0.159163,0.188102 -0.159163,0.51263 0,0.334863 0.163297,0.508495 0.165365,0.173632 0.467155,0.173632 0.14056,0 0.252181,-0.03101 0.113688,-0.03307 0.188102,-0.07648 0.07028,-0.04134 0.124023,-0.08682 0.05374,-0.04548 0.09922,-0.08888 h 0.10542 v 0.634586 q -0.1757,0.08268 -0.367936,0.130225 -0.190169,0.04961 -0.42168,0.04961 z m 2.687173,-0.667659 v -0.483691 q -0.150895,0.0124 -0.326595,0.03514 -0.1757,0.02067 -0.26665,0.04961 -0.111621,0.03514 -0.171566,0.103353 -0.05788,0.06615 -0.05788,0.1757 0,0.07235 0.0124,0.117822 0.0124,0.04548 0.06201,0.08682 0.04754,0.04134 0.113688,0.06201 0.06615,0.0186 0.206705,0.0186 0.111621,0 0.225309,-0.04547 0.115755,-0.04547 0.202572,-0.119889 z m 0,0.359667 q -0.05995,0.04548 -0.148828,0.109554 -0.08888,0.06408 -0.167432,0.101286 -0.109554,0.04961 -0.227376,0.07235 -0.117822,0.02481 -0.258382,0.02481 -0.330729,0 -0.553971,-0.204639 -0.223242,-0.204638 -0.223242,-0.522965 0,-0.254248 0.113688,-0.415478 0.113688,-0.16123 0.322461,-0.254248 0.206705,-0.09302 0.51263,-0.132291 0.305924,-0.03927 0.634586,-0.05788 v -0.0124 q 0,-0.192236 -0.157096,-0.264583 -0.157097,-0.07441 -0.463021,-0.07441 -0.183968,0 -0.39274,0.06615 -0.208773,0.06408 -0.299724,0.09922 h -0.06821 v -0.56019 q 0.117822,-0.031006 0.382405,-0.072347 0.26665,-0.043408 0.5333,-0.043408 0.634586,0 0.915706,0.19637 0.283186,0.194303 0.283186,0.611849 v 1.57923 h -0.737938 z m 2.166273,0.24598 h -0.74414 V 9.0516736 h 0.74414 z m 2.988963,-1.023192 h -1.703253 q 0.01654,0.272851 0.206705,0.417545 0.192236,0.144694 0.564306,0.144694 0.235645,0 0.45682,-0.08475 0.221175,-0.08475 0.349332,-0.181901 h 0.08268 v 0.59738 q -0.252181,0.101285 -0.475423,0.14676 -0.223242,0.04548 -0.494026,0.04548 -0.698665,0 -1.070735,-0.314193 -0.37207,-0.314192 -0.37207,-0.895035 0,-0.574641 0.3514,-0.909504 0.353466,-0.3369303 0.967382,-0.3369303 0.566373,0 0.851627,0.2873203 0.285253,0.285254 0.285253,0.822689 z m -0.740005,-0.436149 q -0.0062,-0.233577 -0.115756,-0.3514 -0.109554,-0.117822 -0.341064,-0.117822 -0.214974,0 -0.353466,0.111621 -0.138493,0.111621 -0.155029,0.357601 z m 2.947621,-0.152962 h -0.06615 q -0.04754,-0.01654 -0.152962,-0.02481 -0.10542,-0.0083 -0.1757,-0.0083 -0.159163,0 -0.28112,0.02067 -0.121956,0.02067 -0.262516,0.07028 v 1.554426 h -0.74414 V 9.9467087 h 0.74414 v 0.3410643 q 0.24598,-0.21084 0.427881,-0.279053 0.181901,-0.07028 0.334863,-0.07028 0.03927,0 0.08888,0.00207 0.04961,0.00207 0.08682,0.0062 z"
       id="text1"
       aria-label="Scaler" />
    <path
       style="font-weight:bold;font-size:2.82223px;-inkscape-font-specification:'sans-serif Bold';display:inline;fill:#000000;stroke-width:4.087"
       d="m 5.6658489,95.174059 h -0.649058 l -0.613229,-0.82132 -0.124023,0.15021 v 0.67111 h -0.529168 v -2.05191 h 0.529168 v 0.9288 l 0.733118,-0.9288 h 0.613229 l -0.802021,0.94947 z m 1.757004,-0.68213 h -1.135507 q 0.01102,0.1819 0.137804,0.27836 0.128158,0.0965 0.376206,0.0965 0.157096,0 0.304547,-0.0565 0.14745,-0.0565 0.232889,-0.12126 h 0.05512 v 0.39825 q -0.168121,0.0675 -0.31695,0.0978 -0.148828,0.0303 -0.329352,0.0303 -0.465778,0 -0.713826,-0.20946 -0.248047,-0.20947 -0.248047,-0.5967 0,-0.38309 0.234267,-0.60634 0.235645,-0.22462 0.644924,-0.22462 0.377583,0 0.567753,0.19155 0.19017,0.19017 0.19017,0.54846 z m -0.49334,-0.29077 q -0.0041,-0.15572 -0.07717,-0.23427 -0.07304,-0.0786 -0.227377,-0.0786 -0.143316,0 -0.235645,0.0744 -0.09233,0.0744 -0.103353,0.2384 z m 1.542029,0.42581 0.352779,-1.00045 h 0.509876 l -0.859898,2.11529 h -0.537437 l 0.245292,-0.57878 -0.602205,-1.53651 h 0.5209 z"
       id="path32"
       aria-label="Key" />
    <path
       style="font-weight:bold;font-size:2.82223px;-inkscape-font-specification:'sans-serif Bold';display:inline;fill:#000000;stroke-width:4.087"
       d="m 19.590555,95.212639 h -0.611851 l -0.442352,-0.67524 -0.450619,0.67524 h -0.58429 l 0.727606,-1.03353 -0.712448,-1.01838 h 0.610473 l 0.427193,0.63941 0.439595,-0.63941 h 0.585668 l -0.716582,0.9977 z"
       id="path33"
       aria-label="X" />
    <path
       style="font-weight:bold;font-size:2.82223px;-inkscape-font-specification:'sans-serif Bold';fill:#000000;stroke-width:4.087"
       d="m 27.471688,93.882076 q 0,0.137804 -0.04823,0.270096 -0.04823,0.130914 -0.137804,0.220487 -0.122646,0.121267 -0.274231,0.183279 -0.150206,0.06201 -0.374827,0.06201 h -0.329352 v 0.668351 h -0.529168 v -2.051905 h 0.870922 q 0.195682,0 0.329352,0.03445 0.135049,0.03307 0.238402,0.100597 0.124023,0.08131 0.188791,0.208085 0.06615,0.126779 0.06615,0.304547 z m -0.547082,0.0124 q 0,-0.08682 -0.04685,-0.148828 -0.04685,-0.06339 -0.108865,-0.08819 -0.08268,-0.03307 -0.161231,-0.03583 -0.07855,-0.0041 -0.209462,-0.0041 h -0.09095 v 0.614606 h 0.151585 q 0.135048,0 0.221864,-0.01654 0.08819,-0.01654 0.147451,-0.06615 0.05099,-0.0441 0.07304,-0.104731 0.02343,-0.06201 0.02343,-0.150207 z m 3.642165,0.763435 q 0,0.148829 -0.06063,0.265963 -0.05926,0.117133 -0.163987,0.194304 -0.121268,0.09095 -0.26734,0.129535 -0.144695,0.03859 -0.367937,0.03859 h -0.895728 v -2.051905 h 0.796509 q 0.248047,0 0.362425,0.01654 0.115755,0.01654 0.228755,0.07304 0.117133,0.05926 0.173633,0.159853 0.05788,0.09922 0.05788,0.227377 0,0.148828 -0.07855,0.263206 -0.07855,0.112999 -0.221864,0.176389 v 0.01102 q 0.201194,0.03996 0.318327,0.165365 0.118512,0.125402 0.118512,0.33073 z M 29.888774,93.81455 q 0,-0.05099 -0.02618,-0.101975 -0.0248,-0.05099 -0.08957,-0.07579 -0.05788,-0.02205 -0.144695,-0.02343 -0.08544,-0.0028 -0.241157,-0.0028 h -0.04961 v 0.434083 h 0.08268 q 0.125402,0 0.213596,-0.0041 0.0882,-0.0041 0.139183,-0.02756 0.07166,-0.03169 0.09371,-0.08131 0.02205,-0.05099 0.02205,-0.117133 z m 0.129536,0.835093 q 0,-0.09784 -0.03859,-0.150206 -0.03721,-0.05374 -0.128158,-0.07993 -0.06201,-0.01791 -0.170877,-0.01929 -0.108865,-0.0014 -0.227377,-0.0014 h -0.115756 v 0.511253 h 0.03859 q 0.223242,0 0.319705,-0.0014 0.09646,-0.0014 0.177768,-0.03583 0.08268,-0.03445 0.112999,-0.09095 0.03169,-0.05788 0.03169,-0.132292 z m 2.439135,-0.04548 h -1.135507 q 0.01103,0.181901 0.137805,0.278364 0.128157,0.09646 0.376205,0.09646 0.157097,0 0.304547,-0.0565 0.147451,-0.0565 0.232889,-0.121268 h 0.05512 v 0.398254 q -0.168121,0.06752 -0.31695,0.09784 -0.148828,0.03032 -0.329352,0.03032 -0.465778,0 -0.713825,-0.209462 -0.248048,-0.209463 -0.248048,-0.596693 0,-0.383095 0.234267,-0.606338 0.235645,-0.224621 0.644924,-0.224621 0.377583,0 0.567753,0.191548 0.19017,0.19017 0.19017,0.548461 z m -0.493339,-0.290767 q -0.0041,-0.155719 -0.07717,-0.234267 -0.07304,-0.07855 -0.227377,-0.07855 -0.143317,0 -0.235646,0.07442 -0.09233,0.07441 -0.103353,0.238401 z m 2.397793,0.972898 h -0.498851 v -0.76757 q 0,-0.09371 -0.0096,-0.186035 -0.0096,-0.09371 -0.03307,-0.137805 -0.02756,-0.05099 -0.0813,-0.07441 -0.05237,-0.02343 -0.147451,-0.02343 -0.06752,0 -0.137804,0.02205 -0.0689,0.02205 -0.150206,0.07028 v 1.096922 h -0.496096 v -1.547542 h 0.496096 v 0.170878 q 0.132292,-0.103353 0.253559,-0.158475 0.122646,-0.05512 0.271475,-0.05512 0.250803,0 0.391363,0.146073 0.141939,0.146072 0.141939,0.436839 z m 1.960953,0 H 35.826757 V 95.12507 q -0.128158,0.104731 -0.239779,0.15434 -0.111622,0.04961 -0.257694,0.04961 -0.282499,0 -0.451998,-0.217731 -0.169499,-0.21773 -0.169499,-0.587046 0,-0.19706 0.0565,-0.348644 0.05788,-0.152963 0.157096,-0.261828 0.09371,-0.103353 0.227377,-0.159853 0.13367,-0.05788 0.267341,-0.05788 0.139182,0 0.227376,0.03032 0.08957,0.02894 0.18328,0.07441 v -0.658704 h 0.496095 z m -0.496095,-0.427193 v -0.759302 q -0.05237,-0.02205 -0.110243,-0.03169 -0.05788,-0.0096 -0.10611,-0.0096 -0.195682,0 -0.293523,0.122646 -0.09784,0.121268 -0.09784,0.33762 0,0.227377 0.07855,0.33073 0.07855,0.101975 0.252182,0.101975 0.06752,0 0.143316,-0.0248 0.07579,-0.02618 0.13367,-0.06752 z"
       id="text2"
       aria-label="P Bend" />
    <path
       style="font-weight:bold;font-size:2.82223px;-inkscape-font-specification:'sans-serif Bold';fill:#000000;stroke-width:4.087"
       d="m 4.4046059,106.93368 -0.7482769,2.0519 H 3.0637709 l -0.7482768,-2.0519 h 0.555351 l 0.4960951,1.44143 0.4960951,-1.44143 z m 1.7184183,-0.0923 -1.0927873,2.59072 H 4.607178 l 1.0886532,-2.59072 z m 2.0767096,1.37115 q 0,0.38172 -0.2232429,0.6022 -0.2218647,0.21911 -0.624253,0.21911 -0.4023883,0 -0.6256311,-0.21911 -0.2218648,-0.22048 -0.2218648,-0.6022 0,-0.38447 0.2232429,-0.60358 0.2246208,-0.21911 0.624253,-0.21911 0.4051444,0 0.6256311,0.22048 0.2218648,0.22049 0.2218648,0.60221 z m -0.6104727,0.3762 q 0.048231,-0.0593 0.071658,-0.14193 0.024805,-0.0841 0.024805,-0.23152 0,-0.13642 -0.024805,-0.22875 -0.024805,-0.0923 -0.068902,-0.14745 -0.044097,-0.0565 -0.1061092,-0.0799 -0.062012,-0.0234 -0.1336701,-0.0234 -0.071658,0 -0.1281579,0.0193 -0.055122,0.0193 -0.1061092,0.0772 -0.045475,0.0537 -0.073036,0.14745 -0.026183,0.0937 -0.026183,0.23564 0,0.12678 0.023427,0.22049 0.023427,0.0923 0.068902,0.14883 0.044097,0.0537 0.1047312,0.0786 0.062012,0.0248 0.1405603,0.0248 0.067524,0 0.1281579,-0.0221 0.062012,-0.0234 0.1047312,-0.0772 z m 1.7721617,0.43822 q -0.2025722,0 -0.3706933,-0.0482 -0.1667431,-0.0482 -0.2907669,-0.14883 -0.1226457,-0.1006 -0.1901698,-0.25356 -0.067524,-0.15296 -0.067524,-0.35829 0,-0.21635 0.071658,-0.37345 0.073036,-0.1571 0.2025722,-0.26045 0.1254018,-0.0978 0.2893888,-0.14331 0.1639871,-0.0455 0.3403764,-0.0455 0.1584749,0 0.2921449,0.0345 0.1336701,0.0344 0.2494257,0.0896 v 0.42306 h -0.07028 q -0.028939,-0.0248 -0.07028,-0.0579 -0.039963,-0.0331 -0.099219,-0.0648 -0.0565,-0.0303 -0.1240237,-0.0496 -0.067524,-0.0207 -0.1570968,-0.0207 -0.1984381,0 -0.3059254,0.12678 -0.1061092,0.1254 -0.1061092,0.34175 0,0.22324 0.1088653,0.339 0.1102434,0.11575 0.3114375,0.11575 0.093707,0 0.1681211,-0.0207 0.075792,-0.022 0.1254019,-0.051 0.046853,-0.0276 0.082683,-0.0579 0.035829,-0.0303 0.066146,-0.0593 h 0.07028 v 0.42306 q -0.1171336,0.0551 -0.2452915,0.0868 -0.1267799,0.0331 -0.2811206,0.0331 z m 1.8438202,-0.0551 q -0.07993,0.0207 -0.169499,0.0317 -0.08957,0.0124 -0.219108,0.0124 -0.289389,0 -0.431328,-0.11714 -0.14056,-0.11713 -0.14056,-0.40101 v -0.72347 h -0.20395 v -0.33624 h 0.20395 v -0.44235 h 0.496095 v 0.44235 h 0.4644 v 0.33624 h -0.4644 v 0.54846 q 0,0.0813 0.0014,0.14194 0.0014,0.0606 0.02205,0.10887 0.01929,0.0482 0.06752,0.0772 0.04961,0.0276 0.143316,0.0276 0.03859,0 0.100597,-0.0165 0.06339,-0.0165 0.0882,-0.0303 h 0.04134 z"
       id="text3"
       aria-label="V/oct" />
    <path
       style="font-weight:bold;font-size:2.82223px;-inkscape-font-specification:'sans-serif Bold';fill:#000000;stroke-width:4.087"
       d="m 41.113603,108.81985 h -1.480018 v -2.05191 h 0.529169 v 1.65503 h 0.950849 z m 0.786862,0 H 41.40437 v -1.54754 h 0.496095 z m 0.01378,-1.76803 h -0.523656 v -0.37621 h 0.523656 z m 1.959576,1.59026 q 0,0.21773 -0.06201,0.36656 -0.06201,0.14883 -0.173633,0.23289 -0.111622,0.0854 -0.270097,0.12264 -0.157096,0.0386 -0.355534,0.0386 -0.161231,0 -0.318328,-0.0193 -0.155719,-0.0193 -0.270096,-0.0469 v -0.38723 h 0.06063 q 0.09095,0.0358 0.221865,0.0648 0.130914,0.0303 0.234267,0.0303 0.137805,0 0.223243,-0.0262 0.08682,-0.0248 0.132292,-0.0717 0.04272,-0.0441 0.06201,-0.113 0.01929,-0.0689 0.01929,-0.16537 v -0.0289 q -0.08957,0.073 -0.198438,0.11576 -0.108866,0.0427 -0.242536,0.0427 -0.325218,0 -0.501607,-0.19568 -0.176389,-0.19569 -0.176389,-0.59532 0,-0.19155 0.05374,-0.33073 0.05374,-0.13918 0.151585,-0.24253 0.09095,-0.0965 0.223243,-0.15021 0.13367,-0.0537 0.272852,-0.0537 0.125402,0 0.227377,0.0303 0.103353,0.0289 0.187414,0.0813 l 0.01791,-0.0689 h 0.480937 z m -0.496095,-0.31006 v -0.70142 q -0.04272,-0.0179 -0.104732,-0.0276 -0.06201,-0.011 -0.111621,-0.011 -0.195682,0 -0.293523,0.113 -0.09784,0.11162 -0.09784,0.31282 0,0.22324 0.08268,0.31143 0.08406,0.0882 0.248047,0.0882 0.07442,0 0.146073,-0.0234 0.07166,-0.0234 0.130914,-0.062 z m 2.519061,0.48783 h -0.498852 v -0.76757 q 0,-0.0937 -0.0096,-0.18604 -0.0096,-0.0937 -0.03307,-0.1378 -0.02756,-0.051 -0.0813,-0.0744 -0.05237,-0.0234 -0.147451,-0.0234 -0.06752,0 -0.137804,0.022 -0.0689,0.022 -0.150207,0.0703 v 1.09692 h -0.496095 v -2.14424 h 0.496095 v 0.76757 q 0.132292,-0.10335 0.25356,-0.15847 0.122646,-0.0551 0.271474,-0.0551 0.250804,0 0.391364,0.14607 0.141939,0.14607 0.141939,0.43684 z m 1.445566,-0.0138 q -0.07993,0.0207 -0.169499,0.0317 -0.08957,0.0124 -0.219109,0.0124 -0.289389,0 -0.431327,-0.11713 -0.140561,-0.11713 -0.140561,-0.40101 v -0.72347 h -0.20395 v -0.33624 h 0.20395 v -0.44236 h 0.496096 v 0.44236 h 0.4644 v 0.33624 h -0.4644 v 0.54846 q 0,0.0813 0.0014,0.14194 0.0014,0.0606 0.02205,0.10886 0.01929,0.0482 0.06752,0.0772 0.04961,0.0276 0.143317,0.0276 0.03858,0 0.100597,-0.0165 0.06339,-0.0165 0.08819,-0.0303 h 0.04134 z m 1.641248,-0.47681 q 0,0.23978 -0.214975,0.38723 -0.214974,0.14608 -0.588424,0.14608 -0.206706,0 -0.374827,-0.0386 -0.168121,-0.0386 -0.270096,-0.0854 v -0.4079 h 0.04547 q 0.03721,0.0262 0.08544,0.0579 0.04961,0.0303 0.139182,0.0661 0.07717,0.0317 0.175011,0.0551 0.09784,0.0221 0.209463,0.0221 0.146072,0 0.216352,-0.0317 0.07028,-0.0331 0.07028,-0.0965 0,-0.0565 -0.04134,-0.0813 -0.04134,-0.0262 -0.157097,-0.0496 -0.05512,-0.0124 -0.150206,-0.0262 -0.09371,-0.0152 -0.170878,-0.0358 -0.21084,-0.0551 -0.312815,-0.17087 -0.101975,-0.11714 -0.101975,-0.29077 0,-0.22324 0.21084,-0.37069 0.212219,-0.14883 0.578778,-0.14883 0.173633,0 0.332108,0.0358 0.159853,0.0344 0.249426,0.0744 v 0.39136 h -0.04272 q -0.110243,-0.0758 -0.252181,-0.12264 -0.140561,-0.0482 -0.285255,-0.0482 -0.11989,0 -0.202572,0.0331 -0.08131,0.0331 -0.08131,0.0937 0,0.0551 0.03721,0.0841 0.03721,0.0289 0.175012,0.0579 0.07579,0.0152 0.162609,0.0303 0.08819,0.0138 0.176389,0.0358 0.195682,0.051 0.289389,0.16123 0.09371,0.10887 0.09371,0.27285 z"
       id="text5"
       aria-label="Lights" />
    <rect
       style="fill:#ff0000;fill-opacity:0.765203;stroke-width:1.88934"
       id="rect5"
       width="11"
       height="11"
       x="37.897587"
       y="112.04105"
       rx="2"
       ry="2" />
    <rect
       style="fill:#000000;fill-opacity:0.72;stroke-width:1.88934"
       id="rect6"
       width="11"
       height="11"
       x="1.9142389"
       y="112.04105"
       rx="2"
       ry="2" />
    <path
       style="font-weight:bold;font-size:2.82223px;-inkscape-font-specification:'sans-serif Bold';fill:#000000;fill-opacity:0.765203;stroke-width:4.087"
       d="m 12.870285,37.052572 q 0,0.137804 -0.04823,0.270096 -0.04823,0.130914 -0.137804,0.220487 -0.122646,0.121268 -0.274231,0.183279 -0.150206,0.06201 -0.374827,0.06201 h -0.329352 v 0.668351 h -0.52917 V 36.40489 h 0.870923 q 0.195682,0 0.329352,0.03445 0.135048,0.03307 0.238401,0.100597 0.124024,0.08131 0.188792,0.208085 0.06615,0.126779 0.06615,0.304547 z m -0.547083,0.0124 q 0,-0.08682 -0.04685,-0.148828 -0.04685,-0.06339 -0.108865,-0.08819 -0.08268,-0.03307 -0.161231,-0.03583 -0.07855,-0.0041 -0.209463,-0.0041 h -0.09095 v 0.614607 h 0.151585 q 0.135048,0 0.221865,-0.01654 0.0882,-0.01654 0.147451,-0.06615 0.05099,-0.0441 0.07304,-0.104731 0.02343,-0.06201 0.02343,-0.150207 z m 1.390446,1.391823 h -0.496096 v -1.547542 h 0.496096 z m 0.01378,-1.768028 h -0.523657 v -0.376206 h 0.523657 z m 1.444188,1.754247 q -0.07993,0.02067 -0.169499,0.03169 -0.08957,0.0124 -0.219109,0.0124 -0.289389,0 -0.431327,-0.117134 -0.140561,-0.117134 -0.140561,-0.40101 v -0.723462 h -0.203949 v -0.336243 h 0.20395 v -0.442351 h 0.496095 v 0.442351 h 0.464401 v 0.336243 h -0.464401 v 0.54846 q 0,0.08131 0.0014,0.141939 0.0014,0.06063 0.02205,0.108865 0.01929,0.04823 0.06752,0.07717 0.04961,0.02756 0.143316,0.02756 0.03858,0 0.100597,-0.01654 0.06339,-0.01654 0.0882,-0.03032 h 0.04134 z m 1.102434,0.05512 q -0.202572,0 -0.370693,-0.04823 -0.166743,-0.04823 -0.290767,-0.148828 -0.122646,-0.100597 -0.19017,-0.25356 -0.06752,-0.152962 -0.06752,-0.358291 0,-0.216352 0.07166,-0.373449 0.07304,-0.157097 0.202572,-0.26045 0.125402,-0.09784 0.28939,-0.143316 0.163987,-0.04548 0.340376,-0.04548 0.158475,0 0.292145,0.03445 0.133671,0.03445 0.249426,0.08957 v 0.423059 h -0.07028 q -0.02894,-0.02481 -0.07028,-0.05788 -0.03996,-0.03307 -0.09922,-0.06477 -0.0565,-0.03032 -0.124024,-0.04961 -0.06752,-0.02067 -0.157096,-0.02067 -0.198438,0 -0.305926,0.12678 -0.106109,0.125402 -0.106109,0.341754 0,0.223243 0.108865,0.338999 0.110244,0.115755 0.311438,0.115755 0.09371,0 0.168121,-0.02067 0.07579,-0.02205 0.125402,-0.05099 0.04685,-0.02756 0.08268,-0.05788 0.03583,-0.03032 0.06615,-0.05926 h 0.07028 v 0.423059 q -0.117133,0.05512 -0.245291,0.08682 -0.12678,0.03307 -0.281121,0.03307 z m 2.408819,-0.04134 h -0.498852 v -0.76757 q 0,-0.09371 -0.0096,-0.186035 -0.0096,-0.09371 -0.03307,-0.137805 -0.02756,-0.05099 -0.0813,-0.07441 -0.05237,-0.02343 -0.147451,-0.02343 -0.06752,0 -0.137804,0.02205 -0.0689,0.02205 -0.150207,0.07028 v 1.096922 H 17.12849 v -2.144234 h 0.496095 v 0.76757 q 0.132292,-0.103353 0.25356,-0.158475 0.122646,-0.05512 0.271474,-0.05512 0.250804,0 0.391364,0.146073 0.141939,0.146072 0.141939,0.436839 z m 3.203948,-0.628387 q 0,0.148828 -0.06063,0.265962 -0.05926,0.117133 -0.163987,0.194304 -0.121268,0.09095 -0.26734,0.129536 -0.144695,0.03858 -0.367938,0.03858 h -0.895727 v -2.051905 h 0.796508 q 0.248048,0 0.362425,0.01654 0.115756,0.01654 0.228755,0.07304 0.117134,0.05926 0.173634,0.159853 0.05788,0.09922 0.05788,0.227377 0,0.148828 -0.07855,0.263206 -0.07855,0.112999 -0.221865,0.176389 v 0.01102 q 0.201194,0.03996 0.318328,0.165365 0.118512,0.125402 0.118512,0.330731 z M 21.20882,36.985045 q 0,-0.05099 -0.02618,-0.101975 -0.0248,-0.05099 -0.08957,-0.07579 -0.05788,-0.02205 -0.144694,-0.02343 -0.08544,-0.0028 -0.241157,-0.0028 h -0.04961 v 0.434083 h 0.08268 q 0.125402,0 0.213596,-0.0041 0.0882,-0.0041 0.139182,-0.02756 0.07166,-0.03169 0.09371,-0.08131 0.02205,-0.05099 0.02205,-0.117133 z m 0.129536,0.835093 q 0,-0.09784 -0.03859,-0.150206 -0.03721,-0.05374 -0.128158,-0.07993 -0.06201,-0.01791 -0.170877,-0.01929 -0.108866,-0.0014 -0.227377,-0.0014 h -0.115756 v 0.511253 h 0.03858 q 0.223243,0 0.319706,-0.0014 0.09646,-0.0014 0.177768,-0.03583 0.08268,-0.03445 0.112999,-0.09095 0.0317,-0.05788 0.0317,-0.132292 z m 2.439135,-0.04547 h -1.135507 q 0.01102,0.181901 0.137804,0.278364 0.128158,0.09646 0.376206,0.09646 0.157097,0 0.304547,-0.0565 0.147451,-0.0565 0.232889,-0.121268 h 0.05512 v 0.398254 q -0.168121,0.06752 -0.31695,0.09784 -0.148828,0.03032 -0.329352,0.03032 -0.465778,0 -0.713826,-0.209462 -0.248047,-0.209463 -0.248047,-0.596693 0,-0.383095 0.234267,-0.606338 0.235645,-0.224621 0.644924,-0.224621 0.377583,0 0.567753,0.191548 0.19017,0.19017 0.19017,0.548461 z m -0.493339,-0.290769 q -0.0041,-0.155719 -0.07717,-0.234267 -0.07304,-0.07855 -0.227377,-0.07855 -0.143316,0 -0.235645,0.07441 -0.09233,0.07441 -0.103353,0.238401 z m 2.397793,0.972898 h -0.498852 v -0.76757 q 0,-0.09371 -0.0096,-0.186035 -0.0096,-0.09371 -0.03307,-0.137805 -0.02756,-0.05099 -0.0813,-0.07441 -0.05237,-0.02343 -0.147451,-0.02343 -0.06752,0 -0.137804,0.02205 -0.0689,0.02205 -0.150207,0.07028 v 1.096922 h -0.496095 v -1.547542 h 0.496095 v 0.170878 q 0.132292,-0.103353 0.25356,-0.158475 0.122646,-0.05512 0.271474,-0.05512 0.250804,0 0.391364,0.146073 0.141939,0.146072 0.141939,0.436839 z m 1.960953,0 h -0.496095 v -0.161231 q -0.128158,0.104731 -0.23978,0.15434 -0.111621,0.04961 -0.257693,0.04961 -0.282499,0 -0.451998,-0.217731 -0.169499,-0.21773 -0.169499,-0.587046 0,-0.19706 0.0565,-0.348644 0.05788,-0.152963 0.157097,-0.261828 0.09371,-0.103353 0.227377,-0.159853 0.13367,-0.05788 0.26734,-0.05788 0.139183,0 0.227377,0.03032 0.08957,0.02894 0.18328,0.07441 V 36.31256 h 0.496095 z m -0.496095,-0.427193 v -0.759301 q -0.05237,-0.02205 -0.110244,-0.03169 -0.05788,-0.0096 -0.106109,-0.0096 -0.195682,0 -0.293523,0.122646 -0.09784,0.121268 -0.09784,0.33762 0,0.227377 0.07855,0.33073 0.07855,0.101975 0.252181,0.101975 0.06752,0 0.143317,-0.0248 0.07579,-0.02618 0.13367,-0.06752 z m 3.107484,-0.996325 q 0,-0.07717 -0.03169,-0.132292 -0.03169,-0.05512 -0.108865,-0.08682 -0.05374,-0.02205 -0.125402,-0.02618 -0.07166,-0.0055 -0.166743,-0.0055 h -0.191553 v 0.552594 h 0.162609 q 0.12678,0 0.212219,-0.0124 0.08544,-0.0124 0.143316,-0.0565 0.05512,-0.04272 0.07993,-0.09371 0.02618,-0.05237 0.02618,-0.139183 z m 0.825448,1.423518 h -0.646302 l -0.559485,-0.752411 h -0.243914 v 0.752411 h -0.526412 v -2.051905 h 0.887459 q 0.181902,0 0.312816,0.02067 0.130914,0.02067 0.245291,0.08957 0.115756,0.0689 0.18328,0.179146 0.0689,0.108865 0.0689,0.27423 0,0.227377 -0.106109,0.370694 -0.104731,0.143316 -0.300413,0.238401 z m 1.141019,-0.403767 v -0.322461 q -0.100597,0.0083 -0.21773,0.02343 -0.117134,0.01378 -0.177768,0.03307 -0.07441,0.02343 -0.114377,0.0689 -0.03859,0.0441 -0.03859,0.117134 0,0.04823 0.0083,0.07855 0.0083,0.03032 0.04134,0.05788 0.03169,0.02756 0.07579,0.04134 0.0441,0.0124 0.137804,0.0124 0.07441,0 0.150206,-0.03032 0.07717,-0.03032 0.135048,-0.07993 z m 0,0.23978 q -0.03996,0.03032 -0.09922,0.07304 -0.05926,0.04272 -0.111621,0.06752 -0.07304,0.03307 -0.151585,0.04823 -0.07855,0.01654 -0.172255,0.01654 -0.220487,0 -0.369315,-0.136426 -0.148829,-0.136426 -0.148829,-0.348645 0,-0.169499 0.07579,-0.276986 0.07579,-0.107488 0.214974,-0.169499 0.137804,-0.06201 0.341755,-0.0882 0.20395,-0.02618 0.423059,-0.03858 v -0.0083 q 0,-0.128157 -0.104732,-0.176389 -0.104731,-0.04961 -0.308681,-0.04961 -0.122646,0 -0.261828,0.0441 -0.139182,0.04272 -0.199816,0.06615 h -0.04548 v -0.373426 q 0.07855,-0.02067 0.254938,-0.04823 0.177768,-0.02894 0.355535,-0.02894 0.423059,0 0.610473,0.130914 0.188791,0.129536 0.188791,0.407901 v 1.052824 h -0.491953 z m 2.502524,0.163987 h -0.498851 v -0.76757 q 0,-0.09371 -0.0096,-0.186035 -0.0096,-0.09371 -0.03307,-0.137805 -0.02756,-0.05099 -0.0813,-0.07441 -0.05237,-0.02343 -0.147451,-0.02343 -0.06752,0 -0.137804,0.02205 -0.0689,0.02205 -0.150207,0.07028 v 1.096922 H 33.1689 v -1.547542 h 0.496095 v 0.170878 q 0.132292,-0.103353 0.25356,-0.158475 0.122646,-0.05512 0.271474,-0.05512 0.250804,0 0.391364,0.146073 0.141939,0.146072 0.141939,0.436839 z m 1.960953,-0.177768 q 0,0.217731 -0.06201,0.366559 -0.06201,0.148829 -0.173633,0.23289 -0.111621,0.08544 -0.270096,0.122645 -0.157097,0.03858 -0.355535,0.03858 -0.161231,0 -0.318328,-0.01929 -0.155719,-0.01929 -0.270096,-0.04685 v -0.387229 h 0.06063 q 0.09095,0.03583 0.221865,0.06477 0.130914,0.03032 0.234267,0.03032 0.137804,0 0.223242,-0.02618 0.08682,-0.0248 0.132293,-0.07166 0.04272,-0.0441 0.06201,-0.113 0.01929,-0.0689 0.01929,-0.165365 v -0.02894 q -0.08957,0.07304 -0.198438,0.115756 -0.108865,0.04272 -0.242535,0.04272 -0.325218,0 -0.501608,-0.195682 -0.176389,-0.195682 -0.176389,-0.595314 0,-0.191548 0.05374,-0.33073 0.05374,-0.139182 0.151585,-0.242536 0.09095,-0.09646 0.223243,-0.150206 0.13367,-0.05374 0.272852,-0.05374 0.125402,0 0.227377,0.03032 0.103353,0.02894 0.187414,0.08131 l 0.01791,-0.0689 h 0.480937 z M 36.188136,37.96897 v -0.701424 q -0.04272,-0.01791 -0.104731,-0.02756 -0.06201,-0.01103 -0.111622,-0.01103 -0.195682,0 -0.293523,0.113 -0.09784,0.111621 -0.09784,0.312815 0,0.223243 0.08268,0.311438 0.08406,0.08819 0.248048,0.08819 0.07441,0 0.146072,-0.02343 0.07166,-0.02343 0.130914,-0.06201 z m 2.488746,-0.194304 h -1.135507 q 0.01103,0.181901 0.137804,0.278364 0.128158,0.09646 0.376206,0.09646 0.157097,0 0.304547,-0.0565 0.147451,-0.0565 0.232889,-0.121268 h 0.05512 v 0.398254 q -0.168121,0.06752 -0.31695,0.09784 -0.148828,0.03032 -0.329352,0.03032 -0.465778,0 -0.713826,-0.209462 -0.248047,-0.209463 -0.248047,-0.596693 0,-0.383095 0.234267,-0.606338 0.235645,-0.224621 0.644924,-0.224621 0.377583,0 0.567753,0.191548 0.19017,0.19017 0.19017,0.548461 z m -0.493339,-0.290767 q -0.0041,-0.155719 -0.07717,-0.234267 -0.07304,-0.07855 -0.227376,-0.07855 -0.143317,0 -0.235646,0.07441 -0.09233,0.07441 -0.103353,0.238401 z"
       id="text9"
       aria-label="Pitch Bend Range" />
    <path
       style="font-weight:bold;font-size:2.82223px;-inkscape-font-specification:'sans-serif Bold';fill:#000000;fill-opacity:0.765203;stroke-width:4.087"
       d="m 15.701305,42.874516 h -0.649058 l -0.613229,-0.821314 -0.124024,0.150207 v 0.671107 h -0.529168 v -2.051905 h 0.529168 v 0.9288 l 0.733119,-0.9288 h 0.613228 l -0.80202,0.949471 z m 1.757003,-0.682131 h -1.135506 q 0.01102,0.181901 0.137804,0.278364 0.128158,0.09646 0.376205,0.09646 0.157097,0 0.304548,-0.0565 0.14745,-0.0565 0.232889,-0.121267 h 0.05512 v 0.398254 q -0.168121,0.06752 -0.316949,0.09784 -0.148829,0.03032 -0.329352,0.03032 -0.465779,0 -0.713826,-0.209463 -0.248048,-0.209462 -0.248048,-0.596692 0,-0.383095 0.234267,-0.606338 0.235646,-0.224621 0.644924,-0.224621 0.377584,0 0.567753,0.191548 0.19017,0.190169 0.19017,0.54846 z m -0.493339,-0.290767 q -0.0041,-0.155719 -0.07717,-0.234267 -0.07304,-0.07855 -0.227377,-0.07855 -0.143316,0 -0.235645,0.07442 -0.09233,0.07441 -0.103353,0.238401 z m 1.542029,0.425815 0.352779,-1.000459 h 0.509876 l -0.859899,2.115295 h -0.537436 l 0.245291,-0.578778 -0.602204,-1.536517 h 0.5209 z"
       id="text10"
       aria-label="Key" />
    <path
       style="font-weight:bold;font-size:2.82223px;-inkscape-font-specification:'sans-serif Bold';fill:#000000;fill-opacity:0.765203;stroke-width:4.087"
       d="m 28.927065,42.757382 q -0.137805,0.05374 -0.365182,0.107487 -0.227377,0.05237 -0.453375,0.05237 -0.523656,0 -0.819935,-0.283877 -0.29628,-0.285255 -0.29628,-0.786862 0,-0.47818 0.299036,-0.770325 0.299035,-0.293523 0.833715,-0.293523 0.202572,0 0.385852,0.03721 0.183279,0.03583 0.4079,0.144694 v 0.480937 h -0.05926 q -0.03858,-0.02894 -0.112999,-0.08131 -0.07441,-0.05374 -0.143316,-0.09095 -0.07993,-0.0441 -0.187414,-0.07579 -0.106109,-0.03169 -0.225999,-0.03169 -0.14056,0 -0.254938,0.04134 -0.114377,0.04134 -0.205328,0.12678 -0.08682,0.08268 -0.137804,0.21084 -0.04961,0.12678 -0.04961,0.293523 0,0.340376 0.180524,0.5209 0.180523,0.180523 0.533302,0.180523 0.03032,0 0.06615,-0.0014 0.03721,-0.0014 0.06752,-0.0041 V 42.131751 H 27.98035 v -0.38723 h 0.946715 z m 0.94258,0.117134 H 29.37355 v -2.144234 h 0.496095 z m 2.050527,-0.773082 q 0,0.381718 -0.223243,0.602204 -0.221865,0.219109 -0.624253,0.219109 -0.402388,0 -0.625631,-0.219109 -0.221865,-0.220486 -0.221865,-0.602204 0,-0.384474 0.223243,-0.603582 0.224621,-0.219109 0.624253,-0.219109 0.405144,0 0.625631,0.220487 0.221865,0.220486 0.221865,0.602204 z m -0.610473,0.376205 q 0.04823,-0.05926 0.07166,-0.141938 0.0248,-0.08406 0.0248,-0.231511 0,-0.136426 -0.0248,-0.228755 -0.0248,-0.09233 -0.0689,-0.14745 -0.0441,-0.0565 -0.106109,-0.07993 -0.06201,-0.02343 -0.13367,-0.02343 -0.07166,0 -0.128158,0.01929 -0.05512,0.01929 -0.106109,0.07717 -0.04548,0.05374 -0.07304,0.147451 -0.02618,0.09371 -0.02618,0.235645 0,0.12678 0.02343,0.220487 0.02343,0.09233 0.0689,0.148828 0.0441,0.05374 0.104731,0.07855 0.06201,0.0248 0.14056,0.0248 0.06752,0 0.128158,-0.02205 0.06201,-0.02343 0.104731,-0.07717 z m 2.581073,-0.398254 q 0,0.365181 -0.202572,0.595314 -0.201194,0.230133 -0.502986,0.230133 -0.129536,0 -0.227377,-0.02756 -0.09784,-0.02756 -0.186035,-0.07993 l -0.02067,0.07717 h -0.475424 v -2.144234 h 0.496095 v 0.757923 q 0.114377,-0.09095 0.232889,-0.14745 0.11989,-0.0565 0.275608,-0.0565 0.293523,0 0.451998,0.212218 0.158475,0.210841 0.158475,0.582912 z m -0.511254,0.0096 q 0,-0.206707 -0.07028,-0.318328 -0.07028,-0.111622 -0.250803,-0.111622 -0.07028,0 -0.144695,0.02205 -0.07441,0.02067 -0.141938,0.06063 v 0.777216 q 0.05374,0.01929 0.101975,0.02618 0.04823,0.0069 0.115755,0.0069 0.19706,0 0.293523,-0.115756 0.09646,-0.115755 0.09646,-0.347266 z m 1.806614,0.381717 v -0.322462 q -0.100598,0.0083 -0.217731,0.02343 -0.117134,0.01378 -0.177768,0.03307 -0.07441,0.02343 -0.114377,0.0689 -0.03859,0.0441 -0.03859,0.117134 0,0.04823 0.0083,0.07855 0.0083,0.03032 0.04134,0.05788 0.03169,0.02756 0.07579,0.04134 0.0441,0.0124 0.137804,0.0124 0.07441,0 0.150206,-0.03032 0.07717,-0.03032 0.135049,-0.07993 z m 0,0.23978 q -0.03996,0.03032 -0.09922,0.07304 -0.05926,0.04272 -0.111621,0.06752 -0.07304,0.03307 -0.151585,0.04823 -0.07855,0.01654 -0.172255,0.01654 -0.220487,0 -0.369315,-0.136426 -0.148829,-0.136427 -0.148829,-0.348645 0,-0.169499 0.07579,-0.276986 0.07579,-0.107488 0.214974,-0.1695 0.137804,-0.06201 0.341755,-0.08819 0.20395,-0.02618 0.423059,-0.03859 v -0.0083 q 0,-0.128158 -0.104732,-0.176389 -0.104731,-0.04961 -0.308681,-0.04961 -0.122646,0 -0.261828,0.0441 -0.139182,0.04272 -0.199816,0.06615 h -0.04548 v -0.37345 q 0.07855,-0.02067 0.254937,-0.04823 0.177768,-0.02894 0.355535,-0.02894 0.423059,0 0.610473,0.130914 0.188792,0.129536 0.188792,0.4079 v 1.052825 h -0.491961 z m 1.444188,0.163987 h -0.496095 v -2.144234 h 0.496095 z"
       id="text14"
       aria-label="Global" />
    <path
       style="font-weight:bold;font-size:2.82223px;-inkscape-font-specification:'sans-serif Bold';fill:#000000;fill-opacity:0.765203;stroke-width:4.087"
       d="M 7.5581403,21.232035 H 6.9793627 L 6.6486326,20.769013 6.3096342,21.232035 H 5.7418809 l 0.6104726,-0.773082 -0.6008263,-0.77446 h 0.5787777 l 0.3252179,0.454754 0.326596,-0.454754 h 0.5691313 l -0.6022044,0.762058 z m 2.4129518,-1.423518 q 0,-0.07717 -0.031695,-0.132292 -0.031695,-0.05512 -0.1088653,-0.08682 -0.053744,-0.02205 -0.1254018,-0.02618 -0.071658,-0.0055 -0.1667431,-0.0055 H 9.346839 v 0.552594 h 0.162609 q 0.1267799,0 0.2122185,-0.0124 0.085439,-0.0124 0.1433164,-0.0565 0.055122,-0.04272 0.079926,-0.09371 0.026183,-0.05237 0.026183,-0.139183 z m 0.8254469,1.423518 H 10.150238 L 9.5907525,20.479624 H 9.346839 v 0.752411 H 8.820427 V 19.18013 h 0.8874591 q 0.1819015,0 0.3128159,0.02067 0.130914,0.02067 0.245291,0.08957 0.115756,0.0689 0.18328,0.179146 0.0689,0.108865 0.0689,0.27423 0,0.227377 -0.106109,0.370694 -0.104732,0.143316 -0.300414,0.238401 z m 1.785942,-0.773082 q 0,0.381718 -0.223242,0.602204 -0.221865,0.219109 -0.624253,0.219109 -0.402389,0 -0.625632,-0.219109 -0.221864,-0.220486 -0.221864,-0.602204 0,-0.384474 0.223243,-0.603582 0.22462,-0.219109 0.624253,-0.219109 0.405144,0 0.625631,0.220487 0.221864,0.220486 0.221864,0.602204 z m -0.610472,0.376206 q 0.04823,-0.05926 0.07166,-0.141939 0.02481,-0.08406 0.02481,-0.231511 0,-0.136426 -0.02481,-0.228755 -0.0248,-0.09233 -0.0689,-0.14745 -0.0441,-0.0565 -0.106109,-0.07993 -0.06201,-0.02343 -0.13367,-0.02343 -0.07166,0 -0.128158,0.01929 -0.05512,0.01929 -0.10611,0.07717 -0.04548,0.05374 -0.07304,0.147451 -0.02618,0.09371 -0.02618,0.235645 0,0.12678 0.02343,0.220487 0.02343,0.09233 0.0689,0.148828 0.0441,0.05374 0.104731,0.07855 0.06201,0.0248 0.140561,0.0248 0.06752,0 0.128158,-0.02205 0.06201,-0.02343 0.104731,-0.07717 z m 3.434081,-1.150666 -0.479559,1.547542 h -0.526412 l -0.315572,-1.043178 -0.310059,1.043178 h -0.533302 l -0.475425,-1.547542 h 0.5209 l 0.264584,1.066605 0.33073,-1.066605 h 0.439596 l 0.314193,1.066605 0.26045,-1.066605 z"
       id="text15"
       aria-label="x Row" />
    <path
       style="font-weight:bold;font-size:2.82223px;-inkscape-font-specification:'sans-serif Bold';fill:#000000;fill-opacity:0.765203;stroke-width:4.087"
       d="m 22.840166,21.232035 h -0.578778 l -0.33073,-0.463022 -0.338998,0.463022 h -0.567754 l 0.610473,-0.773082 -0.600826,-0.77446 h 0.578777 l 0.325218,0.454754 0.326596,-0.454754 h 0.569131 l -0.602204,0.762058 z m 2.189709,0.03996 q -0.228755,0 -0.423059,-0.06752 -0.192926,-0.06752 -0.332108,-0.201194 -0.139183,-0.13367 -0.216353,-0.333486 -0.07579,-0.199817 -0.07579,-0.461645 0,-0.243913 0.07304,-0.442351 0.07304,-0.198438 0.212218,-0.340376 0.13367,-0.136427 0.33073,-0.210841 0.198439,-0.07441 0.432706,-0.07441 0.129536,0 0.232889,0.01516 0.104731,0.01378 0.192926,0.03721 0.09233,0.02618 0.166743,0.05926 0.07579,0.03169 0.132292,0.05926 v 0.497473 h -0.06063 q -0.03858,-0.03307 -0.09784,-0.07855 -0.05788,-0.04548 -0.132292,-0.08957 -0.07579,-0.0441 -0.163987,-0.07441 -0.08819,-0.03032 -0.188792,-0.03032 -0.111621,0 -0.212218,0.03583 -0.100597,0.03445 -0.186036,0.115756 -0.0813,0.07855 -0.132292,0.208084 -0.04961,0.129536 -0.04961,0.314193 0,0.192926 0.05374,0.322462 0.05512,0.129536 0.137804,0.203951 0.08406,0.07579 0.187414,0.108865 0.103353,0.03169 0.20395,0.03169 0.09646,0 0.19017,-0.02894 0.09509,-0.02894 0.175011,-0.07855 0.06752,-0.03996 0.125402,-0.08544 0.05788,-0.04547 0.09508,-0.07855 h 0.05512 v 0.490583 q -0.07717,0.03445 -0.147451,0.06477 -0.07028,0.03032 -0.14745,0.05237 -0.100597,0.02894 -0.188792,0.0441 -0.0882,0.01516 -0.242535,0.01516 z m 2.669267,-0.813045 q 0,0.381718 -0.223243,0.602204 -0.221865,0.219109 -0.624253,0.219109 -0.402388,0 -0.625631,-0.219109 -0.221865,-0.220486 -0.221865,-0.602204 0,-0.384474 0.223243,-0.603582 0.224621,-0.219109 0.624253,-0.219109 0.405145,0 0.625631,0.220487 0.221865,0.220486 0.221865,0.602204 z m -0.610473,0.376206 q 0.04823,-0.05926 0.07166,-0.141939 0.0248,-0.08406 0.0248,-0.231511 0,-0.136426 -0.0248,-0.228755 -0.02481,-0.09233 -0.0689,-0.14745 -0.0441,-0.0565 -0.106109,-0.07993 -0.06201,-0.02343 -0.13367,-0.02343 -0.07166,0 -0.128158,0.01929 -0.05512,0.01929 -0.106109,0.07717 -0.04547,0.05374 -0.07304,0.147451 -0.02618,0.09371 -0.02618,0.235645 0,0.12678 0.02343,0.220487 0.02343,0.09233 0.0689,0.148828 0.0441,0.05374 0.104731,0.07855 0.06201,0.0248 0.14056,0.0248 0.06752,0 0.128158,-0.02205 0.06201,-0.02343 0.104731,-0.07717 z m 1.462103,0.396876 h -0.496095 v -2.144234 h 0.496095 z"
       id="text16"
       aria-label="x Col" />
    <path
       style="font-weight:bold;font-size:2.82223px;-inkscape-font-specification:'sans-serif Bold';fill:#000000;fill-opacity:0.765203;stroke-width:4.087"
       d="m 37.119657,20.504428 h -0.734496 v 0.727607 h -0.377584 v -0.727607 h -0.734496 v -0.369315 h 0.734496 v -0.727606 h 0.377584 v 0.727606 h 0.734496 z m 3.081302,-0.04547 q 0,0.381718 -0.223243,0.602204 -0.221864,0.219109 -0.624253,0.219109 -0.402388,0 -0.625631,-0.219109 -0.221864,-0.220486 -0.221864,-0.602204 0,-0.384474 0.223242,-0.603582 0.224621,-0.219109 0.624253,-0.219109 0.405145,0 0.625631,0.220487 0.221865,0.220486 0.221865,0.602204 z m -0.610472,0.376206 q 0.04823,-0.05926 0.07166,-0.141939 0.02481,-0.08406 0.02481,-0.231511 0,-0.136426 -0.02481,-0.228755 -0.02481,-0.09233 -0.0689,-0.14745 -0.0441,-0.0565 -0.10611,-0.07993 -0.06201,-0.02343 -0.13367,-0.02343 -0.07166,0 -0.128158,0.01929 -0.05512,0.01929 -0.106109,0.07717 -0.04548,0.05374 -0.07304,0.147451 -0.02618,0.09371 -0.02618,0.235645 0,0.12678 0.02343,0.220487 0.02343,0.09233 0.0689,0.148828 0.0441,0.05374 0.104731,0.07855 0.06201,0.0248 0.140561,0.0248 0.06752,0 0.128157,-0.02205 0.06201,-0.02343 0.104732,-0.07717 z m 1.969222,-1.383555 h -0.03721 q -0.03307,-0.0096 -0.08682,-0.02205 -0.05237,-0.0124 -0.112999,-0.0124 -0.146073,0 -0.198439,0.05237 -0.05099,0.05237 -0.05099,0.202572 v 0.0124 h 0.383096 v 0.336243 h -0.36656 v 1.211299 h -0.496095 v -1.211299 h -0.212218 v -0.336243 h 0.212218 v -0.04272 q 0,-0.283876 0.150207,-0.425815 0.151584,-0.141938 0.45751,-0.141938 0.110243,0 0.199816,0.0083 0.08957,0.0069 0.158475,0.01929 z m 1.192006,0 h -0.03721 q -0.03307,-0.0096 -0.08682,-0.02205 -0.05237,-0.0124 -0.112999,-0.0124 -0.146073,0 -0.198438,0.05237 -0.05099,0.05237 -0.05099,0.202572 v 0.0124 h 0.383096 v 0.336243 h -0.366559 v 1.211299 h -0.496096 v -1.211299 h -0.212218 v -0.336243 h 0.212218 v -0.04272 q 0,-0.283876 0.150207,-0.425815 0.151585,-0.141938 0.45751,-0.141938 0.110243,0 0.199816,0.0083 0.08957,0.0069 0.158475,0.01929 z m 1.533761,1.289848 q 0,0.239779 -0.214975,0.38723 -0.214974,0.146072 -0.588424,0.146072 -0.206706,0 -0.374827,-0.03859 -0.168121,-0.03859 -0.270096,-0.08544 v -0.4079 h 0.04548 q 0.03721,0.02618 0.08544,0.05788 0.04961,0.03032 0.139182,0.06615 0.07717,0.03169 0.175011,0.05512 0.09784,0.02205 0.209463,0.02205 0.146072,0 0.216352,-0.03169 0.07028,-0.03307 0.07028,-0.09646 0,-0.0565 -0.04134,-0.0813 -0.04134,-0.02618 -0.157097,-0.04961 -0.05512,-0.0124 -0.150206,-0.02618 -0.09371,-0.01516 -0.170877,-0.03583 -0.210841,-0.05512 -0.312816,-0.170877 -0.101975,-0.117134 -0.101975,-0.290767 0,-0.223243 0.21084,-0.370693 0.212219,-0.148829 0.578778,-0.148829 0.173633,0 0.332108,0.03583 0.159853,0.03445 0.249426,0.07441 v 0.391363 h -0.04272 q -0.110243,-0.07579 -0.252181,-0.122645 -0.140561,-0.04823 -0.285255,-0.04823 -0.11989,0 -0.202572,0.03307 -0.08131,0.03307 -0.08131,0.09371 0,0.05512 0.03721,0.08406 0.03721,0.02894 0.175011,0.05788 0.07579,0.01516 0.162609,0.03032 0.08819,0.01378 0.176389,0.03583 0.195682,0.05099 0.289389,0.161231 0.09371,0.108866 0.09371,0.272853 z m 1.853467,-0.191548 h -1.135507 q 0.01102,0.181901 0.137804,0.278364 0.128158,0.09646 0.376206,0.09646 0.157096,0 0.304547,-0.0565 0.14745,-0.0565 0.232889,-0.121268 h 0.05512 v 0.398254 q -0.168121,0.06752 -0.31695,0.09784 -0.148829,0.03032 -0.329352,0.03032 -0.465778,0 -0.713826,-0.209462 -0.248047,-0.209463 -0.248047,-0.596693 0,-0.383095 0.234267,-0.606338 0.235645,-0.224621 0.644923,-0.224621 0.377584,0 0.567754,0.191548 0.19017,0.19017 0.19017,0.548461 z m -0.49334,-0.290767 q -0.0041,-0.155719 -0.07717,-0.234267 -0.07304,-0.07855 -0.227377,-0.07855 -0.143316,0 -0.235645,0.07441 -0.09233,0.07441 -0.103353,0.238401 z m 1.832796,0.959117 q -0.07993,0.02067 -0.169499,0.03169 -0.08957,0.0124 -0.219109,0.0124 -0.289389,0 -0.431327,-0.117134 -0.14056,-0.117134 -0.14056,-0.40101 v -0.723472 h -0.20395 v -0.336243 h 0.20395 v -0.442351 h 0.496095 v 0.442351 h 0.4644 v 0.336243 h -0.4644 v 0.54846 q 0,0.0813 0.0014,0.141939 0.0014,0.06063 0.02205,0.108865 0.01929,0.04823 0.06752,0.07717 0.04961,0.02756 0.143316,0.02756 0.03858,0 0.100597,-0.01654 0.06339,-0.01654 0.08819,-0.03032 h 0.04134 z"
       id="text17"
       aria-label="+ offset" />
  </g>
  <g
     inkscape:groupmode="layer"
     id="layer2"
     inkscape:label="components"
     style="display:none">
    <circle
       style="fill:#0000ff;fill-opacity:1;stroke-width:0.313059"
       id="out1"
       cx="7.2752151"
       cy="117.82996"
       inkscape:label="out_voct"
       r="4" />
    <circle
       style="fill:#0000ff;fill-opacity:1;stroke-width:0.313059"
       id="ellipse7"
       cx="43.508644"
       cy="117.82996"
       inkscape:label="out_lights"
       r="4" />
    <circle
       style="fill:#00ff00;fill-opacity:1;stroke-width:0.313059"
       id="circle1"
       cx="6.7046099"
       cy="101.28241"
       inkscape:label="in_k"
       r="4" />
    <circle
       style="fill:#00ff00;fill-opacity:1;stroke-width:0.313;stroke-dasharray:none"
       id="circle2"
       cx="18.782423"
       cy="101.28241"
       inkscape:label="in_x"
       r="4" />
    <circle
       style="fill:#00ff00;fill-opacity:1;stroke-width:0.313059"
       id="circle3"
       cx="30.860233"
       cy="101.28241"
       inkscape:label="in_g_pb"
       r="4" />
    <circle
       style="fill:#ff0000;fill-opacity:1;stroke-width:0.313059"
       id="circle5"
       cx="16.519674"
       cy="48.530014"
       inkscape:label="p_keyPbr"
       r="4" />
    <circle
       style="fill:#ff0000;fill-opacity:1;stroke-width:0.313;stroke-dasharray:none"
       id="circle6"
       cx="32.116226"
       cy="48.530014"
       inkscape:label="p_globalPbr"
       r="4" />
    <circle
       style="fill:#ff0000;fill-opacity:1;stroke-width:0.313059"
       id="circle7"
       cx="10.128242"
       cy="26.980858"
       inkscape:label="p_row_mult"
       r="4" />
    <circle
       style="fill:#ff0000;fill-opacity:1;stroke-width:0.313;stroke-dasharray:none"
       id="circle8"
       cx="25.724785"
       cy="26.980858"
       inkscape:label="p_col_mult"
       r="4" />
    <circle
       style="fill:#ff0000;fill-opacity:1;stroke-width:0.313;stroke-dasharray:none"
       id="circle9"
       cx="41.321327"
       cy="26.980858"
       inkscape:label="p_offset"
       r="4" />
    <text
       xml:space="preserve"
       transform="scale(0.26458333)"
       id="text7"
       style="font-weight:bold;font-size:10.6667px;font-family:sans-serif;-inkscape-font-specification:'sans-serif Bold';white-space:pre;shape-inside:url(#rect7);display:inline;fill:#000000;fill-opacity:0.765203;stroke-width:15.4469" />
  </g>
</svg>
