<?xml version="1.0" encoding="UTF-8" standalone="no"?>
<!-- Created with Inkscape (http://www.inkscape.org/) -->

<svg
   width="106.68mm"
   height="128.5mm"
   viewBox="0 0 106.67999 128.5"
   version="1.1"
   id="svg1"
   inkscape:version="1.3 (0e150ed, 2023-07-21)"
   sodipodi:docname="ESplit4.svg"
   xmlns:inkscape="http://www.inkscape.org/namespaces/inkscape"
   xmlns:sodipodi="http://sodipodi.sourceforge.net/DTD/sodipodi-0.dtd"
   xmlns="http://www.w3.org/2000/svg"
   xmlns:svg="http://www.w3.org/2000/svg">
  <sodipodi:namedview
     id="namedview1"
     pagecolor="#ffffff"
     bordercolor="#000000"
     borderopacity="0.25"
     inkscape:showpageshadow="2"
     inkscape:pageopacity="0.0"
     inkscape:pagecheckerboard="0"
     inkscape:deskcolor="#d1d1d1"
     inkscape:document-units="mm"
     inkscape:zoom="0.92737795"
     inkscape:cx="113.22245"
     inkscape:cy="334.81495"
     inkscape:window-width="1552"
     inkscape:window-height="1146"
     inkscape:window-x="548"
     inkscape:window-y="25"
     inkscape:window-maximized="0"
     inkscape:current-layer="layer1"
     showgrid="false"
     showguides="true"
     showborder="false">
    <inkscape:grid
       id="grid1"
       units="mm"
       originx="0"
       originy="0"
       spacingx="0.99999998"
       spacingy="1"
       empcolor="#0099e5"
       empopacity="0.30196078"
       color="#0099e5"
       opacity="0.14901961"
       empspacing="5"
       dotted="false"
       gridanglex="30"
       gridanglez="30"
       visible="false" />
  </sodipodi:namedview>
  <defs
     id="defs1" />
  <g
     inkscape:label="background"
     inkscape:groupmode="layer"
     id="layer1"
     style="display:inline;fill:#ffffff">
    <rect
       style="display:inline;fill:#ffffff;fill-opacity:1;stroke-width:4.41445"
       id="background"
       width="106.68"
       height="128.5"
       x="2.0636746e-06"
       y="-5.5511151e-17"
       inkscape:label="background"
       sodipodi:insensitive="true" />
    <path
       style="font-weight:bold;font-size:4.23333px;-inkscape-font-specification:'sans-serif Bold';fill:#ff0000;stroke-width:4.087"
       d="M 45.152599,6.6033978 H 44.362983 V 4.5425435 l -0.570507,1.3373849 h -0.54777 L 42.674199,4.5425435 V 6.6033978 H 41.925925 V 3.5255521 h 0.921907 l 0.692463,1.5440905 0.690397,-1.5440905 h 0.921907 z m 3.030303,-1.0231925 h -1.703253 q 0.01654,0.2728514 0.206705,0.4175453 0.192236,0.1446939 0.564306,0.1446939 0.235645,0 0.45682,-0.084749 0.221174,-0.084749 0.349332,-0.1819009 h 0.08268 v 0.5973787 q -0.252181,0.1012858 -0.475423,0.146761 -0.223242,0.045475 -0.494026,0.045475 -0.698665,0 -1.070735,-0.3141924 -0.37207,-0.3141925 -0.37207,-0.8950351 0,-0.5746414 0.3514,-0.9095044 0.353466,-0.3369301 0.967382,-0.3369301 0.566373,0 0.851627,0.2873207 Q 48.1829,4.7823217 48.1829,5.3197561 Z M 47.442896,5.1440566 Q 47.436696,4.9104793 47.327141,4.7926572 47.217587,4.674835 46.986077,4.674835 q -0.214974,0 -0.353466,0.111621 -0.138493,0.111621 -0.15503,0.3576006 z m 2.749185,1.4386707 q -0.11989,0.031006 -0.254248,0.047542 -0.134359,0.018603 -0.328662,0.018603 -0.434082,0 -0.646988,-0.1756998 -0.21084,-0.1756997 -0.21084,-0.6015131 V 4.786456 H 48.445419 V 4.2820945 h 0.305924 V 3.6185696 h 0.74414 v 0.6635249 h 0.696598 V 4.786456 h -0.696598 v 0.8226881 q 0,0.1219563 0.0021,0.2129067 0.0021,0.09095 0.03307,0.1632974 0.02894,0.072347 0.101286,0.1157551 0.07441,0.041341 0.214973,0.041341 0.05788,0 0.150895,-0.024805 0.09509,-0.024805 0.132292,-0.045475 h 0.06201 z m 1.850014,-0.5849767 v -0.483691 q -0.150895,0.012402 -0.326595,0.03514 -0.1757,0.020671 -0.26665,0.049609 -0.111621,0.03514 -0.171566,0.1033528 -0.05788,0.066146 -0.05788,0.1756997 0,0.072347 0.0124,0.1178222 0.0124,0.045475 0.06201,0.086816 0.04754,0.041341 0.113688,0.062012 0.06614,0.018603 0.206705,0.018603 0.111621,0 0.225309,-0.045475 0.115755,-0.045475 0.202572,-0.1198892 z m 0,0.3596676 q -0.05994,0.045475 -0.148828,0.109554 -0.08888,0.064079 -0.167432,0.1012857 -0.109554,0.049609 -0.227376,0.072347 -0.117822,0.024805 -0.258382,0.024805 -0.330729,0 -0.553971,-0.2046385 -0.223242,-0.2046385 -0.223242,-0.522965 0,-0.2542479 0.113688,-0.4154782 0.113688,-0.1612303 0.322461,-0.2542478 0.206706,-0.093017 0.51263,-0.1322916 0.305924,-0.039274 0.634586,-0.057878 v -0.012402 q 0,-0.1922362 -0.157096,-0.2645831 -0.157097,-0.074414 -0.463021,-0.074414 -0.183968,0 -0.39274,0.066146 -0.208773,0.064079 -0.299723,0.099219 h -0.06821 v -0.560172 q 0.117822,-0.031006 0.382405,-0.072347 0.26665,-0.043408 0.5333,-0.043408 0.634586,0 0.915706,0.1963703 0.283186,0.1943032 0.283186,0.6118484 v 1.5792304 h -0.737938 z m 6.137088,0.2459796 H 57.389568 V 4.5425435 l -0.570507,1.3373849 h -0.54777 L 55.700784,4.5425435 V 6.6033978 H 54.95251 V 3.5255521 h 0.921906 l 0.692464,1.5440905 0.690396,-1.5440905 h 0.921907 z m 3.117121,-1.1596181 q 0,0.5725744 -0.334863,0.9033033 -0.332796,0.3286618 -0.936376,0.3286618 -0.603581,0 -0.938444,-0.3286618 -0.332796,-0.3307289 -0.332796,-0.9033033 0,-0.5767085 0.334863,-0.9053704 0.33693,-0.3286618 0.936377,-0.3286618 0.607714,0 0.938443,0.3307289 0.332796,0.3307289 0.332796,0.9033033 z m -0.915706,0.5643061 q 0.07235,-0.088883 0.107487,-0.2129067 0.03721,-0.1260904 0.03721,-0.3472653 0,-0.2046385 -0.03721,-0.3431312 -0.03721,-0.1384928 -0.103353,-0.221175 -0.06615,-0.084749 -0.159163,-0.1198892 -0.09302,-0.03514 -0.200504,-0.03514 -0.107487,0 -0.192237,0.028939 -0.08268,0.028939 -0.159163,0.1157551 -0.06821,0.080615 -0.109554,0.221175 -0.03927,0.1405598 -0.03927,0.3534665 0,0.1901691 0.03514,0.3307289 0.03514,0.1384927 0.103353,0.223242 0.06615,0.080615 0.157096,0.1178221 0.09302,0.037207 0.21084,0.037207 0.101285,0 0.192236,-0.033073 0.09302,-0.03514 0.157096,-0.1157552 z m 3.131588,-1.0169913 h -0.06615 q -0.04754,-0.016536 -0.152962,-0.024805 -0.10542,-0.00827 -0.1757,-0.00827 -0.159163,0 -0.281119,0.020671 -0.121957,0.020671 -0.262516,0.07028 v 1.5544257 h -0.74414 V 4.2820945 h 0.74414 v 0.3410641 q 0.245979,-0.2108396 0.42788,-0.2790525 0.181901,-0.07028 0.334863,-0.07028 0.03927,0 0.08888,0.00207 0.04961,0.00207 0.08682,0.0062 z m 2.844269,0.4196123 q 0,0.2873207 -0.08888,0.522965 -0.08682,0.2356444 -0.229444,0.3886065 -0.148828,0.1612303 -0.33693,0.2439125 -0.188102,0.082682 -0.403075,0.082682 -0.198438,0 -0.33693,-0.043408 -0.138493,-0.041341 -0.283187,-0.1178222 v 0.967382 H 63.933866 V 4.2820945 h 0.74414 V 4.52394 q 0.171566,-0.1364257 0.349332,-0.221175 0.179834,-0.084749 0.413411,-0.084749 0.434082,0 0.673861,0.3183266 0.241845,0.3183265 0.241845,0.8743642 z m -0.766878,0.014469 q 0,-0.3389971 -0.115755,-0.4919592 -0.115755,-0.1529622 -0.365869,-0.1529622 -0.105419,0 -0.21704,0.033073 -0.111621,0.031006 -0.212907,0.09095 v 1.1678864 q 0.07441,0.028939 0.159163,0.037207 0.08475,0.00827 0.167432,0.00827 0.295589,0 0.440283,-0.1715656 0.144693,-0.1736327 0.144693,-0.520898 z m 3.635951,1.1782216 H 68.477254 V 5.4520479 q 0,-0.1405598 -0.01447,-0.2790525 -0.01447,-0.1405598 -0.04961,-0.2067056 -0.04134,-0.076481 -0.121957,-0.111621 -0.07855,-0.03514 -0.221175,-0.03514 -0.101285,0 -0.206705,0.033073 -0.103353,0.033073 -0.225309,0.1054198 v 1.6453762 h -0.74414 V 3.3870594 h 0.74414 v 1.1513499 q 0.198437,-0.1550291 0.380338,-0.2377113 0.183968,-0.082682 0.40721,-0.082682 0.376204,0 0.587044,0.2191079 0.212906,0.2191079 0.212906,0.6552566 z"
       id="text4"
       inkscape:label="text4"
       aria-label="Meta Morph" />
    <rect
       style="fill:#000000;fill-opacity:0.72;stroke-width:4.51834"
       id="rect23"
       width="59.628246"
       height="13.123919"
       x="32.076748"
       y="109.3952"
       rx="2.4444444"
       ry="2" />
    <path
       style="font-weight:bold;font-size:2.82223px;-inkscape-font-specification:'sans-serif Bold';display:inline;fill:#ff0000;stroke-width:4.087"
       d="m 36.534472,25.678006 h -0.649058 l -0.61323,-0.82132 -0.124023,0.15021 v 0.67111 h -0.529168 v -2.05191 h 0.529168 v 0.9288 l 0.733119,-0.9288 h 0.613229 l -0.802021,0.94947 z m 1.757005,-0.68213 h -1.135508 q 0.01102,0.1819 0.137804,0.27836 0.128158,0.0965 0.376207,0.0965 0.157096,0 0.304547,-0.0565 0.14745,-0.0565 0.232889,-0.12126 h 0.05512 v 0.39825 q -0.168121,0.0675 -0.31695,0.0978 -0.148828,0.0303 -0.329352,0.0303 -0.465779,0 -0.713827,-0.20946 -0.248047,-0.20947 -0.248047,-0.5967 0,-0.38309 0.234267,-0.60634 0.235645,-0.22462 0.644925,-0.22462 0.377583,0 0.567753,0.19155 0.19017,0.19017 0.19017,0.54846 z m -0.49334,-0.29077 q -0.0041,-0.15572 -0.07717,-0.23427 -0.07304,-0.0786 -0.227377,-0.0786 -0.143317,0 -0.235646,0.0744 -0.09233,0.0744 -0.103353,0.2384 z m 1.54203,0.42581 0.352779,-1.00045 h 0.509876 l -0.859898,2.11529 h -0.537438 l 0.245292,-0.57878 -0.602205,-1.53651 h 0.5209 z"
       id="text2"
       aria-label="Key" />
    <path
       style="font-weight:bold;font-size:2.82223px;-inkscape-font-specification:'sans-serif Bold';display:inline;fill:#000000;stroke-width:4.087"
       d="m 50.45918,25.961881 h -0.611851 l -0.442352,-0.67524 -0.450619,0.67524 h -0.58429 l 0.727606,-1.03353 -0.712448,-1.01838 h 0.610473 l 0.427193,0.63941 0.439595,-0.63941 h 0.585668 l -0.716582,0.9977 z"
       id="text3"
       aria-label="X" />
    <path
       style="font-weight:bold;font-size:2.82223px;-inkscape-font-specification:'sans-serif Bold';display:inline;fill:#000000;stroke-width:4.087"
       d="m 62.386766,23.909976 -0.756545,1.25815 v 0.79375 h -0.529168 v -0.76894 l -0.768948,-1.28296 h 0.600827 l 0.443729,0.79375 0.428571,-0.79375 z"
       id="text6"
       aria-label="Y" />
    <path
       style="font-weight:bold;font-size:2.82223px;-inkscape-font-specification:'sans-serif Bold';display:inline;fill:#000000;stroke-width:4.087"
       d="m 75.006273,25.961881 h -1.723931 v -0.38448 l 1.022507,-1.27055 h -0.972897 v -0.39688 h 1.619199 v 0.39137 l -1.021129,1.26366 h 1.076251 z"
       id="text7"
       aria-label="Z" />
    <rect
       style="fill:#000000;fill-opacity:0.72;stroke-width:4.51834"
       id="rect1"
       width="59.628242"
       height="13.123919"
       x="32.076748"
       y="90.34523"
       rx="2.4444444"
       ry="2" />
    <path
       style="font-weight:bold;font-size:2.82223px;-inkscape-font-specification:'sans-serif Bold';fill:#ff0000;fill-opacity:0.765203;stroke-width:4.087"
       d="m 95.278215,25.716576 h -1.480017 v -2.0519 h 0.529168 v 1.65503 h 0.950849 z m 0.786862,0 h -0.496095 v -1.54754 h 0.496095 z m 0.01378,-1.76803 h -0.523656 v -0.3762 h 0.523656 z m 1.959576,1.59026 q 0,0.21773 -0.06201,0.36656 -0.06201,0.14883 -0.173633,0.23289 -0.111621,0.0854 -0.270096,0.12265 -0.157097,0.0386 -0.355535,0.0386 -0.161231,0 -0.318328,-0.0193 -0.155719,-0.0193 -0.270096,-0.0468 v -0.38723 h 0.06063 q 0.09095,0.0358 0.221865,0.0648 0.130914,0.0303 0.234267,0.0303 0.137804,0 0.223243,-0.0262 0.08682,-0.0248 0.132292,-0.0717 0.04272,-0.0441 0.06201,-0.113 0.01929,-0.0689 0.01929,-0.16536 v -0.0289 q -0.08957,0.073 -0.198438,0.11575 -0.108865,0.0427 -0.242535,0.0427 -0.325218,0 -0.501608,-0.19568 -0.176389,-0.19568 -0.176389,-0.59531 0,-0.19155 0.05374,-0.33073 0.05374,-0.13919 0.151584,-0.24254 0.09095,-0.0965 0.223243,-0.15021 0.13367,-0.0537 0.272852,-0.0537 0.125402,0 0.227377,0.0303 0.103353,0.0289 0.187414,0.0813 l 0.01792,-0.0689 h 0.480936 z m -0.496095,-0.31006 v -0.70142 q -0.04272,-0.0179 -0.104731,-0.0276 -0.06201,-0.011 -0.111622,-0.011 -0.195682,0 -0.293523,0.113 -0.09784,0.11162 -0.09784,0.31281 0,0.22324 0.08268,0.31144 0.08406,0.0882 0.248048,0.0882 0.07441,0 0.146072,-0.0234 0.07166,-0.0234 0.130914,-0.062 z m 2.519062,0.48783 h -0.498857 v -0.76757 q 0,-0.0937 -0.01,-0.18603 -0.01,-0.0937 -0.0331,-0.13781 -0.0276,-0.051 -0.0813,-0.0744 -0.05237,-0.0234 -0.147451,-0.0234 -0.06752,0 -0.137804,0.0221 -0.0689,0.022 -0.150206,0.0703 v 1.09692 h -0.496095 v -2.14423 h 0.496095 v 0.76757 q 0.132292,-0.10336 0.253559,-0.15848 0.122646,-0.0551 0.271477,-0.0551 0.2508,0 0.39136,0.14607 0.141942,0.14608 0.141942,0.43684 z m 1.44557,-0.0138 q -0.0799,0.0207 -0.1695,0.0317 -0.0896,0.0124 -0.21911,0.0124 -0.28939,0 -0.43133,-0.11713 -0.14056,-0.11714 -0.14056,-0.40102 v -0.72347 h -0.20395 v -0.33624 h 0.20395 v -0.44235 h 0.4961 v 0.44235 h 0.4644 v 0.33624 h -0.4644 v 0.54846 q 0,0.0813 0.001,0.14194 10e-4,0.0606 0.0221,0.10887 0.0193,0.0482 0.0675,0.0772 0.0496,0.0276 0.14332,0.0276 0.0386,0 0.10059,-0.0165 0.0634,-0.0165 0.0882,-0.0303 h 0.0413 z m 1.64126,-0.4768 q 0,0.23978 -0.21498,0.38723 -0.21497,0.14607 -0.58842,0.14607 -0.20671,0 -0.37483,-0.0386 -0.16813,-0.0386 -0.2701,-0.0854 v -0.4079 h 0.0455 q 0.0372,0.0262 0.0854,0.0579 0.0496,0.0303 0.13918,0.0661 0.0772,0.0317 0.17502,0.0551 0.0978,0.022 0.20946,0.022 0.14607,0 0.21635,-0.0317 0.0703,-0.0331 0.0703,-0.0965 0,-0.0565 -0.0413,-0.0813 -0.0413,-0.0262 -0.15709,-0.0496 -0.0551,-0.0124 -0.15021,-0.0262 -0.0937,-0.0152 -0.17088,-0.0358 -0.21084,-0.0551 -0.31282,-0.17088 -0.10197,-0.11713 -0.10197,-0.29077 0,-0.22324 0.21084,-0.37069 0.21222,-0.14883 0.57878,-0.14883 0.17364,0 0.33211,0.0358 0.15985,0.0345 0.24943,0.0744 v 0.39137 h -0.0427 q -0.11025,-0.0758 -0.25219,-0.12265 -0.14056,-0.0482 -0.28525,-0.0482 -0.11989,0 -0.20258,0.0331 -0.0813,0.0331 -0.0813,0.0937 0,0.0551 0.0372,0.0841 0.0372,0.0289 0.17501,0.0579 0.0758,0.0152 0.16261,0.0303 0.0882,0.0138 0.1764,0.0358 0.19568,0.051 0.28938,0.16123 0.0937,0.10886 0.0937,0.27285 z"
       id="text39"
       aria-label="Lights" />
    <rect
       style="display:inline;fill:#000000;fill-opacity:0.72;stroke-width:1.90557"
       id="rect4"
       width="11"
       height="11"
       x="92.642334"
       y="27.09458"
       rx="2"
       ry="2" />
    <path
       style="font-weight:bold;font-size:2.82223px;-inkscape-font-specification:'sans-serif Bold';display:inline;fill:#ff0000;stroke-width:4.087"
       d="m 85.716532,25.960505 h -0.649058 l -0.613228,-0.821313 -0.124024,0.150206 v 0.671107 H 83.801054 V 23.9086 h 0.529168 v 0.928801 L 85.06334,23.9086 h 0.613229 l -0.802021,0.949471 z m 2.075331,-0.117134 q -0.137804,0.05374 -0.365181,0.107488 -0.227377,0.05236 -0.453376,0.05236 -0.523656,0 -0.819935,-0.283877 -0.296279,-0.285253 -0.296279,-0.786862 0,-0.478179 0.299035,-0.770325 0.299036,-0.293523 0.833716,-0.293523 0.202572,0 0.385852,0.03721 0.183279,0.03583 0.4079,0.144694 v 0.480936 h -0.05926 q -0.03859,-0.02894 -0.112999,-0.0813 -0.07441,-0.05374 -0.143317,-0.09095 -0.07993,-0.0441 -0.187413,-0.07579 -0.106109,-0.0317 -0.225999,-0.0317 -0.14056,0 -0.254938,0.04134 -0.114377,0.04134 -0.205328,0.12678 -0.08682,0.08268 -0.137804,0.21084 -0.04961,0.12678 -0.04961,0.293523 0,0.340377 0.180524,0.5209 0.180523,0.180524 0.533302,0.180524 0.03032,0 0.06615,-0.0014 0.03721,-0.0014 0.06752,-0.0041 v -0.402388 h -0.409279 v -0.38723 h 0.946715 z"
       id="path2"
       aria-label="KG" />
    <rect
       style="fill:#000000;fill-opacity:0.72;stroke-width:4.51834"
       id="rect2"
       width="59.628246"
       height="13.123919"
       x="32.076748"
       y="70.766045"
       rx="2.4444444"
       ry="2" />
    <rect
       style="fill:#000000;fill-opacity:0.72;stroke-width:4.51834"
       id="rect3"
       width="59.628242"
       height="13.123919"
       x="32.076748"
       y="51.186859"
       rx="2.4444444"
       ry="2" />
    <path
       style="font-weight:bold;font-size:2.82223px;-inkscape-font-specification:'sans-serif Bold';display:inline;fill:#ff0000;stroke-width:4.087"
       d="m 37.105077,49.270478 h -0.649058 l -0.61323,-0.821314 -0.124023,0.150207 v 0.671107 H 35.189598 V 47.21857 h 0.529168 v 0.928804 l 0.733119,-0.928804 h 0.613229 l -0.802021,0.949474 z m 1.757005,-0.682127 h -1.135508 q 0.01102,0.1819 0.137804,0.27836 0.128158,0.0965 0.376207,0.0965 0.157096,0 0.304547,-0.0565 0.14745,-0.0565 0.232889,-0.12126 h 0.05512 v 0.398247 q -0.168121,0.0675 -0.31695,0.0978 -0.148828,0.0303 -0.329352,0.0303 -0.465779,0 -0.713827,-0.20946 -0.248047,-0.209467 -0.248047,-0.596694 0,-0.38309 0.234267,-0.606347 0.235645,-0.22462 0.644925,-0.22462 0.377583,0 0.567753,0.19155 0.19017,0.190177 0.19017,0.548467 z m -0.49334,-0.290767 q -0.0041,-0.15572 -0.07717,-0.23427 -0.07304,-0.0786 -0.227377,-0.0786 -0.143317,0 -0.235646,0.0744 -0.09233,0.0744 -0.103353,0.2384 z m 1.54203,0.425807 0.352779,-1.000454 h 0.509876 l -0.859898,2.115298 h -0.537438 l 0.245292,-0.578787 -0.602205,-1.536511 h 0.5209 z"
       id="path9"
       aria-label="Key" />
    <path
       style="font-weight:bold;font-size:2.82223px;-inkscape-font-specification:'sans-serif Bold';display:inline;fill:#000000;stroke-width:4.087"
       d="m 51.029785,49.554356 h -0.611851 l -0.442352,-0.675237 -0.450619,0.675237 h -0.58429 l 0.727606,-1.033524 -0.712448,-1.018384 h 0.610473 l 0.427193,0.639407 0.439595,-0.639407 h 0.585668 l -0.716582,0.997704 z"
       id="path10"
       aria-label="X" />
    <path
       style="font-weight:bold;font-size:2.82223px;-inkscape-font-specification:'sans-serif Bold';display:inline;fill:#000000;stroke-width:4.087"
       d="m 62.957371,47.502454 -0.756545,1.258153 v 0.793744 H 61.671658 V 48.785415 L 60.90271,47.502454 h 0.600827 l 0.443729,0.793754 0.428571,-0.793754 z"
       id="path11"
       aria-label="Y" />
    <path
       style="font-weight:bold;font-size:2.82223px;-inkscape-font-specification:'sans-serif Bold';display:inline;fill:#000000;stroke-width:4.087"
       d="m 75.576878,49.554356 h -1.723931 v -0.384477 l 1.022507,-1.270553 h -0.972897 v -0.396878 h 1.619199 v 0.391368 l -1.021129,1.263663 h 1.076251 z"
       id="path12"
       aria-label="Z" />
    <path
       style="font-weight:bold;font-size:2.82223px;-inkscape-font-specification:'sans-serif Bold';display:inline;fill:#ff0000;stroke-width:4.087"
       d="m 85.228803,49.552982 h -0.649058 l -0.613228,-0.821313 -0.124024,0.150206 v 0.671107 h -0.529168 v -2.051905 h 0.529168 v 0.928801 l 0.733118,-0.928801 h 0.613229 l -0.802021,0.949471 z m 2.075331,-0.117134 q -0.137804,0.05374 -0.365181,0.107488 -0.227377,0.05236 -0.453376,0.05236 -0.523656,0 -0.819935,-0.283877 -0.296279,-0.285254 -0.296279,-0.786862 0,-0.47818 0.299035,-0.770325 0.299036,-0.293523 0.833716,-0.293523 0.202572,0 0.385852,0.03721 0.183279,0.03583 0.4079,0.144695 v 0.480936 h -0.05926 q -0.03859,-0.02894 -0.112999,-0.0813 -0.07441,-0.05374 -0.143317,-0.09095 -0.07993,-0.0441 -0.187413,-0.07579 -0.106109,-0.0317 -0.225999,-0.0317 -0.14056,0 -0.254938,0.04134 -0.114377,0.04134 -0.205328,0.12678 -0.08682,0.08268 -0.137804,0.21084 -0.04961,0.126779 -0.04961,0.293523 0,0.340377 0.180524,0.5209 0.180523,0.180523 0.533302,0.180523 0.03032,0 0.06615,-0.0014 0.03721,-0.0014 0.06752,-0.0041 v -0.402389 h -0.409279 v -0.38723 h 0.946715 z"
       id="path21"
       aria-label="KG" />
    <path
       style="font-weight:bold;font-size:2.82223px;-inkscape-font-specification:'sans-serif Bold';fill:#ff0000;fill-opacity:0.765203;stroke-width:4.087"
       d="M 95.563517,49.309052 H 94.0835 v -2.0519 h 0.529168 v 1.65503 h 0.950849 z m 0.786862,0 h -0.496095 v -1.54754 h 0.496095 z m 0.01378,-1.76803 h -0.523656 v -0.376199 h 0.523656 z m 1.959576,1.59026 q 0,0.217731 -0.06201,0.366561 -0.06201,0.14883 -0.173633,0.23289 -0.111621,0.0854 -0.270096,0.122649 -0.157097,0.0386 -0.355535,0.0386 -0.161231,0 -0.318328,-0.0193 -0.155719,-0.0193 -0.270096,-0.0468 v -0.38723 h 0.06063 q 0.09095,0.0358 0.221865,0.0648 0.130914,0.0303 0.234267,0.0303 0.137804,0 0.223243,-0.0262 0.08682,-0.0248 0.132292,-0.0717 0.04272,-0.0441 0.06201,-0.113 0.01929,-0.0689 0.01929,-0.16536 v -0.0289 q -0.08957,0.073 -0.198438,0.11575 -0.108865,0.0427 -0.242535,0.0427 -0.325218,0 -0.501608,-0.19568 -0.176389,-0.19568 -0.176389,-0.59531 0,-0.19155 0.05374,-0.33073 0.05374,-0.13919 0.151584,-0.24254 0.09095,-0.0965 0.223243,-0.15021 0.13367,-0.0537 0.272852,-0.0537 0.125402,0 0.227377,0.0303 0.103353,0.0289 0.187414,0.0813 l 0.01792,-0.0689 h 0.480936 z m -0.496095,-0.31006 v -0.70142 q -0.04272,-0.0179 -0.104731,-0.0276 -0.06201,-0.011 -0.111622,-0.011 -0.195682,0 -0.293523,0.113 -0.09784,0.11162 -0.09784,0.31281 0,0.22324 0.08268,0.31144 0.08406,0.0882 0.248048,0.0882 0.07441,0 0.146072,-0.0234 0.07166,-0.0234 0.130914,-0.062 z m 2.51906,0.48783 h -0.498847 v -0.76757 q 0,-0.0937 -0.01,-0.18603 -0.01,-0.0937 -0.0331,-0.13781 -0.0276,-0.051 -0.0813,-0.0744 -0.0524,-0.0234 -0.14745,-0.0234 -0.0675,0 -0.137808,0.0221 -0.0689,0.022 -0.150206,0.0703 v 1.09692 h -0.496095 v -2.14423 h 0.496095 v 0.76757 q 0.132292,-0.103359 0.253554,-0.158479 0.12265,-0.0551 0.27148,-0.0551 0.250807,0 0.391367,0.146069 0.14193,0.14608 0.14193,0.436841 z m 1.44558,-0.0138 q -0.0799,0.0207 -0.1695,0.0317 -0.0896,0.0124 -0.21912,0.0124 -0.28938,0 -0.43133,-0.11713 -0.14056,-0.11714 -0.14056,-0.40102 v -0.72347 h -0.20395 v -0.33624 h 0.20395 v -0.44235 h 0.4961 v 0.44235 h 0.46441 v 0.33624 h -0.46441 v 0.54846 q 0,0.0813 10e-4,0.14194 0.001,0.0606 0.022,0.10887 0.0193,0.0482 0.0675,0.0772 0.0496,0.0276 0.14332,0.0276 0.0386,0 0.1006,-0.0165 0.0634,-0.0165 0.0882,-0.0303 h 0.0413 z m 1.64125,-0.4768 q 0,0.23978 -0.21497,0.38723 -0.21498,0.14607 -0.58843,0.14607 -0.20671,0 -0.37483,-0.0386 -0.16812,-0.0386 -0.2701,-0.0854 v -0.4079 h 0.0455 q 0.0372,0.0262 0.0854,0.0579 0.0496,0.0303 0.13919,0.0661 0.0772,0.0317 0.17501,0.0551 0.0978,0.022 0.20946,0.022 0.14608,0 0.21636,-0.0317 0.0703,-0.0331 0.0703,-0.0965 0,-0.0565 -0.0413,-0.0813 -0.0413,-0.0262 -0.1571,-0.0496 -0.0551,-0.0124 -0.15021,-0.0262 -0.0937,-0.0152 -0.17088,-0.0358 -0.21084,-0.0551 -0.31282,-0.17088 -0.10197,-0.11713 -0.10197,-0.290769 0,-0.223241 0.21084,-0.37069 0.21222,-0.14883 0.57878,-0.14883 0.17364,0 0.33211,0.0358 0.15986,0.0345 0.24943,0.0744 v 0.39137 h -0.0427 q -0.11024,-0.0758 -0.25218,-0.12265 -0.14056,-0.0482 -0.28526,-0.0482 -0.11989,0 -0.20257,0.0331 -0.0813,0.0331 -0.0813,0.0937 0,0.0551 0.0372,0.0841 0.0372,0.0289 0.17501,0.0579 0.0758,0.0152 0.16261,0.0303 0.0882,0.0138 0.17639,0.0358 0.19568,0.051 0.28939,0.16123 0.0937,0.10886 0.0937,0.27285 z"
       id="path23"
       aria-label="Lights" />
    <path
       style="font-weight:bold;font-size:2.82223px;-inkscape-font-specification:'sans-serif Bold';fill:#000000;stroke-width:4.087"
       d="m 17.255082,47.91242 q 0,0.137805 -0.04823,0.270097 -0.04823,0.130914 -0.137804,0.220486 -0.122646,0.121268 -0.274231,0.18328 -0.150206,0.06201 -0.374827,0.06201 h -0.329353 v 0.66835 h -0.529168 v -2.051904 h 0.870923 q 0.195682,0 0.329352,0.03445 0.135048,0.03307 0.238402,0.100597 0.124023,0.0813 0.188791,0.208084 0.06615,0.12678 0.06615,0.304547 z M 16.708,47.92482 q 0,-0.08682 -0.04685,-0.148829 -0.04685,-0.06339 -0.108865,-0.08819 -0.08268,-0.03307 -0.161231,-0.03583 -0.07855,-0.0041 -0.209463,-0.0041 h -0.09095 v 0.614607 h 0.151585 q 0.135049,0 0.221865,-0.01654 0.08819,-0.01654 0.147451,-0.06615 0.05099,-0.0441 0.07304,-0.104732 0.02343,-0.06201 0.02343,-0.150206 z m 2.476342,0.618741 q 0,0.381717 -0.223242,0.602204 -0.221865,0.219109 -0.624255,0.219109 -0.402388,0 -0.625631,-0.219109 -0.221864,-0.220487 -0.221864,-0.602204 0,-0.384474 0.223242,-0.603583 0.224621,-0.219108 0.624253,-0.219108 0.405146,0 0.625633,0.220486 0.221864,0.220487 0.221864,0.602205 z m -0.610472,0.376205 q 0.04823,-0.05926 0.07166,-0.141938 0.02481,-0.08406 0.02481,-0.231511 0,-0.136426 -0.02481,-0.228755 -0.0248,-0.09233 -0.0689,-0.147451 -0.0441,-0.0565 -0.106109,-0.07993 -0.06201,-0.02343 -0.133672,-0.02343 -0.07166,0 -0.128157,0.01929 -0.05512,0.01929 -0.10611,0.07717 -0.04547,0.05374 -0.07304,0.147451 -0.02618,0.09371 -0.02618,0.235645 0,0.12678 0.02343,0.220486 0.02343,0.09233 0.0689,0.148829 0.0441,0.05374 0.104731,0.07855 0.06201,0.0248 0.140561,0.0248 0.06752,0 0.128158,-0.02205 0.06201,-0.02343 0.104732,-0.07717 z m 1.462102,0.396876 h -0.496095 v -2.144233 h 0.496095 z m 1.167203,-0.547082 0.352779,-1.000459 h 0.509876 l -0.859899,2.115295 h -0.537436 l 0.245291,-0.578778 -0.602204,-1.536517 h 0.5209 z m 2.75333,-0.248048 q 0,0.191548 -0.05926,0.348645 -0.05788,0.157096 -0.152964,0.259071 -0.09922,0.107488 -0.224621,0.162609 -0.125401,0.05512 -0.268718,0.05512 -0.132292,0 -0.224621,-0.02894 -0.09233,-0.02756 -0.188791,-0.07855 v 0.644924 h -0.496096 v -2.115295 h 0.496096 v 0.161231 q 0.114377,-0.09095 0.232889,-0.147451 0.119889,-0.0565 0.275608,-0.0565 0.289389,0 0.449243,0.212218 0.161231,0.212219 0.161231,0.582912 z m -0.511255,0.0096 q 0,-0.225999 -0.07717,-0.327974 -0.07717,-0.101975 -0.243914,-0.101975 -0.07028,0 -0.144694,0.02205 -0.07441,0.02067 -0.141938,0.06063 v 0.778593 q 0.04961,0.01929 0.106109,0.02481 0.0565,0.0055 0.111621,0.0055 0.19706,0 0.293523,-0.114377 0.09646,-0.115756 0.09646,-0.347267 z m 2.423978,0.785484 h -0.498851 v -0.76752 q 0,-0.09371 -0.0096,-0.186036 -0.0096,-0.09371 -0.03307,-0.137804 -0.02756,-0.05099 -0.08131,-0.07441 -0.05237,-0.02343 -0.14745,-0.02343 -0.06752,0 -0.137805,0.02205 -0.0689,0.02205 -0.150207,0.07028 v 1.096921 H 24.31484 v -2.144233 h 0.496095 v 0.767569 q 0.132293,-0.103353 0.253561,-0.158475 0.122645,-0.05512 0.271474,-0.05512 0.250803,0 0.391364,0.146072 0.141938,0.146073 0.141938,0.436839 z m 2.038125,-0.773081 q 0,0.381717 -0.223243,0.602204 -0.221865,0.219109 -0.624253,0.219109 -0.402388,0 -0.625631,-0.219109 -0.221865,-0.220487 -0.221865,-0.602204 0,-0.384474 0.223243,-0.603583 0.224621,-0.219108 0.624253,-0.219108 0.405144,0 0.625631,0.220486 0.221865,0.220487 0.221865,0.602205 z M 27.29688,48.91972 q 0.04823,-0.05926 0.07166,-0.141938 0.02481,-0.08406 0.02481,-0.231511 0,-0.136426 -0.02481,-0.228755 -0.0248,-0.09233 -0.0689,-0.147451 -0.0441,-0.0565 -0.106109,-0.07993 -0.06201,-0.02343 -0.13367,-0.02343 -0.07166,0 -0.128158,0.01929 -0.05512,0.01929 -0.106109,0.07717 -0.04548,0.05374 -0.07304,0.147451 -0.02618,0.09371 -0.02618,0.235645 0,0.12678 0.02343,0.220486 0.02343,0.09233 0.0689,0.148829 0.0441,0.05374 0.104731,0.07855 0.06201,0.0248 0.14056,0.0248 0.06752,0 0.128158,-0.02205 0.06201,-0.02343 0.104731,-0.07717 z m 2.520439,0.396876 h -0.498852 v -0.76752 q 0,-0.09371 -0.0096,-0.186036 -0.0096,-0.09371 -0.03307,-0.137804 -0.02756,-0.05099 -0.0813,-0.07441 -0.05237,-0.02343 -0.147451,-0.02343 -0.06752,0 -0.137804,0.02205 -0.0689,0.02205 -0.150207,0.07028 v 1.096921 H 28.26294 v -1.547541 h 0.496095 v 0.170877 q 0.132292,-0.103353 0.25356,-0.158475 0.122646,-0.05512 0.271474,-0.05512 0.250804,0 0.391364,0.146072 0.141939,0.146073 0.141939,0.436839 z m 1.154799,-0.547082 0.352779,-1.000459 h 0.509876 l -0.859899,2.115295 h -0.537436 l 0.245292,-0.578778 -0.602205,-1.536517 h 0.5209 z"
       id="path25"
       aria-label="Polyphony" />
    <path
       style="font-weight:bold;font-size:2.82222px;-inkscape-font-specification:'sans-serif Bold';display:inline;fill:#000000;stroke-width:4.087"
       d="M 5.6219413,49.530235 H 5.1230919 v -0.767566 q 0,-0.09371 -0.00965,-0.186035 -0.00965,-0.09371 -0.033073,-0.137804 -0.027561,-0.05099 -0.081304,-0.07441 -0.052365,-0.02343 -0.14745,-0.02343 -0.067524,0 -0.1378037,0.02205 -0.068902,0.02205 -0.150206,0.07028 v 1.096916 H 4.0675154 V 47.9827 h 0.4960934 v 0.170876 q 0.1322915,-0.103353 0.2535588,-0.158474 0.1226453,-0.05512 0.2714733,-0.05512 0.2508028,0 0.3913626,0.146071 0.1419378,0.146072 0.1419378,0.436838 z m 1.6343521,-1.423512 q 0,-0.07717 -0.031695,-0.132292 -0.031695,-0.05512 -0.1088649,-0.08682 -0.053743,-0.02205 -0.1254014,-0.02618 -0.071658,-0.0055 -0.1667425,-0.0055 h -0.191547 v 0.552593 h 0.1626083 q 0.1267795,0 0.2122178,-0.0124 0.085438,-0.0124 0.1433158,-0.0565 0.055122,-0.04272 0.079926,-0.09371 0.026183,-0.05237 0.026183,-0.139182 z m 0.8254442,1.423512 H 7.4354382 L 6.8759551,48.777827 H 6.6320426 v 0.752408 H 6.1056324 v -2.051897 h 0.8874559 q 0.1819009,0 0.3128144,0.02067 0.1309136,0.02067 0.2452906,0.08957 0.1157552,0.0689 0.183279,0.179145 0.068902,0.108865 0.068902,0.274229 0,0.227376 -0.1061088,0.370692 -0.1047308,0.143316 -0.3004121,0.238401 z m 1.7859365,-0.773079 q 0,0.381717 -0.223242,0.602203 -0.221864,0.219108 -0.6242508,0.219108 -0.4023869,0 -0.6256289,-0.219108 -0.221864,-0.220486 -0.221864,-0.602203 0,-0.384473 0.2232421,-0.60358 0.22462,-0.219108 0.6242508,-0.219108 0.4051429,0 0.6256289,0.220486 0.2218639,0.220486 0.2218639,0.602202 z m -0.6104704,0.376205 q 0.048231,-0.05926 0.071658,-0.141939 0.024805,-0.08406 0.024805,-0.23151 0,-0.136426 -0.024805,-0.228755 -0.024805,-0.09233 -0.068902,-0.14745 -0.044097,-0.0565 -0.1061088,-0.07993 -0.062012,-0.02343 -0.1336696,-0.02343 -0.071658,0 -0.1281575,0.01929 -0.055122,0.01929 -0.1061088,0.07717 -0.045475,0.05374 -0.073036,0.14745 -0.026183,0.09371 -0.026183,0.235645 0,0.126779 0.023427,0.220484 0.023427,0.09233 0.068902,0.148829 0.044097,0.05374 0.1047308,0.07855 0.062012,0.0248 0.1405598,0.0248 0.067524,0 0.1281574,-0.02205 0.062012,-0.02343 0.1047309,-0.07717 z M 12.691272,47.9827 12.211715,49.530235 h -0.52641 l -0.315571,-1.043174 -0.310058,1.043174 h -0.5333 L 10.050953,47.9827 h 0.520898 l 0.264583,1.0666 0.330729,-1.0666 h 0.439594 l 0.314192,1.0666 0.260449,-1.0666 z"
       id="text42"
       aria-label="nRow" />
    <path
       style="font-weight:bold;font-size:4.23333px;-inkscape-font-specification:'sans-serif Bold';fill:#000000;stroke-width:4.087"
       d="m 46.959023,10.808133 q 0,0.454752 -0.386539,0.740005 -0.384473,0.283187 -1.045931,0.283187 -0.382405,0 -0.667659,-0.06615 -0.283186,-0.06821 -0.531233,-0.171565 v -0.737939 h 0.08682 q 0.245979,0.19637 0.549836,0.30179 0.305925,0.10542 0.587044,0.10542 0.07235,0 0.190169,-0.0124 0.117822,-0.0124 0.192236,-0.04134 0.09095,-0.03721 0.148828,-0.09302 0.05994,-0.05581 0.05994,-0.165365 0,-0.101285 -0.08682,-0.173632 -0.08475,-0.07441 -0.250114,-0.113688 -0.173633,-0.04134 -0.367936,-0.07648 -0.192236,-0.03721 -0.361735,-0.09302 -0.388606,-0.12609 -0.560172,-0.341064 -0.169498,-0.2170408 -0.169498,-0.5374345 0,-0.4299475 0.384472,-0.7007318 0.386539,-0.2728513 0.992187,-0.2728513 0.303857,0 0.599446,0.059945 0.297656,0.057878 0.514697,0.1467609 V 9.557564 h -0.08475 Q 46.566282,9.408736 46.295498,9.3095173 46.026781,9.2082316 45.745661,9.2082316 q -0.09922,0 -0.198437,0.014469 -0.09715,0.012402 -0.188102,0.049609 -0.08062,0.031006 -0.138493,0.095085 -0.05788,0.062012 -0.05788,0.1426268 0,0.1219563 0.09302,0.1881021 0.09302,0.064079 0.3514,0.1178221 0.169498,0.03514 0.324527,0.068213 0.157097,0.033073 0.33693,0.09095 0.353467,0.1157548 0.520898,0.3162598 0.169499,0.198437 0.169499,0.516764 z m 2.924883,-0.225309 q 0,0.28732 -0.08888,0.522965 -0.08682,0.235644 -0.229443,0.388606 -0.148828,0.16123 -0.33693,0.243913 -0.188102,0.08268 -0.403076,0.08268 -0.198437,0 -0.33693,-0.04341 -0.138493,-0.04134 -0.283187,-0.117823 v 0.967382 h -0.74414 V 9.4542112 h 0.74414 v 0.2418455 q 0.171566,-0.1364257 0.349333,-0.2211749 0.179834,-0.084749 0.413411,-0.084749 0.434081,0 0.67386,0.3183265 0.241845,0.318327 0.241845,0.874365 z m -0.766877,0.01447 q 0,-0.338997 -0.115755,-0.491959 -0.115755,-0.1529624 -0.365869,-0.1529624 -0.10542,0 -0.217041,0.033073 -0.111621,0.031006 -0.212907,0.09095 v 1.167886 q 0.07441,0.02894 0.159164,0.03721 0.08475,0.0083 0.167431,0.0083 0.295589,0 0.440283,-0.171566 0.144694,-0.173633 0.144694,-0.520898 z m 2.048452,1.178222 h -0.74414 V 8.5591762 h 0.74414 z m 1.446939,0 H 51.86828 V 9.4542112 h 0.74414 z m 0.02067,-2.6520327 H 51.847609 V 8.5591762 h 0.785482 z m 2.166274,2.6313617 q -0.119889,0.03101 -0.254248,0.04754 -0.134359,0.0186 -0.328662,0.0186 -0.434081,0 -0.646988,-0.1757 -0.21084,-0.1757 -0.21084,-0.601513 V 9.9585728 H 53.052703 V 9.4542112 h 0.305924 V 8.7906864 h 0.74414 v 0.6635248 h 0.696598 v 0.5043616 h -0.696598 v 0.8226882 q 0,0.121956 0.0021,0.212907 0.0021,0.09095 0.03307,0.163297 0.02894,0.07235 0.101286,0.115755 0.07441,0.04134 0.214974,0.04134 0.05788,0 0.150895,-0.0248 0.09508,-0.02481 0.132291,-0.04548 h 0.06201 z m 1.928562,0 q -0.119889,0.03101 -0.254248,0.04754 -0.134358,0.0186 -0.328662,0.0186 -0.434081,0 -0.646988,-0.1757 -0.21084,-0.1757 -0.21084,-0.601513 V 9.9585728 H 54.981265 V 9.4542112 h 0.305924 V 8.7906864 h 0.74414 v 0.6635248 h 0.696598 v 0.5043616 h -0.696598 v 0.8226882 q 0,0.121956 0.0021,0.212907 0.0021,0.09095 0.03307,0.163297 0.02894,0.07235 0.101286,0.115755 0.07441,0.04134 0.214974,0.04134 0.05788,0 0.150895,-0.0248 0.09508,-0.02481 0.132291,-0.04548 h 0.06201 z m 2.730581,-1.002522 h -1.703254 q 0.01654,0.272851 0.206705,0.417545 0.192237,0.144694 0.564307,0.144694 0.235644,0 0.456819,-0.08475 0.221175,-0.08475 0.349332,-0.181901 h 0.08268 v 0.597379 q -0.252181,0.101286 -0.475423,0.146761 -0.223242,0.04547 -0.494027,0.04547 -0.698664,0 -1.070734,-0.314192 -0.37207,-0.314193 -0.37207,-0.895035 0,-0.574642 0.351399,-0.9095047 0.353467,-0.33693 0.967382,-0.33693 0.566373,0 0.851627,0.2873207 0.285254,0.2852537 0.285254,0.822688 z m -0.740006,-0.436149 q -0.0062,-0.233577 -0.115755,-0.3513991 -0.109554,-0.1178221 -0.341064,-0.1178221 -0.214974,0 -0.353467,0.111621 -0.138493,0.1116212 -0.155029,0.3576002 z m 2.947622,-0.152962 h -0.06615 q -0.04754,-0.01654 -0.152962,-0.0248 -0.10542,-0.0083 -0.1757,-0.0083 -0.159163,0 -0.281119,0.02067 -0.121957,0.02067 -0.262516,0.07028 v 1.554426 h -0.74414 V 9.4542112 h 0.74414 v 0.3410642 q 0.245979,-0.2108397 0.42788,-0.2790525 0.181901,-0.07028 0.334863,-0.07028 0.03927,0 0.08888,0.00207 0.04961,0.00207 0.08682,0.0062 z m 4.359419,0.903304 h -0.419612 v 0.717268 h -0.758609 v -0.717268 h -1.490347 v -0.58291 l 1.440737,-1.7859361 h 0.808219 v 1.8066061 h 0.419612 z m -1.178221,-0.56224 V 9.3921995 l -0.895035,1.1120755 z"
       id="text1"
       aria-label="Splitter 4" />
    <path
       style="font-weight:bold;font-size:2.82223px;-inkscape-font-specification:'sans-serif Bold';fill:#000000;stroke-width:4.087"
       d="m 18.711609,24.962786 q 0,0.286632 -0.130914,0.514009 -0.130914,0.225999 -0.33073,0.347267 -0.150207,0.09095 -0.329352,0.12678 -0.179146,0.03583 -0.424437,0.03583 h -0.723472 v -2.051905 h 0.744143 q 0.250803,0 0.432705,0.04272 0.181901,0.04134 0.305925,0.118511 0.212219,0.129536 0.333486,0.350023 0.122646,0.219109 0.122646,0.516766 z m -0.547083,-0.0041 q 0,-0.202574 -0.07441,-0.345889 -0.07304,-0.144695 -0.232889,-0.226 -0.08131,-0.03996 -0.166743,-0.05374 -0.08406,-0.01516 -0.254938,-0.01516 h -0.13367 v 1.284335 h 0.13367 q 0.188792,0 0.276987,-0.01654 0.08819,-0.01791 0.172255,-0.06339 0.144694,-0.08268 0.212218,-0.220487 0.06752,-0.139182 0.06752,-0.343132 z m 1.419384,1.028019 h -0.496096 v -1.547541 h 0.496096 z m 0.01378,-1.768029 h -0.523656 v -0.376204 h 0.523656 z m 1.799723,1.277445 q 0,0.239779 -0.214975,0.38723 -0.214974,0.146072 -0.588424,0.146072 -0.206706,0 -0.374827,-0.03859 -0.168121,-0.03858 -0.270096,-0.08544 v -0.407901 h 0.04547 q 0.03721,0.02618 0.08544,0.05788 0.04961,0.03032 0.139182,0.06615 0.07717,0.0317 0.175011,0.05512 0.09784,0.02205 0.209463,0.02205 0.146072,0 0.216352,-0.0317 0.07028,-0.03307 0.07028,-0.09646 0,-0.0565 -0.04134,-0.0813 -0.04134,-0.02618 -0.157097,-0.04961 -0.05512,-0.0124 -0.150206,-0.02618 -0.09371,-0.01516 -0.170877,-0.03583 -0.210841,-0.05512 -0.312816,-0.170877 -0.101975,-0.117133 -0.101975,-0.290767 0,-0.223243 0.21084,-0.370693 0.212219,-0.148829 0.578778,-0.148829 0.173633,0 0.332108,0.03583 0.159853,0.03445 0.249426,0.07441 v 0.391363 h -0.04272 q -0.110243,-0.07579 -0.252181,-0.122645 -0.140561,-0.04823 -0.285255,-0.04823 -0.11989,0 -0.202572,0.03307 -0.08131,0.03307 -0.08131,0.09371 0,0.05512 0.03721,0.08406 0.03721,0.02894 0.175012,0.05788 0.07579,0.01516 0.162609,0.03032 0.08819,0.01378 0.176389,0.03583 0.195682,0.05099 0.289389,0.161231 0.09371,0.108865 0.09371,0.272852 z m 1.26642,0.08682 v -0.322462 q -0.100597,0.0083 -0.21773,0.02343 -0.117134,0.01378 -0.177768,0.03307 -0.07441,0.02343 -0.114377,0.0689 -0.03859,0.0441 -0.03859,0.117133 0,0.04823 0.0083,0.07855 0.0083,0.03032 0.04134,0.05788 0.03169,0.02756 0.07579,0.04134 0.0441,0.0124 0.137805,0.0124 0.07441,0 0.150206,-0.03032 0.07717,-0.03032 0.135048,-0.07993 z m 0,0.239779 q -0.03996,0.03032 -0.09922,0.07304 -0.05926,0.04272 -0.111621,0.06752 -0.07304,0.03307 -0.151585,0.04823 -0.07855,0.01654 -0.172255,0.01654 -0.220487,0 -0.369315,-0.136426 -0.148829,-0.136426 -0.148829,-0.348645 0,-0.169499 0.07579,-0.276986 0.07579,-0.107487 0.214974,-0.169499 0.137804,-0.06201 0.341755,-0.0882 0.20395,-0.02618 0.423058,-0.03858 v -0.0083 q 0,-0.128158 -0.104731,-0.17639 -0.104731,-0.04961 -0.308681,-0.04961 -0.122646,0 -0.261828,0.0441 -0.139182,0.04272 -0.199816,0.06615 h -0.04548 v -0.373449 q 0.07855,-0.02067 0.254938,-0.04823 0.177768,-0.02894 0.355535,-0.02894 0.423059,0 0.610473,0.130914 0.188791,0.129536 0.188791,0.407901 v 1.05281 h -0.491953 z m 2.563158,-0.631143 q 0,0.365181 -0.202572,0.595314 -0.201194,0.230133 -0.502985,0.230133 -0.129536,0 -0.227377,-0.02756 -0.09784,-0.02756 -0.186036,-0.07993 l -0.02067,0.07717 h -0.475425 v -2.144233 h 0.496095 v 0.757923 q 0.114378,-0.09095 0.232889,-0.147451 0.11989,-0.0565 0.275609,-0.0565 0.293523,0 0.451998,0.212219 0.158474,0.21084 0.158474,0.582912 z m -0.511253,0.0096 q 0,-0.206706 -0.07028,-0.318328 -0.07028,-0.111621 -0.250804,-0.111621 -0.07028,0 -0.144694,0.02205 -0.07441,0.02067 -0.141939,0.06063 v 0.777216 q 0.05374,0.01929 0.101975,0.02618 0.04823,0.0069 0.115756,0.0069 0.19706,0 0.293523,-0.115755 0.09646,-0.115756 0.09646,-0.347267 z m 1.36564,0.785484 h -0.496096 v -2.144233 h 0.496096 z M 28.074027,25.30453 H 26.93852 q 0.01103,0.181902 0.137805,0.278365 0.128158,0.09646 0.376205,0.09646 0.157097,0 0.304547,-0.0565 0.147451,-0.0565 0.232889,-0.121268 h 0.05512 v 0.398254 q -0.168121,0.06752 -0.31695,0.09784 -0.148828,0.03032 -0.329352,0.03032 -0.465778,0 -0.713825,-0.209462 -0.248048,-0.209463 -0.248048,-0.596692 0,-0.383096 0.234267,-0.606339 0.235645,-0.22462 0.644924,-0.22462 0.377583,0 0.567753,0.191548 0.19017,0.190169 0.19017,0.548461 z m -0.493339,-0.290767 q -0.0041,-0.155719 -0.07717,-0.234267 -0.07304,-0.07855 -0.227377,-0.07855 -0.143317,0 -0.235645,0.07441 -0.09233,0.07441 -0.103354,0.238401 z"
       id="text5"
       aria-label="Disable" />
  </g>
  <g
     inkscape:groupmode="layer"
     id="layer2"
     inkscape:label="components"
     style="display:none"
     sodipodi:insensitive="true">
    <circle
       style="display:inline;fill:#00ff00;fill-opacity:1;stroke-width:0.313059"
       id="circle15"
       cx="98.868759"
       cy="116.4234"
       inkscape:label="in4_lights"
       r="4" />
    <circle
       style="display:inline;fill:#0000ff;fill-opacity:1;stroke-width:0.313059"
       id="circle14"
       cx="85.741516"
       cy="116.4234"
       inkscape:label="out4_kg"
       r="4" />
    <circle
       style="fill:#0000ff;fill-opacity:1;stroke-width:0.313059"
       id="out1"
       cx="38.496063"
       cy="116.4234"
       inkscape:label="out4_k"
       r="4" />
    <circle
       style="fill:#0000ff;fill-opacity:1;stroke-width:0.313;stroke-dasharray:none"
       id="ellipse5"
       cx="50.573891"
       cy="116.4234"
       inkscape:label="out4_x"
       r="4" />
    <circle
       style="fill:#0000ff;fill-opacity:1;stroke-width:0.313059"
       id="ellipse6"
       cx="62.651699"
       cy="116.4234"
       inkscape:label="out4_y"
       r="4" />
    <circle
       style="fill:#0000ff;fill-opacity:1;stroke-width:0.313059"
       id="ellipse7"
       cx="74.729507"
       cy="116.4234"
       inkscape:label="out4_z"
       r="4" />
    <circle
       style="display:inline;fill:#ff0000;fill-opacity:1;stroke-width:0.313;stroke-dasharray:none"
       id="circle17"
       cx="23.74527"
       cy="116.4234"
       inkscape:label="p_s4_poly"
       r="4" />
    <circle
       style="display:inline;fill:#ff0000;fill-opacity:1;stroke-width:0.313;stroke-dasharray:none"
       id="circle45"
       cx="8.9286022"
       cy="115.89426"
       inkscape:label="p_s4_nrow"
       r="4" />
    <circle
       style="display:inline;fill:#00ff00;fill-opacity:1;stroke-width:0.313059"
       id="circle36"
       cx="98.868759"
       cy="97.373428"
       inkscape:label="in3_lights"
       r="4" />
    <circle
       style="fill:#0000ff;fill-opacity:1;stroke-width:0.313059"
       id="circle10"
       cx="38.496063"
       cy="97.373428"
       inkscape:label="out3_k"
       r="4" />
    <circle
       style="fill:#0000ff;fill-opacity:1;stroke-width:0.313;stroke-dasharray:none"
       id="circle11"
       cx="50.573891"
       cy="97.373428"
       inkscape:label="out3_x"
       r="4" />
    <circle
       style="fill:#0000ff;fill-opacity:1;stroke-width:0.313059"
       id="circle12"
       cx="62.651699"
       cy="97.373428"
       inkscape:label="out3_y"
       r="4" />
    <circle
       style="fill:#0000ff;fill-opacity:1;stroke-width:0.313059"
       id="circle13"
       cx="74.729507"
       cy="97.373428"
       inkscape:label="out3_z"
       r="4" />
    <circle
       style="display:inline;fill:#0000ff;fill-opacity:1;stroke-width:0.313059"
       id="circle9"
       cx="85.456215"
       cy="97.373428"
       inkscape:label="out3_kg"
       r="4" />
    <circle
       style="display:inline;fill:#ff0000;fill-opacity:1;stroke-width:0.313;stroke-dasharray:none"
       id="circle16"
       cx="23.74527"
       cy="97.373428"
       inkscape:label="p_s3_poly"
       r="4" />
    <circle
       style="display:inline;fill:#ff0000;fill-opacity:1;stroke-width:0.313;stroke-dasharray:none"
       id="circle44"
       cx="8.9286022"
       cy="96.844261"
       inkscape:label="p_s3_nrow"
       r="4" />
    <circle
       style="display:inline;fill:#00ff00;fill-opacity:1;stroke-width:0.313059"
       id="circle37"
       cx="98.868759"
       cy="77.79425"
       inkscape:label="in2_lights"
       r="4" />
    <circle
       style="fill:#0000ff;fill-opacity:1;stroke-width:0.313059"
       id="circle26"
       cx="38.496063"
       cy="77.79425"
       inkscape:label="out2_k"
       r="4" />
    <circle
       style="fill:#0000ff;fill-opacity:1;stroke-width:0.313;stroke-dasharray:none"
       id="circle27"
       cx="50.573891"
       cy="77.79425"
       inkscape:label="out2_x"
       r="4" />
    <circle
       style="fill:#0000ff;fill-opacity:1;stroke-width:0.313059"
       id="circle28"
       cx="62.651699"
       cy="77.79425"
       inkscape:label="out2_y"
       r="4" />
    <circle
       style="fill:#0000ff;fill-opacity:1;stroke-width:0.313059"
       id="circle29"
       cx="74.729507"
       cy="77.79425"
       inkscape:label="out2_z"
       r="4" />
    <circle
       style="display:inline;fill:#0000ff;fill-opacity:1;stroke-width:0.313059"
       id="circle41"
       cx="85.741516"
       cy="77.79425"
       inkscape:label="out2_kg"
       r="4" />
    <circle
       style="display:inline;fill:#ff0000;fill-opacity:1;stroke-width:0.313;stroke-dasharray:none"
       id="circle43"
       cx="8.9286022"
       cy="77.265076"
       inkscape:label="p_s2_nrow"
       r="4" />
    <circle
       style="display:inline;fill:#ff0000;fill-opacity:1;stroke-width:0.313;stroke-dasharray:none"
       id="circle38"
       cx="23.74527"
       cy="77.79425"
       inkscape:label="p_s2_poly"
       r="4" />
    <circle
       style="display:inline;fill:#00ff00;fill-opacity:1;stroke-width:0.313059"
       id="circle35"
       cx="98.868759"
       cy="58.215057"
       inkscape:label="in1_lights"
       r="4" />
    <circle
       style="fill:#0000ff;fill-opacity:1;stroke-width:0.313059"
       id="circle40"
       cx="85.456215"
       cy="58.215057"
       inkscape:label="out1_kg"
       r="4" />
    <circle
       style="display:inline;fill:#0000ff;fill-opacity:1;stroke-width:0.313059"
       id="circle31"
       cx="38.496063"
       cy="58.215057"
       inkscape:label="out1_k"
       r="4" />
    <circle
       style="display:inline;fill:#0000ff;fill-opacity:1;stroke-width:0.313;stroke-dasharray:none"
       id="circle32"
       cx="50.573891"
       cy="58.215057"
       inkscape:label="out1_x"
       r="4" />
    <circle
       style="display:inline;fill:#0000ff;fill-opacity:1;stroke-width:0.313059"
       id="circle33"
       cx="62.651699"
       cy="58.215057"
       inkscape:label="out1_y"
       r="4" />
    <circle
       style="display:inline;fill:#0000ff;fill-opacity:1;stroke-width:0.313059"
       id="circle34"
       cx="74.729507"
       cy="58.215057"
       inkscape:label="out1_z"
       r="4" />
    <circle
       style="display:inline;fill:#ff0000;fill-opacity:1;stroke-width:0.313;stroke-dasharray:none"
       id="circle42"
       cx="8.9286022"
       cy="58.215057"
       inkscape:label="p_s1_nrow"
       r="4" />
    <circle
       style="display:inline;fill:#ff0000;fill-opacity:1;stroke-width:0.313;stroke-dasharray:none"
       id="circle30"
       cx="23.74527"
       cy="58.215057"
       inkscape:label="p_s1_poly"
       r="4" />
    <circle
       style="display:inline;fill:#0000ff;fill-opacity:1;stroke-width:0.313059"
       id="circle39"
       cx="98.285309"
       cy="32.77195"
       inkscape:label="out_lights"
       r="4" />
    <circle
       style="display:inline;fill:#00ff00;fill-opacity:1;stroke-width:0.313059"
       id="circle1"
       cx="37.354851"
       cy="32.77195"
       inkscape:label="in_k"
       r="4" />
    <circle
       style="display:inline;fill:#00ff00;fill-opacity:1;stroke-width:0.313;stroke-dasharray:none"
       id="circle2"
       cx="49.432678"
       cy="32.77195"
       inkscape:label="in_x"
       r="4" />
    <circle
       style="display:inline;fill:#00ff00;fill-opacity:1;stroke-width:0.313059"
       id="circle3"
       cx="61.51049"
       cy="32.77195"
       inkscape:label="in_y"
       r="4" />
    <circle
       style="display:inline;fill:#00ff00;fill-opacity:1;stroke-width:0.313059"
       id="circle4"
       cx="73.588295"
       cy="32.77195"
       inkscape:label="in_z"
       r="4" />
    <circle
       style="display:inline;fill:#00ff00;fill-opacity:1;stroke-width:0.313059"
       id="circle3-8"
       cx="85.195206"
       cy="32.77195"
       inkscape:label="in_kg"
       r="4" />
    <circle
       style="display:inline;fill:#00ff00;fill-opacity:1;stroke-width:0.313059"
       id="circle52"
       cx="22.762968"
       cy="32.77195"
       inkscape:label="in_disable"
       r="4" />
  </g>
</svg>
