<?xml version="1.0" encoding="UTF-8" standalone="no"?>
<!-- Created with Inkscape (http://www.inkscape.org/) -->

<svg
   width="50.799999mm"
   height="128.5mm"
   viewBox="0 0 50.799999 128.5"
   version="1.1"
   id="svg1"
   inkscape:version="1.3 (0e150ed, 2023-07-21)"
   sodipodi:docname="ESwitch.svg"
   xmlns:inkscape="http://www.inkscape.org/namespaces/inkscape"
   xmlns:sodipodi="http://sodipodi.sourceforge.net/DTD/sodipodi-0.dtd"
   xmlns="http://www.w3.org/2000/svg"
   xmlns:svg="http://www.w3.org/2000/svg">
  <sodipodi:namedview
     id="namedview1"
     pagecolor="#ffffff"
     bordercolor="#000000"
     borderopacity="0.25"
     inkscape:showpageshadow="2"
     inkscape:pageopacity="0.0"
     inkscape:pagecheckerboard="0"
     inkscape:deskcolor="#d1d1d1"
     inkscape:document-units="mm"
     inkscape:zoom="0.92737795"
     inkscape:cx="76.55994"
     inkscape:cy="330.50171"
     inkscape:window-width="1552"
     inkscape:window-height="1146"
     inkscape:window-x="589"
     inkscape:window-y="207"
     inkscape:window-maximized="0"
     inkscape:current-layer="layer1"
     showgrid="false"
     showguides="true"
     showborder="false">
    <inkscape:grid
       id="grid1"
       units="mm"
       originx="0"
       originy="0"
       spacingx="0.99999998"
       spacingy="1"
       empcolor="#0099e5"
       empopacity="0.30196078"
       color="#0099e5"
       opacity="0.14901961"
       empspacing="5"
       dotted="false"
       gridanglex="30"
       gridanglez="30"
       visible="false" />
  </sodipodi:namedview>
  <defs
     id="defs1" />
  <g
     inkscape:label="background"
     inkscape:groupmode="layer"
     id="layer1"
     style="display:inline;fill:#ffffff">
    <rect
       style="display:inline;fill:#ffffff;fill-opacity:1;stroke-width:4.08699"
       id="background"
       width="50.799999"
       height="128.5"
       x="2.0636746e-06"
       y="-5.5511151e-17"
       inkscape:label="background"
       sodipodi:insensitive="true" />
    <path
       style="font-weight:bold;font-size:4.23333px;-inkscape-font-specification:'sans-serif Bold';fill:#ff0000;stroke-width:4.087"
       d="M 14.460913,7.1325645 H 13.671297 V 5.0717102 L 13.10079,6.4090951 H 12.55302 L 11.982513,5.0717102 V 7.1325645 H 11.234239 V 4.0547188 h 0.921907 l 0.692463,1.5440905 0.690397,-1.5440905 h 0.921907 z M 17.491216,6.109372 h -1.703253 q 0.01654,0.2728514 0.206705,0.4175453 0.192236,0.1446939 0.564306,0.1446939 0.235645,0 0.45682,-0.084749 0.221174,-0.084749 0.349332,-0.1819009 h 0.08268 V 7.00234 q -0.252181,0.1012858 -0.475423,0.146761 -0.223242,0.045475 -0.494026,0.045475 -0.698665,0 -1.070735,-0.3141924 -0.37207,-0.3141925 -0.37207,-0.8950351 0,-0.5746414 0.3514,-0.9095044 0.353466,-0.3369301 0.967382,-0.3369301 0.566373,0 0.851627,0.2873207 0.285253,0.2852537 0.285253,0.8226881 z M 16.75121,5.6732233 Q 16.745009,5.439646 16.635455,5.3218239 16.525901,5.2040017 16.294391,5.2040017 q -0.214974,0 -0.353466,0.111621 -0.138493,0.111621 -0.15503,0.3576006 z m 2.749185,1.4386707 q -0.11989,0.031006 -0.254248,0.047542 -0.134359,0.018603 -0.328662,0.018603 -0.434082,0 -0.646988,-0.1756998 -0.21084,-0.1756997 -0.21084,-0.6015131 V 5.3156227 H 17.753733 V 4.8112612 h 0.305924 V 4.1477363 h 0.74414 v 0.6635249 h 0.696598 v 0.5043615 h -0.696598 v 0.8226881 q 0,0.1219563 0.0021,0.2129067 0.0021,0.09095 0.03307,0.1632974 0.02894,0.072347 0.101286,0.1157551 0.07441,0.041341 0.214973,0.041341 0.05788,0 0.150895,-0.024805 0.09509,-0.024805 0.132292,-0.045475 h 0.06201 z m 1.850014,-0.5849767 v -0.483691 q -0.150895,0.012402 -0.326595,0.03514 -0.1757,0.020671 -0.26665,0.049609 -0.111621,0.03514 -0.171566,0.1033528 -0.05788,0.066146 -0.05788,0.1756997 0,0.072347 0.0124,0.1178222 0.0124,0.045475 0.06201,0.086816 0.04754,0.041341 0.113688,0.062012 0.06614,0.018603 0.206705,0.018603 0.111621,0 0.225309,-0.045475 0.115755,-0.045475 0.202572,-0.1198892 z m 0,0.3596676 q -0.05994,0.045475 -0.148828,0.109554 -0.08888,0.064079 -0.167432,0.1012857 -0.109554,0.049609 -0.227376,0.072347 -0.117822,0.024805 -0.258382,0.024805 -0.330729,0 -0.553971,-0.2046385 -0.223242,-0.2046385 -0.223242,-0.522965 0,-0.2542479 0.113688,-0.4154782 0.113688,-0.1612303 0.322461,-0.2542478 0.206706,-0.093017 0.51263,-0.1322916 0.305924,-0.039274 0.634586,-0.057878 v -0.012402 q 0,-0.1922362 -0.157096,-0.2645831 -0.157097,-0.074414 -0.463021,-0.074414 -0.183968,0 -0.39274,0.066146 -0.208773,0.064079 -0.299723,0.099219 h -0.06821 v -0.560172 q 0.117822,-0.031006 0.382405,-0.072347 0.26665,-0.043408 0.5333,-0.043408 0.634586,0 0.915706,0.1963703 0.283186,0.1943032 0.283186,0.6118484 v 1.5792304 h -0.737938 z m 6.137088,0.2459796 H 26.697882 V 5.0717102 l -0.570507,1.3373849 h -0.54777 L 25.009098,5.0717102 V 7.1325645 H 24.260824 V 4.0547188 h 0.921906 l 0.692464,1.5440905 0.690396,-1.5440905 h 0.921907 z m 3.117121,-1.1596181 q 0,0.5725744 -0.334863,0.9033033 -0.332796,0.3286618 -0.936376,0.3286618 -0.603581,0 -0.938444,-0.3286618 -0.332796,-0.3307289 -0.332796,-0.9033033 0,-0.5767085 0.334863,-0.9053704 0.33693,-0.3286618 0.936377,-0.3286618 0.607714,0 0.938443,0.3307289 0.332796,0.3307289 0.332796,0.9033033 z m -0.915706,0.5643061 q 0.07235,-0.088883 0.107487,-0.2129067 0.03721,-0.1260904 0.03721,-0.3472653 0,-0.2046385 -0.03721,-0.3431312 -0.03721,-0.1384928 -0.103353,-0.221175 -0.06615,-0.084749 -0.159163,-0.1198892 -0.09302,-0.03514 -0.200504,-0.03514 -0.107487,0 -0.192237,0.028939 -0.08268,0.028939 -0.159163,0.1157551 -0.06821,0.080615 -0.109554,0.221175 -0.03927,0.1405598 -0.03927,0.3534665 0,0.1901691 0.03514,0.3307289 0.03514,0.1384927 0.103353,0.223242 0.06615,0.080615 0.157096,0.1178221 0.09302,0.037207 0.21084,0.037207 0.101285,0 0.192236,-0.033073 0.09302,-0.03514 0.157096,-0.1157552 z M 32.8205,5.5202612 h -0.06615 q -0.04754,-0.016536 -0.152962,-0.024805 -0.10542,-0.00827 -0.1757,-0.00827 -0.159163,0 -0.281119,0.020671 -0.121957,0.020671 -0.262516,0.07028 v 1.5544257 h -0.74414 V 4.8112612 h 0.74414 v 0.3410641 q 0.245979,-0.2108396 0.42788,-0.2790525 0.181901,-0.07028 0.334863,-0.07028 0.03927,0 0.08888,0.00207 0.04961,0.00207 0.08682,0.0062 z m 2.844269,0.4196123 q 0,0.2873207 -0.08888,0.522965 -0.08682,0.2356444 -0.229444,0.3886065 -0.148828,0.1612303 -0.33693,0.2439125 -0.188102,0.082682 -0.403075,0.082682 -0.198438,0 -0.33693,-0.043408 -0.138493,-0.041341 -0.283187,-0.1178222 v 0.967382 H 33.24218 V 4.8112612 h 0.74414 v 0.2418455 q 0.171566,-0.1364257 0.349332,-0.221175 0.179834,-0.084749 0.413411,-0.084749 0.434082,0 0.673861,0.3183266 0.241845,0.3183265 0.241845,0.8743642 z m -0.766878,0.014469 q 0,-0.3389971 -0.115755,-0.4919592 -0.115755,-0.1529622 -0.365869,-0.1529622 -0.105419,0 -0.21704,0.033073 -0.111621,0.031006 -0.212907,0.09095 v 1.1678864 q 0.07441,0.028939 0.159163,0.037207 0.08475,0.00827 0.167432,0.00827 0.295589,0 0.440283,-0.1715656 0.144693,-0.1736327 0.144693,-0.520898 z m 3.635951,1.1782216 H 37.785568 V 5.9812146 q 0,-0.1405598 -0.01447,-0.2790525 -0.01447,-0.1405598 -0.04961,-0.2067056 -0.04134,-0.076481 -0.121957,-0.111621 -0.07855,-0.03514 -0.221175,-0.03514 -0.101285,0 -0.206705,0.033073 -0.103353,0.033073 -0.225309,0.1054198 v 1.6453762 h -0.74414 V 3.9162261 h 0.74414 V 5.067576 q 0.198437,-0.1550291 0.380338,-0.2377113 0.183968,-0.082682 0.40721,-0.082682 0.376204,0 0.587044,0.2191079 0.212906,0.2191079 0.212906,0.6552566 z"
       id="text4"
       inkscape:label="text4"
       aria-label="Meta Morph" />
    <rect
       style="fill:#000000;fill-opacity:0.72;stroke-width:4.08699"
       id="rect23"
       width="48.786743"
       height="13.123919"
       x="0.8559078"
       y="93.520233"
       rx="2"
       ry="2" />
    <path
       style="font-weight:bold;font-size:2.82223px;-inkscape-font-specification:'sans-serif Bold';display:inline;fill:#ff0000;stroke-width:4.087"
       d="m 5.8842266,57.878974 h -0.649058 l -0.613229,-0.82132 -0.124023,0.15021 v 0.67111 h -0.529168 v -2.05191 h 0.529168 v 0.9288 l 0.733118,-0.9288 h 0.613229 l -0.802021,0.94947 z m 1.757004,-0.68213 h -1.135507 q 0.01102,0.1819 0.137804,0.27836 0.128158,0.0965 0.376206,0.0965 0.157096,0 0.304547,-0.0565 0.14745,-0.0565 0.232889,-0.12126 h 0.05512 v 0.39825 q -0.168121,0.0675 -0.31695,0.0978 -0.148828,0.0303 -0.329352,0.0303 -0.465778,0 -0.713826,-0.20946 -0.248047,-0.20947 -0.248047,-0.5967 0,-0.38309 0.234267,-0.60634 0.235645,-0.22462 0.644924,-0.22462 0.377583,0 0.567753,0.19155 0.19017,0.19017 0.19017,0.54846 z m -0.49334,-0.29077 q -0.0041,-0.15572 -0.07717,-0.23427 -0.07304,-0.0786 -0.227377,-0.0786 -0.143316,0 -0.235645,0.0744 -0.09233,0.0744 -0.103353,0.2384 z m 1.542029,0.42581 0.352779,-1.00045 h 0.5098757 l -0.8598977,2.11529 h -0.537437 l 0.245292,-0.57878 -0.602205,-1.53651 h 0.5209 z"
       id="text2"
       aria-label="Key" />
    <path
       style="font-weight:bold;font-size:2.82223px;-inkscape-font-specification:'sans-serif Bold';display:inline;fill:#000000;stroke-width:4.087"
       d="m 19.808932,57.917554 h -0.611851 l -0.442352,-0.67524 -0.450619,0.67524 h -0.58429 l 0.727606,-1.03353 -0.712448,-1.01838 h 0.610473 l 0.427193,0.63941 0.439595,-0.63941 h 0.585668 l -0.716582,0.9977 z"
       id="text3"
       aria-label="X" />
    <path
       style="font-weight:bold;font-size:2.82223px;-inkscape-font-specification:'sans-serif Bold';display:inline;fill:#000000;stroke-width:4.087"
       d="m 31.736518,55.865654 -0.756545,1.25815 v 0.79375 h -0.529168 v -0.76894 l -0.768948,-1.28296 h 0.600827 l 0.443729,0.79375 0.428571,-0.79375 z"
       id="text6"
       aria-label="Y" />
    <path
       style="font-weight:bold;font-size:2.82223px;-inkscape-font-specification:'sans-serif Bold';display:inline;fill:#000000;stroke-width:4.087"
       d="m 44.356025,57.917554 h -1.723931 v -0.38448 l 1.022507,-1.27055 h -0.972897 v -0.39688 h 1.619199 v 0.39137 l -1.021129,1.26366 h 1.076251 z"
       id="text7"
       aria-label="Z" />
    <rect
       style="fill:#000000;fill-opacity:0.72;stroke-width:4.08699"
       id="rect1"
       width="48.786743"
       height="13.123919"
       x="0.8559078"
       y="75.528549"
       rx="2"
       ry="2" />
    <path
       style="font-weight:bold;font-size:2.82223px;-inkscape-font-specification:'sans-serif Bold';display:inline;fill:#ff0000;stroke-width:4.087"
       d="m 5.8842266,92.274825 h -0.649058 l -0.613229,-0.821314 -0.124023,0.150207 v 0.671107 h -0.529168 v -2.051908 h 0.529168 v 0.928804 l 0.733118,-0.928804 h 0.613229 l -0.802021,0.949474 z m 1.757004,-0.682127 h -1.135507 q 0.01102,0.1819 0.137804,0.27836 0.128158,0.0965 0.376206,0.0965 0.157096,0 0.304547,-0.0565 0.14745,-0.0565 0.232889,-0.12126 h 0.05512 v 0.398247 q -0.168121,0.0675 -0.31695,0.0978 -0.148828,0.0303 -0.329352,0.0303 -0.465778,0 -0.713826,-0.20946 -0.248047,-0.209467 -0.248047,-0.596694 0,-0.38309 0.234267,-0.606347 0.235645,-0.22462 0.644924,-0.22462 0.377583,0 0.567753,0.19155 0.19017,0.190177 0.19017,0.548467 z m -0.49334,-0.290767 q -0.0041,-0.15572 -0.07717,-0.23427 -0.07304,-0.0786 -0.227377,-0.0786 -0.143316,0 -0.235645,0.0744 -0.09233,0.0744 -0.103353,0.2384 z m 1.542029,0.425807 0.352779,-1.000454 h 0.5098757 l -0.8598977,2.115298 h -0.537437 l 0.245292,-0.578787 -0.602205,-1.536511 h 0.5209 z"
       id="path13"
       aria-label="Key" />
    <path
       style="font-weight:bold;font-size:2.82223px;-inkscape-font-specification:'sans-serif Bold';display:inline;fill:#000000;stroke-width:4.087"
       d="m 19.808932,92.313405 h -0.611851 l -0.442352,-0.675237 -0.450619,0.675237 h -0.58429 l 0.727606,-1.033524 -0.712448,-1.018384 h 0.610473 l 0.427193,0.639407 0.439595,-0.639407 h 0.585668 l -0.716582,0.997704 z"
       id="path14"
       aria-label="X" />
    <path
       style="font-weight:bold;font-size:2.82223px;-inkscape-font-specification:'sans-serif Bold';display:inline;fill:#000000;stroke-width:4.087"
       d="m 31.736518,90.261507 -0.756545,1.258154 v 0.793744 h -0.529168 v -0.768937 l -0.768948,-1.282961 h 0.600827 l 0.443729,0.793754 0.428571,-0.793754 z"
       id="path15"
       aria-label="Y" />
    <path
       style="font-weight:bold;font-size:2.82223px;-inkscape-font-specification:'sans-serif Bold';display:inline;fill:#000000;stroke-width:4.087"
       d="m 44.356025,92.313405 h -1.723931 v -0.384477 l 1.022507,-1.270554 h -0.972897 v -0.396877 h 1.619199 v 0.391367 l -1.021129,1.263664 h 1.076251 z"
       id="path16"
       aria-label="Z" />
    <path
       style="font-weight:bold;font-size:2.82223px;-inkscape-font-specification:'sans-serif Bold';display:inline;fill:#ff0000;stroke-width:4.087"
       d="m 5.8842266,73.75398 h -0.649058 l -0.613229,-0.821314 -0.124023,0.150207 v 0.671107 h -0.529168 v -2.051908 h 0.529168 v 0.928804 l 0.733118,-0.928804 h 0.613229 l -0.802021,0.949474 z m 1.757004,-0.682127 h -1.135507 q 0.01102,0.1819 0.137804,0.27836 0.128158,0.0965 0.376206,0.0965 0.157096,0 0.304547,-0.0565 0.14745,-0.0565 0.232889,-0.12126 h 0.05512 V 73.6672 q -0.168121,0.0675 -0.31695,0.0978 -0.148828,0.0303 -0.329352,0.0303 -0.465778,0 -0.713826,-0.20946 -0.248047,-0.209467 -0.248047,-0.596694 0,-0.38309 0.234267,-0.606347 0.235645,-0.22462 0.644924,-0.22462 0.377583,0 0.567753,0.19155 0.19017,0.190177 0.19017,0.548467 z m -0.49334,-0.290767 q -0.0041,-0.15572 -0.07717,-0.23427 -0.07304,-0.0786 -0.227377,-0.0786 -0.143316,0 -0.235645,0.0744 -0.09233,0.0744 -0.103353,0.2384 z m 1.542029,0.425807 0.352779,-1.000454 h 0.5098757 l -0.8598977,2.115298 h -0.537437 l 0.245292,-0.578787 -0.602205,-1.536511 h 0.5209 z"
       id="path17"
       aria-label="Key" />
    <path
       style="font-weight:bold;font-size:2.82223px;-inkscape-font-specification:'sans-serif Bold';display:inline;fill:#000000;stroke-width:4.087"
       d="M 19.808932,73.79256 H 19.197081 L 18.754729,73.117323 18.30411,73.79256 h -0.58429 l 0.727606,-1.033524 -0.712448,-1.018384 h 0.610473 l 0.427193,0.639407 0.439595,-0.639407 h 0.585668 l -0.716582,0.997704 z"
       id="path18"
       aria-label="X" />
    <path
       style="font-weight:bold;font-size:2.82223px;-inkscape-font-specification:'sans-serif Bold';display:inline;fill:#000000;stroke-width:4.087"
       d="m 31.736518,71.740662 -0.756545,1.258154 v 0.793744 h -0.529168 v -0.768937 l -0.768948,-1.282961 h 0.600827 l 0.443729,0.793754 0.428571,-0.793754 z"
       id="path19"
       aria-label="Y" />
    <path
       style="font-weight:bold;font-size:2.82223px;-inkscape-font-specification:'sans-serif Bold';display:inline;fill:#000000;stroke-width:4.087"
       d="m 44.356025,73.79256 h -1.723931 v -0.384477 l 1.022507,-1.270554 h -0.972897 v -0.396877 h 1.619199 v 0.391367 l -1.021129,1.263664 h 1.076251 z"
       id="path20"
       aria-label="Z" />
    <rect
       style="fill:#800000;fill-opacity:0.72;stroke-width:2.09658"
       id="rect39"
       width="13"
       height="13"
       x="36.839252"
       y="111.51189"
       rx="2"
       ry="2" />
    <path
       style="font-weight:bold;font-size:2.82223px;-inkscape-font-specification:'sans-serif Bold';fill:#ff0000;fill-opacity:0.765203;stroke-width:4.087"
       d="m 39.972394,110.4121 h -1.480017 v -2.0519 h 0.529168 v 1.65503 h 0.950849 z m 0.786862,0 h -0.496095 v -1.54754 h 0.496095 z m 0.01378,-1.76803 H 40.24938 v -0.3762 h 0.523656 z m 1.959576,1.59026 q 0,0.21773 -0.06201,0.36656 -0.06201,0.14883 -0.173633,0.23289 -0.111621,0.0854 -0.270096,0.12265 -0.157097,0.0386 -0.355535,0.0386 -0.161231,0 -0.318328,-0.0193 -0.155719,-0.0193 -0.270096,-0.0468 v -0.38723 h 0.06063 q 0.09095,0.0358 0.221865,0.0648 0.130914,0.0303 0.234267,0.0303 0.137804,0 0.223243,-0.0262 0.08682,-0.0248 0.132292,-0.0717 0.04272,-0.0441 0.06201,-0.113 0.01929,-0.0689 0.01929,-0.16536 v -0.0289 q -0.08957,0.073 -0.198438,0.11575 -0.108865,0.0427 -0.242535,0.0427 -0.325218,0 -0.501608,-0.19568 -0.176389,-0.19568 -0.176389,-0.59531 0,-0.19155 0.05374,-0.33073 0.05374,-0.13919 0.151584,-0.24254 0.09095,-0.0965 0.223243,-0.15021 0.13367,-0.0537 0.272852,-0.0537 0.125402,0 0.227377,0.0303 0.103353,0.0289 0.187414,0.0813 l 0.01792,-0.0689 h 0.480936 z m -0.496095,-0.31006 v -0.70142 q -0.04272,-0.0179 -0.104731,-0.0276 -0.06201,-0.011 -0.111622,-0.011 -0.195682,0 -0.293523,0.113 -0.09784,0.11162 -0.09784,0.31281 0,0.22324 0.08268,0.31144 0.08406,0.0882 0.248048,0.0882 0.07441,0 0.146072,-0.0234 0.07166,-0.0234 0.130914,-0.062 z m 2.519061,0.48783 h -0.498851 v -0.76757 q 0,-0.0937 -0.0096,-0.18603 -0.0096,-0.0937 -0.03307,-0.13781 -0.02756,-0.051 -0.0813,-0.0744 -0.05237,-0.0234 -0.147451,-0.0234 -0.06752,0 -0.137804,0.0221 -0.0689,0.022 -0.150206,0.0703 v 1.09692 h -0.496095 v -2.14423 h 0.496095 v 0.76757 q 0.132292,-0.10336 0.253559,-0.15848 0.122646,-0.0551 0.271475,-0.0551 0.250803,0 0.391364,0.14607 0.141938,0.14608 0.141938,0.43684 z m 1.445566,-0.0138 q -0.07993,0.0207 -0.169499,0.0317 -0.08957,0.0124 -0.219109,0.0124 -0.289389,0 -0.431327,-0.11713 -0.14056,-0.11714 -0.14056,-0.40102 v -0.72347 h -0.20395 v -0.33624 h 0.20395 v -0.44235 h 0.496095 v 0.44235 h 0.4644 v 0.33624 h -0.4644 v 0.54846 q 0,0.0813 0.0014,0.14194 0.0014,0.0606 0.02205,0.10887 0.01929,0.0482 0.06752,0.0772 0.04961,0.0276 0.143316,0.0276 0.03859,0 0.100597,-0.0165 0.06339,-0.0165 0.08819,-0.0303 h 0.04134 z m 1.641248,-0.4768 q 0,0.23978 -0.214974,0.38723 -0.214975,0.14607 -0.588424,0.14607 -0.206707,0 -0.374828,-0.0386 -0.168121,-0.0386 -0.270096,-0.0854 v -0.4079 h 0.04548 q 0.03721,0.0262 0.08544,0.0579 0.04961,0.0303 0.139182,0.0661 0.07717,0.0317 0.175012,0.0551 0.09784,0.022 0.209462,0.022 0.146072,0 0.216353,-0.0317 0.07028,-0.0331 0.07028,-0.0965 0,-0.0565 -0.04134,-0.0813 -0.04134,-0.0262 -0.157096,-0.0496 -0.05512,-0.0124 -0.150207,-0.0262 -0.09371,-0.0152 -0.170877,-0.0358 -0.210841,-0.0551 -0.312816,-0.17088 -0.101975,-0.11713 -0.101975,-0.29077 0,-0.22324 0.210841,-0.37069 0.212218,-0.14883 0.578777,-0.14883 0.173634,0 0.332108,0.0358 0.159853,0.0345 0.249426,0.0744 v 0.39137 h -0.04272 q -0.110244,-0.0758 -0.252182,-0.12265 -0.14056,-0.0482 -0.285255,-0.0482 -0.119889,0 -0.202572,0.0331 -0.0813,0.0331 -0.0813,0.0937 0,0.0551 0.03721,0.0841 0.03721,0.0289 0.175011,0.0579 0.07579,0.0152 0.162609,0.0303 0.08819,0.0138 0.176389,0.0358 0.195682,0.051 0.289389,0.16123 0.09371,0.10886 0.09371,0.27285 z"
       id="text39"
       aria-label="Lights" />
    <path
       style="font-weight:bold;font-size:2.82223px;-inkscape-font-specification:'sans-serif Bold';fill:#ff0000;fill-opacity:0.765203;stroke-width:4.087"
       d="m 26.778445,110.65597 h -1.480018 v -2.0519 h 0.529168 v 1.65502 h 0.95085 z m 0.786862,0 h -0.496095 v -1.54754 h 0.496095 z m 0.01378,-1.76803 h -0.523655 v -0.3762 h 0.523656 z m 1.959577,1.59026 q 0,0.21773 -0.06201,0.36656 -0.06201,0.14883 -0.173633,0.23289 -0.111622,0.0854 -0.270097,0.12265 -0.157097,0.0386 -0.355535,0.0386 -0.161231,0 -0.318328,-0.0193 -0.155718,-0.0193 -0.270096,-0.0469 v -0.38723 h 0.06063 q 0.09095,0.0358 0.221865,0.0648 0.130914,0.0303 0.234267,0.0303 0.137805,0 0.223243,-0.0262 0.08682,-0.0248 0.132292,-0.0717 0.04272,-0.0441 0.06201,-0.113 0.01929,-0.0689 0.01929,-0.16536 v -0.0289 q -0.08957,0.073 -0.198438,0.11575 -0.108865,0.0427 -0.242535,0.0427 -0.325219,0 -0.501608,-0.19568 -0.17639,-0.19568 -0.17639,-0.59531 0,-0.19155 0.05374,-0.33073 0.05374,-0.13919 0.151585,-0.24254 0.09095,-0.0965 0.223243,-0.15021 0.13367,-0.0537 0.272853,-0.0537 0.125402,0 0.227377,0.0303 0.103353,0.0289 0.187413,0.0813 l 0.01792,-0.0689 h 0.480936 z m -0.496095,-0.31006 v -0.70142 q -0.04272,-0.0179 -0.104732,-0.0276 -0.06201,-0.011 -0.111621,-0.011 -0.195682,0 -0.293523,0.11299 -0.09784,0.11163 -0.09784,0.31282 0,0.22324 0.08268,0.31144 0.08406,0.0882 0.248047,0.0882 0.07441,0 0.146073,-0.0234 0.07166,-0.0234 0.130914,-0.062 z m 2.519062,0.48783 h -0.498852 v -0.76757 q 0,-0.0937 -0.0097,-0.18603 -0.0096,-0.0937 -0.03307,-0.13781 -0.02756,-0.051 -0.0813,-0.0744 -0.05237,-0.0234 -0.147451,-0.0234 -0.06752,0 -0.137804,0.022 -0.0689,0.0221 -0.150207,0.0703 v 1.09692 h -0.496049 v -2.14423 h 0.496096 v 0.76757 q 0.132292,-0.10336 0.25356,-0.15848 0.122645,-0.0551 0.271474,-0.0551 0.250804,0 0.391364,0.14607 0.141938,0.14607 0.141938,0.43684 z m 1.445567,-0.0138 q -0.07993,0.0207 -0.1695,0.0317 -0.08957,0.0124 -0.219108,0.0124 -0.289389,0 -0.431328,-0.11714 -0.14056,-0.11713 -0.14056,-0.40101 v -0.72345 h -0.203951 v -0.33624 h 0.203951 v -0.44235 h 0.496095 v 0.44235 h 0.464401 v 0.33624 h -0.464401 v 0.54846 q 0,0.0813 0.0014,0.14194 0.0014,0.0606 0.02205,0.10887 0.01929,0.0482 0.06752,0.0772 0.04961,0.0276 0.143316,0.0276 0.03859,0 0.100598,-0.0165 0.06339,-0.0165 0.08819,-0.0303 h 0.04134 z m 1.641248,-0.4768 q 0,0.23978 -0.214975,0.38723 -0.214975,0.14607 -0.588424,0.14607 -0.206706,0 -0.374827,-0.0386 -0.168122,-0.0386 -0.270097,-0.0854 v -0.4079 h 0.04548 q 0.03721,0.0262 0.08544,0.0579 0.04961,0.0303 0.139183,0.0661 0.07717,0.0317 0.175011,0.0551 0.09784,0.0221 0.209462,0.0221 0.146073,0 0.216353,-0.0317 0.07028,-0.0331 0.07028,-0.0965 0,-0.0565 -0.04134,-0.0813 -0.04134,-0.0262 -0.157097,-0.0496 -0.05512,-0.0124 -0.150207,-0.0262 -0.09371,-0.0152 -0.170877,-0.0358 -0.21084,-0.0551 -0.312815,-0.17088 -0.101975,-0.11713 -0.101975,-0.29077 0,-0.22324 0.21084,-0.37069 0.212218,-0.14883 0.578778,-0.14883 0.173633,0 0.332108,0.0358 0.159853,0.0344 0.249425,0.0744 v 0.39137 h -0.04272 q -0.110243,-0.0758 -0.252182,-0.12265 -0.14056,-0.0482 -0.285254,-0.0482 -0.11989,0 -0.202572,0.0331 -0.0813,0.0331 -0.0813,0.0937 0,0.0551 0.03721,0.0841 0.03721,0.0289 0.175012,0.0579 0.07579,0.0152 0.162608,0.0303 0.08819,0.0138 0.17639,0.0358 0.195682,0.051 0.289389,0.16124 0.09371,0.10886 0.09371,0.27285 z"
       id="text40"
       aria-label="Lights" />
    <path
       style="font-weight:bold;font-size:2.82223px;-inkscape-font-specification:'sans-serif Bold';fill:#000000;stroke-width:4.087"
       d="M 3.5821101,111.22657 H 2.0979588 v -2.0519 h 1.4841513 v 0.39687 H 2.6243709 v 0.35416 H 3.513208 v 0.39687 H 2.6243709 v 0.50712 h 0.9577392 z m 1.9706001,0 H 5.053859 V 110.459 q 0,-0.0937 -0.00965,-0.18603 -0.00965,-0.0937 -0.033073,-0.13781 -0.027561,-0.051 -0.081304,-0.0744 -0.052366,-0.0234 -0.1474505,-0.0234 -0.067524,0 -0.1378042,0.0221 -0.068902,0.022 -0.1502066,0.0703 v 1.09692 H 3.9982788 v -1.54754 h 0.4960951 v 0.17088 q 0.132292,-0.10336 0.2535597,-0.15848 0.1226458,-0.0551 0.2714743,-0.0551 0.2508037,0 0.391364,0.14607 0.1419383,0.14607 0.1419383,0.43684 z m 1.3932005,-0.40377 v -0.32246 q -0.100597,0.008 -0.2177306,0.0234 -0.1171336,0.0138 -0.1777674,0.0331 -0.074414,0.0234 -0.1143775,0.0689 -0.038585,0.0441 -0.038585,0.11714 0,0.0482 0.00827,0.0786 0.00827,0.0303 0.041341,0.0579 0.031695,0.0276 0.075792,0.0413 0.044097,0.0124 0.1378042,0.0124 0.074414,0 0.1502066,-0.0303 0.07717,-0.0303 0.1350481,-0.0799 z m 0,0.23978 q -0.039963,0.0303 -0.099219,0.073 -0.059256,0.0427 -0.1116214,0.0675 -0.073036,0.0331 -0.1515846,0.0482 -0.078548,0.0165 -0.1722553,0.0165 -0.2204867,0 -0.3693152,-0.13642 -0.1488286,-0.13643 -0.1488286,-0.34865 0,-0.1695 0.075792,-0.27699 0.075792,-0.10748 0.2149746,-0.1695 0.1378042,-0.062 0.3417544,-0.0882 0.2039502,-0.0262 0.4230589,-0.0386 v -0.008 q 0,-0.12816 -0.1047312,-0.17639 -0.1047312,-0.0496 -0.3086814,-0.0496 -0.1226457,0 -0.261828,0.0441 -0.1391822,0.0427 -0.1998161,0.0661 h -0.045475 v -0.37345 q 0.078548,-0.0207 0.2549378,-0.0482 0.1777674,-0.0289 0.3555349,-0.0289 0.4230589,0 0.6104726,0.13092 0.1887917,0.12953 0.1887917,0.4079 v 1.05282 h -0.491961 z m 2.5631581,-0.63114 q 0,0.36518 -0.2025722,0.59531 -0.2011941,0.23014 -0.5029853,0.23014 -0.129536,0 -0.2273769,-0.0276 -0.097841,-0.0276 -0.1860357,-0.0799 l -0.020671,0.0772 H 7.8940035 v -2.14423 h 0.4960952 v 0.75792 q 0.1143775,-0.091 0.2328891,-0.14745 0.1198896,-0.0565 0.2756084,-0.0565 0.2935229,0 0.4519978,0.21222 0.1584748,0.21084 0.1584748,0.58291 z m -0.5112536,0.01 q 0,-0.20671 -0.07028,-0.31833 -0.07028,-0.11162 -0.2508037,-0.11162 -0.07028,0 -0.1446944,0.0221 -0.074414,0.0207 -0.1419383,0.0606 v 0.77722 q 0.053744,0.0193 0.1019751,0.0262 0.048231,0.007 0.1157555,0.007 0.19706,0 0.293523,-0.11576 0.096463,-0.11575 0.096463,-0.34726 z m 1.3656398,0.78548 H 9.8673598 v -2.14423 h 0.4960952 z m 1.992648,-0.68213 h -1.135506 q 0.01102,0.1819 0.137804,0.27836 0.128158,0.0965 0.376205,0.0965 0.157097,0 0.304548,-0.0565 0.14745,-0.0565 0.232889,-0.12127 h 0.05512 v 0.39825 q -0.168122,0.0675 -0.31695,0.0978 -0.148829,0.0303 -0.329352,0.0303 -0.465778,0 -0.713826,-0.20946 -0.248047,-0.20946 -0.248047,-0.59669 0,-0.3831 0.234267,-0.60634 0.235645,-0.22462 0.644923,-0.22462 0.377584,0 0.567754,0.19155 0.190169,0.19017 0.190169,0.54846 z m -0.493339,-0.29077 q -0.0041,-0.15572 -0.07717,-0.23426 -0.07304,-0.0785 -0.227377,-0.0785 -0.143316,0 -0.235645,0.0744 -0.09233,0.0744 -0.103353,0.2384 z"
       id="text53"
       aria-label="Enable" />
    <path
       style="font-weight:bold;font-size:4.23333px;-inkscape-font-specification:'sans-serif Bold';fill:#000000;stroke-width:4.087"
       d="m 17.692406,11.300628 q 0,0.454752 -0.386539,0.740006 -0.384473,0.283187 -1.04593,0.283187 -0.382406,0 -0.667659,-0.06615 -0.283187,-0.06821 -0.531234,-0.171566 V 11.34817 h 0.08682 q 0.245979,0.196371 0.549836,0.301791 0.305925,0.105419 0.587044,0.105419 0.07235,0 0.190169,-0.0124 0.117823,-0.0124 0.192237,-0.04134 0.09095,-0.03721 0.148828,-0.09302 0.05994,-0.05581 0.05994,-0.165364 0,-0.101286 -0.08682,-0.173633 -0.08475,-0.07441 -0.250114,-0.113688 -0.173633,-0.04134 -0.367936,-0.07648 -0.192236,-0.03721 -0.361735,-0.09302 -0.388606,-0.126091 -0.560172,-0.341064 -0.169498,-0.217041 -0.169498,-0.537435 0,-0.4299475 0.384472,-0.7007317 0.38654,-0.2728514 0.992187,-0.2728514 0.303857,0 0.599446,0.059945 0.297656,0.057878 0.514697,0.146761 V 10.05006 h -0.08475 Q 17.299666,9.9012315 17.028881,9.8020129 16.760164,9.7007271 16.479044,9.7007271 q -0.09922,0 -0.198437,0.014469 -0.09715,0.012402 -0.188102,0.049609 -0.08061,0.031006 -0.138493,0.095084 -0.05788,0.062012 -0.05788,0.1426266 0,0.121957 0.09302,0.188102 0.09302,0.06408 0.3514,0.117822 0.169498,0.03514 0.324527,0.06821 0.157097,0.03307 0.336931,0.09095 0.353466,0.115755 0.520898,0.316259 0.169498,0.198438 0.169498,0.516764 z M 21.896797,9.9467068 21.177462,12.26801 h -0.789616 l -0.473355,-1.564761 -0.465088,1.564761 h -0.79995 L 17.936319,9.9467068 h 0.781347 l 0.396874,1.5999012 0.496094,-1.5999012 h 0.65939 l 0.471289,1.5999012 0.390673,-1.5999012 z m 1.188557,2.3213032 h -0.74414 V 9.9467068 h 0.74414 z m 0.02067,-2.6520321 H 22.320544 V 9.0516717 h 0.785481 z m 2.166274,2.6313621 q -0.11989,0.03101 -0.254248,0.04754 -0.134359,0.0186 -0.328662,0.0186 -0.434082,0 -0.646988,-0.175699 -0.21084,-0.1757 -0.21084,-0.601514 V 10.451068 H 23.525637 V 9.9467068 h 0.305924 V 9.2831819 h 0.74414 v 0.6635249 h 0.696598 v 0.5043612 h -0.696598 v 0.822688 q 0,0.121957 0.0021,0.212907 0.0021,0.09095 0.03307,0.163298 0.02894,0.07235 0.101286,0.115755 0.07441,0.04134 0.214973,0.04134 0.05788,0 0.150895,-0.02481 0.09508,-0.0248 0.132292,-0.04547 h 0.06201 z m 1.653644,0.08268 q -0.303857,0 -0.556038,-0.07235 -0.250113,-0.07235 -0.436148,-0.223242 -0.183968,-0.150895 -0.285254,-0.380338 -0.101286,-0.229444 -0.101286,-0.537435 0,-0.324528 0.107487,-0.560172 0.109554,-0.235644 0.303857,-0.390673 0.188102,-0.146761 0.434082,-0.2149741 0.24598,-0.068213 0.510563,-0.068213 0.237711,0 0.438215,0.051676 0.200505,0.051676 0.374138,0.1343586 v 0.634586 h -0.10542 q -0.04341,-0.03721 -0.10542,-0.08682 -0.05995,-0.04961 -0.148828,-0.09715 -0.08475,-0.04547 -0.186035,-0.07441 -0.101286,-0.03101 -0.235644,-0.03101 -0.297656,0 -0.458887,0.190169 -0.159163,0.188102 -0.159163,0.51263 0,0.334863 0.163297,0.508496 0.165365,0.173633 0.467155,0.173633 0.14056,0 0.252181,-0.03101 0.113688,-0.03307 0.188102,-0.07648 0.07028,-0.04134 0.124023,-0.08682 0.05374,-0.04547 0.09922,-0.08888 h 0.10542 v 0.634586 q -0.1757,0.08268 -0.367936,0.130224 -0.190169,0.04961 -0.42168,0.04961 z m 3.613213,-0.06201 h -0.748274 v -1.15135 q 0,-0.14056 -0.01447,-0.279052 -0.01447,-0.14056 -0.04961,-0.206706 -0.04134,-0.07648 -0.121956,-0.111621 -0.07855,-0.03514 -0.221175,-0.03514 -0.101285,0 -0.206705,0.03307 -0.103353,0.03307 -0.225309,0.10542 v 1.645376 h -0.74414 V 9.0516717 h 0.74414 v 1.1513503 q 0.198437,-0.15503 0.380338,-0.2377117 0.183968,-0.082682 0.40721,-0.082682 0.376204,0 0.587044,0.219108 0.212906,0.219108 0.212906,0.655257 z m 2.970359,-1.023192 h -1.703254 q 0.01654,0.272851 0.206706,0.417545 0.192236,0.144694 0.564306,0.144694 0.235644,0 0.456819,-0.08475 0.221175,-0.08475 0.349333,-0.1819 h 0.08268 v 0.597379 q -0.252181,0.101285 -0.475423,0.146761 -0.223242,0.04547 -0.494026,0.04547 -0.698665,0 -1.070735,-0.314193 -0.37207,-0.314192 -0.37207,-0.895035 0,-0.574641 0.351399,-0.909504 0.353467,-0.3369302 0.967382,-0.3369302 0.566374,0 0.851627,0.2873212 0.285254,0.285253 0.285254,0.822688 z m -0.740006,-0.436149 q -0.0062,-0.233577 -0.115755,-0.3514 -0.109554,-0.117822 -0.341064,-0.117822 -0.214974,0 -0.353467,0.111621 -0.138492,0.111621 -0.155029,0.357601 z m 2.947621,-0.152962 h -0.06615 q -0.04754,-0.01654 -0.152962,-0.0248 -0.10542,-0.0083 -0.1757,-0.0083 -0.159163,0 -0.281119,0.02067 -0.121956,0.02067 -0.262516,0.07028 v 1.554426 h -0.74414 V 9.9467068 h 0.74414 v 0.3410642 q 0.245979,-0.21084 0.42788,-0.279053 0.181901,-0.070279 0.334863,-0.070279 0.03927,0 0.08888,0.00207 0.04961,0.00207 0.08682,0.0062 z"
       id="text8"
       aria-label="Switcher" />
    <path
       style="display:inline;font-weight:bold;font-size:2.82223px;-inkscape-font-specification:'sans-serif Bold';stroke-width:4.087;fill:#000000"
       d="m 19.878518,40.153344 q 0,0.303169 -0.257694,0.493339 -0.256316,0.188791 -0.697289,0.188791 -0.254938,0 -0.445108,-0.0441 Q 18.289636,40.745902 18.12427,40.677 v -0.491961 h 0.05788 q 0.163987,0.130914 0.366559,0.201194 0.203951,0.07028 0.391364,0.07028 0.04823,0 0.12678,-0.0083 0.07855,-0.0083 0.128158,-0.02756 0.06063,-0.02481 0.09922,-0.06201 0.03996,-0.03721 0.03996,-0.110243 0,-0.06752 -0.05788,-0.115756 -0.0565,-0.04961 -0.166743,-0.07579 -0.115756,-0.02756 -0.245292,-0.05099 -0.128158,-0.02481 -0.241157,-0.06201 -0.259072,-0.08406 -0.37345,-0.227377 -0.112999,-0.144694 -0.112999,-0.358291 0,-0.286632 0.256316,-0.467156 0.257694,-0.181901 0.66146,-0.181901 0.202572,0 0.399632,0.03996 0.198438,0.03858 0.343132,0.09784 v 0.472668 h -0.0565 q -0.124024,-0.09922 -0.304548,-0.165365 -0.179145,-0.06752 -0.366559,-0.06752 -0.06615,0 -0.132292,0.0096 -0.06477,0.0083 -0.125402,0.03307 -0.05374,0.02067 -0.09233,0.06339 -0.03859,0.04134 -0.03859,0.09509 0,0.08131 0.06201,0.125402 0.06201,0.04272 0.234267,0.07855 0.113,0.02343 0.216353,0.04548 0.104731,0.02205 0.224621,0.06063 0.235645,0.07717 0.347267,0.21084 0.112999,0.132292 0.112999,0.344511 z m 1.858979,-0.03721 H 20.60199 q 0.01102,0.181901 0.137804,0.278364 0.128158,0.09646 0.376206,0.09646 0.157096,0 0.304547,-0.0565 0.14745,-0.0565 0.232889,-0.121267 h 0.05512 v 0.398254 q -0.168121,0.06752 -0.31695,0.09784 -0.148828,0.03032 -0.329352,0.03032 -0.465778,0 -0.713826,-0.209463 -0.248047,-0.209462 -0.248047,-0.596692 0,-0.383096 0.234267,-0.606338 0.235645,-0.224621 0.644924,-0.224621 0.377583,0 0.567753,0.191548 0.19017,0.190169 0.19017,0.54846 z M 21.244158,39.82537 q -0.0041,-0.155719 -0.07717,-0.234267 -0.07304,-0.07855 -0.227377,-0.07855 -0.143316,0 -0.235645,0.07441 -0.09233,0.07442 -0.103353,0.238402 z m 1.339456,0.972897 h -0.496095 v -2.144233 h 0.496095 z m 1.992649,-0.68213 h -1.135506 q 0.01102,0.181901 0.137804,0.278364 0.128158,0.09646 0.376205,0.09646 0.157097,0 0.304548,-0.0565 0.14745,-0.0565 0.232889,-0.121267 h 0.05512 v 0.398254 q -0.168121,0.06752 -0.316949,0.09784 -0.148829,0.03032 -0.329352,0.03032 -0.465779,0 -0.713826,-0.209463 -0.248048,-0.209462 -0.248048,-0.596692 0,-0.383096 0.234267,-0.606338 0.235646,-0.224621 0.644924,-0.224621 0.377584,0 0.567753,0.191548 0.19017,0.190169 0.19017,0.54846 z M 24.082924,39.82537 q -0.0041,-0.155719 -0.07717,-0.234267 -0.07304,-0.07855 -0.227377,-0.07855 -0.143316,0 -0.235645,0.07441 -0.09233,0.07442 -0.103353,0.238402 z m 1.649516,1.014239 q -0.202572,0 -0.370693,-0.04823 -0.166743,-0.04823 -0.290767,-0.148828 -0.122646,-0.100597 -0.19017,-0.25356 -0.06752,-0.152963 -0.06752,-0.358291 0,-0.216353 0.07166,-0.373449 0.07304,-0.157097 0.202573,-0.26045 0.125401,-0.09784 0.289388,-0.143317 0.163987,-0.04547 0.340377,-0.04547 0.158475,0 0.292145,0.03445 0.13367,0.03445 0.249425,0.08957 v 0.423059 h -0.07028 q -0.02894,-0.02481 -0.07028,-0.05788 -0.03996,-0.03307 -0.09922,-0.06477 -0.0565,-0.03032 -0.124024,-0.04961 -0.06752,-0.02067 -0.157097,-0.02067 -0.198438,0 -0.305925,0.12678 -0.106109,0.125401 -0.106109,0.341754 0,0.223243 0.108865,0.338998 0.110244,0.115756 0.311438,0.115756 0.09371,0 0.168121,-0.02067 0.07579,-0.02205 0.125402,-0.05099 0.04685,-0.02756 0.08268,-0.05788 0.03583,-0.03032 0.06615,-0.05926 h 0.07028 v 0.423059 q -0.117133,0.05512 -0.245291,0.08682 -0.12678,0.03307 -0.281121,0.03307 z m 1.84382,-0.05512 q -0.07993,0.02067 -0.169499,0.03169 -0.08957,0.0124 -0.219108,0.0124 -0.289389,0 -0.431328,-0.117133 -0.14056,-0.117134 -0.14056,-0.401011 v -0.723472 h -0.20395 v -0.336242 h 0.20395 V 38.80837 h 0.496095 v 0.442351 h 0.4644 v 0.336242 h -0.4644 v 0.548461 q 0,0.08131 0.0014,0.141938 0.0014,0.06063 0.02205,0.108866 0.01929,0.04823 0.06752,0.07717 0.04961,0.02756 0.143316,0.02756 0.03859,0 0.100597,-0.01654 0.06339,-0.01654 0.08819,-0.03032 h 0.04134 z m 1.878272,-0.759301 q 0,0.381717 -0.223243,0.602204 -0.221865,0.219109 -0.624253,0.219109 -0.402388,0 -0.625631,-0.219109 -0.221865,-0.220487 -0.221865,-0.602204 0,-0.384474 0.223243,-0.603583 0.224621,-0.219108 0.624253,-0.219108 0.405144,0 0.625631,0.220486 0.221865,0.220487 0.221865,0.602205 z m -0.610473,0.376205 q 0.04823,-0.05926 0.07166,-0.141938 0.02481,-0.08406 0.02481,-0.231511 0,-0.136426 -0.02481,-0.228755 -0.0248,-0.09233 -0.0689,-0.147451 -0.0441,-0.0565 -0.106109,-0.07993 -0.06201,-0.02343 -0.13367,-0.02343 -0.07166,0 -0.128158,0.01929 -0.05512,0.01929 -0.106109,0.07717 -0.04548,0.05374 -0.07304,0.147451 -0.02618,0.09371 -0.02618,0.235645 0,0.12678 0.02343,0.220487 0.02343,0.09233 0.0689,0.148828 0.0441,0.05374 0.104732,0.07855 0.06201,0.0248 0.14056,0.0248 0.06752,0 0.128158,-0.02205 0.06201,-0.02343 0.104731,-0.07717 z m 2.087734,-0.677996 h -0.0441 q -0.03169,-0.01102 -0.101975,-0.01654 -0.07028,-0.0055 -0.117134,-0.0055 -0.106109,0 -0.187413,0.01378 -0.08131,0.01378 -0.175012,0.04685 v 1.036287 h -0.496095 v -1.547541 h 0.496095 v 0.227377 q 0.163987,-0.14056 0.285255,-0.186036 0.121268,-0.04685 0.223243,-0.04685 0.02618,0 0.05926,0.0014 0.03307,0.0014 0.05788,0.0041 z"
       id="text5"
       aria-label="Selector" />
  </g>
  <g
     inkscape:groupmode="layer"
     id="layer2"
     inkscape:label="components"
     style="display:none">
    <circle
       style="fill:#0000ff;fill-opacity:1;stroke-width:0.313059"
       id="out1"
       cx="7.2752151"
       cy="100.36746"
       inkscape:label="out2_k"
       r="4" />
    <circle
       style="fill:#0000ff;fill-opacity:1;stroke-width:0.313;stroke-dasharray:none"
       id="ellipse5"
       cx="19.353027"
       cy="100.36746"
       inkscape:label="out2_x"
       r="4" />
    <circle
       style="fill:#0000ff;fill-opacity:1;stroke-width:0.313059"
       id="ellipse6"
       cx="31.430838"
       cy="100.36746"
       inkscape:label="out2_y"
       r="4" />
    <circle
       style="fill:#0000ff;fill-opacity:1;stroke-width:0.313059"
       id="ellipse7"
       cx="43.508644"
       cy="100.36746"
       inkscape:label="out2_z"
       r="4" />
    <circle
       style="fill:#00ff00;fill-opacity:1;stroke-width:0.313059"
       id="circle1"
       cx="6.7046099"
       cy="63.711548"
       inkscape:label="in_k"
       r="4" />
    <circle
       style="fill:#00ff00;fill-opacity:1;stroke-width:0.313;stroke-dasharray:none"
       id="circle2"
       cx="18.782423"
       cy="63.711548"
       inkscape:label="in_x"
       r="4" />
    <circle
       style="fill:#00ff00;fill-opacity:1;stroke-width:0.313059"
       id="circle3"
       cx="30.860233"
       cy="63.711548"
       inkscape:label="in_y"
       r="4" />
    <circle
       style="fill:#00ff00;fill-opacity:1;stroke-width:0.313059"
       id="circle4"
       cx="42.938038"
       cy="63.711548"
       inkscape:label="in_z"
       r="4" />
    <circle
       style="fill:#0000ff;fill-opacity:1;stroke-width:0.313059"
       id="circle10"
       cx="7.2752151"
       cy="82.375778"
       inkscape:label="out1_k"
       r="4" />
    <circle
       style="fill:#0000ff;fill-opacity:1;stroke-width:0.313;stroke-dasharray:none"
       id="circle11"
       cx="19.353027"
       cy="82.375778"
       inkscape:label="out1_x"
       r="4" />
    <circle
       style="fill:#0000ff;fill-opacity:1;stroke-width:0.313059"
       id="circle12"
       cx="31.430838"
       cy="82.375778"
       inkscape:label="out1_y"
       r="4" />
    <circle
       style="fill:#0000ff;fill-opacity:1;stroke-width:0.313059"
       id="circle13"
       cx="43.508644"
       cy="82.375778"
       inkscape:label="out1_z"
       r="4" />
    <circle
       style="fill:#00ff00;fill-opacity:1;stroke-width:0.313059"
       id="circle36"
       cx="30.029388"
       cy="118.3591"
       inkscape:label="in_lights"
       r="4" />
    <circle
       style="fill:#0000ff;fill-opacity:1;stroke-width:0.313059"
       id="circle39"
       cx="43.508644"
       cy="118.3591"
       inkscape:label="out_lights"
       r="4" />
    <circle
       style="fill:#00ff00;fill-opacity:1;stroke-width:0.313059"
       id="circle52"
       cx="7.2752151"
       cy="118.3591"
       inkscape:label="in_enable"
       r="4" />
    <circle
       style="fill:#00ff00;fill-opacity:1;stroke-width:0.313059"
       id="circle5"
       cx="24.052324"
       cy="46.462845"
       inkscape:label="in_select"
       r="4" />
  </g>
</svg>
