<?xml version="1.0" encoding="UTF-8" standalone="no"?>
<!-- Created with Inkscape (http://www.inkscape.org/) -->

<svg
   width="50.799999mm"
   height="128.5mm"
   viewBox="0 0 50.799999 128.5"
   version="1.1"
   id="svg1"
   inkscape:version="1.3 (0e150ed, 2023-07-21)"
   sodipodi:docname="EDevice.svg"
   xmlns:inkscape="http://www.inkscape.org/namespaces/inkscape"
   xmlns:sodipodi="http://sodipodi.sourceforge.net/DTD/sodipodi-0.dtd"
   xmlns="http://www.w3.org/2000/svg"
   xmlns:svg="http://www.w3.org/2000/svg">
  <sodipodi:namedview
     id="namedview1"
     pagecolor="#ffffff"
     bordercolor="#000000"
     borderopacity="0.25"
     inkscape:showpageshadow="2"
     inkscape:pageopacity="0.0"
     inkscape:pagecheckerboard="0"
     inkscape:deskcolor="#d1d1d1"
     inkscape:document-units="mm"
     inkscape:zoom="0.92737795"
     inkscape:cx="397.35687"
     inkscape:cy="561.25984"
     inkscape:window-width="3440"
     inkscape:window-height="1440"
     inkscape:window-x="0"
     inkscape:window-y="0"
     inkscape:window-maximized="0"
     inkscape:current-layer="layer2" />
  <defs
     id="defs1" />
  <g
     inkscape:label="background"
     inkscape:groupmode="layer"
     id="layer1"
     style="fill:#ffffff">
    <rect
       style="fill:#ffffff;stroke-width:4.08699"
       id="rect1"
       width="49.072044"
       height="128.67146"
       x="0.85590798"
       y="0.8559078"
       sodipodi:insensitive="true" />
    <path
       d="M 14.031064,9.4149848 H 11.804845 V 6.3371391 h 2.226219 v 0.595312 H 12.59446 v 0.5312332 h 1.333251 v 0.595312 H 12.59446 v 0.7606765 h 1.436604 z m 1.368391,0 h -0.74414 V 7.0936814 h 0.74414 z m 0.02067,-2.6520323 H 14.634644 V 6.1986463 h 0.785481 z m 2.939353,2.3853821 q 0,0.3265952 -0.09302,0.5498372 -0.09302,0.223242 -0.260449,0.3493322 -0.167432,0.128157 -0.405143,0.183968 -0.235645,0.05788 -0.533301,0.05788 -0.241845,0 -0.47749,-0.02894 -0.233577,-0.02894 -0.405142,-0.07028 V 9.6092888 h 0.09095 q 0.136426,0.05374 0.332796,0.09715 0.19637,0.04548 0.351399,0.04548 0.206706,0 0.334863,-0.03927 0.130225,-0.03721 0.198438,-0.107487 0.06408,-0.06615 0.09302,-0.169498 0.02894,-0.1033532 0.02894,-0.2480471 v -0.043408 q -0.134359,0.1095539 -0.297656,0.1736327 -0.163297,0.064079 -0.363802,0.064079 -0.487825,0 -0.752408,-0.2935219 -0.264583,-0.2935219 -0.264583,-0.892968 0,-0.2873207 0.08061,-0.4960933 0.08061,-0.2087726 0.227376,-0.3638018 0.136426,-0.1446939 0.334863,-0.2253091 0.200505,-0.080615 0.409277,-0.080615 0.188102,0 0.341064,0.045475 0.15503,0.043408 0.28112,0.1219563 l 0.02687,-0.1033528 h 0.721402 z M 17.615338,8.6832471 V 7.6311158 q -0.06408,-0.026872 -0.157096,-0.041341 -0.09302,-0.016536 -0.167432,-0.016536 -0.293522,0 -0.440283,0.1694985 -0.14676,0.1674315 -0.14676,0.4692216 0,0.334863 0.124023,0.4671546 0.12609,0.1322916 0.37207,0.1322916 0.111621,0 0.219108,-0.03514 0.107487,-0.03514 0.19637,-0.093018 z m 3.733103,-0.2914548 h -1.703254 q 0.01654,0.2728513 0.206705,0.4175452 0.192237,0.1446939 0.564307,0.1446939 0.235644,0 0.456819,-0.084749 0.221175,-0.084749 0.349332,-0.1819009 h 0.08268 v 0.5973791 q -0.252181,0.1012857 -0.475423,0.1467605 -0.223242,0.04548 -0.494027,0.04548 -0.698664,0 -1.070734,-0.3141928 -0.37207,-0.3141924 -0.37207,-0.8950351 0,-0.5746414 0.351399,-0.9095044 0.353467,-0.33693 0.967382,-0.33693 0.566373,0 0.851627,0.2873207 0.285254,0.2852536 0.285254,0.8226881 z M 20.608435,7.9556436 Q 20.602235,7.7220663 20.49268,7.6042441 20.383126,7.4864219 20.151616,7.4864219 q -0.214974,0 -0.353467,0.111621 -0.138493,0.111621 -0.155029,0.3576007 z m 3.596677,1.4593412 h -0.748274 v -1.15135 q 0,-0.1405597 -0.01447,-0.2790525 -0.01447,-0.1405597 -0.04961,-0.2067055 -0.04134,-0.076481 -0.121956,-0.111621 -0.07855,-0.03514 -0.221175,-0.03514 -0.101286,0 -0.206706,0.033073 -0.103353,0.033073 -0.225309,0.1054199 v 1.6453761 h -0.74414 V 7.0936814 h 0.74414 v 0.2563149 q 0.198437,-0.1550292 0.380338,-0.2377114 0.183968,-0.082682 0.40721,-0.082682 0.376204,0 0.587044,0.2191079 0.212907,0.2191078 0.212907,0.6552566 z m 2.945554,0 H 24.930648 V 6.3371391 h 0.793749 v 2.4825337 h 1.426269 z m 1.180288,0 h -0.74414 V 7.0936814 h 0.74414 z m 0.02067,-2.6520323 H 27.566143 V 6.1986463 h 0.785481 z m 2.166274,2.6313617 q -0.119889,0.031006 -0.254248,0.047543 -0.134358,0.0186 -0.328661,0.0186 -0.434082,0 -0.646989,-0.1756995 Q 29.077161,9.1090606 29.077161,8.6832471 V 7.5980429 H 28.771236 V 7.0936814 h 0.305925 V 6.4301566 h 0.74414 v 0.6635248 h 0.696597 v 0.5043615 h -0.696597 v 0.8226882 q 0,0.1219562 0.0021,0.2129067 0.0021,0.09095 0.03307,0.1632974 0.02894,0.072347 0.101286,0.1157551 0.07441,0.041341 0.214974,0.041341 0.05788,0 0.150895,-0.024805 0.09508,-0.024805 0.132292,-0.045475 h 0.06201 z M 33.24848,8.3917923 h -1.703254 q 0.01654,0.2728513 0.206706,0.4175452 0.192236,0.1446939 0.564306,0.1446939 0.235644,0 0.456819,-0.084749 0.221175,-0.084749 0.349332,-0.1819009 h 0.08268 v 0.5973791 q -0.252181,0.1012857 -0.475423,0.1467605 -0.223242,0.04548 -0.494026,0.04548 -0.698665,0 -1.070735,-0.3141928 -0.37207,-0.3141924 -0.37207,-0.8950351 0,-0.5746414 0.351399,-0.9095044 0.353467,-0.33693 0.967382,-0.33693 0.566374,0 0.851627,0.2873207 0.285254,0.2852536 0.285254,0.8226881 z M 32.508474,7.9556436 q -0.0062,-0.2335773 -0.115755,-0.3513995 -0.109554,-0.1178222 -0.341064,-0.1178222 -0.214974,0 -0.353467,0.111621 -0.138493,0.111621 -0.155029,0.3576007 z"
       id="text4"
       style="font-weight:bold;font-size:4.23333px;-inkscape-font-specification:'sans-serif Bold';stroke-width:0.264583;fill:#000000"
       aria-label="EigenLite" />
    <path
       d="m 15.283797,15.867635 q 0,0.429948 -0.196371,0.771012 -0.19637,0.338997 -0.496093,0.520898 -0.225309,0.136426 -0.494026,0.190169 -0.268717,0.05374 -0.636653,0.05374 h -1.085205 v -3.077846 h 1.11621 q 0.376205,0 0.649056,0.06408 0.272851,0.06201 0.458886,0.177766 0.318327,0.194304 0.500228,0.525033 0.183968,0.328661 0.183968,0.775145 z m -0.820621,-0.0062 q 0,-0.303857 -0.111621,-0.518831 -0.109554,-0.217041 -0.349333,-0.338997 -0.121956,-0.05994 -0.250114,-0.08061 -0.12609,-0.02274 -0.382405,-0.02274 h -0.200504 v 1.926496 h 0.200504 q 0.283187,0 0.415478,-0.02481 0.132292,-0.02687 0.258382,-0.09508 0.217041,-0.124023 0.318327,-0.330729 0.101286,-0.208773 0.101286,-0.514697 z m 3.67109,0.518831 h -1.703254 q 0.01654,0.272851 0.206706,0.417545 0.192236,0.144694 0.564306,0.144694 0.235645,0 0.456819,-0.08475 0.221175,-0.08475 0.349333,-0.181901 h 0.08268 v 0.597379 q -0.252181,0.101286 -0.475423,0.146761 -0.223242,0.04547 -0.494026,0.04547 -0.698665,0 -1.070735,-0.314192 -0.37207,-0.314193 -0.37207,-0.895035 0,-0.574642 0.3514,-0.909505 0.353466,-0.33693 0.967382,-0.33693 0.566373,0 0.851627,0.287321 0.285253,0.285254 0.285253,0.822688 z M 17.39426,15.944117 q -0.0062,-0.233577 -0.115755,-0.351399 -0.109554,-0.117822 -0.341064,-0.117822 -0.214974,0 -0.353466,0.111621 -0.138493,0.111621 -0.15503,0.3576 z m 3.602878,-0.861962 -0.895035,2.321304 h -0.843358 l -0.888834,-2.321304 h 0.787548 l 0.537434,1.595767 0.531234,-1.595767 z m 1.157551,2.321304 h -0.74414 v -2.321304 h 0.74414 z m 0.02067,-2.652033 H 21.389878 V 14.18712 h 0.785481 z m 1.891356,2.714044 q -0.303857,0 -0.556038,-0.07235 -0.250114,-0.07235 -0.436149,-0.223242 -0.183967,-0.150895 -0.285253,-0.380338 -0.101286,-0.229443 -0.101286,-0.537434 0,-0.324528 0.107487,-0.560172 0.109554,-0.235645 0.303857,-0.390674 0.188102,-0.146761 0.434082,-0.214974 0.245979,-0.06821 0.510563,-0.06821 0.237711,0 0.438215,0.05168 0.200505,0.05168 0.374137,0.134359 v 0.634586 h -0.105418 q -0.04341,-0.03721 -0.10542,-0.08682 -0.05995,-0.04961 -0.148828,-0.09715 -0.08475,-0.04548 -0.186035,-0.07441 -0.101286,-0.03101 -0.235645,-0.03101 -0.297656,0 -0.458886,0.190169 -0.159163,0.188102 -0.159163,0.51263 0,0.334863 0.163297,0.508495 0.165365,0.173633 0.467155,0.173633 0.140559,0 0.25218,-0.03101 0.113689,-0.03307 0.188103,-0.07648 0.07028,-0.04134 0.124023,-0.08682 0.05374,-0.04547 0.09922,-0.08888 h 0.105419 v 0.634586 q -0.175699,0.08268 -0.367936,0.130225 -0.190169,0.04961 -0.421679,0.04961 z m 3.567738,-1.085204 h -1.703254 q 0.01654,0.272851 0.206706,0.417545 0.192236,0.144694 0.564306,0.144694 0.235644,0 0.456819,-0.08475 0.221175,-0.08475 0.349333,-0.181901 h 0.08268 v 0.597379 q -0.252181,0.101286 -0.475423,0.146761 -0.223242,0.04547 -0.494026,0.04547 -0.698665,0 -1.070735,-0.314192 -0.37207,-0.314193 -0.37207,-0.895035 0,-0.574642 0.351399,-0.909505 0.353467,-0.33693 0.967382,-0.33693 0.566374,0 0.851627,0.287321 0.285254,0.285254 0.285254,0.822688 z m -0.740006,-0.436149 q -0.0062,-0.233577 -0.115755,-0.351399 -0.109554,-0.117822 -0.341064,-0.117822 -0.214974,0 -0.353467,0.111621 -0.138492,0.111621 -0.155029,0.3576 z"
       id="text5"
       style="font-weight:bold;font-size:4.23333px;-inkscape-font-specification:'sans-serif Bold';stroke-width:0.264583;fill:#000000"
       aria-label="Device"
       inkscape:label="text5" />
  </g>
  <g
     inkscape:groupmode="layer"
     id="layer2"
     inkscape:label="components"
     style="display:none">
    <circle
       style="fill:#0000ff;fill-opacity:1;stroke-width:0.313059"
       id="out1"
       cx="9.2723331"
       cy="118.97118"
       inkscape:label="out1"
       r="5"
       inkscape:transform-center-x="-0.28530259"
       inkscape:transform-center-y="-0.28530259" />
    <circle
       style="fill:#0000ff;fill-opacity:1;stroke-width:0.313;stroke-dasharray:none"
       id="ellipse5"
       cx="20.684439"
       cy="118.68587"
       inkscape:label="out2"
       r="5" />
    <circle
       style="fill:#0000ff;fill-opacity:1;stroke-width:0.313059"
       id="ellipse6"
       cx="32.096539"
       cy="118.97118"
       inkscape:label="out3"
       r="5" />
    <circle
       style="fill:#0000ff;fill-opacity:1;stroke-width:0.313059"
       id="ellipse7"
       cx="43.223343"
       cy="119.25648"
       inkscape:label="out4"
       r="5" />
    <circle
       style="fill:#00ff00;fill-opacity:1;stroke-width:0.43017"
       id="in1"
       cx="8.7017288"
       cy="105.56195"
       inkscape:label="In1"
       r="5" />
    <circle
       style="fill:#ff0000;fill-opacity:1;stroke-width:0.264583"
       id="param1"
       cx="10.556196"
       cy="28.958212"
       inkscape:label="param1"
       r="5" />
    <circle
       style="fill:#ff0000;fill-opacity:1;stroke-width:0.264583"
       id="circle1"
       cx="27.959654"
       cy="54.064838"
       inkscape:label="param2"
       r="10" />
  </g>
</svg>
