<?xml version="1.0" encoding="UTF-8" standalone="no"?>
<!-- Created with Inkscape (http://www.inkscape.org/) -->

<svg
   width="30.48mm"
   height="128.5mm"
   viewBox="0 0 30.479999 128.5"
   version="1.1"
   id="svg1"
   inkscape:version="1.3.2 (091e20e, 2023-11-25)"
   sodipodi:docname="METAM_06hp_ILLUMINATOR_FINAL_RES.svg"
   xml:space="preserve"
   xmlns:inkscape="http://www.inkscape.org/namespaces/inkscape"
   xmlns:sodipodi="http://sodipodi.sourceforge.net/DTD/sodipodi-0.dtd"
   xmlns="http://www.w3.org/2000/svg"
   xmlns:svg="http://www.w3.org/2000/svg"><sodipodi:namedview
   id="namedview1"
   pagecolor="#ffffff"
   bordercolor="#000000"
   borderopacity="0.25"
   inkscape:showpageshadow="2"
   inkscape:pageopacity="0.0"
   inkscape:pagecheckerboard="0"
   inkscape:deskcolor="#d1d1d1"
   inkscape:document-units="mm"
   showgrid="true"
   inkscape:zoom="1.8947172"
   inkscape:cx="57.000591"
   inkscape:cy="261.5166"
   inkscape:window-width="2352"
   inkscape:window-height="1384"
   inkscape:window-x="0"
   inkscape:window-y="0"
   inkscape:window-maximized="0"
   inkscape:current-layer="layer6"
   showguides="true"><inkscape:grid
     id="grid120"
     units="mm"
     originx="0"
     originy="0"
     spacingx="1.016"
     spacingy="1.5"
     empcolor="#0099e5"
     empopacity="0.30196078"
     color="#0099e5"
     opacity="0.14901961"
     empspacing="5"
     dotted="false"
     gridanglex="30"
     gridanglez="30"
     visible="true" /><sodipodi:guide
     position="-5.0800032,116.48833"
     orientation="0,-1"
     id="guide1"
     inkscape:locked="false" /><sodipodi:guide
     position="9.1440003,-1.9999973"
     orientation="1,0"
     id="guide2"
     inkscape:locked="false" /><sodipodi:guide
     position="21.336001,-1.9999973"
     orientation="1,0"
     id="guide3"
     inkscape:locked="false" /></sodipodi:namedview>
  <defs
   id="defs1">
    <linearGradient
   id="Gradient_61"
   gradientUnits="userSpaceOnUse"
   x1="-424.043"
   y1="-4741.6309"
   x2="-405.228"
   y2="-4741.6309"
   gradientTransform="matrix(0.025,1,-1,0.025,-4534.645,592.311)">
      <stop
   offset="0"
   stop-color="#777676"
   id="stop121" />
      <stop
   offset="1"
   stop-color="#575757"
   id="stop122" />
    </linearGradient>
    <linearGradient
   id="Gradient_62"
   gradientUnits="userSpaceOnUse"
   x1="-423.578"
   y1="-4741.6309"
   x2="-405.69299"
   y2="-4741.6309"
   gradientTransform="matrix(0.025,1,-1,0.025,-4534.645,592.311)">
      <stop
   offset="0.006"
   stop-color="#FFFFFF"
   id="stop123" />
      <stop
   offset="1"
   stop-color="#454545"
   id="stop124" />
    </linearGradient>
    <linearGradient
   id="Gradient_63"
   gradientUnits="userSpaceOnUse"
   x1="-7828.9722"
   y1="4203.397"
   x2="-7814.8091"
   y2="4203.397"
   gradientTransform="matrix(-0.025,-1,1,-0.025,-4202.945,-7655.114)">
      <stop
   offset="0.006"
   stop-color="#FFFFFF"
   id="stop125" />
      <stop
   offset="1"
   stop-color="#454545"
   id="stop126" />
    </linearGradient>
    <linearGradient
   id="Gradient_64"
   gradientUnits="userSpaceOnUse"
   x1="-8480.584"
   y1="3795.7019"
   x2="-8480.584"
   y2="3807.8259"
   gradientTransform="matrix(-1,0.025,0.025,1,-8378.065,-3529.085)">
      <stop
   offset="0"
   stop-color="#FFFEFE"
   id="stop127" />
      <stop
   offset="1"
   stop-color="#5E5E5E"
   id="stop128" />
    </linearGradient>
    <linearGradient
   id="Gradient_65"
   gradientUnits="userSpaceOnUse"
   x1="-8480.584"
   y1="3806.3679"
   x2="-8480.584"
   y2="3797.1599"
   gradientTransform="matrix(-1,0.025,0.025,1,-8378.065,-3529.085)">
      <stop
   offset="0"
   stop-color="#FFFEFE"
   id="stop129" />
      <stop
   offset="1"
   stop-color="#383636"
   id="stop130" />
    </linearGradient>
  
        
        
      
      
      
      
      
      
      
      
      
      
      
      
    </defs>
  <g
   inkscape:groupmode="layer"
   id="layer5"
   inkscape:label="WHITE PANEL "
   style="display:inline"
   sodipodi:insensitive="true">
    <path
   id="rect1"
   style="fill:#ffffff;stroke-width:0.151259"
   d="M 0,0.52497211 C 0,43.183314 0,85.841656 0,128.5 c 10.16,0 20.32,0 30.48,0 0,-42.833336 0,-85.666667 0,-128.5 C 20.32,0 10.16,0 0,0 0,0.17499071 0,0.3499814 0,0.52497211 Z" />
  </g>
  <g
   inkscape:groupmode="layer"
   id="layer2"
   inkscape:label="LOGO"
   style="display:inline"
   sodipodi:insensitive="true">
    <g
   id="g3"
   transform="translate(11.141007)"><path
     d="m 7.1818831,120.39429 -3.1132681,-0.005 H 2.0435844 v 5.13355 H 3.071234 v -1.02291 l 1.0342085,0.005 -0.00653,1.0229 H 5.126562 l 0.00656,-1.0229 1.0276495,3.5e-4 -0.00653,1.02255 H 7.181891 Z"
     fill="#cf0000"
     id="path1"
     style="stroke-width:0.0255215" /><path
     d="m 6.1542336,119.36664 -3.1132682,-0.005 h -2.025056 v 5.13355 h 1.027675 v -4.1059 l 1.0276496,0.005 v 4.10587 h 1.027675 v -4.10587 l 1.0327028,-0.005 -0.00505,4.11064 h 1.0276751 z"
     fill="#4c4c4c"
     id="path2"
     style="stroke-width:0.0255215" /></g>
  </g>
  <g
   inkscape:label="BLOCKS"
   inkscape:groupmode="layer"
   id="layer1"
   style="display:inline"
   sodipodi:insensitive="true">
    <path
   d="M 9.6730747,102.00088 20.806739,102 c 0.292365,-2e-5 0.529167,0.2368 0.529167,0.52916 v 13.92934 c 0,0.29236 -0.236802,0.52916 -0.529167,0.52916 H 9.6730747 c -0.2920997,0 -0.5291667,-0.2368 -0.5291667,-0.52916 v -13.92846 c 0,-0.29236 0.237067,-0.52913 0.5291667,-0.52916 z"
   fill="#000000"
   fill-opacity="0.7"
   id="path14-9"
   style="display:inline;stroke-width:0.264583"
   sodipodi:nodetypes="sssssssss" />
    
    
    
    
    
    <circle
   style="display:inline;fill:#ff0000;stroke-width:0.704961"
   id="circle269"
   cx="15.239907"
   cy="107.55496"
   r="4.695075" />
    
    
    
    
    
    
  <g
   id="g176"
   inkscape:label="BOX"
   transform="matrix(0.97376671,0,0,0.77583702,-65.115134,26.763661)"
   style="display:inline">
        <path
   d="m 78.346323,111.11212 h 8.346969 v 3.8508 h -8.346969 z"
   fill="#ff0000"
   id="path176"
   style="display:inline;stroke-width:0.351895"
   inkscape:label="RED BOX" />
      </g><circle
   style="display:inline;fill:#ff0000;stroke-width:0.704961"
   id="circle12"
   cx="9.1437225"
   cy="88.054771"
   r="4.695075" /><circle
   style="display:inline;fill:#ff0000;stroke-width:0.704961"
   id="circle13"
   cx="21.335505"
   cy="88.054962"
   r="4.695075" /><g
   id="g15"
   inkscape:label="BOX"
   transform="matrix(0.97376671,0,0,0.77583702,-59.023417,7.2636566)"
   style="display:inline">
        <path
   d="m 78.346323,111.11212 h 8.346969 v 3.8508 h -8.346969 z"
   fill="#ff0000"
   id="path15"
   style="display:inline;stroke-width:0.351895"
   inkscape:label="RED BOX" />
      </g><g
   id="g17"
   inkscape:label="BOX"
   transform="matrix(0.97376671,0,0,0.77583702,-71.215224,7.2636546)"
   style="display:inline">
        <path
   d="m 78.346323,111.11212 h 8.346969 v 3.8508 h -8.346969 z"
   fill="#ff0000"
   id="path17"
   style="display:inline;stroke-width:0.351895"
   inkscape:label="RED BOX" />
      </g></g>
  <g
   inkscape:groupmode="layer"
   id="layer6"
   inkscape:label="TYPE"
   style="display:inline"><path
     style="font-size:2.91042px;line-height:1.8;font-family:'Autogate Sans';-inkscape-font-specification:'Autogate Sans';text-align:center;letter-spacing:0.264583px;text-anchor:middle;fill:#f9f9f9;stroke-width:0.264583"
     d="m 13.620522,115.15272 -0.0029,-1.76371 c 0,-0.0233 -0.01455,-0.0378 -0.03784,-0.0378 h -0.264848 c -0.02328,0 -0.03783,0.0145 -0.03783,0.0378 l -0.0058,2.06057 c 0,0.0233 0.01455,0.0378 0.03783,0.0378 h 0.910962 c 0.02328,0 0.03783,-0.0145 0.03783,-0.0378 v -0.25902 c 0,-0.0233 -0.01455,-0.0378 -0.03783,-0.0378 z m 2.080685,-1.76371 c 0,-0.0233 -0.01455,-0.0378 -0.03784,-0.0378 H 14.75532 c -0.02328,0 -0.03783,0.0145 -0.03783,0.0378 l 0.0029,2.06057 c 0,0.0233 0.01455,0.0378 0.03784,0.0378 h 0.90514 c 0.02328,0 0.03784,-0.0145 0.03784,-0.0378 v -0.25611 c 0,-0.0233 -0.01455,-0.0378 -0.03784,-0.0378 l -0.599546,-0.003 v -0.56753 h 0.430742 c 0.02328,0 0.03784,-0.0145 0.03784,-0.0378 v -0.25611 c 0,-0.0233 -0.01455,-0.0378 -0.03784,-0.0378 h -0.430742 v -0.57044 h 0.599546 c 0.02328,0 0.03784,-0.0145 0.03784,-0.0378 z m 1.163905,1.67349 c 0,0.0466 -0.04075,0.0902 -0.08731,0.0902 H 16.50713 v -1.46685 h 0.270669 c 0.04657,0 0.08731,0.0408 0.08731,0.0902 z m -0.681039,-1.70842 c -0.01164,0 -0.02037,0.009 -0.02037,0.0175 v 2.08969 c 0,0.0116 0.0087,0.0204 0.02037,0.0204 h 0.01746 c 0.215371,0.003 0.427832,0.006 0.643203,0.006 0.215371,0 0.363802,-0.17172 0.363802,-0.35507 v -1.42611 c 0,-0.18335 -0.148431,-0.35507 -0.363802,-0.35507 -0.215371,0 -0.427832,0.003 -0.643203,0.003 z"
     id="text170"
     aria-label="LED" /><path
     style="font-size:6.12552px;line-height:1.8;font-family:'Autogate Sans';-inkscape-font-specification:'Autogate Sans';text-align:center;letter-spacing:0px;text-anchor:middle;fill:#d40000;stroke-width:0.556864"
     d="m 2.5386377,4.5834999 c 0,-0.049004 -0.030628,-0.079632 -0.079632,-0.079632 H 1.8770815 c -0.049004,0 -0.079632,0.030628 -0.079632,0.079632 V 8.9203682 C 1.7974497,8.9693724 1.8280773,9 1.8770815,9 h 0.5819244 c 0.049004,0 0.079632,-0.030628 0.079632,-0.079632 z M 3.733119,8.2955652 3.7269934,4.5834999 c 0,-0.049004 -0.030628,-0.079632 -0.079632,-0.079632 H 3.0899393 c -0.049004,0 -0.079632,0.030628 -0.079632,0.079632 L 2.9980565,8.9203682 C 2.9980565,8.9693724 3.0286841,9 3.0776883,9 h 1.9172878 c 0.049004,0 0.079632,-0.030628 0.079632,-0.079632 V 8.3751969 c 0,-0.049004 -0.030628,-0.079632 -0.079632,-0.079632 z m 2.4808399,0 -0.00613,-3.7120653 c 0,-0.049004 -0.030628,-0.079632 -0.079632,-0.079632 H 5.5707793 c -0.049004,0 -0.079632,0.030628 -0.079632,0.079632 L 5.4788965,8.9203682 C 5.4788965,8.9693724 5.5095241,9 5.5585283,9 h 1.9172878 c 0.049004,0 0.079632,-0.030628 0.079632,-0.079632 V 8.3751969 c 0,-0.049004 -0.030628,-0.079632 -0.079632,-0.079632 z m 4.0489731,-0.281774 0.0061,-3.4302913 c 0,-0.049004 -0.03063,-0.079632 -0.07963,-0.079632 H 9.6197527 c -0.049004,0 -0.079632,0.030628 -0.079632,0.079632 v 3.2710278 c 0,0.3675312 -0.05513,0.4410375 -0.4410374,0.4410375 -0.3246526,0 -0.434912,-0.140887 -0.434912,-0.4410375 l 0.00613,-3.2710278 c 0,-0.049004 -0.030628,-0.079632 -0.079632,-0.079632 H 8.0209919 c -0.049004,0 -0.079632,0.030628 -0.079632,0.079632 l -0.00613,3.4302913 C 7.9352346,8.4977073 8.2353851,9 8.8540627,9 H 9.3441043 C 9.9627818,9 10.262932,8.4977073 10.262932,8.0137912 Z m 0.588052,-3.509923 c -0.049,0 -0.07963,0.030628 -0.07963,0.079632 V 8.9203682 C 10.771353,8.9693724 10.80198,9 10.850984,9 h 0.581925 c 0.049,0 0.07963,-0.030628 0.07963,-0.079632 V 6.6171726 l 0.416536,1.1148447 c 0.01225,0.030628 0.04288,0.049004 0.07351,0.049004 h 0.520669 c 0.03063,0 0.06125,-0.018377 0.07351,-0.049004 l 0.416535,-1.1148447 0.0061,2.3031956 C 13.019418,8.9693724 13.050046,9 13.09905,9 h 0.569674 c 0.049,0 0.07963,-0.030628 0.07963,-0.079632 V 4.5834999 c 0,-0.049004 -0.03063,-0.079632 -0.07963,-0.079632 h -0.551297 c -0.03063,0 -0.06125,0.018376 -0.07351,0.049004 L 12.259854,6.6539258 11.481913,4.5528723 c -0.01225,-0.030628 -0.04288,-0.049004 -0.07351,-0.049004 z m 4.134731,0.079632 c 0,-0.049004 -0.03063,-0.079632 -0.07963,-0.079632 h -0.581925 c -0.049,0 -0.07963,0.030628 -0.07963,0.079632 V 8.9203682 C 14.244527,8.9693724 14.275155,9 14.324159,9 h 0.581925 c 0.049,0 0.07963,-0.030628 0.07963,-0.079632 z m 1.188352,-0.030628 c -0.01225,-0.030628 -0.03675,-0.049004 -0.07351,-0.049004 h -0.557423 c -0.049,0 -0.07963,0.030628 -0.07963,0.079632 l 0.0061,4.3368683 C 15.469632,8.9693724 15.50026,9 15.549264,9 h 0.581924 c 0.049,0 0.07963,-0.030628 0.07963,-0.079632 L 16.198569,6.3905284 17.27666,8.9509958 C 17.288911,8.9816234 17.313414,9 17.350167,9 h 0.545171 c 0.049,0 0.07963,-0.030628 0.07963,-0.079632 V 4.5834999 c 0,-0.049004 -0.03063,-0.079632 -0.07963,-0.079632 h -0.569673 c -0.04901,0 -0.07963,0.030628 -0.07963,0.079632 l 0.0061,2.5298399 z m 3.614052,1.7580243 0.208268,1.0045853 H 19.5676 Z m 1.225104,2.6829779 c 0.06125,0 0.09188,-0.036753 0.07963,-0.098008 L 20.143399,4.5589978 c -0.0061,-0.036753 -0.03675,-0.061255 -0.07351,-0.061255 H 19.51247 c -0.03675,0 -0.06738,0.024502 -0.07351,0.061255 l -0.955581,4.3368684 c -0.01225,0.061255 0.01838,0.098008 0.07963,0.098008 h 0.58805 c 0.04288,0 0.07351,-0.024502 0.07963,-0.061255 l 0.183765,-0.9127025 h 0.747314 l 0.183765,0.9127025 c 0.0061,0.036753 0.03675,0.061255 0.07963,0.061255 z m 2.493082,-4.4103746 c 0,-0.049004 -0.03063,-0.079632 -0.07963,-0.079632 h -2.339949 c -0.049,0 -0.07963,0.030628 -0.07963,0.079632 v 0.5512968 c 0,0.049004 0.03063,0.079632 0.07963,0.079632 l 0.808569,-0.012251 V 8.9203682 C 21.895294,8.9693724 21.925921,9 21.974925,9 h 0.569674 c 0.049,0 0.07963,-0.030628 0.07963,-0.079632 V 5.2021775 h 0.802443 c 0.049,0 0.07963,-0.030628 0.07963,-0.079632 z M 24.780416,9 h 0.483916 C 25.889135,9 26.18316,8.5038329 26.18316,8.0137912 V 5.4839514 c 0,-0.4839161 -0.294025,-0.9800832 -0.918828,-0.9800832 h -0.483916 c -0.618677,0 -0.924953,0.4961671 -0.924953,0.9800832 V 8.0137912 C 23.855463,8.5038329 24.161739,9 24.780416,9 Z M 24.5844,5.6493404 c 0,-0.306276 0.110259,-0.4410374 0.434912,-0.4410374 0.385907,0 0.441037,0.073506 0.441037,0.4410374 v 2.2051873 c 0,0.3675312 -0.05513,0.4410375 -0.441037,0.4410375 -0.324653,0 -0.434912,-0.140887 -0.434912,-0.4410375 z m 3.381279,-1.1454722 h -1.365991 c -0.049,0 -0.07963,0.030628 -0.07963,0.079632 l 0.0061,4.3368683 C 26.526182,8.9693724 26.55681,9 26.605814,9 h 0.563548 c 0.049,0 0.07963,-0.030628 0.07963,-0.079632 V 7.4379923 h 0.257272 l 0.545171,1.506878 C 28.063687,8.9816234 28.094315,9 28.124943,9 h 0.539045 c 0.06738,0 0.09801,-0.042879 0.07351,-0.1041338 l -0.508418,-1.506878 c 0.367531,-0.1225104 0.496167,-0.459414 0.496167,-0.7779411 v -1.365991 c 0,-0.3859078 -0.306276,-0.7411879 -0.759565,-0.7411879 z M 27.824792,5.208303 c 0.09188,0 0.17764,0.079632 0.17764,0.1837656 v 1.1515978 c 0,0.1041338 -0.07963,0.1898911 -0.17764,0.1898911 H 27.248993 V 5.208303 Z"
     id="text193"
     aria-label="ILLUMINATOR" /><text
     xml:space="preserve"
     style="font-size:2.91042px;line-height:1.8;font-family:'Halogen by Pixel Surplus';-inkscape-font-specification:'Halogen by Pixel Surplus';text-align:center;letter-spacing:0.264583px;text-anchor:middle;fill:#00ff00;stroke-width:0.264583"
     x="66.909317"
     y="46.5"
     id="text13"><tspan
       sodipodi:role="line"
       id="tspan13"
       style="stroke-width:0.264583"
       x="66.909317"
       y="46.5" /></text><path
     style="font-size:2.91042px;line-height:1.8;font-family:'Autogate Sans';-inkscape-font-specification:'Autogate Sans';text-align:center;letter-spacing:0.264583px;text-anchor:middle;fill:#f9f9f9;stroke-width:0.264583"
     d="m 19.94536,95.949637 c 0,0.02328 0.01455,0.03784 0.03783,0.03784 h 0.270669 c 0.02328,0 0.03784,-0.01455 0.03784,-0.03784 l 0.0029,-0.389996 c 0,-0.04075 -0.0029,-0.07276 -0.0058,-0.101865 0,-0.0291 0.0029,-0.05821 0.0087,-0.09313 l 0.01455,-0.02911 0.05239,-0.09313 c 0.01455,-0.02619 0.0291,-0.05239 0.03783,-0.07567 l 0.311415,0.797455 c 0.0058,0.01455 0.02037,0.02328 0.03493,0.02328 h 0.305595 c 0.01746,0 0.02328,-0.0087 0.01746,-0.02328 l -0.01164,-0.02328 C 20.905798,95.55673 20.760277,95.166734 20.603114,94.782559 l 0.468578,-0.876037 c 0.01746,-0.03201 0.0029,-0.0553 -0.03492,-0.0553 h -0.27649 c -0.01455,0 -0.02619,0.0087 -0.03492,0.02037 l -0.430742,0.806187 -0.0029,-0.788724 c 0,-0.02328 -0.01455,-0.03784 -0.03784,-0.03784 h -0.270669 c -0.02328,0 -0.03783,0.01455 -0.03783,0.03784 z m 2.66568,-1.11178 c 0,-0.02328 -0.01455,-0.03784 -0.03783,-0.03784 h -0.541338 c -0.02328,0 -0.03784,0.01455 -0.03784,0.03784 v 0.261937 c 0,0.02328 0.01455,0.03784 0.03784,0.03784 l 0.235744,-0.0029 v 0.308505 c 0,0.174625 -0.02619,0.20955 -0.20955,0.20955 -0.154253,0 -0.20664,-0.06694 -0.20664,-0.20955 v -1.047751 c 0,-0.145521 0.05239,-0.20955 0.20664,-0.20955 0.05239,0 0.09313,0.0029 0.122237,0.02328 0.03784,0.02328 0.06112,0.08731 0.07276,0.171715 0.01455,0.07858 0.01455,0.162983 0.01455,0.20955 v 0.01746 c 0,0.01164 0.0058,0.01746 0.01746,0.01746 h 0.288132 c 0.02328,0 0.03783,-0.01455 0.03783,-0.03784 v -0.27067 c 0,-0.229923 -0.1397,-0.465667 -0.436563,-0.465667 h -0.229923 c -0.293952,0 -0.439473,0.235744 -0.439473,0.465667 v 1.190362 c 0,0.227013 0.145521,0.48022 0.439473,0.48022 h 0.229923 c 0.296863,0 0.436563,-0.235744 0.436563,-0.468578 z"
     id="text18"
     aria-label="KG" /><path
     style="font-size:2.91042px;line-height:1.8;font-family:'Autogate Sans';-inkscape-font-specification:'Autogate Sans';text-align:center;letter-spacing:0.264583px;text-anchor:middle;fill:#f9f9f9;stroke-width:0.264583"
     d="m 7.0062159,95.949629 c 0,0.02328 0.014552,0.03784 0.037835,0.03784 h 0.2706691 c 0.023283,0 0.037835,-0.01455 0.037835,-0.03784 l 0.00291,-0.389996 c 0,-0.04075 -0.00291,-0.07276 -0.00582,-0.101865 0,-0.0291 0.00291,-0.05821 0.00873,-0.09313 l 0.014552,-0.0291 0.052388,-0.09313 c 0.014552,-0.02619 0.029104,-0.05239 0.037835,-0.07567 l 0.3114149,0.797456 c 0.00582,0.01455 0.020373,0.02328 0.034925,0.02328 h 0.305594 c 0.017463,0 0.023283,-0.0087 0.017463,-0.02328 l -0.011642,-0.02328 C 7.9666545,95.556723 7.8211335,95.166726 7.6639709,94.782551 l 0.4685776,-0.876036 c 0.017462,-0.03202 0.00291,-0.0553 -0.034925,-0.0553 H 7.8211335 c -0.014552,0 -0.026194,0.0087 -0.034925,0.02037 l -0.4307422,0.806186 -0.00291,-0.788724 c 0,-0.02328 -0.014552,-0.03784 -0.037835,-0.03784 H 7.0440514 c -0.023283,0 -0.037835,0.01455 -0.037835,0.03784 z m 2.581277,-2.060577 c 0,-0.02328 -0.014552,-0.03784 -0.037836,-0.03784 h -0.908051 c -0.023283,0 -0.037835,0.01455 -0.037835,0.03784 l 0.00291,2.060577 c 0,0.02328 0.014552,0.03784 0.037835,0.03784 h 0.9051406 c 0.023283,0 0.037836,-0.01455 0.037836,-0.03784 v -0.256117 c 0,-0.02328 -0.014552,-0.03784 -0.037836,-0.03784 l -0.5995465,-0.0029 v -0.567532 h 0.4307422 c 0.023283,0 0.037835,-0.01455 0.037835,-0.03784 v -0.256117 c 0,-0.02328 -0.014552,-0.03784 -0.037835,-0.03784 H 8.9501109 v -0.570442 h 0.5995465 c 0.023283,0 0.037836,-0.01455 0.037836,-0.03784 z m 0.9106981,2.060577 c 0,0.02328 0.01455,0.03784 0.03783,0.03784 h 0.27067 c 0.02328,0 0.03783,-0.01455 0.03783,-0.03784 v -0.55589 c 0,-0.0553 -0.0058,-0.09604 -0.0087,-0.1397 -0.0029,-0.04366 -0.0029,-0.08149 0.0087,-0.133879 0.01746,-0.07858 0.03492,-0.1397 0.05821,-0.197909 0.02619,-0.06403 0.0553,-0.125148 0.08149,-0.20664 l 0.285221,-0.814917 c 0.01164,-0.0291 -0.0029,-0.04948 -0.03492,-0.04948 h -0.27649 c -0.01455,0 -0.0291,0.01164 -0.03492,0.02619 L 10.672816,94.625388 10.42252,93.87741 c -0.0058,-0.01455 -0.02037,-0.02619 -0.03493,-0.02619 h -0.282311 c -0.03201,0 -0.04657,0.02037 -0.03492,0.04948 l 0.285221,0.814917 c 0.02619,0.08149 0.0553,0.142611 0.08149,0.20664 0.02328,0.05821 0.04366,0.119327 0.06112,0.197909 0.01164,0.05239 0.01164,0.09022 0.0087,0.133879 -0.0029,0.04366 -0.0087,0.0844 -0.0087,0.1397 z"
     id="text20"
     aria-label="KEY" /><path
     style="font-size:2.91042px;line-height:1.8;font-family:'Autogate Sans';-inkscape-font-specification:'Autogate Sans';text-align:center;letter-spacing:0.264583px;text-anchor:middle;fill:#4c4c4c;stroke-width:0.264583"
     d="m 11.161751,76.047193 c 0,0.04657 -0.04075,0.09022 -0.08731,0.09022 H 10.80377 v -1.466851 h 0.270669 c 0.04657,0 0.08731,0.04075 0.08731,0.09022 z m -0.681038,-1.708416 c -0.01164,0 -0.02037,0.0087 -0.02037,0.01746 v 2.089682 c 0,0.01164 0.0087,0.02037 0.02037,0.02037 h 0.01746 c 0.215372,0.0029 0.427832,0.0058 0.643203,0.0058 0.215371,0 0.363803,-0.171715 0.363803,-0.355072 v -1.426105 c 0,-0.183357 -0.148432,-0.355072 -0.363803,-0.355072 -0.215371,0 -0.427831,0.0029 -0.643203,0.0029 z m 1.871134,0.03493 c 0,-0.02328 -0.01455,-0.03784 -0.03784,-0.03784 h -0.276489 c -0.02328,0 -0.03784,0.01455 -0.03784,0.03784 v 2.060577 c 0,0.02328 0.01455,0.03784 0.03784,0.03784 h 0.276489 c 0.02328,0 0.03784,-0.01455 0.03784,-0.03784 z m 0.820476,1.554164 v -0.192088 c 0,-0.02328 -0.01455,-0.03784 -0.03784,-0.03784 h -0.267759 c -0.02328,0 -0.03783,0.01455 -0.03783,0.03784 v 0.267759 c 0,0.244475 0.197909,0.471488 0.480219,0.471488 h 0.189178 c 0.261937,0 0.439473,-0.20664 0.439473,-0.427832 V 75.74451 c 0,-0.09313 -0.05239,-0.180446 -0.101865,-0.244476 l -0.01455,-0.02037 c 0,0 -0.0029,-0.0029 -0.0029,-0.0029 l -0.01164,-0.01164 c -0.0029,-0.0029 -0.0029,-0.0029 -0.0058,-0.0058 l -0.599546,-0.436563 -0.01455,-0.02619 c -0.0058,-0.01746 -0.01164,-0.02911 -0.01164,-0.04075 0,-0.0029 0,-0.0029 0,-0.0058 -0.0058,-0.04075 -0.0029,-0.07858 -0.0029,-0.119327 0,-0.160073 0.02328,-0.171715 0.21246,-0.171715 0.04948,0 0.09022,0.0029 0.119327,0.02037 0.03784,0.02328 0.06403,0.08731 0.07567,0.171715 0.01455,0.08149 0.01455,0.165894 0.01455,0.215371 v 0.01455 c 0,0.01164 0.0058,0.01746 0.01746,0.01746 h 0.288132 c 0.02328,0 0.03784,-0.01455 0.03784,-0.03783 v -0.267759 c 0,-0.247385 -0.197909,-0.468577 -0.480219,-0.468577 h -0.189178 c -0.256117,0 -0.439473,0.200819 -0.439473,0.424921 v 0.227013 c 0,0.09022 0.05239,0.180446 0.101865,0.244475 l 0.01455,0.01746 c 0,0.0029 0.0029,0.0058 0.0058,0.0087 l 0.01164,0.0087 0.605368,0.439473 0.01164,0.02619 c 0.0058,0.01746 0.01164,0.03493 0.01164,0.04657 0,0.0029 0,0.0029 0,0.0058 0.0087,0.05239 0.0029,0.107685 0.0029,0.162983 0,0.04366 0,0.07858 -0.0029,0.110596 -0.0058,0.02619 -0.01164,0.04366 -0.02037,0.0553 -0.01746,0.02037 -0.0553,0.03493 -0.165894,0.03493 h -0.02328 c -0.183357,-0.0029 -0.20955,-0.03201 -0.20955,-0.20955 z m 1.85367,-0.733426 0.09895,0.477309 h -0.203729 z m 0.582084,1.274764 c 0.0291,0 0.04366,-0.01746 0.03783,-0.04657 L 15.194797,74.36206 c -0.0029,-0.01746 -0.01746,-0.0291 -0.03492,-0.0291 h -0.264848 c -0.01746,0 -0.03201,0.01164 -0.03492,0.0291 l -0.454026,2.060577 c -0.0058,0.02911 0.0087,0.04657 0.03784,0.04657 h 0.2794 c 0.02037,0 0.03492,-0.01164 0.03784,-0.0291 l 0.08731,-0.433653 h 0.355072 l 0.08731,0.433653 c 0.0029,0.01746 0.01746,0.0291 0.03784,0.0291 z m 0.506145,-2.133338 c -0.02328,0 -0.03784,0.01455 -0.03784,0.03784 v 2.060577 c 0,0.02328 0.01455,0.03784 0.03784,0.03784 h 0.649024 c 0.215371,0 0.360892,-0.168805 0.360892,-0.352161 v -0.532607 c 0,-0.06694 -0.01455,-0.128059 -0.04948,-0.183357 0.03493,-0.05821 0.04948,-0.119327 0.04948,-0.183356 v -0.532607 c 0,-0.183356 -0.145521,-0.352161 -0.360892,-0.352161 z m 0.582084,0.334699 c 0.04366,0 0.0844,0.04075 0.0844,0.08731 v 0.389996 c 0,0.04657 -0.04075,0.09022 -0.0844,0.09022 h -0.273579 v -0.567532 z m 0.0844,1.379539 c 0,0.04366 -0.04075,0.08731 -0.0844,0.08731 h -0.273579 v -0.567532 h 0.273579 c 0.04366,0 0.0844,0.04075 0.0844,0.09022 z m 1.15808,0.08731 -0.0029,-1.763714 c 0,-0.02328 -0.01455,-0.03784 -0.03784,-0.03784 h -0.264848 c -0.02328,0 -0.03784,0.01455 -0.03784,0.03784 l -0.0058,2.060577 c 0,0.02328 0.01455,0.03784 0.03784,0.03784 h 0.910962 c 0.02328,0 0.03783,-0.01455 0.03783,-0.03784 v -0.259027 c 0,-0.02328 -0.01455,-0.03784 -0.03783,-0.03784 z m 2.080685,-1.763714 c 0,-0.02328 -0.01455,-0.03784 -0.03784,-0.03784 h -0.908051 c -0.02328,0 -0.03784,0.01455 -0.03784,0.03784 l 0.0029,2.060577 c 0,0.02328 0.01455,0.03784 0.03784,0.03784 h 0.90514 c 0.02328,0 0.03784,-0.01455 0.03784,-0.03784 v -0.256117 c 0,-0.02328 -0.01455,-0.03784 -0.03784,-0.03784 l -0.599546,-0.0029 v -0.567532 h 0.430742 c 0.02328,0 0.03784,-0.01455 0.03784,-0.03784 v -0.256117 c 0,-0.02328 -0.01455,-0.03784 -0.03784,-0.03784 h -0.430742 v -0.570443 h 0.599546 c 0.02328,0 0.03784,-0.01455 0.03784,-0.03784 z"
     id="text174"
     aria-label="DISABLE" /><text
     xml:space="preserve"
     style="font-size:2.91042px;line-height:1.8;font-family:'Halogen by Pixel Surplus';-inkscape-font-specification:'Halogen by Pixel Surplus';text-align:center;letter-spacing:0px;text-anchor:middle;fill:#4c4c4c;fill-opacity:1;stroke-width:0.264583"
     x="32.831802"
     y="6.0058346"
     id="text3"><tspan
       sodipodi:role="line"
       id="tspan3"
       style="stroke-width:0.264583"
       x="32.831802"
       y="6.0058346" /></text></g>
  <g
   inkscape:groupmode="layer"
   id="layer2-0"
   inkscape:label="components"
   style="display:none"
   sodipodi:insensitive="true">
    
    
    
    
    
    
    
    
    
    
    
    
    
    
    
    
    
    
    
    
    
    
    
    
    
    
    
    
  <circle
   style="display:inline;fill:#0000ff;fill-opacity:1;stroke-width:0.313059"
   id="ellipse7"
   cx="15.240106"
   cy="107.55496"
   inkscape:label="out_lights"
   r="4" /><circle
   style="display:inline;fill:#00ff00;fill-opacity:1;stroke-width:0.313059"
   id="circle1"
   cx="9.2080002"
   cy="88"
   inkscape:label="in_k"
   r="4" /><circle
   style="display:inline;fill:#00ff00;fill-opacity:1;stroke-width:0.313059"
   id="circle4"
   cx="21.335714"
   cy="88"
   inkscape:label="in_kg"
   r="4" /><circle
   style="display:inline;fill:#00ff00;fill-opacity:1;stroke-width:0.313059"
   id="circle2"
   cx="15.240106"
   cy="68.539429"
   inkscape:label="in_disable"
   r="4" /></g>
</svg>
