<?xml version="1.0" encoding="UTF-8"?>
<!DOCTYPE svg PUBLIC "-//W3C//DTD SVG 1.1//EN" "http://www.w3.org/Graphics/SVG/1.1/DTD/svg11.dtd">
<svg version="1.1" xmlns="http://www.w3.org/2000/svg" xmlns:xlink="http://www.w3.org/1999/xlink" x="0" y="0" width="1190.551" height="841.89" viewBox="0, 0, 1190.551, 841.89">
  <g id="Layer_1">
    <g>
      <path d="M279.203,340.453 L157.217,340.266 L77.871,340.266 L77.871,541.412 L118.137,541.412 L118.137,501.332 L158.66,501.519 L158.404,541.599 L198.67,541.599 L198.927,501.519 L239.193,501.533 L238.937,541.599 L279.203,541.599 z" fill="#CF0000"/>
      <path d="M238.937,300.187 L116.951,300 L37.604,300 L37.604,501.146 L77.871,501.146 L77.871,340.266 L118.137,340.453 L118.137,501.332 L158.404,501.332 L158.404,340.453 L198.868,340.266 L198.67,501.332 L238.937,501.332 z" fill="#4C4C4C"/>
      <path d="M330.797,364.426 L330.174,374.529 Q334.355,368.515 340.136,365.509 Q345.917,362.502 353.299,362.502 Q367.707,362.502 375.978,374.529 Q380.514,368.515 386.206,365.509 Q391.898,362.502 398.835,362.502 Q407.996,362.502 414,366.511 Q420.003,370.52 421.693,376.333 Q423.383,382.145 423.383,395.214 L423.383,476.966 L388.519,476.966 L388.519,401.468 Q388.519,387.838 387.496,384.591 Q386.473,381.344 382.737,381.344 Q378.913,381.344 377.801,384.551 Q376.69,387.758 376.69,401.468 L376.69,476.966 L341.826,476.966 L341.826,403.232 Q341.826,387.597 340.981,384.471 Q340.136,381.344 336.311,381.344 Q333.91,381.344 332.22,382.987 Q330.53,384.631 330.352,386.996 Q330.174,389.361 330.174,397.058 L330.174,476.966 L295.31,476.966 L295.31,364.426 z" fill="#4C4C4C"/>
      <path d="M517.124,425.653 L470.609,425.653 L470.609,448.664 Q470.609,455.88 471.766,457.964 Q472.922,460.049 476.212,460.049 Q480.304,460.049 481.682,457.283 Q483.061,454.517 483.061,446.579 L483.061,432.548 L517.124,432.548 L517.124,440.405 Q517.124,450.267 515.746,455.559 Q514.367,460.85 509.298,466.864 Q504.228,472.877 496.446,475.884 Q488.664,478.89 476.924,478.89 Q465.54,478.89 456.824,475.924 Q448.108,472.957 443.26,467.786 Q438.413,462.614 436.546,456.401 Q434.678,450.187 434.678,438.321 L434.678,401.147 Q434.678,387.196 438.858,379.139 Q443.038,371.081 452.555,366.792 Q462.071,362.502 474.434,362.502 Q489.553,362.502 499.381,367.673 Q509.209,372.845 513.167,381.384 Q517.124,389.922 517.124,405.397 z M481.104,402.189 L481.104,394.412 Q481.104,386.154 480.126,383.749 Q479.147,381.344 476.124,381.344 Q472.388,381.344 471.499,383.388 Q470.609,385.433 470.609,394.412 L470.609,402.189 z" fill="#4C4C4C"/>
      <path d="M566.753,350.235 L566.753,366.992 L576.447,366.992 L576.447,383.829 L566.753,383.829 L566.753,446.9 Q566.753,457.403 567.953,458.606 Q569.154,459.808 577.959,459.808 L577.959,476.966 L563.462,476.966 Q551.188,476.966 545.941,476.044 Q540.693,475.122 536.691,471.795 Q532.689,468.467 531.711,464.178 Q530.732,459.888 530.732,444.013 L530.732,383.829 L522.994,383.829 L522.994,366.992 L530.732,366.992 L530.732,350.235 z" fill="#4C4C4C"/>
      <path d="M616.469,405.637 L582.761,405.637 L582.761,398.501 Q582.761,386.154 585.919,379.459 Q589.076,372.765 598.592,367.633 Q608.109,362.502 623.318,362.502 Q641.55,362.502 650.8,368.315 Q660.049,374.128 661.917,382.586 Q663.785,397.19 663.785,423.568 L663.785,476.966 L628.832,476.966 L628.832,467.505 Q625.541,473.198 620.338,476.044 Q615.135,478.89 607.931,478.89 Q598.504,478.89 590.632,474.12 Q582.761,469.349 582.761,453.234 L582.761,444.494 Q582.761,429.678 586.941,425.349 Q591.122,419.597 607.664,413.825 Q625.363,407.878 626.608,405.713 Q627.853,401.388 627.853,394.733 Q627.853,386.395 626.475,383.869 Q625.096,381.343 621.895,381.343 Q618.248,381.343 617.359,383.468 Q616.469,385.593 616.469,394.492 z M627.853,426.374 Q619.226,432.067 617.848,435.915 Q616.469,439.764 616.469,446.98 Q616.469,455.238 617.67,457.643 Q618.871,460.049 622.428,460.049 Q625.808,460.049 626.831,458.164 Q627.853,456.28 627.853,448.263 z" fill="#4C4C4C"/>
      <path d="M710.675,364.426 L710.052,374.529 Q714.239,368.515 720.029,365.509 Q725.82,362.502 733.214,362.502 Q747.646,362.502 755.931,374.529 Q760.474,368.515 766.175,365.509 Q771.877,362.502 778.826,362.502 Q788.001,362.502 794.015,366.511 Q800.028,370.52 801.72,376.333 Q803.413,382.145 803.413,395.214 L803.413,476.966 L768.492,476.966 L768.492,401.468 Q768.492,387.838 767.467,384.591 Q766.443,381.344 762.701,381.344 Q758.87,381.344 757.757,384.551 Q756.643,387.758 756.643,401.468 L756.643,476.966 L721.722,476.966 L721.722,403.232 Q721.722,387.597 720.876,384.471 Q720.029,381.344 716.199,381.344 Q713.793,381.344 712.101,382.987 Q710.408,384.631 710.23,386.996 Q710.052,389.361 710.052,397.058 L710.052,476.966 L675.13,476.966 L675.13,364.426 z" fill="#CF0000"/>
      <path d="M897.22,401.789 L897.22,433.991 Q897.22,448.343 895.616,455.038 Q894.013,461.732 888.757,467.545 Q883.501,473.358 875.26,476.124 Q867.02,478.89 856.33,478.89 Q844.392,478.89 836.107,476.525 Q827.823,474.16 823.235,469.389 Q818.647,464.619 816.687,457.844 Q814.727,451.069 814.727,437.519 L814.727,404.114 Q814.727,389.281 818.29,380.943 Q821.854,372.604 831.119,367.553 Q840.384,362.502 854.815,362.502 Q866.931,362.502 875.617,365.749 Q884.303,368.996 889.024,374.208 Q893.746,379.419 895.483,384.952 Q897.22,390.484 897.22,401.789 z M861.229,393.771 Q861.229,385.593 860.25,383.468 Q859.27,381.344 856.063,381.344 Q852.856,381.344 851.786,383.468 Q850.717,385.593 850.717,393.771 L850.717,447.942 Q850.717,455.479 851.786,457.764 Q852.856,460.049 855.973,460.049 Q859.181,460.049 860.205,457.964 Q861.229,455.88 861.229,448.984 z" fill="#CF0000"/>
      <path d="M945.059,364.426 L943.633,378.377 Q951.473,363.384 966.35,362.502 L966.35,399.945 Q956.462,399.945 951.829,402.35 Q947.197,404.755 946.128,409.045 Q945.059,419.479 945.059,434.954 L945.059,476.966 L909.068,476.966 L909.068,364.426 z" fill="#CF0000"/>
      <path d="M1010.982,364.427 L1010.358,373.807 Q1015.169,368.115 1020.959,365.309 Q1026.75,362.502 1033.609,362.502 Q1041.983,362.502 1048.086,366.551 Q1054.188,370.6 1055.702,375.892 Q1057.217,381.183 1057.217,393.851 L1057.217,444.815 Q1057.217,459.327 1055.302,465.461 Q1053.386,471.594 1047.462,475.242 Q1041.538,478.89 1033.164,478.89 Q1026.483,478.89 1020.781,476.084 Q1015.08,473.278 1010.358,467.746 L1010.358,501.332 L974.368,501.332 L974.368,364.427 z M1021.227,395.375 Q1021.227,385.513 1020.425,383.428 Q1019.623,381.344 1015.97,381.344 Q1012.407,381.344 1011.383,383.749 Q1010.358,386.154 1010.358,395.375 L1010.358,445.617 Q1010.358,455.238 1011.427,457.644 Q1012.496,460.049 1016.06,460.049 Q1019.534,460.049 1020.38,457.844 Q1021.227,455.639 1021.227,447.141 z" fill="#CF0000"/>
      <path d="M1105.056,340.266 L1105.056,370.199 Q1109.688,366.35 1115.078,364.426 Q1120.467,362.502 1126.614,362.502 Q1136.057,362.502 1142.694,366.831 Q1149.331,371.161 1150.801,376.813 Q1152.271,382.466 1152.271,397.459 L1152.271,476.966 L1116.28,476.966 L1116.28,395.936 Q1116.28,386.635 1115.256,383.989 Q1114.231,381.343 1110.668,381.343 Q1107.372,381.343 1106.214,384.069 Q1105.056,386.795 1105.056,394.893 L1105.056,476.966 L1069.065,476.966 L1069.065,340.266 z" fill="#CF0000"/>
    </g>
  </g>
</svg>
