<?xml version="1.0" encoding="UTF-8" standalone="no"?>
<!-- Created with Inkscape (http://www.inkscape.org/) -->

<svg
   width="55.799999mm"
   height="128.5mm"
   viewBox="0 0 55.799998 128.5"
   version="1.1"
   id="svg1"
   inkscape:version="1.3.2 (091e20e, 2023-11-25)"
   sodipodi:docname="METAM_11hp_FUNCTION_FINAL_w_SWITCH_RES.svg"
   xml:space="preserve"
   xmlns:inkscape="http://www.inkscape.org/namespaces/inkscape"
   xmlns:sodipodi="http://sodipodi.sourceforge.net/DTD/sodipodi-0.dtd"
   xmlns="http://www.w3.org/2000/svg"
   xmlns:svg="http://www.w3.org/2000/svg"><sodipodi:namedview
   id="namedview1"
   pagecolor="#ffffff"
   bordercolor="#000000"
   borderopacity="0.25"
   inkscape:showpageshadow="2"
   inkscape:pageopacity="0.0"
   inkscape:pagecheckerboard="0"
   inkscape:deskcolor="#d1d1d1"
   inkscape:document-units="mm"
   showgrid="true"
   inkscape:zoom="1.8701044"
   inkscape:cx="27.271205"
   inkscape:cy="163.89459"
   inkscape:window-width="2360"
   inkscape:window-height="1298"
   inkscape:window-x="38"
   inkscape:window-y="9"
   inkscape:window-maximized="0"
   inkscape:current-layer="layer6"
   showguides="false"><inkscape:grid
     id="grid120"
     units="mm"
     originx="0"
     originy="0"
     spacingx="1.016"
     spacingy="1.5"
     empcolor="#0099e5"
     empopacity="0.30196078"
     color="#0099e5"
     opacity="0.14901961"
     empspacing="5"
     dotted="false"
     gridanglex="30"
     gridanglez="30"
     visible="true" /><sodipodi:guide
     position="84.092142,116.5"
     orientation="0,-1"
     id="guide258"
     inkscape:locked="false" /><sodipodi:guide
     position="52.832001,-3.4999972"
     orientation="1,0"
     id="guide1"
     inkscape:locked="false" /><sodipodi:guide
     position="3.0480003,-3.5"
     orientation="1,0"
     id="guide2"
     inkscape:locked="false" /><sodipodi:guide
     position="64.008002,-10.999997"
     orientation="1,0"
     id="guide68"
     inkscape:locked="false" /><sodipodi:guide
     position="76.200002,-6.4999973"
     orientation="1,0"
     id="guide69"
     inkscape:locked="false" /><sodipodi:guide
     position="86.360002,-13.999997"
     orientation="1,0"
     id="guide70"
     inkscape:locked="false" /><sodipodi:guide
     position="-4.0640001,11.500003"
     orientation="0,-1"
     id="guide77"
     inkscape:locked="false" /><sodipodi:guide
     position="15.239999,-4.3083639"
     orientation="1,0"
     id="guide78"
     inkscape:locked="false" /><sodipodi:guide
     position="27.432001,-4.9999973"
     orientation="1,0"
     id="guide79"
     inkscape:locked="false" /><sodipodi:guide
     position="28.448001,-3.4999973"
     orientation="1,0"
     id="guide80"
     inkscape:locked="false" /><sodipodi:guide
     position="40.640001,-2.3455365"
     orientation="1,0"
     id="guide81"
     inkscape:locked="false" /><sodipodi:guide
     position="27.432001,-4.9999973"
     orientation="1,0"
     id="guide92"
     inkscape:locked="false" /><sodipodi:guide
     position="27.770668,-4.020105"
     orientation="1,0"
     id="guide93"
     inkscape:locked="false" /><sodipodi:guide
     position="28.109336,-4.8441418"
     orientation="1,0"
     id="guide94"
     inkscape:locked="false" /><sodipodi:guide
     position="32.440001,112.79098"
     orientation="0,-1"
     id="guide3"
     inkscape:locked="false" /></sodipodi:namedview>
  <defs
   id="defs1">
    <linearGradient
   id="Gradient_61"
   gradientUnits="userSpaceOnUse"
   x1="-424.043"
   y1="-4741.6309"
   x2="-405.228"
   y2="-4741.6309"
   gradientTransform="matrix(0.025,1,-1,0.025,-4534.645,592.311)">
      <stop
   offset="0"
   stop-color="#777676"
   id="stop121" />
      <stop
   offset="1"
   stop-color="#575757"
   id="stop122" />
    </linearGradient>
    <linearGradient
   id="Gradient_62"
   gradientUnits="userSpaceOnUse"
   x1="-423.578"
   y1="-4741.6309"
   x2="-405.69299"
   y2="-4741.6309"
   gradientTransform="matrix(0.025,1,-1,0.025,-4534.645,592.311)">
      <stop
   offset="0.006"
   stop-color="#FFFFFF"
   id="stop123" />
      <stop
   offset="1"
   stop-color="#454545"
   id="stop124" />
    </linearGradient>
    <linearGradient
   id="Gradient_63"
   gradientUnits="userSpaceOnUse"
   x1="-7828.9722"
   y1="4203.397"
   x2="-7814.8091"
   y2="4203.397"
   gradientTransform="matrix(-0.025,-1,1,-0.025,-4202.945,-7655.114)">
      <stop
   offset="0.006"
   stop-color="#FFFFFF"
   id="stop125" />
      <stop
   offset="1"
   stop-color="#454545"
   id="stop126" />
    </linearGradient>
    <linearGradient
   id="Gradient_64"
   gradientUnits="userSpaceOnUse"
   x1="-8480.584"
   y1="3795.7019"
   x2="-8480.584"
   y2="3807.8259"
   gradientTransform="matrix(-1,0.025,0.025,1,-8378.065,-3529.085)">
      <stop
   offset="0"
   stop-color="#FFFEFE"
   id="stop127" />
      <stop
   offset="1"
   stop-color="#5E5E5E"
   id="stop128" />
    </linearGradient>
    <linearGradient
   id="Gradient_65"
   gradientUnits="userSpaceOnUse"
   x1="-8480.584"
   y1="3806.3679"
   x2="-8480.584"
   y2="3797.1599"
   gradientTransform="matrix(-1,0.025,0.025,1,-8378.065,-3529.085)">
      <stop
   offset="0"
   stop-color="#FFFEFE"
   id="stop129" />
      <stop
   offset="1"
   stop-color="#383636"
   id="stop130" />
    </linearGradient>
  
        
        
      
        
        
      
        
        
      <linearGradient
   id="SVGID_1_"
   gradientUnits="userSpaceOnUse"
   x1="15.91438"
   y1="34.422451"
   x2="15.91438"
   y2="9.3452902"
   gradientTransform="matrix(1,0,0,-1,0,43.88983)">
		<stop
   offset="0"
   style="stop-color:#828181"
   id="stop1" />
		<stop
   offset="1"
   style="stop-color:#575757"
   id="stop2" />
	</linearGradient><linearGradient
   id="SVGID_00000039813682226536879630000008819692541500781996_"
   gradientUnits="userSpaceOnUse"
   x1="15.91439"
   y1="33.886829"
   x2="15.91439"
   y2="9.8809099"
   gradientTransform="matrix(1,0,0,-1,0,43.88983)">
		<stop
   offset="0.00559"
   style="stop-color:#F2F2F2"
   id="stop3" />
		<stop
   offset="1"
   style="stop-color:#C7C7C7"
   id="stop4" />
	</linearGradient><linearGradient
   id="SVGID_00000065778810957871135690000009488242445952415918_"
   gradientUnits="userSpaceOnUse"
   x1="-1917.8531"
   y1="1095.8516"
   x2="-1898.2256"
   y2="1095.8516"
   gradientTransform="rotate(-90,-1483.0316,-403.09454)">
		<stop
   offset="0"
   style="stop-color:#B0AEAE"
   id="stop5" />
		<stop
   offset="1"
   style="stop-color:#616161"
   id="stop6" />
	</linearGradient><linearGradient
   id="SVGID_00000171713635756230824350000010616014986402271619_"
   gradientUnits="userSpaceOnUse"
   x1="-2442.928"
   y1="809.22858"
   x2="-2442.928"
   y2="826.80347"
   gradientTransform="matrix(-1,0,0,1,-2427.0134,-796.11017)">
		<stop
   offset="0.00559"
   style="stop-color:#707070"
   id="stop8" />
		<stop
   offset="1"
   style="stop-color:#171616"
   id="stop9" />
	</linearGradient><linearGradient
   id="SVGID_00000144306169891397359050000011013140069067034521_"
   gradientUnits="userSpaceOnUse"
   x1="-2442.9243"
   y1="809.22858"
   x2="-2442.9243"
   y2="826.70764"
   gradientTransform="matrix(-1,0,0,1,-2427.0134,-796.11017)">
		<stop
   offset="0"
   style="stop-color:#FFFEFE"
   id="stop13" />
		<stop
   offset="1"
   style="stop-color:#545454"
   id="stop14" />
	</linearGradient><linearGradient
   id="SVGID_00000161599518429452590120000006752048433723871913_"
   gradientUnits="userSpaceOnUse"
   x1="-2442.9243"
   y1="824.94928"
   x2="-2442.9243"
   y2="810.98694"
   gradientTransform="matrix(-1,0,0,1,-2427.0134,-796.11017)">
		<stop
   offset="0"
   style="stop-color:#FFFEFE"
   id="stop18" />
		<stop
   offset="1"
   style="stop-color:#706C6C"
   id="stop19" />
	</linearGradient><linearGradient
   id="SVGID_00000056391914046623679090000017781048053089277066_"
   gradientUnits="userSpaceOnUse"
   x1="-2442.9106"
   y1="811.80585"
   x2="-2442.9106"
   y2="824.13043"
   gradientTransform="matrix(-1,0,0,1,-2427.0134,-796.11017)">
		<stop
   offset="0"
   style="stop-color:#FAF9F9"
   id="stop20" />
		<stop
   offset="1"
   style="stop-color:#545454"
   id="stop21" />
	</linearGradient><linearGradient
   id="SVGID_00000060023922574028338360000000987212957520619408_"
   gradientUnits="userSpaceOnUse"
   x1="16.08604"
   y1="6230.9883"
   x2="16.08604"
   y2="6249.9458"
   gradientTransform="translate(0,-6226.6709)">
		<stop
   offset="0"
   style="stop-color:#828181"
   id="stop24" />
		<stop
   offset="1"
   style="stop-color:#2E2E2E"
   id="stop25" />
	</linearGradient><linearGradient
   id="SVGID_00000036968830592735718300000005568108675441038777_"
   gradientUnits="userSpaceOnUse"
   x1="16.086029"
   y1="6235.0488"
   x2="16.086029"
   y2="6249.7212"
   gradientTransform="translate(0,-6226.6709)">
		<stop
   offset="0.00559"
   style="stop-color:#B3B3B3"
   id="stop26" />
		<stop
   offset="1"
   style="stop-color:#3B3B3B"
   id="stop27" />
	</linearGradient><linearGradient
   id="SVGID_00000181070319438928674170000015613835911583019178_"
   gradientUnits="userSpaceOnUse"
   x1="16.08602"
   y1="6231.2134"
   x2="16.08602"
   y2="6235.0488"
   gradientTransform="translate(0,-6226.6709)">
		<stop
   offset="0.00559"
   style="stop-color:#F5F5F5"
   id="stop28" />
		<stop
   offset="1"
   style="stop-color:#DBDBDB"
   id="stop29" />
	</linearGradient></defs>
  <g
   inkscape:groupmode="layer"
   id="layer5"
   inkscape:label="WHITE PANEL "
   style="display:inline"
   sodipodi:insensitive="true">
    <path
   id="rect1"
   style="fill:#ffffff;stroke-width:0.204805"
   d="M 0,0.52497211 C 0,43.183314 0,85.841656 0,128.5 c 18.626667,0 37.253334,0 55.880001,0 0,-42.833336 0,-85.666667 0,-128.5 C 37.253334,0 18.626667,0 0,0 0,0.17499071 0,0.3499814 0,0.52497211 Z" />
  </g>
  <g
   inkscape:groupmode="layer"
   id="layer2"
   inkscape:label="LOGO"
   style="display:inline"
   sodipodi:insensitive="true">
    <g
   id="g11"
   transform="matrix(0.02552152,0,0,0.02552152,12.756296,111.70541)"
   style="display:inline"
   inkscape:label="LOGO">
      <path
   d="M 279.203,340.453 157.217,340.266 H 77.871 v 201.146 h 40.266 v -40.08 l 40.523,0.187 -0.256,40.08 h 40.266 l 0.257,-40.08 40.266,0.014 -0.256,40.066 h 40.266 z"
   fill="#cf0000"
   id="path1" />
      <path
   d="M 238.937,300.187 116.951,300 H 37.604 v 201.146 h 40.267 v -160.88 l 40.266,0.187 v 160.879 h 40.267 V 340.453 l 40.464,-0.187 -0.198,161.066 h 40.267 z"
   fill="#4c4c4c"
   id="path2" />
      <path
   d="m 330.797,364.426 -0.623,10.103 q 4.181,-6.014 9.962,-9.02 5.781,-3.007 13.163,-3.007 14.408,0 22.679,12.027 4.536,-6.014 10.228,-9.02 5.692,-3.007 12.629,-3.007 9.161,0 15.165,4.009 6.003,4.009 7.693,9.822 1.69,5.812 1.69,18.881 v 81.752 h -34.864 v -75.498 q 0,-13.63 -1.023,-16.877 -1.023,-3.247 -4.759,-3.247 -3.824,0 -4.936,3.207 -1.111,3.207 -1.111,16.917 v 75.498 h -34.864 v -73.734 q 0,-15.635 -0.845,-18.761 -0.845,-3.127 -4.67,-3.127 -2.401,0 -4.091,1.643 -1.69,1.644 -1.868,4.009 -0.178,2.365 -0.178,10.062 v 79.908 H 295.31 v -112.54 z"
   fill="#4c4c4c"
   id="path3" />
      <path
   d="m 517.124,425.653 h -46.515 v 23.011 q 0,7.216 1.157,9.3 1.156,2.085 4.446,2.085 4.092,0 5.47,-2.766 1.379,-2.766 1.379,-10.704 v -14.031 h 34.063 v 7.857 q 0,9.862 -1.378,15.154 -1.379,5.291 -6.448,11.305 -5.07,6.013 -12.852,9.02 -7.782,3.006 -19.522,3.006 -11.384,0 -20.1,-2.966 -8.716,-2.967 -13.564,-8.138 -4.847,-5.172 -6.714,-11.385 -1.868,-6.214 -1.868,-18.08 v -37.174 q 0,-13.951 4.18,-22.008 4.18,-8.058 13.697,-12.347 9.516,-4.29 21.879,-4.29 15.119,0 24.947,5.171 9.828,5.172 13.786,13.711 3.957,8.538 3.957,24.013 z m -36.02,-23.464 v -7.777 q 0,-8.258 -0.978,-10.663 -0.979,-2.405 -4.002,-2.405 -3.736,0 -4.625,2.044 -0.89,2.045 -0.89,11.024 v 7.777 z"
   fill="#4c4c4c"
   id="path4" />
      <path
   d="m 566.753,350.235 v 16.757 h 9.694 v 16.837 h -9.694 V 446.9 q 0,10.503 1.2,11.706 1.201,1.202 10.006,1.202 v 17.158 h -14.497 q -12.274,0 -17.521,-0.922 -5.248,-0.922 -9.25,-4.249 -4.002,-3.328 -4.98,-7.617 -0.979,-4.29 -0.979,-20.165 v -60.184 h -7.738 v -16.837 h 7.738 v -16.757 z"
   fill="#4c4c4c"
   id="path5" />
      <path
   d="m 616.469,405.637 h -33.708 v -7.136 q 0,-12.347 3.158,-19.042 3.157,-6.694 12.673,-11.826 9.517,-5.131 24.726,-5.131 18.232,0 27.482,5.813 9.249,5.813 11.117,14.271 1.868,14.604 1.868,40.982 v 53.398 h -34.953 v -9.461 q -3.291,5.693 -8.494,8.539 -5.203,2.846 -12.407,2.846 -9.427,0 -17.299,-4.77 -7.871,-4.771 -7.871,-20.886 v -8.74 q 0,-14.816 4.18,-19.145 4.181,-5.752 20.723,-11.524 17.699,-5.947 18.944,-8.112 1.245,-4.325 1.245,-10.98 0,-8.338 -1.378,-10.864 -1.379,-2.526 -4.58,-2.526 -3.647,0 -4.536,2.125 -0.89,2.125 -0.89,11.024 z m 11.384,20.737 q -8.627,5.693 -10.005,9.541 -1.379,3.849 -1.379,11.065 0,8.258 1.201,10.663 1.201,2.406 4.758,2.406 3.38,0 4.403,-1.885 1.022,-1.884 1.022,-9.901 z"
   fill="#4c4c4c"
   id="path6" />
      <path
   d="m 710.675,364.426 -0.623,10.103 q 4.187,-6.014 9.977,-9.02 5.791,-3.007 13.185,-3.007 14.432,0 22.717,12.027 4.543,-6.014 10.244,-9.02 5.702,-3.007 12.651,-3.007 9.175,0 15.189,4.009 6.013,4.009 7.705,9.822 1.693,5.812 1.693,18.881 v 81.752 h -34.921 v -75.498 q 0,-13.63 -1.025,-16.877 -1.024,-3.247 -4.766,-3.247 -3.831,0 -4.944,3.207 -1.114,3.207 -1.114,16.917 v 75.498 h -34.921 v -73.734 q 0,-15.635 -0.846,-18.761 -0.847,-3.127 -4.677,-3.127 -2.406,0 -4.098,1.643 -1.693,1.644 -1.871,4.009 -0.178,2.365 -0.178,10.062 v 79.908 H 675.13 v -112.54 z"
   fill="#cf0000"
   id="path7" />
      <path
   d="m 897.22,401.789 v 32.202 q 0,14.352 -1.604,21.047 -1.603,6.694 -6.859,12.507 -5.256,5.813 -13.497,8.579 -8.24,2.766 -18.93,2.766 -11.938,0 -20.223,-2.365 -8.284,-2.365 -12.872,-7.136 -4.588,-4.77 -6.548,-11.545 -1.96,-6.775 -1.96,-20.325 v -33.405 q 0,-14.833 3.563,-23.171 3.564,-8.339 12.829,-13.39 9.265,-5.051 23.696,-5.051 12.116,0 20.802,3.247 8.686,3.247 13.407,8.459 4.722,5.211 6.459,10.744 1.737,5.532 1.737,16.837 z m -35.991,-8.018 q 0,-8.178 -0.979,-10.303 -0.98,-2.124 -4.187,-2.124 -3.207,0 -4.277,2.124 -1.069,2.125 -1.069,10.303 v 54.171 q 0,7.537 1.069,9.822 1.07,2.285 4.187,2.285 3.208,0 4.232,-2.085 1.024,-2.084 1.024,-8.98 z"
   fill="#cf0000"
   id="path8" />
      <path
   d="m 945.059,364.426 -1.426,13.951 q 7.84,-14.993 22.717,-15.875 v 37.443 q -9.888,0 -14.521,2.405 -4.632,2.405 -5.701,6.695 -1.069,10.434 -1.069,25.909 v 42.012 h -35.991 v -112.54 z"
   fill="#cf0000"
   id="path9" />
      <path
   d="m 1010.982,364.427 -0.624,9.38 q 4.811,-5.692 10.601,-8.498 5.791,-2.807 12.65,-2.807 8.374,0 14.477,4.049 6.102,4.049 7.616,9.341 1.515,5.291 1.515,17.959 v 50.964 q 0,14.512 -1.915,20.646 -1.916,6.133 -7.84,9.781 -5.924,3.648 -14.298,3.648 -6.681,0 -12.383,-2.806 -5.701,-2.806 -10.423,-8.338 v 33.586 h -35.99 V 364.427 Z m 10.245,30.948 q 0,-9.862 -0.802,-11.947 -0.802,-2.084 -4.455,-2.084 -3.563,0 -4.587,2.405 -1.025,2.405 -1.025,11.626 v 50.242 q 0,9.621 1.069,12.027 1.069,2.405 4.633,2.405 3.474,0 4.32,-2.205 0.847,-2.205 0.847,-10.703 z"
   fill="#cf0000"
   id="path10" />
      <path
   d="m 1105.056,340.266 v 29.933 q 4.632,-3.849 10.022,-5.773 5.389,-1.924 11.536,-1.924 9.443,0 16.08,4.329 6.637,4.33 8.107,9.982 1.47,5.653 1.47,20.646 v 79.507 h -35.991 v -81.03 q 0,-9.301 -1.024,-11.947 -1.025,-2.646 -4.588,-2.646 -3.296,0 -4.454,2.726 -1.158,2.726 -1.158,10.824 v 82.073 h -35.991 v -136.7 z"
   fill="#cf0000"
   id="path11" />
    </g>
  </g>
  <g
   inkscape:label="BLOCKS"
   inkscape:groupmode="layer"
   id="layer1"
   style="display:inline"
   sodipodi:insensitive="true">
    
    
    
    
    
    
    
    
    
    
    <path
   d="m 3.5983347,82.513315 48.7044973,-8.8e-4 c 0.292365,-5e-6 0.529167,0.236797 0.529167,0.529157 v 13.929249 c 0,0.29236 -0.236802,0.529157 -0.529167,0.529157 H 3.5983347 c -0.2921,0 -0.529167,-0.236797 -0.529167,-0.529157 V 83.042472 c 0,-0.29236 0.237067,-0.529152 0.529167,-0.529157 z"
   fill="#000000"
   fill-opacity="0.7"
   id="path12"
   style="stroke-width:0.264583"
   sodipodi:nodetypes="sssssssss" /><path
   d="m 41.169174,102.01323 11.133664,-8.8e-4 c 0.292365,-3e-5 0.529167,0.2368 0.529167,0.52916 v 13.92933 c 0,0.29236 -0.236802,0.52916 -0.529167,0.52916 H 41.169174 c -0.2921,0 -0.529167,-0.2368 -0.529167,-0.52916 v -13.92845 c 0,-0.29236 0.237067,-0.52914 0.529167,-0.52916 z"
   fill="#000000"
   fill-opacity="0.7"
   id="path77"
   style="stroke-width:0.264583"
   sodipodi:nodetypes="sssssssss" />
    <circle
   style="display:inline;fill:#ff0000;stroke-width:0.704961"
   id="circle286"
   cx="46.70459"
   cy="107.49072"
   r="4.695075" />
    
  <g
   id="g158"
   inkscape:label="BOX"
   transform="matrix(0.97376671,0,0,0.77583702,-33.663888,26.750087)"
   style="display:inline">
        <path
   d="m 78.346323,111.11212 h 8.346969 v 3.8508 h -8.346969 z"
   fill="#ff0000"
   id="path158"
   style="display:inline;stroke-width:0.351895"
   inkscape:label="RED BOX" />
      </g><circle
   style="display:inline;fill:#ff0000;stroke-width:0.704961"
   id="circle13"
   cx="46.765781"
   cy="69.937164"
   r="4.695075" /><circle
   style="display:inline;fill:#ff0000;stroke-width:0.704961"
   id="circle14"
   cx="9.1626043"
   cy="69.936966"
   r="4.695075" /><g
   id="g14"
   inkscape:label="BOX"
   transform="matrix(0.97376671,0,0,0.77583702,-33.589261,-10.803445)"
   style="display:inline">
        <path
   d="m 78.346323,111.11212 h 8.346969 v 3.8508 h -8.346969 z"
   fill="#ff0000"
   id="path14"
   style="display:inline;stroke-width:0.351895"
   inkscape:label="RED BOX" />
      </g><g
   id="g15"
   inkscape:label="BOX"
   transform="matrix(0.97376671,0,0,0.77583702,-71.192437,-10.803445)"
   style="display:inline">
        <path
   d="m 78.346323,111.11212 h 8.346969 v 3.8508 h -8.346969 z"
   fill="#ff0000"
   id="path15"
   style="display:inline;stroke-width:0.351895"
   inkscape:label="RED BOX" />
      </g></g>
  <g
   inkscape:groupmode="layer"
   id="layer6"
   inkscape:label="TYPE"
   style="display:inline"><path
     style="font-size:2.91042px;line-height:1.8;font-family:'Autogate Sans';-inkscape-font-specification:'Autogate Sans';text-align:center;letter-spacing:0.264583px;text-anchor:middle;fill:#f9f9f9;stroke-width:0.264583"
     d="m 45.750961,96 c 0.02328,0 0.03784,-0.01455 0.03784,-0.03784 V 95.09777 h 0.430742 c 0.02328,0 0.03784,-0.01455 0.03784,-0.03784 v -0.256117 c 0,-0.02328 -0.01455,-0.03784 -0.03784,-0.03784 H 45.788797 V 94.19554 l 0.599546,0.0058 c 0.02328,0 0.03784,-0.01455 0.03784,-0.03783 v -0.261938 c 0,-0.02328 -0.01455,-0.03784 -0.03784,-0.03784 h -0.910961 c -0.02328,0 -0.03784,0.01455 -0.03784,0.03784 l 0.0029,2.060578 c 0,0.02328 0.01455,0.03784 0.03784,0.03784 z m 2.211656,-2.098413 c 0,-0.02328 -0.01455,-0.03784 -0.03784,-0.03784 h -0.267759 c -0.02328,0 -0.03784,0.01455 -0.03784,0.03784 v 1.184541 h -0.34052 l 0.168805,-1.17872 c 0.0029,-0.02619 -0.01164,-0.04366 -0.03784,-0.04366 h -0.270669 c -0.01746,0 -0.03493,0.01164 -0.03784,0.03201 l -0.20664,1.478494 c -0.0029,0.02619 0.01164,0.04366 0.03784,0.04366 h 0.68686 l -0.0029,0.544249 c 0,0.02328 0.01455,0.03784 0.03784,0.03784 h 0.270669 c 0.02328,0 0.03784,-0.01455 0.03784,-0.03784 l 0.0029,-0.544249 h 0.03493 c 0.02037,0 0.03493,-0.01455 0.03493,-0.03493 v -0.261938 c 0,-0.02037 -0.01455,-0.03493 -0.03493,-0.03493 h -0.03493 z"
     id="text121"
     aria-label="f4" /><path
     style="font-size:2.91042px;line-height:1.8;font-family:'Autogate Sans';-inkscape-font-specification:'Autogate Sans';text-align:center;letter-spacing:0.264583px;text-anchor:middle;fill:#f9f9f9;stroke-width:0.264583"
     d="m 45.179985,115.1653 -0.0029,-1.76371 c 0,-0.0233 -0.01455,-0.0378 -0.03783,-0.0378 h -0.264848 c -0.02328,0 -0.03784,0.0145 -0.03784,0.0378 l -0.0058,2.06057 c 0,0.0233 0.01455,0.0378 0.03784,0.0378 h 0.910961 c 0.02328,0 0.03784,-0.0145 0.03784,-0.0378 v -0.25902 c 0,-0.0233 -0.01455,-0.0378 -0.03784,-0.0378 z m 2.080684,-1.76371 c 0,-0.0233 -0.01455,-0.0378 -0.03784,-0.0378 h -0.908051 c -0.02328,0 -0.03784,0.0145 -0.03784,0.0378 l 0.0029,2.06057 c 0,0.0233 0.01455,0.0378 0.03784,0.0378 h 0.905141 c 0.02328,0 0.03784,-0.0145 0.03784,-0.0378 v -0.25611 c 0,-0.0233 -0.01455,-0.0378 -0.03784,-0.0378 l -0.599546,-0.003 v -0.56753 h 0.430742 c 0.02328,0 0.03784,-0.0145 0.03784,-0.0378 v -0.25611 c 0,-0.0233 -0.01455,-0.0378 -0.03784,-0.0378 h -0.430742 v -0.57044 h 0.599546 c 0.02328,0 0.03784,-0.0145 0.03784,-0.0378 z m 1.163905,1.67349 c 0,0.0466 -0.04075,0.0902 -0.08731,0.0902 h -0.270669 v -1.46685 h 0.270669 c 0.04657,0 0.08731,0.0408 0.08731,0.0902 z m -0.681038,-1.70842 c -0.01164,0 -0.02037,0.009 -0.02037,0.0175 v 2.08969 c 0,0.0116 0.0087,0.0204 0.02037,0.0204 h 0.01746 c 0.215372,0.003 0.427832,0.006 0.643203,0.006 0.215371,0 0.363803,-0.17171 0.363803,-0.35507 v -1.42611 c 0,-0.18335 -0.148432,-0.35507 -0.363803,-0.35507 -0.215371,0 -0.427831,0.003 -0.643203,0.003 z"
     id="text122"
     aria-label="LED" /><path
     style="font-size:2.91042px;line-height:1.8;font-family:'Autogate Sans';-inkscape-font-specification:'Autogate Sans';text-align:center;letter-spacing:0.264583px;text-anchor:middle;fill:#4c4c4c;stroke-width:0.264583"
     d="m 5.0378441,115.16124 c 0,0.0466 -0.040746,0.0902 -0.087313,0.0902 h -0.270669 v -1.46685 h 0.270669 c 0.046567,0 0.087313,0.0407 0.087313,0.0902 z m -0.6810382,-1.70842 c -0.011642,0 -0.020373,0.009 -0.020373,0.0175 v 2.08968 c 0,0.0117 0.00873,0.0204 0.020373,0.0204 h 0.017462 c 0.2153711,0.003 0.4278317,0.006 0.6432028,0.006 0.2153711,0 0.3638025,-0.17172 0.3638025,-0.35507 v -1.42611 c 0,-0.18335 -0.1484314,-0.35507 -0.3638025,-0.35507 -0.2153711,0 -0.4278317,0.003 -0.6432028,0.003 z m 1.8711339,0.0349 c 0,-0.0233 -0.014552,-0.0378 -0.037835,-0.0378 H 5.9136145 c -0.023283,0 -0.037836,0.0145 -0.037836,0.0378 v 2.06057 c 0,0.0233 0.014552,0.0378 0.037836,0.0378 h 0.2764899 c 0.023283,0 0.037835,-0.0145 0.037835,-0.0378 z m 0.8204756,1.55416 v -0.19209 c 0,-0.0233 -0.014552,-0.0378 -0.037835,-0.0378 H 6.7428214 c -0.023283,0 -0.037836,0.0145 -0.037836,0.0378 v 0.26776 c 0,0.24448 0.1979086,0.47149 0.4802193,0.47149 h 0.1891773 c 0.2619378,0 0.4394734,-0.20664 0.4394734,-0.42783 v -0.30269 c 0,-0.0931 -0.052388,-0.18044 -0.1018647,-0.24447 l -0.014552,-0.0204 c 0,0 -0.00291,-0.003 -0.00291,-0.003 l -0.011642,-0.0117 c -0.00291,-0.003 -0.00291,-0.003 -0.00582,-0.006 l -0.5995466,-0.43656 -0.014552,-0.0262 c -0.00582,-0.0175 -0.011642,-0.0291 -0.011642,-0.0408 0,-0.003 0,-0.003 0,-0.006 -0.00582,-0.0408 -0.00291,-0.0786 -0.00291,-0.11933 0,-0.16007 0.023283,-0.17171 0.2124607,-0.17171 0.049477,0 0.090223,0.003 0.1193272,0.0204 0.037835,0.0233 0.064029,0.0873 0.075671,0.17171 0.014552,0.0815 0.014552,0.1659 0.014552,0.21538 v 0.0145 c 0,0.0116 0.00582,0.0175 0.017463,0.0175 h 0.2881315 c 0.023283,0 0.037835,-0.0145 0.037835,-0.0378 v -0.26776 c 0,-0.24739 -0.1979086,-0.46858 -0.4802193,-0.46858 H 7.1444593 c -0.2561169,0 -0.4394734,0.20082 -0.4394734,0.42492 v 0.22701 c 0,0.0902 0.052388,0.18045 0.1018647,0.24448 l 0.014552,0.0175 c 0,0.003 0.00291,0.006 0.00582,0.009 l 0.011642,0.009 0.6053674,0.43948 0.011642,0.0262 c 0.00582,0.0175 0.011642,0.0349 0.011642,0.0466 0,0.003 0,0.003 0,0.006 0.00873,0.0524 0.00291,0.10768 0.00291,0.16298 0,0.0437 0,0.0786 -0.00291,0.1106 -0.00582,0.0262 -0.011642,0.0436 -0.020373,0.0553 -0.017462,0.0204 -0.055298,0.0349 -0.165894,0.0349 h -0.023283 c -0.1833565,-0.003 -0.2095503,-0.032 -0.2095503,-0.20955 z m 1.8536704,-0.73343 0.098954,0.47731 H 8.7973107 Z m 0.582084,1.27477 c 0.029104,0 0.043656,-0.0175 0.037835,-0.0466 L 9.0708902,113.4761 c -0.00291,-0.0175 -0.017462,-0.0291 -0.034925,-0.0291 H 8.7711169 c -0.017463,0 -0.032015,0.0116 -0.034925,0.0291 l -0.4540255,2.06058 c -0.00582,0.0291 0.00873,0.0466 0.037835,0.0466 h 0.2794003 c 0.020373,0 0.034925,-0.0116 0.037835,-0.0291 l 0.087313,-0.43365 h 0.3550712 l 0.087313,0.43365 c 0.00291,0.0175 0.017463,0.0291 0.037835,0.0291 z m 0.5061456,-2.13334 c -0.023283,0 -0.037835,0.0145 -0.037835,0.0378 v 2.06057 c 0,0.0233 0.014552,0.0378 0.037835,0.0378 h 0.6490236 c 0.215371,0 0.360892,-0.16881 0.360892,-0.35216 v -0.53261 c 0,-0.0669 -0.01455,-0.12806 -0.04948,-0.18336 0.03492,-0.0582 0.04948,-0.11932 0.04948,-0.18335 v -0.53261 c 0,-0.18336 -0.145521,-0.35216 -0.360892,-0.35216 z m 0.5820836,0.3347 c 0.04366,0 0.0844,0.0407 0.0844,0.0873 v 0.39 c 0,0.0466 -0.04075,0.0902 -0.0844,0.0902 H 10.29882 v -0.56753 z m 0.0844,1.37954 c 0,0.0436 -0.04075,0.0873 -0.0844,0.0873 H 10.29882 v -0.56753 h 0.273579 c 0.04366,0 0.0844,0.0407 0.0844,0.0902 z m 1.15808,0.0873 -0.0029,-1.76371 c 0,-0.0233 -0.01455,-0.0378 -0.03784,-0.0378 h -0.264848 c -0.02328,0 -0.03783,0.0145 -0.03783,0.0378 l -0.0058,2.06057 c 0,0.0233 0.01455,0.0378 0.03784,0.0378 h 0.910962 c 0.02328,0 0.03783,-0.0145 0.03783,-0.0378 v -0.25902 c 0,-0.0233 -0.01455,-0.0378 -0.03783,-0.0378 z m 2.080685,-1.76371 c 0,-0.0233 -0.01455,-0.0378 -0.03784,-0.0378 H 12.94968 c -0.02328,0 -0.03784,0.0145 -0.03784,0.0378 l 0.0029,2.06057 c 0,0.0233 0.01455,0.0378 0.03784,0.0378 h 0.90514 c 0.02328,0 0.03784,-0.0145 0.03784,-0.0378 v -0.25611 c 0,-0.0233 -0.01455,-0.0378 -0.03784,-0.0378 l -0.599546,-0.003 v -0.56753 h 0.430742 c 0.02328,0 0.03784,-0.0145 0.03784,-0.0378 v -0.25611 c 0,-0.0233 -0.01455,-0.0378 -0.03784,-0.0378 h -0.430742 v -0.57044 h 0.599546 c 0.02328,0 0.03784,-0.0145 0.03784,-0.0378 z"
     id="text124"
     aria-label="DISABLE" /><path
     style="font-size:6.12552px;line-height:1.8;font-family:'Autogate Sans';-inkscape-font-specification:'Autogate Sans';text-align:center;letter-spacing:0.556864px;text-anchor:middle;fill:#d40000;stroke-width:0.556864"
     d="m 16.523984,9 c 0.049,0 0.07963,-0.030628 0.07963,-0.079632 V 7.1010887 h 0.906577 c 0.04901,0 0.07963,-0.030628 0.07963,-0.079632 V 6.4824112 c 0,-0.049004 -0.03063,-0.079632 -0.07963,-0.079632 H 16.603615 V 5.2021775 l 1.261858,0.012251 c 0.049,0 0.07963,-0.030628 0.07963,-0.079632 V 4.5834999 c 0,-0.049004 -0.03063,-0.079632 -0.07963,-0.079632 h -1.917288 c -0.049,0 -0.07963,0.030628 -0.07963,0.079632 l 0.0061,4.3368683 C 15.874679,8.9693724 15.905306,9 15.95431,9 Z m 4.69772,-0.9862088 0.0061,-3.4302913 c 0,-0.049004 -0.03063,-0.079632 -0.07963,-0.079632 h -0.569673 c -0.049,0 -0.07963,0.030628 -0.07963,0.079632 v 3.2710278 c 0,0.3675312 -0.05513,0.4410375 -0.441037,0.4410375 -0.324653,0 -0.434912,-0.140887 -0.434912,-0.4410375 l 0.0061,-3.2710278 c 0,-0.049004 -0.03063,-0.079632 -0.07963,-0.079632 h -0.569674 c -0.049,0 -0.07963,0.030628 -0.07963,0.079632 l -0.0061,3.4302913 C 18.894006,8.4977073 19.194156,9 19.812834,9 h 0.490042 c 0.618677,0 0.918828,-0.5022927 0.918828,-0.9862088 z m 1.775845,-3.4609189 c -0.01225,-0.030628 -0.03675,-0.049004 -0.07351,-0.049004 H 22.36662 c -0.049,0 -0.07963,0.030628 -0.07963,0.079632 l 0.0061,4.3368683 C 22.293114,8.9693724 22.323742,9 22.372746,9 h 0.581924 c 0.049,0 0.07963,-0.030628 0.07963,-0.079632 l -0.01225,-2.5298398 1.078092,2.5604674 C 24.112394,8.9816234 24.136896,9 24.173649,9 h 0.545171 c 0.049,0 0.07963,-0.030628 0.07963,-0.079632 V 4.5834999 c 0,-0.049004 -0.03063,-0.079632 -0.07963,-0.079632 h -0.569673 c -0.049,0 -0.07963,0.030628 -0.07963,0.079632 l 0.0061,2.5298399 z m 5.181627,3.4609189 V 7.4502434 c 0,-0.049004 -0.03063,-0.079632 -0.07963,-0.079632 h -0.594175 c -0.0245,0 -0.03675,0.012251 -0.03675,0.036753 v 0.036753 c -0.0061,0.1041338 -0.0061,0.2878994 -0.03675,0.4655395 -0.03063,0.1837656 -0.09188,0.306276 -0.171515,0.3491547 -0.0061,0 -0.0061,0 -0.01225,0 -0.05513,0.030628 -0.134761,0.036753 -0.23277,0.036753 -0.324652,0 -0.434912,-0.140887 -0.434912,-0.4410375 V 5.6493404 c 0,-0.306276 0.11026,-0.4410374 0.434912,-0.4410374 0.09801,0 0.17764,0.00613 0.23277,0.036753 0.0061,0 0.0061,0 0.01225,0 0.07963,0.042879 0.134762,0.1776401 0.165389,0.3614057 0.03063,0.1776401 0.03063,0.3675312 0.03063,0.4655395 v 0.036753 c 0,0.024502 0.01225,0.036753 0.03675,0.036753 l 0.606426,-0.012251 c 0.049,0 0.07963,-0.030628 0.07963,-0.079632 V 5.4839514 c 0,-0.4839161 -0.294025,-0.9800832 -0.918828,-0.9800832 h -0.483916 c -0.618678,0 -0.924954,0.4961671 -0.924954,0.9800832 V 8.0137912 C 25.851478,8.5038329 26.157754,9 26.776432,9 h 0.483916 c 0.624803,0 0.918828,-0.4961671 0.918828,-0.9862088 z m 3.392977,-3.4302913 c 0,-0.049004 -0.03063,-0.079632 -0.07963,-0.079632 h -2.339949 c -0.049,0 -0.07963,0.030628 -0.07963,0.079632 v 0.5512968 c 0,0.049004 0.03063,0.079632 0.07963,0.079632 l 0.808569,-0.012251 V 8.9203682 C 29.961141,8.9693724 29.991769,9 30.040773,9 h 0.569673 c 0.049,0 0.07963,-0.030628 0.07963,-0.079632 V 5.2021775 h 0.802443 c 0.049,0 0.07963,-0.030628 0.07963,-0.079632 z m 1.641082,0 c 0,-0.049004 -0.03063,-0.079632 -0.07963,-0.079632 h -0.581925 c -0.049,0 -0.07963,0.030628 -0.07963,0.079632 V 8.9203682 C 32.472047,8.9693724 32.502674,9 32.551678,9 h 0.581925 c 0.049,0 0.07963,-0.030628 0.07963,-0.079632 z M 35.203476,9 h 0.483916 C 36.312195,9 36.60622,8.5038329 36.60622,8.0137912 V 5.4839514 c 0,-0.4839161 -0.294025,-0.9800832 -0.918828,-0.9800832 h -0.483916 c -0.618678,0 -0.924954,0.4961671 -0.924954,0.9800832 V 8.0137912 C 34.278522,8.5038329 34.584798,9 35.203476,9 Z M 35.007459,5.6493404 c 0,-0.306276 0.11026,-0.4410374 0.434912,-0.4410374 0.385908,0 0.441038,0.073506 0.441038,0.4410374 v 2.2051873 c 0,0.3675312 -0.05513,0.4410375 -0.441038,0.4410375 -0.324652,0 -0.434912,-0.140887 -0.434912,-0.4410375 z m 3.203086,-1.0964681 c -0.01225,-0.030628 -0.03675,-0.049004 -0.07351,-0.049004 h -0.557423 c -0.049,0 -0.07963,0.030628 -0.07963,0.079632 l 0.0061,4.3368683 C 37.50611,8.9693724 37.536738,9 37.585742,9 h 0.581924 c 0.049,0 0.07963,-0.030628 0.07963,-0.079632 l -0.01225,-2.5298398 1.078092,2.5604674 C 39.32539,8.9816234 39.349892,9 39.386645,9 h 0.545171 c 0.049,0 0.07963,-0.030628 0.07963,-0.079632 V 4.5834999 c 0,-0.049004 -0.03063,-0.079632 -0.07963,-0.079632 h -0.569673 c -0.049,0 -0.07963,0.030628 -0.07963,0.079632 l 0.0061,2.5298399 z"
     id="text193"
     aria-label="FUNCTION" /><text
     xml:space="preserve"
     style="font-size:2.91042px;line-height:1.8;font-family:'Halogen by Pixel Surplus';-inkscape-font-specification:'Halogen by Pixel Surplus';text-align:center;letter-spacing:0.264583px;text-anchor:middle;fill:#00ff00;stroke-width:0.264583"
     x="66.909317"
     y="46.5"
     id="text13"><tspan
       sodipodi:role="line"
       id="tspan13"
       style="stroke-width:0.264583"
       x="66.909317"
       y="46.5" /></text><text
     xml:space="preserve"
     style="font-size:2.91042px;line-height:1.8;font-family:'Halogen by Pixel Surplus';-inkscape-font-specification:'Halogen by Pixel Surplus';text-align:center;letter-spacing:0.264583px;text-anchor:middle;fill:#00ff00;stroke-width:0.264583"
     x="98.834129"
     y="38.261597"
     id="text15"><tspan
       sodipodi:role="line"
       id="tspan15"
       style="stroke-width:0.264583"
       x="98.834129"
       y="38.261597" /></text><path
     style="font-size:2.91042px;line-height:1.8;font-family:'Autogate Sans';-inkscape-font-specification:'Autogate Sans';text-align:center;letter-spacing:0.264583px;text-anchor:middle;fill:#f9f9f9;stroke-width:0.264583"
     d="m 20.72438,96 c 0.02328,0 0.03784,-0.01455 0.03784,-0.03784 V 95.09777 h 0.430743 c 0.02328,0 0.03783,-0.01455 0.03783,-0.03784 v -0.256117 c 0,-0.02328 -0.01455,-0.03784 -0.03783,-0.03784 H 20.762215 V 94.19554 l 0.599547,0.0058 c 0.02328,0 0.03784,-0.01455 0.03784,-0.03783 v -0.261938 c 0,-0.02328 -0.01455,-0.03784 -0.03784,-0.03784 H 20.4508 c -0.02328,0 -0.03784,0.01455 -0.03784,0.03784 l 0.0029,2.060578 c 0,0.02328 0.01455,0.03784 0.03784,0.03784 z m 1.844943,-1.786998 c 0.0291,0.01164 0.04948,0.02619 0.04948,0.07567 0,0.06112 0.0029,0.125148 0,0.192088 0,0.02037 -0.02037,0.05821 -0.03784,0.07858 -0.194999,0.215371 -0.401638,0.422011 -0.599547,0.634472 -0.05821,0.06403 -0.125148,0.180446 -0.125148,0.273579 v 0.494772 c 0,0.02328 0.01455,0.03784 0.03784,0.03784 h 1.030289 c 0.02328,0 0.03784,-0.01455 0.03784,-0.03784 v -0.259028 c 0,-0.02328 -0.01455,-0.03784 -0.03784,-0.03784 H 22.1997 c 0,-0.05821 -0.0029,-0.113507 0.0058,-0.168805 0.0058,-0.03784 0.01164,-0.06985 0.03202,-0.09022 l 0.602457,-0.631561 c 0.06112,-0.06985 0.122238,-0.180446 0.122238,-0.273579 v -0.212461 c 0,-0.221192 -0.177536,-0.427832 -0.436563,-0.427832 h -0.192088 c -0.282311,0 -0.477309,0.227013 -0.477309,0.468578 v 0.189177 c 0,0.02328 0.01455,0.03784 0.03784,0.03784 h 0.291042 c 0.01164,0 0.01746,-0.0058 0.02037,-0.01746 v -0.01455 c 0.0029,-0.04366 0.0029,-0.113506 0.01746,-0.180446 0.01455,-0.06985 0.04075,-0.113506 0.07567,-0.130969 l 0.04657,-0.01164 0.06403,-0.0029 h 0.02328 c 0.05239,0 0.09895,0 0.13679,0.01455 z"
     id="text237"
     aria-label="f2" /><path
     style="font-size:2.91042px;line-height:1.8;font-family:'Autogate Sans';-inkscape-font-specification:'Autogate Sans';text-align:center;letter-spacing:0.264583px;text-anchor:middle;fill:#f9f9f9;stroke-width:0.264583"
     d="m 33.251497,96.018356 c 0.02328,0 0.03784,-0.01455 0.03784,-0.03784 v -0.864395 h 0.430742 c 0.02328,0 0.03784,-0.01455 0.03784,-0.03784 v -0.256117 c 0,-0.02328 -0.01455,-0.03784 -0.03784,-0.03784 h -0.430742 v -0.570442 l 0.599547,0.0058 c 0.02328,0 0.03783,-0.01455 0.03783,-0.03784 v -0.261937 c 0,-0.02328 -0.01455,-0.03784 -0.03783,-0.03784 h -0.910962 c -0.02328,0 -0.03784,0.01455 -0.03784,0.03784 l 0.0029,2.060577 c 0,0.02328 0.01455,0.03784 0.03784,0.03784 z m 1.856584,-0.357981 c -0.01455,0.0087 -0.04075,0.01455 -0.07567,0.01746 -0.03493,0.0029 -0.07567,0.0029 -0.101864,0.0029 -0.04948,0 -0.09022,-0.0029 -0.116417,-0.02037 -0.03784,-0.02328 -0.06112,-0.0844 -0.07567,-0.168805 -0.01164,-0.08149 -0.01164,-0.168804 -0.01164,-0.218281 v -0.01746 c 0,-0.0087 -0.0058,-0.01455 -0.01455,-0.01455 h -0.296863 c -0.02328,0 -0.03784,0.01455 -0.03784,0.03784 v 0.267758 c 0,0.244476 0.194998,0.468578 0.477309,0.468578 h 0.192087 c 0.253207,0 0.436563,-0.20955 0.436563,-0.424921 v -0.506413 c 0,-0.06112 -0.01455,-0.125149 -0.05239,-0.183357 0.03493,-0.0553 0.05239,-0.116417 0.05239,-0.180446 v -0.41619 c 0,-0.218282 -0.183356,-0.424921 -0.436563,-0.424921 h -0.192087 c -0.282311,0 -0.477309,0.221192 -0.477309,0.465667 v 0.186267 c 0,0.02328 0.01455,0.03784 0.03784,0.03784 h 0.291042 c 0.01164,0 0.01746,-0.0058 0.01746,-0.01746 v -0.01746 c 0,-0.04075 0,-0.113506 0.01164,-0.180446 0.01455,-0.06694 0.03784,-0.110596 0.07276,-0.125148 0.0029,0 0.0029,0 0.0058,0 0.0291,-0.01455 0.06985,-0.01455 0.116417,-0.01455 0.02619,0 0.05239,0 0.07858,0.0029 0.0029,0 0.0029,0 0.0058,0 0.02328,0 0.04657,0.0029 0.06694,0.01164 0.03493,0.01164 0.05821,0.0291 0.05821,0.07858 v 0.34052 c 0,0.03493 -0.03784,0.06112 -0.122238,0.07567 -0.04075,0.0058 -0.08149,0.0087 -0.119327,0.01164 h -0.09313 -0.01746 c -0.01164,0 -0.02037,0.0087 -0.02037,0.01746 v 0.296862 c 0,0.01164 0.0087,0.02037 0.02037,0.02037 h 0.01746 0.09313 c 0.03784,0.0029 0.07858,0.0058 0.119327,0.01164 0.0844,0.01455 0.122238,0.04366 0.122238,0.07567 l -0.0029,0.439473 c 0,0.02037 -0.01164,0.04657 -0.02911,0.06403 z"
     id="text239"
     aria-label="f3" /><path
     style="font-size:2.91042px;line-height:1.8;font-family:'Autogate Sans';-inkscape-font-specification:'Autogate Sans';text-align:center;letter-spacing:0.264583px;text-anchor:middle;fill:#f9f9f9;stroke-width:0.264583"
     d="m 8.4615748,96 c 0.023283,0 0.037835,-0.01455 0.037835,-0.03784 V 95.09777 h 0.4307422 c 0.023283,0 0.037835,-0.01455 0.037835,-0.03784 v -0.256117 c 0,-0.02328 -0.014552,-0.03784 -0.037835,-0.03784 H 8.4994103 V 94.19554 l 0.5995465,0.0058 c 0.023283,0 0.037835,-0.01455 0.037835,-0.03783 v -0.261938 c 0,-0.02328 -0.014552,-0.03784 -0.037835,-0.03784 H 8.1879954 c -0.023283,0 -0.037835,0.01455 -0.037835,0.03784 l 0.00291,2.060578 c 0,0.02328 0.014552,0.03784 0.037835,0.03784 z m 1.5655422,0 c 0.02328,0 0.03784,-0.01455 0.03784,-0.03784 v -2.060578 c 0,-0.02328 -0.01455,-0.03784 -0.03784,-0.03784 H 9.7710005 c -0.00873,0 -0.020373,0.0029 -0.026194,0.01164 l -0.1484315,0.142611 c -0.00582,0.0058 -0.011642,0.01746 -0.011642,0.0291 v 0.128059 c 0,0.02328 0.014552,0.03784 0.037835,0.03784 h 0.098954 v 1.749163 c 0,0.02328 0.014552,0.03784 0.037835,0.03784 z"
     id="text95"
     aria-label="f1" /><path
     style="font-size:2.91042px;line-height:0;font-family:'Autogate Sans';-inkscape-font-specification:'Autogate Sans';text-align:center;letter-spacing:0.15875px;text-anchor:middle;fill:#4c4c4c;stroke-width:0.264583"
     d="m 11.843012,48.629707 c 0.02328,0 0.03784,-0.01455 0.03784,-0.03784 v -0.864395 h 0.430742 c 0.02328,0 0.03783,-0.01455 0.03783,-0.03784 v -0.256117 c 0,-0.02328 -0.01455,-0.03784 -0.03783,-0.03784 h -0.430742 v -0.570442 l 0.599546,0.0058 c 0.02328,0 0.03784,-0.01455 0.03784,-0.03784 v -0.261937 c 0,-0.02328 -0.01455,-0.03784 -0.03784,-0.03784 h -0.910961 c -0.02328,0 -0.03784,0.01455 -0.03784,0.03784 l 0.0029,2.060577 c 0,0.02328 0.01455,0.03784 0.03783,0.03784 z m 2.126196,-0.468577 0.0029,-1.629835 c 0,-0.02328 -0.01455,-0.03784 -0.03783,-0.03784 h -0.270669 c -0.02328,0 -0.03784,0.01455 -0.03784,0.03784 v 1.554164 c 0,0.174625 -0.02619,0.20955 -0.20955,0.20955 -0.154252,0 -0.20664,-0.06694 -0.20664,-0.20955 l 0.0029,-1.554164 c 0,-0.02328 -0.01455,-0.03784 -0.03784,-0.03784 h -0.270669 c -0.02328,0 -0.03784,0.01455 -0.03784,0.03784 l -0.0029,1.629835 c 0,0.229923 0.142611,0.468577 0.436563,0.468577 h 0.232834 c 0.293952,0 0.436563,-0.238654 0.436563,-0.468577 z m 0.737925,-1.644388 c -0.0058,-0.01455 -0.01746,-0.02328 -0.03493,-0.02328 H 14.40736 c -0.02328,0 -0.03784,0.01455 -0.03784,0.03784 l 0.0029,2.060577 c 0,0.02328 0.01455,0.03784 0.03784,0.03784 h 0.27649 c 0.02328,0 0.03784,-0.01455 0.03784,-0.03784 l -0.0058,-1.202004 0.512234,1.216556 c 0.0058,0.01455 0.01746,0.02328 0.03493,0.02328 h 0.259028 c 0.02328,0 0.03784,-0.01455 0.03784,-0.03784 v -2.060577 c 0,-0.02328 -0.01455,-0.03784 -0.03784,-0.03784 h -0.270669 c -0.02328,0 -0.03784,0.01455 -0.03784,0.03784 l 0.0029,1.202003 z m 2.356114,1.644388 v -0.267759 c 0,-0.02328 -0.01455,-0.03784 -0.03784,-0.03784 h -0.282311 c -0.01164,0 -0.01746,0.0058 -0.01746,0.01746 v 0.01746 c -0.0029,0.04948 -0.0029,0.136789 -0.01746,0.221192 -0.01455,0.08731 -0.04366,0.145521 -0.08149,0.165894 -0.0029,0 -0.0029,0 -0.0058,0 -0.02619,0.01455 -0.06403,0.01746 -0.110596,0.01746 -0.154253,0 -0.20664,-0.06694 -0.20664,-0.20955 v -1.047751 c 0,-0.145521 0.05239,-0.209551 0.20664,-0.209551 0.04657,0 0.0844,0.0029 0.110596,0.01746 0.0029,0 0.0029,0 0.0058,0 0.03784,0.02037 0.06403,0.0844 0.07858,0.171715 0.01455,0.0844 0.01455,0.174625 0.01455,0.221192 v 0.01746 c 0,0.01164 0.0058,0.01746 0.01746,0.01746 l 0.288132,-0.0058 c 0.02328,0 0.03784,-0.01455 0.03784,-0.03784 v -0.270669 c 0,-0.229923 -0.1397,-0.465667 -0.436563,-0.465667 h -0.229923 c -0.293952,0 -0.439473,0.235744 -0.439473,0.465667 v 1.202004 c 0,0.232833 0.145521,0.468577 0.439473,0.468577 h 0.229923 c 0.296863,0 0.436563,-0.235744 0.436563,-0.468577 z m 1.84838,0.110596 c -0.01455,0.0087 -0.04075,0.01455 -0.07567,0.01746 -0.03493,0.0029 -0.07567,0.0029 -0.101864,0.0029 -0.04948,0 -0.09022,-0.0029 -0.116417,-0.02037 -0.03784,-0.02328 -0.06112,-0.0844 -0.07567,-0.168805 -0.01164,-0.08149 -0.01164,-0.168804 -0.01164,-0.218281 v -0.01746 c 0,-0.0087 -0.0058,-0.01455 -0.01455,-0.01455 h -0.296863 c -0.02328,0 -0.03784,0.01455 -0.03784,0.03784 v 0.267758 c 0,0.244476 0.194998,0.468578 0.477309,0.468578 h 0.192087 c 0.253207,0 0.436563,-0.20955 0.436563,-0.424921 v -0.506413 c 0,-0.06112 -0.01455,-0.125149 -0.05239,-0.183357 0.03492,-0.0553 0.05239,-0.116417 0.05239,-0.180446 v -0.41619 c 0,-0.218282 -0.183356,-0.424921 -0.436563,-0.424921 h -0.192087 c -0.282311,0 -0.477309,0.221192 -0.477309,0.465667 v 0.186267 c 0,0.02328 0.01455,0.03784 0.03784,0.03784 h 0.291042 c 0.01164,0 0.01746,-0.0058 0.01746,-0.01746 v -0.01746 c 0,-0.04075 0,-0.113506 0.01164,-0.180446 0.01455,-0.06694 0.03784,-0.110596 0.07276,-0.125148 0.0029,0 0.0029,0 0.0058,0 0.0291,-0.01455 0.06985,-0.01455 0.116417,-0.01455 0.02619,0 0.05239,0 0.07858,0.0029 0.0029,0 0.0029,0 0.0058,0 0.02328,0 0.04657,0.0029 0.06694,0.01164 0.03493,0.01164 0.05821,0.0291 0.05821,0.07858 v 0.34052 c 0,0.03493 -0.03784,0.06112 -0.122238,0.07567 -0.04075,0.0058 -0.08149,0.0087 -0.119327,0.01164 h -0.09313 -0.01746 c -0.01164,0 -0.02037,0.0087 -0.02037,0.01746 v 0.296862 c 0,0.01164 0.0087,0.02037 0.02037,0.02037 h 0.01746 0.09313 c 0.03784,0.0029 0.07858,0.0058 0.119327,0.01164 0.0844,0.01455 0.122238,0.04366 0.122238,0.07567 l -0.0029,0.439473 c 0,0.02037 -0.01164,0.04657 -0.0291,0.06403 z"
     id="text106"
     aria-label="func 3" /><g
     id="g96"
     transform="translate(-2.1455494e-8,3.0000002)"><path
       d="M 16.449388,59.824051 H 3.9277396 c -0.194247,0 -0.370195,-0.0785 -0.497581,-0.20585 -0.127387,-0.12739 -0.206211,-0.30334 -0.206211,-0.49794"
       fill-opacity="0"
       stroke="#969f96"
       stroke-width="0.351895"
       id="path134"
       sodipodi:nodetypes="cscc" /><path
       d="M 9.6067761,59.824051 H 26.890928 c 0.194247,0 0.370195,-0.0785 0.497581,-0.20585 0.127387,-0.12739 0.206211,-0.30334 0.206211,-0.49794"
       fill-opacity="0"
       stroke="#969f96"
       stroke-width="0.351895"
       id="path135"
       sodipodi:nodetypes="cscc" /></g><path
     style="font-size:2.91042px;line-height:1.8;font-family:'Autogate Sans';-inkscape-font-specification:'Autogate Sans';text-align:center;letter-spacing:0.264583px;text-anchor:middle;fill:#4c4c4c;stroke-width:0.264583"
     d="M 7.3381884,59.363752 H 6.6891648 c -0.023283,0 -0.037835,0.01455 -0.037835,0.03784 l 0.00291,2.060578 c 0,0.02328 0.014552,0.03784 0.037835,0.03784 h 0.2677586 c 0.023283,0 0.037835,-0.01455 0.037835,-0.03784 v -0.704322 h 0.1222376 l 0.2590274,0.715963 c 0.00582,0.01746 0.020373,0.02619 0.034925,0.02619 h 0.256117 c 0.032015,0 0.046567,-0.02037 0.034925,-0.04948 L 7.4633365,60.73456 c 0.1746252,-0.05821 0.235744,-0.218282 0.235744,-0.369624 v -0.649023 c 0,-0.183357 -0.145521,-0.352161 -0.3608921,-0.352161 z m -0.06694,0.334698 c 0.043656,0 0.084402,0.03784 0.084402,0.08731 v 0.547159 c 0,0.04948 -0.037835,0.09022 -0.084402,0.09022 H 6.9976693 V 59.69845 Z M 8.6476144,61.5 h 0.2299232 c 0.2968629,0 0.436563,-0.235744 0.436563,-0.468578 v -1.202003 c 0,-0.229923 -0.1397001,-0.465667 -0.436563,-0.465667 H 8.6476144 c -0.2939524,0 -0.4394734,0.235744 -0.4394734,0.465667 v 1.202003 C 8.208141,61.264256 8.353662,61.5 8.6476144,61.5 Z M 8.554481,59.908 c 0,-0.145521 0.052388,-0.20955 0.2066398,-0.20955 0.1833565,0 0.2095503,0.03493 0.2095503,0.20955 v 1.047751 c 0,0.174626 -0.026194,0.209551 -0.2095503,0.209551 -0.1542522,0 -0.2066398,-0.06694 -0.2066398,-0.209551 z m 2.569634,1.592 c 0.01746,0 0.03201,-0.01164 0.03492,-0.0291 l 0.454026,-2.063488 c 0.0058,-0.0291 -0.0087,-0.04657 -0.03784,-0.04657 h -0.270669 c -0.01746,0 -0.03201,0.01164 -0.03492,0.02911 l -0.256117,1.161257 -0.162983,-0.945886 c -0.0029,-0.02037 -0.01746,-0.03202 -0.03784,-0.03202 h -0.261938 c -0.02037,0 -0.03493,0.01164 -0.03784,0.03202 l -0.162984,0.937155 c -0.08731,-0.384176 -0.168804,-0.771261 -0.247385,-1.155437 l -0.0029,-0.01455 c -0.0029,-0.0058 -0.0087,-0.01164 -0.01746,-0.01164 H 9.785322 c -0.029104,0 -0.043656,0.01746 -0.037835,0.04657 l 0.4511154,2.063488 c 0.0029,0.01746 0.01746,0.0291 0.03493,0.0291 h 0.267758 c 0.02037,0 0.03493,-0.01164 0.03784,-0.03202 l 0.1397,-0.823648 0.145521,0.823648 c 0.0029,0.02037 0.01746,0.03202 0.03784,0.03202 z"
     id="text108"
     aria-label="row" /><path
     style="font-size:2.91042px;line-height:1.8;font-family:'Autogate Sans';-inkscape-font-specification:'Autogate Sans';text-align:center;letter-spacing:0.264583px;text-anchor:middle;fill:#4c4c4c;stroke-width:0.264583"
     d="m 20.702684,61.031422 v -0.267758 c 0,-0.02328 -0.01455,-0.03784 -0.03784,-0.03784 h -0.28231 c -0.01164,0 -0.01746,0.0058 -0.01746,0.01746 v 0.01746 c -0.0029,0.04948 -0.0029,0.13679 -0.01746,0.221192 -0.01455,0.08731 -0.04366,0.145521 -0.08149,0.165894 -0.0029,0 -0.0029,0 -0.0058,0 -0.02619,0.01455 -0.06403,0.01746 -0.110596,0.01746 -0.154252,0 -0.20664,-0.06694 -0.20664,-0.209551 V 59.908 c 0,-0.145521 0.05239,-0.20955 0.20664,-0.20955 0.04657,0 0.0844,0.0029 0.110596,0.01746 0.0029,0 0.0029,0 0.0058,0 0.03784,0.02037 0.06403,0.0844 0.07858,0.171714 0.01455,0.0844 0.01455,0.174626 0.01455,0.221192 v 0.01746 c 0,0.01164 0.0058,0.01746 0.01746,0.01746 l 0.288131,-0.0058 c 0.02328,0 0.03784,-0.01455 0.03784,-0.03784 v -0.270669 c 0,-0.229923 -0.1397,-0.465667 -0.436563,-0.465667 h -0.229923 c -0.293953,0 -0.439474,0.235744 -0.439474,0.465667 v 1.202003 c 0,0.232834 0.145521,0.468578 0.439474,0.468578 h 0.229923 c 0.296863,0 0.436563,-0.235744 0.436563,-0.468578 z M 21.625022,61.5 h 0.229923 c 0.296863,0 0.436563,-0.235744 0.436563,-0.468578 v -1.202003 c 0,-0.229923 -0.1397,-0.465667 -0.436563,-0.465667 h -0.229923 c -0.293953,0 -0.439474,0.235744 -0.439474,0.465667 v 1.202003 c 0,0.232834 0.145521,0.468578 0.439474,0.468578 z m -0.09313,-1.592 c 0,-0.145521 0.05239,-0.20955 0.20664,-0.20955 0.183356,0 0.20955,0.03493 0.20955,0.20955 v 1.047751 c 0,0.174626 -0.02619,0.209551 -0.20955,0.209551 -0.154252,0 -0.20664,-0.06694 -0.20664,-0.209551 z m 1.56845,1.257302 -0.0029,-1.763715 c 0,-0.02328 -0.01455,-0.03784 -0.03784,-0.03784 h -0.264849 c -0.02328,0 -0.03784,0.01455 -0.03784,0.03784 l -0.0058,2.060578 c 0,0.02328 0.01455,0.03784 0.03784,0.03784 h 0.910961 c 0.02328,0 0.03784,-0.01455 0.03784,-0.03784 v -0.259028 c 0,-0.02328 -0.01455,-0.03784 -0.03784,-0.03784 z"
     id="text137"
     aria-label="COL&#10;" /><path
     d="m 17.747592,16.795405 c 0,-0.02328 -0.01455,-0.03783 -0.03784,-0.03783 h -1.111781 c -0.02328,0 -0.03783,0.01455 -0.03783,0.03783 v 0.261938 c 0,0.02328 0.01455,0.03784 0.03783,0.03784 l 0.384176,-0.0058 v 1.766624 c 0,0.02328 0.01455,0.03784 0.03784,0.03784 h 0.270669 c 0.02328,0 0.03784,-0.01455 0.03784,-0.03784 v -1.766624 h 0.381265 c 0.02328,0 0.03784,-0.01455 0.03784,-0.03784 z m 0.875772,2.060577 c 0,0.02328 0.01455,0.03784 0.03784,0.03784 h 0.270669 c 0.02328,0 0.03784,-0.01455 0.03784,-0.03784 v -0.55589 c 0,-0.0553 -0.0058,-0.09604 -0.0087,-0.1397 -0.0029,-0.04366 -0.0029,-0.08149 0.0087,-0.133879 0.01746,-0.07858 0.03493,-0.1397 0.05821,-0.197909 0.02619,-0.06403 0.0553,-0.125148 0.08149,-0.20664 l 0.285221,-0.814917 c 0.01164,-0.0291 -0.0029,-0.04948 -0.03493,-0.04948 h -0.27649 c -0.01455,0 -0.0291,0.01164 -0.03493,0.02619 l -0.250296,0.747978 -0.250296,-0.747978 c -0.0058,-0.01455 -0.02037,-0.02619 -0.03492,-0.02619 h -0.282311 c -0.03202,0 -0.04657,0.02037 -0.03493,0.04948 l 0.285221,0.814917 c 0.02619,0.08149 0.0553,0.142611 0.08149,0.20664 0.02328,0.05821 0.04366,0.119327 0.06112,0.197909 0.01164,0.05239 0.01164,0.09022 0.0087,0.133879 -0.0029,0.04366 -0.0087,0.0844 -0.0087,0.1397 z m 1.245395,-2.098412 c -0.02328,0 -0.03784,0.01455 -0.03784,0.03783 l -0.0029,2.060577 c 0,0.02328 0.01455,0.03784 0.03784,0.03784 h 0.273579 c 0.02328,0 0.03784,-0.01455 0.03784,-0.03784 v -0.701411 h 0.302683 c 0.267759,0 0.398728,-0.171715 0.398728,-0.395817 V 17.10973 c 0,-0.183356 -0.145521,-0.35216 -0.360892,-0.35216 z m 0.582084,0.334698 c 0.04366,0 0.0844,0.04075 0.0844,0.08731 v 0.550069 c 0,0.04948 -0.04075,0.09022 -0.0844,0.09022 h -0.273579 v -0.727605 z m 1.862402,-0.296863 c 0,-0.02328 -0.01455,-0.03783 -0.03783,-0.03783 h -0.908051 c -0.02328,0 -0.03784,0.01455 -0.03784,0.03783 l 0.0029,2.060577 c 0,0.02328 0.01455,0.03784 0.03784,0.03784 h 0.905141 c 0.02328,0 0.03783,-0.01455 0.03783,-0.03784 v -0.256117 c 0,-0.02328 -0.01455,-0.03784 -0.03783,-0.03784 l -0.599546,-0.0029 v -0.567532 h 0.430742 c 0.02328,0 0.03784,-0.01455 0.03784,-0.03784 v -0.256117 c 0,-0.02328 -0.01455,-0.03783 -0.03784,-0.03783 h -0.430742 v -0.570442 h 0.599546 c 0.02328,0 0.03783,-0.01455 0.03783,-0.03784 z"
     id="text154"
     style="font-size:2.91042px;line-height:1.8;font-family:'Autogate Sans';-inkscape-font-specification:'Autogate Sans';text-align:end;letter-spacing:0.264583px;text-anchor:end;fill:#4c4c4c;stroke-width:0.264583"
     aria-label="type" /><g
     id="g97"
     transform="translate(1.5933918e-7,5.120262)"><path
       d="M 10.079726,42.175947 H 3.9277396 c -0.194246,0 -0.370194,0.0785 -0.497581,0.20585 -0.127387,0.12739 -0.206211,0.30334 -0.206211,0.49794"
       fill-opacity="0"
       stroke="#969f96"
       stroke-width="0.351895"
       id="path107"
       sodipodi:nodetypes="cscc" /><path
       d="m 20.738941,42.175947 h 6.151987 c 0.194246,0 0.370194,0.0785 0.497581,0.20585 0.127387,0.12739 0.206211,0.30334 0.206211,0.49794"
       fill-opacity="0"
       stroke="#969f96"
       stroke-width="0.351895"
       id="path165"
       sodipodi:nodetypes="cscc" /></g><path
     style="font-size:2.91042px;line-height:1.8;font-family:'Autogate Sans';-inkscape-font-specification:'Autogate Sans';text-align:center;letter-spacing:0.264583px;text-anchor:middle;fill:#f9f9f9;stroke-width:0.264583"
     d="m 45.432941,77.908614 c 0,0.02328 0.01455,0.03784 0.03784,0.03784 h 0.270669 c 0.02328,0 0.03784,-0.01455 0.03784,-0.03784 l 0.0029,-0.389996 c 0,-0.04075 -0.0029,-0.07276 -0.0058,-0.101865 0,-0.0291 0.0029,-0.05821 0.0087,-0.09313 l 0.01455,-0.0291 0.05239,-0.09313 c 0.01455,-0.02619 0.0291,-0.05239 0.03784,-0.07567 l 0.311415,0.797455 c 0.0058,0.01455 0.02037,0.02328 0.03493,0.02328 h 0.305594 c 0.01746,0 0.02328,-0.0087 0.01746,-0.02328 l -0.01164,-0.02328 c -0.154253,-0.384176 -0.299774,-0.774172 -0.456936,-1.158348 l 0.468577,-0.876036 c 0.01746,-0.03202 0.0029,-0.0553 -0.03492,-0.0553 h -0.27649 c -0.01455,0 -0.02619,0.0087 -0.03493,0.02037 l -0.430742,0.806186 -0.0029,-0.788723 c 0,-0.02328 -0.01455,-0.03784 -0.03784,-0.03784 h -0.270669 c -0.02328,0 -0.03784,0.01455 -0.03784,0.03784 z m 2.665681,-1.111781 c 0,-0.02328 -0.01455,-0.03784 -0.03784,-0.03784 h -0.541338 c -0.02328,0 -0.03783,0.01455 -0.03783,0.03784 v 0.261938 c 0,0.02328 0.01455,0.03784 0.03783,0.03784 l 0.235744,-0.0029 v 0.308505 c 0,0.174625 -0.02619,0.20955 -0.20955,0.20955 -0.154252,0 -0.20664,-0.06694 -0.20664,-0.20955 V 76.35445 c 0,-0.145521 0.05239,-0.209551 0.20664,-0.209551 0.05239,0 0.09313,0.0029 0.122238,0.02328 0.03784,0.02328 0.06112,0.08731 0.07276,0.171714 0.01455,0.07858 0.01455,0.162984 0.01455,0.209551 v 0.01746 c 0,0.01164 0.0058,0.01746 0.01746,0.01746 h 0.288131 c 0.02328,0 0.03784,-0.01455 0.03784,-0.03784 v -0.270669 c 0,-0.229923 -0.1397,-0.465667 -0.436563,-0.465667 h -0.229923 c -0.293953,0 -0.439474,0.235744 -0.439474,0.465667 v 1.190362 c 0,0.227013 0.145521,0.480219 0.439474,0.480219 h 0.229923 c 0.296863,0 0.436563,-0.235744 0.436563,-0.468577 z"
     id="text16"
     aria-label="KG" /><path
     style="font-size:2.91042px;line-height:1.8;font-family:'Autogate Sans';-inkscape-font-specification:'Autogate Sans';text-align:center;letter-spacing:0.264583px;text-anchor:middle;fill:#4c4c4c;stroke-width:0.264583"
     d="m 19.997711,76.796833 c 0,-0.02328 -0.01455,-0.03784 -0.03783,-0.03784 h -0.541338 c -0.02328,0 -0.03784,0.01455 -0.03784,0.03784 v 0.261938 c 0,0.02328 0.01455,0.03784 0.03784,0.03784 l 0.235744,-0.0029 v 0.308505 c 0,0.174625 -0.02619,0.20955 -0.209551,0.20955 -0.154252,0 -0.206639,-0.06694 -0.206639,-0.20955 V 76.35445 c 0,-0.145521 0.05239,-0.209551 0.206639,-0.209551 0.05239,0 0.09313,0.0029 0.122238,0.02328 0.03784,0.02328 0.06112,0.08731 0.07276,0.171714 0.01455,0.07858 0.01455,0.162984 0.01455,0.209551 v 0.01746 c 0,0.01164 0.0058,0.01746 0.01746,0.01746 h 0.288132 c 0.02328,0 0.03783,-0.01455 0.03783,-0.03784 v -0.270669 c 0,-0.229923 -0.1397,-0.465667 -0.436563,-0.465667 h -0.229923 c -0.293952,0 -0.439473,0.235744 -0.439473,0.465667 v 1.190362 c 0,0.227013 0.145521,0.480219 0.439473,0.480219 h 0.229923 c 0.296863,0 0.436563,-0.235744 0.436563,-0.468577 z m 1.050395,-0.128058 0.09895,0.477309 h -0.203729 z m 0.582084,1.274764 c 0.0291,0 0.04366,-0.01746 0.03784,-0.04657 L 21.21691,75.836395 c -0.0029,-0.01746 -0.01746,-0.0291 -0.03492,-0.0291 h -0.264848 c -0.01746,0 -0.03201,0.01164 -0.03493,0.0291 l -0.454025,2.060577 c -0.0058,0.0291 0.0087,0.04657 0.03783,0.04657 h 0.2794 c 0.02037,0 0.03492,-0.01164 0.03784,-0.0291 l 0.08731,-0.433653 h 0.355071 l 0.08731,0.433653 c 0.0029,0.01746 0.01746,0.0291 0.03784,0.0291 z m 1.449123,-2.095502 c 0,-0.02328 -0.01455,-0.03784 -0.03784,-0.03784 h -1.11178 c -0.02328,0 -0.03784,0.01455 -0.03784,0.03784 v 0.261937 c 0,0.02328 0.01455,0.03784 0.03784,0.03784 l 0.384175,-0.0058 v 1.766625 c 0,0.02328 0.01455,0.03784 0.03784,0.03784 h 0.270669 c 0.02328,0 0.03784,-0.01455 0.03784,-0.03784 v -1.766625 h 0.381265 c 0.02328,0 0.03784,-0.01455 0.03784,-0.03784 z m 1.422928,0 c 0,-0.02328 -0.01455,-0.03784 -0.03784,-0.03784 h -0.908051 c -0.02328,0 -0.03783,0.01455 -0.03783,0.03784 l 0.0029,2.060577 c 0,0.02328 0.01455,0.03784 0.03784,0.03784 h 0.90514 c 0.02328,0 0.03784,-0.01455 0.03784,-0.03784 v -0.256117 c 0,-0.02328 -0.01455,-0.03784 -0.03784,-0.03784 l -0.599546,-0.0029 v -0.567532 h 0.430742 c 0.02328,0 0.03783,-0.01455 0.03783,-0.03784 v -0.256117 c 0,-0.02328 -0.01455,-0.03784 -0.03783,-0.03784 h -0.430742 v -0.570442 h 0.599546 c 0.02328,0 0.03784,-0.01455 0.03784,-0.03784 z"
     id="text17"
     aria-label="GATE" /><path
     style="font-size:2.91042px;line-height:1.8;font-family:'Autogate Sans';-inkscape-font-specification:'Autogate Sans';text-align:center;letter-spacing:0.264583px;text-anchor:middle;fill:#f9f9f9;stroke-width:0.264583"
     d="m 7.0289945,77.908614 c 0,0.02328 0.014552,0.03784 0.037835,0.03784 H 7.337499 c 0.023283,0 0.037835,-0.01455 0.037835,-0.03784 l 0.00291,-0.389996 c 0,-0.04075 -0.00291,-0.07276 -0.00582,-0.101865 0,-0.0291 0.00291,-0.05821 0.00873,-0.09313 l 0.014552,-0.0291 0.052388,-0.09313 c 0.014552,-0.02619 0.029104,-0.05239 0.037835,-0.07567 l 0.3114149,0.797455 c 0.00582,0.01455 0.020373,0.02328 0.034925,0.02328 h 0.3055941 c 0.017463,0 0.023283,-0.0087 0.017463,-0.02328 l -0.011642,-0.02328 C 7.989433,77.515707 7.843912,77.125711 7.6867494,76.741535 L 8.155327,75.865499 c 0.017463,-0.03202 0.00291,-0.0553 -0.034925,-0.0553 H 7.843912 c -0.014552,0 -0.026194,0.0087 -0.034925,0.02037 l -0.4307421,0.806186 -0.00291,-0.788723 c 0,-0.02328 -0.014552,-0.03784 -0.037835,-0.03784 H 7.0668299 c -0.023283,0 -0.037835,0.01455 -0.037835,0.03784 z m 2.5812769,-2.060577 c 0,-0.02328 -0.014552,-0.03784 -0.037835,-0.03784 h -0.908051 c -0.023283,0 -0.037835,0.01455 -0.037835,0.03784 l 0.00291,2.060577 c 0,0.02328 0.014552,0.03784 0.037835,0.03784 h 0.9051406 c 0.023283,0 0.037835,-0.01455 0.037835,-0.03784 v -0.256117 c 0,-0.02328 -0.014552,-0.03784 -0.037835,-0.03784 l -0.5995465,-0.0029 v -0.567532 h 0.4307422 c 0.023283,0 0.037835,-0.01455 0.037835,-0.03784 v -0.256117 c 0,-0.02328 -0.014552,-0.03784 -0.037835,-0.03784 H 8.9728894 v -0.570442 h 0.5995465 c 0.023283,0 0.037835,-0.01455 0.037835,-0.03784 z m 0.9106986,2.060577 c 0,0.02328 0.01455,0.03784 0.03783,0.03784 h 0.270669 c 0.02328,0 0.03784,-0.01455 0.03784,-0.03784 v -0.55589 c 0,-0.0553 -0.0058,-0.09604 -0.0087,-0.139701 -0.0029,-0.04366 -0.0029,-0.08149 0.0087,-0.133879 0.01746,-0.07858 0.03492,-0.1397 0.05821,-0.197908 0.02619,-0.06403 0.0553,-0.125148 0.08149,-0.20664 l 0.285221,-0.814918 c 0.01164,-0.0291 -0.0029,-0.04948 -0.03492,-0.04948 h -0.27649 c -0.01455,0 -0.0291,0.01164 -0.03493,0.02619 l -0.250296,0.747978 -0.250296,-0.747978 c -0.0058,-0.01455 -0.02037,-0.02619 -0.03493,-0.02619 h -0.282311 c -0.03201,0 -0.04657,0.02037 -0.03492,0.04948 l 0.285221,0.814918 c 0.02619,0.08149 0.0553,0.14261 0.08149,0.20664 0.02328,0.05821 0.04366,0.119327 0.06112,0.197908 0.01164,0.05239 0.01164,0.09022 0.0087,0.133879 -0.0029,0.04366 -0.0087,0.0844 -0.0087,0.139701 z"
     id="text19"
     aria-label="KEY" /><path
     style="font-size:2.91042px;line-height:0;font-family:'Autogate Sans';-inkscape-font-specification:'Autogate Sans';text-align:center;letter-spacing:0.15875px;text-anchor:middle;fill:#4c4c4c;stroke-width:0.264583"
     d="m 36.885444,48.628254 c 0.02328,0 0.03784,-0.01455 0.03784,-0.03784 v -0.864394 h 0.430742 c 0.02328,0 0.03784,-0.01455 0.03784,-0.03784 v -0.256117 c 0,-0.02328 -0.01455,-0.03784 -0.03784,-0.03784 h -0.430742 v -0.570442 l 0.599547,0.0058 c 0.02328,0 0.03784,-0.01455 0.03784,-0.03784 v -0.261938 c 0,-0.02328 -0.01455,-0.03783 -0.03784,-0.03783 h -0.910962 c -0.02328,0 -0.03783,0.01455 -0.03783,0.03783 l 0.0029,2.060577 c 0,0.02328 0.01455,0.03784 0.03784,0.03784 z m 2.126195,-0.468578 0.0029,-1.629835 c 0,-0.02328 -0.01455,-0.03783 -0.03784,-0.03783 h -0.270669 c -0.02328,0 -0.03784,0.01455 -0.03784,0.03783 v 1.554164 c 0,0.174626 -0.02619,0.209551 -0.20955,0.209551 -0.154253,0 -0.20664,-0.06694 -0.20664,-0.209551 l 0.0029,-1.554164 c 0,-0.02328 -0.01455,-0.03783 -0.03784,-0.03783 h -0.270669 c -0.02328,0 -0.03784,0.01455 -0.03784,0.03783 l -0.0029,1.629835 c 0,0.229924 0.14261,0.468578 0.436563,0.468578 h 0.232833 c 0.293953,0 0.436563,-0.238654 0.436563,-0.468578 z m 0.737925,-1.644387 c -0.0058,-0.01455 -0.01746,-0.02328 -0.03493,-0.02328 h -0.264848 c -0.02328,0 -0.03783,0.01455 -0.03783,0.03783 l 0.0029,2.060577 c 0,0.02328 0.01455,0.03784 0.03783,0.03784 h 0.27649 c 0.02328,0 0.03784,-0.01455 0.03784,-0.03784 l -0.0058,-1.202003 0.512234,1.216556 c 0.0058,0.01455 0.01746,0.02328 0.03493,0.02328 h 0.259027 c 0.02328,0 0.03784,-0.01455 0.03784,-0.03784 v -2.060577 c 0,-0.02328 -0.01455,-0.03783 -0.03784,-0.03783 h -0.270669 c -0.02328,0 -0.03784,0.01455 -0.03784,0.03783 l 0.0029,1.202004 z m 2.356115,1.644387 v -0.267758 c 0,-0.02328 -0.01455,-0.03784 -0.03784,-0.03784 h -0.28231 c -0.01164,0 -0.01746,0.0058 -0.01746,0.01746 v 0.01746 c -0.0029,0.04948 -0.0029,0.13679 -0.01746,0.221192 -0.01455,0.08731 -0.04366,0.145521 -0.08149,0.165894 -0.0029,0 -0.0029,0 -0.0058,0 -0.02619,0.01455 -0.06403,0.01746 -0.110596,0.01746 -0.154252,0 -0.20664,-0.06694 -0.20664,-0.209551 v -1.047751 c 0,-0.145521 0.05239,-0.20955 0.20664,-0.20955 0.04657,0 0.0844,0.0029 0.110596,0.01746 0.0029,0 0.0029,0 0.0058,0 0.03783,0.02037 0.06403,0.0844 0.07858,0.171714 0.01455,0.0844 0.01455,0.174625 0.01455,0.221192 v 0.01746 c 0,0.01164 0.0058,0.01746 0.01746,0.01746 l 0.288131,-0.0058 c 0.02328,0 0.03784,-0.01455 0.03784,-0.03784 v -0.270669 c 0,-0.229923 -0.1397,-0.465667 -0.436563,-0.465667 h -0.229923 c -0.293953,0 -0.439474,0.235744 -0.439474,0.465667 v 1.202003 c 0,0.232834 0.145521,0.468578 0.439474,0.468578 h 0.229923 c 0.296863,0 0.436563,-0.235744 0.436563,-0.468578 z m 2.203451,-1.629835 c 0,-0.02328 -0.01455,-0.03783 -0.03784,-0.03783 h -0.267758 c -0.02328,0 -0.03784,0.01455 -0.03784,0.03783 v 1.184541 h -0.340519 l 0.168805,-1.17872 c 0.0029,-0.02619 -0.01164,-0.04366 -0.03784,-0.04366 h -0.270669 c -0.01746,0 -0.03493,0.01164 -0.03784,0.03201 l -0.20664,1.478494 c -0.0029,0.02619 0.01164,0.04366 0.03784,0.04366 H 43.9657 l -0.0029,0.544248 c 0,0.02328 0.01455,0.03784 0.03784,0.03784 h 0.270669 c 0.02328,0 0.03784,-0.01455 0.03784,-0.03784 l 0.0029,-0.544248 h 0.03492 c 0.02037,0 0.03493,-0.01455 0.03493,-0.03492 v -0.261938 c 0,-0.02037 -0.01455,-0.03493 -0.03493,-0.03493 h -0.03492 z"
     id="text97"
     aria-label="func 4" /><g
     id="g98"
     transform="translate(25.061336,3.0000002)"><path
       d="M 16.449388,59.824051 H 3.9277396 c -0.194247,0 -0.370195,-0.0785 -0.497581,-0.20585 -0.127387,-0.12739 -0.206211,-0.30334 -0.206211,-0.49794"
       fill-opacity="0"
       stroke="#969f96"
       stroke-width="0.351895"
       id="path97"
       sodipodi:nodetypes="cscc" /><path
       d="M 9.6067761,59.824051 H 26.890928 c 0.194247,0 0.370195,-0.0785 0.497581,-0.20585 0.127387,-0.12739 0.206211,-0.30334 0.206211,-0.49794"
       fill-opacity="0"
       stroke="#969f96"
       stroke-width="0.351895"
       id="path98"
       sodipodi:nodetypes="cscc" /></g><path
     style="font-size:2.91042px;line-height:1.8;font-family:'Autogate Sans';-inkscape-font-specification:'Autogate Sans';text-align:center;letter-spacing:0.264583px;text-anchor:middle;fill:#4c4c4c;stroke-width:0.264583"
     d="m 32.399529,59.363752 h -0.649024 c -0.02328,0 -0.03784,0.01455 -0.03784,0.03784 l 0.0029,2.060578 c 0,0.02328 0.01455,0.03784 0.03784,0.03784 h 0.267758 c 0.02328,0 0.03784,-0.01455 0.03784,-0.03784 v -0.704322 h 0.122237 l 0.259028,0.715963 c 0.0058,0.01746 0.02037,0.02619 0.03493,0.02619 h 0.256117 c 0.03201,0 0.04657,-0.02037 0.03493,-0.04948 L 32.524677,60.73456 c 0.174625,-0.05821 0.235744,-0.218282 0.235744,-0.369624 v -0.649023 c 0,-0.183357 -0.145521,-0.352161 -0.360892,-0.352161 z m -0.06694,0.334698 c 0.04366,0 0.0844,0.03784 0.0844,0.08731 v 0.547159 c 0,0.04948 -0.03784,0.09022 -0.0844,0.09022 H 32.05901 V 59.69845 Z M 33.708955,61.5 h 0.229923 c 0.296863,0 0.436563,-0.235744 0.436563,-0.468578 v -1.202003 c 0,-0.229923 -0.1397,-0.465667 -0.436563,-0.465667 h -0.229923 c -0.293953,0 -0.439474,0.235744 -0.439474,0.465667 v 1.202003 c 0,0.232834 0.145521,0.468578 0.439474,0.468578 z m -0.09313,-1.592 c 0,-0.145521 0.05239,-0.20955 0.20664,-0.20955 0.183357,0 0.20955,0.03493 0.20955,0.20955 v 1.047751 c 0,0.174626 -0.02619,0.209551 -0.20955,0.209551 -0.154252,0 -0.20664,-0.06694 -0.20664,-0.209551 z m 2.569635,1.592 c 0.01746,0 0.03201,-0.01164 0.03493,-0.0291 l 0.454025,-2.063488 c 0.0058,-0.0291 -0.0087,-0.04657 -0.03783,-0.04657 h -0.270669 c -0.01746,0 -0.03202,0.01164 -0.03493,0.02911 l -0.256117,1.161257 -0.162984,-0.945886 c -0.0029,-0.02037 -0.01746,-0.03202 -0.03784,-0.03202 h -0.261938 c -0.02037,0 -0.03492,0.01164 -0.03784,0.03202 l -0.162983,0.937155 c -0.08731,-0.384176 -0.168805,-0.771261 -0.247386,-1.155437 l -0.0029,-0.01455 c -0.0029,-0.0058 -0.0087,-0.01164 -0.01746,-0.01164 h -0.296863 c -0.0291,0 -0.04366,0.01746 -0.03784,0.04657 l 0.451115,2.063488 c 0.0029,0.01746 0.01746,0.0291 0.03493,0.0291 h 0.267759 c 0.02037,0 0.03493,-0.01164 0.03784,-0.03202 l 0.1397,-0.823648 0.145521,0.823648 c 0.0029,0.02037 0.01746,0.03202 0.03784,0.03202 z"
     id="text98"
     aria-label="row" /><path
     style="font-size:2.91042px;line-height:1.8;font-family:'Autogate Sans';-inkscape-font-specification:'Autogate Sans';text-align:center;letter-spacing:0.264583px;text-anchor:middle;fill:#4c4c4c;stroke-width:0.264583"
     d="m 45.764034,61.031422 v -0.267758 c 0,-0.02328 -0.01455,-0.03784 -0.03784,-0.03784 h -0.28231 c -0.01164,0 -0.01746,0.0058 -0.01746,0.01746 v 0.01746 c -0.0029,0.04948 -0.0029,0.13679 -0.01746,0.221192 -0.01455,0.08731 -0.04366,0.145521 -0.08149,0.165894 -0.0029,0 -0.0029,0 -0.0058,0 -0.02619,0.01455 -0.06403,0.01746 -0.110596,0.01746 -0.154252,0 -0.20664,-0.06694 -0.20664,-0.209551 V 59.908 c 0,-0.145521 0.05239,-0.20955 0.20664,-0.20955 0.04657,0 0.0844,0.0029 0.110596,0.01746 0.0029,0 0.0029,0 0.0058,0 0.03783,0.02037 0.06403,0.0844 0.07858,0.171714 0.01455,0.0844 0.01455,0.174626 0.01455,0.221192 v 0.01746 c 0,0.01164 0.0058,0.01746 0.01746,0.01746 l 0.288131,-0.0058 c 0.02328,0 0.03784,-0.01455 0.03784,-0.03784 v -0.270669 c 0,-0.229923 -0.1397,-0.465667 -0.436563,-0.465667 h -0.229923 c -0.293953,0 -0.439474,0.235744 -0.439474,0.465667 v 1.202003 c 0,0.232834 0.145521,0.468578 0.439474,0.468578 h 0.229923 c 0.296863,0 0.436563,-0.235744 0.436563,-0.468578 z M 46.686371,61.5 h 0.229924 c 0.296862,0 0.436563,-0.235744 0.436563,-0.468578 v -1.202003 c 0,-0.229923 -0.139701,-0.465667 -0.436563,-0.465667 h -0.229924 c -0.293952,0 -0.439473,0.235744 -0.439473,0.465667 v 1.202003 c 0,0.232834 0.145521,0.468578 0.439473,0.468578 z m -0.09313,-1.592 c 0,-0.145521 0.05239,-0.20955 0.20664,-0.20955 0.183356,0 0.20955,0.03493 0.20955,0.20955 v 1.047751 c 0,0.174626 -0.02619,0.209551 -0.20955,0.209551 -0.154252,0 -0.20664,-0.06694 -0.20664,-0.209551 z m 1.56845,1.257302 -0.0029,-1.763715 c 0,-0.02328 -0.01455,-0.03784 -0.03784,-0.03784 h -0.264848 c -0.02328,0 -0.03784,0.01455 -0.03784,0.03784 l -0.0058,2.060578 c 0,0.02328 0.01455,0.03784 0.03784,0.03784 h 0.910962 c 0.02328,0 0.03784,-0.01455 0.03784,-0.03784 v -0.259028 c 0,-0.02328 -0.01455,-0.03784 -0.03784,-0.03784 z"
     id="text100"
     aria-label="COL&#10;" /><g
     id="g101"
     transform="translate(25.061336,5.1202622)"><path
       d="M 10.079726,42.175947 H 3.9277396 c -0.194246,0 -0.370194,0.0785 -0.497581,0.20585 -0.127387,0.12739 -0.206211,0.30334 -0.206211,0.49794"
       fill-opacity="0"
       stroke="#969f96"
       stroke-width="0.351895"
       id="path100"
       sodipodi:nodetypes="cscc" /><path
       d="m 20.738941,42.175947 h 6.151987 c 0.194246,0 0.370194,0.0785 0.497581,0.20585 0.127387,0.12739 0.206211,0.30334 0.206211,0.49794"
       fill-opacity="0"
       stroke="#969f96"
       stroke-width="0.351895"
       id="path101"
       sodipodi:nodetypes="cscc" /></g><path
     style="font-size:2.91042px;line-height:0;font-family:'Autogate Sans';-inkscape-font-specification:'Autogate Sans';text-align:center;letter-spacing:0.15875px;text-anchor:middle;fill:#4c4c4c;stroke-width:0.264583"
     d="m 12.136965,27.628239 c 0.02328,0 0.03783,-0.01455 0.03783,-0.03784 v -0.864395 h 0.430743 c 0.02328,0 0.03783,-0.01455 0.03783,-0.03784 v -0.256117 c 0,-0.02328 -0.01455,-0.03783 -0.03783,-0.03783 H 12.1748 v -0.570443 l 0.599547,0.0058 c 0.02328,0 0.03783,-0.01455 0.03783,-0.03784 v -0.261938 c 0,-0.02328 -0.01455,-0.03784 -0.03783,-0.03784 h -0.910961 c -0.02328,0 -0.03784,0.01455 -0.03784,0.03784 l 0.0029,2.060577 c 0,0.02328 0.01455,0.03784 0.03783,0.03784 z m 2.126196,-0.468578 0.0029,-1.629835 c 0,-0.02328 -0.01455,-0.03784 -0.03783,-0.03784 h -0.270669 c -0.02328,0 -0.03784,0.01455 -0.03784,0.03784 v 1.554164 c 0,0.174625 -0.02619,0.20955 -0.20955,0.20955 -0.154252,0 -0.20664,-0.06694 -0.20664,-0.20955 l 0.0029,-1.554164 c 0,-0.02328 -0.01455,-0.03784 -0.03784,-0.03784 h -0.270669 c -0.02328,0 -0.03783,0.01455 -0.03783,0.03784 l -0.0029,1.629835 c 0,0.229923 0.142611,0.468578 0.436563,0.468578 h 0.232834 c 0.293952,0 0.436563,-0.238655 0.436563,-0.468578 z m 0.737925,-1.644387 c -0.0058,-0.01455 -0.01746,-0.02328 -0.03493,-0.02328 h -0.264849 c -0.02328,0 -0.03783,0.01455 -0.03783,0.03784 l 0.0029,2.060577 c 0,0.02328 0.01455,0.03784 0.03784,0.03784 h 0.27649 c 0.02328,0 0.03783,-0.01455 0.03783,-0.03784 l -0.0058,-1.202003 0.512234,1.216555 c 0.0058,0.01455 0.01746,0.02328 0.03493,0.02328 h 0.259028 c 0.02328,0 0.03784,-0.01455 0.03784,-0.03784 v -2.060577 c 0,-0.02328 -0.01455,-0.03784 -0.03784,-0.03784 h -0.270669 c -0.02328,0 -0.03784,0.01455 -0.03784,0.03784 l 0.0029,1.202003 z m 2.356114,1.644387 v -0.267759 c 0,-0.02328 -0.01455,-0.03784 -0.03783,-0.03784 h -0.282311 c -0.01164,0 -0.01746,0.0058 -0.01746,0.01746 v 0.01746 c -0.0029,0.04948 -0.0029,0.13679 -0.01746,0.221192 -0.01455,0.08731 -0.04366,0.145521 -0.08149,0.165894 -0.0029,0 -0.0029,0 -0.0058,0 -0.02619,0.01455 -0.06403,0.01746 -0.110596,0.01746 -0.154253,0 -0.20664,-0.06694 -0.20664,-0.20955 v -1.047751 c 0,-0.145521 0.05239,-0.20955 0.20664,-0.20955 0.04657,0 0.0844,0.0029 0.110596,0.01746 0.0029,0 0.0029,0 0.0058,0 0.03784,0.02037 0.06403,0.0844 0.07858,0.171715 0.01455,0.0844 0.01455,0.174625 0.01455,0.221192 v 0.01746 c 0,0.01164 0.0058,0.01746 0.01746,0.01746 l 0.288132,-0.0058 c 0.02328,0 0.03783,-0.01455 0.03783,-0.03784 v -0.270669 c 0,-0.229924 -0.1397,-0.465668 -0.436563,-0.465668 h -0.229923 c -0.293952,0 -0.439473,0.235744 -0.439473,0.465668 v 1.202003 c 0,0.232834 0.145521,0.468578 0.439473,0.468578 h 0.229923 c 0.296863,0 0.436563,-0.235744 0.436563,-0.468578 z m 1.557338,0.468578 c 0.02328,0 0.03784,-0.01455 0.03784,-0.03784 v -2.060577 c 0,-0.02328 -0.01455,-0.03784 -0.03784,-0.03784 h -0.256117 c -0.0087,0 -0.02037,0.0029 -0.02619,0.01164 l -0.148431,0.142611 c -0.0058,0.0058 -0.01164,0.01746 -0.01164,0.0291 v 0.128058 c 0,0.02328 0.01455,0.03784 0.03784,0.03784 h 0.09895 v 1.749162 c 0,0.02328 0.01455,0.03784 0.03783,0.03784 z"
     id="text105"
     aria-label="func 1" /><g
     id="g108"
     transform="translate(-2.1455373e-8,-17.999999)"><path
       d="M 16.449388,59.824051 H 3.9277396 c -0.194247,0 -0.370195,-0.0785 -0.497581,-0.20585 -0.127387,-0.12739 -0.206211,-0.30334 -0.206211,-0.49794"
       fill-opacity="0"
       stroke="#969f96"
       stroke-width="0.351895"
       id="path106"
       sodipodi:nodetypes="cscc" /><path
       d="M 9.6067761,59.824051 H 26.890928 c 0.194247,0 0.370195,-0.0785 0.497581,-0.20585 0.127387,-0.12739 0.206211,-0.30334 0.206211,-0.49794"
       fill-opacity="0"
       stroke="#969f96"
       stroke-width="0.351895"
       id="path108"
       sodipodi:nodetypes="cscc" /></g><path
     style="font-size:2.91042px;line-height:1.8;font-family:'Autogate Sans';-inkscape-font-specification:'Autogate Sans';text-align:center;letter-spacing:0.264583px;text-anchor:middle;fill:#4c4c4c;stroke-width:0.264583"
     d="M 7.3381894,38.36374 H 6.6891657 c -0.023283,0 -0.037835,0.01455 -0.037835,0.03784 l 0.00291,2.060577 c 0,0.02328 0.014552,0.03784 0.037835,0.03784 h 0.2677587 c 0.023283,0 0.037835,-0.01455 0.037835,-0.03784 v -0.704322 h 0.1222377 l 0.2590273,0.715964 c 0.00582,0.01746 0.020373,0.02619 0.034925,0.02619 h 0.2561169 c 0.032015,0 0.046567,-0.02037 0.034925,-0.04948 L 7.4633374,39.734548 c 0.1746252,-0.05821 0.235744,-0.218281 0.235744,-0.369623 v -0.649024 c 0,-0.183356 -0.145521,-0.352161 -0.360892,-0.352161 z m -0.06694,0.334699 c 0.043656,0 0.084402,0.03784 0.084402,0.08731 v 0.547159 c 0,0.04948 -0.037835,0.09022 -0.084402,0.09022 H 6.9976702 v -0.724694 z m 1.3763657,1.80155 h 0.2299232 c 0.2968628,0 0.436563,-0.235744 0.436563,-0.468578 v -1.202003 c 0,-0.229924 -0.1397002,-0.465668 -0.436563,-0.465668 H 8.6476154 c -0.2939524,0 -0.4394734,0.235744 -0.4394734,0.465668 v 1.202003 c 0,0.232834 0.145521,0.468578 0.4394734,0.468578 z m -0.093133,-1.592 c 0,-0.145521 0.052388,-0.20955 0.2066398,-0.20955 0.1833564,0 0.2095502,0.03493 0.2095502,0.20955 v 1.047751 c 0,0.174625 -0.026194,0.20955 -0.2095502,0.20955 -0.1542523,0 -0.2066398,-0.06694 -0.2066398,-0.20955 z m 2.569634,1.592 c 0.01746,0 0.03201,-0.01164 0.03492,-0.02911 l 0.454026,-2.063487 c 0.0058,-0.02911 -0.0087,-0.04657 -0.03784,-0.04657 h -0.270669 c -0.01746,0 -0.03201,0.01164 -0.03493,0.0291 l -0.256117,1.161258 -0.162983,-0.945887 c -0.0029,-0.02037 -0.01746,-0.03201 -0.03784,-0.03201 h -0.261938 c -0.02037,0 -0.03492,0.01164 -0.03783,0.03201 l -0.162984,0.937155 c -0.08731,-0.384175 -0.168804,-0.771261 -0.247385,-1.155436 l -0.0029,-0.01455 c -0.0029,-0.0058 -0.0087,-0.01164 -0.01746,-0.01164 H 9.785323 c -0.029104,0 -0.043656,0.01746 -0.037835,0.04657 l 0.4511155,2.063487 c 0.0029,0.01746 0.01746,0.02911 0.03492,0.02911 h 0.267758 c 0.02037,0 0.03492,-0.01164 0.03784,-0.03202 l 0.1397,-0.823649 0.145521,0.823649 c 0.0029,0.02037 0.01746,0.03202 0.03783,0.03202 z"
     id="text109"
     aria-label="row" /><path
     style="font-size:2.91042px;line-height:1.8;font-family:'Autogate Sans';-inkscape-font-specification:'Autogate Sans';text-align:center;letter-spacing:0.264583px;text-anchor:middle;fill:#4c4c4c;stroke-width:0.264583"
     d="m 20.702684,40.031411 v -0.267759 c 0,-0.02328 -0.01455,-0.03784 -0.03784,-0.03784 h -0.28231 c -0.01164,0 -0.01746,0.0058 -0.01746,0.01746 v 0.01746 c -0.0029,0.04948 -0.0029,0.13679 -0.01746,0.221192 -0.01455,0.08731 -0.04366,0.145521 -0.08149,0.165894 -0.0029,0 -0.0029,0 -0.0058,0 -0.02619,0.01455 -0.06403,0.01746 -0.110596,0.01746 -0.154252,0 -0.20664,-0.06694 -0.20664,-0.20955 v -1.047751 c 0,-0.145521 0.05239,-0.20955 0.20664,-0.20955 0.04657,0 0.0844,0.0029 0.110596,0.01746 0.0029,0 0.0029,0 0.0058,0 0.03784,0.02037 0.06403,0.0844 0.07858,0.171715 0.01455,0.0844 0.01455,0.174625 0.01455,0.221192 v 0.01746 c 0,0.01164 0.0058,0.01746 0.01746,0.01746 l 0.288131,-0.0058 c 0.02328,0 0.03784,-0.01455 0.03784,-0.03784 v -0.270669 c 0,-0.229924 -0.1397,-0.465668 -0.436563,-0.465668 h -0.229923 c -0.293953,0 -0.439474,0.235744 -0.439474,0.465668 v 1.202003 c 0,0.232834 0.145521,0.468578 0.439474,0.468578 h 0.229923 c 0.296863,0 0.436563,-0.235744 0.436563,-0.468578 z m 0.922338,0.468578 h 0.229923 c 0.296863,0 0.436563,-0.235744 0.436563,-0.468578 v -1.202003 c 0,-0.229924 -0.1397,-0.465668 -0.436563,-0.465668 h -0.229923 c -0.293953,0 -0.439474,0.235744 -0.439474,0.465668 v 1.202003 c 0,0.232834 0.145521,0.468578 0.439474,0.468578 z m -0.09313,-1.592 c 0,-0.145521 0.05239,-0.20955 0.20664,-0.20955 0.183356,0 0.20955,0.03493 0.20955,0.20955 v 1.047751 c 0,0.174625 -0.02619,0.20955 -0.20955,0.20955 -0.154252,0 -0.20664,-0.06694 -0.20664,-0.20955 z m 1.56845,1.257301 -0.0029,-1.763714 c 0,-0.02328 -0.01455,-0.03784 -0.03784,-0.03784 h -0.264849 c -0.02328,0 -0.03784,0.01455 -0.03784,0.03784 l -0.0058,2.060577 c 0,0.02328 0.01455,0.03784 0.03784,0.03784 h 0.910961 c 0.02328,0 0.03784,-0.01455 0.03784,-0.03784 v -0.259027 c 0,-0.02328 -0.01455,-0.03784 -0.03784,-0.03784 z"
     id="text111"
     aria-label="COL&#10;" /><g
     id="g113"
     transform="translate(1.5933923e-7,-15.879738)"><path
       d="M 10.079726,42.175947 H 3.9277396 c -0.194246,0 -0.370194,0.0785 -0.497581,0.20585 -0.127387,0.12739 -0.206211,0.30334 -0.206211,0.49794"
       fill-opacity="0"
       stroke="#969f96"
       stroke-width="0.351895"
       id="path112"
       sodipodi:nodetypes="cscc" /><path
       d="m 20.738941,42.175947 h 6.151987 c 0.194246,0 0.370194,0.0785 0.497581,0.20585 0.127387,0.12739 0.206211,0.30334 0.206211,0.49794"
       fill-opacity="0"
       stroke="#969f96"
       stroke-width="0.351895"
       id="path113"
       sodipodi:nodetypes="cscc" /></g><path
     style="font-size:2.91042px;line-height:0;font-family:'Autogate Sans';-inkscape-font-specification:'Autogate Sans';text-align:center;letter-spacing:0.15875px;text-anchor:middle;fill:#4c4c4c;stroke-width:0.264583"
     d="m 36.904362,27.628239 c 0.02328,0 0.03784,-0.01455 0.03784,-0.03784 v -0.864395 h 0.430743 c 0.02328,0 0.03784,-0.01455 0.03784,-0.03784 v -0.256117 c 0,-0.02328 -0.01455,-0.03783 -0.03784,-0.03783 h -0.430743 v -0.570443 l 0.599547,0.0058 c 0.02328,0 0.03784,-0.01455 0.03784,-0.03784 v -0.261938 c 0,-0.02328 -0.01455,-0.03784 -0.03784,-0.03784 h -0.910961 c -0.02328,0 -0.03784,0.01455 -0.03784,0.03784 l 0.0029,2.060577 c 0,0.02328 0.01455,0.03784 0.03784,0.03784 z m 2.126196,-0.468578 0.0029,-1.629835 c 0,-0.02328 -0.01455,-0.03784 -0.03784,-0.03784 h -0.270669 c -0.02328,0 -0.03784,0.01455 -0.03784,0.03784 v 1.554164 c 0,0.174625 -0.02619,0.20955 -0.20955,0.20955 -0.154252,0 -0.20664,-0.06694 -0.20664,-0.20955 l 0.0029,-1.554164 c 0,-0.02328 -0.01455,-0.03784 -0.03784,-0.03784 h -0.270669 c -0.02328,0 -0.03784,0.01455 -0.03784,0.03784 l -0.0029,1.629835 c 0,0.229923 0.142611,0.468578 0.436563,0.468578 h 0.232834 c 0.293952,0 0.436563,-0.238655 0.436563,-0.468578 z m 0.737925,-1.644387 c -0.0058,-0.01455 -0.01746,-0.02328 -0.03493,-0.02328 h -0.264849 c -0.02328,0 -0.03783,0.01455 -0.03783,0.03784 l 0.0029,2.060577 c 0,0.02328 0.01455,0.03784 0.03784,0.03784 h 0.27649 c 0.02328,0 0.03784,-0.01455 0.03784,-0.03784 l -0.0058,-1.202003 0.512234,1.216555 c 0.0058,0.01455 0.01746,0.02328 0.03493,0.02328 h 0.259028 c 0.02328,0 0.03784,-0.01455 0.03784,-0.03784 v -2.060577 c 0,-0.02328 -0.01455,-0.03784 -0.03784,-0.03784 h -0.270669 c -0.02328,0 -0.03784,0.01455 -0.03784,0.03784 l 0.0029,1.202003 z m 2.356114,1.644387 v -0.267759 c 0,-0.02328 -0.01455,-0.03784 -0.03784,-0.03784 h -0.282311 c -0.01164,0 -0.01746,0.0058 -0.01746,0.01746 v 0.01746 c -0.0029,0.04948 -0.0029,0.13679 -0.01746,0.221192 -0.01455,0.08731 -0.04366,0.145521 -0.08149,0.165894 -0.0029,0 -0.0029,0 -0.0058,0 -0.02619,0.01455 -0.06403,0.01746 -0.110595,0.01746 -0.154253,0 -0.20664,-0.06694 -0.20664,-0.20955 v -1.047751 c 0,-0.145521 0.05239,-0.20955 0.20664,-0.20955 0.04657,0 0.0844,0.0029 0.110595,0.01746 0.0029,0 0.0029,0 0.0058,0 0.03784,0.02037 0.06403,0.0844 0.07858,0.171715 0.01455,0.0844 0.01455,0.174625 0.01455,0.221192 v 0.01746 c 0,0.01164 0.0058,0.01746 0.01746,0.01746 l 0.288132,-0.0058 c 0.02328,0 0.03784,-0.01455 0.03784,-0.03784 v -0.270669 c 0,-0.229924 -0.1397,-0.465668 -0.436563,-0.465668 h -0.229923 c -0.293952,0 -0.439473,0.235744 -0.439473,0.465668 v 1.202003 c 0,0.232834 0.145521,0.468578 0.439473,0.468578 h 0.229923 c 0.296863,0 0.436563,-0.235744 0.436563,-0.468578 z m 1.836738,-1.31842 c 0.02911,0.01164 0.04948,0.02619 0.04948,0.07567 0,0.06112 0.0029,0.125148 0,0.192087 0,0.02037 -0.02037,0.05821 -0.03784,0.07858 -0.194998,0.215371 -0.401638,0.422011 -0.599546,0.634471 -0.05821,0.06403 -0.125148,0.180446 -0.125148,0.27358 v 0.494771 c 0,0.02328 0.01455,0.03784 0.03784,0.03784 h 1.030289 c 0.02328,0 0.03784,-0.01455 0.03784,-0.03784 v -0.259027 c 0,-0.02328 -0.01455,-0.03784 -0.03784,-0.03784 h -0.724695 c 0,-0.05821 -0.0029,-0.113506 0.0058,-0.168804 0.0058,-0.03783 0.01164,-0.06985 0.03202,-0.09022 l 0.602456,-0.631561 c 0.06112,-0.06985 0.122238,-0.180446 0.122238,-0.27358 v -0.21246 c 0,-0.221192 -0.177536,-0.427832 -0.436563,-0.427832 h -0.192088 c -0.28231,0 -0.477308,0.227013 -0.477308,0.468578 v 0.189177 c 0,0.02328 0.01455,0.03784 0.03784,0.03784 h 0.291042 c 0.01164,0 0.01746,-0.0058 0.02037,-0.01746 v -0.01455 c 0.0029,-0.04366 0.0029,-0.113507 0.01746,-0.180446 0.01455,-0.06985 0.04075,-0.113507 0.07567,-0.130969 l 0.04657,-0.01164 0.06403,-0.0029 h 0.02328 c 0.05239,0 0.09895,0 0.136789,0.01455 z"
     id="text113"
     aria-label="func 2" /><g
     id="g115"
     transform="translate(25.061336,-17.999999)"><path
       d="M 16.449388,59.824051 H 3.9277396 c -0.194247,0 -0.370195,-0.0785 -0.497581,-0.20585 -0.127387,-0.12739 -0.206211,-0.30334 -0.206211,-0.49794"
       fill-opacity="0"
       stroke="#969f96"
       stroke-width="0.351895"
       id="path114"
       sodipodi:nodetypes="cscc" /><path
       d="M 9.6067761,59.824051 H 26.890928 c 0.194247,0 0.370195,-0.0785 0.497581,-0.20585 0.127387,-0.12739 0.206211,-0.30334 0.206211,-0.49794"
       fill-opacity="0"
       stroke="#969f96"
       stroke-width="0.351895"
       id="path115"
       sodipodi:nodetypes="cscc" /></g><path
     style="font-size:2.91042px;line-height:1.8;font-family:'Autogate Sans';-inkscape-font-specification:'Autogate Sans';text-align:center;letter-spacing:0.264583px;text-anchor:middle;fill:#4c4c4c;stroke-width:0.264583"
     d="m 32.399529,38.36374 h -0.649024 c -0.02328,0 -0.03784,0.01455 -0.03784,0.03784 l 0.0029,2.060577 c 0,0.02328 0.01455,0.03784 0.03784,0.03784 h 0.267758 c 0.02328,0 0.03784,-0.01455 0.03784,-0.03784 v -0.704322 h 0.122237 l 0.259028,0.715964 c 0.0058,0.01746 0.02037,0.02619 0.03493,0.02619 h 0.256117 c 0.03201,0 0.04657,-0.02037 0.03493,-0.04948 l -0.241565,-0.715963 c 0.174625,-0.05821 0.235744,-0.218281 0.235744,-0.369623 v -0.649024 c 0,-0.183356 -0.145521,-0.352161 -0.360892,-0.352161 z m -0.06694,0.334699 c 0.04366,0 0.0844,0.03784 0.0844,0.08731 v 0.547159 c 0,0.04948 -0.03784,0.09022 -0.0844,0.09022 H 32.05901 v -0.724694 z m 1.376366,1.80155 h 0.229923 c 0.296863,0 0.436563,-0.235744 0.436563,-0.468578 v -1.202003 c 0,-0.229924 -0.1397,-0.465668 -0.436563,-0.465668 h -0.229923 c -0.293953,0 -0.439474,0.235744 -0.439474,0.465668 v 1.202003 c 0,0.232834 0.145521,0.468578 0.439474,0.468578 z m -0.09313,-1.592 c 0,-0.145521 0.05239,-0.20955 0.20664,-0.20955 0.183357,0 0.20955,0.03493 0.20955,0.20955 v 1.047751 c 0,0.174625 -0.02619,0.20955 -0.20955,0.20955 -0.154252,0 -0.20664,-0.06694 -0.20664,-0.20955 z m 2.569635,1.592 c 0.01746,0 0.03201,-0.01164 0.03493,-0.02911 l 0.454025,-2.063487 c 0.0058,-0.02911 -0.0087,-0.04657 -0.03783,-0.04657 h -0.270669 c -0.01746,0 -0.03202,0.01164 -0.03493,0.0291 l -0.256117,1.161258 -0.162984,-0.945887 c -0.0029,-0.02037 -0.01746,-0.03201 -0.03784,-0.03201 h -0.261938 c -0.02037,0 -0.03492,0.01164 -0.03784,0.03201 l -0.162983,0.937155 c -0.08731,-0.384175 -0.168805,-0.771261 -0.247386,-1.155436 l -0.0029,-0.01455 c -0.0029,-0.0058 -0.0087,-0.01164 -0.01746,-0.01164 h -0.296863 c -0.0291,0 -0.04366,0.01746 -0.03784,0.04657 l 0.451115,2.063487 c 0.0029,0.01746 0.01746,0.02911 0.03493,0.02911 h 0.267759 c 0.02037,0 0.03493,-0.01164 0.03784,-0.03202 l 0.1397,-0.823649 0.145521,0.823649 c 0.0029,0.02037 0.01746,0.03202 0.03784,0.03202 z"
     id="text115"
     aria-label="row" /><path
     style="font-size:2.91042px;line-height:1.8;font-family:'Autogate Sans';-inkscape-font-specification:'Autogate Sans';text-align:center;letter-spacing:0.264583px;text-anchor:middle;fill:#4c4c4c;stroke-width:0.264583"
     d="m 45.764034,40.031411 v -0.267759 c 0,-0.02328 -0.01455,-0.03784 -0.03784,-0.03784 h -0.28231 c -0.01164,0 -0.01746,0.0058 -0.01746,0.01746 v 0.01746 c -0.0029,0.04948 -0.0029,0.13679 -0.01746,0.221192 -0.01455,0.08731 -0.04366,0.145521 -0.08149,0.165894 -0.0029,0 -0.0029,0 -0.0058,0 -0.02619,0.01455 -0.06403,0.01746 -0.110596,0.01746 -0.154252,0 -0.20664,-0.06694 -0.20664,-0.20955 v -1.047751 c 0,-0.145521 0.05239,-0.20955 0.20664,-0.20955 0.04657,0 0.0844,0.0029 0.110596,0.01746 0.0029,0 0.0029,0 0.0058,0 0.03783,0.02037 0.06403,0.0844 0.07858,0.171715 0.01455,0.0844 0.01455,0.174625 0.01455,0.221192 v 0.01746 c 0,0.01164 0.0058,0.01746 0.01746,0.01746 l 0.288131,-0.0058 c 0.02328,0 0.03784,-0.01455 0.03784,-0.03784 v -0.270669 c 0,-0.229924 -0.1397,-0.465668 -0.436563,-0.465668 h -0.229923 c -0.293953,0 -0.439474,0.235744 -0.439474,0.465668 v 1.202003 c 0,0.232834 0.145521,0.468578 0.439474,0.468578 h 0.229923 c 0.296863,0 0.436563,-0.235744 0.436563,-0.468578 z m 0.922337,0.468578 h 0.229924 c 0.296862,0 0.436563,-0.235744 0.436563,-0.468578 v -1.202003 c 0,-0.229924 -0.139701,-0.465668 -0.436563,-0.465668 h -0.229924 c -0.293952,0 -0.439473,0.235744 -0.439473,0.465668 v 1.202003 c 0,0.232834 0.145521,0.468578 0.439473,0.468578 z m -0.09313,-1.592 c 0,-0.145521 0.05239,-0.20955 0.20664,-0.20955 0.183356,0 0.20955,0.03493 0.20955,0.20955 v 1.047751 c 0,0.174625 -0.02619,0.20955 -0.20955,0.20955 -0.154252,0 -0.20664,-0.06694 -0.20664,-0.20955 z m 1.56845,1.257301 -0.0029,-1.763714 c 0,-0.02328 -0.01455,-0.03784 -0.03784,-0.03784 h -0.264848 c -0.02328,0 -0.03784,0.01455 -0.03784,0.03784 l -0.0058,2.060577 c 0,0.02328 0.01455,0.03784 0.03784,0.03784 h 0.910962 c 0.02328,0 0.03784,-0.01455 0.03784,-0.03784 v -0.259027 c 0,-0.02328 -0.01455,-0.03784 -0.03784,-0.03784 z"
     id="text117"
     aria-label="COL&#10;" /><g
     id="g118"
     transform="translate(25.061336,-15.879737)"><path
       d="M 10.079726,42.175947 H 3.9277396 c -0.194246,0 -0.370194,0.0785 -0.497581,0.20585 -0.127387,0.12739 -0.206211,0.30334 -0.206211,0.49794"
       fill-opacity="0"
       stroke="#969f96"
       stroke-width="0.351895"
       id="path117"
       sodipodi:nodetypes="cscc" /><path
       d="m 20.738941,42.175947 h 6.151987 c 0.194246,0 0.370194,0.0785 0.497581,0.20585 0.127387,0.12739 0.206211,0.30334 0.206211,0.49794"
       fill-opacity="0"
       stroke="#969f96"
       stroke-width="0.351895"
       id="path118"
       sodipodi:nodetypes="cscc" /></g><g
     id="g7"
     transform="translate(-0.4951818,1.9655912)"><path
       d="m 35.054962,14.987152 c 0,-0.01976 -0.01235,-0.0321 -0.0321,-0.0321 h -0.943326 c -0.01976,0 -0.0321,0.01235 -0.0321,0.0321 v 0.22225 c 0,0.01975 0.01235,0.0321 0.0321,0.0321 l 0.325966,-0.0049 v 1.49895 c 0,0.01976 0.01235,0.0321 0.0321,0.0321 h 0.229658 c 0.01976,0 0.0321,-0.01235 0.0321,-0.0321 v -1.49895 h 0.323497 c 0.01975,0 0.0321,-0.01235 0.0321,-0.0321 z m 0.879827,-0.0321 h -0.550685 c -0.01976,0 -0.0321,0.01235 -0.0321,0.0321 l 0.0025,1.748363 c 0,0.01976 0.01235,0.0321 0.0321,0.0321 h 0.227189 c 0.01975,0 0.0321,-0.01235 0.0321,-0.0321 v -0.597604 h 0.103716 l 0.21978,0.607482 c 0.0049,0.01482 0.01729,0.02222 0.02963,0.02222 h 0.21731 c 0.02716,0 0.03951,-0.01729 0.02963,-0.04198 L 36.040975,16.118155 C 36.189141,16.068767 36.241,15.932947 36.241,15.804537 v -0.550686 c 0,-0.155574 -0.123472,-0.298802 -0.306211,-0.298802 z m -0.0568,0.283986 c 0.03704,0 0.07161,0.0321 0.07161,0.07408 v 0.464255 c 0,0.04198 -0.0321,0.07655 -0.07161,0.07655 h -0.232127 v -0.61489 z m 1.037871,-0.251883 c 0,-0.01976 -0.01235,-0.0321 -0.0321,-0.0321 h -0.234597 c -0.01976,0 -0.0321,0.01235 -0.0321,0.0321 v 1.748363 c 0,0.01976 0.01235,0.0321 0.0321,0.0321 h 0.234597 c 0.01975,0 0.0321,-0.01235 0.0321,-0.0321 z m 1.314448,0.805037 c 0,-0.01975 -0.01235,-0.0321 -0.0321,-0.0321 h -0.459316 c -0.01975,0 -0.0321,0.01235 -0.0321,0.0321 v 0.22225 c 0,0.01976 0.01235,0.0321 0.0321,0.0321 l 0.200025,-0.0025 v 0.261761 c 0,0.148166 -0.02222,0.1778 -0.1778,0.1778 -0.13088,0 -0.17533,-0.0568 -0.17533,-0.1778 v -0.888998 c 0,-0.123472 0.04445,-0.1778 0.17533,-0.1778 0.04445,0 0.07902,0.0025 0.103717,0.01975 0.0321,0.01976 0.05186,0.07408 0.06174,0.145697 0.01235,0.06668 0.01235,0.138289 0.01235,0.1778 v 0.01482 c 0,0.0099 0.0049,0.01482 0.01482,0.01482 h 0.244474 c 0.01976,0 0.0321,-0.01235 0.0321,-0.0321 V 15.35016 c 0,-0.195086 -0.118533,-0.395111 -0.370416,-0.395111 h -0.195086 c -0.249413,0 -0.372885,0.200025 -0.372885,0.395111 v 1.010001 c 0,0.192616 0.123472,0.407457 0.372885,0.407457 h 0.195086 c 0.251883,0 0.370416,-0.200024 0.370416,-0.39758 z"
       id="text3"
       style="font-size:2.46944px;line-height:0;font-family:'Autogate Sans';-inkscape-font-specification:'Autogate Sans';letter-spacing:0.15875px;fill:#4c4c4c;stroke-width:0.264583"
       aria-label="TRIG" /><path
       d="m 34.985818,13.146357 c 0,-0.01975 -0.01235,-0.0321 -0.0321,-0.0321 h -0.459316 c -0.01976,0 -0.0321,0.01235 -0.0321,0.0321 v 0.22225 c 0,0.01975 0.01235,0.0321 0.0321,0.0321 l 0.200025,-0.0025 v 0.261761 c 0,0.148166 -0.02222,0.1778 -0.1778,0.1778 -0.13088,0 -0.17533,-0.0568 -0.17533,-0.1778 v -0.888999 c 0,-0.123472 0.04445,-0.177799 0.17533,-0.177799 0.04445,0 0.07902,0.0025 0.103717,0.01975 0.0321,0.01976 0.05186,0.07408 0.06174,0.145697 0.01235,0.06668 0.01235,0.138289 0.01235,0.1778 v 0.01482 c 0,0.0099 0.0049,0.01482 0.01482,0.01482 h 0.244474 c 0.01976,0 0.0321,-0.01235 0.0321,-0.0321 v -0.229657 c 0,-0.195086 -0.118533,-0.395111 -0.370416,-0.395111 h -0.195086 c -0.249413,0 -0.372885,0.200025 -0.372885,0.395111 v 1.010001 c 0,0.192616 0.123472,0.407457 0.372885,0.407457 h 0.195086 c 0.251883,0 0.370416,-0.200025 0.370416,-0.39758 z m 0.825497,-0.108655 0.08396,0.404988 h -0.17286 z m 0.493888,1.081615 c 0.0247,0 0.03704,-0.01482 0.0321,-0.03951 l -0.382763,-1.748364 c -0.0025,-0.01482 -0.01482,-0.02469 -0.02963,-0.02469 h -0.224719 c -0.01482,0 -0.02716,0.0099 -0.02963,0.02469 l -0.385232,1.748364 c -0.0049,0.02469 0.0074,0.03951 0.0321,0.03951 h 0.237067 c 0.01729,0 0.02963,-0.0099 0.0321,-0.0247 l 0.07408,-0.367946 h 0.301271 l 0.07408,0.367946 c 0.0025,0.01482 0.01482,0.0247 0.0321,0.0247 z m 1.163811,-1.777997 c 0,-0.01976 -0.01235,-0.0321 -0.0321,-0.0321 h -0.943326 c -0.01976,0 -0.0321,0.01235 -0.0321,0.0321 v 0.222249 c 0,0.01976 0.01235,0.0321 0.0321,0.0321 l 0.325966,-0.0049 v 1.49895 c 0,0.01976 0.01235,0.0321 0.0321,0.0321 h 0.229658 c 0.01976,0 0.0321,-0.01235 0.0321,-0.0321 v -1.49895 h 0.323497 c 0.01976,0 0.0321,-0.01235 0.0321,-0.0321 z m 1.141586,0 c 0,-0.01976 -0.01235,-0.0321 -0.0321,-0.0321 h -0.770465 c -0.01976,0 -0.0321,0.01235 -0.0321,0.0321 l 0.0025,1.748363 c 0,0.01976 0.01235,0.0321 0.0321,0.0321 h 0.767996 c 0.01976,0 0.0321,-0.01235 0.0321,-0.0321 v -0.21731 c 0,-0.01976 -0.01235,-0.0321 -0.0321,-0.0321 l -0.508704,-0.0025 V 13.35626 h 0.365477 c 0.01975,0 0.0321,-0.01235 0.0321,-0.0321 v -0.217311 c 0,-0.01976 -0.01235,-0.0321 -0.0321,-0.0321 h -0.365477 v -0.484011 h 0.508704 c 0.01976,0 0.0321,-0.01235 0.0321,-0.0321 z"
       id="text6"
       style="font-size:2.46944px;line-height:0;font-family:'Autogate Sans';-inkscape-font-specification:'Autogate Sans';letter-spacing:0.15875px;fill:#4c4c4c;stroke-width:0.264583"
       aria-label="GATE" /><path
       d="m 35.054962,17.632988 c 0,-0.01976 -0.01235,-0.0321 -0.0321,-0.0321 h -0.943326 c -0.01976,0 -0.0321,0.01235 -0.0321,0.0321 v 0.222249 c 0,0.01976 0.01235,0.0321 0.0321,0.0321 l 0.325966,-0.0049 v 1.49895 c 0,0.01976 0.01235,0.0321 0.0321,0.0321 h 0.229658 c 0.01976,0 0.0321,-0.01235 0.0321,-0.0321 v -1.49895 h 0.323497 c 0.01975,0 0.0321,-0.01235 0.0321,-0.0321 z m 0.672394,1.780466 h 0.195086 c 0.251883,0 0.370416,-0.200025 0.370416,-0.39758 v -1.019878 c 0,-0.195086 -0.118533,-0.395111 -0.370416,-0.395111 h -0.195086 c -0.249413,0 -0.372885,0.200025 -0.372885,0.395111 v 1.019878 c 0,0.197555 0.123472,0.39758 0.372885,0.39758 z m -0.07902,-1.350784 c 0,-0.123472 0.04445,-0.177799 0.17533,-0.177799 0.155575,0 0.1778,0.02963 0.1778,0.177799 v 0.888999 c 0,0.148166 -0.02222,0.177799 -0.1778,0.177799 -0.13088,0 -0.17533,-0.0568 -0.17533,-0.177799 z m 1.926869,0.375355 c 0,-0.01975 -0.01235,-0.0321 -0.0321,-0.0321 h -0.459316 c -0.01976,0 -0.0321,0.01235 -0.0321,0.0321 v 0.22225 c 0,0.01975 0.01235,0.0321 0.0321,0.0321 l 0.200025,-0.0025 v 0.261761 c 0,0.148166 -0.02222,0.177799 -0.1778,0.177799 -0.13088,0 -0.17533,-0.0568 -0.17533,-0.177799 V 18.06267 c 0,-0.123472 0.04445,-0.177799 0.17533,-0.177799 0.04445,0 0.07902,0.0025 0.103717,0.01975 0.0321,0.01976 0.05186,0.07408 0.06174,0.145697 0.01235,0.06668 0.01235,0.138289 0.01235,0.1778 v 0.01482 c 0,0.0099 0.0049,0.01482 0.01482,0.01482 H 37.5431 c 0.01976,0 0.0321,-0.01235 0.0321,-0.0321 v -0.229657 c 0,-0.195086 -0.118533,-0.395111 -0.370416,-0.395111 h -0.195086 c -0.249413,0 -0.372885,0.200025 -0.372885,0.395111 v 1.01 c 0,0.192617 0.123472,0.407458 0.372885,0.407458 h 0.195086 c 0.251883,0 0.370416,-0.200025 0.370416,-0.39758 z m 1.282345,0 c 0,-0.01975 -0.01235,-0.0321 -0.0321,-0.0321 h -0.459316 c -0.01976,0 -0.0321,0.01235 -0.0321,0.0321 v 0.22225 c 0,0.01975 0.01235,0.0321 0.0321,0.0321 l 0.200025,-0.0025 v 0.261761 c 0,0.148166 -0.02222,0.177799 -0.1778,0.177799 -0.13088,0 -0.17533,-0.0568 -0.17533,-0.177799 V 18.06267 c 0,-0.123472 0.04445,-0.177799 0.17533,-0.177799 0.04445,0 0.07902,0.0025 0.103717,0.01975 0.0321,0.01976 0.05186,0.07408 0.06174,0.145697 0.01235,0.06668 0.01235,0.138289 0.01235,0.1778 v 0.01482 c 0,0.0099 0.0049,0.01482 0.01482,0.01482 h 0.244474 c 0.01976,0 0.0321,-0.01235 0.0321,-0.0321 v -0.229657 c 0,-0.195086 -0.118533,-0.395111 -0.370416,-0.395111 h -0.195086 c -0.249413,0 -0.372885,0.200025 -0.372885,0.395111 v 1.01 c 0,0.192617 0.123472,0.407458 0.372885,0.407458 h 0.195086 c 0.251883,0 0.370416,-0.200025 0.370416,-0.39758 z m 0.595839,0.691443 -0.0025,-1.49648 c 0,-0.01976 -0.01235,-0.0321 -0.0321,-0.0321 h -0.224719 c -0.01976,0 -0.0321,0.01235 -0.0321,0.0321 l -0.0049,1.748363 c 0,0.01976 0.01235,0.0321 0.0321,0.0321 h 0.772935 c 0.01976,0 0.0321,-0.01235 0.0321,-0.0321 v -0.21978 c 0,-0.01975 -0.01235,-0.0321 -0.0321,-0.0321 z m 1.699681,-1.49648 c 0,-0.01976 -0.01235,-0.0321 -0.0321,-0.0321 H 40.3505 c -0.01976,0 -0.0321,0.01235 -0.0321,0.0321 l 0.0025,1.748363 c 0,0.01976 0.01235,0.0321 0.0321,0.0321 h 0.767996 c 0.01976,0 0.0321,-0.01235 0.0321,-0.0321 v -0.21731 c 0,-0.01976 -0.01235,-0.0321 -0.0321,-0.0321 l -0.508705,-0.0025 v -0.48154 h 0.365478 c 0.01975,0 0.0321,-0.01235 0.0321,-0.0321 v -0.217311 c 0,-0.01975 -0.01235,-0.0321 -0.0321,-0.0321 H 40.61226 v -0.484011 h 0.508705 c 0.01976,0 0.0321,-0.01235 0.0321,-0.0321 z"
       id="text7"
       style="font-size:2.46944px;line-height:0;font-family:'Autogate Sans';-inkscape-font-specification:'Autogate Sans';letter-spacing:0.15875px;fill:#4c4c4c;stroke-width:0.264583"
       aria-label="TOGGLE" /></g></g>
  <g
   inkscape:groupmode="layer"
   id="layer2-0"
   inkscape:label="components"
   style="display:none"
   sodipodi:insensitive="true">
    
    
    
    
    
    
    
    
    
    
    
    
    
    
    
    
    
    
    
    
    
    
    
    
    
    
    
    
  <circle
   style="display:inline;fill:#0000ff;fill-opacity:1;stroke-width:0.313059"
   id="out1"
   cx="9.1626043"
   cy="88"
   inkscape:label="out_f1"
   r="4" /><circle
   style="display:inline;fill:#0000ff;fill-opacity:1;stroke-width:0.313;stroke-dasharray:none"
   id="ellipse5"
   cx="21.667219"
   cy="88"
   inkscape:label="out_f2"
   r="4" /><circle
   style="display:inline;fill:#0000ff;fill-opacity:1;stroke-width:0.313059"
   id="ellipse6"
   cx="34.194168"
   cy="88"
   inkscape:label="out_f3"
   r="4" /><circle
   style="display:inline;fill:#0000ff;fill-opacity:1;stroke-width:0.313059"
   id="ellipse7"
   cx="46.765781"
   cy="88"
   inkscape:label="out_f4"
   r="4" /><circle
   style="display:inline;fill:#00ff00;fill-opacity:1;stroke-width:0.313059"
   id="circle1"
   cx="9.1626043"
   cy="69.936966"
   inkscape:label="in_k"
   r="4" /><circle
   style="display:inline;fill:#00ff00;fill-opacity:1;stroke-width:0.313;stroke-dasharray:none"
   id="circle2"
   cx="21.667219"
   cy="69.936966"
   inkscape:label="in_gate"
   r="4" /><circle
   style="display:inline;fill:#ff0000;fill-opacity:1;stroke-width:0.313059"
   id="circle5"
   cx="9.1328268"
   cy="32.390987"
   inkscape:label="p_f1_r"
   r="4" /><circle
   style="display:inline;fill:#ff0000;fill-opacity:1;stroke-width:0.313;stroke-dasharray:none"
   id="circle6"
   cx="21.667219"
   cy="32.390987"
   inkscape:label="p_f1_c"
   r="4" /><circle
   style="display:inline;fill:#ff0000;fill-opacity:1;stroke-width:0.313059"
   id="circle7"
   cx="34.194168"
   cy="32.390987"
   inkscape:label="p_f2_r"
   r="4" /><circle
   style="display:inline;fill:#ff0000;fill-opacity:1;stroke-width:0.313;stroke-dasharray:none"
   id="circle8"
   cx="46.728561"
   cy="32.390987"
   inkscape:label="p_f2_c"
   r="4" /><circle
   style="display:inline;fill:#0000ff;fill-opacity:1;stroke-width:0.313059"
   id="circle39"
   cx="46.765781"
   cy="107.49072"
   inkscape:label="out_lights"
   r="4" /><circle
   style="display:inline;fill:#ff0000;fill-opacity:1;stroke-width:0.313059"
   id="circle45"
   cx="9.1328268"
   cy="53.390991"
   inkscape:label="p_f3_r"
   r="4" /><circle
   style="display:inline;fill:#ff0000;fill-opacity:1;stroke-width:0.313;stroke-dasharray:none"
   id="circle46"
   cx="21.667219"
   cy="53.390991"
   inkscape:label="p_f3_c"
   r="4" /><circle
   style="display:inline;fill:#ff0000;fill-opacity:1;stroke-width:0.313059"
   id="circle47"
   cx="34.194168"
   cy="53.390991"
   inkscape:label="p_f4_r"
   r="4" /><circle
   style="display:inline;fill:#ff0000;fill-opacity:1;stroke-width:0.313;stroke-dasharray:none"
   id="circle48"
   cx="46.728561"
   cy="53.390991"
   inkscape:label="p_f4_c"
   r="4" /><circle
   style="display:inline;fill:#00ff00;fill-opacity:1;stroke-width:0.313059"
   id="circle52"
   cx="9.1626043"
   cy="107.49072"
   inkscape:label="in_enable"
   r="4" /><circle
   style="display:inline;fill:#00ff00;fill-opacity:1;stroke-width:0.313059"
   id="circle3"
   cx="46.765781"
   cy="69.936966"
   inkscape:label="in_kg"
   r="4" /><circle
   style="display:inline;fill:#ff0000;fill-opacity:1;stroke-width:0.313;stroke-dasharray:none"
   id="circle4"
   cx="27.940001"
   cy="17.825693"
   inkscape:label="p_type"
   r="4" /></g>
</svg>
