<?xml version="1.0" encoding="UTF-8" standalone="no"?>
<!-- Created with Inkscape (http://www.inkscape.org/) -->

<svg
   width="210mm"
   height="297mm"
   viewBox="0 0 210 297"
   version="1.1"
   id="svg1"
   inkscape:version="1.3.2 (091e20e, 2023-11-25)"
   sodipodi:docname="METAM_POLY_NUMERALS.svg"
   xmlns:inkscape="http://www.inkscape.org/namespaces/inkscape"
   xmlns:sodipodi="http://sodipodi.sourceforge.net/DTD/sodipodi-0.dtd"
   xmlns="http://www.w3.org/2000/svg"
   xmlns:svg="http://www.w3.org/2000/svg">
  <sodipodi:namedview
     id="namedview1"
     pagecolor="#ffffff"
     bordercolor="#000000"
     borderopacity="0.25"
     inkscape:showpageshadow="2"
     inkscape:pageopacity="0.0"
     inkscape:pagecheckerboard="0"
     inkscape:deskcolor="#d1d1d1"
     inkscape:document-units="mm"
     inkscape:zoom="0.99780624"
     inkscape:cx="396.87064"
     inkscape:cy="293.14309"
     inkscape:window-width="2560"
     inkscape:window-height="1216"
     inkscape:window-x="0"
     inkscape:window-y="0"
     inkscape:window-maximized="0"
     inkscape:current-layer="layer1" />
  <defs
     id="defs1" />
  <g
     inkscape:label="Layer 1"
     inkscape:groupmode="layer"
     id="layer1">
    <path
       id="path22"
       style="font-size:11.8634px;line-height:1.8;font-family:'Halogen by Pixel Surplus';-inkscape-font-specification:'Halogen by Pixel Surplus';text-align:center;letter-spacing:1.0785px;text-anchor:middle;stroke-width:1.0785;fill:#999999"
       d="M 189.01585 7.6749837 L 189.01585 15.754077 L 190.56976 15.754077 L 190.56976 7.6749837 L 189.01585 7.6749837 z M 192.36035 7.6749837 L 192.36035 12.06438 L 192.36035 15.754077 L 193.91426 15.754077 L 197.4851 15.754077 L 197.4851 14.19965 L 197.4851 10.51047 L 193.91426 10.51047 L 193.91426 9.228894 L 197.4851 9.228894 L 197.4851 7.6749837 L 193.91426 7.6749837 L 192.36035 7.6749837 z M 193.91426 12.06438 L 195.93119 12.06438 L 195.93119 14.19965 L 193.91426 14.19965 L 193.91426 12.06438 z " />
    <path
       id="path20"
       style="font-size:11.8634px;line-height:1.8;font-family:'Halogen by Pixel Surplus';-inkscape-font-specification:'Halogen by Pixel Surplus';text-align:center;letter-spacing:1.0785px;text-anchor:middle;stroke-width:1.0785;fill:#999999"
       d="M 174.71182 7.6749837 L 174.71182 15.754077 L 176.26573 15.754077 L 176.26573 7.6749837 L 174.71182 7.6749837 z M 178.05632 7.6749837 L 178.05632 12.06438 L 181.62716 12.06438 L 181.62716 14.19965 L 178.05632 14.19965 L 178.05632 15.754077 L 183.18107 15.754077 L 183.18107 14.19965 L 183.18107 10.51047 L 179.61023 10.51047 L 179.61023 9.228894 L 183.18107 9.228894 L 183.18107 7.6749837 L 178.05632 7.6749837 z " />
    <path
       id="path18"
       style="font-size:11.8634px;line-height:1.8;font-family:'Halogen by Pixel Surplus';-inkscape-font-specification:'Halogen by Pixel Surplus';text-align:center;letter-spacing:1.0785px;text-anchor:middle;stroke-width:1.0785;fill:#999999"
       d="M 160.40778 7.6749837 L 160.40778 15.754077 L 161.96169 15.754077 L 161.96169 7.6749837 L 160.40778 7.6749837 z M 163.75176 7.6749837 L 163.75176 12.491744 L 167.32312 12.491744 L 167.32312 15.754077 L 168.87703 15.754077 L 168.87703 12.491744 L 168.87703 7.6749837 L 167.32312 7.6749837 L 167.32312 10.937317 L 165.30619 10.937317 L 165.30619 7.6749837 L 163.75176 7.6749837 z " />
    <path
       id="path16"
       style="font-size:11.8634px;line-height:1.8;font-family:'Halogen by Pixel Surplus';-inkscape-font-specification:'Halogen by Pixel Surplus';text-align:center;letter-spacing:1.0785px;text-anchor:middle;stroke-width:1.0785;fill:#999999"
       d="M 146.10374 7.6749837 L 146.10374 15.754077 L 147.65765 15.754077 L 147.65765 7.6749837 L 146.10374 7.6749837 z M 149.44773 7.6749837 L 149.44773 9.228894 L 153.01908 9.228894 L 153.01908 10.937317 L 149.44773 10.937317 L 149.44773 12.491744 L 153.01908 12.491744 L 153.01908 14.19965 L 149.44773 14.19965 L 149.44773 15.754077 L 154.57299 15.754077 L 154.57299 14.19965 L 154.57299 10.937317 L 154.57299 7.6749837 L 149.44773 7.6749837 z " />
    <path
       id="path14"
       style="font-size:11.8634px;line-height:1.8;font-family:'Halogen by Pixel Surplus';-inkscape-font-specification:'Halogen by Pixel Surplus';text-align:center;letter-spacing:1.0785px;text-anchor:middle;stroke-width:1.0785;fill:#999999"
       d="M 131.79971 7.6749837 L 131.79971 15.754077 L 133.35362 15.754077 L 133.35362 7.6749837 L 131.79971 7.6749837 z M 135.14369 7.6749837 L 135.14369 9.228894 L 138.71453 9.228894 L 138.71453 10.51047 L 135.14369 10.51047 L 135.14369 14.19965 L 135.14369 15.754077 L 140.26896 15.754077 L 140.26896 14.19965 L 136.69812 14.19965 L 136.69812 12.06438 L 140.26896 12.06438 L 140.26896 7.6749837 L 135.14369 7.6749837 z " />
    <path
       id="path12"
       style="font-size:11.8634px;line-height:1.8;font-family:'Halogen by Pixel Surplus';-inkscape-font-specification:'Halogen by Pixel Surplus';text-align:center;letter-spacing:1.0785px;text-anchor:middle;stroke-width:1.0785;fill:#999999"
       d="M 121.06651 7.6749837 L 121.06651 15.754077 L 122.62042 15.754077 L 122.62042 7.6749837 L 121.06651 7.6749837 z M 124.41049 7.6749837 L 124.41049 15.754077 L 125.96492 15.754077 L 125.96492 7.6749837 L 124.41049 7.6749837 z " />
    <path
       id="path10"
       style="font-size:11.8634px;line-height:1.8;font-family:'Halogen by Pixel Surplus';-inkscape-font-specification:'Halogen by Pixel Surplus';text-align:center;letter-spacing:1.0785px;text-anchor:middle;stroke-width:1.0785;fill:#999999"
       d="M 106.76248 7.6749837 L 106.76248 15.754077 L 108.31639 15.754077 L 108.31639 7.6749837 L 106.76248 7.6749837 z M 110.10646 7.6749837 L 110.10646 9.228894 L 110.10646 15.754077 L 110.20154 15.754077 L 111.75545 15.754077 L 115.23173 15.754077 L 115.23173 7.6749837 L 113.6773 7.6749837 L 110.10646 7.6749837 z M 111.66088 9.228894 L 113.03703 9.228894 L 111.66088 12.408545 L 111.66088 9.228894 z M 113.6773 11.329024 L 113.6773 14.19965 L 112.4319 14.19965 L 113.6773 11.329024 z " />
    <path
       style="font-size:11.8634px;line-height:1.8;font-family:'Halogen by Pixel Surplus';-inkscape-font-specification:'Halogen by Pixel Surplus';text-align:center;letter-spacing:1.0785px;text-anchor:middle;stroke-width:1.0785;fill:#999999"
       d="m 100.9276,7.6749992 h -5.124992 v 1.5541055 3.6895173 h 3.570884 v 1.281247 h -3.570884 v 1.554106 h 3.570884 1.554108 z M 99.373492,11.364517 H 97.356714 V 9.2291047 h 2.016778 z"
       id="path8" />
    <path
       style="font-size:11.8634px;line-height:1.8;font-family:'Halogen by Pixel Surplus';-inkscape-font-specification:'Halogen by Pixel Surplus';text-align:center;letter-spacing:1.0785px;text-anchor:middle;stroke-width:1.0785;fill:#999999"
       d="M 89.967949,10.510352 V 7.6749992 H 86.397065 84.84296 v 8.0789758 h 1.554105 3.570884 v -3.689518 z m -1.554106,0 H 86.397065 V 9.2291047 h 2.016778 z m 0,3.689517 h -2.016778 v -2.135412 h 2.016778 z"
       id="path7" />
    <path
       style="font-size:11.8634px;line-height:1.8;font-family:'Halogen by Pixel Surplus';-inkscape-font-specification:'Halogen by Pixel Surplus';text-align:center;letter-spacing:1.0785px;text-anchor:middle;stroke-width:1.0785;fill:#999999"
       d="m 77.454194,9.2291047 v 6.5248703 h 1.554105 V 7.6749992 h -4.306414 v 1.5541055 z"
       id="path6" />
    <path
       style="font-size:11.8634px;line-height:1.8;font-family:'Halogen by Pixel Surplus';-inkscape-font-specification:'Halogen by Pixel Surplus';text-align:center;letter-spacing:1.0785px;text-anchor:middle;stroke-width:1.0785;fill:#999999"
       d="M 68.867222,9.2291047 V 7.6749992 h -3.570884 -1.554105 v 4.3894578 3.689518 h 1.554105 3.570884 V 14.199869 10.510352 H 65.296338 V 9.2291047 Z m -1.554106,2.8353523 v 2.135412 h -2.016778 v -2.135412 z"
       id="path5" />
    <path
       style="font-size:11.8634px;line-height:1.8;font-family:'Halogen by Pixel Surplus';-inkscape-font-specification:'Halogen by Pixel Surplus';text-align:center;letter-spacing:1.0785px;text-anchor:middle;stroke-width:1.0785;fill:#999999"
       d="M 57.907574,9.2291047 V 7.6749992 h -5.124989 v 4.3894578 h 3.570883 v 2.135412 h -3.570883 v 1.554106 h 5.124989 V 14.199869 10.510352 H 54.33669 V 9.2291047 Z"
       id="path4" />
    <path
       style="font-size:11.8634px;line-height:1.8;font-family:'Halogen by Pixel Surplus';-inkscape-font-specification:'Halogen by Pixel Surplus';text-align:center;letter-spacing:1.0785px;text-anchor:middle;stroke-width:1.0785;fill:#999999"
       d="M 45.393816,7.6749992 V 10.937434 H 43.377038 V 7.6749992 H 41.822933 V 12.49154 h 3.570883 v 3.262435 h 1.554106 V 12.49154 7.6749992 Z"
       id="path3" />
    <path
       style="font-size:11.8634px;line-height:1.8;font-family:'Halogen by Pixel Surplus';-inkscape-font-specification:'Halogen by Pixel Surplus';text-align:center;letter-spacing:1.0785px;text-anchor:middle;stroke-width:1.0785;fill:#999999"
       d="m 30.863283,14.199869 v 1.554106 h 5.124989 V 14.199869 10.937434 7.6749992 h -5.124989 v 1.5541055 h 3.570883 v 1.7083293 h -3.570883 v 1.554106 h 3.570883 v 1.708329 z"
       id="path2" />
    <path
       style="font-size:11.8634px;line-height:1.8;font-family:'Halogen by Pixel Surplus';-inkscape-font-specification:'Halogen by Pixel Surplus';text-align:center;letter-spacing:1.0785px;text-anchor:middle;stroke-width:1.0785;fill:#999999"
       d="M 19.903633,9.2291047 V 7.6749992 h 5.124989 v 4.3894578 h -3.570884 v 2.135412 h 3.570884 v 1.554106 h -5.124989 v -1.554106 -3.689517 h 3.570883 V 9.2291047 Z"
       id="path1" />
    <path
       style="font-size:11.8634px;line-height:1.8;font-family:'Halogen by Pixel Surplus';-inkscape-font-specification:'Halogen by Pixel Surplus';text-align:center;letter-spacing:1.0785px;text-anchor:middle;stroke-width:1.0785;fill:#999999"
       d="M 14.068979,15.753975 H 12.514873 V 7.6749992 h 1.554106 z"
       id="text5" />
  </g>
</svg>
