<?xml version="1.0" encoding="UTF-8" standalone="no"?>
<!-- Created with Inkscape (http://www.inkscape.org/) -->

<svg
   width="91.440002mm"
   height="128.5mm"
   viewBox="0 0 91.440001 128.5"
   version="1.1"
   id="svg1"
   inkscape:version="1.3 (0e150ed, 2023-07-21)"
   sodipodi:docname="template.svg"
   xml:space="preserve"
   xmlns:inkscape="http://www.inkscape.org/namespaces/inkscape"
   xmlns:sodipodi="http://sodipodi.sourceforge.net/DTD/sodipodi-0.dtd"
   xmlns="http://www.w3.org/2000/svg"
   xmlns:svg="http://www.w3.org/2000/svg"><sodipodi:namedview
   id="namedview1"
   pagecolor="#ffffff"
   bordercolor="#000000"
   borderopacity="0.25"
   inkscape:showpageshadow="2"
   inkscape:pageopacity="0.0"
   inkscape:pagecheckerboard="0"
   inkscape:deskcolor="#d1d1d1"
   inkscape:document-units="mm"
   showgrid="true"
   inkscape:zoom="1"
   inkscape:cx="232"
   inkscape:cy="308"
   inkscape:window-width="1664"
   inkscape:window-height="1127"
   inkscape:window-x="1386"
   inkscape:window-y="149"
   inkscape:window-maximized="0"
   inkscape:current-layer="g42"
   showguides="true"><inkscape:grid
     id="grid120"
     units="mm"
     originx="0"
     originy="0"
     spacingx="1.016"
     spacingy="1.5"
     empcolor="#0099e5"
     empopacity="0.30196078"
     color="#0099e5"
     opacity="0.14901961"
     empspacing="5"
     dotted="false"
     gridanglex="30"
     gridanglez="30"
     visible="true" /><sodipodi:guide
     position="84.092141,116.5"
     orientation="0,-1"
     id="guide258"
     inkscape:locked="false" /><sodipodi:guide
     position="9.1440003,-7.9999973"
     orientation="1,0"
     id="guide1"
     inkscape:locked="false" /><sodipodi:guide
     position="21.336001,5.5000027"
     orientation="1,0"
     id="guide2"
     inkscape:locked="false" /></sodipodi:namedview>&#10;  <defs
   id="defs1">&#10;    <linearGradient
   id="Gradient_61"
   gradientUnits="userSpaceOnUse"
   x1="-424.043"
   y1="-4741.6309"
   x2="-405.228"
   y2="-4741.6309"
   gradientTransform="matrix(0.025,1,-1,0.025,-4534.645,592.311)">&#10;      <stop
   offset="0"
   stop-color="#777676"
   id="stop121" />&#10;      <stop
   offset="1"
   stop-color="#575757"
   id="stop122" />&#10;    </linearGradient>&#10;    <linearGradient
   id="Gradient_62"
   gradientUnits="userSpaceOnUse"
   x1="-423.578"
   y1="-4741.6309"
   x2="-405.69299"
   y2="-4741.6309"
   gradientTransform="matrix(0.025,1,-1,0.025,-4534.645,592.311)">&#10;      <stop
   offset="0.006"
   stop-color="#FFFFFF"
   id="stop123" />&#10;      <stop
   offset="1"
   stop-color="#454545"
   id="stop124" />&#10;    </linearGradient>&#10;    <linearGradient
   id="Gradient_63"
   gradientUnits="userSpaceOnUse"
   x1="-7828.9722"
   y1="4203.397"
   x2="-7814.8091"
   y2="4203.397"
   gradientTransform="matrix(-0.025,-1,1,-0.025,-4202.945,-7655.114)">&#10;      <stop
   offset="0.006"
   stop-color="#FFFFFF"
   id="stop125" />&#10;      <stop
   offset="1"
   stop-color="#454545"
   id="stop126" />&#10;    </linearGradient>&#10;    <linearGradient
   id="Gradient_64"
   gradientUnits="userSpaceOnUse"
   x1="-8480.584"
   y1="3795.7019"
   x2="-8480.584"
   y2="3807.8259"
   gradientTransform="matrix(-1,0.025,0.025,1,-8378.065,-3529.085)">&#10;      <stop
   offset="0"
   stop-color="#FFFEFE"
   id="stop127" />&#10;      <stop
   offset="1"
   stop-color="#5E5E5E"
   id="stop128" />&#10;    </linearGradient>&#10;    <linearGradient
   id="Gradient_65"
   gradientUnits="userSpaceOnUse"
   x1="-8480.584"
   y1="3806.3679"
   x2="-8480.584"
   y2="3797.1599"
   gradientTransform="matrix(-1,0.025,0.025,1,-8378.065,-3529.085)">&#10;      <stop
   offset="0"
   stop-color="#FFFEFE"
   id="stop129" />&#10;      <stop
   offset="1"
   stop-color="#383636"
   id="stop130" />&#10;    </linearGradient>&#10;  &#10;        &#10;        &#10;      </defs>&#10;  <g
   inkscape:groupmode="layer"
   id="layer5"
   inkscape:label="WHITE PANEL "
   style="display:inline"
   sodipodi:insensitive="true">&#10;    <path
   id="rect1"
   style="fill:#ffffff;stroke-width:0.261988"
   d="M 0,0.52497211 C 0,43.183314 0,85.841656 0,128.5 c 30.480001,0 60.960002,0 91.440002,0 0,-42.833336 0,-85.666667 0,-128.5 C 60.960002,0 30.480001,0 0,0 0,0.17499071 0,0.3499814 0,0.52497211 Z" />&#10;  </g>&#10;  <g
   inkscape:groupmode="layer"
   id="layer2"
   inkscape:label="LOGO"
   style="display:inline"
   sodipodi:insensitive="true">&#10;    <g
   id="g11"
   transform="matrix(0.02552152,0,0,0.02552152,30.536295,111.70541)"
   style="display:inline"
   inkscape:label="LARGE LOGO">&#10;      <path
   d="M 279.203,340.453 157.217,340.266 H 77.871 v 201.146 h 40.266 v -40.08 l 40.523,0.187 -0.256,40.08 h 40.266 l 0.257,-40.08 40.266,0.014 -0.256,40.066 h 40.266 z"
   fill="#cf0000"
   id="path1" />&#10;      <path
   d="M 238.937,300.187 116.951,300 H 37.604 v 201.146 h 40.267 v -160.88 l 40.266,0.187 v 160.879 h 40.267 V 340.453 l 40.464,-0.187 -0.198,161.066 h 40.267 z"
   fill="#4c4c4c"
   id="path2" />&#10;      <path
   d="m 330.797,364.426 -0.623,10.103 q 4.181,-6.014 9.962,-9.02 5.781,-3.007 13.163,-3.007 14.408,0 22.679,12.027 4.536,-6.014 10.228,-9.02 5.692,-3.007 12.629,-3.007 9.161,0 15.165,4.009 6.003,4.009 7.693,9.822 1.69,5.812 1.69,18.881 v 81.752 h -34.864 v -75.498 q 0,-13.63 -1.023,-16.877 -1.023,-3.247 -4.759,-3.247 -3.824,0 -4.936,3.207 -1.111,3.207 -1.111,16.917 v 75.498 h -34.864 v -73.734 q 0,-15.635 -0.845,-18.761 -0.845,-3.127 -4.67,-3.127 -2.401,0 -4.091,1.643 -1.69,1.644 -1.868,4.009 -0.178,2.365 -0.178,10.062 v 79.908 H 295.31 v -112.54 z"
   fill="#4c4c4c"
   id="path3" />&#10;      <path
   d="m 517.124,425.653 h -46.515 v 23.011 q 0,7.216 1.157,9.3 1.156,2.085 4.446,2.085 4.092,0 5.47,-2.766 1.379,-2.766 1.379,-10.704 v -14.031 h 34.063 v 7.857 q 0,9.862 -1.378,15.154 -1.379,5.291 -6.448,11.305 -5.07,6.013 -12.852,9.02 -7.782,3.006 -19.522,3.006 -11.384,0 -20.1,-2.966 -8.716,-2.967 -13.564,-8.138 -4.847,-5.172 -6.714,-11.385 -1.868,-6.214 -1.868,-18.08 v -37.174 q 0,-13.951 4.18,-22.008 4.18,-8.058 13.697,-12.347 9.516,-4.29 21.879,-4.29 15.119,0 24.947,5.171 9.828,5.172 13.786,13.711 3.957,8.538 3.957,24.013 z m -36.02,-23.464 v -7.777 q 0,-8.258 -0.978,-10.663 -0.979,-2.405 -4.002,-2.405 -3.736,0 -4.625,2.044 -0.89,2.045 -0.89,11.024 v 7.777 z"
   fill="#4c4c4c"
   id="path4" />&#10;      <path
   d="m 566.753,350.235 v 16.757 h 9.694 v 16.837 h -9.694 V 446.9 q 0,10.503 1.2,11.706 1.201,1.202 10.006,1.202 v 17.158 h -14.497 q -12.274,0 -17.521,-0.922 -5.248,-0.922 -9.25,-4.249 -4.002,-3.328 -4.98,-7.617 -0.979,-4.29 -0.979,-20.165 v -60.184 h -7.738 v -16.837 h 7.738 v -16.757 z"
   fill="#4c4c4c"
   id="path5" />&#10;      <path
   d="m 616.469,405.637 h -33.708 v -7.136 q 0,-12.347 3.158,-19.042 3.157,-6.694 12.673,-11.826 9.517,-5.131 24.726,-5.131 18.232,0 27.482,5.813 9.249,5.813 11.117,14.271 1.868,14.604 1.868,40.982 v 53.398 h -34.953 v -9.461 q -3.291,5.693 -8.494,8.539 -5.203,2.846 -12.407,2.846 -9.427,0 -17.299,-4.77 -7.871,-4.771 -7.871,-20.886 v -8.74 q 0,-14.816 4.18,-19.145 4.181,-5.752 20.723,-11.524 17.699,-5.947 18.944,-8.112 1.245,-4.325 1.245,-10.98 0,-8.338 -1.378,-10.864 -1.379,-2.526 -4.58,-2.526 -3.647,0 -4.536,2.125 -0.89,2.125 -0.89,11.024 z m 11.384,20.737 q -8.627,5.693 -10.005,9.541 -1.379,3.849 -1.379,11.065 0,8.258 1.201,10.663 1.201,2.406 4.758,2.406 3.38,0 4.403,-1.885 1.022,-1.884 1.022,-9.901 z"
   fill="#4c4c4c"
   id="path6" />&#10;      <path
   d="m 710.675,364.426 -0.623,10.103 q 4.187,-6.014 9.977,-9.02 5.791,-3.007 13.185,-3.007 14.432,0 22.717,12.027 4.543,-6.014 10.244,-9.02 5.702,-3.007 12.651,-3.007 9.175,0 15.189,4.009 6.013,4.009 7.705,9.822 1.693,5.812 1.693,18.881 v 81.752 h -34.921 v -75.498 q 0,-13.63 -1.025,-16.877 -1.024,-3.247 -4.766,-3.247 -3.831,0 -4.944,3.207 -1.114,3.207 -1.114,16.917 v 75.498 h -34.921 v -73.734 q 0,-15.635 -0.846,-18.761 -0.847,-3.127 -4.677,-3.127 -2.406,0 -4.098,1.643 -1.693,1.644 -1.871,4.009 -0.178,2.365 -0.178,10.062 v 79.908 H 675.13 v -112.54 z"
   fill="#cf0000"
   id="path7" />&#10;      <path
   d="m 897.22,401.789 v 32.202 q 0,14.352 -1.604,21.047 -1.603,6.694 -6.859,12.507 -5.256,5.813 -13.497,8.579 -8.24,2.766 -18.93,2.766 -11.938,0 -20.223,-2.365 -8.284,-2.365 -12.872,-7.136 -4.588,-4.77 -6.548,-11.545 -1.96,-6.775 -1.96,-20.325 v -33.405 q 0,-14.833 3.563,-23.171 3.564,-8.339 12.829,-13.39 9.265,-5.051 23.696,-5.051 12.116,0 20.802,3.247 8.686,3.247 13.407,8.459 4.722,5.211 6.459,10.744 1.737,5.532 1.737,16.837 z m -35.991,-8.018 q 0,-8.178 -0.979,-10.303 -0.98,-2.124 -4.187,-2.124 -3.207,0 -4.277,2.124 -1.069,2.125 -1.069,10.303 v 54.171 q 0,7.537 1.069,9.822 1.07,2.285 4.187,2.285 3.208,0 4.232,-2.085 1.024,-2.084 1.024,-8.98 z"
   fill="#cf0000"
   id="path8" />&#10;      <path
   d="m 945.059,364.426 -1.426,13.951 q 7.84,-14.993 22.717,-15.875 v 37.443 q -9.888,0 -14.521,2.405 -4.632,2.405 -5.701,6.695 -1.069,10.434 -1.069,25.909 v 42.012 h -35.991 v -112.54 z"
   fill="#cf0000"
   id="path9" />&#10;      <path
   d="m 1010.982,364.427 -0.624,9.38 q 4.811,-5.692 10.601,-8.498 5.791,-2.807 12.65,-2.807 8.374,0 14.477,4.049 6.102,4.049 7.616,9.341 1.515,5.291 1.515,17.959 v 50.964 q 0,14.512 -1.915,20.646 -1.916,6.133 -7.84,9.781 -5.924,3.648 -14.298,3.648 -6.681,0 -12.383,-2.806 -5.701,-2.806 -10.423,-8.338 v 33.586 h -35.99 V 364.427 Z m 10.245,30.948 q 0,-9.862 -0.802,-11.947 -0.802,-2.084 -4.455,-2.084 -3.563,0 -4.587,2.405 -1.025,2.405 -1.025,11.626 v 50.242 q 0,9.621 1.069,12.027 1.069,2.405 4.633,2.405 3.474,0 4.32,-2.205 0.847,-2.205 0.847,-10.703 z"
   fill="#cf0000"
   id="path10" />&#10;      <path
   d="m 1105.056,340.266 v 29.933 q 4.632,-3.849 10.022,-5.773 5.389,-1.924 11.536,-1.924 9.443,0 16.08,4.329 6.637,4.33 8.107,9.982 1.47,5.653 1.47,20.646 v 79.507 h -35.991 v -81.03 q 0,-9.301 -1.024,-11.947 -1.025,-2.646 -4.588,-2.646 -3.296,0 -4.454,2.726 -1.158,2.726 -1.158,10.824 v 82.073 h -35.991 v -136.7 z"
   fill="#cf0000"
   id="path11" />&#10;    </g>&#10;  <g
   id="g3"
   transform="translate(9.5673933,-0.03453676)"
   style="display:inline"
   inkscape:label="SMALL LOGO"><path
     d="m 7.1818831,120.39429 -3.1132681,-0.005 H 2.0435844 v 5.13355 H 3.071234 v -1.02291 l 1.0342085,0.005 -0.00653,1.0229 H 5.126562 l 0.00656,-1.0229 1.0276495,3.5e-4 -0.00653,1.02255 H 7.181891 Z"
     fill="#cf0000"
     id="path1-6"
     style="stroke-width:0.0255215" /><path
     d="m 6.1542336,119.36664 -3.1132682,-0.005 h -2.025056 v 5.13355 h 1.027675 v -4.1059 l 1.0276496,0.005 v 4.10587 h 1.027675 v -4.10587 l 1.0327028,-0.005 -0.00505,4.11064 h 1.0276751 z"
     fill="#4c4c4c"
     id="path2-5"
     style="stroke-width:0.0255215" /></g></g>&#10;  <g
   inkscape:label="BLOCKS"
   inkscape:groupmode="layer"
   id="layer1"
   style="display:inline">&#10;    &#10;    <path
   d="m 3.5771671,76.499996 72.0936669,-8.8e-4 c 0.292365,-4e-6 0.529167,0.2368 0.529167,0.52916 v 16.942562 c 0,0.29236 -0.236802,0.52916 -0.529167,0.52916 H 3.5771671 c -0.2921,0 -0.529167,-0.2368 -0.529167,-0.52916 V 77.029156 c 0,-0.29236 0.2370671,-0.529157 0.529167,-0.52916 z"
   fill="#000000"
   fill-opacity="0.7"
   id="path13"
   style="stroke-width:0.264583"
   sodipodi:nodetypes="sssssssss" />&#10;    <path
   d="m 76.729171,57.013222 11.133665,-8.8e-4 c 0.292365,-2.3e-5 0.529167,0.2368 0.529167,0.52916 v 13.929336 c 0,0.29236 -0.236802,0.52916 -0.529167,0.52916 H 76.729171 c -0.2921,0 -0.529167,-0.2368 -0.529167,-0.52916 V 57.542382 c 0,-0.29236 0.237067,-0.529137 0.529167,-0.52916 z"
   fill="#000000"
   fill-opacity="0.7"
   id="path14"
   style="stroke-width:0.264583"
   sodipodi:nodetypes="sssssssss" />&#10;    &#10;    &#10;    &#10;    &#10;    <circle
   style="display:inline;fill:#ff0000;stroke-width:0.704961"
   id="circle108"
   cx="70.099129"
   cy="85.035431"
   r="4.695075" />&#10;    <circle
   style="display:inline;fill:#ff0000;stroke-width:0.704961"
   id="circle128"
   cx="82.291321"
   cy="85.035431"
   r="4.695075" />&#10;    <circle
   style="display:inline;fill:#ff0000;stroke-width:0.704961"
   id="circle29"
   cx="21.331324"
   cy="85.03524"
   r="4.695075" />&#10;    &#10;    <circle
   style="display:inline;fill:#ff0000;stroke-width:0.704961"
   id="circle286"
   cx="82.295006"
   cy="62.565189"
   r="4.695075" />&#10;    <circle
   style="display:inline;fill:#ff0000;stroke-width:0.704961"
   id="circle236"
   cx="21.335007"
   cy="62.564995"
   r="4.695075" />&#10;  <g
   id="g158"
   inkscape:label="BOX"
   transform="matrix(0.97376671,0,0,0.77583702,1.9265284,-18.175434)"
   style="display:inline">&#10;        <path
   d="m 78.346323,111.11212 h 8.346969 v 3.8508 h -8.346969 z"
   fill="#ff0000"
   id="path158"
   style="display:inline;stroke-width:0.351895"
   inkscape:label="RED BOX" />&#10;      </g><g
   id="g161"
   inkscape:label="BOX"
   transform="matrix(0.97376671,0,0,0.77583702,-59.020035,-18.175434)"
   style="display:inline">&#10;        <path
   d="m 78.346323,111.11212 h 8.346969 v 3.8508 h -8.346969 z"
   fill="#ff0000"
   id="path161"
   style="display:inline;stroke-width:0.351895"
   inkscape:label="RED BOX" />&#10;      </g><g
   id="g29"
   inkscape:label="BOX"
   transform="matrix(0.97376671,0,0,0.77583702,1.9265284,4.195026)"
   style="display:inline">&#10;        <path
   d="m 78.346323,111.11212 h 8.346969 v 3.8508 h -8.346969 z"
   fill="#ff0000"
   id="path12"
   style="display:inline;stroke-width:0.351895"
   inkscape:label="RED BOX" />&#10;      </g><g
   id="g162"
   inkscape:label="BOX"
   transform="matrix(0.97376671,0,0,0.77583702,-10.252228,4.195026)"
   style="display:inline">&#10;        <path
   d="m 78.346323,111.11212 h 8.346969 v 3.8508 h -8.346969 z"
   fill="#ff0000"
   id="path162"
   style="display:inline;stroke-width:0.351895"
   inkscape:label="RED BOX" />&#10;      </g><g
   id="g164"
   inkscape:label="BOX"
   transform="matrix(0.97376671,0,0,0.77583702,-59.020035,4.195026)"
   style="display:inline">&#10;        <path
   d="m 78.346323,111.11212 h 8.346969 v 3.8508 h -8.346969 z"
   fill="#ff0000"
   id="path164"
   style="display:inline;stroke-width:0.351895"
   inkscape:label="RED BOX" />&#10;      </g></g>&#10;  <g
   inkscape:groupmode="layer"
   id="layer6"
   inkscape:label="Brackets"
   style="display:inline"><g
     id="g167"
     inkscape:label="split bracket"
     transform="translate(0,-21.188121)"
     style="display:inline">&#10;        <path
   d="m 53.379586,100.06013 h 32.100815 c 0.194247,0 0.370195,0.0785 0.497581,0.20585 0.127387,0.12739 0.206211,0.30334 0.206211,0.49794"
   fill-opacity="0"
   stroke="#969f96"
   stroke-width="0.351895"
   id="path166"
   sodipodi:nodetypes="cscc" />&#10;        <path
   d="M 38.040892,100.06013 H 5.9597398 c -0.1942465,0 -0.3701949,0.0785 -0.497581,0.20585 -0.1273874,0.12739 -0.2062111,0.30334 -0.2062111,0.49794"
   fill-opacity="0"
   stroke="#969f96"
   stroke-width="0.351895"
   id="path167"
   sodipodi:nodetypes="cscc" />&#10;      </g><g
     id="g265"
     inkscape:label="base bracket"
     transform="rotate(180,45.715511,64.19209)"
     style="display:inline">&#10;        <path
   d="m 45.442086,100.06013 h 29.984148 c 0.194247,0 0.370195,0.0785 0.497581,0.20585 0.127387,0.12739 0.206211,0.30334 0.206211,0.49794"
   fill-opacity="0"
   stroke="#969f96"
   stroke-width="0.351895"
   id="path264"
   sodipodi:nodetypes="cscc" />&#10;        <path
   d="M 46.507559,100.06013 H 16.013906 c -0.194246,0 -0.370194,0.0785 -0.497581,0.20585 -0.127387,0.12739 -0.206211,0.30334 -0.206211,0.49794"
   fill-opacity="0"
   stroke="#969f96"
   stroke-width="0.351895"
   id="path265"
   sodipodi:nodetypes="cscc" />&#10;      </g><g
     id="g259"
     inkscape:label="top bracket"
     transform="translate(-0.00911627,-87.884183)"
     style="display:inline">&#10;        <path
   d="m 53.379586,100.06013 h 22.046648 c 0.194247,0 0.370195,0.0785 0.497581,0.20585 0.127387,0.12739 0.206211,0.30334 0.206211,0.49794"
   fill-opacity="0"
   stroke="#969f96"
   stroke-width="0.351895"
   id="path258"
   sodipodi:nodetypes="cscc" />&#10;        <path
   d="M 38.040892,100.06013 H 16.013906 c -0.194246,0 -0.370194,0.0785 -0.497581,0.20585 -0.127387,0.12739 -0.206211,0.30334 -0.206211,0.49794"
   fill-opacity="0"
   stroke="#969f96"
   stroke-width="0.351895"
   id="path259"
   sodipodi:nodetypes="cscc"
   inkscape:label="path259" />&#10;      </g></g><g
   inkscape:groupmode="layer"
   id="g42"
   inkscape:label="TEXT - convert"
   style="display:inline"><text
     xml:space="preserve"
     style="font-size:2.91042px;line-height:1.8;font-family:'Autogate Sans';-inkscape-font-specification:'Autogate Sans';letter-spacing:0.264583px;fill:#f9f9f9;stroke-width:0.264583"
     x="82.482918"
     y="70.574478"
     id="text25"><tspan
       sodipodi:role="line"
       id="tspan25"
       style="font-size:2.91042px;text-align:center;text-anchor:middle;stroke-width:0.264583"
       x="82.615211"
       y="70.574478">LED</tspan></text><text
     xml:space="preserve"
     style="font-size:2.91042px;line-height:1.8;font-family:'Autogate Sans';-inkscape-font-specification:'Autogate Sans';letter-spacing:0.264583px;fill:#f9f9f9;stroke-width:0.264583"
     x="21.461775"
     y="70.574478"
     id="text26"><tspan
       sodipodi:role="line"
       id="tspan26"
       style="font-size:2.91042px;text-align:center;text-anchor:middle;stroke-width:0.264583"
       x="21.594067"
       y="70.574478">KEY</tspan></text><text
     xml:space="preserve"
     style="font-size:2.91042px;line-height:1.8;font-family:'Autogate Sans';-inkscape-font-specification:'Autogate Sans';letter-spacing:0.264583px;fill:#f9f9f9;stroke-width:0.264583"
     x="70.117523"
     y="92.944939"
     id="text27"><tspan
       sodipodi:role="line"
       id="tspan27"
       style="font-size:2.91042px;text-align:center;text-anchor:middle;stroke-width:0.264583"
       x="70.249817"
       y="92.944939">KG</tspan></text><text
     xml:space="preserve"
     style="font-size:2.91042px;line-height:1.8;font-family:'Autogate Sans';-inkscape-font-specification:'Autogate Sans';letter-spacing:0.264583px;fill:#f9f9f9;stroke-width:0.264583"
     x="82.425186"
     y="92.944939"
     id="text28"><tspan
       sodipodi:role="line"
       id="tspan28"
       style="font-size:2.91042px;text-align:center;text-anchor:middle;stroke-width:0.264583"
       x="82.55748"
       y="92.944939">LED</tspan></text><text
     xml:space="preserve"
     style="font-size:2.91042px;line-height:1.8;font-family:'Autogate Sans';-inkscape-font-specification:'Autogate Sans';letter-spacing:0.264583px;fill:#f9f9f9;stroke-width:0.264583"
     x="21.404045"
     y="92.944939"
     id="text29"><tspan
       sodipodi:role="line"
       id="tspan29"
       style="font-size:2.91042px;text-align:center;text-anchor:middle;stroke-width:0.264583"
       x="21.536337"
       y="92.944939">KEY</tspan></text><text
     xml:space="preserve"
     style="font-size:2.91042px;line-height:1.8;font-family:'Autogate Sans';-inkscape-font-specification:'Autogate Sans';letter-spacing:0.264583px;fill:#f9f9f9;stroke-width:0.264583"
     x="8.9332628"
     y="83.136246"
     id="text30"><tspan
       sodipodi:role="line"
       id="tspan30"
       style="font-size:2.91042px;text-align:center;text-anchor:middle;stroke-width:0.264583"
       x="9.0655546"
       y="83.136246">POLY</tspan></text><text
     xml:space="preserve"
     style="font-size:2.91042px;line-height:1.8;font-family:'Autogate Sans';-inkscape-font-specification:'Autogate Sans';letter-spacing:0.264583px;fill:#f9f9f9;stroke-width:0.264583"
     x="45.808453"
     y="80.20842"
     id="text31"><tspan
       sodipodi:role="line"
       id="tspan31"
       style="font-size:2.91042px;text-align:center;text-anchor:middle;stroke-width:0.264583"
       x="45.940742"
       y="80.20842">SPLIT 1</tspan></text><text
     xml:space="preserve"
     style="font-size:6.12552px;line-height:1.8;font-family:'Autogate Sans';-inkscape-font-specification:'Autogate Sans';letter-spacing:0.556864px;fill:#d40000;stroke-width:0.556864"
     x="45.915031"
     y="9"
     id="text32"
     inkscape:label="title"><tspan
       sodipodi:role="line"
       id="tspan32"
       style="font-size:6.12552px;text-align:center;text-anchor:middle;fill:#d40000;stroke-width:0.556864"
       x="46.193462"
       y="9">TITLE</tspan></text><text
     xml:space="preserve"
     style="font-size:2.91042px;line-height:1.8;font-family:'Autogate Sans';-inkscape-font-specification:'Autogate Sans';letter-spacing:0.264583px;fill:#f9f9f9;stroke-width:0.264583"
     x="33.573467"
     y="92.944939"
     id="text33"><tspan
       sodipodi:role="line"
       id="tspan33"
       style="font-size:2.91042px;text-align:center;text-anchor:middle;stroke-width:0.264583"
       x="33.705757"
       y="92.944939">X</tspan></text><text
     xml:space="preserve"
     style="font-size:2.91042px;line-height:1.8;font-family:'Autogate Sans';-inkscape-font-specification:'Autogate Sans';letter-spacing:0.264583px;fill:#f9f9f9;stroke-width:0.264583"
     x="45.775673"
     y="92.944939"
     id="text34"><tspan
       sodipodi:role="line"
       id="tspan34"
       style="font-size:2.91042px;text-align:center;text-anchor:middle;stroke-width:0.264583"
       x="45.907963"
       y="92.944939">Y</tspan></text><text
     xml:space="preserve"
     style="font-size:2.91042px;line-height:1.8;font-family:'Autogate Sans';-inkscape-font-specification:'Autogate Sans';letter-spacing:0.264583px;fill:#f9f9f9;stroke-width:0.264583"
     x="57.973389"
     y="92.944939"
     id="text35"><tspan
       sodipodi:role="line"
       id="tspan35"
       style="font-size:2.91042px;text-align:center;text-anchor:middle;stroke-width:0.264583"
       x="58.105679"
       y="92.944939">z</tspan></text><text
     xml:space="preserve"
     style="font-size:2.91042px;line-height:1.8;font-family:'Halogen by Pixel Surplus';-inkscape-font-specification:'Halogen by Pixel Surplus';text-align:center;letter-spacing:0.264583px;text-anchor:middle;fill:#00ff00;stroke-width:0.264583"
     x="66.909317"
     y="46.5"
     id="text36"><tspan
       sodipodi:role="line"
       id="tspan36"
       style="stroke-width:0.264583"
       x="66.909317"
       y="46.5" /></text><text
     xml:space="preserve"
     style="font-size:2.91042px;line-height:1.8;font-family:'Halogen by Pixel Surplus';-inkscape-font-specification:'Halogen by Pixel Surplus';text-align:center;letter-spacing:0.264583px;text-anchor:middle;fill:#00ff00;stroke-width:0.264583"
     x="98.834129"
     y="38.261597"
     id="text37"><tspan
       sodipodi:role="line"
       id="tspan37"
       style="stroke-width:0.264583"
       x="98.834129"
       y="38.261597" /></text><text
     xml:space="preserve"
     style="font-size:2.91042px;line-height:1.8;font-family:'Autogate Sans';-inkscape-font-specification:'Autogate Sans';letter-spacing:0.264583px;fill:#4c4c4c;fill-opacity:1;stroke-width:0.264583"
     x="45.808453"
     y="13.512358"
     id="text38"><tspan
       sodipodi:role="line"
       id="tspan38"
       style="font-size:2.91042px;text-align:center;text-anchor:middle;fill:#4c4c4c;fill-opacity:1;stroke-width:0.264583"
       x="45.940742"
       y="13.512358">SPLIT 1</tspan></text><text
     xml:space="preserve"
     style="display:inline;font-size:2.91042px;line-height:1.8;font-family:'Autogate Sans';-inkscape-font-specification:'Autogate Sans';letter-spacing:0.264583px;fill:#4c4c4c;fill-opacity:1;stroke-width:0.264583"
     x="9.2395601"
     y="70.545616"
     id="text41"><tspan
       sodipodi:role="line"
       id="tspan41"
       style="font-size:2.91042px;text-align:center;text-anchor:middle;fill:#4c4c4c;fill-opacity:1;stroke-width:0.264583"
       x="9.3718519"
       y="70.545616">DIsable</tspan></text><text
     xml:space="preserve"
     style="display:inline;font-size:2.91042px;line-height:1.8;font-family:'Autogate Sans';-inkscape-font-specification:'Autogate Sans';letter-spacing:0.264583px;fill:#4c4c4c;fill-opacity:1;stroke-width:0.264583"
     x="21.461775"
     y="50.995293"
     id="text42"
     transform="translate(0,-23.995293)"><tspan
       sodipodi:role="line"
       id="tspan42"
       style="font-size:2.91042px;text-align:center;text-anchor:middle;fill:#4c4c4c;fill-opacity:1;stroke-width:0.264583"
       x="21.594067"
       y="50.995293">row</tspan></text></g>&#10;  <g
   inkscape:groupmode="layer"
   id="layer2-0"
   inkscape:label="components"
   style="display:inline">&#10;    &#10;    &#10;    &#10;    &#10;    &#10;    &#10;    &#10;    &#10;    &#10;    &#10;    &#10;    &#10;    &#10;    &#10;    &#10;    &#10;    &#10;    &#10;    &#10;    &#10;    &#10;    &#10;    &#10;    &#10;    &#10;    &#10;    <circle
   style="display:inline;fill:#ff00ff;fill-opacity:1;stroke-width:4.08699"
   id="circle519"
   cx="14.396749"
   cy="82.128494"
   inkscape:label="led_s1"
   r="2" />&#10;    <circle
   style="display:inline;fill:#ff0000;fill-opacity:1;stroke-width:0.313059"
   id="circle49"
   cx="10.079727"
   cy="88.560448"
   inkscape:label="p_s1_poly"
   r="4" /><circle
   style="display:inline;fill:#0000ff;fill-opacity:1;stroke-width:0.313059"
   id="circle10-9"
   cx="21.335718"
   cy="85.03524"
   inkscape:label="out1_k"
   r="4" /><circle
   style="display:inline;fill:#0000ff;fill-opacity:1;stroke-width:0.313;stroke-dasharray:none"
   id="circle11"
   cx="33.502911"
   cy="85.03524"
   inkscape:label="out1_x"
   r="4" /><circle
   style="display:inline;fill:#0000ff;fill-opacity:1;stroke-width:0.313059"
   id="circle12"
   cx="45.707279"
   cy="85.03524"
   inkscape:label="out1_y"
   r="4" /><circle
   style="display:inline;fill:#0000ff;fill-opacity:1;stroke-width:0.313059"
   id="circle13"
   cx="57.899174"
   cy="85.03524"
   inkscape:label="out1_z"
   r="4" /><circle
   style="display:inline;fill:#00ff00;fill-opacity:1;stroke-width:0.313059"
   id="circle36"
   cx="82.291321"
   cy="85.03524"
   inkscape:label="in1_lights"
   r="4" /><circle
   style="display:inline;fill:#0000ff;fill-opacity:1;stroke-width:0.313059"
   id="circle9"
   cx="70.103714"
   cy="85.03524"
   inkscape:label="out1_kg"
   r="4" />&#10;  <circle
   style="display:inline;fill:#00ff00;fill-opacity:1;stroke-width:0.313059"
   id="circle1"
   cx="21.335718"
   cy="62.554775"
   inkscape:label="in_k"
   r="4" /><circle
   style="display:inline;fill:#ff0000;fill-opacity:1;stroke-width:0.313059"
   id="circle5"
   cx="21.326954"
   cy="18.729544"
   inkscape:label="p_s1_start_r"
   r="4" /><circle
   style="display:inline;fill:#0000ff;fill-opacity:1;stroke-width:0.313059"
   id="circle39"
   cx="82.295715"
   cy="62.554775"
   inkscape:label="out_lights"
   r="4" /><circle
   style="display:inline;fill:#00ff00;fill-opacity:1;stroke-width:0.313059"
   id="circle52"
   cx="9.1435156"
   cy="62.554775"
   inkscape:label="in_disable"
   r="4" /></g>&#10;</svg>
